<svg xmlns="http://www.w3.org/2000/svg" viewBox="0 0 464.29 448.44"><defs><style>.cls-1,.cls-2,.cls-3,.cls-4,.cls-5{fill:none;stroke:#000;}.cls-1,.cls-3{stroke-miterlimit:10;}.cls-1,.cls-2,.cls-3,.cls-4{stroke-width:16px;}.cls-2{stroke-linecap:square;}.cls-2,.cls-4,.cls-5{stroke-linejoin:round;}.cls-3,.cls-4,.cls-5{stroke-linecap:round;}.cls-5{stroke-width:10px;}</style></defs><title>hog-bano</title><g id="Capa_2" data-name="Capa 2"><g id="Layer_1" data-name="Layer 1"><rect class="cls-1" x="8" y="258.4" width="448.29" height="30.48" rx="15.24" ry="15.24"/><polyline class="cls-2" points="422.49 296.89 367.49 414.47 96.81 414.47 41.81 296.89"/><line class="cls-3" x1="367.49" y1="414.47" x2="378.37" y2="440.44"/><line class="cls-3" x1="96.37" y1="414.47" x2="85.49" y2="440.44"/><path class="cls-4" d="M346,95.61c0-.22,0-.44,0-.67a35.27,35.27,0,1,0-70.54,0c0,.22,0,.44,0,.67Z"/><path class="cls-4" d="M311,57.62A49.76,49.76,0,0,1,360.66,8h0a49.76,49.76,0,0,1,49.62,49.62V251.79"/><line class="cls-5" x1="311.11" y1="113.57" x2="311.11" y2="124.45"/><line class="cls-5" x1="311.11" y1="140.21" x2="311.11" y2="151.09"/><line class="cls-5" x1="311.11" y1="166.86" x2="311.11" y2="177.73"/><line class="cls-5" x1="311.11" y1="193.5" x2="311.11" y2="204.38"/><line class="cls-5" x1="293.52" y1="124.76" x2="293.52" y2="135.64"/><line class="cls-5" x1="293.52" y1="152.74" x2="293.52" y2="163.61"/><line class="cls-5" x1="293.52" y1="180.71" x2="293.52" y2="191.59"/><line class="cls-5" x1="327.89" y1="124.76" x2="327.89" y2="135.64"/><line class="cls-5" x1="327.89" y1="152.74" x2="327.89" y2="163.61"/><line class="cls-5" x1="327.89" y1="180.71" x2="327.89" y2="191.59"/></g></g></svg>