<svg xmlns="http://www.w3.org/2000/svg" viewBox="0 0 425.75 425.75"><defs><style>.cls-1{fill:none;stroke:#000;stroke-linejoin:round;stroke-width:16px;}</style></defs><title>dep-pelotas</title><g id="Capa_2" data-name="Capa 2"><g id="Layer_1" data-name="Layer 1"><path class="cls-1" d="M246.83,246.94l-34.17-34.17L67.95,357.59A203.57,203.57,0,0,0,188.31,416.1,204.64,204.64,0,0,1,246.83,246.94Z"/><path class="cls-1" d="M172.21,172.33A204,204,0,0,1,8.84,231.43a204.06,204.06,0,0,0,59.1,126.16L212.76,212.77Z"/><path class="cls-1" d="M246.83,246.94A204.33,204.33,0,0,1,416,188.43,203.57,203.57,0,0,0,357.48,68.06L212.76,212.77Z"/><path class="cls-1" d="M172.21,172.33l40.55,40.55L357.57,68.06A203.54,203.54,0,0,0,231.42,9,204.56,204.56,0,0,1,172.21,172.33Z"/><path class="cls-1" d="M67.95,68.06,172.21,172.33A204.14,204.14,0,0,0,231.32,9,204.14,204.14,0,0,0,67.95,68.06Z"/><path class="cls-1" d="M172.21,172.33,67.95,68.06A204.14,204.14,0,0,0,8.84,231.43,204.35,204.35,0,0,0,172.21,172.33Z"/><path class="cls-1" d="M357.48,357.59,246.83,246.94A204.33,204.33,0,0,0,188.32,416.1,204.22,204.22,0,0,0,357.48,357.59Z"/><path class="cls-1" d="M246.83,246.94,357.48,357.59A204.33,204.33,0,0,0,416,188.43,204.33,204.33,0,0,0,246.83,246.94Z"/><circle class="cls-1" cx="212.87" cy="212.87" r="204.87"/></g></g></svg>