<svg xmlns="http://www.w3.org/2000/svg" viewBox="0 0 500.48 306.02"><defs><style>.cls-1{fill:none;stroke:#000;stroke-miterlimit:10;stroke-width:16px;}</style></defs><title>tec-videojuegos</title><g id="Capa_2" data-name="Capa 2"><g id="Layer_1" data-name="Layer 1"><path class="cls-1" d="M438,37.89C426.74,18,406.8,6.08,383.63,8.27,367.49,9.88,298,26.59,250.71,26.59h-.57c-47.38,0-116.78-16.71-132.92-18.32C94,6.08,74.11,17.38,62.81,37.89,51.51,57.83.34,179,9,243c11.87,88.87,92.1,48.42,113.08,25.83,14.53-15.57,36.08-43.42,50.61-49.88s51.65-.57,77.48-.57h.57c25.82,0,62.47-5.89,77,.57s36.08,33.64,50.61,49.88C399.87,292,479.52,331.75,491.39,243,500.51,178.88,449.43,58.3,438,37.89Z"/><path d="M180.73,126.3c0,4.27-3.23,7-7.5,7H143v30.19c0,4.27-2.66,7.5-7,7.5h-8.07c-4.27,0-7-3.23-7-7.5V133.33H90.72c-4.27,0-7.5-2.66-7.5-7v-8.07c0-4.27,3.23-7,7.5-7h30.67V81c0-4.27,2.66-7.5,7-7.5h8.07c4.27,0,7,3.23,7,7.5v30.67h30.19c4.27,0,7.5,2.66,7.5,7v7.5h-.47Z"/><path d="M331.51,138.65a16.14,16.14,0,1,1,16.14-16.14A15.89,15.89,0,0,1,331.51,138.65Z"/><path d="M369.2,176.34a16.14,16.14,0,1,1,16.14-16.14A15.89,15.89,0,0,1,369.2,176.34Z"/><path d="M369.2,101a16.14,16.14,0,1,1,16.14-16.14A15.89,15.89,0,0,1,369.2,101Z"/><path d="M406.89,138.65A16.14,16.14,0,1,1,423,122.51,15.89,15.89,0,0,1,406.89,138.65Z"/></g></g></svg>