<svg xmlns="http://www.w3.org/2000/svg" viewBox="0 0 502.7 459.1"><defs><style>.cls-1,.cls-2,.cls-3{fill:none;stroke:#000;stroke-linejoin:round;}.cls-1{stroke-width:16px;}.cls-2,.cls-3{stroke-width:12px;}.cls-3{stroke-linecap:round;}</style></defs><title>ele-cuidado-personal</title><g id="Capa_2" data-name="Capa 2"><g id="Layer_1" data-name="Layer 1"><path class="cls-1" d="M357.91,44,120.8,8h-1.51a111.24,111.24,0,0,0-47,212.06l55.42,191.39A54.74,54.74,0,0,0,235,396.12a53.94,53.94,0,0,0-2.14-15.06L186.74,221.48l171.17-27a11.46,11.46,0,0,0,10-11.49V55.4A11.59,11.59,0,0,0,357.91,44Z"/><path class="cls-2" d="M52,118a60.72,60.72,0,1,0,60.72-60.72h0A60.77,60.77,0,0,0,52,118Z"/><line class="cls-2" x1="64.71" y1="81.58" x2="160.58" y2="81.58"/><line class="cls-2" x1="54.01" y1="106.26" x2="173.41" y2="106.26"/><line class="cls-2" x1="54.01" y1="130.94" x2="173.41" y2="130.94"/><line class="cls-2" x1="64.71" y1="155.53" x2="160.58" y2="155.53"/><path class="cls-3" d="M390.29,114.75c8.87,0,8.87,10.59,17.74,10.59s8.87-10.59,17.74-10.59,8.87,10.59,17.74,10.59,8.87-10.59,17.74-10.59,8.87,10.59,17.74,10.59,8.87-10.59,17.74-10.59"/><path class="cls-3" d="M390.29,83c8.87,0,8.87,10.59,17.74,10.59S416.89,83,425.76,83s8.87,10.59,17.74,10.59S452.36,83,461.23,83,470.1,93.63,479,93.63,487.84,83,496.7,83"/><path class="cls-3" d="M390.29,146.45c8.87,0,8.87,10.59,17.74,10.59s8.87-10.59,17.74-10.59S434.63,157,443.5,157s8.87-10.59,17.74-10.59S470.1,157,479,157s8.87-10.59,17.74-10.59"/></g></g></svg>