<svg xmlns="http://www.w3.org/2000/svg" viewBox="0 0 417.42 337.14"><defs><style>.cls-1{fill:none;stroke:#000;stroke-linejoin:round;stroke-width:16px;}</style></defs><title>tec-camaras</title><g id="Capa_2" data-name="Capa 2"><g id="Layer_1" data-name="Layer 1"><path class="cls-1" d="M155.19,8a4.78,4.78,0,0,0-3.9,2.09l-30,51.43H52.6A44.6,44.6,0,0,0,8,106.13V284.54a44.6,44.6,0,0,0,44.6,44.6H364.82a44.6,44.6,0,0,0,44.6-44.6V106.13a44.6,44.6,0,0,0-44.6-44.6H296.1l-30-51.43A4.55,4.55,0,0,0,262.23,8Z"/><path d="M208.71,113.21a82.13,82.13,0,1,1-82.13,82.13,82.22,82.22,0,0,1,82.13-82.13m0-16a98.13,98.13,0,1,0,98.13,98.13,98.19,98.19,0,0,0-98.13-98.13Z"/><path d="M347,111.67a7.84,7.84,0,1,1-7.84,7.84,7.95,7.95,0,0,1,7.84-7.84m0-10a17.84,17.84,0,1,0,17.84,17.84A17.91,17.91,0,0,0,347,101.67Z"/><path d="M208.71,142.89a52.44,52.44,0,1,1-52.44,52.44,52.5,52.5,0,0,1,52.44-52.44m0-10a62.44,62.44,0,1,0,62.44,62.44,62.51,62.51,0,0,0-62.44-62.44Z"/></g></g></svg>