<svg xmlns="http://www.w3.org/2000/svg" viewBox="0 0 415.74 501.27"><defs><style>.cls-1,.cls-2{fill:none;stroke:#000;stroke-width:16px;}.cls-1{stroke-linejoin:round;}.cls-2{stroke-miterlimit:10;}</style></defs><title>ele-climatizacion</title><g id="Capa_2" data-name="Capa 2"><g id="Layer_1" data-name="Layer 1"><path class="cls-1" d="M358,204.86a102.36,102.36,0,0,1-5.91,34c-3.76,10.64-8.27,21-15.47,29.77-6.23,7.74-13.65,14-24.18,14.83-7.09.54-13.54-1.72-19.23-5.91a52.22,52.22,0,0,1-8.6-8.27c-5.27-6.23-10-13-15.58-19a72.36,72.36,0,0,0-26-18.27,3.28,3.28,0,0,0-2.47,0c-1.18.64-.64,1.61-.11,2.58a81.11,81.11,0,0,1,7.84,39.54,83.18,83.18,0,0,1-7,29.12,80.38,80.38,0,0,1-13.54,21.28C218.29,335,207.22,343,193.47,347.24a68.57,68.57,0,0,1-20.2,2.9A76.07,76.07,0,0,1,131,336.92a104.84,104.84,0,0,1-26-24.61c-6.23-8.17-11.71-16.66-14.94-26.43-2.47-7.52-3.22-15.26-.32-22.89,2.58-7,7.63-11.71,14.08-15.15,6.13-3.33,12.79-4.51,19.66-5.05,16.76-1.29,32.45-5.8,46.21-15.69a10.85,10.85,0,0,0,1.72-1.4c.43-.43.86-1.29.64-1.72a3,3,0,0,0-1.61-1.61c-5.91-1.4-11.93-2.15-17.62-4-13.11-4.08-24.39-11.5-34.06-21.28A81.77,81.77,0,0,1,96,153.28c-2.58-14.94-.86-29.34,6.13-43,7.63-15,19.23-25.9,34-33.53A101.88,101.88,0,0,1,172.3,66.24c10.21-1.07,20.42-1.29,30.52,1,7.74,1.72,14.61,4.94,19.88,11.07a26.51,26.51,0,0,1,6.13,14.83c1,9.89-2.47,18.48-6.88,27-5.16,9.89-8.7,20.31-9.67,31.48-.43,5.05-.32,10.21-.43,15.37,0,.54.54,1.07.75,1.61a13.48,13.48,0,0,0,1.29-1c3.44-4.08,6.55-8.49,10.32-12.36a80.62,80.62,0,0,1,36-20.85A78.8,78.8,0,0,1,288,131.58c16.44,1.18,31.59,6.34,44.49,17.09a68.64,68.64,0,0,1,17.41,22.14,77.47,77.47,0,0,1,7.52,25.79C357.77,199.7,357.88,202.82,358,204.86Z"/><path class="cls-1" d="M207.87,8C97.62,8,8,97.62,8,207.87S97.62,407.74,207.87,407.74s199.87-89.62,199.87-199.87S318.12,8,207.87,8Z"/><line class="cls-1" x1="207.87" y1="408.81" x2="207.87" y2="440.19"/><path class="cls-1" d="M362.61,493.27H53.13a5.32,5.32,0,0,1-5.37-5.37h0a47.88,47.88,0,0,1,47.71-47.71h224.8A47.88,47.88,0,0,1,368,487.9h0A5.32,5.32,0,0,1,362.61,493.27Z"/><circle class="cls-2" cx="211.31" cy="209.41" r="37.01"/></g></g></svg>