<svg xmlns="http://www.w3.org/2000/svg" viewBox="0 0 416.95 321.18"><defs><style>.cls-1,.cls-2{fill:none;stroke:#000;stroke-miterlimit:10;stroke-width:16px;}.cls-1{stroke-linecap:round;}</style></defs><title>tec-accesorios-computo</title><g id="Capa_2" data-name="Capa 2"><g id="Layer_1" data-name="Layer 1"><path class="cls-1" d="M130.07,41.29C114.09,13.22,95.22,9.22,78.8,9.22h0C58.71,9.22,38.07,21,29.64,37.08c-11.43,21.86-3.77,46.39,1.22,62.59A112.82,112.82,0,0,1,34,110.76c7.55,35.84-22.53,43.39-26,44.17"/><path d="M195.32,82.57a12.16,12.16,0,1,0-17.09,17.31L207,128.3A12.16,12.16,0,1,0,224.06,111Z"/><path class="cls-2" d="M379,283.21h0c-40,40-105.2,40-145.15,0l-100.1-100.1c-40-40-40-105.2,0-145.15h0c40-40,105.2-40,145.15,0L379,138.06C418.93,178,418.93,243.37,379,283.21Z"/></g></g></svg>