<svg xmlns="http://www.w3.org/2000/svg" viewBox="0 0 417.03 446.69"><defs><style>.cls-1,.cls-2{fill:none;stroke:#231f20;stroke-width:16px;}.cls-1{stroke-miterlimit:10;}.cls-2{stroke-linecap:round;stroke-linejoin:round;}</style></defs><title>nin-bebes</title><g id="Capa_2" data-name="Capa 2"><g id="Layer_1" data-name="Layer 1"><path class="cls-1" d="M187.7,179.09l61.2-161.28A190.82,190.82,0,0,0,188.26,8C88.71,8,8,83.63,8,176.93,8,253.3,61.15,320.64,135.37,341.54H251.51c58.89-20.61,111.09-103.1,122.32-162.45Z"/><circle class="cls-2" cx="69.53" cy="401.99" r="36.7"/><circle class="cls-2" cx="301.6" cy="401.99" r="36.7"/><path class="cls-2" d="M299.06,178.58c42.62-37.74,75.51-66.9,79.7-70.74,13-11.87,31.3-3.24,30.22,9.71"/><path class="cls-2" d="M69.53,402S91,380.75,135.37,341.54"/><line class="cls-2" x1="187.7" y1="179.09" x2="120.78" y2="179.09"/><line class="cls-2" x1="187.7" y1="179.09" x2="89.83" y2="35.39"/><line class="cls-2" x1="301.6" y1="401.99" x2="251.51" y2="341.54"/></g></g></svg>