<svg xmlns="http://www.w3.org/2000/svg" viewBox="0 0 231.69 454.27"><defs><style>.cls-1,.cls-2{fill:none;stroke:#000;stroke-linecap:round;stroke-width:16px;}.cls-1{stroke-linejoin:round;}.cls-2{stroke-miterlimit:10;}</style></defs><title>hog-comedor</title><g id="Capa_2" data-name="Capa 2"><g id="Layer_1" data-name="Layer 1"><path class="cls-1" d="M100.11,10.37V175.09a32.19,32.19,0,0,1-21.47,30.55l-.2.29v216a24.46,24.46,0,0,1-24.39,24.39h0a24.46,24.46,0,0,1-24.39-24.39v-216l-.2-.29A32.2,32.2,0,0,1,8,175.09V10.37"/><line class="cls-2" x1="38.96" y1="10.37" x2="38.96" y2="110.09"/><line class="cls-2" x1="68.96" y1="10.37" x2="68.96" y2="110.09"/><path class="cls-1" d="M133.16,142.86C133.16,93.6,165.89,8,200.21,8c12,0,23.48,7.24,23.48,24.73V421.88a24.46,24.46,0,0,1-24.39,24.39h0a24.46,24.46,0,0,1-24.39-24.39l-.2-166.25S133.16,236.46,133.16,142.86Z"/></g></g></svg>