<svg xmlns="http://www.w3.org/2000/svg" viewBox="0 0 358.77 503.43"><defs><style>.cls-1,.cls-2{fill:none;stroke:#000;stroke-linejoin:round;stroke-width:16px;}.cls-2{stroke-linecap:round;}</style></defs><title>ele-lavado-secado</title><g id="Capa_2" data-name="Capa 2"><g id="Layer_1" data-name="Layer 1"><path class="cls-1" d="M8,444.08V8H350.77V444.08h0a39.72,39.72,0,0,1-39.6,39.7H47.7A39.8,39.8,0,0,1,8,444.08Z"/><rect x="47.7" y="483.68" width="46.86" height="19.75"/><rect x="264.21" y="483.68" width="46.86" height="19.75"/><path class="cls-1" d="M8,101.62H8Z"/><circle cx="256.43" cy="53.12" r="15.25"/><circle cx="303.09" cy="53.12" r="15.25"/><path d="M77.07,39.51H38.9a5,5,0,0,1,0-10H77.07a5,5,0,0,1,0,10Z"/><line class="cls-1" x1="110.22" y1="8" x2="110.22" y2="96.81"/><circle class="cls-2" cx="179.38" cy="294.19" r="111.32"/><path class="cls-2" d="M69.67,275.36a37.63,37.63,0,0,0,73.68,10.79,37.59,37.59,0,0,0,72.06,0,37.63,37.63,0,0,0,73.68-10.79"/></g></g></svg>