<svg xmlns="http://www.w3.org/2000/svg" viewBox="0 0 486.88 296.97"><defs><style>.cls-1,.cls-2{fill:none;stroke:#000;stroke-linejoin:round;}.cls-1{stroke-width:16px;}.cls-2{stroke-width:10px;}</style></defs><title>hog-camping</title><g id="Capa_2" data-name="Capa 2"><g id="Layer_1" data-name="Layer 1"><path class="cls-1" d="M478,279,323.46,11.35A6.66,6.66,0,0,0,317.75,8H186.56c-.15,0-.3.08-.53.08s-.46.08-.69.08a6.44,6.44,0,0,0-1.29.38,3.73,3.73,0,0,0-.53.23,6.09,6.09,0,0,0-1.6,1.14h0l-172,172A6.75,6.75,0,0,0,8,186.63a6.88,6.88,0,0,0,1.9,4.72l42.49,42.49L26.35,279a6.46,6.46,0,0,0,0,6.62A6.66,6.66,0,0,0,32.06,289H472.32a6.56,6.56,0,0,0,5.71-3.35A6.64,6.64,0,0,0,478,279Z"/><line class="cls-1" x1="183.51" y1="8.84" x2="314.48" y2="288.89"/><line class="cls-2" x1="184.27" y1="8.84" x2="184.27" y2="288.89"/><line class="cls-2" x1="183.51" y1="8.84" x2="67.85" y2="288.89"/><line class="cls-1" x1="52.39" y1="233.84" x2="79.96" y2="259.58"/><line class="cls-2" x1="156.18" y1="76.85" x2="185.34" y2="76.85"/><line class="cls-2" x1="140.95" y1="110.79" x2="185.34" y2="110.79"/><line class="cls-2" x1="110.49" y1="182.52" x2="184.27" y2="182.52"/><line class="cls-2" x1="95.26" y1="218.38" x2="185.34" y2="218.38"/><line class="cls-2" x1="80.03" y1="253.32" x2="185.34" y2="253.32"/><line class="cls-2" x1="125.72" y1="146.66" x2="184.27" y2="146.66"/></g></g></svg>