<svg xmlns="http://www.w3.org/2000/svg" viewBox="0 0 305.97 503.28"><defs><style>.cls-1{fill:none;stroke:#000;stroke-linejoin:round;stroke-width:16px;}</style></defs><title>ele-refrigeracion</title><g id="Capa_2" data-name="Capa 2"><g id="Layer_1" data-name="Layer 1"><path class="cls-1" d="M274.59,8H31.29A23.25,23.25,0,0,0,8,31.29V446a23,23,0,0,0,14.47,21.47V489a6,6,0,0,0,6.32,6.32H277.18A6,6,0,0,0,283.5,489V467.49A23.2,23.2,0,0,0,298,446V31.29C297.88,18.73,287.14,8,274.59,8Z"/><path d="M60.23,162.47a6,6,0,0,0,6.32-6.32V132.86a6,6,0,0,0-6.32-6.32,5.94,5.94,0,0,0-6.32,6.32v23.29A6.44,6.44,0,0,0,60.23,162.47Z"/><path d="M60.23,251.3a6,6,0,0,0-6.32,6.32v23.29a6,6,0,0,0,6.32,6.32,5.94,5.94,0,0,0,6.32-6.32V257.63A6.31,6.31,0,0,0,60.23,251.3Z"/><line class="cls-1" x1="297.88" y1="204.54" x2="7.9" y2="204.54"/><line class="cls-1" x1="283.41" y1="467.59" x2="21.32" y2="467.59"/></g></g></svg>