<?xml version="1.0" encoding="UTF-8"?>
<svg width="14px" height="28px" viewBox="0 0 14 28" version="1.1" xmlns="http://www.w3.org/2000/svg" xmlns:xlink="http://www.w3.org/1999/xlink">
    <!-- Generator: Sketch 45.2 (43514) - http://www.bohemiancoding.com/sketch -->
    <title>bebidas</title>
    <desc>Created with Sketch.</desc>
    <defs></defs>
    <g id="Iconos" stroke="none" stroke-width="1" fill="none" fill-rule="evenodd">
        <g id="Tienda---iOS" transform="translate(-39.000000, -1024.000000)" fill-rule="nonzero" fill="#000000">
            <g id="bebidas" transform="translate(39.000000, 1024.000000)">
                <g id="Shape">
                    <path d="M3.789,4.494 L10.182,4.494 C10.536,4.494 10.822,4.207 10.822,3.854 C10.822,3.582 10.651,3.348 10.411,3.257 L10.411,2.114 C10.411,1.126 9.607,0.323 8.619,0.323 L5.423,0.323 C4.435,0.323 3.631,1.126 3.631,2.114 L3.631,3.234 C3.354,3.304 3.149,3.555 3.149,3.855 C3.149,4.209 3.436,4.495 3.789,4.495 L3.789,4.494 Z M4.911,2.113 C4.911,1.831 5.14,1.602 5.423,1.602 L8.619,1.602 C8.902,1.602 9.131,1.831 9.131,2.113 L9.131,3.214 L4.911,3.214 L4.911,2.113 L4.911,2.113 Z"></path>
                    <path d="M11.78,8.753 C10.999,8.302 9.707,7.307 9.833,5.709 C9.861,5.357 9.597,5.049 9.245,5.021 C8.884,4.986 8.585,5.257 8.557,5.609 C8.425,7.288 9.367,8.838 11.139,9.862 C12.226,10.488 12.227,11.972 12.226,11.994 L12.226,13.603 C12.226,13.886 11.997,14.115 11.714,14.115 L10.757,14.115 C10.403,14.115 10.117,14.402 10.117,14.755 C10.117,15.108 10.404,15.395 10.757,15.395 L11.714,15.395 C11.997,15.395 12.226,15.624 12.226,15.907 L12.226,19.744 C12.226,20.026 11.997,20.254 11.711,20.254 L10.754,20.259 C10.401,20.261 10.116,20.548 10.117,20.901 C10.118,21.254 10.405,21.54 10.757,21.54 L11.714,21.54 C11.997,21.54 12.226,21.768 12.226,22.05 L12.226,25.888 C12.226,26.171 11.997,26.4 11.714,26.4 L2.284,26.4 C2.002,26.4 1.773,26.171 1.773,25.888 L1.773,22.05 C1.773,21.768 2.002,21.54 2.284,21.54 L8.476,21.54 C8.825,21.54 9.11,21.261 9.116,20.912 C9.122,20.563 8.848,20.273 8.498,20.261 L2.284,20.256 C2.002,20.256 1.773,20.028 1.773,19.746 L1.773,15.909 C1.773,15.626 2.002,15.397 2.284,15.397 L8.476,15.397 C8.83,15.397 9.116,15.11 9.116,14.757 C9.116,14.404 8.829,14.117 8.476,14.117 L2.284,14.117 C2.002,14.117 1.773,13.888 1.773,13.605 L1.773,11.988 C1.773,11.973 1.773,10.49 2.861,9.864 C4.633,8.84 5.574,7.289 5.443,5.611 C5.416,5.258 5.101,4.996 4.755,5.022 C4.402,5.05 4.138,5.357 4.166,5.71 C4.291,7.309 3,8.304 2.219,8.755 C0.473,9.762 0.49,11.916 0.491,11.996 L0.491,13.605 C0.491,14.043 0.649,14.446 0.911,14.757 C0.65,15.067 0.492,15.468 0.492,15.907 L0.492,19.744 C0.492,20.182 0.651,20.586 0.914,20.897 C0.651,21.207 0.492,21.611 0.492,22.049 L0.492,25.887 C0.492,26.875 1.295,27.679 2.283,27.679 L11.713,27.679 C12.701,27.679 13.505,26.875 13.505,25.887 L13.505,22.049 C13.505,21.611 13.346,21.207 13.083,20.896 C13.346,20.585 13.505,20.182 13.505,19.743 L13.505,15.906 C13.505,15.468 13.347,15.065 13.085,14.754 C13.347,14.443 13.505,14.04 13.505,13.602 L13.505,12.025 C13.505,12.022 13.505,12.018 13.505,12.014 L13.505,12.003 C13.507,11.913 13.524,9.76 11.778,8.753 L11.78,8.753 Z"></path>
                </g>
            </g>
        </g>
    </g>
</svg>