<?xml version="1.0" encoding="UTF-8"?>
<svg width="34px" height="17px" viewBox="0 0 34 17" version="1.1" xmlns="http://www.w3.org/2000/svg" xmlns:xlink="http://www.w3.org/1999/xlink">
    <!-- Generator: Sketch 45.2 (43514) - http://www.bohemiancoding.com/sketch -->
    <title>carnes rojas</title>
    <desc>Created with Sketch.</desc>
    <defs></defs>
    <g id="Iconos" stroke="none" stroke-width="1" fill="none" fill-rule="evenodd">
        <g id="Tienda---iOS" transform="translate(-29.000000, -604.000000)" fill-rule="nonzero" fill="#333333">
            <g id="carnes-rojas" transform="translate(29.000000, 603.000000)">
                <g id="carnes" transform="translate(0.000000, 0.714286)">
                    <path d="M33.1682143,8.92760204 C33.167,8.92326531 33.1633571,8.91892857 33.1621429,8.91459184 C33.1597143,8.83045918 33.1730714,8.74719388 33.1597143,8.66219388 C32.9205,7.1972449 30.906,6.05234694 28.0281429,5.74357143 C25.4769286,5.46862245 24.3488571,4.68280612 22.9220714,3.68535714 C21.5960714,2.75989796 20.0927857,1.71127551 17.2015714,0.960153061 C15.7092143,0.57244898 14.1840714,0.375561224 12.6686429,0.375561224 C9.00028571,0.375561224 6.60692857,1.51612245 6.54014286,1.55081633 C2.19542857,3.44596939 1.31507143,5.95 1.173,6.48862245 C1.06492857,6.74188776 -0.471142857,10.5521429 2.48685714,13.5505612 C4.53171429,15.6243878 8.18185714,16.7614796 13.3352857,16.9288776 C14.2532857,16.9583673 15.1275714,16.9731122 15.963,16.9731122 C25.3166429,16.9731122 29.5508571,15.1811735 31.4645714,13.6034694 C33.0492143,12.2972449 33.6381429,10.6796429 33.1706429,8.92846939 L33.1682143,8.92760204 Z M7.37678571,2.48408163 C7.39742857,2.47367347 9.49935714,1.48489796 12.6662143,1.48489796 C14.0007143,1.48489796 15.3461429,1.65923469 16.6685,2.00270408 C19.2452143,2.67229592 20.5602857,3.59081633 21.8340714,4.47897959 C23.3325,5.525 24.7471429,6.51290816 27.7962143,6.84076531 C29.9600714,7.07321429 31.4609286,7.83908163 31.6163571,8.79142857 C31.773,9.74377551 30.5101429,10.7256122 28.3244286,11.3544388 C26.2249286,11.9563776 20.7885714,12.9139286 15.1397143,12.9139286 C11.5757857,12.9139286 6.80728571,12.5123469 4.33742857,10.602449 C3.0685,9.6197449 2.51478571,8.3005102 2.69085714,6.71326531 C2.69328571,6.6872449 3.21057143,4.30030612 7.37678571,2.48321429 L7.37678571,2.48408163 Z M30.2867143,12.8766327 C28.4276429,14.4083673 23.9979286,16.1682143 13.4032857,15.8186735 C8.76107143,15.6677551 5.5165,14.6911224 3.76064286,12.9165306 C3.05878571,12.2053061 2.66535714,11.4281633 2.45407143,10.670102 C2.67628571,10.9086224 2.91671429,11.1402041 3.19478571,11.3544388 C5.45214286,13.1012755 9.58314286,14.0232653 15.1397143,14.0232653 C20.3708571,14.0232653 26.1350714,13.1784694 28.9024286,12.3839796 C29.9588571,12.0804082 30.8367857,11.7022449 31.5204286,11.2737755 C31.2812143,11.8531633 30.8744286,12.3926531 30.2879286,12.8757653 L30.2867143,12.8766327 Z" id="Shape"></path>
                    <path d="M11.3742143,11.4455102 C12.3699286,11.5556633 13.3000714,11.6120408 14.1391429,11.6120408 C16.6563571,11.6120408 18.4729286,11.1133163 19.5402857,10.1288776 C21.0229286,8.76280612 20.5663571,6.90494898 20.3004286,6.16857143 C19.8450714,4.90484694 18.6647857,4.02102041 17.4310714,4.02102041 C16.9186429,4.02102041 15.9532857,4.18494898 15.2441429,5.2830102 C14.8701429,5.86239796 14.5313571,6.15295918 14.3443571,6.27959184 C14.3261429,6.09831633 14.3589286,5.72709184 14.6625,5.05316327 C14.9672857,4.37663265 14.9369286,3.87443878 14.5738571,3.51795918 C14.365,3.31326531 13.9436429,3.07127551 13.1167143,3.07127551 C12.2351429,3.07127551 11.2843571,3.34795918 11.271,3.35229592 C7.57228571,4.28816327 4.96885714,6.41663265 5.21414286,8.3022449 C5.33557143,9.23290816 6.2985,10.882602 11.3717857,11.4463776 L11.3742143,11.4455102 Z M11.6777857,4.1077551 C11.6850714,4.10602041 12.4634286,3.8805102 13.1179286,3.8805102 C13.2757857,3.8805102 13.5575,3.89612245 13.6582857,3.995 C13.7044286,4.04096939 13.838,4.2352551 13.583,4.80423469 C13.124,5.82510204 13.0839286,6.52938776 13.464,6.90234694 C13.6412857,7.07668367 13.9023571,7.17209184 14.1962143,7.17209184 C15.1348571,7.17209184 15.9035,6.20066327 16.2775,5.62127551 C16.4681429,5.32637755 16.8725,4.8302551 17.4347143,4.8302551 C18.0321429,4.8302551 18.8566429,5.40530612 19.2039286,6.36979592 C19.4285714,6.98994898 19.8207857,8.54857143 18.6453571,9.63102041 C17.4978571,10.6883163 15.0717143,11.0335204 11.5502857,10.6432143 C8.35185714,10.287602 6.50371429,9.42979592 6.34707143,8.22505102 C6.154,6.74795918 8.534,4.90397959 11.6777857,4.10688776 L11.6777857,4.1077551 Z" id="Shape"></path>
                    <path d="M25.5024286,11.05 C26.5309286,11.05 27.6225714,10.7689796 28.3523571,10.3162245 C29.2023571,9.7880102 29.2193571,9.26239796 29.0845714,8.91545918 C28.7591429,8.07760204 27.2133571,7.46352041 25.8533571,7.29091837 C23.9748571,7.055 23.3009286,8.07673469 23.2122857,8.50693878 C22.7241429,9.45147959 22.9973571,10.0343367 23.3130714,10.3569898 C23.7477857,10.8045408 24.5261429,11.05 25.5036429,11.05 L25.5024286,11.05 Z M24.1946429,8.69255102 C24.2007143,8.66479592 24.3670714,7.98566327 25.33,7.98566327 C25.4356429,7.98566327 25.5485714,7.99433673 25.6736429,8.00908163 C26.8138571,8.15306122 27.9261429,8.65785714 28.101,9.1097449 C28.1313571,9.18954082 28.2236429,9.42892857 27.6820714,9.76545918 C26.707,10.3708673 24.6779286,10.4827551 24.1497143,9.94066327 C23.8303571,9.61540816 23.9833571,9.11841837 24.1934286,8.69255102 L24.1946429,8.69255102 Z" id="Shape"></path>
                </g>
            </g>
        </g>
    </g>
</svg>