<?xml version="1.0" encoding="UTF-8"?>
<svg width="24px" height="26px" viewBox="0 0 24 26" version="1.1" xmlns="http://www.w3.org/2000/svg" xmlns:xlink="http://www.w3.org/1999/xlink">
    <!-- Generator: Sketch 45.2 (43514) - http://www.bohemiancoding.com/sketch -->
    <title>frutas</title>
    <desc>Created with Sketch.</desc>
    <defs></defs>
    <g id="Iconos" stroke="none" stroke-width="1" fill="none" fill-rule="evenodd">
        <g id="Tienda---iOS" transform="translate(-35.000000, -315.000000)" fill-rule="nonzero" fill="#000000">
            <g id="frutas" transform="translate(35.000000, 314.000000)">
                <g id="icon_frutas" transform="translate(0.000000, 1.000000)">
                    <path d="M21.881,9.346 C21.662,9.064 21.26,9.015 20.98,9.233 C20.973,9.238 20.97,9.247 20.965,9.252 C20.961,9.254 20.959,9.254 20.955,9.257 L19.41,10.53 C19.334,10.535 19.256,10.544 19.195,10.596 C19.134,10.648 19.108,10.723 19.086,10.795 L17.549,12.062 C16.084,9.138 13.226,7.24 9.948,7.022 C9.948,6.978 9.944,6.938 9.944,6.896 C12.49,5.34 13.857,6.314 15.694,5.653 C17.552,4.983 19.159,2.491 19.228,2.386 C19.322,2.237 19.353,2.054 19.307,1.883 C19.264,1.711 19.151,1.565 18.997,1.479 C18.932,1.443 17.356,0.584 15.275,0.584 C14.418,0.584 13.595,0.729 12.823,1.014 C11.241,1.601 10.227,2.867 9.601,4.023 C9.282,2.516 8.861,1.954 8.786,1.862 C8.56,1.594 8.174,1.562 7.9,1.778 C7.628,1.992 7.581,2.392 7.788,2.672 C7.798,2.684 8.508,3.692 8.664,7.009 C3.892,7.355 0.111,11.338 0.111,16.195 C0.111,21.279 4.25,25.415 9.332,25.415 C10.55,25.415 11.732,25.174 12.846,24.715 C13.313,24.784 13.789,24.834 14.269,24.834 C14.269,24.834 14.273,24.834 14.275,24.834 C19.575,24.834 23.889,20.521 23.889,15.222 C23.89,13.074 23.195,11.043 21.882,9.345 L21.881,9.346 Z M13.269,2.219 C13.897,1.985 14.574,1.868 15.274,1.868 C16.271,1.868 17.14,2.107 17.704,2.313 C17.116,3.074 16.163,4.12 15.259,4.446 C14.044,4.882 12.65,4.257 10.466,5.167 C10.946,4.1 11.814,2.756 13.268,2.219 L13.269,2.219 Z M20.608,15.224 C20.608,16.101 20.428,16.935 20.11,17.697 L15.784,15.489 C15.592,15.392 15.366,15.468 15.265,15.658 C15.17,15.848 15.246,16.08 15.434,16.176 L19.75,18.375 C19.058,19.595 18,20.58 16.7,21.137 L15.194,16.492 C15.131,16.291 14.92,16.177 14.71,16.246 C14.507,16.311 14.397,16.529 14.463,16.731 L15.97,21.373 C15.396,21.542 14.803,21.659 14.176,21.659 C13.263,21.659 12.38,21.462 11.569,21.103 L13.72,16.886 L16.125,14.904 L20.358,13.532 C20.507,14.081 20.61,14.646 20.61,15.224 L20.608,15.224 Z M9.907,20.025 L12.224,18.115 L10.882,20.75 C10.534,20.542 10.21,20.298 9.907,20.026 L9.907,20.025 Z M17.743,13.567 L17.761,13.552 C17.768,13.545 17.776,13.539 17.783,13.533 L19.701,11.95 C19.862,12.222 19.995,12.506 20.114,12.798 L17.743,13.567 Z M9.332,24.132 C4.955,24.132 1.396,20.573 1.396,16.197 C1.396,12.037 4.617,8.62 8.693,8.294 C8.695,8.518 8.695,8.745 8.691,8.987 C8.684,9.341 8.966,9.633 9.32,9.641 C9.325,9.641 9.327,9.641 9.333,9.641 C9.681,9.641 9.968,9.362 9.975,9.011 C9.98,8.767 9.978,8.538 9.978,8.308 C12.849,8.538 15.332,10.271 16.534,12.901 L8.877,19.211 C8.808,19.22 8.734,19.225 8.674,19.274 C8.615,19.322 8.598,19.391 8.576,19.459 L7.13,20.652 C7.127,20.654 7.127,20.658 7.121,20.661 C7.119,20.663 7.117,20.663 7.114,20.665 C7.087,20.688 7.076,20.722 7.051,20.748 C7.022,20.785 6.986,20.818 6.967,20.86 C6.95,20.892 6.946,20.927 6.936,20.963 C6.921,21.007 6.904,21.049 6.902,21.095 C6.9,21.133 6.909,21.171 6.912,21.209 C6.917,21.253 6.915,21.296 6.93,21.337 C6.943,21.381 6.973,21.419 6.996,21.46 C7.015,21.49 7.022,21.526 7.046,21.554 C7.046,21.555 7.051,21.557 7.051,21.558 C7.053,21.561 7.056,21.565 7.058,21.57 C8.008,22.652 9.18,23.486 10.47,24.043 C10.093,24.096 9.715,24.133 9.331,24.133 L9.332,24.132 Z M14.275,23.551 C14.273,23.551 14.273,23.551 14.269,23.551 C12.102,23.551 10.032,22.696 8.486,21.196 L9.303,20.522 C10.627,21.739 12.352,22.427 14.174,22.427 C18.146,22.427 21.379,19.196 21.379,15.224 C21.379,14.446 21.237,13.682 20.997,12.952 C20.995,12.939 21.003,12.93 20.999,12.917 C20.997,12.907 20.985,12.904 20.981,12.896 C20.809,12.394 20.576,11.916 20.297,11.461 L21.23,10.692 C22.112,12.043 22.604,13.587 22.604,15.223 C22.604,19.816 18.867,23.552 14.274,23.552 L14.275,23.551 Z" id="Shape"></path>
                </g>
            </g>
        </g>
    </g>
</svg>