<?xml version="1.0" encoding="UTF-8"?>
<svg width="28px" height="24px" viewBox="0 0 28 24" version="1.1" xmlns="http://www.w3.org/2000/svg" xmlns:xlink="http://www.w3.org/1999/xlink">
    <!-- Generator: Sketch 45.2 (43514) - http://www.bohemiancoding.com/sketch -->
    <title>hogar</title>
    <desc>Created with Sketch.</desc>
    <defs></defs>
    <g id="Iconos" stroke="none" stroke-width="1" fill="none" fill-rule="evenodd">
        <g id="Tienda---iOS" transform="translate(-34.000000, -1824.000000)" fill-rule="nonzero" fill="#333333">
            <g id="hogar" transform="translate(34.000000, 1824.000000)">
                <path d="M27.307,3.787 L24.157,3.787 L24.157,0.64 C24.157,0.286 23.87,0 23.517,0 L4.944,0 C4.59,0 4.304,0.287 4.304,0.64 L4.304,3.787 L0.64,3.787 C0.286,3.787 0,4.074 0,4.427 L0,13.13 C0,16.016 1.969,18.445 4.634,19.162 L3.943,22.737 C3.907,22.925 3.956,23.118 4.077,23.266 C4.199,23.413 4.38,23.499 4.571,23.499 L6.909,23.499 C7.146,23.499 7.362,23.369 7.473,23.161 L9.491,19.383 L18.784,19.383 L20.801,23.161 C20.912,23.369 21.13,23.499 21.365,23.499 L23.703,23.499 C23.894,23.499 24.075,23.414 24.197,23.266 C24.319,23.118 24.368,22.925 24.331,22.737 L23.624,19.073 C26.129,18.256 27.945,15.902 27.945,13.13 L27.945,4.427 C27.946,4.073 27.66,3.787 27.306,3.787 L27.307,3.787 Z M5.585,10.821 L22.878,10.821 L22.878,14.359 L5.585,14.359 L5.585,10.821 Z M5.585,1.281 L22.878,1.281 L22.878,9.541 L5.585,9.541 L5.585,1.281 Z M6.525,22.219 L5.346,22.219 L5.897,19.365 C6.015,19.371 6.134,19.383 6.254,19.383 L8.04,19.383 L6.524,22.219 L6.525,22.219 Z M22.93,22.219 L21.751,22.219 L20.236,19.383 L21.694,19.383 C21.924,19.383 22.151,19.368 22.375,19.344 L22.93,22.22 L22.93,22.219 Z M26.667,13.13 C26.667,15.871 24.436,18.103 21.693,18.103 L6.255,18.103 C3.512,18.103 1.28,15.873 1.28,13.13 L1.28,5.067 L4.304,5.067 L4.304,15 C4.304,15.354 4.591,15.64 4.944,15.64 L23.517,15.64 C23.871,15.64 24.157,15.353 24.157,15 L24.157,5.067 L26.667,5.067 L26.667,13.13 L26.667,13.13 Z" id="Shape"></path>
            </g>
        </g>
    </g>
</svg>