<?xml version="1.0" encoding="UTF-8"?>
<svg width="27px" height="25px" viewBox="0 0 27 25" version="1.1" xmlns="http://www.w3.org/2000/svg" xmlns:xlink="http://www.w3.org/1999/xlink">
    <!-- Generator: Sketch 45.2 (43514) - http://www.bohemiancoding.com/sketch -->
    <title>jugueteria y libreria</title>
    <desc>Created with Sketch.</desc>
    <defs></defs>
    <g id="Iconos" stroke="none" stroke-width="1" fill="none" fill-rule="evenodd">
        <g id="Tienda---iOS" transform="translate(-34.000000, -1744.000000)" fill-rule="nonzero" fill="#000000">
            <g id="jugueteria-y-libreria" transform="translate(34.000000, 1742.000000)">
                <g id="icon_libreria" transform="translate(0.000000, 2.000000)">
                    <path d="M17.5115769,0.719653846 L1.56392308,0.719653846 C1.19734615,0.719653846 0.897230769,1.01873077 0.897230769,1.38738462 L0.897230769,23.2148077 C0.897230769,23.5834615 1.19734615,23.8825385 1.56392308,23.8825385 L17.5115769,23.8825385 C18.4243846,23.8825385 19.1710385,23.139 19.1710385,22.2251538 L19.1710385,2.376 C19.1710385,1.46319231 18.4243846,0.718615385 17.5115769,0.718615385 L17.5115769,0.719653846 Z M17.8366154,22.2251538 C17.8366154,22.4037692 17.6912308,22.5481154 17.5115769,22.5481154 L5.33769231,22.5481154 L5.33769231,21.3850385 C5.33769231,21.1648846 5.15907692,20.9862692 4.93892308,20.9862692 C4.71773077,20.9862692 4.53911538,21.1648846 4.53911538,21.3850385 L4.53911538,22.5481154 L2.23061538,22.5481154 L2.23061538,2.05407692 L4.53807692,2.05407692 L4.53807692,2.72076923 C4.53807692,2.94196154 4.71669231,3.12057692 4.93788462,3.12057692 C5.15803846,3.12057692 5.33665385,2.94196154 5.33665385,2.72076923 L5.33665385,2.05407692 L17.5105385,2.05407692 C17.6901923,2.05407692 17.8355769,2.2005 17.8355769,2.37703846 L17.8355769,22.2251538 L17.8366154,22.2251538 Z" id="Shape"></path>
                    <path d="M4.93892308,12.9880385 C4.71773077,12.9880385 4.53911538,13.1666538 4.53911538,13.3868077 L4.53911538,14.7201923 C4.53911538,14.9403462 4.71773077,15.1189615 4.93892308,15.1189615 C5.15907692,15.1189615 5.33769231,14.9403462 5.33769231,14.7201923 L5.33769231,13.3868077 C5.33873077,13.1666538 5.16011538,12.9880385 4.93892308,12.9880385 Z" id="Shape"></path>
                    <path d="M4.93892308,8.98684615 C4.71773077,8.98684615 4.53911538,9.16546154 4.53911538,9.38665385 L4.53911538,10.719 C4.53911538,10.9401923 4.71773077,11.1188077 4.93892308,11.1188077 C5.15907692,11.1188077 5.33769231,10.9401923 5.33769231,10.719 L5.33769231,9.38665385 C5.33873077,9.16546154 5.16011538,8.98684615 4.93892308,8.98684615 Z" id="Shape"></path>
                    <path d="M4.93892308,4.98773077 C4.71773077,4.98773077 4.53911538,5.16634615 4.53911538,5.3865 L4.53911538,6.71988462 C4.53911538,6.94003846 4.71773077,7.11865385 4.93892308,7.11865385 C5.15907692,7.11865385 5.33769231,6.94003846 5.33769231,6.71988462 L5.33769231,5.3865 C5.33873077,5.16634615 5.16011538,4.98773077 4.93892308,4.98773077 Z" id="Shape"></path>
                    <path d="M4.93892308,16.9871538 C4.71773077,16.9871538 4.53911538,17.1647308 4.53911538,17.3859231 L4.53911538,18.7182692 C4.53911538,18.9394615 4.71773077,19.1180769 4.93892308,19.1180769 C5.15907692,19.1180769 5.33769231,18.9394615 5.33769231,18.7182692 L5.33769231,17.3859231 C5.33873077,17.1647308 5.16011538,16.9871538 4.93892308,16.9871538 Z" id="Shape"></path>
                    <path d="M15.3225,4.59207692 L8.04496154,4.59207692 C7.82376923,4.59207692 7.64619231,4.76965385 7.64619231,4.99084615 L7.64619231,9.76880769 C7.64619231,9.99 7.82376923,10.1686154 8.04496154,10.1686154 L15.3225,10.1686154 C15.5436923,10.1686154 15.7202308,9.99 15.7202308,9.76880769 L15.7202308,4.99084615 C15.7202308,4.76965385 15.5436923,4.59207692 15.3225,4.59207692 Z M14.9195769,9.37003846 L8.44373077,9.37003846 L8.44373077,5.39169231 L14.9195769,5.39169231 L14.9195769,9.37003846 Z" id="Shape"></path>
                    <path d="M9.5715,6.97430769 L13.8271154,6.97430769 C14.0472692,6.97430769 14.2279615,6.79673077 14.2279615,6.57553846 C14.2279615,6.35434615 14.0472692,6.17573077 13.8271154,6.17573077 L9.5715,6.17573077 C9.35134615,6.17573077 9.17480769,6.35434615 9.17480769,6.57553846 C9.17480769,6.79673077 9.35134615,6.97430769 9.5715,6.97430769 L9.5715,6.97430769 Z" id="Shape"></path>
                    <path d="M9.5715,8.43438462 L13.8271154,8.43438462 C14.0472692,8.43438462 14.2279615,8.25680769 14.2279615,8.03561538 C14.2279615,7.81546154 14.0472692,7.63684615 13.8271154,7.63684615 L9.5715,7.63684615 C9.35134615,7.63684615 9.17480769,7.81546154 9.17480769,8.03561538 C9.17480769,8.25680769 9.35134615,8.43438462 9.5715,8.43438462 L9.5715,8.43438462 Z" id="Shape"></path>
                    <path d="M24.8545385,0.719653846 L23.3030769,0.719653846 C22.6145769,0.719653846 22.0538077,1.28042308 22.0538077,1.96892308 L22.0538077,19.2790385 C22.0538077,19.3309615 22.0714615,19.3766538 22.0849615,19.4254615 C22.0922308,19.4607692 22.0901538,19.4971154 22.1057308,19.5355385 L22.1057308,19.5376154 C22.1057308,19.5386538 22.1088462,19.5396923 22.1088462,19.5396923 L23.4121154,22.6872692 L23.4121154,23.5367308 C23.4121154,23.9043462 23.7091154,24.2034231 24.0798462,24.2034231 C24.4474615,24.2034231 24.7455,23.9043462 24.7455,23.5367308 L24.7455,22.6872692 L26.0529231,19.5396923 C26.0529231,19.5396923 26.0529231,19.5386538 26.0529231,19.5376154 L26.055,19.5355385 C26.0674615,19.4991923 26.0674615,19.4628462 26.0747308,19.4254615 C26.0861538,19.3766538 26.1038077,19.3309615 26.1038077,19.2790385 L26.1038077,1.96892308 C26.1017308,1.28042308 25.5409615,0.719653846 24.8545385,0.719653846 L24.8545385,0.719653846 Z M24.0798462,20.8138846 L23.3861538,19.1450769 L23.3840769,18.4659231 L24.7693846,18.4659231 L24.7693846,19.1471538 L24.0788077,20.8138846 L24.0798462,20.8138846 Z M24.7693846,17.6663077 L23.3778462,17.6663077 L23.3145,4.79561538 L24.7673077,4.79561538 L24.7673077,17.6663077 L24.7693846,17.6663077 Z M24.7693846,1.96996154 L24.7693846,3.99703846 L23.3113846,3.99703846 L23.3020385,2.05407692 L24.7683462,1.96996154 L24.7693846,1.96996154 Z" id="Shape"></path>
                </g>
            </g>
        </g>
    </g>
</svg>