<?xml version="1.0" encoding="UTF-8"?>
<svg width="29px" height="29px" viewBox="0 0 29 29" version="1.1" xmlns="http://www.w3.org/2000/svg" xmlns:xlink="http://www.w3.org/1999/xlink">
    <!-- Generator: Sketch 45.2 (43514) - http://www.bohemiancoding.com/sketch -->
    <title>mascotas</title>
    <desc>Created with Sketch.</desc>
    <defs></defs>
    <g id="Iconos" stroke="none" stroke-width="1" fill="none" fill-rule="evenodd">
        <g id="Tienda---iOS" transform="translate(-33.000000, -1511.000000)" fill-rule="nonzero" fill="#000000">
            <g id="mascotas" transform="translate(32.000000, 1511.000000)">
                <g id="icon_mascotas" transform="translate(1.000000, 0.000000)">
                    <path d="M28.1113571,16.6221786 C27.6846429,16.1933929 27.1191429,15.9479286 26.5329286,15.91375 C26.5153214,15.6372143 26.4490357,15.3710357 26.3465,15.1172857 C26.3485714,15.1152143 26.3506429,15.1152143 26.35375,15.1131429 L27.2558571,14.2120714 C27.3811786,14.0888214 27.4516071,13.9179286 27.4516071,13.7408214 C27.4516071,13.5637143 27.3822143,13.3959286 27.2558571,13.2716429 L14.3498214,0.364571429 C14.2410714,0.257892857 14.0971071,0.205071429 13.9448571,0.200928571 C13.7149286,0.127392857 13.4570357,0.183321429 13.27475,0.364571429 L0.366642857,13.2716429 C0.243392857,13.3969643 0.171928571,13.56475 0.171928571,13.7408214 C0.171928571,13.9189643 0.241321429,14.08675 0.366642857,14.2110357 L2.33139286,16.1716429 C2.46085714,16.3021429 2.63175,16.3663571 2.80057143,16.3663571 C2.97146429,16.3663571 3.14132143,16.3011071 3.27182143,16.1716429 L4.70110714,14.7413214 L4.70110714,23.8224643 C4.70110714,23.8235 4.70317857,23.8245357 4.70317857,23.8276429 C4.70317857,23.8286786 4.70110714,23.8297143 4.70110714,23.83075 C4.70110714,24.1973929 5.00042857,24.4956786 5.36707143,24.4956786 L13.3389643,24.4956786 C13.4767143,24.4956786 13.5999643,24.4438929 13.7056071,24.3693214 C13.7667143,24.9213571 13.9987143,25.4350714 14.3995357,25.8327857 C14.8252143,26.2615714 15.3907143,26.5049643 15.9758929,26.5412143 C16.0111071,27.1263929 16.2565714,27.6918929 16.6832857,28.1186071 C17.1586786,28.5950357 17.78425,28.8322143 18.4098214,28.8322143 C19.0364286,28.8322143 19.662,28.594 20.1353214,28.1186071 C20.9255714,27.3304286 21.06125,26.1331429 20.53925,25.2030714 L25.2413929,20.4978214 C25.5893929,20.6832143 25.9798571,20.7867857 26.3837857,20.7867857 C26.3837857,20.7867857 26.3837857,20.7867857 26.3858571,20.7867857 C27.0393929,20.7867857 27.6504643,20.5330357 28.1113571,20.0721429 C28.5743214,19.61125 28.826,18.9981071 28.826,18.3466429 C28.826,17.6941429 28.5732857,17.081 28.1103214,16.6211429 L28.1113571,16.6221786 Z M2.80057143,14.761 L1.77625,13.7397857 L13.8122857,1.70685714 L25.8452143,13.73875 L25.5034286,14.0774286 C24.9752143,13.7128571 24.3196071,13.57925 23.6940357,13.68075 C23.6650357,13.6289643 23.6391429,13.5751071 23.5935714,13.5305714 L14.2804286,4.21742857 C14.0318571,3.96782143 13.5906429,3.96782143 13.34,4.21742857 L2.79953571,14.7599643 L2.80057143,14.761 Z M21.663,16.0898214 C21.6650714,16.5030714 21.7696786,16.9007857 21.9664643,17.2518929 L21.2072857,18.0100357 L18.8665714,18.0100357 C18.7681786,17.3161071 18.5372143,16.66775 18.1892143,16.0898214 L21.663,16.0898214 Z M11.5285357,7.91389286 L16.0991429,7.91389286 L17.9717143,9.7875 L9.65492857,9.7875 L11.5285357,7.91389286 Z M12.3239643,7.11535714 L13.8133214,5.62703571 L15.3016429,7.11535714 L12.3239643,7.11535714 L12.3239643,7.11535714 Z M8.85846429,10.585 L18.7681786,10.585 L20.5858571,12.4006071 L7.04285714,12.4006071 L8.8595,10.585 L8.85846429,10.585 Z M18.9421786,18.8075357 L20.4118571,18.8075357 L18.9421786,20.27825 L18.9421786,18.8075357 Z M6.24432143,13.1970714 L21.38025,13.1970714 L21.9799286,13.7957143 L21.9799286,14.8707857 C21.9043214,15.0064643 21.8432143,15.1462857 21.7924643,15.2912857 L17.6040357,15.2912857 C16.6542857,14.2327857 15.2892143,13.5512857 13.7605,13.5512857 C12.2286786,13.5512857 10.8646429,14.2327857 9.91489286,15.2912857 L6.03096429,15.2912857 L6.03096429,13.4083571 L6.24432143,13.1960357 L6.24432143,13.1970714 Z M8.57778571,20.82925 L6.03096429,20.82925 L6.03096429,18.8075357 L8.57778571,18.8075357 L8.57778571,20.82925 L8.57778571,20.82925 Z M6.03096429,21.62675 L8.57778571,21.62675 L8.57778571,23.1658214 L6.03096429,23.1658214 L6.03096429,21.62675 Z M8.64821429,18.0100357 L6.03096429,18.0100357 L6.03096429,16.0898214 L9.32764286,16.0898214 C8.98067857,16.66775 8.74867857,17.3161071 8.64821429,18.0100357 Z M9.90660714,23.1658214 L9.90660714,18.7371071 C9.90660714,16.6118214 11.6331429,14.8821786 13.7615357,14.8821786 C15.88475,14.8821786 17.6112857,16.60975 17.6112857,18.7371071 L17.6112857,21.4061429 C17.6112857,21.4662143 17.6330357,21.5200714 17.6454643,21.576 L17.3005714,21.9198571 C16.3725714,21.4030357 15.1732143,21.5366429 14.3881429,22.32275 C14.0991786,22.6075714 13.9220714,22.9731786 13.8050357,23.3605357 C13.688,23.2414286 13.5202143,23.1668571 13.3379286,23.1668571 L9.90660714,23.1668571 L9.90660714,23.1658214 Z M27.173,19.13275 C26.9617143,19.3440357 26.6862143,19.459 26.3879286,19.459 L26.3858571,19.459 C26.0906786,19.459 25.8110357,19.3440357 25.6049286,19.1337857 C25.4796071,19.0074286 25.3076786,18.9380357 25.1316071,18.9380357 C24.9555357,18.9380357 24.7856786,19.0074286 24.6613929,19.13275 L19.9219643,23.87425 C19.8618929,23.9353571 19.8173571,24.0068214 19.7831786,24.0824286 L19.198,24.6686429 C18.9380357,24.9286071 18.9380357,25.3491071 19.198,25.6090714 C19.6319643,26.0409643 19.6319643,26.7462857 19.198,27.1792143 C18.7640357,27.6142143 18.0576786,27.6121429 17.6237143,27.1792143 C17.3192143,26.8747143 17.2218571,26.4107143 17.3751429,25.9995357 C17.46525,25.7551071 17.4051786,25.4806429 17.2208214,25.2973214 C17.0364643,25.1119286 16.7588929,25.0539286 16.5155,25.1450714 C16.1084643,25.2993929 15.6465357,25.1999643 15.3378929,24.8933929 C15.1266071,24.6831429 15.0106071,24.4055714 15.0106071,24.1093571 C15.0106071,23.8152143 15.1255714,23.5366071 15.341,23.3242857 C15.5491786,23.1140357 15.8246786,22.9980357 16.1219286,22.9980357 C16.1219286,22.9980357 16.1219286,22.9980357 16.124,22.9980357 C16.42125,22.9980357 16.6998571,23.113 16.9101071,23.3263571 C17.1700714,23.5852857 17.5916071,23.5852857 17.8515714,23.3263571 C17.9168214,23.2621429 17.9634286,23.1886071 17.9965714,23.1088571 L23.3128929,17.7904643 C23.5738929,17.5305 23.5738929,17.1089643 23.3128929,16.849 C23.1036786,16.63875 22.9887143,16.3591071 22.9887143,16.0628929 C22.9887143,15.7666786 23.1036786,15.4880714 23.3149643,15.2798929 C23.7344286,14.8593929 24.4635714,14.85525 24.8871786,15.2819643 C25.1947857,15.5864643 25.2911071,16.0494286 25.1398929,16.4595714 C25.0466786,16.704 25.1057143,16.9795 25.2921429,17.1648929 C25.4744286,17.34925 25.7530357,17.40725 25.9974643,17.3150714 C26.4086429,17.1566071 26.8664286,17.2591429 27.1740357,17.5657143 C27.3842857,17.7749286 27.4982143,18.0535357 27.4982143,18.34975 C27.4982143,18.647 27.3842857,18.9245714 27.1740357,19.1348214 L27.173,19.13275 Z" id="Shape"></path>
                </g>
            </g>
        </g>
    </g>
</svg>