<?xml version="1.0" encoding="UTF-8"?>
<svg width="24px" height="24px" viewBox="0 0 24 24" version="1.1" xmlns="http://www.w3.org/2000/svg" xmlns:xlink="http://www.w3.org/1999/xlink">
    <!-- Generator: Sketch 45.2 (43514) - http://www.bohemiancoding.com/sketch -->
    <title>mi bebe</title>
    <desc>Created with Sketch.</desc>
    <defs></defs>
    <g id="Iconos" stroke="none" stroke-width="1" fill="none" fill-rule="evenodd">
        <g id="Tienda---iOS" transform="translate(-36.000000, -1899.000000)" fill-rule="nonzero" fill="#000000">
            <g id="mi-bebe" transform="translate(36.000000, 1895.000000)">
                <g id="icon_bebes" transform="translate(0.000000, 4.000000)">
                    <path d="M18.564,9.554 C18.649,9.566 18.747,9.574 18.784,9.574 C19.104,9.595 19.433,9.581 19.747,9.536 C19.769,9.535 19.788,9.533 19.808,9.53 C20.786,9.38 21.68,8.926 22.388,8.218 C24.209,6.396 24.209,3.435 22.388,1.614 C20.623,-0.149 17.543,-0.149 15.78,1.614 C15.079,2.316 14.625,3.205 14.469,4.188 C14.467,4.209 14.464,4.23 14.462,4.251 C14.421,4.527 14.407,4.824 14.43,5.242 C14.446,5.32 14.451,5.404 14.452,5.493 C14.467,6.005 14.286,6.475 13.941,6.822 C13.815,6.948 13.656,7.031 13.5,7.111 C12.97,6.483 12.478,5.846 12.053,5.226 L11.926,5.032 C11.834,4.894 11.744,4.759 11.601,4.538 C11.532,4.456 11.458,4.376 11.383,4.3 C10.694,3.61 9.757,3.212 8.82,3.212 C8.818,3.212 8.818,3.212 8.818,3.212 C7.96,3.212 7.164,3.535 6.576,4.122 C5.744,4.956 5.505,6.147 5.957,7.472 C6.105,7.779 6.274,8.097 6.459,8.418 C6.686,8.813 6.977,9.277 7.303,9.768 C7.07,10.133 6.89,10.516 6.775,10.917 C4.994,10.804 3.255,11.43 2.02,12.668 C-0.422,15.112 -0.332,19.177 2.221,21.729 C3.497,23.006 5.172,23.707 6.937,23.708 C8.594,23.708 10.136,23.077 11.28,21.93 C12.535,20.673 13.154,18.965 13.034,17.167 C13.437,17.053 13.821,16.88 14.181,16.654 C14.682,16.987 15.158,17.287 15.559,17.519 C15.883,17.706 16.201,17.873 16.59,18.056 C16.99,18.191 17.387,18.258 17.768,18.258 C18.565,18.258 19.293,17.966 19.86,17.401 C20.446,16.815 20.771,16.02 20.771,15.159 C20.771,14.219 20.374,13.284 19.682,12.594 C19.601,12.514 19.525,12.441 19.363,12.317 C19.228,12.236 19.093,12.148 18.959,12.059 L18.768,11.933 C18.139,11.502 17.504,11.009 16.873,10.478 C16.954,10.327 17.051,10.186 17.174,10.061 C17.506,9.734 18.013,9.558 18.566,9.554 L18.564,9.554 Z M14.849,7.727 C15.448,7.128 15.763,6.319 15.736,5.456 C15.731,5.296 15.717,5.132 15.699,5.089 C15.692,4.855 15.701,4.626 15.738,4.397 C15.743,4.378 15.745,4.358 15.745,4.335 C15.868,3.644 16.192,3.017 16.688,2.52 C17.967,1.243 20.203,1.244 21.481,2.52 C22.799,3.841 22.799,5.988 21.481,7.308 C20.98,7.808 20.352,8.134 19.666,8.251 C19.647,8.252 19.623,8.254 19.6,8.258 C19.364,8.296 19.098,8.303 18.883,8.294 C18.782,8.28 18.67,8.269 18.59,8.269 C18.58,8.268 18.456,8.266 18.445,8.266 C17.613,8.266 16.84,8.582 16.266,9.155 C15.366,10.057 15.126,11.437 15.656,12.672 C15.694,12.761 15.732,12.845 15.777,12.93 C15.774,12.975 15.76,13.029 15.711,13.076 C15.658,13.128 15.596,13.137 15.564,13.137 L15.544,13.133 C15.459,13.07 15.373,13.004 15.277,12.929 C14.53,12.354 13.778,11.692 13.042,10.956 C12.312,10.226 11.647,9.475 11.057,8.703 C10.989,8.62 10.923,8.537 10.861,8.452 C10.856,8.399 10.875,8.339 10.919,8.291 C10.965,8.246 11.018,8.24 11.108,8.24 L11.296,8.329 C12.51,8.859 13.955,8.619 14.851,7.727 L14.849,7.727 Z M10.027,16.953 C10.184,17.945 9.916,18.808 9.157,19.567 C7.876,20.848 5.691,20.833 4.374,19.515 C3.716,18.858 3.363,18.014 3.377,17.135 C3.391,16.271 3.754,15.44 4.399,14.796 C5.161,14.035 6.009,13.77 6.991,13.927 C7.204,14.397 7.502,14.839 7.886,15.224 L8.734,16.071 C9.113,16.448 9.553,16.738 10.028,16.953 L10.027,16.953 Z M10.372,21.024 C9.471,21.927 8.249,22.426 6.936,22.426 C5.514,22.425 4.161,21.855 3.128,20.823 C1.077,18.771 0.986,15.522 2.927,13.578 C3.828,12.679 5.046,12.184 6.358,12.184 C6.437,12.184 6.521,12.186 6.601,12.189 C6.601,12.215 6.606,12.238 6.606,12.264 C6.608,12.33 6.613,12.397 6.619,12.463 C6.621,12.501 6.621,12.54 6.626,12.578 C5.465,12.521 4.398,12.979 3.49,13.887 C2.61,14.768 2.114,15.915 2.094,17.115 C2.072,18.344 2.559,19.518 3.465,20.422 C5.267,22.228 8.297,22.241 10.064,20.475 C10.965,19.574 11.409,18.501 11.372,17.329 C11.503,17.343 11.632,17.35 11.766,17.351 C11.828,18.742 11.336,20.056 10.371,21.024 L10.372,21.024 Z M13.005,15.839 C12.734,15.95 12.449,16.014 12.16,16.042 C12.118,16.046 12.076,16.042 12.032,16.044 C11.787,16.058 11.54,16.046 11.298,16.003 C11.245,15.993 11.193,15.981 11.142,15.968 C10.583,15.84 10.053,15.574 9.64,15.159 L8.792,14.313 C8.371,13.891 8.11,13.373 7.979,12.828 C7.959,12.737 7.945,12.645 7.929,12.552 C7.904,12.366 7.897,12.18 7.904,11.992 C7.906,11.911 7.901,11.832 7.913,11.751 C7.945,11.474 8.005,11.198 8.115,10.935 C8.263,11.133 8.421,11.316 8.574,11.51 C8.766,11.751 8.943,11.987 9.154,12.232 C9.552,12.7 9.967,13.154 10.395,13.582 C10.824,14.013 11.28,14.426 11.751,14.828 C11.953,15.002 12.147,15.147 12.347,15.306 C12.567,15.485 12.778,15.667 13.005,15.838 L13.005,15.839 Z M18.252,13.132 C18.4,13.23 18.546,13.326 18.616,13.36 C18.67,13.405 18.721,13.451 18.773,13.504 C19.225,13.955 19.486,14.559 19.486,15.162 C19.486,15.678 19.295,16.151 18.952,16.495 C18.3,17.148 17.45,16.994 17.074,16.873 C16.793,16.734 16.499,16.583 16.201,16.41 C15.685,16.113 15.05,15.705 14.374,15.231 C13.951,14.936 13.544,14.624 13.148,14.306 C13.017,14.201 12.892,14.11 12.759,14 C12.251,13.575 11.763,13.135 11.305,12.677 C10.841,12.213 10.396,11.718 9.968,11.204 C9.865,11.083 9.78,10.966 9.684,10.846 C9.351,10.43 9.025,10.002 8.717,9.559 C8.257,8.902 7.863,8.283 7.57,7.778 C7.422,7.521 7.286,7.268 7.135,6.969 C6.986,6.517 6.842,5.676 7.485,5.032 C7.832,4.686 8.304,4.498 8.819,4.498 L8.819,4.498 C9.421,4.498 10.025,4.757 10.48,5.214 C10.531,5.261 10.593,5.33 10.566,5.288 C10.658,5.441 10.756,5.59 10.855,5.742 L10.99,5.94 C11.277,6.363 11.595,6.789 11.93,7.211 C11.924,7.21 11.916,7.208 11.913,7.207 C11.886,7.189 11.772,7.134 11.743,7.121 L11.629,7.064 C11.585,7.042 11.543,7.023 11.498,7.01 C10.976,6.856 10.397,6.999 10.014,7.383 C9.599,7.797 9.467,8.419 9.677,8.968 C9.697,9.022 9.725,9.074 9.759,9.119 C9.858,9.252 9.96,9.389 10.053,9.503 C10.666,10.302 11.366,11.094 12.136,11.864 C12.911,12.639 13.706,13.341 14.483,13.935 C14.616,14.044 14.749,14.145 14.882,14.242 C14.932,14.278 14.985,14.306 15.039,14.327 C15.206,14.39 15.382,14.421 15.564,14.421 C15.966,14.421 16.339,14.265 16.619,13.987 C16.992,13.614 17.146,13.068 17.014,12.561 C16.999,12.508 16.981,12.459 16.953,12.411 C16.908,12.328 16.869,12.248 16.836,12.166 C16.824,12.143 16.822,12.117 16.815,12.093 C17.227,12.415 17.64,12.721 18.057,13.007 L18.253,13.132 L18.252,13.132 Z" id="Shape"></path>
                    <path d="M19.026,7.117 C19.532,7.117 20.059,6.987 20.503,6.591 C20.661,6.45 20.676,6.206 20.533,6.048 C20.392,5.888 20.147,5.874 19.991,6.017 C19.126,6.787 17.577,5.973 17.562,5.965 C17.373,5.867 17.14,5.937 17.04,6.123 C16.939,6.31 17.01,6.543 17.196,6.644 C17.25,6.672 18.092,7.118 19.025,7.118 L19.026,7.117 Z" id="Shape"></path>
                </g>
            </g>
        </g>
    </g>
</svg>