<?xml version="1.0" encoding="UTF-8"?>
<svg width="24px" height="22px" viewBox="0 0 24 22" version="1.1" xmlns="http://www.w3.org/2000/svg" xmlns:xlink="http://www.w3.org/1999/xlink">
    <!-- Generator: Sketch 45.2 (43514) - http://www.bohemiancoding.com/sketch -->
    <title>panaderia y pasteleria</title>
    <desc>Created with Sketch.</desc>
    <defs></defs>
    <g id="Iconos" stroke="none" stroke-width="1" fill="none" fill-rule="evenodd">
        <g id="Tienda---iOS" transform="translate(-34.000000, -886.000000)" fill-rule="nonzero" fill="#000000">
            <g id="panaderia-y-pasteleria" transform="translate(34.000000, 882.000000)">
                <g id="icon_panaderia" transform="translate(0.000000, 4.000000)">
                    <path d="M16.11,21.719 L4.439,21.719 C2.739,21.719 1.354,20.336 1.354,18.634 L1.354,8.462 C0.544,7.656 0.121,6.736 0.121,5.787 C0.121,2.699 4.583,0.28 10.275,0.28 C15.972,0.28 20.432,2.699 20.432,5.787 C20.432,6.736 20.006,7.656 19.197,8.463 L19.197,18.634 C19.197,20.335 17.811,21.719 16.111,21.719 L16.11,21.719 Z M2.639,8.325 L2.639,18.635 C2.639,19.628 3.446,20.436 4.44,20.436 L16.11,20.436 C17.103,20.436 17.912,19.629 17.912,18.635 L17.912,8.184 C17.912,7.977 18.011,7.786 18.172,7.667 C18.63,7.246 19.148,6.589 19.148,5.79 C19.148,3.501 15.083,1.567 10.274,1.567 C5.467,1.567 1.405,3.501 1.405,5.79 C1.405,6.458 1.751,7.108 2.439,7.722 C2.614,7.878 2.682,8.11 2.64,8.326 L2.639,8.325 Z" id="Shape"></path>
                    <path d="M19.562,21.719 L7.889,21.719 C7.536,21.719 7.246,21.431 7.246,21.077 C7.246,20.722 7.535,20.435 7.889,20.435 L19.562,20.435 C20.555,20.435 21.363,19.628 21.363,18.634 L21.363,8.183 C21.363,7.977 21.461,7.788 21.618,7.67 C22.076,7.25 22.597,6.593 22.597,5.787 C22.597,3.498 18.534,1.564 13.726,1.564 C13.339,1.564 12.951,1.577 12.575,1.6 C12.261,1.614 11.917,1.356 11.892,1.002 C11.87,0.647 12.137,0.342 12.491,0.319 C12.894,0.293 13.308,0.28 13.724,0.28 C19.419,0.28 23.88,2.699 23.88,5.787 C23.88,6.738 23.455,7.658 22.647,8.462 L22.647,18.633 C22.646,20.335 21.264,21.719 19.562,21.719 Z" id="Shape"></path>
                    <path d="M10.802,5.765 C10.802,6.351 10.329,6.826 9.744,6.826 C9.154,6.826 8.683,6.35 8.683,5.765 C8.683,5.18 9.154,4.705 9.744,4.705 C10.33,4.705 10.802,5.18 10.802,5.765 Z" id="Shape"></path>
                    <path d="M6.447,6.836 C6.447,7.421 5.973,7.895 5.388,7.895 C4.803,7.895 4.329,7.421 4.329,6.836 C4.329,6.251 4.803,5.777 5.388,5.777 C5.973,5.777 6.447,6.251 6.447,6.836 Z" id="Shape"></path>
                    <path d="M14.768,12.071 C14.768,12.656 14.291,13.131 13.708,13.131 C13.12,13.131 12.643,12.655 12.643,12.071 C12.643,11.485 13.12,11.01 13.708,11.01 C14.29,11.01 14.768,11.486 14.768,12.071 Z" id="Shape"></path>
                    <path d="M7.198,15.502 C7.198,16.088 6.723,16.563 6.137,16.563 C5.551,16.563 5.076,16.088 5.076,15.502 C5.076,14.916 5.551,14.441 6.137,14.441 C6.723,14.441 7.198,14.916 7.198,15.502 Z" id="Shape"></path>
                    <path d="M16.115,6.844 C16.115,7.43 15.642,7.906 15.053,7.906 C14.468,7.906 13.994,7.43 13.994,6.844 C13.994,6.259 14.469,5.785 15.053,5.785 C15.643,5.785 16.115,6.26 16.115,6.844 Z" id="Shape"></path>
                    <path d="M9.299,10.99 C9.299,11.576 8.824,12.051 8.238,12.051 C7.652,12.051 7.177,11.576 7.177,10.99 C7.177,10.404 7.652,9.929 8.238,9.929 C8.824,9.929 9.299,10.404 9.299,10.99 L9.299,10.99 Z" id="Shape"></path>
                    <path d="M12.997,16.382 C12.997,16.968 12.522,17.443 11.936,17.443 C11.35,17.443 10.875,16.968 10.875,16.382 C10.875,15.796 11.35,15.321 11.936,15.321 C12.522,15.321 12.997,15.796 12.997,16.382 Z" id="Shape"></path>
                </g>
            </g>
        </g>
    </g>
</svg>