<?xml version="1.0" encoding="UTF-8"?>
<svg width="28px" height="26px" viewBox="0 0 28 26" version="1.1" xmlns="http://www.w3.org/2000/svg" xmlns:xlink="http://www.w3.org/1999/xlink">
    <!-- Generator: Sketch 45.2 (43514) - http://www.bohemiancoding.com/sketch -->
    <title>perfumeria</title>
    <desc>Created with Sketch.</desc>
    <defs></defs>
    <g id="Iconos" stroke="none" stroke-width="1" fill="none" fill-rule="evenodd">
        <g id="Tienda---iOS" transform="translate(-35.000000, -1170.000000)" fill-rule="nonzero" fill="#000000">
            <g id="perfumeria" transform="translate(35.000000, 1167.000000)">
                <g id="icon_perfumeria" transform="translate(0.000000, 3.000000)">
                    <path d="M25.13,15.363 C24.055,11.937 20.854,9.444 17.078,9.444 C14.683,9.444 12.474,10.446 10.891,12.162 L11.366,4.356 C11.695,4.327 11.954,4.061 11.954,3.725 L11.954,1.227 C11.954,0.872 11.666,0.585 11.313,0.585 L1.287,0.585 C0.932,0.585 0.645,0.873 0.645,1.227 L0.645,3.725 C0.645,4.062 0.908,4.331 1.239,4.356 L2.142,19.275 C2.151,19.333 2.272,20.125 3.088,20.784 L3.442,24.426 C3.464,24.646 3.597,24.839 3.795,24.938 C3.852,24.967 4.775,25.416 6.191,25.416 C6.905,25.416 7.739,25.303 8.652,24.965 C8.878,24.882 9.038,24.679 9.066,24.441 L9.435,21.433 C10.209,23.087 11.502,24.477 13.134,25.341 C13.143,25.346 13.152,25.343 13.162,25.348 C13.229,25.379 13.304,25.396 13.382,25.402 C13.401,25.403 13.417,25.415 13.435,25.415 C13.437,25.415 13.439,25.413 13.442,25.413 L20.722,25.415 C20.828,25.415 20.928,25.392 21.023,25.34 C23.794,23.872 25.517,21.014 25.517,17.88 C25.517,17.011 25.384,16.171 25.138,15.382 C25.134,15.375 25.132,15.368 25.129,15.362 L25.13,15.363 Z M10.985,14.131 C12.297,12 14.576,10.728 17.078,10.728 C20.125,10.728 22.733,12.652 23.759,15.346 C20.548,17.873 18.901,17.121 16.459,15.99 C16.158,15.85 15.85,15.707 15.53,15.567 C13.643,14.741 11.875,14.857 10.716,15.099 L10.762,14.34 C10.849,14.288 10.929,14.224 10.986,14.132 L10.985,14.131 Z M1.93,1.868 L10.67,1.868 L10.67,3.082 L1.93,3.082 L1.93,1.868 Z M2.526,4.365 L10.078,4.365 L9.187,19.095 C9.177,19.148 8.93,20.344 6.537,20.391 C6.517,20.39 6.498,20.389 6.476,20.389 L6.122,20.389 C6.1,20.389 6.081,20.39 6.059,20.391 C3.673,20.345 3.421,19.154 3.418,19.154 L2.525,4.366 L2.526,4.365 Z M4.683,23.91 L4.444,21.459 C4.926,21.592 5.504,21.676 6.207,21.676 C6.268,21.676 6.332,21.676 6.393,21.676 C7.084,21.676 7.659,21.596 8.135,21.464 L7.843,23.885 C6.368,24.33 5.212,24.082 4.684,23.911 L4.683,23.91 Z M20.556,24.131 L13.616,24.131 C11.986,23.222 10.757,21.705 10.223,19.925 C10.411,19.566 10.457,19.281 10.464,19.233 L10.633,16.434 C11.573,16.189 13.234,15.965 15.011,16.742 C15.325,16.879 15.625,17.019 15.92,17.155 C17.241,17.766 18.47,18.336 19.876,18.336 C21.099,18.336 22.458,17.9 24.125,16.685 C24.19,17.075 24.232,17.474 24.232,17.883 C24.232,20.488 22.827,22.868 20.557,24.132 L20.556,24.131 Z" id="Shape"></path>
                    <path d="M24.7,3.081 C23.366,3.081 22.27,4.07 22.082,5.35 L19.725,5.35 L19.725,2.801 C19.725,2.446 19.436,2.159 19.082,2.159 L15.07,2.159 C14.716,2.159 14.429,2.446 14.429,2.801 L14.429,8.671 C14.429,9.026 14.716,9.313 15.07,9.313 L19.082,9.313 C19.435,9.313 19.725,9.026 19.725,8.671 L19.725,6.121 L22.082,6.121 C22.27,7.402 23.365,8.393 24.7,8.393 C26.165,8.393 27.355,7.202 27.355,5.736 C27.356,4.273 26.165,3.082 24.7,3.082 L24.7,3.081 Z M18.442,8.029 L15.713,8.029 L15.713,5.94 C15.782,6.041 15.879,6.118 16.013,6.118 L17.028,6.118 C17.24,6.118 17.414,5.945 17.414,5.733 C17.414,5.521 17.24,5.349 17.028,5.349 L16.013,5.349 C15.88,5.349 15.783,5.427 15.713,5.527 L15.713,3.443 L18.442,3.443 L18.442,8.029 L18.442,8.029 Z M24.7,7.622 C23.658,7.622 22.814,6.775 22.814,5.734 C22.814,4.695 23.658,3.849 24.7,3.849 C25.741,3.849 26.587,4.695 26.587,5.734 C26.587,6.775 25.741,7.622 24.7,7.622 Z" id="Shape"></path>
                </g>
            </g>
        </g>
    </g>
</svg>