<?xml version="1.0" encoding="UTF-8"?>
<svg width="28px" height="28px" viewBox="0 0 28 28" version="1.1" xmlns="http://www.w3.org/2000/svg" xmlns:xlink="http://www.w3.org/1999/xlink">
    <!-- Generator: Sketch 45.2 (43514) - http://www.bohemiancoding.com/sketch -->
    <title>pollo pavo</title>
    <desc>Created with Sketch.</desc>
    <defs></defs>
    <g id="Iconos" stroke="none" stroke-width="1" fill="none" fill-rule="evenodd">
        <g id="Tienda---iOS" transform="translate(-31.000000, -669.000000)" fill-rule="nonzero" fill="#333333">
            <g id="pollo-pavo" transform="translate(31.000000, 669.000000)">
                <g id="pollos">
                    <path d="M22.06,13.267 C22.141,13.267 22.223,13.242 22.295,13.19 C22.978,12.694 23.549,12.036 23.948,11.289 C24.051,11.094 23.978,10.852 23.784,10.747 C23.588,10.644 23.347,10.716 23.242,10.911 C22.901,11.552 22.41,12.115 21.824,12.542 C21.646,12.672 21.605,12.922 21.735,13.101 C21.814,13.21 21.936,13.266 22.059,13.266 L22.06,13.267 Z" id="Shape"></path>
                    <path d="M23.805,8.652 C23.805,8.758 23.801,8.862 23.795,8.963 C23.782,9.184 23.951,9.373 24.172,9.385 C24.179,9.385 24.188,9.385 24.195,9.385 C24.405,9.385 24.581,9.221 24.594,9.007 C24.6,8.89 24.605,8.771 24.605,8.65 C24.605,7.345 24.148,6.075 23.318,5.073 C23.177,4.902 22.923,4.88 22.755,5.021 C22.584,5.162 22.561,5.414 22.703,5.584 C23.414,6.444 23.806,7.533 23.806,8.651 L23.805,8.652 Z" id="Shape"></path>
                    <path d="M20.004,16.383 C24.161,16.146 27.473,12.698 27.473,8.481 C27.473,4.113 23.919,0.559 19.551,0.559 C15.32,0.559 11.861,3.896 11.648,8.075 C10.775,10.231 8.478,15.769 7.77,16.887 L4.763,19.662 C4.317,19.36 3.789,19.188 3.243,19.188 C1.745,19.188 0.527,20.407 0.527,21.904 C0.527,23.438 1.843,24.659 3.347,24.62 C3.346,24.654 3.345,24.688 3.345,24.722 C3.345,26.221 4.564,27.439 6.062,27.439 C7.56,27.439 8.778,26.22 8.778,24.722 C8.778,23.955 8.437,23.236 7.881,22.727 L10.146,20.376 C10.262,20.305 10.439,20.213 10.655,20.109 L10.655,20.109 C12.37,19.279 16.942,17.514 20.005,16.382 L20.004,16.383 Z M19.551,1.84 C23.214,1.84 26.193,4.819 26.193,8.482 C26.193,12.145 23.214,15.126 19.551,15.126 C18.376,15.126 17.219,14.815 16.207,14.224 C15.903,14.046 15.509,14.148 15.332,14.454 C15.154,14.759 15.257,15.151 15.562,15.329 C16.093,15.639 16.661,15.873 17.246,16.051 C15.161,16.842 12.253,17.973 10.562,18.743 L9.065,17.196 C9.775,15.875 11.066,12.84 11.954,10.704 C11.965,10.742 11.969,10.782 11.98,10.819 C12.083,11.156 12.44,11.345 12.78,11.242 C13.118,11.139 13.308,10.78 13.203,10.442 C13.008,9.807 12.909,9.147 12.909,8.48 C12.907,4.817 15.887,1.838 19.55,1.838 L19.551,1.84 Z M6.423,22.396 C6.178,22.651 6.185,23.056 6.44,23.302 C6.532,23.391 6.645,23.435 6.762,23.458 C6.776,23.468 6.784,23.483 6.799,23.492 C7.23,23.749 7.498,24.222 7.498,24.725 C7.498,25.518 6.854,26.162 6.062,26.162 C5.269,26.162 4.625,25.518 4.625,24.725 C4.625,24.485 4.69,24.249 4.818,24.022 C4.96,23.771 4.916,23.458 4.712,23.254 C4.508,23.051 4.194,23.01 3.944,23.151 C2.967,23.705 1.806,22.94 1.806,21.906 C1.806,21.115 2.45,20.47 3.242,20.47 C3.654,20.47 4.032,20.639 4.309,20.944 C4.31,20.945 4.311,20.945 4.312,20.946 C4.312,20.946 4.312,20.947 4.313,20.948 C4.325,20.961 4.342,20.966 4.355,20.977 C4.407,21.025 4.462,21.069 4.524,21.096 C4.555,21.11 4.588,21.111 4.62,21.119 C4.67,21.133 4.718,21.149 4.769,21.15 C4.774,21.15 4.78,21.153 4.785,21.153 C4.83,21.153 4.872,21.138 4.916,21.128 C4.946,21.122 4.976,21.123 5.005,21.112 C5.059,21.092 5.108,21.057 5.158,21.021 C5.176,21.007 5.199,21.002 5.216,20.987 C5.217,20.986 5.217,20.985 5.218,20.984 C5.218,20.984 5.219,20.984 5.22,20.983 L8.246,18.19 L9.373,19.355 C9.339,19.378 9.306,19.405 9.277,19.435 L6.423,22.395 L6.423,22.396 Z" id="Shape"></path>
                    <path d="M14.898,6.379 C15.241,6.379 15.521,6.1 15.521,5.756 C15.521,5.412 15.242,5.132 14.898,5.132 C14.553,5.132 14.274,5.411 14.274,5.756 C14.274,6.099 14.553,6.379 14.898,6.379 Z M14.898,5.579 C14.995,5.579 15.074,5.659 15.074,5.756 C15.074,5.951 14.721,5.95 14.721,5.756 C14.721,5.659 14.8,5.579 14.898,5.579 L14.898,5.579 Z" id="Shape"></path>
                    <path d="M17.995,4.916 C18.338,4.916 18.618,4.637 18.618,4.292 C18.618,3.947 18.339,3.668 17.995,3.668 C17.65,3.668 17.371,3.947 17.371,4.292 C17.371,4.637 17.65,4.916 17.995,4.916 Z M17.995,4.116 C18.092,4.116 18.171,4.195 18.171,4.292 C18.171,4.487 17.818,4.486 17.818,4.292 C17.818,4.196 17.898,4.116 17.995,4.116 L17.995,4.116 Z" id="Shape"></path>
                    <path d="M17.995,8.275 C18.338,8.275 18.618,7.994 18.618,7.65 C18.618,7.308 18.339,7.028 17.995,7.028 C17.651,7.028 17.371,7.307 17.371,7.65 C17.371,7.995 17.65,8.275 17.995,8.275 Z M17.995,7.475 C18.092,7.475 18.171,7.554 18.171,7.65 C18.171,7.848 17.818,7.847 17.818,7.65 C17.818,7.554 17.898,7.475 17.995,7.475 L17.995,7.475 Z" id="Shape"></path>
                    <path d="M14.898,9.611 C15.241,9.611 15.521,9.332 15.521,8.987 C15.521,8.645 15.242,8.366 14.898,8.366 C14.554,8.366 14.274,8.644 14.274,8.987 C14.274,9.332 14.553,9.611 14.898,9.611 Z M14.898,8.811 C14.995,8.811 15.074,8.89 15.074,8.987 C15.074,9.186 14.721,9.185 14.721,8.987 C14.721,8.89 14.8,8.811 14.898,8.811 L14.898,8.811 Z" id="Shape"></path>
                    <path d="M12.268,13.378 C11.925,13.378 11.645,13.657 11.645,14.001 C11.645,14.345 11.924,14.626 12.268,14.626 C12.613,14.626 12.892,14.345 12.892,14.001 C12.892,13.658 12.613,13.378 12.268,13.378 L12.268,13.378 Z M12.092,14.001 C12.092,13.905 12.171,13.826 12.268,13.826 C12.365,13.826 12.445,13.905 12.445,14.001 C12.445,14.195 12.091,14.196 12.092,14.001 Z" id="Shape"></path>
                </g>
            </g>
        </g>
    </g>
</svg>