<?xml version="1.0" encoding="UTF-8"?>
<svg width="16px" height="30px" viewBox="0 0 16 30" version="1.1" xmlns="http://www.w3.org/2000/svg" xmlns:xlink="http://www.w3.org/1999/xlink">
    <!-- Generator: Sketch 45.2 (43514) - http://www.bohemiancoding.com/sketch -->
    <title>vinos y licores</title>
    <desc>Created with Sketch.</desc>
    <defs></defs>
    <g id="Iconos" stroke="none" stroke-width="1" fill="none" fill-rule="evenodd">
        <g id="Tienda---iOS" transform="translate(-38.000000, -1094.000000)" fill-rule="nonzero" fill="#000000">
            <g id="vinos-y-licores" transform="translate(37.000000, 1094.000000)">
                <g id="icon_vinos">
                    <path d="M9.775125,24.741 L9.73125,19.337625 C13.7565,18.9675 16.92,15.5745 16.92,11.453625 C16.92,10.906875 16.867125,10.368 16.758,9.8505 C16.738875,9.770625 16.702875,9.700875 16.6635,9.633375 L15.274125,1.897875 C15.27075,1.881 15.2595,1.868625 15.25725,1.854 C14.954625,0.194625 10.427625,0.05625 9.001125,0.05625 C7.576875,0.05625 3.045375,0.194625 2.748375,1.852875 C2.743875,1.868625 2.730375,1.882125 2.728125,1.899 L1.339875,9.624375 C1.297125,9.696375 1.26,9.772875 1.24425,9.860625 C1.135125,10.38825 1.08,10.924875 1.08,11.45475 C1.08,15.580125 4.253625,18.9765 8.28675,19.339875 L8.332875,24.739875 C6.654375,24.800625 2.64825,25.137 2.64825,26.9595 C2.64825,29.134125 8.353125,29.196 9.003375,29.196 C9.653625,29.196 15.357375,29.131875 15.357375,26.9595 C15.357375,25.173 11.509875,24.813 9.77625,24.742125 L9.775125,24.741 Z M3.942,3.30975 C5.51025,3.978 8.548875,4.005 9.00225,4.005 C9.4545,4.005 12.493125,3.979125 14.061375,3.30975 L15.053625,8.830125 C13.059,8.1585 9.541125,8.12925 9.00225,8.12925 C8.461125,8.12925 4.946625,8.1585 2.953125,8.830125 L3.942,3.30975 L3.942,3.30975 Z M2.718,10.137375 L2.77425,9.824625 C3.567375,9.45 5.7285,8.996625 9.00225,8.996625 C12.26475,8.996625 14.42025,9.44775 15.220125,9.77175 L15.28875,10.1385 C15.28875,10.148625 15.296625,10.1565 15.296625,10.164375 C14.560875,10.542375 12.36375,11.021625 9.00225,11.021625 C5.61825,11.021625 3.411,10.53675 2.68875,10.211625 C2.6955,10.18575 2.710125,10.16325 2.716875,10.137375 L2.718,10.137375 Z M13.8645,2.2185 L13.905,2.440125 C13.2975,2.7495 11.579625,3.139875 9.00225,3.139875 C6.411375,3.139875 4.683375,2.746125 4.093875,2.46825 L4.13775,2.2185 C4.5315,1.94625 6.21225,1.499625 9.001125,1.499625 C11.788875,1.499625 13.471875,1.947375 13.863375,2.2185 L13.8645,2.2185 Z M2.52225,11.4525 C2.52225,11.316375 2.557125,11.179125 2.565,11.04075 C4.45275,11.854125 8.425125,11.885625 9.00225,11.885625 C9.577125,11.885625 13.550625,11.854125 15.436125,11.043 C15.44625,11.18025 15.4755,11.313 15.4755,11.4525 C15.4755,15.024375 12.57075,17.929125 9,17.929125 C5.428125,17.93025 2.521125,15.0255 2.521125,11.4525 L2.52225,11.4525 Z M9.00225,27.750375 C6.4035,27.750375 4.752,27.284625 4.21875,26.958375 C4.703625,26.66025 6.127875,26.253 8.343,26.18325 L8.34525,26.4465 C8.34975,26.843625 8.670375,27.163125 9.068625,27.163125 C9.068625,27.163125 9.070875,27.163125 9.07425,27.163125 C9.471375,27.15975 9.79425,26.834625 9.792,26.436375 L9.788625,26.18775 C11.93175,26.269875 13.31325,26.66925 13.786875,26.96175 C13.2525,27.28575 11.601,27.7515 9.001125,27.7515 L9.00225,27.750375 Z" id="Shape"></path>
                    <path d="M10.6875,13.743 C10.6875,14.020875 10.461375,14.247 10.1835,14.247 C9.905625,14.247 9.6795,14.020875 9.6795,13.743 C9.6795,13.465125 9.905625,13.239 10.1835,13.239 C10.461375,13.239 10.6875,13.465125 10.6875,13.743 Z" id="Shape"></path>
                    <path d="M13.795875,14.083875 C13.795875,14.36175 13.56975,14.587875 13.291875,14.587875 C13.014,14.587875 12.787875,14.36175 12.787875,14.083875 C12.787875,13.806 13.014,13.579875 13.291875,13.579875 C13.56975,13.579875 13.795875,13.806 13.795875,14.083875 Z" id="Shape"></path>
                    <path d="M9.57375,16.79175 C9.57375,17.071875 9.3465,17.298 9.0675,17.298 C8.7885,17.298 8.56125,17.07075 8.56125,16.79175 C8.56125,16.511625 8.7885,16.2855 9.0675,16.2855 C9.3465,16.2855 9.57375,16.51275 9.57375,16.79175 Z" id="Shape"></path>
                    <path d="M7.943625,14.083875 C7.943625,14.36175 7.7175,14.587875 7.439625,14.587875 C7.16175,14.587875 6.935625,14.36175 6.935625,14.083875 C6.935625,13.806 7.16175,13.579875 7.439625,13.579875 C7.7175,13.579875 7.943625,13.806 7.943625,14.083875 Z" id="Shape"></path>
                    <path d="M3.832875,12.12525 C3.558375,12.12525 3.33,12.349125 3.33,12.62925 C3.33,12.904875 3.55725,13.132125 3.832875,13.132125 C4.11525,13.132125 4.339125,12.906 4.339125,12.62925 C4.339125,12.349125 4.116375,12.12525 3.832875,12.12525 Z" id="Shape"></path>
                    <path d="M5.6925,14.927625 C5.6925,15.2055 5.466375,15.431625 5.1885,15.431625 C4.910625,15.431625 4.6845,15.2055 4.6845,14.927625 C4.6845,14.64975 4.910625,14.423625 5.1885,14.423625 C5.466375,14.423625 5.6925,14.64975 5.6925,14.927625 Z" id="Shape"></path>
                </g>
            </g>
        </g>
    </g>
</svg>