<?xml version="1.0" encoding="UTF-8"?>
<svg width="22px" height="22px" viewBox="0 0 22 22" version="1.1" xmlns="http://www.w3.org/2000/svg" xmlns:xlink="http://www.w3.org/1999/xlink">
    <!-- Generator: Sketch 45.2 (43514) - http://www.bohemiancoding.com/sketch -->
    <title>come libre</title>
    <desc>Created with Sketch.</desc>
    <defs></defs>
    <g id="Iconos" stroke="none" stroke-width="1" fill="none" fill-rule="evenodd">
        <g id="Tienda---iOS" transform="translate(-35.000000, -1387.000000)" fill-rule="nonzero" fill="#000000">
            <g id="come-libre" transform="translate(33.000000, 1384.000000)">
                <g id="icon_comelibre" transform="translate(2.000000, 3.000000)">
                    <path d="M11,0.189 C5.041,0.189 0.189,5.039 0.189,11 C0.189,16.959 5.04,21.81 11,21.81 C16.961,21.81 21.811,16.96 21.811,11 C21.811,5.039 16.961,0.189 11,0.189 Z M11,20.526 C5.748,20.526 1.475,16.253 1.475,11 C1.475,5.747 5.748,1.474 11,1.474 C16.254,1.474 20.527,5.747 20.527,11 C20.527,16.253 16.254,20.526 11,20.526 Z" id="Shape"></path>
                    <path d="M16.929,6.553 C15.856,5.474 14.191,5.13 12.757,5.724 C12.29,5.918 11.872,6.199 11.513,6.558 L11.046,7.026 L10.579,6.559 C10.221,6.201 9.802,5.918 9.33,5.722 C7.904,5.136 6.239,5.472 5.163,6.552 C4.441,7.273 4.043,8.232 4.043,9.253 C4.043,9.754 4.141,10.248 4.338,10.727 C4.533,11.187 4.805,11.595 5.151,11.943 C6.025,12.818 6.893,13.698 7.764,14.576 C8.602,15.428 9.445,16.278 10.301,17.134 C10.499,17.323 10.754,17.426 11.009,17.426 C11.024,17.427 11.053,17.427 11.062,17.427 C11.334,17.427 11.592,17.322 11.799,17.123 C12.688,16.236 13.57,15.343 14.45,14.451 C15.278,13.613 16.104,12.775 16.941,11.94 C17.284,11.593 17.564,11.174 17.755,10.72 C17.949,10.251 18.048,9.757 18.048,9.252 C18.049,8.232 17.651,7.273 16.929,6.553 L16.929,6.553 Z M16.57,10.227 C16.445,10.528 16.256,10.807 16.031,11.036 C15.198,11.871 14.367,12.71 13.539,13.55 C12.705,14.393 11.873,15.234 11.045,16.063 C10.254,15.269 9.466,14.47 8.675,13.674 C7.806,12.792 6.932,11.912 6.06,11.038 C5.832,10.807 5.648,10.533 5.521,10.231 C5.39,9.915 5.325,9.587 5.325,9.253 C5.325,8.576 5.588,7.94 6.07,7.46 C6.549,6.98 7.189,6.715 7.865,6.715 C8.199,6.715 8.527,6.78 8.841,6.908 C9.146,7.037 9.434,7.229 9.669,7.466 L10.59,8.39 C10.833,8.63 11.256,8.63 11.5,8.39 L12.419,7.466 C12.66,7.226 12.938,7.038 13.247,6.909 C14.198,6.52 15.306,6.744 16.02,7.459 C16.499,7.939 16.765,8.575 16.765,9.252 C16.766,9.589 16.701,9.918 16.571,10.227 L16.57,10.227 Z" id="Shape"></path>
                </g>
            </g>
        </g>
    </g>
</svg>