<?xml version="1.0" encoding="UTF-8"?>
<svg width="22px" height="26px" viewBox="0 0 22 26" version="1.1" xmlns="http://www.w3.org/2000/svg" xmlns:xlink="http://www.w3.org/1999/xlink">
    <!-- Generator: Sketch 45.2 (43514) - http://www.bohemiancoding.com/sketch -->
    <title>congelados</title>
    <desc>Created with Sketch.</desc>
    <defs></defs>
    <g id="Iconos" stroke="none" stroke-width="1" fill="none" fill-rule="evenodd">
        <g id="Tienda---iOS" transform="translate(-35.000000, -812.000000)" fill-rule="nonzero" fill="#333333">
            <g id="congelados" transform="translate(35.000000, 812.000000)">
                <g id="Shape">
                    <path d="M21.46,18.465 L19.011,17.011 L20.912,16.372 C21.247,16.26 21.427,15.896 21.315,15.561 C21.203,15.226 20.837,15.047 20.504,15.158 L17.558,16.148 L12.255,13 L17.558,9.851 L20.504,10.842 C20.571,10.864 20.641,10.875 20.708,10.875 C20.975,10.875 21.224,10.706 21.315,10.44 C21.427,10.105 21.248,9.742 20.913,9.628 L19.011,8.988 L21.461,7.534 C21.765,7.353 21.865,6.96 21.685,6.657 C21.504,6.353 21.11,6.254 20.808,6.433 L18.366,7.882 L18.708,5.91 C18.769,5.562 18.535,5.231 18.186,5.171 C17.833,5.113 17.507,5.344 17.446,5.692 L16.916,8.743 L11.639,11.876 L11.639,5.739 L13.993,3.727 C14.262,3.498 14.294,3.093 14.063,2.825 C13.834,2.556 13.429,2.525 13.161,2.755 L11.639,4.056 L11.639,1.217 C11.639,0.863 11.352,0.576 10.999,0.576 C10.646,0.576 10.359,0.863 10.359,1.217 L10.359,4.066 L8.839,2.757 C8.571,2.526 8.167,2.558 7.937,2.823 C7.707,3.092 7.736,3.496 8.004,3.726 L10.359,5.753 L10.359,11.875 L5.082,8.742 L4.552,5.691 C4.492,5.345 4.168,5.115 3.813,5.172 C3.464,5.233 3.231,5.563 3.291,5.912 L3.633,7.884 L1.191,6.434 C0.887,6.255 0.494,6.354 0.314,6.658 C0.134,6.962 0.234,7.353 0.538,7.535 L2.988,8.989 L1.086,9.629 C0.751,9.742 0.571,10.105 0.684,10.441 C0.774,10.708 1.023,10.876 1.291,10.876 C1.358,10.876 1.428,10.865 1.495,10.843 L4.441,9.852 L9.743,13.001 L4.44,16.149 L1.494,15.159 C1.161,15.048 0.796,15.225 0.683,15.562 C0.571,15.896 0.75,16.26 1.086,16.373 L2.987,17.012 L0.538,18.466 C0.234,18.647 0.134,19.04 0.314,19.343 C0.433,19.545 0.647,19.657 0.865,19.657 C0.976,19.657 1.089,19.628 1.191,19.567 L3.633,18.118 L3.291,20.091 C3.23,20.439 3.464,20.77 3.813,20.83 C3.85,20.836 3.887,20.84 3.923,20.84 C4.229,20.84 4.499,20.621 4.553,20.31 L5.083,17.258 L10.36,14.125 L10.36,20.263 L8.006,22.275 C7.737,22.504 7.705,22.909 7.936,23.177 C8.063,23.325 8.242,23.401 8.423,23.401 C8.57,23.401 8.717,23.351 8.838,23.247 L10.36,21.946 L10.36,24.785 C10.36,25.139 10.647,25.426 11,25.426 C11.353,25.426 11.64,25.139 11.64,24.785 L11.64,21.936 L13.16,23.245 C13.43,23.478 13.833,23.446 14.062,23.179 C14.292,22.91 14.263,22.506 13.995,22.276 L11.64,20.249 L11.64,14.126 L16.917,17.259 L17.447,20.311 C17.501,20.622 17.771,20.841 18.077,20.841 C18.113,20.841 18.15,20.838 18.187,20.831 C18.536,20.77 18.768,20.44 18.709,20.092 L18.367,18.119 L20.809,19.568 C20.911,19.629 21.024,19.658 21.135,19.658 C21.354,19.658 21.566,19.547 21.686,19.344 C21.862,19.04 21.762,18.647 21.458,18.466 L21.46,18.465 Z"></path>
                </g>
            </g>
        </g>
    </g>
</svg>