<?xml version="1.0" encoding="UTF-8"?>
<svg width="26px" height="26px" viewBox="0 0 26 26" version="1.1" xmlns="http://www.w3.org/2000/svg" xmlns:xlink="http://www.w3.org/1999/xlink">
    <!-- Generator: Sketch 45.2 (43514) - http://www.bohemiancoding.com/sketch -->
    <title>despensa</title>
    <desc>Created with Sketch.</desc>
    <defs></defs>
    <g id="Iconos" stroke="none" stroke-width="1" fill="none" fill-rule="evenodd">
        <g id="Tienda---iOS" transform="translate(-35.000000, -386.000000)" fill-rule="nonzero" fill="#333333">
            <g id="despensa" transform="translate(35.000000, 386.000000)">
                <g id="almacen">
                    <path d="M6.935,11.619 C7.617,12.19 8.462,12.348 9.188,12.348 C10.045,12.348 10.733,12.129 10.785,12.112 C10.922,12.067 11.041,11.975 11.12,11.856 C11.152,11.808 11.179,11.755 11.196,11.7 C11.213,11.645 11.451,10.865 11.421,9.935 C11.504,9.972 11.595,9.998 11.687,9.998 C11.779,9.998 11.866,9.972 11.948,9.935 C11.918,10.865 12.155,11.645 12.173,11.7 C12.191,11.755 12.219,11.811 12.251,11.859 C12.33,11.978 12.448,12.068 12.584,12.112 C12.636,12.129 13.324,12.348 14.181,12.348 C14.907,12.348 15.753,12.191 16.434,11.619 C17.417,10.796 17.778,9.368 17.507,7.377 C17.501,7.27 17.468,7.17 17.414,7.083 C17.304,6.903 17.11,6.784 16.893,6.775 C15.903,6.642 15.055,6.665 14.35,6.843 C14.456,5.573 13.705,4.315 12.116,3.105 C11.995,2.994 11.816,2.904 11.683,2.938 C11.5,2.904 11.369,2.995 11.25,3.104 C9.663,4.314 8.913,5.57 9.016,6.842 C8.312,6.664 7.463,6.641 6.473,6.775 C6.261,6.784 6.066,6.902 5.956,7.082 C5.903,7.169 5.869,7.27 5.863,7.377 C5.592,9.367 5.953,10.795 6.935,11.619 Z M16.29,7.995 C16.371,8.969 16.283,10.073 15.617,10.635 C14.932,11.212 13.853,11.088 13.311,10.975 C13.2,10.436 13.075,9.352 13.646,8.67 C14.208,7.999 15.314,7.911 16.29,7.995 Z M11.686,4.397 C12.432,5.027 13.152,5.871 13.078,6.739 C13.002,7.632 12.148,8.308 11.687,8.611 C11.227,8.308 10.373,7.63 10.294,6.743 C10.218,5.873 10.938,5.028 11.686,4.396 L11.686,4.397 Z M7.081,7.995 C8.054,7.912 9.159,8 9.722,8.667 C10.299,9.352 10.173,10.434 10.061,10.974 C9.522,11.083 8.438,11.208 7.757,10.637 C7.088,10.076 7,8.97 7.081,7.995 L7.081,7.995 Z" id="Shape"></path>
                    <path d="M25.578,16.729 C25.578,16.727 25.579,16.725 25.579,16.723 C25.579,15.191 22.665,14.537 20.49,14.262 L21.873,8.928 C22.07,8.172 21.615,7.396 20.856,7.198 C20.545,7.119 20.234,7.153 19.959,7.267 L19.959,0.734 C19.959,0.38 19.672,0.094 19.319,0.094 L1.057,0.094 C0.704,0.094 0.417,0.381 0.417,0.734 L0.417,22.156 C0.417,22.411 0.568,22.641 0.801,22.743 L4.284,24.254 C4.285,24.254 4.286,24.254 4.287,24.254 C4.364,24.288 4.449,24.307 4.539,24.307 L11.615,24.307 C13.041,25.317 14.744,25.907 16.568,25.907 C21.343,25.907 25.302,21.888 25.582,16.758 C25.583,16.748 25.578,16.739 25.578,16.729 L25.578,16.729 Z M20.534,8.436 C20.608,8.455 20.652,8.531 20.633,8.606 L18.591,16.479 C18.502,16.82 18.707,17.17 19.051,17.259 C19.104,17.273 19.159,17.28 19.211,17.28 C19.497,17.28 19.756,17.089 19.831,16.8 L20.164,15.518 C22.982,15.858 24.195,16.495 24.306,16.689 C24.083,17.21 21.307,18.138 16.568,18.138 C11.842,18.138 9.073,17.214 8.836,16.762 C8.836,16.76 8.836,16.757 8.835,16.755 C9.069,16.234 11.839,15.311 16.568,15.311 C16.812,15.311 17.044,15.322 17.284,15.327 L17.086,16.09 C16.997,16.431 17.202,16.781 17.546,16.87 C17.883,16.959 18.237,16.754 18.326,16.411 L20.368,8.539 C20.387,8.465 20.46,8.417 20.535,8.438 L20.534,8.436 Z M18.68,9.938 L17.613,14.052 C17.267,14.041 16.924,14.029 16.568,14.029 C13.349,14.029 8.003,14.558 7.597,16.49 C7.565,16.573 7.546,16.663 7.551,16.757 C7.685,19.208 8.667,21.4 10.168,23.027 L5.179,23.027 L5.179,1.375 L18.68,1.375 L18.68,9.939 L18.68,9.938 Z M1.697,1.373 L3.9,1.373 L3.9,22.69 L1.697,21.734 L1.697,1.372 L1.697,1.373 Z M16.568,24.627 C12.991,24.627 9.947,21.968 9.069,18.329 C10.984,19.156 14.303,19.418 16.568,19.418 C18.831,19.418 22.15,19.156 24.065,18.33 C23.188,21.967 20.144,24.627 16.568,24.627 Z" id="Shape"></path>
                </g>
            </g>
        </g>
    </g>
</svg>