<?xml version="1.0" encoding="UTF-8"?>
<svg width="21px" height="25px" viewBox="0 0 21 25" version="1.1" xmlns="http://www.w3.org/2000/svg" xmlns:xlink="http://www.w3.org/1999/xlink">
    <!-- Generator: Sketch 45.2 (43514) - http://www.bohemiancoding.com/sketch -->
    <title>desayuno y dulces</title>
    <desc>Created with Sketch.</desc>
    <defs></defs>
    <g id="Iconos" stroke="none" stroke-width="1" fill="none" fill-rule="evenodd">
        <g id="Tienda---iOS" transform="translate(-36.000000, -459.000000)" fill-rule="nonzero" fill="#000000">
            <g id="desayuno-y-dulces" transform="translate(36.000000, 455.000000)">
                <g id="icon_despensa" transform="translate(0.000000, 4.000000)">
                    <path d="M5.02845,7.7742 C4.98435,7.8183 3.8829,8.8599 3.8829,11.6382 L3.8829,18.1083 C3.8829,18.3309 4.06665,18.51255 4.28925,18.51255 C4.51185,18.51255 4.6935,18.32985 4.6935,18.1083 L4.6935,11.6382 C4.6935,9.2715 5.5566,8.39055 5.5776,8.36745 C5.7435,8.21625 5.7498,7.9632 5.59965,7.79835 C5.4495,7.6335 5.1954,7.623 5.02845,7.7742 L5.02845,7.7742 Z" id="Shape"></path>
                    <path d="M20.34585,10.5693 L20.34585,10.50525 C20.2818,9.4374 19.6875,8.3412 19.66125,8.295 C19.63815,8.24985 19.60455,8.20785 19.572,8.17005 C18.92415,7.4445 18.5871,6.92265 18.4086,6.57405 C19.1961,6.30735 19.7673,5.57025 19.7673,4.6956 L19.7673,2.6775 C19.7673,1.5813 18.8748,0.68775 17.77755,0.68775 L3.2466,0.68775 C2.1525,0.68775 1.26105,1.5813 1.26105,2.6775 L1.26105,4.69665 C1.26105,5.565 1.8207,6.29685 2.5998,6.56775 C2.42025,6.9174 2.0811,7.44345 1.43115,8.17005 C1.3965,8.20785 1.3671,8.24985 1.344,8.29395 C1.31775,8.3412 0.7203,9.4353 0.6531,10.54305 L0.6552,17.73135 C0.64575,17.8437 0.4893,20.49285 2.30895,22.449 C2.3856,22.533 4.18635,24.5112 6.8964,24.5112 L14.11095,24.5112 C16.8189,24.5112 18.6207,22.533 18.68685,22.45845 C19.4922,21.59115 19.90065,20.5989 20.11695,19.7463 C20.2587,19.62345 20.3532,19.446 20.3532,19.24335 L20.3532,10.60605 C20.35215,10.5924 20.34585,10.5819 20.34585,10.5693 Z M19.0008,16.3863 L15.1137,16.3863 L15.1137,13.4652 L18.9987,13.4652 L19.0008,16.3863 L19.0008,16.3863 Z M18.9987,11.28225 L18.9987,12.65775 L14.70945,12.65775 C14.48685,12.65775 14.3073,12.8394 14.3073,13.062 L14.3073,16.79265 C14.3073,17.01525 14.48685,17.19585 14.70945,17.19585 L19.0008,17.19585 L19.0008,17.8269 C19.0008,17.8332 19.01655,18.13035 18.96825,18.57135 L11.87445,18.57135 L11.87445,11.28225 L18.9987,11.28225 L18.9987,11.28225 Z M2.60715,2.6775 C2.60715,2.32365 2.8938,2.03595 3.24555,2.03595 L17.77545,2.03595 C18.1293,2.03595 18.41805,2.32365 18.41805,2.6775 L18.41805,4.69665 C18.41805,5.0505 18.1293,5.3382 17.77545,5.3382 L3.65085,5.3382 C3.5637,5.30775 3.4692,5.29515 3.3705,5.30985 C3.3411,5.31405 3.3138,5.32875 3.2886,5.3382 L3.2445,5.3382 C2.89275,5.3382 2.6061,5.0505 2.6061,4.69665 L2.6061,2.6775 L2.60715,2.6775 Z M17.6904,21.5523 C17.67885,21.5691 16.2225,23.1651 14.1099,23.1651 L6.89535,23.1651 C4.79745,23.1651 3.32745,21.567 3.3033,21.54285 C1.8795,20.01405 1.9971,17.8437 1.9992,17.7786 L1.9992,10.58715 C2.03805,9.9435 2.38455,9.22005 2.4906,9.0069 C3.42405,7.95165 3.8346,7.20195 4.01205,6.6864 L16.98795,6.6864 C17.1675,7.20195 17.57805,7.95165 18.51255,9.00585 C18.58185,9.1476 18.75825,9.5214 18.87585,9.933 L11.19825,9.933 C10.82865,9.933 10.52415,10.23435 10.52415,10.6071 L10.52415,19.2444 C10.52415,19.6161 10.8276,19.9185 11.19825,19.9185 L18.65535,19.9185 C18.46005,20.46345 18.16815,21.0399 17.69145,21.55125 L17.6904,21.5523 Z" id="Shape"></path>
                </g>
            </g>
        </g>
    </g>
</svg>