<?xml version="1.0" encoding="UTF-8"?>
<svg width="22px" height="26px" viewBox="0 0 22 26" version="1.1" xmlns="http://www.w3.org/2000/svg" xmlns:xlink="http://www.w3.org/1999/xlink">
    <!-- Generator: Sketch 45.2 (43514) - http://www.bohemiancoding.com/sketch -->
    <title>electrohogar</title>
    <desc>Created with Sketch.</desc>
    <defs></defs>
    <g id="Iconos" stroke="none" stroke-width="1" fill="none" fill-rule="evenodd">
        <g id="Tienda---iOS" transform="translate(-37.000000, -1587.000000)" fill-rule="nonzero" fill="#333333">
            <g id="electrohogar" transform="translate(37.000000, 1587.000000)">
                <g id="electro">
                    <path d="M11.2456667,4.01792857 L11.7773333,4.01792857 C11.9799167,4.01792857 12.144,3.85171429 12.144,3.6465 C12.144,3.44128571 11.9799167,3.27507143 11.7773333,3.27507143 L11.2456667,3.27507143 C11.0430833,3.27507143 10.879,3.44128571 10.879,3.6465 C10.879,3.85171429 11.0430833,4.01792857 11.2456667,4.01792857 Z" id="Shape"></path>
                    <path d="M13.38975,4.01792857 L14.08275,4.01792857 C14.2853333,4.01792857 14.4494167,3.85171429 14.4494167,3.6465 C14.4494167,3.44128571 14.2853333,3.27507143 14.08275,3.27507143 L13.38975,3.27507143 C13.1871667,3.27507143 13.0230833,3.44128571 13.0230833,3.6465 C13.0230833,3.85171429 13.1871667,4.01792857 13.38975,4.01792857 Z" id="Shape"></path>
                    <path d="M16.5045833,4.6995 L18.458,4.6995 C18.6605833,4.6995 18.8246667,4.53328571 18.8246667,4.32807143 L18.8246667,2.34928571 C18.8246667,2.14407143 18.6605833,1.97785714 18.458,1.97785714 L16.5045833,1.97785714 C16.302,1.97785714 16.1379167,2.14407143 16.1379167,2.34928571 L16.1379167,4.329 C16.1379167,4.53328571 16.302,4.6995 16.5045833,4.6995 L16.5045833,4.6995 Z M16.87125,2.72071429 L18.0913333,2.72071429 L18.0913333,3.95664286 L16.87125,3.95664286 L16.87125,2.72071429 Z" id="Shape"></path>
                    <path d="M10.9569167,8.30885714 C7.0345,8.30885714 3.84175,11.5421429 3.84175,15.5145714 C3.84175,19.4879286 7.0345,22.7202857 10.9569167,22.7202857 C14.8775,22.7202857 18.0684167,19.487 18.0684167,15.5145714 C18.0684167,11.5421429 14.8775,8.30885714 10.9569167,8.30885714 Z M10.9569167,21.5317143 C7.68075,21.5317143 5.01508333,18.8323571 5.01508333,15.5145714 C5.01508333,12.1967857 7.68075,9.49742857 10.9569167,9.49742857 C14.23125,9.49742857 16.8950833,12.1967857 16.8950833,15.5145714 C16.8950833,18.8323571 14.23125,21.5317143 10.9569167,21.5317143 Z" id="Shape"></path>
                    <path d="M15.125,16.8953571 C14.938,16.8145714 14.7235,16.9046429 14.6446667,17.0922143 C14.01675,18.5974286 12.5684167,19.5705714 10.9569167,19.5705714 C8.74866667,19.5705714 6.95291667,17.7515 6.95291667,15.5145714 C6.95291667,13.2776429 8.74866667,11.4585714 10.9569167,11.4585714 C12.5381667,11.4585714 13.9736667,12.4047857 14.6144167,13.8691429 C14.6969167,14.0567143 14.9123333,14.1402857 15.0984167,14.0576429 C15.2845,13.975 15.3660833,13.7549286 15.2845,13.5673571 C14.5255,11.8346429 12.826,10.7157143 10.956,10.7157143 C8.34441667,10.7157143 6.21866667,12.8681429 6.21866667,15.5145714 C6.21866667,18.161 8.3435,20.3134286 10.956,20.3134286 C12.8635833,20.3134286 14.5768333,19.1629286 15.3184167,17.3819286 C15.4,17.1925 15.312,16.9761429 15.125,16.8953571 L15.125,16.8953571 Z" id="Shape"></path>
                    <path d="M12.7884167,14.0938571 L12.7884167,16.8247857 C12.7884167,17.03 12.9525,17.1962143 13.1550833,17.1962143 C13.3576667,17.1962143 13.52175,17.03 13.52175,16.8247857 L13.52175,14.0938571 C13.52175,13.8886429 13.3576667,13.7224286 13.1550833,13.7224286 C12.9525,13.7224286 12.7884167,13.8886429 12.7884167,14.0938571 Z" id="Shape"></path>
                    <path d="M20.7955,0.0250714286 L1.2045,0.0250714286 C0.88,0.0250714286 0.617833333,0.291571429 0.617833333,0.619357143 L0.617833333,25.3815714 C0.617833333,25.7102857 0.880916667,25.9758571 1.2045,25.9758571 L20.7945833,25.9758571 C21.1190833,25.9758571 21.38125,25.7093571 21.38125,25.3815714 L21.38125,0.619357143 C21.3821667,0.290642857 21.1190833,0.0250714286 20.7955,0.0250714286 Z M1.79208333,24.7863571 L1.79208333,6.67828571 L3.90041667,6.67828571 C4.103,6.67828571 4.26708333,6.51207143 4.26708333,6.30685714 C4.26708333,6.10164286 4.10208333,5.93542857 3.8995,5.93542857 L1.79208333,5.93542857 L1.79208333,1.21271429 L20.2088333,1.21271429 L20.2088333,5.93542857 L8.98425,5.93542857 L8.98425,2.34928571 C8.98425,2.14407143 8.82016667,1.97785714 8.61758333,1.97785714 C8.415,1.97785714 8.25091667,2.14407143 8.25091667,2.34928571 L8.25091667,5.93635714 L6.1325,5.93635714 C5.92991667,5.93635714 5.76583333,6.10257143 5.76583333,6.30778571 C5.76583333,6.513 5.92991667,6.67921429 6.1325,6.67921429 L20.2088333,6.67921429 L20.2088333,24.7863571 L1.793,24.7863571 L1.79208333,24.7863571 Z" id="Shape"></path>
                </g>
            </g>
        </g>
    </g>
</svg>