<?xml version="1.0" encoding="UTF-8"?>
<svg width="22px" height="22px" viewBox="0 0 22 22" version="1.1" xmlns="http://www.w3.org/2000/svg" xmlns:xlink="http://www.w3.org/1999/xlink">
    <!-- Generator: Sketch 45.2 (43514) - http://www.bohemiancoding.com/sketch -->
    <title>farmacia</title>
    <desc>Created with Sketch.</desc>
    <defs></defs>
    <g id="Iconos" stroke="none" stroke-width="1" fill="none" fill-rule="evenodd">
        <g id="Tienda---iOS" transform="translate(-35.000000, -1317.000000)" fill-rule="nonzero" fill="#000000">
            <g id="farmacia" transform="translate(33.000000, 1313.000000)">
                <g id="icon_farmacia" transform="translate(2.000000, 4.000000)">
                    <path d="M19.428,7.355 L14.644,7.355 L14.644,2.573 C14.644,1.258 13.573,0.188 12.259,0.188 L9.744,0.188 C8.432,0.188 7.36,1.258 7.36,2.573 L7.36,7.355 L2.576,7.355 C1.262,7.355 0.192,8.425 0.192,9.741 L0.192,12.256 C0.192,13.57 1.262,14.641 2.576,14.641 L7.359,14.641 L7.359,19.426 C7.359,20.741 8.431,21.81 9.743,21.81 L12.258,21.81 C13.572,21.81 14.643,20.741 14.643,19.426 L14.643,14.642 L19.427,14.642 C20.739,14.642 21.808,13.572 21.808,12.257 L21.808,9.742 C21.81,8.425 20.741,7.355 19.428,7.355 Z M20.526,12.258 C20.526,12.865 20.034,13.359 19.428,13.359 L14.001,13.359 C13.646,13.359 13.359,13.646 13.359,14.001 L13.359,19.427 C13.359,20.034 12.865,20.528 12.258,20.528 L9.743,20.528 C9.137,20.528 8.643,20.034 8.643,19.427 L8.643,14 C8.643,13.645 8.355,13.358 8.001,13.358 L2.575,13.358 C1.968,13.358 1.474,12.864 1.474,12.257 L1.474,9.742 C1.474,9.134 1.968,8.638 2.575,8.638 L8.001,8.638 C8.355,8.638 8.643,8.351 8.643,7.996 L8.643,2.574 C8.643,1.967 9.137,1.473 9.743,1.473 L12.258,1.473 C12.865,1.473 13.359,1.967 13.359,2.574 L13.359,7.997 C13.359,8.352 13.646,8.639 14.001,8.639 L19.428,8.639 C20.034,8.639 20.526,9.135 20.526,9.743 L20.526,12.258 L20.526,12.258 Z" id="Shape"></path>
                </g>
            </g>
        </g>
    </g>
</svg>