<?xml version="1.0" encoding="UTF-8"?>
<svg width="22px" height="29px" viewBox="0 0 22 29" version="1.1" xmlns="http://www.w3.org/2000/svg" xmlns:xlink="http://www.w3.org/1999/xlink">
    <!-- Generator: Sketch 45.2 (43514) - http://www.bohemiancoding.com/sketch -->
    <title>lacteos</title>
    <desc>Created with Sketch.</desc>
    <defs></defs>
    <g id="Iconos" stroke="none" stroke-width="1" fill="none" fill-rule="evenodd">
        <g id="Tienda---iOS" transform="translate(-37.000000, -243.000000)" fill-rule="nonzero" fill="#333333">
            <g id="lacteos" transform="translate(37.000000, 243.000000)">
                <g id="Shape">
                    <path d="M21.7919167,7.71741667 C21.7919167,7.5295 21.7204167,7.348 21.5911667,7.20958333 L19.0098333,4.46416667 L19.0098333,1.22833333 C19.0098333,0.8195 18.678,0.488583333 18.271,0.488583333 L3.79958333,0.488583333 C3.39166667,0.488583333 3.06075,0.820416667 3.06075,1.22833333 L3.06075,4.48891667 L0.417083333,7.19858333 C0.413416667,7.20316667 0.413416667,7.2105 0.408833333,7.21508333 C0.329083333,7.30308333 0.275916667,7.41125 0.24475,7.53133333 C0.235583333,7.56433333 0.22825,7.59366667 0.2255,7.6285 C0.221833333,7.65875 0.207166667,7.68625 0.207166667,7.71741667 L0.207166667,17.91075 C0.207166667,17.9125833 0.207166667,17.9144167 0.207166667,17.91625 L0.207166667,24.0496667 C0.207166667,24.0505833 0.207166667,24.0533333 0.207166667,24.0551667 L0.207166667,28.10225 C0.207166667,28.5110833 0.539,28.842 0.946,28.842 L21.05125,28.842 C21.4600833,28.842 21.791,28.5101667 21.791,28.10225 L21.791,28.10225 L21.791,28.10225 L21.791,7.7165 L21.7919167,7.71741667 Z M20.3115,27.3643333 L16.1910833,27.3643333 L16.1910833,11.6994167 C16.1910833,11.6975833 16.1910833,11.69575 16.1910833,11.6939167 L16.1910833,8.019 L18.2911667,5.86208333 L20.3105833,8.00983333 L20.3105833,27.3643333 L20.3115,27.3643333 Z M14.7115833,11.21175 L1.6885,16.7878333 L1.6885,8.45716667 L14.7115833,8.45716667 L14.7115833,11.21175 Z M1.6885,18.3984167 L14.7115833,12.8223333 L14.7115833,17.3644167 C14.6950833,17.3699167 14.6785833,17.3680833 14.6611667,17.3745 L1.68758333,22.9285833 L1.68758333,18.3993333 L1.6885,18.3984167 Z M4.54116667,1.96991667 L17.5303333,1.96991667 L17.5303333,4.05166667 L4.54116667,4.05166667 L4.54116667,1.96991667 Z M4.11216667,5.533 L16.54675,5.533 L15.1396667,6.97675 L2.70325,6.97675 L4.11216667,5.533 Z M1.6885,24.5391667 L14.7115833,18.964 L14.7115833,27.36525 L1.6885,27.36525 L1.6885,24.5391667 L1.6885,24.5391667 Z"></path>
                </g>
            </g>
        </g>
    </g>
</svg>