<?xml version="1.0" encoding="UTF-8"?>
<svg width="18px" height="30px" viewBox="0 0 18 30" version="1.1" xmlns="http://www.w3.org/2000/svg" xmlns:xlink="http://www.w3.org/1999/xlink">
    <!-- Generator: Sketch 45.2 (43514) - http://www.bohemiancoding.com/sketch -->
    <title>limpieza</title>
    <desc>Created with Sketch.</desc>
    <defs></defs>
    <g id="Iconos" stroke="none" stroke-width="1" fill="none" fill-rule="evenodd">
        <g id="Tienda---iOS" transform="translate(-37.000000, -1242.000000)" fill-rule="nonzero" fill="#000000">
            <g id="limpieza" transform="translate(33.000000, 1242.000000)">
                <g id="icon_limpieza" transform="translate(4.000000, 0.000000)">
                    <path d="M15.728625,9.76725 C15.75225,9.738 15.786,9.718875 15.805125,9.6885 C15.921,9.50625 15.948,9.279 15.8805,9.075375 C15.87375,9.0585 15.318,7.3935 14.9085,5.68575 C14.869125,5.51925 14.869125,5.385375 14.91075,5.3325 C14.985,5.238 15.27525,5.13675 15.735375,5.13675 C15.935625,5.13675 16.08525,5.15475 16.1055,5.157 C16.372125,5.189625 16.662375,5.070375 16.815375,4.831875 C16.966125,4.5945 16.966125,4.289625 16.815375,4.053375 L14.464125,0.388125 C14.3325,0.18225 14.103,0.05625 13.856625,0.05625 L3.846375,0.05625 C3.448125,0.05625 3.121875,0.379125 3.121875,0.7785 L3.121875,1.252125 L1.373625,1.252125 C0.972,1.252125 0.651375,1.575 0.651375,1.974375 C0.651375,2.37375 0.972,2.696625 1.373625,2.696625 L3.124125,2.696625 L3.124125,3.033 C3.124125,3.35025 3.3345,3.6315 3.6405,3.72375 C3.6405,3.72375 4.872375,4.098375 6.231375,4.50225 C6.14925,5.30775 5.814,6.953625 4.43925,8.465625 C4.170375,8.75925 4.194,9.217125 4.489875,9.484875 C4.629375,9.610875 4.800375,9.67275 4.975875,9.67275 C5.1705,9.67275 5.3685,9.594 5.509125,9.4365 C7.0155,7.779375 7.48575,5.98725 7.635375,4.914 C7.999875,5.01975 8.355375,5.122125 8.656875,5.2065 C9.874125,5.545125 10.022625,6.399 10.0395,6.517125 L10.52775,9.87075 C10.53225,9.968625 10.57725,11.5425 8.812125,12.4605 C8.647875,12.556125 4.80375,14.855625 4.257,19.582875 C3.7485,23.974875 3.56175,26.361 3.56175,26.361 C3.547125,26.503875 3.432375,27.770625 4.15125,28.573875 C4.512375,28.97775 5.018625,29.190375 5.607,29.190375 L14.884875,29.18475 C14.909625,29.188125 14.981625,29.19825 15.094125,29.19825 C15.40125,29.19825 15.982875,29.1285 16.495875,28.681875 C17.0595,28.188 17.3475,27.408375 17.3475,26.371125 C17.348625,26.229375 17.328375,13.721625 15.728625,9.768375 L15.728625,9.76725 Z M9.04275,3.814875 C7.7175,3.44475 5.55075,2.793375 4.5675,2.496375 L4.5675,1.50075 L13.46175,1.50075 L14.920875,3.7755 C14.423625,3.888 14.0355,4.111875 13.77675,4.438125 C13.548375,4.728375 13.318875,5.236875 13.5045,6.021 C13.748625,7.0425 14.036625,8.029125 14.2425,8.69625 L11.85975,8.99775 L11.4705,6.3405 C11.46375,6.262875 11.255625,4.431375 9.041625,3.816 L9.04275,3.814875 Z M15.5565,27.5805 C15.34725,27.77175 15.07725,27.750375 14.98275,27.74475 L5.607,27.74475 C5.380875,27.74475 5.28525,27.67275 5.230125,27.610875 C4.998375,27.3555 4.975875,26.7615 5.00175,26.494875 C5.004,26.470125 5.18625,24.10875 5.6925,19.74825 C6.154875,15.753375 9.5085,13.726125 9.5085,13.72275 C11.316375,12.78225 11.79675,11.3085 11.921625,10.445625 L14.335875,10.139625 C15.44175,12.26475 15.904125,21.553875 15.904125,26.36775 C15.901875,26.953875 15.78375,27.372375 15.555375,27.5805 L15.5565,27.5805 Z" id="Shape"></path>
                    <path d="M10.488375,17.229375 C8.442,17.229375 6.7815,18.891 6.7815,20.934 C6.7815,22.97925 8.442,24.63975 10.488375,24.63975 C12.529125,24.63975 14.191875,22.97925 14.191875,20.934 C14.191875,18.892125 12.53025,17.229375 10.488375,17.229375 Z M10.488375,23.7735 C8.92125,23.7735 7.64775,22.498875 7.64775,20.932875 C7.64775,19.368 8.922375,18.093375 10.488375,18.093375 C12.054375,18.093375 13.325625,19.368 13.325625,20.932875 C13.325625,22.498875 12.054375,23.7735 10.488375,23.7735 Z" id="Shape"></path>
                </g>
            </g>
        </g>
    </g>
</svg>