<?xml version="1.0" encoding="UTF-8"?>
<svg width="26px" height="26px" viewBox="0 0 26 26" version="1.1" xmlns="http://www.w3.org/2000/svg" xmlns:xlink="http://www.w3.org/1999/xlink">
    <!-- Generator: Sketch 45.2 (43514) - http://www.bohemiancoding.com/sketch -->
    <title>Group Copy</title>
    <desc>Created with Sketch.</desc>
    <defs></defs>
    <g id="Iconos" stroke="none" stroke-width="1" fill="none" fill-rule="evenodd">
        <g id="Tienda---iOS" transform="translate(-37.000000, -118.000000)" fill-rule="nonzero" fill="#008800">
            <g id="Group-Copy" transform="translate(37.000000, 118.000000)">
                <g id="icon__discount-tag">
                    <path d="M9.17196429,11.0013393 C8.52991071,11.0013393 7.94973214,11.245625 7.49169643,11.7044643 C6.57401786,12.6213393 6.57401786,14.1489286 7.49169643,15.0682143 C7.94973214,15.5254464 8.52991071,15.7697321 9.17196429,15.7697321 C9.81401786,15.7697321 10.3958036,15.5254464 10.8538393,15.0682143 C11.7707143,14.1497321 11.7707143,12.6221429 10.8538393,11.7044643 C10.395,11.245625 9.81482143,11.0013393 9.17196429,11.0013393 L9.17196429,11.0013393 Z M9.99723214,14.2108036 C9.57053571,14.6391071 8.80553571,14.6391071 8.34669643,14.2108036 C7.88866071,13.7527679 7.88866071,13.0191071 8.34669643,12.5602679 C8.56125,12.3465179 8.86580357,12.224375 9.17196429,12.224375 C9.47892857,12.224375 9.78508929,12.348125 9.99723214,12.5602679 C10.456875,13.0199107 10.456875,13.7535714 9.99723214,14.2108036 L9.99723214,14.2108036 Z" id="Shape"></path>
                    <path d="M16.9063393,11.18375 C16.2634821,11.18375 15.6816964,11.4296429 15.2236607,11.886875 C14.3075893,12.8053571 14.3075893,14.3329464 15.2236607,15.250625 C15.6816964,15.7102679 16.2634821,15.9545536 16.9063393,15.9545536 C17.5475893,15.9545536 18.1285714,15.7102679 18.5874107,15.250625 C19.0454464,14.7933929 19.2905357,14.2108036 19.2905357,13.56875 C19.2905357,12.9266964 19.0454464,12.3465179 18.5874107,11.886875 C18.1285714,11.4296429 17.5178571,11.18375 16.9063393,11.18375 L16.9063393,11.18375 Z M17.7002679,14.3948214 C17.2727679,14.8215179 16.5077679,14.8215179 16.0497321,14.3948214 C15.5925,13.9351786 15.5925,13.2007143 16.0497321,12.7442857 C16.2642857,12.5289286 16.5696429,12.4075893 16.875,12.4075893 C17.1803571,12.4075893 17.4865179,12.528125 17.7002679,12.7442857 C17.9148214,12.9580357 18.0369643,13.2625893 18.0369643,13.5679464 C18.0683036,13.8749107 17.9453571,14.1802679 17.7002679,14.3948214 L17.7002679,14.3948214 Z" id="Shape"></path>
                    <path d="M25.670692,10.7744934 L24.1720313,3.3462791 C23.9896205,2.43020768 23.2864955,1.7262791 22.3696205,1.54386839 L14.9414063,0.0444041049 C14.1756027,-0.107470895 13.3816741,0.136011248 12.8617634,0.686457676 L0.665959821,12.8533327 C-0.221986607,13.7694041 -0.221986607,15.207797 0.665959821,16.1238684 L9.59122768,25.0499398 C10.0179241,25.4758327 10.5997098,25.7225291 11.2112277,25.7225291 C11.8227455,25.7225291 12.4045313,25.4758327 12.8312277,25.0499398 L25.0286384,12.8525291 C25.5798884,12.3028862 25.822567,11.506547 25.6698884,10.7728862 L25.670692,10.7744934 Z M24.1720313,11.9983327 L12.0067634,24.162797 C11.6097991,24.5605648 10.8761384,24.5605648 10.4791741,24.162797 L1.52095982,15.2383327 C1.09265625,14.8100291 1.09265625,14.1061005 1.52095982,13.7083327 L13.7183705,1.54386839 C13.9337277,1.32851125 14.206942,1.23610053 14.482567,1.23610053 C14.5436384,1.23610053 14.6360491,1.23610053 14.696317,1.26663625 L22.1253348,2.76610053 C22.5536384,2.85610053 22.8911384,3.19199339 22.981942,3.6219041 L24.4789955,11.0203862 C24.5408705,11.3852077 24.4179241,11.7524398 24.1720313,11.9983327 L24.1720313,11.9983327 Z" id="Shape"></path>
                    <path d="M13.0548214,7.27116071 C12.718125,7.27116071 12.4433036,7.54598214 12.4433036,7.88267857 L12.4433036,19.4380357 C12.4433036,19.7747321 12.7173214,20.0495536 13.0548214,20.0495536 C13.3923214,20.0495536 13.6663393,19.7755357 13.6663393,19.4380357 L13.6663393,7.88267857 C13.6663393,7.54678571 13.3923214,7.27116071 13.0548214,7.27116071 L13.0548214,7.27116071 Z" id="Shape"></path>
                    <path d="M21.4296429,3.51205357 C21.0013393,3.51205357 20.6341071,3.66633929 20.32875,3.97008929 C20.0233929,4.27785714 19.8699107,4.64267857 19.8699107,5.07178571 C19.8699107,5.50089286 20.0233929,5.86732143 20.32875,6.17348214 C20.6341071,6.47964286 21.0005357,6.63151786 21.4296429,6.63151786 C21.8571429,6.63151786 22.2251786,6.47964286 22.5305357,6.17348214 C22.8358929,5.86732143 22.9885714,5.50089286 22.9885714,5.07178571 C22.9885714,4.64267857 22.8358929,4.27785714 22.5305357,3.97008929 C22.2565179,3.66553571 21.8579464,3.51205357 21.4296429,3.51205357 Z M21.6747321,5.31526786 C21.5517857,5.43901786 21.3380357,5.43901786 21.2158929,5.31526786 C21.1548214,5.25580357 21.1242857,5.16339286 21.1242857,5.07098214 C21.1242857,4.97857143 21.1548214,4.88857143 21.2158929,4.82669643 C21.2769643,4.76482143 21.369375,4.73428571 21.4601786,4.73428571 C21.5517857,4.73428571 21.6433929,4.76482143 21.7052679,4.82669643 C21.7671429,4.88857143 21.7960714,4.97857143 21.7960714,5.07098214 C21.7960714,5.16258929 21.735,5.255 21.6747321,5.31526786 L21.6747321,5.31526786 Z" id="Shape"></path>
                </g>
            </g>
        </g>
    </g>
</svg>