<?xml version="1.0" encoding="UTF-8"?>
<svg width="32px" height="14px" viewBox="0 0 32 14" version="1.1" xmlns="http://www.w3.org/2000/svg" xmlns:xlink="http://www.w3.org/1999/xlink">
    <!-- Generator: Sketch 45.2 (43514) - http://www.bohemiancoding.com/sketch -->
    <title>pescaderia</title>
    <desc>Created with Sketch.</desc>
    <defs></defs>
    <g id="Iconos" stroke="none" stroke-width="1" fill="none" fill-rule="evenodd">
        <g id="Tienda---iOS" transform="translate(-28.000000, -749.000000)" fill-rule="nonzero" fill="#000000">
            <g id="pescaderia" transform="translate(28.000000, 749.000000)">
                <g id="pescados">
                    <path d="M29.809,6.991 L31.537,2.032 C31.631,1.763 31.535,1.463 31.302,1.298 C31.069,1.135 30.756,1.143 30.532,1.321 L25.799,5.122 C20.407,1.437 15.444,-0.225 10.996,0.163 C10.992,0.163 10.989,0.161 10.983,0.161 C10.97,0.161 10.958,0.167 10.946,0.168 C10.381,0.219 9.821,0.295 9.271,0.413 C3.559,1.643 0.868,6.059 0.535,6.641 C0.467,6.748 0.426,6.874 0.426,7.005 C0.426,7.163 0.484,7.309 0.582,7.423 C1.066,8.242 3.766,12.387 9.272,13.573 C9.822,13.691 10.382,13.767 10.949,13.818 C10.961,13.819 10.971,13.825 10.984,13.825 C10.991,13.825 10.998,13.822 11.005,13.821 C11.425,13.857 11.848,13.887 12.276,13.887 C16.391,13.887 20.925,12.195 25.808,8.856 L30.545,12.473 C30.659,12.56 30.797,12.604 30.933,12.604 C31.066,12.604 31.2,12.562 31.312,12.479 C31.541,12.312 31.632,12.012 31.535,11.745 L29.808,6.989 L29.809,6.991 Z M1.824,6.995 C2.505,5.952 4.975,2.652 9.541,1.668 C9.807,1.611 10.074,1.567 10.343,1.526 L10.343,12.465 C10.081,12.426 9.819,12.383 9.562,12.328 C4.999,11.353 2.508,8.038 1.823,6.995 L1.824,6.995 Z M11.625,12.587 L11.625,1.404 C15.96,1.196 20.859,3.065 26.24,6.994 C20.859,10.926 15.957,12.797 11.625,12.587 Z M28.529,7.214 L29.588,10.132 L26.9,8.08 C27.127,7.915 27.351,7.767 27.581,7.595 C27.679,7.552 27.769,7.485 27.838,7.393 C27.929,7.275 27.971,7.134 27.968,6.995 C27.97,6.856 27.929,6.716 27.838,6.597 C27.769,6.505 27.68,6.438 27.581,6.395 C27.35,6.22 27.12,6.059 26.89,5.892 L29.596,3.718 L28.527,6.785 C28.478,6.924 28.478,7.075 28.529,7.214 Z" id="Shape"></path>
                    <path d="M7.095,4.353 C6.284,4.353 5.624,5.012 5.624,5.823 C5.624,6.634 6.284,7.293 7.095,7.293 C7.906,7.293 8.566,6.634 8.566,5.823 C8.566,5.012 7.907,4.353 7.095,4.353 L7.095,4.353 Z M7.095,6.493 C6.725,6.493 6.424,6.192 6.424,5.823 C6.424,5.454 6.725,5.153 7.095,5.153 C7.465,5.153 7.766,5.454 7.766,5.823 C7.766,6.192 7.465,6.493 7.095,6.493 Z" id="Shape"></path>
                </g>
            </g>
        </g>
    </g>
</svg>