<?xml version="1.0" encoding="UTF-8"?>
<svg width="28px" height="28px" viewBox="0 0 28 28" version="1.1" xmlns="http://www.w3.org/2000/svg" xmlns:xlink="http://www.w3.org/1999/xlink">
    <!-- Generator: Sketch 45.2 (43514) - http://www.bohemiancoding.com/sketch -->
    <title>platos preparados</title>
    <desc>Created with Sketch.</desc>
    <defs></defs>
    <g id="Iconos" stroke="none" stroke-width="1" fill="none" fill-rule="evenodd">
        <g id="Tienda---iOS" transform="translate(-34.000000, -953.000000)" fill-rule="nonzero" fill="#000000">
            <g id="platos-preparados" transform="translate(34.000000, 953.000000)">
                <g id="preparadas">
                    <path d="M9.981,7.885 C10.335,7.885 10.621,7.598 10.621,7.245 L10.621,3.328 C10.621,2.974 10.334,2.688 9.981,2.688 C9.628,2.688 9.341,2.975 9.341,3.328 L9.341,7.245 C9.341,7.599 9.628,7.885 9.981,7.885 Z" id="Shape"></path>
                    <path d="M17.982,7.885 C18.336,7.885 18.622,7.598 18.622,7.245 L18.622,3.328 C18.622,2.974 18.335,2.688 17.982,2.688 C17.629,2.688 17.342,2.975 17.342,3.328 L17.342,7.245 C17.342,7.599 17.629,7.885 17.982,7.885 Z" id="Shape"></path>
                    <path d="M13.981,7.885 C14.335,7.885 14.621,7.598 14.621,7.245 L14.621,1.216 C14.621,0.862 14.334,0.576 13.981,0.576 C13.628,0.576 13.341,0.863 13.341,1.216 L13.341,7.245 C13.341,7.599 13.628,7.885 13.981,7.885 L13.981,7.885 Z" id="Shape"></path>
                    <path d="M27.079,16.484 C27.079,12.385 21.341,9.173 14.017,9.173 C6.693,9.173 0.954,12.385 0.954,16.484 C0.954,16.593 0.974,16.699 0.982,16.807 C0.945,16.889 0.92,16.978 0.92,17.074 C0.92,21.959 6.514,27.424 13.999,27.424 C21.484,27.424 27.078,21.959 27.078,17.074 C27.078,17.01 27.059,16.953 27.042,16.896 C27.057,16.759 27.079,16.623 27.079,16.484 Z M14.018,10.453 C20.404,10.453 25.799,13.215 25.799,16.484 C25.799,17.679 25.073,18.803 23.847,19.751 C23.885,19.539 23.913,19.325 23.913,19.11 C23.913,15.805 19.529,13.218 13.932,13.218 C8.335,13.218 3.953,15.806 3.953,19.11 C3.953,19.281 3.974,19.448 3.998,19.616 C2.852,18.671 2.234,17.591 2.234,16.484 C2.234,13.215 7.63,10.453 14.017,10.453 L14.018,10.453 Z M5.859,20.794 C5.858,20.794 5.858,20.794 5.859,20.794 C5.444,20.253 5.235,19.688 5.235,19.112 C5.235,16.612 9.218,14.5 13.934,14.5 C18.65,14.5 22.635,16.612 22.635,19.111 C22.635,19.733 22.383,20.337 21.908,20.912 C19.8,21.9 17.024,22.516 14.019,22.516 C10.944,22.516 8.074,21.903 5.86,20.794 L5.859,20.794 Z M14,26.144 C9.178,26.144 5.238,23.7 3.373,20.746 C3.796,21.079 4.262,21.396 4.788,21.688 C7.242,23.047 10.521,23.796 14.018,23.796 C18.413,23.796 22.224,22.635 24.579,20.825 C22.693,23.744 18.78,26.144 14,26.144 Z" id="Shape"></path>
                    <path d="M17.521,17.452 C17.521,16.764 16.65,16.245 15.493,16.245 C14.336,16.245 13.464,16.764 13.464,17.452 C13.464,18.138 14.337,18.654 15.493,18.654 C16.649,18.654 17.521,18.138 17.521,17.452 L17.521,17.452 Z M14.263,17.452 C14.263,17.351 14.699,17.045 15.492,17.045 C16.285,17.045 16.72,17.351 16.72,17.452 C16.72,17.532 16.325,17.854 15.492,17.854 C14.659,17.854 14.263,17.532 14.263,17.452 Z" id="Shape"></path>
                    <path d="M18.874,19.73 C19.622,19.73 20.165,19.372 20.165,18.878 C20.165,18.383 19.622,18.024 18.874,18.024 C18.126,18.024 17.582,18.383 17.582,18.878 C17.582,19.372 18.126,19.73 18.874,19.73 Z M19.234,18.877 C19.06,18.935 18.685,18.935 18.512,18.877 C18.686,18.82 19.061,18.82 19.234,18.877 Z" id="Shape"></path>
                </g>
            </g>
        </g>
    </g>
</svg>