<?xml version="1.0" encoding="UTF-8"?>
<svg width="32px" height="20px" viewBox="0 0 32 20" version="1.1" xmlns="http://www.w3.org/2000/svg" xmlns:xlink="http://www.w3.org/1999/xlink">
    <!-- Generator: Sketch 45.2 (43514) - http://www.bohemiancoding.com/sketch -->
    <title>quesos y fiambres</title>
    <desc>Created with Sketch.</desc>
    <defs></defs>
    <g id="Iconos" stroke="none" stroke-width="1" fill="none" fill-rule="evenodd">
        <g id="Tienda---iOS" transform="translate(-31.000000, -533.000000)" fill-rule="nonzero" fill="#000000">
            <g id="quesos-y-fiambres" transform="translate(31.000000, 533.000000)">
                <g id="icon_quesosfiambres">
                    <path d="M27.225,16.142 C27.994,16.142 28.621,15.516 28.621,14.747 C28.621,13.977 27.994,13.352 27.225,13.352 C26.454,13.352 25.827,13.977 25.827,14.747 C25.828,15.516 26.455,16.142 27.225,16.142 Z M27.225,14.082 C27.591,14.082 27.891,14.381 27.891,14.748 C27.891,15.115 27.591,15.413 27.225,15.413 C26.858,15.413 26.559,15.115 26.559,14.748 C26.559,14.381 26.859,14.082 27.225,14.082 Z" id="Shape"></path>
                    <path d="M20.72,11.678 C19.951,11.678 19.328,12.303 19.328,13.07 C19.328,13.837 19.951,14.46 20.72,14.46 C21.487,14.46 22.111,13.837 22.111,13.07 C22.111,12.303 21.487,11.678 20.72,11.678 Z M20.72,13.731 C20.355,13.731 20.059,13.434 20.059,13.07 C20.059,12.706 20.356,12.408 20.72,12.408 C21.084,12.408 21.381,12.707 21.381,13.07 C21.381,13.435 21.084,13.731 20.72,13.731 Z" id="Shape"></path>
                    <path d="M15.386,14.681 C14.675,14.681 14.094,15.26 14.094,15.975 C14.094,16.688 14.674,17.268 15.386,17.268 C16.102,17.268 16.682,16.688 16.682,15.975 C16.682,15.26 16.102,14.681 15.386,14.681 Z M15.386,16.538 C15.077,16.538 14.824,16.286 14.824,15.975 C14.824,15.664 15.077,15.411 15.386,15.411 C15.697,15.411 15.951,15.664 15.951,15.975 C15.951,16.286 15.697,16.538 15.386,16.538 Z" id="Shape"></path>
                    <path d="M30.868,11.981 C31.201,11.977 31.466,11.705 31.466,11.373 L31.466,9.107 C31.466,9.106 31.466,9.105 31.466,9.105 L31.466,9.095 C31.466,9.069 31.455,9.049 31.453,9.026 C31.444,8.972 31.44,8.918 31.419,8.868 C31.405,8.833 31.382,8.805 31.359,8.771 C31.338,8.739 31.322,8.703 31.293,8.674 C31.257,8.638 31.214,8.613 31.172,8.588 C31.149,8.573 31.13,8.552 31.106,8.54 L18.117,2.777 C17.999,2.725 17.867,2.711 17.744,2.738 C17.719,2.743 17.236,2.854 16.564,3.142 C16.494,3.072 16.442,2.995 16.372,2.925 C14.725,1.277 12.678,0.294 10.896,0.294 C9.866,0.294 8.989,0.627 8.361,1.255 C8.326,1.292 8.303,1.341 8.268,1.38 C8.219,1.407 8.168,1.433 8.128,1.474 L3.258,6.345 C1.963,7.639 1.249,9.359 1.252,11.19 C1.252,12.713 1.77,14.146 2.683,15.334 L1.252,15.072 C0.925,15.009 0.607,15.23 0.544,15.562 C0.482,15.892 0.704,16.208 1.036,16.269 L2.652,16.566 L3.027,18.278 C3.088,18.563 3.34,18.758 3.622,18.758 C3.664,18.758 3.705,18.753 3.751,18.744 C4.081,18.671 4.286,18.347 4.215,18.019 L3.896,16.556 C5.131,17.523 6.607,18.039 8.101,18.039 C9.331,18.039 10.551,17.691 11.635,17.036 L11.635,19.099 C11.635,19.27 11.706,19.432 11.831,19.547 C11.945,19.65 12.092,19.708 12.245,19.708 C12.261,19.708 12.275,19.708 12.292,19.707 L30.907,18.205 C31.224,18.18 31.467,17.916 31.467,17.599 L31.467,14.006 C31.467,13.674 31.202,13.403 30.869,13.398 C30.486,13.392 30.172,13.074 30.172,12.691 C30.172,12.308 30.485,11.99 30.867,11.983 L30.868,11.981 Z M25.399,8.486 C25.07,7.93 24.488,7.555 23.822,7.555 C23.152,7.555 22.572,7.929 22.244,8.486 L18.993,8.486 C19.005,7.953 18.915,7.387 18.749,6.809 C19.032,6.889 19.346,6.937 19.689,6.937 C20.831,6.937 21.703,6.444 21.849,5.765 L27.98,8.486 L25.399,8.486 L25.399,8.486 Z M22.994,9.094 C22.994,8.993 22.963,8.901 22.917,8.817 C23.122,8.503 23.444,8.286 23.825,8.286 C24.204,8.286 24.526,8.505 24.731,8.818 C24.689,8.903 24.658,8.993 24.658,9.094 C24.658,9.307 24.772,9.485 24.939,9.595 C24.898,10.23 24.421,10.737 23.826,10.737 C23.231,10.737 22.755,10.229 22.712,9.595 C22.876,9.486 22.994,9.308 22.994,9.094 L22.994,9.094 Z M20.054,4.969 L21.082,5.424 C21.114,5.473 21.151,5.524 21.151,5.569 C21.151,5.829 20.582,6.209 19.691,6.209 C19.061,6.209 18.602,6.016 18.383,5.812 C18.341,5.72 18.294,5.627 18.25,5.535 C18.293,5.277 18.838,4.931 19.691,4.931 C19.824,4.931 19.934,4.952 20.054,4.968 L20.054,4.969 Z M17.86,11.117 C17.909,11.262 17.953,11.411 17.953,11.569 C17.953,12.321 17.341,12.932 16.59,12.932 C16.432,12.932 16.28,12.895 16.135,12.842 L17.861,11.116 L17.86,11.117 Z M17.818,3.977 L18.672,4.356 C18.337,4.462 18.053,4.616 17.853,4.809 C17.712,4.578 17.562,4.346 17.392,4.12 C17.566,4.055 17.716,4.006 17.818,3.977 L17.818,3.977 Z M10.897,1.51 C12.341,1.51 14.112,2.383 15.512,3.785 C17.668,5.943 18.434,8.824 17.181,10.074 C16.682,10.573 15.995,10.678 15.508,10.678 C14.064,10.678 12.294,9.805 10.891,8.403 C9.792,7.305 9.029,6.018 8.738,4.776 C8.471,3.638 8.644,2.692 9.22,2.115 C9.719,1.616 10.407,1.51 10.895,1.51 L10.897,1.51 Z M4.119,15.173 C3.054,14.108 2.47,12.695 2.47,11.191 C2.468,9.685 3.055,8.27 4.119,7.207 L7.4,3.923 C7.412,4.282 7.462,4.661 7.553,5.053 C7.895,6.513 8.775,8.009 10.031,9.265 C11.64,10.871 13.624,11.839 15.371,11.888 L12.086,15.172 C9.892,17.366 6.317,17.368 4.12,15.173 L4.119,15.173 Z M21.426,17.511 C21.426,16.666 22.113,15.977 22.96,15.977 C23.802,15.977 24.484,16.659 24.492,17.498 L21.452,17.742 C21.441,17.666 21.426,17.588 21.426,17.511 Z M30.25,10.87 C29.498,11.135 28.953,11.853 28.953,12.689 C28.953,13.523 29.498,14.243 30.25,14.507 L30.25,17.035 L25.216,17.441 C25.179,16.225 24.183,15.248 22.96,15.248 C21.711,15.248 20.695,16.262 20.695,17.513 C20.695,17.611 20.717,17.707 20.728,17.803 L12.851,18.439 L12.851,16.13 C12.851,16.125 12.848,16.12 12.846,16.115 C12.88,16.085 12.915,16.065 12.946,16.033 L15.582,13.397 C15.889,13.567 16.228,13.665 16.589,13.665 C17.745,13.665 18.684,12.726 18.684,11.571 C18.684,11.182 18.57,10.815 18.375,10.49 C18.54,10.248 18.674,9.987 18.771,9.705 L21.983,9.705 C22.076,10.693 22.86,11.469 23.825,11.469 C24.787,11.469 25.573,10.692 25.667,9.705 L30.252,9.705 L30.252,10.871 L30.25,10.87 Z" id="Shape"></path>
                    <path d="M11.427,6.083 C11.714,6.083 11.958,5.987 12.141,5.806 C12.322,5.626 12.418,5.381 12.418,5.098 C12.418,4.692 12.214,4.241 11.865,3.896 C11.282,3.31 10.397,3.179 9.952,3.62 C9.492,4.081 9.615,4.921 10.23,5.534 C10.577,5.884 11.014,6.084 11.426,6.084 L11.427,6.083 Z M10.383,4.049 C10.464,3.968 10.578,3.953 10.661,3.953 C10.908,3.953 11.204,4.096 11.434,4.326 C11.665,4.556 11.808,4.852 11.808,5.096 C11.808,5.179 11.791,5.294 11.713,5.374 C11.63,5.456 11.511,5.473 11.426,5.473 C11.182,5.473 10.889,5.331 10.66,5.101 C10.267,4.711 10.198,4.233 10.382,4.048 L10.383,4.049 Z" id="Shape"></path>
                    <path d="M14.142,4.899 C14.304,5.061 14.496,5.158 14.652,5.158 C14.747,5.158 14.824,5.126 14.881,5.068 C15.045,4.906 14.976,4.597 14.712,4.331 C14.552,4.169 14.358,4.073 14.201,4.073 C14.088,4.073 14.014,4.12 13.976,4.16 C13.88,4.253 13.862,4.397 13.915,4.558 C13.958,4.672 14.036,4.793 14.141,4.898 L14.142,4.899 Z" id="Shape"></path>
                    <path d="M16.275,7.306 C16.393,7.306 16.503,7.263 16.578,7.184 C16.677,7.088 16.718,6.945 16.692,6.793 C16.671,6.662 16.602,6.533 16.498,6.429 C16.276,6.205 15.927,6.163 15.739,6.346 C15.551,6.537 15.586,6.869 15.819,7.103 C15.949,7.233 16.116,7.306 16.276,7.306 L16.275,7.306 Z" id="Shape"></path>
                    <path d="M13.657,9.391 C13.858,9.391 14.039,9.32 14.17,9.189 C14.49,8.868 14.416,8.293 14.004,7.878 C13.607,7.483 13.005,7.409 12.696,7.716 C12.371,8.038 12.444,8.614 12.857,9.027 C13.09,9.258 13.378,9.391 13.657,9.391 Z M13.123,8.147 C13.144,8.128 13.183,8.126 13.205,8.126 C13.291,8.126 13.436,8.175 13.575,8.311 C13.764,8.501 13.785,8.71 13.737,8.759 C13.717,8.779 13.677,8.781 13.656,8.781 C13.569,8.781 13.422,8.733 13.287,8.596 C13.097,8.407 13.074,8.198 13.123,8.147 L13.123,8.147 Z" id="Shape"></path>
                    <path d="M16.226,9.923 C16.393,9.923 16.548,9.859 16.664,9.742 C16.905,9.501 16.905,9.107 16.664,8.865 C16.43,8.632 16.02,8.63 15.787,8.866 C15.546,9.107 15.546,9.5 15.787,9.742 C15.905,9.859 16.06,9.923 16.225,9.923 L16.226,9.923 Z M16.047,9.123 C16.093,9.075 16.158,9.048 16.224,9.048 C16.293,9.048 16.358,9.075 16.406,9.122 C16.506,9.222 16.506,9.383 16.406,9.484 C16.313,9.579 16.144,9.581 16.047,9.484 C15.949,9.384 15.949,9.223 16.047,9.123 L16.047,9.123 Z" id="Shape"></path>
                </g>
            </g>
        </g>
    </g>
</svg>