<?xml version="1.0" encoding="UTF-8"?>
<svg width="20px" height="32px" viewBox="0 0 20 32" version="1.1" xmlns="http://www.w3.org/2000/svg" xmlns:xlink="http://www.w3.org/1999/xlink">
    <!-- Generator: Sketch 45.2 (43514) - http://www.bohemiancoding.com/sketch -->
    <title>tecnologia</title>
    <desc>Created with Sketch.</desc>
    <defs></defs>
    <g id="Iconos" stroke="none" stroke-width="1" fill="none" fill-rule="evenodd">
        <g id="Tienda---iOS" transform="translate(-38.000000, -1664.000000)" fill-rule="nonzero" fill="#333333">
            <g id="tecnologia" transform="translate(38.000000, 1664.000000)">
                <g id="tecno">
                    <path d="M16.2822222,0.364285714 L3.71444444,0.364285714 C1.97555556,0.364285714 0.561111111,1.80112782 0.561111111,3.56503759 L0.561111111,28.0116541 C0.561111111,29.7778195 1.97666667,31.2135338 3.71444444,31.2135338 L16.2822222,31.2135338 C18.0222222,31.2135338 19.4388889,29.7766917 19.4388889,28.0116541 L19.4388889,3.56503759 C19.4377778,1.8 18.0222222,0.364285714 16.2822222,0.364285714 Z M1.98444444,6.49736842 L18.0155556,6.49736842 L18.0155556,24.993609 L1.98444444,24.993609 L1.98444444,6.49736842 Z M3.71444444,1.80789474 L16.2822222,1.80789474 C17.2388889,1.80789474 18.0144444,2.5962406 18.0144444,3.56503759 L18.0144444,5.5962406 L1.98333333,5.5962406 L1.98333333,3.56503759 C1.98333333,2.59511278 2.76,1.80789474 3.71333333,1.80789474 L3.71444444,1.80789474 Z M16.2822222,29.7710526 L3.71444444,29.7710526 C2.76,29.7710526 1.98444444,28.9815789 1.98444444,28.012782 L1.98444444,25.8969925 L18.0155556,25.8969925 L18.0155556,28.012782 C18.0155556,28.9827068 17.2377778,29.7710526 16.2833333,29.7710526 L16.2822222,29.7710526 Z" id="Shape"></path>
                    <path d="M6.98888889,4.19323308 L13.01,4.19323308 C13.2555556,4.19323308 13.4544444,3.99135338 13.4544444,3.74210526 C13.4544444,3.49285714 13.2555556,3.29097744 13.01,3.29097744 L6.98888889,3.29097744 C6.74333333,3.29097744 6.54444444,3.49285714 6.54444444,3.74210526 C6.54444444,3.99135338 6.74333333,4.19323308 6.98888889,4.19323308 Z" id="Shape"></path>
                    <path d="M4.45,18.9484962 C4.69555556,18.9484962 4.89444444,18.7466165 4.89444444,18.4973684 L4.89444444,11.9537594 C4.89444444,11.7045113 4.69555556,11.5026316 4.45,11.5026316 C4.20444444,11.5026316 4.00555556,11.7045113 4.00555556,11.9537594 L4.00555556,18.4973684 C4.00555556,18.7466165 4.20444444,18.9484962 4.45,18.9484962 Z" id="Shape"></path>
                    <path d="M4.45,20.2387218 C4.19111111,20.2387218 3.98222222,20.4518797 3.98222222,20.7135338 L3.98222222,22.1289474 C3.98222222,22.3917293 4.19222222,22.6037594 4.45,22.6037594 C4.70777778,22.6037594 4.91777778,22.3906015 4.91777778,22.1289474 L4.91777778,20.7135338 C4.91777778,20.4507519 4.70777778,20.2387218 4.45,20.2387218 Z" id="Shape"></path>
                    <path d="M11.1344444,27.8357143 C11.1344444,28.4718045 10.6266667,28.987218 10,28.987218 C9.37333333,28.987218 8.86555556,28.4718045 8.86555556,27.8357143 C8.86555556,27.1996241 9.37333333,26.6842105 10,26.6842105 C10.6266667,26.6842105 11.1344444,27.1996241 11.1344444,27.8357143 Z" id="Shape"></path>
                </g>
            </g>
        </g>
    </g>
</svg>