<?xml version="1.0" encoding="utf-8"?>
<!-- Generator: Adobe Illustrator 21.0.0, SVG Export Plug-In . SVG Version: 6.00 Build 0)  -->
<svg version="1.1" id="Capa_1" xmlns="http://www.w3.org/2000/svg" xmlns:xlink="http://www.w3.org/1999/xlink" x="0px" y="0px"
	 viewBox="0 0 79 72.1" style="enable-background:new 0 0 79 72.1;" xml:space="preserve">
<style type="text/css">
	.st0{fill:#5FA03C;}
	.st1{fill:#FFFFFF;}
	.st2{fill:#F2F2F2;}
	.st3{fill:#369443;}
	.st4{fill:#8EBB37;}
	.st5{fill:#222221;}
	.st6{fill:#94BB1E;}
	.st7{fill:none;stroke:#222221;stroke-width:2.346;stroke-linecap:round;stroke-linejoin:round;stroke-miterlimit:10;}
	.st8{fill:#D9802E;}
	.st9{fill:#F0C830;}
	.st10{opacity:0.68;clip-path:url(#SVGID_2_);}
	.st11{clip-path:url(#SVGID_4_);}
	.st12{clip-path:url(#SVGID_6_);fill:url(#SVGID_7_);}
	.st13{opacity:0.2;clip-path:url(#SVGID_2_);}
	.st14{clip-path:url(#SVGID_9_);}
	.st15{clip-path:url(#SVGID_11_);}
	.st16{filter:url(#Adobe_OpacityMaskFilter);}
	.st17{clip-path:url(#SVGID_13_);}
	.st18{enable-background:new    ;}
	.st19{clip-path:url(#SVGID_13_);fill:url(#SVGID_15_);}
	.st20{clip-path:url(#SVGID_13_);mask:url(#SVGID_14_);}
	.st21{clip-path:url(#SVGID_17_);}
	.st22{clip-path:url(#SVGID_19_);fill:url(#SVGID_20_);}
	.st23{opacity:0.68;clip-path:url(#SVGID_22_);}
	.st24{opacity:0.57;clip-path:url(#SVGID_22_);}
	.st25{clip-path:url(#SVGID_26_);}
	.st26{clip-path:url(#SVGID_28_);fill:#CED0D1;}
	.st27{clip-path:url(#SVGID_22_);fill:#4070B6;}
	.st28{clip-path:url(#SVGID_22_);fill:#DD902F;}
	.st29{fill:#C91862;}
	.st30{fill:none;stroke:#272425;stroke-width:7.564600e-02;stroke-miterlimit:10;}
	.st31{fill:#9CC34D;}
	.st32{fill:#B88844;}
	.st33{fill:#78B552;}
	.st34{fill:#589B52;}
	.st35{fill:#5CA257;}
	
		.st36{fill:none;stroke:#FFFFFF;stroke-width:2.3815;stroke-linecap:round;stroke-linejoin:round;stroke-miterlimit:10;stroke-dasharray:0,4.6879;}
	.st37{fill:none;stroke:#FFFFFF;stroke-width:2.3815;stroke-linecap:round;stroke-linejoin:round;stroke-miterlimit:10;}
	.st38{fill:#AFCB49;}
	.st39{fill:#CE4E80;}
	.st40{fill:#E35100;}
	.st41{fill:#4DAEA9;}
	.st42{fill:#B45696;}
	.st43{fill:#E1DF00;}
	.st44{fill:#76B452;}
	.st45{fill:#E4A612;}
	.st46{fill:#474747;}
	.st47{fill:#B2C633;}
	.st48{fill:#272425;}
	.st49{fill:#5D9E3B;}
	.st50{fill:#F3D33F;}
	.st51{fill:#526D59;}
	.st52{fill:#E2D1B1;}
	.st53{fill:#75398E;}
	.st54{fill:#EBB146;}
	.st55{fill:#F1F1F1;}
	.st56{fill:none;stroke:#5FA03C;stroke-width:1.2441;stroke-linecap:round;stroke-linejoin:round;stroke-miterlimit:10;}
	.st57{fill:none;stroke:#5FA03C;stroke-width:1.6816;stroke-linecap:round;stroke-linejoin:round;stroke-miterlimit:10;}
</style>
<g>
	<circle class="st0" cx="39.5" cy="36.1" r="35.1"/>
	<g>
		<path class="st1" d="M19.2,45.9l3-0.9l-2.5-8l-2.6,0.8l-0.6-2c1.4-0.7,2.3-1.4,3.1-2.3l2.4-0.7L25.4,44l2.6-0.8l0.8,2.6L20,48.5
			L19.2,45.9z"/>
		<path class="st1" d="M30.2,43.4c2.5-4.4,4.3-7.6,3.7-9.5c-0.4-1.4-1.4-1.9-2.6-1.5c-1,0.3-1.6,1.2-2,2.2l-2.3-1.2
			c0.9-1.9,2-3,4-3.6c2.7-0.8,5.1,0.3,5.9,3c0.7,2.3-0.7,5.5-2.2,8.5c0.7-0.3,1.6-0.7,2.3-0.9l2.8-0.9l0.8,2.7l-9.7,3L30.2,43.4z"/>
		<path class="st1" d="M43.3,35.1l-4.7-4.2l3.4-1.1l1.5,1.4c0.5,0.5,1,1.1,1.5,1.6l0.1,0c0-0.7,0.1-1.4,0.2-2.1l0.2-2l3.3-1
			l-1.4,6.5l5,4.2l-3.4,1.1l-1.6-1.5c-0.5-0.5-1.1-1.1-1.6-1.6l-0.1,0c-0.1,0.7-0.2,1.4-0.3,2.1l-0.3,2l-3.3,1L43.3,35.1z"/>
		<path class="st1" d="M53.8,30.5L53.8,30.5c-1.3-0.6-2.4-1.3-2.9-2.8c-0.7-2.4,0.7-4.4,3.2-5.2c2.5-0.8,4.7,0.2,5.4,2.5
			c0.4,1.3-0.1,2.7-0.9,3.6l0,0.1c1.6,0.3,2.9,1,3.5,2.9c0.7,2.2-0.8,4.4-3.7,5.3c-2.8,0.9-5.3-0.1-6-2.3
			C52,32.9,52.7,31.6,53.8,30.5z M57,26.1c-0.3-1.1-1.2-1.6-2.2-1.3c-0.8,0.3-1.4,1-1.1,2.1c0.3,1.1,1.5,1.4,3.1,1.5
			C57.1,27.5,57.2,26.8,57,26.1z M57.8,34.7c1.1-0.3,1.7-1.1,1.3-2.3c-0.4-1.2-1.7-1.3-3.7-1.5c-0.4,0.8-0.7,1.7-0.4,2.5
			C55.5,34.6,56.7,35,57.8,34.7z"/>
	</g>
</g>
</svg>
