<?xml version="1.0" encoding="utf-8"?>
<!-- Generator: Adobe Illustrator 21.0.0, SVG Export Plug-In . SVG Version: 6.00 Build 0)  -->
<svg version="1.1" id="Capa_1" xmlns="http://www.w3.org/2000/svg" xmlns:xlink="http://www.w3.org/1999/xlink" x="0px" y="0px"
	 viewBox="0 0 79 72.1" style="enable-background:new 0 0 79 72.1;" xml:space="preserve">
<style type="text/css">
	.st0{fill:#5FA03C;}
	.st1{fill:#FFFFFF;}
	.st2{fill:#F2F2F2;}
	.st3{fill:#369443;}
	.st4{fill:#8EBB37;}
	.st5{fill:#222221;}
	.st6{fill:#94BB1E;}
	.st7{fill:none;stroke:#222221;stroke-width:2.346;stroke-linecap:round;stroke-linejoin:round;stroke-miterlimit:10;}
	.st8{fill:#D9802E;}
	.st9{fill:#F0C830;}
	.st10{opacity:0.68;clip-path:url(#SVGID_2_);}
	.st11{clip-path:url(#SVGID_4_);}
	.st12{clip-path:url(#SVGID_6_);fill:url(#SVGID_7_);}
	.st13{opacity:0.2;clip-path:url(#SVGID_2_);}
	.st14{clip-path:url(#SVGID_9_);}
	.st15{clip-path:url(#SVGID_11_);}
	.st16{filter:url(#Adobe_OpacityMaskFilter);}
	.st17{clip-path:url(#SVGID_13_);}
	.st18{enable-background:new    ;}
	.st19{clip-path:url(#SVGID_13_);fill:url(#SVGID_15_);}
	.st20{clip-path:url(#SVGID_13_);mask:url(#SVGID_14_);}
	.st21{clip-path:url(#SVGID_17_);}
	.st22{clip-path:url(#SVGID_19_);fill:url(#SVGID_20_);}
	.st23{opacity:0.68;clip-path:url(#SVGID_22_);}
	.st24{opacity:0.57;clip-path:url(#SVGID_22_);}
	.st25{clip-path:url(#SVGID_26_);}
	.st26{clip-path:url(#SVGID_28_);fill:#CED0D1;}
	.st27{clip-path:url(#SVGID_22_);fill:#4070B6;}
	.st28{clip-path:url(#SVGID_22_);fill:#DD902F;}
	.st29{fill:#C91862;}
	.st30{fill:none;stroke:#272425;stroke-width:7.564600e-02;stroke-miterlimit:10;}
	.st31{fill:#9CC34D;}
	.st32{fill:#B88844;}
	.st33{fill:#78B552;}
	.st34{fill:#589B52;}
	.st35{fill:#5CA257;}
	
		.st36{fill:none;stroke:#FFFFFF;stroke-width:2.3815;stroke-linecap:round;stroke-linejoin:round;stroke-miterlimit:10;stroke-dasharray:0,4.6879;}
	.st37{fill:none;stroke:#FFFFFF;stroke-width:2.3815;stroke-linecap:round;stroke-linejoin:round;stroke-miterlimit:10;}
	.st38{fill:#AFCB49;}
	.st39{fill:#CE4E80;}
	.st40{fill:#E35100;}
	.st41{fill:#4DAEA9;}
	.st42{fill:#B45696;}
	.st43{fill:#E1DF00;}
	.st44{fill:#76B452;}
	.st45{fill:#E4A612;}
	.st46{fill:#474747;}
	.st47{fill:#B2C633;}
	.st48{fill:#272425;}
	.st49{fill:#5D9E3B;}
	.st50{fill:#F3D33F;}
	.st51{fill:#526D59;}
	.st52{fill:#E2D1B1;}
	.st53{fill:#75398E;}
	.st54{fill:#EBB146;}
	.st55{fill:#F1F1F1;}
	.st56{fill:none;stroke:#5FA03C;stroke-width:1.2441;stroke-linecap:round;stroke-linejoin:round;stroke-miterlimit:10;}
	.st57{fill:none;stroke:#5FA03C;stroke-width:1.6816;stroke-linecap:round;stroke-linejoin:round;stroke-miterlimit:10;}
</style>
<g>
	<circle class="st0" cx="39.5" cy="36.1" r="35.1"/>
	<g>
		<path class="st1" d="M13.9,43c-1.2-3.9,0.3-6.8,3.5-7.8s6.1,0.6,7.3,4.5c1.2,3.9-0.3,6.9-3.5,7.9S15.1,46.9,13.9,43z M22,40.5
			c-0.7-2.4-2.2-3.5-3.8-3s-2.2,2.2-1.5,4.6c0.7,2.4,2.2,3.6,3.9,3.1S22.7,42.9,22,40.5z"/>
		<path class="st1" d="M30.4,32.7c-0.3,0-0.7,0-1,0.1c-0.7,0.2-0.9,0.7-0.6,1.6L29,35l1.6-0.5l0.7,2.1l-1.6,0.5l2.2,7l-2.7,0.8
			l-2.2-7l-1.2,0.4l-0.6-2l1.2-0.5l-0.2-0.5c-0.6-1.9-0.2-3.8,2.3-4.5c0.8-0.2,1.5-0.3,1.9-0.2L30.4,32.7z"/>
		<path class="st1" d="M35.6,32.7c2.6-0.8,4.5,0.7,5.2,3.2c0.1,0.5,0.2,0.9,0.2,1.2l-5.4,1.7c0.7,1.3,1.8,1.6,3,1.3
			c0.7-0.2,1.2-0.6,1.8-1.2l1.4,1.4c-0.7,0.9-1.8,1.7-2.9,2c-2.6,0.8-5.1-0.3-6.1-3.4C31.9,35.9,33.4,33.4,35.6,32.7z M38.3,36.1
			c-0.3-1-1-1.6-2.1-1.3c-0.8,0.3-1.4,1.1-1.2,2.3L38.3,36.1z"/>
		<path class="st1" d="M41.4,31.2l2.2-0.7l0.7,1.5l0.1,0c0.3-1.4,1.1-2.3,2-2.6c0.5-0.2,0.8-0.2,1.1-0.2l0.3,2.5c-0.4,0-0.7,0-1,0.2
			c-0.7,0.2-1.4,0.9-1.5,2.3l1.6,5.3l-2.7,0.8L41.4,31.2z"/>
		<path class="st1" d="M49.7,30.9l-1.2,0.4l-0.6-2l1.4-0.5l-0.4-2.5l2.2-0.7l0.7,2.4l2.2-0.7l0.6,2.1l-2.2,0.7l1.1,3.7
			c0.3,1,0.9,1.3,1.6,1.1c0.3-0.1,0.6-0.3,0.8-0.4l1,1.8c-0.4,0.3-1,0.7-1.9,1c-2.3,0.7-3.6-0.4-4.2-2.6L49.7,30.9z"/>
		<path class="st1" d="M61.3,28.6c-0.3-0.8-0.9-1.2-1.8-0.9c-0.8,0.2-1.4,0.8-2.2,1.6l-1.5-1.5c0.9-1.1,2.1-1.9,3.5-2.4
			c2.3-0.7,4,0.2,4.9,3l1.6,5.2l-2.2,0.7l-0.5-0.9l-0.1,0c-0.6,0.9-1.3,1.7-2.3,2c-1.7,0.5-3.1-0.4-3.5-1.9
			C56.6,31.6,57.8,30.1,61.3,28.6z M61,33.1c0.6-0.2,0.9-0.6,1.3-1.2l-0.5-1.6c-1.8,0.9-2.3,1.6-2.1,2.3
			C59.9,33.1,60.4,33.3,61,33.1z"/>
	</g>
</g>
</svg>
