<?xml version="1.0" encoding="utf-8"?>
<!-- Generator: Adobe Illustrator 21.0.0, SVG Export Plug-In . SVG Version: 6.00 Build 0)  -->
<svg version="1.1" id="Capa_1" xmlns="http://www.w3.org/2000/svg" xmlns:xlink="http://www.w3.org/1999/xlink" x="0px" y="0px"
	 viewBox="0 0 79 72.1" style="enable-background:new 0 0 79 72.1;" xml:space="preserve">
<style type="text/css">
	.st0{fill:#5FA03C;}
	.st1{fill:#FFFFFF;}
	.st2{fill:#F2F2F2;}
	.st3{fill:#369443;}
	.st4{fill:#8EBB37;}
	.st5{fill:#222221;}
	.st6{fill:#94BB1E;}
	.st7{fill:none;stroke:#222221;stroke-width:2.346;stroke-linecap:round;stroke-linejoin:round;stroke-miterlimit:10;}
	.st8{fill:#D9802E;}
	.st9{fill:#F0C830;}
	.st10{opacity:0.68;clip-path:url(#SVGID_2_);}
	.st11{clip-path:url(#SVGID_4_);}
	.st12{clip-path:url(#SVGID_6_);fill:url(#SVGID_7_);}
	.st13{opacity:0.2;clip-path:url(#SVGID_2_);}
	.st14{clip-path:url(#SVGID_9_);}
	.st15{clip-path:url(#SVGID_11_);}
	.st16{filter:url(#Adobe_OpacityMaskFilter);}
	.st17{clip-path:url(#SVGID_13_);}
	.st18{enable-background:new    ;}
	.st19{clip-path:url(#SVGID_13_);fill:url(#SVGID_15_);}
	.st20{clip-path:url(#SVGID_13_);mask:url(#SVGID_14_);}
	.st21{clip-path:url(#SVGID_17_);}
	.st22{clip-path:url(#SVGID_19_);fill:url(#SVGID_20_);}
	.st23{opacity:0.68;clip-path:url(#SVGID_22_);}
	.st24{opacity:0.57;clip-path:url(#SVGID_22_);}
	.st25{clip-path:url(#SVGID_26_);}
	.st26{clip-path:url(#SVGID_28_);fill:#CED0D1;}
	.st27{clip-path:url(#SVGID_22_);fill:#4070B6;}
	.st28{clip-path:url(#SVGID_22_);fill:#DD902F;}
	.st29{fill:#C91862;}
	.st30{fill:none;stroke:#272425;stroke-width:7.564600e-02;stroke-miterlimit:10;}
	.st31{fill:#9CC34D;}
	.st32{fill:#B88844;}
	.st33{fill:#78B552;}
	.st34{fill:#589B52;}
	.st35{fill:#5CA257;}
	
		.st36{fill:none;stroke:#FFFFFF;stroke-width:2.3815;stroke-linecap:round;stroke-linejoin:round;stroke-miterlimit:10;stroke-dasharray:0,4.6879;}
	.st37{fill:none;stroke:#FFFFFF;stroke-width:2.3815;stroke-linecap:round;stroke-linejoin:round;stroke-miterlimit:10;}
	.st38{fill:#AFCB49;}
	.st39{fill:#CE4E80;}
	.st40{fill:#E35100;}
	.st41{fill:#4DAEA9;}
	.st42{fill:#B45696;}
	.st43{fill:#E1DF00;}
	.st44{fill:#76B452;}
	.st45{fill:#E4A612;}
	.st46{fill:#474747;}
	.st47{fill:#B2C633;}
	.st48{fill:#272425;}
	.st49{fill:#5D9E3B;}
	.st50{fill:#F3D33F;}
	.st51{fill:#526D59;}
	.st52{fill:#E2D1B1;}
	.st53{fill:#75398E;}
	.st54{fill:#EBB146;}
	.st55{fill:#F1F1F1;}
	.st56{fill:none;stroke:#5FA03C;stroke-width:1.2441;stroke-linecap:round;stroke-linejoin:round;stroke-miterlimit:10;}
	.st57{fill:none;stroke:#5FA03C;stroke-width:1.6816;stroke-linecap:round;stroke-linejoin:round;stroke-miterlimit:10;}
</style>
<g>
	<path class="st35" d="M38.6,70.2c18.9,0,34.2-15.3,34.2-34.2c0-18.9-15.3-34.2-34.2-34.2C19.7,1.9,4.4,17.2,4.4,36.1
		C4.4,54.9,19.7,70.2,38.6,70.2"/>
	<line class="st36" x1="22.9" y1="53.3" x2="15.9" y2="53.3"/>
	<path class="st37" d="M15.4,53.3L15.4,53.3 M23.8,53.3L23.8,53.3"/>
	<line class="st36" x1="60.9" y1="53.3" x2="54" y2="53.3"/>
	<path class="st37" d="M53.5,53.3L53.5,53.3 M61.9,53.3L61.9,53.3"/>
	<g>
		<path class="st38" d="M64.8,26c5.4,0,9.8-4.4,9.8-9.8c0-5.4-4.4-9.8-9.8-9.8c-5.4,0-9.8,4.4-9.8,9.8C54.9,21.6,59.3,26,64.8,26"/>
		<path class="st39" d="M64.8,12.8l0.9-0.9c0.3-0.3,0.6-0.5,1-0.7c0.4-0.2,0.8-0.2,1.2-0.2c0.8,0,1.6,0.3,2.2,0.9
			c0.6,0.6,0.9,1.3,0.9,2.2c0,0.4-0.1,0.8-0.2,1.2c-0.2,0.4-0.4,0.7-0.7,1c-1.7,1.7-3.3,3.3-5,5c-0.1,0.1-0.2,0.1-0.3,0.1
			c-0.1,0-0.2,0-0.3-0.1c-1.7-1.7-3.3-3.3-5-5c-0.3-0.3-0.5-0.6-0.7-1c-0.2-0.4-0.2-0.8-0.2-1.2c0-0.8,0.3-1.6,0.9-2.2
			c0.6-0.6,1.3-0.9,2.2-0.9c0.4,0,0.8,0.1,1.2,0.2c0.4,0.2,0.7,0.4,1,0.7L64.8,12.8z"/>
	</g>
	<path class="st1" d="M50.2,20.4c0.1-0.1,0.2-0.2,0.2-0.4c0-0.3-0.2-0.6-0.6-0.6c-0.2,0-0.3,0-0.4,0.1c-0.3,0.2-0.6,0.3-1,0.3
		c-0.7,0-1.1-0.3-1.3-1h2.9c0.4,0,0.7-0.3,0.7-0.7c0-1.1-0.8-2.5-2.5-2.5c-1.5,0-2.6,1.2-2.6,2.7v0c0,1.6,1.1,2.7,2.7,2.7
		C49.2,21,49.7,20.8,50.2,20.4 M47.1,17.9c0.1-0.7,0.5-1.1,1.1-1.1c0.6,0,1,0.4,1.1,1.1H47.1z M37,20.2c0,0.4,0.3,0.7,0.7,0.7
		s0.7-0.3,0.7-0.7V18c0-0.7,0.3-1.1,0.9-1.1c0.5,0,0.9,0.4,0.9,1.1v2.2c0,0.4,0.3,0.7,0.7,0.7s0.7-0.3,0.7-0.7V18
		c0-0.7,0.3-1.1,0.9-1.1c0.5,0,0.9,0.4,0.9,1.1v2.2c0,0.4,0.3,0.7,0.7,0.7c0.4,0,0.7-0.3,0.7-0.7v-2.7c0-1.2-0.7-1.9-1.7-1.9
		c-0.7,0-1.2,0.3-1.7,0.8c-0.3-0.5-0.8-0.8-1.5-0.8c-0.7,0-1.2,0.4-1.5,0.8v-0.1c0-0.4-0.3-0.7-0.7-0.7S37,16,37,16.4V20.2z
		 M33.4,19.8c-0.8,0-1.4-0.7-1.4-1.4v0c0-0.8,0.5-1.4,1.3-1.4c0.8,0,1.4,0.7,1.4,1.4v0C34.8,19.1,34.3,19.8,33.4,19.8 M33.4,21
		c1.6,0,2.8-1.2,2.8-2.7v0c0-1.5-1.2-2.7-2.8-2.7c-1.6,0-2.8,1.2-2.8,2.7v0C30.6,19.8,31.8,21,33.4,21 M28.2,21
		c0.8,0,1.4-0.3,1.8-0.7c0.1-0.1,0.2-0.3,0.2-0.5c0-0.3-0.3-0.6-0.6-0.6c-0.2,0-0.3,0.1-0.4,0.1c-0.3,0.2-0.6,0.4-1,0.4
		c-0.8,0-1.3-0.6-1.3-1.4v0c0-0.8,0.5-1.4,1.3-1.4c0.4,0,0.7,0.1,0.9,0.3c0.1,0.1,0.2,0.1,0.4,0.1c0.4,0,0.7-0.3,0.7-0.7
		c0-0.2-0.1-0.4-0.2-0.5c-0.4-0.4-1-0.6-1.8-0.6c-1.6,0-2.7,1.2-2.7,2.7v0C25.5,19.8,26.6,21,28.2,21"/>
	<path class="st1" d="M26.6,42.5c0.4-0.2,1.9-0.6,1.9-0.8c0,0-0.8,0.1-0.9,0.1c0-0.1,0.7-0.4,0.7-0.5c-0.1-0.1-0.1-0.4-0.2-0.5
		c-0.1-0.1-0.1-0.2-0.2-0.2l-13.4,3.2c0,0-0.1-0.1-0.2-0.2c0.8-2,1.6-4,2.4-6c0.8-1.9,1.6-3.9,2.5-5.9c0.2-0.5,0.5-1.1,0.9-1.8
		c0.4-0.7,0.7-1.4,1.1-2c0.4-0.6,0.7-1.2,0.9-1.7c0.3-0.5,0.4-0.7,0.4-0.7c0-0.1,0-0.3-0.1-0.4c-0.1-0.2-0.2-0.3-0.4-0.5
		c-0.2-0.2-0.3-0.3-0.5-0.5c-0.2-0.1-0.3-0.2-0.5-0.2c-0.2,0-0.5,0.3-0.9,1c-0.4,0.6-0.8,1.5-1.3,2.5c-0.5,1-1.1,2.2-1.6,3.6
		c-0.6,1.3-1.2,2.7-1.8,4.1c-0.6,1.4-1.2,2.8-1.7,4.1c-0.5,1.4-1,2.6-1.4,3.7c-0.4,1.1-0.7,2-1,2.6c-0.2,0.7-0.4,1.1-0.4,1.1
		c0,0.1,0,0.2,0.1,0.4c0.1,0.2,0.2,0.4,0.3,0.6c0.1,0.2,0.3,0.4,0.4,0.5c0.1,0.2,0.3,0.2,0.4,0.2c0.2,0,0.4-0.1,0.6-0.2
		c0.2-0.2,0.3-0.4,0.5-0.6c0.2-0.2,0.3-0.5,0.5-0.7c0.2-0.2,0.4-0.4,0.7-0.6 M60.1,37.3c-0.3,0.5-0.7,1.1-1.2,1.6
		c-0.4,0.5-0.9,1-1.4,1.4c-0.5,0.4-0.9,0.7-1.2,0.8c0-0.1,0.1-0.2,0.1-0.4c0.1-0.2,0.1-0.3,0.2-0.5c0.1-0.2,0.2-0.4,0.3-0.6
		c0.3-0.5,0.6-0.9,0.9-1.3c0.3-0.4,0.6-0.8,0.9-1.1c0.3-0.3,0.6-0.6,0.9-0.8c0.3-0.2,0.5-0.4,0.7-0.5c0,0,0.2-0.1,0.3,0
		C60.8,36,60.5,36.8,60.1,37.3 M64.3,44.7c0.1-0.3,0.5-0.7,0.7-0.9c0.2-0.2,0.4-0.4,0.5-0.6c0.2-0.2,0.3-0.3,0.5-0.5
		c0.1-0.2,0.2-0.4,0.2-0.7c0-0.1-0.1-0.3-0.2-0.3c-0.1-0.1-0.2-0.1-0.3-0.1c-0.1,0.2-0.4,0.4-0.8,0.7c-0.4,0.3-0.8,0.6-1.3,0.9
		c-0.5,0.3-1,0.7-1.6,1c-0.6,0.4-1.2,0.7-1.7,1c-0.6,0.3-1.1,0.5-1.6,0.7c-0.5,0.2-0.9,0.3-1.2,0.3c-0.3,0-0.6-0.1-0.8-0.2
		c-0.2-0.1-0.4-0.3-0.6-0.5c-0.1-0.2-0.3-0.5-0.3-0.7c-0.1-0.3-0.1-0.5-0.1-0.8c0-0.1,0-0.2,0-0.3c0-0.1,0-0.3,0.1-0.5
		c0-0.2,0.1-0.3,0.1-0.5c0-0.2,0.1-0.3,0.1-0.4c0.2,0.2,0.5,0.4,0.8,0.6c0.3,0.2,0.5,0.3,0.7,0.3c0.1,0,0.3-0.1,0.5-0.2
		c0.2-0.2,0.5-0.4,0.8-0.6c0.3-0.3,0.6-0.6,0.9-0.9c0.3-0.3,0.6-0.6,0.9-0.9c0.3-0.3,0.5-0.5,0.7-0.8c0.2-0.2,0.3-0.4,0.4-0.5
		c0.1-0.2,0.3-0.5,0.4-0.7c0.2-0.3,0.3-0.5,0.4-0.8c0.1-0.3,0.3-0.6,0.4-0.9c0.1-0.3,0.1-0.6,0.1-0.9c0-0.1-0.1-0.3-0.2-0.5
		c-0.1-0.2-0.3-0.4-0.5-0.6c-0.2-0.2-0.4-0.3-0.6-0.5c-0.2-0.1-0.4-0.2-0.6-0.2c-0.1,0-0.1,0-0.1,0c0,0,0,0,0,0c0,0,0,0,0,0
		c0,0,0.1,0-0.1,0c-0.1,0-0.3,0.1-0.4,0c-0.1-0.1-0.2-0.2-0.3-0.2c-0.5,0-0.9,0.2-1.5,0.5c-0.5,0.3-1,0.7-1.5,1.2
		c-0.5,0.5-0.9,1.1-1.4,1.8c-0.4,0.7-0.8,1.3-1.2,2c-0.3,0.7-0.6,1.4-0.8,2.1c-0.2,0.7-0.3,1.3-0.3,1.8c0,0.2,0,0.5,0.1,0.9
		c0.1,0.4,0.2,0.7,0.4,1.1c0.2,0.4,0.5,0.7,0.8,1.1c0.3,0.3,0.8,0.6,1.3,0.8c0.5,0.2,1.2,0.3,1.9,0.3c0.7,0,1.6-0.2,2.5-0.5
		c0.2-0.1,0.4-0.2,0.5-0.4c0.1-0.2,0.2-0.3,0.3-0.3c0.2-0.1,0.4-0.2,0.6-0.2c0.2,0,0.4-0.1,0.6-0.2c0.3-0.2,0.5-0.3,0.7-0.5
		 M55,35.8c-0.2-0.2-0.4-0.4-0.7-0.6c-0.3-0.2-0.5-0.3-0.8-0.4c-0.3-0.1-0.5-0.1-0.7-0.2c-0.3,0-0.7,0.1-1.2,0.3
		c-0.5,0.2-1,0.4-1.4,0.7c-0.5,0.3-0.9,0.6-1.3,1c-0.4,0.4-0.6,0.7-0.8,1c0-0.1,0-0.3,0.1-0.5c0.1-0.2,0.2-0.4,0.2-0.6
		c0.1-0.2,0.2-0.4,0.3-0.5c0.1-0.2,0.1-0.3,0.1-0.3c0-0.1,0-0.1-0.1-0.3c-0.1-0.1-0.2-0.3-0.4-0.4c-0.2-0.1-0.3-0.2-0.5-0.3
		c-0.2-0.1-0.4-0.2-0.5-0.2c-0.1,0-0.2,0.1-0.3,0.2c-0.1,0.2-0.2,0.3-0.2,0.4c-0.2,0.6-0.4,1.2-0.6,1.9c-0.2,0.7-0.5,1.5-0.7,2.2
		c-0.2,0.8-0.5,1.5-0.7,2.2c-0.2,0.7-0.4,1.4-0.6,1.9c-0.2,0.6-0.3,1-0.4,1.4c-0.1,0.4-0.2,0.5-0.2,0.6c0,0.1,0,0.2,0.1,0.4
		c0.1,0.2,0.2,0.3,0.4,0.5c0.1,0.2,0.3,0.3,0.5,0.4c0.2,0.1,0.3,0.2,0.4,0.2c0.1,0,0.3,0,0.4-0.1c0.1,0,0.2-0.2,0.3-0.4
		c0.1-0.2,0.2-0.5,0.3-1c0.1-0.4,0.3-0.9,0.4-1.3c0.2-0.5,0.3-0.9,0.5-1.3c0.1-0.4,0.3-0.7,0.3-0.9c0.4-0.9,0.8-1.6,1.1-2.1
		c0.4-0.5,0.7-1,1.2-1.5c0.4-0.5,0.9-0.9,1.4-1.2c0.5-0.3,1.1-0.6,1.7-0.7h0.2c0.1,0,0.1,0.1,0.1,0.1c0,0,0,0.1,0,0.2
		c0,0.1,0,0.2-0.1,0.4c-0.1,0.2-0.1,0.4-0.2,0.6c-0.1,0.2-0.1,0.4-0.2,0.6c-0.1,0.2-0.1,0.3-0.1,0.4c0,0.1,0,0.2,0,0.3
		c0,0.1,0.1,0.1,0.2,0.1c0.2,0,0.4,0,0.7,0c0.1,0,0.3,0,0.5-0.1c0.1-0.1,0.3-0.2,0.5-0.4c0.2-0.2,0.3-0.5,0.5-0.7
		c0.1-0.3,0.3-0.5,0.4-0.8c0.1-0.3,0.2-0.4,0.2-0.6C55.2,36.3,55.1,36,55,35.8 M42.4,37.4c0,0.2-0.1,0.5-0.1,0.8
		c-0.1,0.3-0.1,0.6-0.2,0.8c-0.1,0.3-0.2,0.5-0.3,0.8c-0.2,0.4-0.6,1-1,1.7c-0.5,0.7-1,1.4-1.6,2c-0.6,0.6-1.2,1.2-1.8,1.7
		c-0.6,0.5-1.1,0.7-1.5,0.7c-0.3,0-0.5-0.1-0.5-0.2c0-0.2-0.1-0.3-0.1-0.6c0-0.2,0-0.5,0.1-0.8c0.1-0.3,0.2-0.6,0.3-0.9
		c0.1-0.3,0.3-0.6,0.5-0.9c0.2-0.3,0.4-0.5,0.6-0.8c0-0.3,0.1-0.6,0.3-1.1c0.2-0.4,0.5-0.9,0.8-1.4c0.3-0.5,0.7-0.9,1-1.4
		c0.4-0.4,0.7-0.8,0.9-1.1c0.1-0.1,0.2-0.2,0.4-0.3c0.2-0.1,0.3-0.2,0.5-0.3c0.2-0.1,0.4-0.2,0.5-0.2c0.2-0.1,0.3-0.1,0.4-0.1
		c0.1,0,0.3,0.1,0.4,0.3c0.1,0.2,0.2,0.4,0.3,0.6C42.4,37,42.5,37.2,42.4,37.4 M39.6,45.8c0,0,0.1,0.1,0.2,0.1
		c0.1,0,0.2-0.1,0.5-0.4c0.3-0.3,0.6-0.5,0.9-0.9c0.3-0.3,0.6-0.7,0.9-1c0.3-0.3,0.4-0.6,0.5-0.7c0.1-0.1,0.2-0.3,0.4-0.6
		c0.2-0.3,0.4-0.7,0.6-1.2c0.2-0.5,0.4-1,0.5-1.5c0.1-0.6,0.2-1.1,0.2-1.7v-0.5c0-0.1,0-0.3,0-0.4c0-0.1,0-0.3-0.1-0.5
		c0-0.2-0.1-0.4-0.2-0.6c-0.1-0.2-0.2-0.4-0.5-0.6c-0.2-0.2-0.5-0.4-0.7-0.6c-0.3-0.2-0.6-0.3-0.9-0.5c-0.3-0.1-0.6-0.2-0.8-0.2
		c-0.1,0-0.2,0-0.3,0.1c-0.1,0-0.3,0.1-0.5,0.2c-0.2,0.1-0.3,0.2-0.5,0.2c-0.2,0.1-0.3,0.2-0.4,0.3c-0.1-0.1-0.1-0.1-0.1-0.1
		c0,0,0,0,0-0.1l3.3-8.8c0-0.1-0.1-0.2-0.2-0.3c-0.1-0.1-0.3-0.2-0.4-0.3c-0.2-0.1-0.3-0.2-0.5-0.2c-0.2-0.1-0.3-0.1-0.3-0.1
		c-0.1,0-0.2,0-0.2,0c-0.2,0-0.3,0.1-0.3,0.2c-0.1,0.3-0.2,0.5-0.2,0.8c-0.1,0.2-0.1,0.5-0.1,0.8c-0.1,0.1-0.2,0.2-0.3,0.3
		c-0.1,0.1-0.2,0.3-0.2,0.4c-0.1,0.3-0.3,0.9-0.6,1.6c-0.3,0.8-0.6,1.6-1,2.5c-0.4,0.9-0.8,1.9-1.2,2.9c-0.4,1-0.8,1.9-1.1,2.7
		c-0.3,0.8-0.6,1.5-0.8,2.1c-0.2,0.5-0.2,0.6-0.5,1.3c-0.4,0.7-0.7,1.3-0.7,1.7c0.1,0.4-0.3,0.8-0.4,1.2c-0.1,0.4-0.1,0.8-0.1,1
		c0,0.3,0.1,0.6,0.3,0.9c0.2,0.3,0.4,0.6,0.7,0.9c0.3,0.3,0.6,0.5,0.9,0.7c0.3,0.2,0.6,0.3,0.9,0.3c0.1,0,0.2,0,0.3,0
		c0.1,0,0.2,0,0.3,0c0.2,0,0.6-0.1,0.9-0.3c0.4-0.2,0.7-0.3,0.9-0.4c0,0,0.1-0.1,0.2-0.2c0.1-0.1,0.2-0.2,0.2-0.3
		c0.1-0.1,0.2-0.2,0.3-0.3 M32.7,45.4c0,0,0.2-0.2,0.5-0.6c0.3-0.4,0.7-0.8,1-1.2c0.4-0.4,0.7-0.9,1-1.2c0.3-0.4,0.5-0.7,0.5-0.8
		c0,0,0-0.1,0-0.2c0-0.1,0-0.2-0.1-0.2c0-0.1-0.1-0.2-0.1-0.2c-0.1-0.1-0.1-0.1-0.3-0.1c0,0-0.4-1-0.6-0.5c-0.2,0.4-0.3,0.7-0.5,1.1
		c-0.4,0.3-0.7,0.7-1.7,1.7c-0.5,0.4-1,0.8-1.5,1.1c-0.5,0.3-0.9,0.6-1.3,0.8c-0.4,0.2-0.7,0.3-0.9,0.3c-0.2,0-0.3-0.1-0.4-0.2
		c-0.1-0.1-0.1-0.3-0.2-0.4c0-0.2,0-0.3,0-0.5v-0.4c0-0.3,0.1-0.6,0.2-1.1c0.1-0.4,0.3-0.9,0.5-1.4c0.2-0.5,0.4-1,0.6-1.5
		c0.2-0.5,0.4-1,0.6-1.4c0.2-0.4,0.4-0.9,0.7-1.4c0-0.1-0.1-0.2-0.2-0.4c-0.1-0.1-0.3-0.3-0.4-0.4c-0.2-0.1-0.3-0.3-0.5-0.4
		c-0.2-0.1-0.3-0.2-0.5-0.2c-0.2,0-0.4,0.1-0.6,0.5c-0.2,0.3-0.4,0.8-0.7,1.3c-0.2,0.5-0.5,1.1-0.7,1.6c-0.2,0.6-0.4,1.2-0.6,1.7
		c-0.2,0.5-0.3,1-0.4,1.3c-0.1,0.4-0.2,0.6-0.2,0.6c0,0.5,0,1,0.2,1.5c0.2,0.5,0.4,1,0.7,1.5c0.3,0.4,0.7,0.8,1.2,1.1
		c0.5,0.3,1,0.5,1.6,0.5c0.2,0,0.5-0.1,0.8-0.2c0.3-0.2,0.6-0.4,0.9-0.6"/>
	<path class="st1" d="M32.3,32.2c-0.5,0-1.2,0.1-1.4,0.5c-0.3,0.3-0.4,0.6-0.5,0.8c0,0.2,0,0.5,0,0.7c0,0.2,0.2,0.5,0.7,0.6
		c0.1,0,0.1,0,0.2,0c0.2,0,0.5-0.1,0.7-0.2c0.4-0.2,0.6-0.5,0.7-0.8c0.1-0.3,0.1-0.6,0.1-0.9c0-0.2-0.3-0.7-0.6-0.8"/>
</g>
</svg>
