<?xml version="1.0" encoding="utf-8"?>
<!-- Generator: Adobe Illustrator 21.0.0, SVG Export Plug-In . SVG Version: 6.00 Build 0)  -->
<svg version="1.1" id="Capa_1" xmlns="http://www.w3.org/2000/svg" xmlns:xlink="http://www.w3.org/1999/xlink" x="0px" y="0px"
	 viewBox="0 0 79 72.1" style="enable-background:new 0 0 79 72.1;" xml:space="preserve">
<style type="text/css">
	.st0{fill:#5FA03C;}
	.st1{fill:#FFFFFF;}
	.st2{fill:#F2F2F2;}
	.st3{fill:#369443;}
	.st4{fill:#8EBB37;}
	.st5{fill:#222221;}
	.st6{fill:#94BB1E;}
	.st7{fill:none;stroke:#222221;stroke-width:2.346;stroke-linecap:round;stroke-linejoin:round;stroke-miterlimit:10;}
	.st8{fill:#D9802E;}
	.st9{fill:#F0C830;}
	.st10{opacity:0.68;clip-path:url(#SVGID_2_);}
	.st11{clip-path:url(#SVGID_4_);}
	.st12{clip-path:url(#SVGID_6_);fill:url(#SVGID_7_);}
	.st13{opacity:0.2;clip-path:url(#SVGID_2_);}
	.st14{clip-path:url(#SVGID_9_);}
	.st15{clip-path:url(#SVGID_11_);}
	.st16{filter:url(#Adobe_OpacityMaskFilter);}
	.st17{clip-path:url(#SVGID_13_);}
	.st18{enable-background:new    ;}
	.st19{clip-path:url(#SVGID_13_);fill:url(#SVGID_15_);}
	.st20{clip-path:url(#SVGID_13_);mask:url(#SVGID_14_);}
	.st21{clip-path:url(#SVGID_17_);}
	.st22{clip-path:url(#SVGID_19_);fill:url(#SVGID_20_);}
	.st23{opacity:0.68;clip-path:url(#SVGID_22_);}
	.st24{opacity:0.57;clip-path:url(#SVGID_22_);}
	.st25{clip-path:url(#SVGID_26_);}
	.st26{clip-path:url(#SVGID_28_);fill:#CED0D1;}
	.st27{clip-path:url(#SVGID_22_);fill:#4070B6;}
	.st28{clip-path:url(#SVGID_22_);fill:#DD902F;}
	.st29{fill:#C91862;}
	.st30{fill:none;stroke:#272425;stroke-width:7.564600e-02;stroke-miterlimit:10;}
	.st31{fill:#9CC34D;}
	.st32{fill:#B88844;}
	.st33{fill:#78B552;}
	.st34{fill:#589B52;}
	.st35{fill:#5CA257;}
	
		.st36{fill:none;stroke:#FFFFFF;stroke-width:2.3815;stroke-linecap:round;stroke-linejoin:round;stroke-miterlimit:10;stroke-dasharray:0,4.6879;}
	.st37{fill:none;stroke:#FFFFFF;stroke-width:2.3815;stroke-linecap:round;stroke-linejoin:round;stroke-miterlimit:10;}
	.st38{fill:#AFCB49;}
	.st39{fill:#CE4E80;}
	.st40{fill:#E35100;}
	.st41{fill:#4DAEA9;}
	.st42{fill:#B45696;}
	.st43{fill:#E1DF00;}
	.st44{fill:#76B452;}
	.st45{fill:#E4A612;}
	.st46{fill:#474747;}
	.st47{fill:#B2C633;}
	.st48{fill:#272425;}
	.st49{fill:#5D9E3B;}
	.st50{fill:#F3D33F;}
	.st51{fill:#526D59;}
	.st52{fill:#E2D1B1;}
	.st53{fill:#75398E;}
	.st54{fill:#EBB146;}
	.st55{fill:#F1F1F1;}
	.st56{fill:none;stroke:#5FA03C;stroke-width:1.2441;stroke-linecap:round;stroke-linejoin:round;stroke-miterlimit:10;}
	.st57{fill:none;stroke:#5FA03C;stroke-width:1.6816;stroke-linecap:round;stroke-linejoin:round;stroke-miterlimit:10;}
</style>
<g>
	<path class="st55" d="M4.2,61.2c10.9,4.7,22.6,7.3,34.8,7.3c12.2,0,24-2.6,34.9-7.3c0.6-0.4,0.9-0.7,0.9-0.7V3.7H4.2V61.2z"/>
	<g class="st18">
		<path class="st0" d="M11.7,35.1c2.3,0,3.9,1.6,3.9,3.8c0,2.2-1.7,3.8-3.9,3.8H8.6v-7.6H11.7z M9.9,41.5h1.9c1.5,0,2.6-1.1,2.6-2.6
			c0-1.5-1.2-2.6-2.6-2.6H9.9V41.5z"/>
		<path class="st0" d="M18.6,36.2v2h3.7v1.1h-3.7v2.1h4.3v1.1h-5.5v-7.6h5.4v1.1H18.6z"/>
		<path class="st0" d="M29.8,35.8l-0.5,1.1c-0.8-0.5-1.6-0.7-2.2-0.7c-0.7,0-1.2,0.3-1.2,0.8c0,1.7,4.1,0.8,4.1,3.5
			c0,1.4-1.2,2.2-2.9,2.2c-1.2,0-2.3-0.5-3.1-1.2l0.6-1.1c0.8,0.7,1.8,1.1,2.6,1.1c0.9,0,1.4-0.3,1.4-0.9c0-1.7-4.1-0.7-4.1-3.4
			c0-1.3,1.1-2.1,2.8-2.1C28.1,35,29.1,35.3,29.8,35.8z"/>
		<path class="st0" d="M34.6,35.1c1.9,0,3,0.9,3,2.6c0,1.7-1.1,2.7-3,2.7h-1.7v2.3h-1.3v-7.6H34.6z M32.9,39.2h1.7
			c1.2,0,1.8-0.5,1.8-1.5c0-1-0.7-1.5-1.8-1.5h-1.7V39.2z"/>
		<path class="st0" d="M39.8,40.9L39,42.6h-1.3l3.3-7.6h1.3l3.3,7.6h-1.4l-0.7-1.7H39.8z M41.7,36.4l-1.4,3.4h2.9L41.7,36.4z"/>
		<path class="st0" d="M53,36.2l-0.7,0.9c-0.6-0.6-1.3-1-2.1-1c-1.5,0-2.7,1.2-2.7,2.7s1.2,2.7,2.7,2.7c0.8,0,1.5-0.3,2.1-0.9
			l0.8,0.8c-0.8,0.8-1.9,1.2-2.9,1.2c-2.2,0-3.9-1.7-3.9-3.8c0-2.1,1.7-3.8,4-3.8C51.2,35,52.2,35.5,53,36.2z"/>
		<path class="st0" d="M59.8,42.6v-3.1h-4v3.1h-1.3v-7.6h1.3v3.3h4v-3.3h1.3v7.6H59.8z"/>
		<path class="st0" d="M70.7,38.8c0,2.2-1.8,3.8-4,3.8c-2.3,0-4-1.7-4-3.8c0-2.2,1.8-3.8,4-3.8C69,35,70.7,36.7,70.7,38.8z M64,38.8
			c0,1.5,1.2,2.7,2.7,2.7s2.7-1.2,2.7-2.7c0-1.5-1.2-2.7-2.7-2.7C65.3,36.2,64,37.3,64,38.8z"/>
	</g>
	<g class="st18">
		<path class="st0" d="M37.3,50.7c-0.5-0.5-1-0.7-1.5-0.7c-0.6,0-0.9,0.2-0.9,0.7c0,1.1,3.7,1.2,3.7,3.8c0,1.4-0.7,2.5-2.2,2.9v1.5
			h-1.6v-1.4c-0.8-0.1-1.8-0.4-2.6-1.1l1.1-1.7c0.8,0.6,1.4,0.8,2,0.8c0.7,0,1-0.2,1-0.8c0-1.2-3.7-1.3-3.7-3.8
			c0-1.5,0.8-2.5,2.2-2.8v-1.5h1.6v1.5c0.9,0.1,1.6,0.6,2.2,1.2L37.3,50.7z"/>
		<path class="st0" d="M40.5,55.3h2v-4.7h-1.7v-1.5c1-0.2,1.7-0.5,2.4-0.9h1.8v7.1h1.6v2h-6.1V55.3z"/>
	</g>
	<g>
		<line class="st56" x1="28.4" y1="28.3" x2="24.9" y2="28.3"/>
		<path class="st0" d="M36.3,27.8c0,1.1-0.9,2-2,2c-1.1,0-2-0.9-2-2c0-1.1,0.9-2,2-2C35.4,25.8,36.3,26.7,36.3,27.8z"/>
		<path class="st57" d="M26.3,15.5v12.7h4.1c0-0.2,0-0.3,0-0.5c0-2.2,1.7-3.9,3.9-3.9c2.2,0,3.9,1.7,3.9,3.9c0,0.2,0,0.3,0,0.5h4.1
			V12.6h-16V15.5"/>
		<path class="st0" d="M53.7,27.8c0,1.1-0.9,2-2,2c-1.1,0-2-0.9-2-2c0-1.1,0.9-2,2-2C52.8,25.8,53.7,26.7,53.7,27.8z"/>
		<path class="st57" d="M47.7,27.8c0-2.2,1.8-3.9,3.9-3.9c0.5,0,1,0.1,1.5,0.3v-3.3h-4l0-5.4h-6.8v6.6v6.2h5.4
			C47.7,28.1,47.7,27.9,47.7,27.8z"/>
	</g>
</g>
</svg>
