<?xml version="1.0" encoding="utf-8"?>
<!-- Generator: Adobe Illustrator 21.0.0, SVG Export Plug-In . SVG Version: 6.00 Build 0)  -->
<svg version="1.1" id="Capa_1" xmlns="http://www.w3.org/2000/svg" xmlns:xlink="http://www.w3.org/1999/xlink" x="0px" y="0px"
	 viewBox="0 0 79 72.1" style="enable-background:new 0 0 79 72.1;" xml:space="preserve">
<style type="text/css">
	.st0{fill:#5FA03C;}
	.st1{fill:#FFFFFF;}
	.st2{fill:#F2F2F2;}
	.st3{fill:#369443;}
	.st4{fill:#8EBB37;}
	.st5{fill:#222221;}
	.st6{fill:#94BB1E;}
	.st7{fill:none;stroke:#222221;stroke-width:2.346;stroke-linecap:round;stroke-linejoin:round;stroke-miterlimit:10;}
	.st8{fill:#D9802E;}
	.st9{fill:#F0C830;}
	.st10{opacity:0.68;clip-path:url(#SVGID_2_);}
	.st11{clip-path:url(#SVGID_4_);}
	.st12{clip-path:url(#SVGID_6_);fill:url(#SVGID_7_);}
	.st13{opacity:0.2;clip-path:url(#SVGID_2_);}
	.st14{clip-path:url(#SVGID_9_);}
	.st15{clip-path:url(#SVGID_11_);}
	.st16{filter:url(#Adobe_OpacityMaskFilter);}
	.st17{clip-path:url(#SVGID_13_);}
	.st18{enable-background:new    ;}
	.st19{clip-path:url(#SVGID_13_);fill:url(#SVGID_15_);}
	.st20{clip-path:url(#SVGID_13_);mask:url(#SVGID_14_);}
	.st21{clip-path:url(#SVGID_17_);}
	.st22{clip-path:url(#SVGID_19_);fill:url(#SVGID_20_);}
	.st23{opacity:0.68;clip-path:url(#SVGID_22_);}
	.st24{opacity:0.57;clip-path:url(#SVGID_22_);}
	.st25{clip-path:url(#SVGID_26_);}
	.st26{clip-path:url(#SVGID_28_);fill:#CED0D1;}
	.st27{clip-path:url(#SVGID_22_);fill:#4070B6;}
	.st28{clip-path:url(#SVGID_22_);fill:#DD902F;}
	.st29{fill:#C91862;}
	.st30{fill:none;stroke:#272425;stroke-width:7.564600e-02;stroke-miterlimit:10;}
	.st31{fill:#9CC34D;}
	.st32{fill:#B88844;}
	.st33{fill:#78B552;}
	.st34{fill:#589B52;}
	.st35{fill:#5CA257;}
	
		.st36{fill:none;stroke:#FFFFFF;stroke-width:2.3815;stroke-linecap:round;stroke-linejoin:round;stroke-miterlimit:10;stroke-dasharray:0,4.6879;}
	.st37{fill:none;stroke:#FFFFFF;stroke-width:2.3815;stroke-linecap:round;stroke-linejoin:round;stroke-miterlimit:10;}
	.st38{fill:#AFCB49;}
	.st39{fill:#CE4E80;}
	.st40{fill:#E35100;}
	.st41{fill:#4DAEA9;}
	.st42{fill:#B45696;}
	.st43{fill:#E1DF00;}
	.st44{fill:#76B452;}
	.st45{fill:#E4A612;}
	.st46{fill:#474747;}
	.st47{fill:#B2C633;}
	.st48{fill:#272425;}
	.st49{fill:#5D9E3B;}
	.st50{fill:#F3D33F;}
	.st51{fill:#526D59;}
	.st52{fill:#E2D1B1;}
	.st53{fill:#75398E;}
	.st54{fill:#EBB146;}
	.st55{fill:#F1F1F1;}
	.st56{fill:none;stroke:#5FA03C;stroke-width:1.2441;stroke-linecap:round;stroke-linejoin:round;stroke-miterlimit:10;}
	.st57{fill:none;stroke:#5FA03C;stroke-width:1.6816;stroke-linecap:round;stroke-linejoin:round;stroke-miterlimit:10;}
</style>
<g>
	<g>
		
			<ellipse transform="matrix(0.9962 -8.739020e-02 8.739020e-02 0.9962 -3.0001 3.5898)" class="st5" cx="39.5" cy="36.1" rx="34.3" ry="34.3"/>
	</g>
	<g>
		<g>
			<g>
				<path class="st1" d="M28.9,35.1c-0.1-0.4-0.2-0.5-0.8-0.5h-3c-0.5,0-0.6,0.1-0.8,0.5l-0.7,2.1c-0.3,0.9-0.4,1.4-0.4,1.7
					c0,0.2,0.1,0.4,0.6,0.4l0.7,0.1c0.1,0.1,0.1,0.4,0,0.5c-0.5,0-1.1,0-2.1-0.1c-0.7,0-1.4,0-1.9,0.1c-0.1-0.1-0.2-0.4,0-0.5
					l0.7-0.1c0.5,0,0.9-0.3,1.2-1c0.4-0.9,0.9-2.2,1.8-4.4l2-5.4c0.3-0.7,0.4-1.1,0.3-1.4c0.5-0.1,0.8-0.5,1-0.8
					c0.1,0,0.3,0,0.3,0.2c0.3,0.9,0.6,1.8,0.9,2.7l2.7,8c0.6,1.7,0.8,2,1.7,2.1l0.5,0.1c0.1,0.1,0.1,0.4,0,0.5
					c-0.8,0-1.5-0.1-2.4-0.1c-1,0-1.7,0-2.3,0.1c-0.2-0.1-0.2-0.4,0-0.5l0.6-0.1c0.4,0,0.7-0.2,0.7-0.4c0-0.2-0.1-0.6-0.3-1.1
					L28.9,35.1z M24.9,33.3c-0.2,0.5-0.1,0.5,0.4,0.5h2.5c0.6,0,0.6-0.1,0.4-0.6l-1.1-3.2c-0.2-0.5-0.3-1-0.5-1.3h0
					c-0.1,0.1-0.3,0.6-0.5,1.2L24.9,33.3z"/>
			</g>
			<g>
				<path class="st1" d="M34.8,26.4c0-2.2-0.1-2.8-1.5-2.9l-1-0.1c-0.2-0.2-0.2-0.6,0-0.8c1.6-0.1,3.7-0.2,6.5-0.2
					c1.9,0,3.7,0.1,5.1,0.8c1.3,0.6,2.3,1.8,2.3,3.8c0,2.2-1.3,3.3-3.1,4.1c0,0.3,0.2,0.4,0.6,0.5c1.6,0.3,4,1.8,4,5
					c0,3.5-2.6,5.8-8,5.8c-0.9,0-2.3-0.1-3.6-0.1c-1.3,0-2.3,0.1-3.5,0.1c-0.2-0.1-0.2-0.6-0.1-0.8l0.5-0.1c1.6-0.3,1.7-0.6,1.7-3.8
					V26.4z M37.3,30.4c0,0.8,0,0.9,1.6,0.8c3.1-0.1,4.7-1,4.7-3.9c0-2.9-2.2-4.1-4.5-4.1c-0.7,0-1.1,0.1-1.4,0.2
					c-0.3,0.1-0.4,0.2-0.4,0.8V30.4z M37.3,37.3c0,1.1,0.1,2.6,0.6,3.3c0.6,0.7,1.5,0.8,2.4,0.8c2.7,0,4.7-1.2,4.7-4.2
					c0-2.4-1.2-5.1-6-5.1c-1.6,0-1.7,0.2-1.7,0.8V37.3z"/>
			</g>
			<g>
				<path class="st6" d="M49,38.1c0-6,4.5-10.5,10.6-10.5c6.9,0,10.4,5,10.4,10.2c0,6-4.6,10.4-10.4,10.4C53,48.3,49,43.5,49,38.1z
					 M67,38.8c0-4.9-2.2-10.2-7.9-10.2c-3.1,0-7.1,2.1-7.1,8.6c0,4.4,2.1,10.1,8,10.1C63.6,47.3,67,44.6,67,38.8z"/>
			</g>
			<g>
				<path class="st1" d="M22.3,48.4c0-2.3-0.1-2.7-1.1-2.9l-0.8-0.1c-0.2-0.1-0.2-0.5,0-0.6c1.4-0.1,3.1-0.2,5.4-0.2
					c1.5,0,3,0.1,4.1,0.7c1.2,0.6,2,1.7,2,3.4c0,2.3-1.8,3.6-3.1,4.1c-0.1,0.1,0,0.4,0.1,0.6c2,3.1,3.3,5.1,4.9,6.5
					c0.4,0.4,1,0.6,1.7,0.7c0.1,0,0.1,0.2,0,0.3c-0.2,0.1-0.6,0.1-1.1,0.1c-2.1,0-3.3-0.6-5.1-3.1c-0.6-0.9-1.6-2.6-2.4-3.7
					c-0.4-0.5-0.8-0.8-1.7-0.8c-1.1,0-1.1,0-1.1,0.5v3.1c0,2.6,0,2.9,1.5,3.1l0.5,0.1c0.1,0.1,0.1,0.5,0,0.6
					c-1.1-0.1-1.9-0.1-2.9-0.1c-1,0-1.9,0-3.1,0.1c-0.1-0.1-0.2-0.4,0-0.6l0.6-0.1c1.4-0.2,1.5-0.5,1.5-3.1V48.4z M24.3,51.9
					c0,0.4,0,0.7,0.1,0.8c0.1,0.1,0.4,0.1,1.7,0.1c0.9,0,1.8-0.1,2.5-0.6c0.7-0.5,1.2-1.4,1.2-3c0-1.9-1.2-3.8-3.9-3.8
					c-1.5,0-1.6,0.1-1.6,0.8V51.9z"/>
			</g>
			<g>
				<path class="st1" d="M36.8,50c-0.9,0-0.9,0.1-0.9,0.9c0,3.5,2,6.4,5.7,6.4c1.1,0,2.1-0.3,3.2-1.7c0.3-0.1,0.6,0.1,0.6,0.4
					c-1.1,2.3-3.6,3.2-5.4,3.2c-2.2,0-4-1-5-2.3c-1-1.3-1.4-3-1.4-4.5c0-4.2,2.8-7.8,6.9-7.8c3,0,4.9,2,4.9,4.1
					c0,0.5-0.1,0.8-0.1,0.9c-0.1,0.2-0.6,0.2-2,0.2H36.8z M38.9,49c2.5,0,3.3-0.1,3.6-0.3c0.1-0.1,0.2-0.2,0.2-0.7
					c0-1-0.7-2.2-2.7-2.2c-2,0-3.8,1.9-3.8,3c0,0.1,0,0.2,0.2,0.2H38.9z"/>
			</g>
			<g>
				<path class="st1" d="M50,63.7c-1.8,0-2.9-0.6-3.3-0.8c-0.3-0.5-0.5-2-0.6-3c0.1-0.1,0.4-0.2,0.5-0.1c0.3,1.1,1.2,3.2,3.7,3.2
					c1.8,0,2.7-1.2,2.7-2.5c0-0.9-0.2-2-1.8-3l-2-1.3c-1.1-0.7-2.3-1.9-2.3-3.7c0-2,1.6-3.7,4.4-3.7c0.7,0,1.4,0.1,2,0.3
					c0.3,0.1,0.6,0.1,0.7,0.1c0.2,0.5,0.4,1.7,0.4,2.6C54.3,52,54,52.1,53.9,52c-0.3-1-0.9-2.4-2.9-2.4c-2.1,0-2.6,1.4-2.6,2.4
					c0,1.2,1,2.1,1.8,2.6l1.7,1.1c1.4,0.8,2.7,2.1,2.7,4.1C54.6,62.1,52.8,63.7,50,63.7z"/>
			</g>
			<g>
				<path class="st1" d="M15.6,44.7c-1.6,0-2.6-0.5-2.9-0.7c-0.2-0.4-0.5-1.8-0.5-2.6c0.1-0.1,0.4-0.2,0.4-0.1
					c0.3,1,1.1,2.8,3.2,2.8c1.6,0,2.3-1,2.3-2.2c0-0.8-0.2-1.8-1.5-2.6l-1.8-1.2c-0.9-0.6-2-1.7-2-3.2c0-1.8,1.4-3.2,3.8-3.2
					c0.6,0,1.3,0.1,1.7,0.2c0.2,0.1,0.5,0.1,0.7,0.1c0.2,0.5,0.3,1.5,0.3,2.3c-0.1,0.1-0.4,0.2-0.5,0.1c-0.2-0.9-0.8-2.1-2.6-2.1
					c-1.8,0-2.2,1.2-2.2,2.1c0,1.1,0.9,1.9,1.6,2.3l1.5,0.9c1.2,0.7,2.4,1.8,2.4,3.6C19.6,43.3,18.1,44.7,15.6,44.7z"/>
			</g>
		</g>
	</g>
	<g>
		<g>
			<path class="st6" d="M21.5,13c-0.3-0.7-0.4-1.3-1.1-1.3L20,11.6c-0.1-0.1-0.1-0.4,0.1-0.5c0.4,0,1.1,0.1,1.7,0.1
				c0.5,0,0.9,0,1.5-0.1c0.1,0.1,0.1,0.4,0,0.5l-0.2,0c-0.6,0.1-0.6,0.2-0.4,0.7c0.4,1.3,0.9,2.5,1.4,3.5c0.2,0.4,0.2,0.5,0.3,0.6
				c0.1-0.1,0.2-0.3,0.3-0.7c0.2-0.6,0.8-2.2,1-2.7c0.3-0.6,0.3-1,0.3-1.1c0-0.2-0.1-0.2-0.3-0.3l-0.4-0.1c-0.1-0.1-0.1-0.4,0-0.5
				c0.6,0,1,0.1,1.4,0.1c0.5,0,0.8,0,1.3-0.1c0.1,0.1,0.1,0.3,0,0.5l-0.3,0c-0.6,0.1-0.8,0.6-1.3,1.6c-0.3,0.5-1.4,3.1-1.7,3.9
				c-0.2,0.5-0.4,0.9-0.6,1.5c0,0.1-0.1,0.1-0.2,0.1c-0.1,0-0.2,0-0.2-0.1c-0.1-0.5-0.4-1.2-0.7-1.9L21.5,13z"/>
		</g>
		<g>
			<path class="st6" d="M29.1,13.1c0-0.7,0-0.8-0.5-1.1l-0.2-0.1c-0.1-0.1-0.1-0.3,0-0.3c0.4-0.1,1.5-0.6,1.9-0.9
				c0.1,0,0.2,0,0.2,0.1c0,0.6-0.1,1.5-0.1,2.2v3.3c0,1.3,0,1.5,0.7,1.6l0.4,0.1c0.1,0.1,0.1,0.4,0,0.5c-0.5,0-1.1-0.1-1.7-0.1
				c-0.7,0-1.2,0-1.7,0.1c-0.1-0.1-0.2-0.4,0-0.5l0.4-0.1c0.7-0.1,0.7-0.3,0.7-1.6V13.1z M30.7,7.9c0,0.7-0.5,0.9-1,0.9
				c-0.6,0-0.9-0.4-0.9-0.9c0-0.6,0.4-1,1-1C30.3,7,30.7,7.4,30.7,7.9z"/>
		</g>
		<g>
			<path class="st6" d="M33.1,13c-0.3-0.7-0.4-1.3-1.1-1.3l-0.4-0.1c-0.1-0.1-0.1-0.4,0.1-0.5c0.5,0,1.1,0.1,1.7,0.1
				c0.5,0,0.9,0,1.5-0.1c0.1,0.1,0.1,0.4,0,0.5l-0.2,0c-0.6,0.1-0.6,0.2-0.4,0.7c0.4,1.3,0.9,2.5,1.4,3.5c0.2,0.4,0.2,0.5,0.3,0.6
				c0.1-0.1,0.2-0.3,0.3-0.7c0.2-0.6,0.9-2.2,1-2.7c0.3-0.6,0.3-1,0.3-1.1c0-0.2-0.1-0.2-0.3-0.3l-0.4-0.1c-0.1-0.1-0.1-0.4,0-0.5
				c0.6,0,1,0.1,1.4,0.1c0.5,0,0.8,0,1.3-0.1c0.1,0.1,0.1,0.3,0,0.5l-0.3,0c-0.6,0.1-0.8,0.6-1.3,1.6c-0.3,0.5-1.4,3.1-1.7,3.9
				c-0.2,0.5-0.4,0.9-0.6,1.5c0,0.1-0.1,0.1-0.2,0.1c-0.1,0-0.2,0-0.2-0.1c-0.1-0.5-0.4-1.2-0.7-1.9L33.1,13z"/>
		</g>
		<g>
			<path class="st6" d="M41.2,13.7c-0.5,0-0.5,0-0.5,0.5c0,1.8,1.1,3.4,3,3.4c0.6,0,1.1-0.2,1.7-0.9c0.2-0.1,0.3,0.1,0.3,0.2
				c-0.6,1.2-1.9,1.7-2.8,1.7c-1.2,0-2.1-0.5-2.6-1.2c-0.5-0.7-0.8-1.6-0.8-2.4c0-2.2,1.5-4.1,3.6-4.1c1.6,0,2.6,1.1,2.6,2.2
				c0,0.3,0,0.4-0.1,0.5c-0.1,0.1-0.3,0.1-1.1,0.1H41.2z M42.3,13.1c1.3,0,1.7-0.1,1.9-0.2c0.1,0,0.1-0.1,0.1-0.3
				c0-0.5-0.3-1.1-1.4-1.1c-1.1,0-2,1-2,1.6c0,0,0,0.1,0.1,0.1H42.3z"/>
		</g>
	</g>
	<g>
		<g>
			<circle class="st6" cx="64.1" cy="11.5" r="8.8"/>
			<path class="st1" d="M64.1,21.1c-5.3,0-9.6-4.3-9.6-9.6c0-5.3,4.3-9.6,9.6-9.6c5.3,0,9.6,4.3,9.6,9.6
				C73.7,16.8,69.4,21.1,64.1,21.1z M64.1,3.6c-4.3,0-7.9,3.5-7.9,7.9c0,4.3,3.5,7.9,7.9,7.9c4.3,0,7.9-3.5,7.9-7.9
				C72,7.1,68.4,3.6,64.1,3.6z"/>
		</g>
		<polyline class="st7" points="60.6,11.7 62.8,14.3 66.8,8.6 		"/>
	</g>
</g>
</svg>
