<?xml version="1.0" encoding="utf-8"?>
<!-- Generator: Adobe Illustrator 21.0.0, SVG Export Plug-In . SVG Version: 6.00 Build 0)  -->
<svg version="1.1" id="Capa_1" xmlns="http://www.w3.org/2000/svg" xmlns:xlink="http://www.w3.org/1999/xlink" x="0px" y="0px"
	 viewBox="0 0 79 72.1" style="enable-background:new 0 0 79 72.1;" xml:space="preserve">
<style type="text/css">
	.st0{fill:#5FA03C;}
	.st1{fill:#FFFFFF;}
	.st2{fill:#F2F2F2;}
	.st3{fill:#369443;}
	.st4{fill:#8EBB37;}
	.st5{fill:#222221;}
	.st6{fill:#94BB1E;}
	.st7{fill:none;stroke:#222221;stroke-width:2.346;stroke-linecap:round;stroke-linejoin:round;stroke-miterlimit:10;}
	.st8{fill:#D9802E;}
	.st9{fill:#F0C830;}
	.st10{opacity:0.68;clip-path:url(#SVGID_2_);}
	.st11{clip-path:url(#SVGID_4_);}
	.st12{clip-path:url(#SVGID_6_);fill:url(#SVGID_7_);}
	.st13{opacity:0.2;clip-path:url(#SVGID_2_);}
	.st14{clip-path:url(#SVGID_9_);}
	.st15{clip-path:url(#SVGID_11_);}
	.st16{filter:url(#Adobe_OpacityMaskFilter);}
	.st17{clip-path:url(#SVGID_13_);}
	.st18{enable-background:new    ;}
	.st19{clip-path:url(#SVGID_13_);fill:url(#SVGID_15_);}
	.st20{clip-path:url(#SVGID_13_);mask:url(#SVGID_14_);}
	.st21{clip-path:url(#SVGID_17_);}
	.st22{clip-path:url(#SVGID_19_);fill:url(#SVGID_20_);}
	.st23{opacity:0.68;clip-path:url(#SVGID_22_);}
	.st24{opacity:0.57;clip-path:url(#SVGID_22_);}
	.st25{clip-path:url(#SVGID_26_);}
	.st26{clip-path:url(#SVGID_28_);fill:#CED0D1;}
	.st27{clip-path:url(#SVGID_22_);fill:#4070B6;}
	.st28{clip-path:url(#SVGID_22_);fill:#DD902F;}
	.st29{fill:#C91862;}
	.st30{fill:none;stroke:#272425;stroke-width:7.564600e-02;stroke-miterlimit:10;}
	.st31{fill:#9CC34D;}
	.st32{fill:#B88844;}
	.st33{fill:#78B552;}
	.st34{fill:#589B52;}
	.st35{fill:#5CA257;}
	
		.st36{fill:none;stroke:#FFFFFF;stroke-width:2.3815;stroke-linecap:round;stroke-linejoin:round;stroke-miterlimit:10;stroke-dasharray:0,4.6879;}
	.st37{fill:none;stroke:#FFFFFF;stroke-width:2.3815;stroke-linecap:round;stroke-linejoin:round;stroke-miterlimit:10;}
	.st38{fill:#AFCB49;}
	.st39{fill:#CE4E80;}
	.st40{fill:#E35100;}
	.st41{fill:#4DAEA9;}
	.st42{fill:#B45696;}
	.st43{fill:#E1DF00;}
	.st44{fill:#76B452;}
	.st45{fill:#E4A612;}
	.st46{fill:#474747;}
	.st47{fill:#B2C633;}
	.st48{fill:#272425;}
	.st49{fill:#5D9E3B;}
	.st50{fill:#F3D33F;}
	.st51{fill:#526D59;}
	.st52{fill:#E2D1B1;}
	.st53{fill:#75398E;}
	.st54{fill:#EBB146;}
	.st55{fill:#F1F1F1;}
	.st56{fill:none;stroke:#5FA03C;stroke-width:1.2441;stroke-linecap:round;stroke-linejoin:round;stroke-miterlimit:10;}
	.st57{fill:none;stroke:#5FA03C;stroke-width:1.6816;stroke-linecap:round;stroke-linejoin:round;stroke-miterlimit:10;}
</style>
<g>
	<path class="st47" d="M4.2,61.2c10.9,4.7,22.6,7.3,34.8,7.3c12.2,0,24-2.6,34.9-7.3c0.6-0.4,0.9-0.7,0.9-0.7V3.7H4.2V61.2z"/>
	<g>
		<path class="st1" d="M13.6,23.4c0.5,0.5,0.8,1.1,0.8,2c0,0.9-0.3,1.6-0.8,2.1c-0.5,0.5-1.3,0.7-2.2,0.7l-1.4,0l0,2.1l-1.9,0l0-7.6
			l3.3,0C12.3,22.7,13.1,22.9,13.6,23.4z M10,26.6l1.3,0c0.4,0,0.8-0.1,1-0.3c0.2-0.2,0.3-0.5,0.3-0.9c0-0.4-0.1-0.7-0.3-0.9
			c-0.2-0.2-0.6-0.3-1-0.3l-1.3,0L10,26.6z"/>
		<path class="st1" d="M19.1,28.2L19.1,28.2l-1.5,0l0,2.1l-1.9,0l0-7.6l3.4,0c1,0,1.8,0.2,2.3,0.7c0.5,0.5,0.8,1.1,0.8,2
			c0,0.6-0.1,1.1-0.4,1.5c-0.2,0.4-0.6,0.7-1,0.9l1.6,2.5l-2.2,0L19.1,28.2z M19,26.7c0.4,0,0.7-0.1,1-0.3c0.2-0.2,0.3-0.5,0.3-0.9
			c0-0.4-0.1-0.7-0.3-0.9c-0.2-0.2-0.6-0.3-1-0.3l-1.5,0l0,2.4L19,26.7z"/>
		<path class="st1" d="M29.4,23.2c0.6,0.3,1.1,0.8,1.5,1.4c0.4,0.6,0.5,1.2,0.5,2c0,0.7-0.2,1.4-0.5,2c-0.4,0.6-0.8,1.1-1.5,1.4
			c-0.6,0.3-1.3,0.5-2.1,0.5c-0.8,0-1.5-0.2-2.1-0.5s-1.1-0.8-1.5-1.4c-0.4-0.6-0.5-1.3-0.5-2c0-0.7,0.2-1.4,0.5-2
			c0.4-0.6,0.8-1,1.5-1.4c0.6-0.3,1.3-0.5,2.1-0.5C28.1,22.7,28.8,22.9,29.4,23.2z M26.3,24.6c-0.3,0.2-0.6,0.5-0.8,0.8
			s-0.3,0.7-0.3,1.1c0,0.4,0.1,0.8,0.3,1.1c0.2,0.3,0.5,0.6,0.8,0.8c0.3,0.2,0.7,0.3,1.1,0.3c0.4,0,0.7-0.1,1.1-0.3
			c0.3-0.2,0.6-0.5,0.8-0.8c0.2-0.3,0.3-0.7,0.3-1.1c0-0.4-0.1-0.8-0.3-1.1c-0.2-0.3-0.4-0.6-0.8-0.8c-0.3-0.2-0.7-0.3-1.1-0.3
			C27,24.3,26.6,24.4,26.3,24.6z"/>
		<path class="st1" d="M38.1,23.3c0.6,0.3,1.1,0.8,1.4,1.3c0.3,0.6,0.5,1.2,0.5,2c0,0.7-0.2,1.4-0.5,2s-0.8,1-1.5,1.3
			c-0.6,0.3-1.3,0.5-2.1,0.5l-3.2,0l0-7.6l3.3,0C36.8,22.8,37.5,23,38.1,23.3z M34.6,28.8l1.4,0c0.4,0,0.7-0.1,1-0.3
			c0.3-0.2,0.5-0.4,0.7-0.8c0.2-0.3,0.3-0.7,0.3-1.2c0-0.4-0.1-0.8-0.3-1.2c-0.2-0.3-0.4-0.6-0.7-0.8c-0.3-0.2-0.7-0.3-1.1-0.3
			l-1.3,0L34.6,28.8z"/>
		<path class="st1" d="M47.6,29c-0.3,0.5-0.7,0.9-1.2,1.1c-0.5,0.3-1.1,0.4-1.8,0.4c-0.7,0-1.3-0.1-1.8-0.4
			c-0.5-0.3-0.9-0.6-1.2-1.1c-0.3-0.5-0.4-1.1-0.4-1.7l0-4.4l1.9,0l0,4.4c0,0.5,0.1,0.9,0.4,1.2s0.7,0.5,1.1,0.5
			c0.5,0,0.8-0.1,1.1-0.4c0.3-0.3,0.4-0.7,0.4-1.2l0-4.4l1.9,0l0,4.4C48.1,27.9,47.9,28.5,47.6,29z"/>
		<path class="st1" d="M54.9,23.2c0.5,0.2,1,0.5,1.4,0.9l-1.1,1.3c-0.2-0.3-0.5-0.5-0.9-0.7s-0.7-0.3-1-0.3c-0.4,0-0.8,0.1-1.1,0.3
			c-0.3,0.2-0.6,0.5-0.8,0.8c-0.2,0.3-0.3,0.7-0.3,1.1c0,0.4,0.1,0.8,0.3,1.1c0.2,0.3,0.4,0.6,0.8,0.8c0.3,0.2,0.7,0.3,1.1,0.3
			c0.3,0,0.6-0.1,1-0.2c0.3-0.2,0.6-0.4,0.9-0.6l1.1,1.2c-0.4,0.4-0.9,0.7-1.5,1c-0.6,0.2-1.1,0.4-1.7,0.4c-0.7,0-1.4-0.2-2-0.5
			c-0.6-0.3-1.1-0.8-1.4-1.4c-0.3-0.6-0.5-1.3-0.5-2c0-0.7,0.2-1.4,0.5-1.9c0.4-0.6,0.8-1,1.5-1.4c0.6-0.3,1.3-0.5,2.1-0.5
			C53.8,22.8,54.4,23,54.9,23.2z"/>
		<path class="st1" d="M61,24.5l0,6l-1.9,0l0-6l-2.3,0l0-1.6l6.5,0l0,1.6L61,24.5z"/>
		<path class="st1" d="M69.6,23.4c0.6,0.3,1.1,0.8,1.5,1.4c0.4,0.6,0.5,1.2,0.5,2c0,0.7-0.2,1.4-0.5,2c-0.4,0.6-0.8,1.1-1.5,1.4
			c-0.6,0.3-1.3,0.5-2.1,0.5c-0.8,0-1.5-0.2-2.1-0.5c-0.6-0.3-1.1-0.8-1.5-1.4c-0.4-0.6-0.5-1.3-0.5-2c0-0.7,0.2-1.4,0.5-2
			c0.4-0.6,0.8-1,1.5-1.4s1.3-0.5,2.1-0.5C68.3,22.9,69,23.1,69.6,23.4z M66.5,24.8c-0.3,0.2-0.6,0.5-0.8,0.8
			c-0.2,0.3-0.3,0.7-0.3,1.1c0,0.4,0.1,0.8,0.3,1.1c0.2,0.3,0.5,0.6,0.8,0.8c0.3,0.2,0.7,0.3,1.1,0.3c0.4,0,0.7-0.1,1.1-0.3
			c0.3-0.2,0.6-0.5,0.8-0.8c0.2-0.3,0.3-0.7,0.3-1.1c0-0.4-0.1-0.8-0.3-1.1c-0.2-0.3-0.4-0.6-0.8-0.8c-0.3-0.2-0.7-0.3-1.1-0.3
			C67.2,24.5,66.8,24.6,66.5,24.8z"/>
	</g>
	<g>
		<g>
			<path class="st48" d="M9.2,37.1v1.5h3.6v1.5H9.2v1.5h4.1v1.5h-6v-7.6h5.9v1.5H9.2z"/>
			<path class="st48" d="M22,43.1h-2.3L18,40.7l-1.6,2.4h-2.2l2.7-3.9l-2.5-3.7h2.2l1.5,2.2l1.5-2.2h2.3l-2.5,3.6L22,43.1z"/>
			<path class="st48" d="M28.1,35.8c0.5,0.2,1,0.5,1.4,0.9l-1.1,1.3c-0.2-0.3-0.5-0.5-0.9-0.7c-0.3-0.2-0.7-0.3-1-0.3
				c-0.4,0-0.8,0.1-1.1,0.3c-0.3,0.2-0.6,0.5-0.8,0.8c-0.2,0.3-0.3,0.7-0.3,1.1c0,0.4,0.1,0.8,0.3,1.1s0.4,0.6,0.8,0.8
				c0.3,0.2,0.7,0.3,1.1,0.3c0.3,0,0.6-0.1,1-0.2s0.6-0.4,0.9-0.6l1.1,1.2c-0.4,0.4-0.9,0.8-1.5,1c-0.6,0.3-1.1,0.4-1.7,0.4
				c-0.7,0-1.4-0.2-2-0.5c-0.6-0.3-1.1-0.8-1.4-1.4s-0.5-1.3-0.5-2c0-0.7,0.2-1.4,0.5-1.9c0.4-0.6,0.8-1,1.5-1.4
				c0.6-0.3,1.3-0.5,2.1-0.5C27,35.5,27.6,35.6,28.1,35.8z"/>
			<path class="st48" d="M35.8,41.5v1.6h-5.1v-7.6h1.9v6H35.8z"/>
			<path class="st48" d="M43.4,41.7c-0.3,0.5-0.7,0.9-1.2,1.1c-0.5,0.3-1.1,0.4-1.8,0.4c-0.7,0-1.3-0.1-1.8-0.4
				c-0.5-0.3-0.9-0.6-1.2-1.1c-0.3-0.5-0.4-1.1-0.4-1.7v-4.4h1.9v4.4c0,0.5,0.1,0.9,0.4,1.2c0.3,0.3,0.7,0.4,1.1,0.4
				c0.5,0,0.8-0.1,1.1-0.4c0.3-0.3,0.4-0.7,0.4-1.2v-4.4h1.9v4.4C43.8,40.6,43.7,41.2,43.4,41.7z"/>
			<path class="st48" d="M50,35.7c0.5,0.2,1,0.4,1.4,0.6l-0.7,1.5c-0.4-0.2-0.8-0.4-1.3-0.6c-0.5-0.1-0.8-0.2-1.1-0.2
				c-0.3,0-0.5,0-0.6,0.1c-0.2,0.1-0.2,0.2-0.2,0.4c0,0.2,0.1,0.4,0.4,0.5c0.2,0.1,0.6,0.3,1.1,0.4c0.5,0.2,1,0.3,1.3,0.5
				c0.3,0.2,0.6,0.4,0.9,0.7s0.4,0.7,0.4,1.2c0,0.5-0.1,0.9-0.4,1.3c-0.3,0.4-0.6,0.6-1.1,0.8c-0.5,0.2-1,0.3-1.5,0.3
				c-0.6,0-1.2-0.1-1.9-0.3c-0.6-0.2-1.1-0.5-1.6-0.9l0.7-1.5c0.4,0.3,0.8,0.6,1.4,0.8c0.5,0.2,1,0.3,1.4,0.3c0.3,0,0.6-0.1,0.7-0.2
				c0.2-0.1,0.3-0.3,0.3-0.5c0-0.2-0.1-0.4-0.4-0.6c-0.2-0.1-0.6-0.3-1.1-0.4c-0.5-0.1-0.9-0.3-1.3-0.4c-0.3-0.1-0.6-0.4-0.9-0.7
				c-0.2-0.3-0.4-0.7-0.4-1.2c0-0.5,0.1-0.9,0.4-1.2c0.2-0.3,0.6-0.6,1.1-0.8s1-0.3,1.6-0.3C48.9,35.5,49.4,35.5,50,35.7z"/>
			<path class="st48" d="M52.7,43.1v-7.6h1.9v7.6H52.7z"/>
			<path class="st48" d="M58.5,43.1l-2.9-7.6h2.1l1.9,5.6l1.9-5.6h2l-3,7.6H58.5z"/>
			<path class="st48" d="M70.2,36c0.6,0.3,1.1,0.8,1.5,1.4c0.4,0.6,0.5,1.2,0.5,2c0,0.7-0.2,1.4-0.5,2c-0.4,0.6-0.8,1.1-1.5,1.4
				c-0.6,0.3-1.3,0.5-2.1,0.5c-0.8,0-1.5-0.2-2.1-0.5c-0.6-0.3-1.1-0.8-1.5-1.4c-0.4-0.6-0.5-1.2-0.5-2c0-0.7,0.2-1.4,0.5-2
				c0.4-0.6,0.8-1,1.5-1.4c0.6-0.3,1.3-0.5,2.1-0.5C68.8,35.5,69.5,35.6,70.2,36z M67,37.4c-0.3,0.2-0.6,0.5-0.8,0.8
				c-0.2,0.3-0.3,0.7-0.3,1.1c0,0.4,0.1,0.8,0.3,1.1c0.2,0.3,0.5,0.6,0.8,0.8c0.3,0.2,0.7,0.3,1.1,0.3c0.4,0,0.7-0.1,1.1-0.3
				c0.3-0.2,0.6-0.5,0.8-0.8c0.2-0.3,0.3-0.7,0.3-1.1c0-0.4-0.1-0.8-0.3-1.1c-0.2-0.3-0.4-0.6-0.8-0.8c-0.3-0.2-0.7-0.3-1.1-0.3
				C67.7,37.1,67.4,37.2,67,37.4z"/>
		</g>
	</g>
</g>
</svg>
