<?xml version="1.0" encoding="utf-8"?>
<!-- Generator: Adobe Illustrator 21.0.0, SVG Export Plug-In . SVG Version: 6.00 Build 0)  -->
<svg version="1.1" id="Capa_1" xmlns="http://www.w3.org/2000/svg" xmlns:xlink="http://www.w3.org/1999/xlink" x="0px" y="0px"
	 viewBox="0 0 79 72.1" style="enable-background:new 0 0 79 72.1;" xml:space="preserve">
<style type="text/css">
	.st0{fill:#5FA03C;}
	.st1{fill:#FFFFFF;}
	.st2{fill:#F2F2F2;}
	.st3{fill:#369443;}
	.st4{fill:#8EBB37;}
	.st5{fill:#222221;}
	.st6{fill:#94BB1E;}
	.st7{fill:none;stroke:#222221;stroke-width:2.346;stroke-linecap:round;stroke-linejoin:round;stroke-miterlimit:10;}
	.st8{fill:#D9802E;}
	.st9{fill:#F0C830;}
	.st10{opacity:0.68;clip-path:url(#SVGID_2_);}
	.st11{clip-path:url(#SVGID_4_);}
	.st12{clip-path:url(#SVGID_6_);fill:url(#SVGID_7_);}
	.st13{opacity:0.2;clip-path:url(#SVGID_2_);}
	.st14{clip-path:url(#SVGID_9_);}
	.st15{clip-path:url(#SVGID_11_);}
	.st16{filter:url(#Adobe_OpacityMaskFilter);}
	.st17{clip-path:url(#SVGID_13_);}
	.st18{enable-background:new    ;}
	.st19{clip-path:url(#SVGID_13_);fill:url(#SVGID_15_);}
	.st20{clip-path:url(#SVGID_13_);mask:url(#SVGID_14_);}
	.st21{clip-path:url(#SVGID_17_);}
	.st22{clip-path:url(#SVGID_19_);fill:url(#SVGID_20_);}
	.st23{opacity:0.68;clip-path:url(#SVGID_22_);}
	.st24{opacity:0.57;clip-path:url(#SVGID_22_);}
	.st25{clip-path:url(#SVGID_26_);}
	.st26{clip-path:url(#SVGID_28_);fill:#CED0D1;}
	.st27{clip-path:url(#SVGID_22_);fill:#4070B6;}
	.st28{clip-path:url(#SVGID_22_);fill:#DD902F;}
	.st29{fill:#C91862;}
	.st30{fill:none;stroke:#272425;stroke-width:7.564600e-02;stroke-miterlimit:10;}
	.st31{fill:#9CC34D;}
	.st32{fill:#B88844;}
	.st33{fill:#78B552;}
	.st34{fill:#589B52;}
	.st35{fill:#5CA257;}
	
		.st36{fill:none;stroke:#FFFFFF;stroke-width:2.3815;stroke-linecap:round;stroke-linejoin:round;stroke-miterlimit:10;stroke-dasharray:0,4.6879;}
	.st37{fill:none;stroke:#FFFFFF;stroke-width:2.3815;stroke-linecap:round;stroke-linejoin:round;stroke-miterlimit:10;}
	.st38{fill:#AFCB49;}
	.st39{fill:#CE4E80;}
	.st40{fill:#E35100;}
	.st41{fill:#4DAEA9;}
	.st42{fill:#B45696;}
	.st43{fill:#E1DF00;}
	.st44{fill:#76B452;}
	.st45{fill:#E4A612;}
	.st46{fill:#474747;}
	.st47{fill:#B2C633;}
	.st48{fill:#272425;}
	.st49{fill:#5D9E3B;}
	.st50{fill:#F3D33F;}
	.st51{fill:#526D59;}
	.st52{fill:#E2D1B1;}
	.st53{fill:#75398E;}
	.st54{fill:#EBB146;}
	.st55{fill:#F1F1F1;}
	.st56{fill:none;stroke:#5FA03C;stroke-width:1.2441;stroke-linecap:round;stroke-linejoin:round;stroke-miterlimit:10;}
	.st57{fill:none;stroke:#5FA03C;stroke-width:1.6816;stroke-linecap:round;stroke-linejoin:round;stroke-miterlimit:10;}
</style>
<g>
	<path class="st53" d="M4.2,61.1c10.9,4.7,22.6,7.3,34.8,7.3c12.2,0,24-2.6,34.9-7.3c0.6-0.4,0.9-0.7,0.9-0.7V3.8H4.2V61.1z"/>
	<g>
		<path class="st54" d="M15,18.2l-0.7,1.5l-1.2,0l3-6.7l1.2,0l2.9,6.7l-1.2,0l-0.6-1.5L15,18.2z M16.7,14.2l-1.3,3l2.5,0L16.7,14.2z
			"/>
		<path class="st54" d="M27,14.1l-0.7,0.8c-0.5-0.5-1.2-0.9-1.9-0.9c-1.3,0-2.4,1-2.4,2.3c0,1.3,1,2.4,2.4,2.4
			c0.7,0,1.4-0.3,1.9-0.8l0.7,0.8c-0.7,0.7-1.7,1.1-2.6,1.1c-2,0-3.5-1.5-3.5-3.4c0-1.9,1.6-3.4,3.5-3.4C25.4,13,26.3,13.4,27,14.1z
			"/>
		<path class="st54" d="M34.3,17c0,1.8-1.1,2.8-2.9,2.8c-1.8,0-2.9-1.1-2.9-2.8l0-3.9l1.1,0l0,3.9c0,1.1,0.7,1.8,1.8,1.8
			c1.1,0,1.8-0.7,1.8-1.8l0-3.9l1.1,0L34.3,17z"/>
		<path class="st54" d="M42.5,19.9l0-5l-2.1,4.3l-0.7,0l-2.1-4.3l0,5l-1.1,0l0-6.7l1.3,0l2.2,4.5l2.2-4.5l1.3,0l0,6.7L42.5,19.9z"/>
		<path class="st54" d="M51.5,17.1c0,1.8-1.1,2.8-2.9,2.8c-1.8,0-2.9-1.1-2.9-2.8l0-3.9l1.1,0l0,3.9c0,1.1,0.7,1.8,1.8,1.8
			c1.1,0,1.8-0.7,1.8-1.8l0-3.9l1.1,0L51.5,17.1z"/>
		<path class="st54" d="M57.6,18.9l0,1l-4,0l0-6.7l1.1,0l0,5.7L57.6,18.9z"/>
		<path class="st54" d="M60.2,18.4l-0.7,1.5l-1.2,0l3-6.7l1.2,0l2.9,6.7l-1.2,0l-0.6-1.5L60.2,18.4z M61.9,14.4l-1.3,3l2.5,0
			L61.9,14.4z"/>
	</g>
	<g>
		<g>
			<path class="st1" d="M58.2,43.9c0.4-0.9,1.4-1.6,2.4-1.6l5.6,0l0,2.4c-1.8,0-3.6,0-5.4,0c-0.2,0-0.4,0.2-0.4,0.4
				c0,0.2,0.2,0.5,0.4,0.5c0.9,0,1.9,0,2.8,0c0.3,0,0.7,0,1,0c0.8,0.1,1.6,0.7,2,1.4c0.4,0.7,0.5,1.5,0.3,2.2c-0.3,0.9-1,1.7-2,2
				c-0.4,0.1-0.7,0.1-1.1,0.1c-1.7,0-3.4,0-5.2,0c0-0.8,0-1.6,0-2.4c1.8,0,3.6,0,5.5,0c0.3,0,0.5-0.3,0.4-0.6c0-0.2-0.2-0.4-0.4-0.3
				l-2.6,0c-0.5,0-1,0-1.5-0.1c-0.7-0.2-1.4-0.7-1.8-1.4C57.8,45.7,57.8,44.7,58.2,43.9"/>
			<path class="st1" d="M14.1,42.8c0.8-0.5,1.8-0.8,2.7-0.7c1.2,0.1,2.3,0.6,3.1,1.5c0.7,0.7,1.1,1.6,1.2,2.6
				c0.1,0.9-0.1,1.7-0.5,2.5c-0.6,1.2-1.7,2.1-3,2.4c-0.4,0.1-0.9,0.1-1.3,0.1c-0.6,0-1.3,0-1.9,0l0,3.3c-0.8,0-1.6,0-2.4,0l0-7.4
				c0-0.5,0-0.9,0.1-1.4C12.4,44.5,13.1,43.4,14.1,42.8 M15,45.1c-0.4,0.4-0.6,0.9-0.6,1.4c0,0.7,0,1.4,0,2.1l2.1,0
				c0.6,0,1.1-0.2,1.5-0.6c0.4-0.4,0.7-1.1,0.6-1.7c0-0.5-0.3-0.9-0.6-1.3c-0.4-0.4-1-0.6-1.5-0.6C16,44.5,15.4,44.7,15,45.1"/>
			<path class="st1" d="M21.9,42.5l2.4,0l0,4.3c0,0.2,0,0.4,0,0.6c0.1,0.7,0.5,1.3,1.1,1.6c0.6,0.3,1.4,0.3,2,0
				c0.7-0.3,1.1-1,1.1-1.8c0-1.5,0-3.1,0-4.6l2.4,0c0,1.5,0,3,0,4.6c0,0.9-0.3,1.7-0.7,2.4c-0.6,0.9-1.4,1.5-2.4,1.9
				c-1.1,0.3-2.3,0.3-3.3-0.2c-1.5-0.7-2.6-2.3-2.6-4L21.9,42.5z"/>
			<path class="st1" d="M34.1,42.7c1-0.5,2.1-0.7,3.2-0.4c1.7,0.4,3,1.8,3.4,3.4c0.1,0.6,0.1,1.2,0.1,1.8l0,3.7l-2.4,0
				c0-1.5,0-3,0-4.5c0-0.5-0.2-1.1-0.6-1.4c-0.4-0.5-1.1-0.7-1.7-0.7c-0.5,0-1,0.3-1.4,0.7c-0.4,0.4-0.6,0.9-0.6,1.4
				c0,1.5,0,3,0,4.6l-2.4,0c0-1.5,0-3,0-4.5C31.7,45,32.7,43.4,34.1,42.7"/>
			<path class="st1" d="M52,42.7c0.9-0.1,1.7,0,2.5,0.4c0.9,0.4,1.6,1.1,2.1,2c0.4,0.8,0.6,1.7,0.5,2.6c-0.1,1-0.5,1.9-1.2,2.6
				c-0.7,0.8-1.6,1.3-2.7,1.4c-0.9,0.1-1.8,0-2.6-0.3c-1.6-0.7-2.7-2.4-2.7-4.2c0-0.9,0.3-1.8,0.8-2.5C49.6,43.6,50.8,42.9,52,42.7
				 M52.2,45.2c-0.6,0.1-1.2,0.6-1.5,1.1c-0.2,0.4-0.3,0.9-0.2,1.3c0.1,0.6,0.5,1.2,1.1,1.5c0.5,0.3,1.2,0.3,1.8,0.1
				c0.5-0.2,1-0.6,1.2-1.1c0.2-0.4,0.2-0.8,0.2-1.3c-0.1-0.7-0.6-1.2-1.2-1.5C53.1,45.1,52.6,45.1,52.2,45.2"/>
			<path class="st1" d="M41.6,38.8l2.4,0l0,3.4l3.3,0l0,2.3l-3.3,0c0,0.4-0.1,2.5,0.1,3c0.3,0.8,1.1,1.4,1.9,1.4c0.4,0,0.9,0,1.3,0
				l0,2.4c-0.5,0-1,0-1.5,0c-0.9-0.1-1.8-0.4-2.6-1c-0.8-0.7-1.4-1.6-1.6-2.7c-0.1-0.4-0.1-0.8-0.1-1.2L41.6,38.8z"/>
		</g>
		<g>
			<path class="st1" d="M19.1,37.5c-1.1-0.7-2-1.9-2.2-3.3c-0.1-0.5-0.1-1-0.1-1.5l0-8.3c0.9,0,1.8,0,2.7,0l0,3.7c0.7,0,1.4,0,2.1,0
				c0.5,0,1,0,1.5,0.2c1.4,0.4,2.7,1.4,3.3,2.7c0.4,0.9,0.6,1.9,0.5,2.8c-0.1,1.1-0.6,2.1-1.3,2.9c-0.9,0.9-2.1,1.5-3.4,1.6
				C21,38.3,20,38.1,19.1,37.5 M20.1,34.8c0.4,0.5,1.1,0.7,1.7,0.7c0.6,0,1.3-0.2,1.7-0.7c0.4-0.4,0.6-0.9,0.7-1.4
				c0.1-0.7-0.2-1.4-0.7-1.9c-0.4-0.4-1-0.7-1.7-0.7l-2.4,0c0,0.8,0,1.6,0,2.4C19.5,33.8,19.7,34.4,20.1,34.8"/>
			<path class="st1" d="M41.6,28.3c1.1-0.6,2.4-0.7,3.6-0.5c1.8,0.4,3.4,2,3.8,3.8c0.2,0.7,0.1,1.4,0.1,2.1l0,4.2l-2.7,0
				c0-1.7,0-3.4,0-5.1c0-0.6-0.2-1.2-0.6-1.6c-0.5-0.5-1.2-0.8-1.9-0.8c-0.6,0-1.2,0.3-1.6,0.7c-0.4,0.4-0.7,1-0.7,1.6
				c0,1.7,0,3.4,0,5.1l-2.7,0c0-1.7,0-3.4,0-5.1C38.9,31,39.9,29.2,41.6,28.3"/>
			<path class="st1" d="M54.4,28.3c1-0.1,1.9,0,2.8,0.4c1,0.5,1.8,1.2,2.3,2.2c0.5,0.9,0.7,1.9,0.6,2.9c-0.1,1.1-0.6,2.1-1.3,2.9
				c-0.8,0.8-1.8,1.4-3,1.6c-1,0.1-2,0-2.9-0.4c-1.8-0.8-3-2.7-3-4.7c0-1,0.3-2,0.8-2.8C51.6,29.3,52.9,28.5,54.4,28.3 M54.5,31.1
				c-0.7,0.1-1.3,0.6-1.6,1.3c-0.2,0.5-0.3,1-0.2,1.5c0.1,0.7,0.6,1.3,1.2,1.7c0.6,0.3,1.3,0.4,2,0.1c0.6-0.2,1.1-0.7,1.3-1.2
				c0.2-0.4,0.3-0.9,0.2-1.4c-0.1-0.7-0.6-1.4-1.3-1.7C55.6,31,55,30.9,54.5,31.1"/>
			<path class="st1" d="M32.2,28.2c1-0.1,1.9,0,2.8,0.4c1,0.5,1.8,1.2,2.3,2.2c0.5,0.9,0.7,1.9,0.6,2.9c-0.1,1.1-0.6,2.1-1.3,2.9
				c-0.8,0.9-1.8,1.4-3,1.6c-1,0.1-2,0-2.9-0.4c-1.8-0.8-3-2.7-3-4.7c0-1,0.3-2,0.8-2.8C29.5,29.2,30.8,28.4,32.2,28.2 M32.4,30.9
				c-0.7,0.1-1.3,0.6-1.6,1.3c-0.2,0.5-0.3,1-0.2,1.5c0.1,0.7,0.6,1.3,1.2,1.7c0.6,0.3,1.3,0.4,2,0.1c0.6-0.2,1.1-0.7,1.3-1.2
				c0.2-0.4,0.3-0.9,0.2-1.4c-0.1-0.7-0.6-1.4-1.3-1.7C33.5,30.9,32.9,30.8,32.4,30.9"/>
		</g>
	</g>
</g>
</svg>
