<?xml version="1.0" encoding="utf-8"?>
<!-- Generator: Adobe Illustrator 21.0.0, SVG Export Plug-In . SVG Version: 6.00 Build 0)  -->
<svg version="1.1" id="Capa_1" xmlns="http://www.w3.org/2000/svg" xmlns:xlink="http://www.w3.org/1999/xlink" x="0px" y="0px"
	 viewBox="0 0 79 72.1" style="enable-background:new 0 0 79 72.1;" xml:space="preserve">
<style type="text/css">
	.st0{fill:#5FA03C;}
	.st1{fill:#FFFFFF;}
	.st2{fill:#F2F2F2;}
	.st3{fill:#369443;}
	.st4{fill:#8EBB37;}
	.st5{fill:#222221;}
	.st6{fill:#94BB1E;}
	.st7{fill:none;stroke:#222221;stroke-width:2.346;stroke-linecap:round;stroke-linejoin:round;stroke-miterlimit:10;}
	.st8{fill:#D9802E;}
	.st9{fill:#F0C830;}
	.st10{opacity:0.68;clip-path:url(#SVGID_2_);}
	.st11{clip-path:url(#SVGID_4_);}
	.st12{clip-path:url(#SVGID_6_);fill:url(#SVGID_7_);}
	.st13{opacity:0.2;clip-path:url(#SVGID_2_);}
	.st14{clip-path:url(#SVGID_9_);}
	.st15{clip-path:url(#SVGID_11_);}
	.st16{filter:url(#Adobe_OpacityMaskFilter);}
	.st17{clip-path:url(#SVGID_13_);}
	.st18{enable-background:new    ;}
	.st19{clip-path:url(#SVGID_13_);fill:url(#SVGID_15_);}
	.st20{clip-path:url(#SVGID_13_);mask:url(#SVGID_14_);}
	.st21{clip-path:url(#SVGID_17_);}
	.st22{clip-path:url(#SVGID_19_);fill:url(#SVGID_20_);}
	.st23{opacity:0.68;clip-path:url(#SVGID_22_);}
	.st24{opacity:0.57;clip-path:url(#SVGID_22_);}
	.st25{clip-path:url(#SVGID_26_);}
	.st26{clip-path:url(#SVGID_28_);fill:#CED0D1;}
	.st27{clip-path:url(#SVGID_22_);fill:#4070B6;}
	.st28{clip-path:url(#SVGID_22_);fill:#DD902F;}
	.st29{fill:#C91862;}
	.st30{fill:none;stroke:#272425;stroke-width:7.564600e-02;stroke-miterlimit:10;}
	.st31{fill:#9CC34D;}
	.st32{fill:#B88844;}
	.st33{fill:#78B552;}
	.st34{fill:#589B52;}
	.st35{fill:#5CA257;}
	
		.st36{fill:none;stroke:#FFFFFF;stroke-width:2.3815;stroke-linecap:round;stroke-linejoin:round;stroke-miterlimit:10;stroke-dasharray:0,4.6879;}
	.st37{fill:none;stroke:#FFFFFF;stroke-width:2.3815;stroke-linecap:round;stroke-linejoin:round;stroke-miterlimit:10;}
	.st38{fill:#AFCB49;}
	.st39{fill:#CE4E80;}
	.st40{fill:#E35100;}
	.st41{fill:#4DAEA9;}
	.st42{fill:#B45696;}
	.st43{fill:#E1DF00;}
	.st44{fill:#76B452;}
	.st45{fill:#E4A612;}
	.st46{fill:#474747;}
	.st47{fill:#B2C633;}
	.st48{fill:#272425;}
	.st49{fill:#5D9E3B;}
	.st50{fill:#F3D33F;}
	.st51{fill:#526D59;}
	.st52{fill:#E2D1B1;}
	.st53{fill:#75398E;}
	.st54{fill:#EBB146;}
	.st55{fill:#F1F1F1;}
	.st56{fill:none;stroke:#5FA03C;stroke-width:1.2441;stroke-linecap:round;stroke-linejoin:round;stroke-miterlimit:10;}
	.st57{fill:none;stroke:#5FA03C;stroke-width:1.6816;stroke-linecap:round;stroke-linejoin:round;stroke-miterlimit:10;}
</style>
<g>
	<g>
		<path class="st1" d="M72.5,36.1c0,18.4-14.9,33.4-33.4,33.4c-18.4,0-33.4-14.9-33.4-33.4c0-18.4,14.9-33.4,33.4-33.4
			C57.5,2.7,72.5,17.6,72.5,36.1"/>
	</g>
	<polygon class="st1" points="65.8,20.8 65.8,20.7 65.8,20.7 	"/>
	<g>
		<path class="st31" d="M45.7,64.3c-0.2,0.1-0.3,0.2-0.5,0.2C45.4,64.5,45.6,64.5,45.7,64.3"/>
		<path class="st31" d="M39.9,65c-0.1,0-0.2,0-0.3,0v0H39.9z"/>
		<path class="st31" d="M49.4,63.6c0.2-0.1,0.4-0.2,0.6-0.3C49.7,63.3,49.5,63.4,49.4,63.6"/>
		<path class="st31" d="M49.4,63.6c-0.2,0.1-0.3,0.1-0.5,0.2C49,63.8,49.2,63.7,49.4,63.6"/>
		<path class="st31" d="M47.8,64.1c-0.1,0-0.2,0.1-0.3,0.1C47.6,64.2,47.7,64.2,47.8,64.1"/>
		<path class="st31" d="M23.1,12.2c-0.1,0.1-0.3,0.2-0.4,0.4C22.8,12.5,22.9,12.4,23.1,12.2"/>
		<path class="st43" d="M48.5,65.3c-0.1,0-0.2,0.1-0.3,0.1c0.1-0.1,0.2-0.2,0.3-0.4L48.5,65.3c0.5-0.3,0.7-0.5,1.3-0.5
			C49.4,65,48.9,65.1,48.5,65.3 M42.2,6l0-0.2c0.1,0.1,0.1,0.1,0.4,0.1L42.2,6z M40,5.9c-1,0,0.1-0.1,0.2-0.1
			C41,5.9,40.1,5.9,40,5.9 M21,59.7c0.2,0.2,0.5,0.4,0.7,0.5C21.8,60.4,21.5,60.1,21,59.7 M20.3,13.2c-0.3,0.2-0.3,1-0.8,0.7
			c-0.3-0.3,0.2-0.5,0.5-0.8c0,0-0.2,0.3-0.1,0.3C19.7,13.5,20.4,13.1,20.3,13.2 M19.6,58.6c0.3,0.2,0.6,0.4,0.9,0.6
			C20.1,59.1,19.8,58.9,19.6,58.6 M16.8,55.6C16.8,55.6,16.8,55.6,16.8,55.6C16.8,55.5,16.8,55.6,16.8,55.6 M12.4,50.8
			c0,0.1,0.1,0.1,0.2,0.2C12.5,50.9,12.5,50.8,12.4,50.8 M11.1,48.6c0.1,0.1,0.2,0.2,0.2,0.3C11.2,48.8,11.2,48.7,11.1,48.6
			 M9.7,29.7c-0.1,0.5-0.2,0.9-0.4,1.3C9.4,30.6,9.6,30.2,9.7,29.7 M65.1,19.4c0,0-0.1-0.1-0.1-0.1c-0.4-0.7-1.3-1.2-1.9-1.7
			c-0.7-0.6-1.5-1.2-2.2-1.8c-1.1-0.9-2.1-1.8-3.1-2.7c-0.9-0.9-1.6-2.1-2.6-2.8c0,0,0,0,0,0c0,0,0,0-0.1,0c0,0-0.1,0-0.1-0.1
			c-0.3-0.2-0.7-0.4-1-0.6c-0.2-0.1-0.3-0.1-0.3-0.1c-0.2-0.1,0.1,0,0.1-0.1c0,0,0,0,0,0L53,9.2c0,0,0,0,0-0.1
			c-0.4-0.2-0.9-0.4-1.3-0.6c0,0,0,0,0,0c-0.5-0.2-1-0.4-1.5-0.7c0,0,0.1,0,0.1,0C50.4,7.9,50.5,8,50.5,8l0.2,0.1
			c0,0-0.2-0.1-0.3-0.2c-0.1,0-0.2-0.1-0.2-0.1c0,0,0,0,0,0c-0.8-0.3-1.6-0.6-2.4-0.9c-0.1,0-0.4-0.1-0.6-0.1
			c-0.8-0.3-1.9-0.6-3-0.8c-0.8-0.2-1.6-0.3-2-0.3c-1.4-0.2-2.9-0.2-4.3-0.2c-0.2,0.1-0.3,0.2-0.3,0.2c0.6-0.1,1.8-0.2,2-0.1
			c-0.2,0-0.3,0-0.5,0c-0.2,0-0.4,0-0.5,0.1c-0.3,0-0.6,0.1-0.6,0.1c-0.6-0.2,1.1-0.1,0.3-0.2c-0.4,0-0.6,0.1-0.8,0.1
			c0.3-0.1-0.4-0.1-0.5-0.1c-1.4,0.1-2.2,0.1-3.6,0.4c0.1,0,0.1,0,0,0c0,0,0,0,0,0c0,0,0,0-0.1,0c-0.3,0.1-0.6,0.1-0.8,0.2
			c-0.1,0.1-0.2,0.1-0.3,0.2c-0.3,0.2-0.4,0.3-0.3,0.3C31.4,7,31.2,7,31,7c-0.1,0-0.2,0-0.3,0.1c-0.1,0-0.2,0.1-0.4,0.2
			C31.4,7,30,7.3,30,7.5c-0.7,0.3-0.3,0-0.6,0.1c-0.1,0.1-0.3,0.2-0.3,0.3c0.1,0,0.2,0,0.4-0.1c-0.3,0.1-0.4,0.1-0.4,0.1
			c-0.2,0-0.1-0.1,0.1-0.3c0.1-0.1,0.2-0.2,0.2-0.3c-0.3,0.1-0.7,0.3-1,0.4l0,0.1l-0.2,0.1l0-0.1c-0.3,0.1-0.7,0.3-1,0.5
			c0.1,0.2,0.4,0.4,0.7,0.3c0,0.1-0.7,0.2-0.9,0.3c-0.4,0.1-0.7,0.3-1,0.5c-0.1,0.1-0.3,0.2-0.4,0.3c-0.1,0.1-0.3,0.2-0.4,0.3
			l0.4-0.4c-0.1,0-1,0.7-1.2,0.8c-0.1,0,0.1-0.3,0.1-0.3c-0.8,0-1.1,0.7-1.6,1.2c0.4-0.3,0.7-0.6,1.1-0.9c-0.5,1.1-1.8,1.3-2.5,2.1
			c0.2-0.3,0.2-0.3,0.5-0.5c-0.3,0-0.5,0.3-0.8,0.5c0-1,1.2-0.8,1.2-1.6c-1.5,1.3-3,2.1-4.2,3.5c0.1,0,0.3,0,0.4-0.1
			c-0.6,0.8-1.9,0.7-2.1,1.6l0-0.3c-0.7,1.3-2,2.4-2.5,3.7c-0.3-0.8,1.2-1.1,0.5-1.8c-1,2.1-2.2,4.2-3,6.3l0-0.3
			c-0.5,0.7-0.7,1.6-0.8,2.4c0,0,0,0,0.1,0c0,0.1-0.1,0.1-0.1,0.2c0,0.3-0.1,0.6-0.1,0.8c0-0.1,0-0.2-0.1-0.3
			c-0.3,0.8-0.5,1.5-0.7,2.3c0-0.3,0-0.6-0.3-0.9c0,1.6-0.5,2.9-0.4,4.6c0,0.1-0.1,0.3-0.1,0.5c0.1,0.9-0.9,1.7-0.4,2.5
			c0,0,0.1,0,0.1,0.1c-0.7,4.2,0.1,8.6,2.1,12.2l-0.3,0c0.5,0.8,0.8,1.6,1.5,2.1c-0.3-0.3-0.3-0.8-0.5-1c0.7,0.4,0.6,1.1,0.9,1.6
			c-0.1-0.2-0.2-0.4-0.3-0.5c0,0.9,0.9,1.2,1.3,1.9c0.1,0.1,0.1,0.1,0.2,0.2h-0.1c0,0.1,0.1,0.2,0.1,0.3c-0.1-0.1-0.1-0.2-0.2-0.3
			l-0.1,0c1.8,1.8,3.3,3.9,5.2,5.5c0.3,0.3,0.7,0.6,1,0.9c0.1,0.1,0.2,0.2,0.4,0.4c-0.3-0.3-0.5-0.3-0.8-0.5c1,1,2,1.8,3.3,2.6
			l-0.3-0.3c2.8,1.8,6.1,3.1,9.4,4.1c-0.2,0-0.5,0-0.8,0c0.3,0.3,0.8,0.3,1,0.3l-0.3,0c0.3,0,0.5,0.3,0.8,0.3c0.2,0,0.4,0.1,0.5,0.1
			c0.1,0,0.2,0,0.2,0c-0.1,0-0.3-0.1-0.4-0.1c0.2,0.1,0.5,0.1,0.8,0.2c0.3,0.1,0.7,0.2,0.9,0.3c-0.1,0-0.2,0-0.3,0
			c-0.4-0.2-0.7-0.2-1-0.2c1,0.2,0.3,0.1,0.7,0.3c0.4,0.1,0.6,0.1,0.8,0.1c0.2,0,0.2-0.1,0.1-0.1c0.4,0.1,0.7,0.2,1,0.2
			c0.3,0,0.6,0.1,1,0.1l-0.2,0.1c0,0,0.2,0,0.4,0c0.1,0,0.2,0,0.3,0c0.1,0,0.1,0,0.1,0s-0.2,0-0.3,0c-0.2,0-0.3,0-0.3,0
			c0.4,0.1,0.6,0.1,0.7,0.1c0.1,0,0.2,0,0.2-0.1c0.1-0.1,0.2-0.1,1.1,0c0.4,0,0.8,0,1.2,0c0.8-0.5,1.3,0.2,2,0
			c-0.2-0.2-0.4-0.2-0.6-0.2c1.2,0,2.1,0.2,3.3,0c-0.5-0.5-0.8,0-1.3,0c0.8-0.5,1.8,0,2.5-0.6c0,0,0,0.1,0,0.1
			c0.1,0,0.2-0.1,0.3-0.1l0,0.3c0.3-0.7,1-0.5,1.5-0.6c-0.2,0.1-0.4,0.2-0.5,0.3c0.5-0.3,0.8-0.3,1.3-0.3c-0.1,0-0.3,0.1-0.4,0.2
			c0.3-0.1,0.7-0.2,1.1-0.4c0,0-0.1,0-0.1,0c0.7-0.5,1.5-1.1,2.5-1.3l-0.2,0.3c0.9-0.9,2.2-0.9,3-1.6c0.8-0.3,1.5-0.9,2.1-1.7
			c0.1,0.1,0.3,0.1,0.2,0.3c0.7-1.1,2-1.9,3-2.9l0,0.3c0.2-0.3,0.7-0.8,1-1.1l-0.3,0c0.8-0.3,1.2-1.1,1.8-1.6c0.5-0.6,1-1.2,1.4-1.9
			c0.9-1.4,1.6-2.8,2.5-4.1c-0.2,0.3-0.2,0.3-0.5,0.5c0.4-0.4,0.5-1,0.7-1.5c0,0,0,0.1,0,0.1c1-1.6,1.5-3.4,2-5.3l-0.2,0.3
			c0.2-0.5,0.2-1.1,0.5-1.5c0.1-0.4,0.2-0.8,0.3-1.2c0.1-0.4,0.2-0.8,0.3-1.2c0-0.2,0.1-0.4,0.1-0.7c0-0.2,0.1-0.5,0.1-0.7l0,0.1
			c0.1-0.6,0.1-1.1,0.1-1.6l0,0.3c0.3-1.6,0.3-3.1,0.3-4.7c-0.2-3.3-1-6.6-2.5-9.6C66.5,22,65.9,20.6,65.1,19.4"/>
		<path class="st31" d="M13.1,50.8c-0.1-0.1-0.1-0.1-0.3-0.3c0.2,0.2,0.2,0.3,0.3,0.5h0.1C13.2,50.9,13.1,50.9,13.1,50.8"/>
		<path class="st31" d="M10.7,26.1c-0.3,0.2-0.3,0.4-0.2,0.6c0.1-0.2,0.1-0.3,0.2-0.5C10.7,26.2,10.7,26.2,10.7,26.1"/>
		<path class="st3" d="M7.3,29.9l0,0.1c-0.1,0.5-0.3,1-0.4,1.2c0.1-0.1,0.2-0.3,0.4-0.6c0-0.1,0-0.2,0.1-0.6c0.1-0.3,0.1,0,0.1,0
			C7.4,29.8,7.5,29.3,7.3,29.9 M7.8,27.9C7.8,27.9,7.8,27.9,7.8,27.9C7.8,27.9,7.8,27.9,7.8,27.9L7.8,27.9z M19.5,10.9
			c-0.2,0.1-0.3,0.2-0.4,0.2C19.1,11.2,19.2,11.1,19.5,10.9 M34.1,4.1c0.1,0,0.1,0,0.1,0C34.2,4.1,34.2,4.1,34.1,4.1 M32,4.5
			c0,0-0.1,0-0.1,0C31.9,4.6,32,4.5,32,4.5 M57.8,9C57.8,9,57.8,9,57.8,9C57.5,8.8,57.6,8.9,57.8,9 M6.8,38.6L6.8,38.6
			c0,0.5,0.1,0.8,0,0.3C6.9,38.8,6.9,38.7,6.8,38.6 M6.9,31.2C6.9,31.2,6.9,31.2,6.9,31.2C6.9,31.3,6.9,31.2,6.9,31.2 M70.6,28.3
			L70.6,28.3C70.6,28.2,70.6,28.2,70.6,28.3L70.6,28.3z M70.6,28.2l-0.2-0.4C70.5,28.5,70.5,28.2,70.6,28.2 M7.4,28.7
			c0,0.2,0.1,0.4,0.1,0.4c0-0.5,0.1-0.8,0.2-1.2l-0.4,0.3L7.4,28.7z M70.2,43.4c0-0.1,0-0.1,0-0.1C70.3,43.4,70.3,43.4,70.2,43.4
			 M70.5,42.3l0.1-0.4C70.5,42.1,70.5,42.2,70.5,42.3 M8.3,46.7c0-0.2-0.1-0.4-0.2-0.7L8.3,46.7z M6.6,34c0,0,0,0.1,0,0.2
			c0,0.1,0,0.3,0,0.4c0,0.3,0,0.6,0,0.6l0.1-0.6l-0.1,0C6.7,33.9,6.6,34.1,6.6,34 M7.4,29.1c0-0.3-0.2,0.2-0.1-0.5
			C7.3,29.1,7.1,30,7.4,29.1 M20.5,62.2L20.5,62.2C20.5,62.3,20.6,62.3,20.5,62.2 M22.4,63.4c0.2,0.1,0.3,0.2,0.4,0.3
			C22.8,63.6,22.7,63.6,22.4,63.4 M40.8,68.2c0.1,0,0.2,0,0.2,0C40.9,68.2,40.9,68.2,40.8,68.2 M35.7,68l0.4-0.1
			C35.4,67.8,35.7,67.9,35.7,68 M35.6,68L35.6,68C35.6,68,35.6,68,35.6,68L35.6,68z M69.8,44.8L69.8,44.8
			C69.9,44.8,69.9,44.7,69.8,44.8 M29.9,5.3c-0.1,0.1-1.2,0.5-0.1,0.2C29.9,5.4,30.7,5.1,29.9,5.3 M7.4,30C7.4,30.1,7.4,30.1,7.4,30
			C7.4,30,7.4,30,7.4,30 M47.4,4.4c0.1,0,0.2,0.1,0.3,0.1l0-0.1C47.3,4.3,46.9,4.3,47.4,4.4 M30.4,66.6c-0.2-0.1-0.5-0.1-0.7-0.2
			C30.2,66.6,30.4,66.8,30.4,66.6 M40.4,3.5l0.8,0.1l-0.2,0L40.4,3.5z M6.8,40.3c0,0,0,0.1,0,0.1c0,0.1,0,0.2,0.1,0.3
			c0-0.1,0-0.1,0-0.2C6.8,40.4,6.8,40.3,6.8,40.3 M71.2,37.1c0-0.4,0-0.7,0-1l-0.1,0.4c0,0.1,0,0.2,0,0.3c0,0.1,0,0.1,0,0.1
			c-0.1-1,0-1.8-0.2-1c0.1,0,0.1,0.3,0.1,0.6c0,0.3,0,0.7-0.1,1.1c0,0.2,0,0.4,0,0.6c0,0.2,0,0.4,0,0.5c0,0.3,0,0.5,0.1,0.6
			c0,0,0,0,0,0c0,0,0,0,0,0c0,0,0,0,0,0c0,0,0,0,0,0c0,0,0,0,0,0c0,0,0,0.1,0,0.2c0,0,0,0.1,0,0.1c0,0.1-0.1,0.3-0.1,0.3
			c0-0.2,0-0.2,0-0.3c-0.1,0.5-0.1,0.7-0.1,1c0,0,0,0,0,0.1c0,0,0,0.1,0,0.1c-0.1,0.4-0.1,0.7-0.1,0.9l0.2-0.7v0
			c-0.1,0.4-0.1,0.8-0.2,1.2c-0.1,0.3-0.2,0.4-0.1,0.1c0,0,0,0.3-0.1,0.5c0,0.3-0.1,0.5-0.1,0.5c-0.1,0.3-0.1,0.2-0.1,0
			c0,0.2-0.1,0.4-0.2,0.7c-0.1,0.2-0.1,0.4-0.1,0.6c0,0.1-0.1,0.2-0.1,0.2l0,0c0,0.1,0,0.3-0.1,0.5c0,0.1-0.1,0.3-0.1,0.4
			c0,0,0,0,0,0c0,0,0,0,0,0.1c-0.1,0.3-0.2,0.6-0.3,0.9c0-0.1,0.1-0.6,0.3-1.1c-0.6,0.7-0.2,0.8-1,2.4c0,0,0-0.1,0-0.1
			c0-0.1,0.1-0.2,0.1-0.3l0.1-0.4c-0.4,0.5-0.6,1.1-1.1,1.9c0.1-0.2,1-1.7,0.7-0.7c-0.1,0.2-0.3,0.6-0.5,1.1c-0.1-0.1-0.3,0.4-0.6,1
			l-0.1-0.1c-0.3,0.7-0.2,0.6-0.3,1c-0.4,0.7-0.6,0.8-0.8,0.9c-0.7,1.1,0.6-0.6-0.1,0.7c-0.6,0.9-1,1.5-1.6,2.6
			c-0.5,0.6,0-0.2-0.2,0L64,56.3c-0.1,0.1-0.1,0.1-0.1,0c-0.1,0.2-0.1,0.3-0.1,0.3c-0.2,0.2-0.4,0.5-0.5,0.7
			c-0.3,0.5-0.7,0.8-1.1,1.1c-0.1,0.1-0.1,0.2-0.1,0.2c-0.2,0.2-0.4,0.4-0.5,0.6c-0.2,0.2,0-0.2-0.1-0.1c-0.3,0.4-0.4,0.6-0.6,0.7
			c-0.2,0.2-0.4,0.4-0.7,0.6c0.1-0.1,0.1-0.1,0.2-0.2c-0.5,0.4-0.8,0.9-1.4,1.2c-0.2,0.4-0.7,0.6-0.7,0.8c0,0,0.1-0.1,0.2-0.1
			c0,0,0.1-0.1,0.1-0.1c0,0,0.1,0,0.1,0c0.1-0.1,0-0.1-0.1,0c0.1-0.1,0.2-0.2,0.3-0.2c0,0,0,0,0,0c0.1-0.1,0.2-0.1,0.2-0.1
			c-0.1,0.1-0.3,0.3-0.4,0.4c0,0,0,0,0,0c-0.1,0.1-0.2,0.2-0.3,0.3c0.1-0.1,0.1-0.1,0-0.1c0,0-0.1,0.1-0.3,0.3l-0.2,0c0,0,0,0,0,0
			l-0.1,0l0,0.1c0,0-0.1,0.1-0.2,0.2c-0.1,0.1-0.3,0.2-0.5,0.3c0,0-0.1,0-0.1,0.1c0.4-0.3,1.4-1,1.9-1.6c-0.4,0.2-1.2,1.1-1,0.7
			c-0.3,0.6-1.3,0.9-2.1,1.7l0-0.1c-0.1,0.1-0.4,0.3-0.7,0.5l0.4-0.4c-0.3,0.3-0.7,0.5-1.1,0.7c-0.4,0.2-0.8,0.3-1.1,0.6
			c1.4-0.8,0.6-0.2,1-0.3c-0.1,0.1-0.2,0.1-0.3,0.2c-0.1,0.1-0.2,0.1-0.3,0.2c-0.4,0.2-0.6,0.3-0.8,0.3c-0.2,0-0.4,0.1-0.6,0.2
			c-0.2,0.1-0.6,0.2-1,0.4c0.1-0.1,0.3-0.1,0.5-0.2c0.2-0.1,0.3-0.1,0.1,0.1c-0.4,0.2-1,0.3-1.3,0.4c-1.5,0.6,0.3,0-0.3,0.3
			c-0.6,0-0.7,0.3-1.4,0.6l0-0.1c-0.9,0.2-1,0.3-1.1,0.4c0,0,0,0,0,0c-0.2,0.1-0.4,0.1-0.6,0.2c0,0,0,0,0,0c0.2-0.1,0.3-0.2,0.3-0.2
			s-0.2,0.1-0.4,0.1l-0.4,0.1l0.1-0.2c-0.4,0.1-0.7,0.2-1,0.3c-0.3,0.1-0.6,0.1-1,0.1c0.2,0,0,0.2-0.6,0.3c0.1-0.1,0.1-0.1,0.2-0.2
			c0,0-0.2,0.1-0.4,0.2c0,0-0.1,0-0.1,0c-0.4,0,0.2-0.1-0.6,0c0,0,0.1-0.1,0.1-0.1c0,0,0,0,0,0c0.2,0,0.4-0.1,0.7,0
			c0,0,0.2-0.1,0.3-0.2c-0.6,0-1.5,0.1-1.9,0.2c0.2,0,0.3,0,0.4,0c0,0-0.1,0-0.3,0.1c-0.2,0-0.4,0.1-0.6,0.1c0,0-0.1,0-0.1,0
			c-0.1,0-0.2,0-0.3,0c-0.1,0-0.2,0-0.4,0c0,0,0.1,0,0.2,0c-0.3,0-0.6,0.1-1,0.1c0.1-0.1,0.1-0.2,0.6-0.2c0,0,0,0,0,0
			c-0.1,0-0.3,0-0.5,0c-0.4,0-0.8,0.1-0.8,0.1c-0.1,0-0.8-0.1-0.6-0.2c-0.4-0.1-1,0-1.5,0c-0.3,0-0.6,0-0.9,0c-0.1,0-0.3,0-0.4,0
			c-0.1,0-0.3,0-0.4-0.1c-0.1,0-0.2,0-0.4,0c-0.2,0-0.4-0.1-0.7-0.1c0,0,0,0-0.1-0.1c-0.4-0.1-0.5-0.1-0.6-0.1c-0.1,0-0.2,0-0.2-0.1
			c-0.3-0.1-0.5-0.1-0.8-0.2c-0.3-0.1-0.6-0.1-0.9-0.2l-0.4-0.2c0.1,0,0.1,0,0.2,0c0,0-0.1,0-0.2-0.1L31.3,67
			c-0.2-0.1-0.3-0.1-0.3,0c-0.1,0-0.2-0.1-0.3-0.1l-1-0.3c0,0.2-1.3-0.3-1.5-0.2c-0.1,0-0.2-0.1-0.3-0.1c0,0,0.1,0,0.1,0
			c-0.1,0-0.3-0.1-0.5-0.1c-0.1-0.1-0.2-0.1-0.3-0.2c0.3,0.1,0.6,0.2,0.9,0.3l-0.7-0.4c1,0.2,1.6,0.5,1,0.1
			c-0.1,0.1-0.9-0.2-1.6-0.4c-0.7-0.3-1.4-0.6-1.6-0.5c0,0-0.1,0-0.1-0.1c-0.1,0-0.2-0.1-0.3-0.2c0.1,0,0.1,0,0.2,0.1
			c-0.2-0.1-0.3-0.2-0.4-0.2c-0.2-0.2-0.4-0.3-0.4-0.3c0,0,0.1,0.1,0.1,0.2c-0.1,0-0.1,0-0.2,0c-0.2,0-0.5-0.1-1.1-0.5
			c-0.1-0.1-0.2-0.1-0.2-0.2c0.1,0,0.1,0,0-0.1l0.2,0.1c-0.1,0-0.1-0.1-0.2-0.1c0,0,0,0,0,0c0,0,0,0,0,0c-0.1,0-0.1,0-0.1-0.1
			l0.1,0.1c0,0-0.1,0-0.2-0.1c-0.1-0.1,0-0.1,0.1,0c0,0-0.2-0.1-0.4-0.2c0,0,0.1-0.1-0.4-0.3c-0.1,0-0.2,0-0.3-0.1
			c0,0-0.1,0-0.1-0.1c-0.2-0.1-0.4-0.3-0.3-0.2c0,0-0.1,0-0.1,0c-0.2-0.1-0.3-0.2-0.5-0.3c-0.1-0.1-0.2-0.1-0.2-0.1h0h0c0,0,0,0,0,0
			c-0.1-0.1-0.2-0.1-0.3-0.2c0,0,0,0.1,0,0.1c-0.2-0.1-0.5-0.2-0.6-0.3c-0.3-0.3,0.2,0.1,0.1,0c0,0-0.2-0.1-0.4-0.2
			c-0.2-0.1-0.4-0.2-0.4-0.2c-0.2-0.3,0.4,0.1,0.9,0.5c-0.3-0.4-0.4-0.5-0.7-0.6c-0.1-0.1-0.3-0.2-0.5-0.3c-0.2-0.2-0.5-0.4-0.8-0.7
			c0,0,0.2,0.1,0.3,0.3c0.2,0.1,0.3,0.2,0.3,0.2c-0.2-0.2-0.4-0.5-0.6-0.7c-0.3-0.3-0.6-0.5-0.9-0.9c0.1,0.2,1.3,1.5,0.5,0.9
			c-0.2-0.2-0.5-0.4-0.9-0.8c0.1-0.1-0.3-0.4-0.8-0.9l0.1-0.1c-0.5-0.5-0.5-0.4-0.9-0.6c-0.1-0.2-0.3-0.3-0.3-0.4
			c0,0,0.1,0.1,0.2,0.2c0.2,0.2,0.4,0.4,0.2,0.1c-0.1,0-0.3-0.2-0.5-0.4c0,0,0,0,0,0c-0.1-0.2-0.1-0.3-0.2-0.5
			c-0.8-1,0.4,0.8-0.6-0.3c-0.2-0.2-0.3-0.4-0.5-0.6c-0.1-0.2-0.3-0.4-0.4-0.6c-0.3-0.4-0.6-0.7-1-1.2c-0.3-0.5,0-0.2,0-0.1
			c0,0,0,0.1,0,0.2l0.1-0.1l-0.3-0.3c0,0.1,0.1,0.1,0.1,0.2l-0.4-0.4c-0.1-0.1,0-0.1,0-0.1c-0.1-0.2-0.2-0.2-0.2-0.2
			c-0.1-0.2-0.3-0.5-0.4-0.7c-0.3-0.5-0.6-1-0.8-1.5c-0.1-0.2-0.2-0.5-0.3-0.7c0,0,0,0,0,0c0,0,0,0,0-0.1c-0.1-0.2-0.2-0.4-0.3-0.6
			c-0.2-0.3-0.4-0.8-0.4-0.5l0.1,0.2c-0.2-0.4-0.3-0.5-0.7-1.2c0,0-0.1-0.2-0.1-0.4c0,0,0,0,0,0c0,0,0,0,0,0c0,0,0,0,0-0.1
			c0-0.1-0.1-0.3-0.1-0.3c0-0.1,0-0.2,0-0.2c0,0.2,0,0.3,0,0.3c-0.1-0.2-0.1-0.5-0.2-0.8c0,0,0,0,0-0.2c0,0.1,0,0.1,0,0.1
			c-0.1-0.3-0.1-0.6-0.2-0.8l0-0.2L7.7,45c0,0-0.1-0.4-0.2-0.9c0-0.2-0.1-0.4-0.1-0.6c0-0.2,0-0.3,0-0.3C7.3,43,7.2,42.7,7,42.4
			c-0.1-0.3-0.2-0.6-0.3-0.9c0-0.2,0-0.6,0-0.9c0-0.1,0-0.1,0-0.2c0,0.2,0.1,0.3,0.1,0.5c0,0.1,0.1,0.3,0.1,0.5c0,0.1,0,0.2,0,0.3
			c0-0.2,0.1,0.1,0.2,0.4c0.1,0.3,0.2,0.7,0.3,0.6c0,0-0.1-0.2-0.1-0.4c-0.1-0.2-0.1-0.4-0.1-0.4c0,0,0.1,0.3,0.1,0
			C7.2,41.8,7,41,7,40.2c-0.1-0.4-0.2-0.4-0.3-0.3c0-0.2-0.1-0.4-0.1-0.4c0.1,0,0.1-0.1,0.1-0.3c0-0.2,0-0.4,0-0.6
			c-0.1,0.2-0.2-0.1-0.2-0.5c0,0,0-0.1,0.1-0.2c0-0.7-0.1-0.7-0.1-0.9c0-0.2,0-0.4,0-0.5c0.1,0,0.2,0.1,0.2,1.1
			c0.2-1-0.3-1.3-0.1-2.3c0,0.2,0,0.3,0,0.4c0-0.3,0-0.7,0-1.1c0-0.4,0.1-0.6,0.1-0.4l0,0.2c0-0.4,0.1-0.8,0.1-1.3
			c0.1-0.5,0.1-1,0.2-1.5C6.9,31,7,30.6,7,30.2c0-0.3,0.1-0.6,0-0.6c0,0,0.2,0.3,0.2,0.3c0,0,0-0.7,0-1.4c0-0.7,0-1.4,0-1.4
			c0.1,0.3,0.8-0.5,0.5,0.8c0.1-0.2,0.1-0.4,0.2-0.6c0.1-0.2,0.2-0.5,0.3-0.9c-0.1,0.1-0.2,0.3-0.3,0.3c0,0,0-0.1,0-0.1
			c0-0.1,0-0.1,0-0.2c0.3-0.6,0.2-0.5,0.7-1.4c-0.2,0.3-0.3-0.2-0.1-0.7c0,0.1,0.3,0.1,0.2,0.3c0,0,0-0.1,0-0.2
			c0-0.1,0.1-0.3,0.1-0.5c0.1-0.4,0.2-0.7,0.2-0.7c-0.1,0.4,0.2,0.2,0.4-0.1c-0.1,0.1,0.6-1.1,0.7-1.5c0,0-0.1,0.1-0.2,0.3
			C10.1,22,10,22.1,10,22.1c0-0.1,0.1-0.1,0.1-0.2c0,0,0-0.1,0-0.1l0-0.1c0.1-0.2,0.2-0.4,0.3-0.6c0.1-0.2,0.2-0.4,0.2-0.6
			c0-0.1,0-0.2,0.1-0.3c0.1-0.2,0.2-0.4,0.4-0.6l0.1-0.1l0.1-0.4c0,0,0-0.1,0.1-0.1c-0.1,0.2,0,0.6,0.5-0.1c0-0.2,0.1-0.5,0.3-1
			l0.1-0.2l0-0.1L12.1,18c0.2-0.5,0.4-1,0.7-1.6c0.1-0.1,0.2-0.2,0.3-0.3l0.2-0.1l0.4-0.6c0.1-0.1,0.1-0.1,0.2-0.2
			c-0.3,0.7-1.1,2.4-1.5,3.3c0.4-0.5,0.2-0.1,0.7-0.8c0.3-0.2-0.2,0.5-0.3,0.7c0,0,0.3-0.4,0.6-0.8c0.2-0.2,0.3-0.4,0.4-0.6
			c0.1-0.2,0.2-0.3,0.2-0.3c-0.2,0,0.9-1.3,0.8-1.4c0,0-0.1,0.1-0.2,0.3c-0.1,0.2-0.3,0.4-0.5,0.6c-0.2,0.2-0.3,0.5-0.4,0.6
			c-0.1,0.2-0.2,0.3-0.2,0.3c-0.1,0,0-0.4,0.3-0.8c0.3-0.5,0.7-1.1,1.2-1.6c0.3-0.2,0,0.4,0.1,0.4c0.1-0.2,0.9-1.1,1-1.2
			c0,0-0.1,0.1-0.2,0.3c-0.1,0.1-0.2,0.3-0.2,0.3c0.3-0.3,0.5-0.5,0.7-0.8c0.2-0.3,0.5-0.6,0.9-0.8c0.3-0.2,0.9-0.5,0.9-0.6
			c-0.1,0.1-0.3,0.1-0.4,0.1c0.3-0.4,0.7-0.7,1.2-1.1c0,0,0.1,0,0.1-0.1c0,0,0,0,0.1,0c0,0,0.1-0.1,0.1-0.2c0.1-0.1,0.2-0.2,0.3-0.2
			c0.1,0,0,0.1,0.4-0.2c0-0.2,1-0.7,0.5-0.5c0-0.1,0.1-0.1,0.1-0.2c0.3-0.2,0.5-0.3,1-0.6c-0.1,0-0.1,0,0-0.2c0,0,0.1-0.1,0.1-0.1
			L21.7,9c0.2-0.2,0.4-0.3,0.7-0.5c0.2-0.1,0.4-0.3,0.6-0.4c0.4-0.2,0.7-0.5,1.1-0.6c0.7-0.4,1.4-0.7,2.5-1.2c0.2,0,0.8-0.2,0.5-0.1
			c0.2-0.1,0.3-0.2,0.8-0.4c0.9-0.2-0.9,0.4-0.2,0.3c0-0.1,1-0.6,1.6-0.8c-0.2-0.1-1.4,0.5-2,0.8c0-0.1,0-0.1,0.1-0.2
			c0,0,0.1,0,0.1,0c0.1-0.1,0.1-0.1,0-0.1c0,0,0.1,0,0.1-0.1c0.3-0.1,0.7-0.3,1.1-0.4c0.1,0,0.2-0.1,0.2-0.1c0.1,0,0.2,0,0.4-0.1
			c0.1,0,0.1-0.1,0.2-0.1C29.7,5,29.8,5,29.9,5c0.4-0.1,0.6-0.2,0.8-0.1c0.8-0.2-0.3-0.1,0.5-0.3l0.2,0l0.2-0.1
			c0.3-0.1,0.5-0.1,0.6-0.1c0,0,0,0,0.1,0c-0.3,0.1-0.5,0.1-0.7,0.2c0.2,0,0.5-0.1,0.8-0.1c0,0,0,0,0.1,0c-0.1,0-0.4,0.1-0.5,0.1
			c0.6-0.1,1.7-0.4,2.1-0.5c-0.1,0-0.2,0-0.3,0c-0.2,0-0.4,0.1-0.4,0.1c0.1,0,0.2,0,0.2-0.1c0.1,0,0.2,0,0.3,0
			c0.5-0.1,1.1-0.2,1.7-0.2c0.3,0,0.5-0.1,0.8-0.1c0.3,0,0.5,0,0.7,0c0.2,0,0.4-0.1,0.6-0.1c1-0.1,2.1-0.1,3-0.1l-0.2-0.1
			c0.8,0,1.2,0,1.5,0.1l-0.2,0.1l0.5,0.1l-0.1-0.1c0.2,0,0.3,0.1,0.6,0.1c0.3,0,0.6,0.1,1,0.1l-0.1,0c0.1,0,0.2,0,0.2,0
			c-0.1,0-0.2,0-0.2,0.1c0,0,0.2,0,0.4,0c0.2,0,0.4,0,0.4,0c0,0-0.3,0-0.1,0.1c0,0,0.3-0.1,0.6,0c0.2,0.1,0.6,0.2,0.2,0.2
			c0.5,0,0.7,0.1,0.9,0.1c0.2,0,0.3,0,0.4,0c0.2,0,0.2,0,0.9,0l0.3,0.2c0.4,0,0.5,0,1.4,0.2c-0.8-0.2,0.5,0.3-0.3,0.2
			C49.2,5,49.6,5.2,50,5.3c0.4,0.1,0.7,0.2,1,0.3c0.3,0.1,0.5,0.2,0.8,0.3C52,6,52.1,6.1,52.3,6.2c0.5,0.1,0.1-0.1-0.3-0.3
			c-0.4-0.2-0.9-0.4-0.7-0.3c-0.2-0.1,0-0.1,0.3,0c0.3,0.1,0.7,0.3,1,0.4c0.3,0.1,0.5,0.3,0.8,0.6c0.2,0.1,0.3,0.3,0.6,0.4
			c0.2,0.1,0.5,0.3,0.9,0.5c-0.1-0.1-0.2-0.1-0.3-0.1c0.2,0.2,0.5,0.3,0.8,0.4c0.1,0.1,0.3,0.1,0.4,0.2c0.1,0.1,0.3,0.2,0.4,0.3
			c0.4,0.1,0.8,0.5,1,0.4L56,7.9c0.4,0.2,0.7,0.3,1.2,0.5c0.4,0.2,0.9,0.5,1.4,0.9c-0.1,0-0.5-0.2-0.7-0.3c0.3,0.3,0.7,0.4,1,0.7
			c-0.1,0-0.2,0-0.3-0.1c-0.2-0.1-0.4-0.2-0.6-0.4c-0.2-0.1-0.5-0.3-0.7-0.5c-0.2-0.1-0.5-0.3-0.7-0.3c0.2,0.2,0.5,0.3,0.8,0.5
			c0.3,0.2,0.4,0.3,0.2,0.2c0.3,0.1,0.7,0.3,1,0.5c0.4,0.3,0.7,0.6,1.2,0.8l-0.1,0.1c0.1,0.1,0.5,0.3,0.7,0.5l-0.5-0.2
			c0.4,0.2,0.7,0.5,1,0.8c0.3,0.3,0.6,0.6,0.9,0.8c-1.3-1.1-0.2-0.4-0.7-0.9c1.7,1.3,0.8,1,2.5,2.7c-0.2-0.2-0.8-0.9-0.4-0.6
			c0.3,0.3,0.7,0.8,0.8,1.1c1.1,1.2-0.1-0.3,0.4,0.2c0.2,0.5,0.5,0.6,1,1.1L65.2,16c0.5,0.8,0.6,0.8,0.7,0.9c0.1,0,0.1,0,0.2,0.1
			c0.1,0.1,0.2,0.3,0.4,0.6c0,0-0.1-0.1-0.3-0.2c-0.1-0.1-0.3-0.2-0.3-0.2s0,0,0.1,0.1c0.1,0.1,0.1,0.1,0.2,0.2
			c0.1,0.2,0.3,0.4,0.3,0.4l-0.2-0.1c0.3,0.4,0.5,0.6,0.6,0.9c0.2,0.3,0.3,0.5,0.5,0.9c0-0.1,0-0.1,0.2,0c0.1,0.1,0.3,0.3,0.5,0.7
			c0.2,0.5-0.2-0.2,0.3,0.8c-0.2-0.2-0.4-0.4-0.5-0.9c-0.1,0-0.2-0.2-0.2-0.2c0.1,0.3,0.3,0.6,0.4,0.9c0.2,0.3,0.3,0.6,0.4,0.8
			c-0.1-0.2-0.1-0.3-0.2-0.4c0,0,0.1,0.1,0.1,0.2c0.1,0.1,0.2,0.3,0.3,0.5c0.1,0.1,0.1,0.2,0.2,0.3c0,0.3,0.1,0.6,0,0.6
			c0,0,0.1,0.1,0.1,0.1c0,0,0.2,0.4,0.3,0.7c0.1,0.2,0.1,0.5,0.2,0.8c0.1,0.2,0.1,0.4,0.2,0.6c0,0,0,0,0,0c0.1,0.2,0.1,0.4,0.2,0.7
			c0.1,0.2,0.1,0.4,0.2,0.6c0,0,0,0,0,0c0,0,0.1,0.1,0.1,0.1c0,0,0,0,0,0c0.1,0.3,0.2,0.6,0.3,0.8c0,0.2,0.1,0.3,0.1,0.5l0,0l0,0
			c0,0.1,0,0.2,0.1,0.4c0,0,0.1,0.1,0.1,0.2c0,0.1,0,0.1,0,0.2c0,0.1,0,0.2,0,0.2c0.1,0.5,0.1,0.9,0.2,1.4c0.1,0.5,0.1,1.1,0.2,1.8
			l-0.1,0.8c0.1,0.7,0.1,0,0.2,0c0,0,0,0.1,0,0.1c0,0.3,0,0.6,0,0.9l0.1-0.2c0,0.2,0,0.4,0,0.5c0,0.2-0.2-0.1-0.2,0.2
			C71.3,35,71.5,36,71.2,37.1 M68.5,48.5c0.1-0.2,0.2-0.7,0.3-0.9C68.9,47.9,68.7,48.1,68.5,48.5 M59.1,61.6c-0.1,0-0.1,0.1-0.2,0.1
			c0.2-0.2,0.5-0.4,0.5-0.4C59.3,61.4,59.2,61.5,59.1,61.6 M57.2,63.3C57.2,63.3,57.2,63.3,57.2,63.3c0,0,0.1-0.1,0.1-0.1
			C57.3,63.2,57.2,63.3,57.2,63.3 M30.9,67.1c-0.1-0.1,0-0.1,0.1-0.1c0.1,0,0.1,0.1,0.2,0.1C31.2,67.1,31.1,67.1,30.9,67.1 M30.1,67
			c-0.3-0.1-0.2-0.1-0.2-0.2c0.3,0.1,0.5,0.1,0.5,0.1C30.4,66.9,30.3,67,30.1,67 M17.4,59.9c0.2,0.1,0.6,0.4,0.7,0.6
			C17.8,60.4,17.7,60.2,17.4,59.9 M10.9,52.4c-0.1,0-0.2-0.2-0.3-0.5c0,0,0,0,0,0c0.2,0.3,0.3,0.6,0.5,0.8
			C11,52.6,11,52.5,10.9,52.4 M8,46.7c0-0.1-0.1-0.2-0.1-0.3L8,46.2c0,0,0,0.2,0.1,0.4c0,0.1,0.1,0.3,0.1,0.4
			C8.2,47,8.1,46.9,8,46.7 M7.6,45.8c0,0,0,0,0-0.1c0,0,0,0,0,0C7.6,45.8,7.6,45.8,7.6,45.8C7.6,45.9,7.6,45.9,7.6,45.8 M7.5,45.1
			C7.5,45.1,7.5,45.1,7.5,45.1L7.5,45.1C7.5,45.1,7.5,45.1,7.5,45.1 M7.3,44.1c0,0.1,0.1,0.3,0.1,0.4c0,0.1,0,0.1,0,0.2
			C7.4,44.5,7.3,44.3,7.3,44.1 M7.6,46.3c0-0.1-0.1-0.3-0.1-0.4c0-0.1,0-0.2-0.1-0.3c0,0,0,0.1,0,0.1c0-0.2-0.1-0.3-0.1-0.5
			c0,0,0.1,0.1,0.1,0.2c0-0.1-0.1-0.2-0.1-0.2c0-0.2,0-0.3,0-0.3c0,0.1,0,0.2,0.1,0.2c0,0.1,0.1,0.3,0.1,0.4c0,0-0.1-0.1-0.1-0.1
			c0,0.1,0.1,0.2,0.1,0.3c0,0.1,0.1,0.2,0.1,0.2c0,0.3,0.1,0.5,0.1,0.7C7.7,46.5,7.6,46.4,7.6,46.3 M6.5,40.7c0,0,0.1,0.2,0.2,0.7
			C6.6,41.2,6.6,41,6.5,40.7 M6.4,40.3C6.4,40.3,6.4,40.3,6.4,40.3c0-0.2,0-0.3,0-0.5c0-0.3,0-0.5-0.1-0.7c0.1,0,0.1-0.1,0.2-0.1
			c-0.1,0.3,0,0.6,0.1,1c-0.1,0.1-0.1,0.3-0.1,0.5C6.5,40.5,6.5,40.4,6.4,40.3 M6.3,39.6c0-0.2-0.1-0.4-0.1-0.7
			c0,0.1,0.1,0.2,0.1,0.2C6.3,39.3,6.3,39.5,6.3,39.6 M7.3,27L7.3,27L7.3,27z M7.9,26.6c0-0.1,0.1-0.1,0.1-0.2c0,0.1,0,0.2-0.1,0.3
			C7.9,26.7,7.9,26.7,7.9,26.6 M11.2,19.3c-0.1,0.2-0.2,0.4-0.3,0.6C10.9,19.8,11,19.6,11.2,19.3 M17.3,11.7
			C17.3,11.7,17.3,11.7,17.3,11.7C17.3,11.7,17.3,11.7,17.3,11.7C17.3,11.7,17.3,11.7,17.3,11.7 M20.5,9.9C20.5,10,20.5,10,20.5,9.9
			c-0.1,0.1-0.2,0.2-0.3,0.2C20.3,10,20.4,10,20.5,9.9 M69.2,23.4C69.1,23.3,69,23.2,69,23C69,23.1,69.1,23.2,69.2,23.4 M39.1,1.8
			C20.1,1.8,4.8,17.1,4.8,36.1c0,18.9,15.3,34.3,34.3,34.3C58,70.3,73.3,55,73.3,36.1C73.3,17.1,58,1.8,39.1,1.8 M70.5,41.6
			c0,0,0.1-0.1,0.1-0.1l0.1-0.1l-0.2,0.1L70.5,41.6z M71,33.8c0,0.3,0,0.7,0,1C71,34.1,71.2,33.7,71,33.8 M67.5,50.1
			c0.1-0.1,0.2-0.2,0.3-0.5L67.5,50.1L67.5,50.1z M32,4.6l0,0.2l0.4-0.1C32.1,4.6,32.1,4.6,32,4.6 M8.5,47.2
			c-0.1-0.3-0.2-0.5-0.2-0.6C8.3,46.7,8.4,47,8.5,47.2 M8.7,47.8c-0.1-0.2-0.1-0.4-0.1-0.4c0,0-0.1-0.1-0.1-0.2
			C8.6,47.4,8.6,47.7,8.7,47.8c0.1,0.3,0.1,0.4,0.1,0.4c0,0,0-0.1,0-0.1C8.8,48,8.7,47.9,8.7,47.8 M7.6,44.4l0.2,0.3l-0.1-0.5
			L7.6,44.4z M8.1,45.6l0.2,0.6L8,45.3L8.1,45.6z M13.4,55.6c0.1,0.1,0.9,0.9,0.2,0.1C13.5,55.6,13,54.9,13.4,55.6 M11.2,20.1
			c0-0.1,0.1-0.2,0.1-0.3C11.3,19.9,11.2,20,11.2,20.1 M11.2,20.1c-0.3,0.6-0.5,0.9-0.2,0.7c0.6-0.9,0-0.3,0.6-1.1
			C11.7,19.4,11.1,20.3,11.2,20.1 M23.3,63.8l0.2,0.3l-0.1-0.2L23.3,63.8z M16.2,58.4c0,0.1,0.2,0.2,0.4,0.4L16.2,58.4L16.2,58.4z"
			/>
		<path class="st33" d="M58.6,18.4c-0.2,0-0.4,0-0.7-0.1c-0.3-0.2-0.5-0.5-0.6-0.9c-0.6-1.6-1.8-8.1,0-11.2c1-1.8,3-3,4.9-3
			c0.7,0,1.3,0.2,1.9,0.5c0.8,0.4,1.5,1.1,1.8,2.1c0.6-0.3,1.3-0.4,2.1-0.4c2.2,0,4.3,1.5,5.1,3.5c0.9,2.7-0.5,6-3.1,7.2
			C66.4,17.6,60.1,18.4,58.6,18.4"/>
		<path class="st1" d="M62.2,2.4L62.2,2.4c-2.2,0-4.4,1.4-5.6,3.4c-1.9,3.4-0.8,10,0,11.9c0.1,0.3,0.3,0.9,0.9,1.3
			c0.5,0.3,0.9,0.3,1.2,0.3c1.5,0,8-0.7,11.7-2.5c3.1-1.5,4.6-5.2,3.5-8.3C73,6.1,70.6,4.4,68,4.4c-0.6,0-1.1,0.1-1.6,0.2
			c-0.4-0.8-1.1-1.4-1.9-1.8C63.8,2.5,63,2.4,62.2,2.4 M62.2,4c0.5,0,1.1,0.1,1.6,0.4c1,0.5,1.5,1.5,1.6,2.6
			c0.2-0.2,0.5-0.3,0.7-0.4c0.6-0.3,1.3-0.5,1.9-0.5c1.8,0,3.6,1.2,4.3,3c0.8,2.3-0.5,5.1-2.7,6.2c-3.4,1.6-9.7,2.3-11,2.3
			c-0.2,0-0.2,0-0.3,0c-0.6-0.2-2.2-7.8-0.3-11C58.9,5.1,60.5,4,62.2,4"/>
		<path class="st34" d="M64.8,9.6c-1.9,3.1-6.2,8-6.4,7.9c-0.6-0.2-2.2-7.8-0.3-11c1.1-1.9,3.7-3.2,5.7-2.2
			C65.7,5.3,65.7,8,64.8,9.6"/>
		<path class="st33" d="M69.6,15.3c-3.8,1.8-11.1,2.5-11.3,2.3c-0.4-0.6,3.4-9,7.7-11c2.4-1.2,5.3,0.1,6.2,2.5
			C73.1,11.4,71.8,14.2,69.6,15.3"/>
	</g>
	<g>
		<polygon class="st44" points="21.6,32.3 21.5,32.4 21.5,32.5 21.4,32.7 21.3,33 21.2,33.2 21,33.8 20.9,33.9 20.6,34.5 20.6,34.7 
			20.4,35.3 20.3,35.5 20.1,36.1 20,36.2 19.8,36.8 19.7,37 19.4,37.6 19.3,37.7 19.1,38.3 19,38.5 18.7,39.1 18.7,39.3 18.4,39.9 
			18.4,40 18.3,40 18.2,40 17.4,40 17.2,40 16.6,40.1 16.4,40.1 16.2,40.1 16.2,40 16.1,39.9 15.9,39.3 15.8,39.1 15.5,38.5 
			15.4,38.3 15.2,37.8 15.1,37.6 14.9,37 14.9,36.8 14.6,36.2 14.5,36.1 14.3,35.5 14.2,35.3 14,34.7 13.9,34.5 13.6,33.9 
			13.6,33.8 13.4,33.2 13.3,33 13.1,32.7 13,32.5 13,32.4 13,32.3 13,32.2 13.1,32.1 13.2,32.1 13.3,32.1 13.4,32.1 13.9,32.1 
			14.5,32.1 15.2,32.1 15.3,32.1 15.4,32.2 15.5,32.2 15.5,32.4 15.6,32.5 15.7,32.9 15.7,33 16,33.6 16,33.8 16.3,34.4 16.3,34.6 
			16.5,35.2 16.6,35.4 16.9,36.1 17.1,37 17.2,37.1 17.3,37.2 17.4,37.1 17.4,37 17.7,36.3 17.7,36.1 17.9,35.4 18,35.2 18.3,34.6 
			18.3,34.4 18.5,33.8 18.6,33.6 18.9,33 18.9,32.9 19,32.5 19.1,32.3 19.2,32.1 19.3,32.1 19.4,32.1 19.5,32.1 19.6,32.1 
			19.9,32.1 20.6,32.1 21.1,32.1 21.3,32.1 21.5,32.1 21.5,32.2 		"/>
		<polygon class="st44" points="28.7,39 28.7,39.2 28.6,39.8 28.6,39.9 28.6,40 28.5,40 27.1,40 26.9,40 26.3,40 26.1,40 25.6,40.1 
			25.4,40.1 24.6,40.1 24.1,40 23.9,40 22.9,40.1 22.6,40.1 22.4,40 22.4,40 22.3,39.9 22.3,39.8 22.3,39.5 22.3,39.4 22.3,39.2 
			22.3,39 22.3,38.4 22.3,38.3 22.3,37.7 22.3,37.5 22.3,36.9 22.3,36.7 22.3,36.1 22.3,35.2 22.3,34.6 22.3,34.5 22.3,33.9 
			22.3,33.7 22.3,33.4 22.3,33.1 22.3,32.9 22.3,32.4 22.4,32.2 22.4,32.1 22.4,32.1 22.5,32.1 22.7,32 23.4,32.1 24.1,32.1 
			24.2,32.1 24.9,32.1 25.1,32.1 25.7,32.1 25.9,32.1 27.4,32.1 27.6,32.1 28,32.1 28.2,32.1 28.4,32.1 28.5,32.1 28.5,32.2 
			28.5,32.4 28.5,32.7 28.5,32.9 28.5,33.1 28.5,33.4 28.5,33.6 28.5,33.7 28.5,33.9 28.4,33.9 28.4,34 28.2,34 28.2,34 28,34 
			26.9,34 26.8,34 26.2,34 26,34 25.5,34 25,34 24.8,34 24.7,34 24.6,34 24.5,34 24.5,34.1 24.5,34.2 24.5,34.5 24.5,34.7 
			24.5,34.9 24.5,35 24.5,35.1 24.6,35.1 24.7,35.1 25.1,35.2 25.4,35.1 26.5,35.1 27.7,35.1 28,35.1 28.1,35.1 28.2,35.2 
			28.2,35.2 28.3,35.4 28.3,35.6 28.3,35.7 28.3,36.1 28.3,36.4 28.3,36.7 28.3,36.8 28.2,36.9 28.1,37 28,37 27.8,37 27.3,36.9 
			27.1,36.9 26.3,37 25.6,36.9 25.4,36.9 24.9,36.9 24.8,36.9 24.6,36.9 24.6,37 24.5,37 24.5,37.2 24.5,37.5 24.5,37.7 24.5,37.9 
			24.5,38 24.5,38.1 24.6,38.1 24.7,38.1 25.3,38.2 25.5,38.2 26.1,38.1 26.8,38.2 27,38.2 27.8,38.1 28,38.1 28.1,38.1 28.5,38.2 
			28.6,38.2 28.6,38.3 28.7,38.4 		"/>
		<polygon class="st44" points="37.1,35.5 37.2,35.7 37.1,36.4 37.1,37.5 37.1,37.9 37.1,38.6 37.1,38.7 37,38.8 36.9,38.9 
			36.8,39.1 36.6,39.3 36.5,39.4 36.4,39.5 36.3,39.6 36.2,39.6 36.1,39.7 35.9,39.8 35.7,39.9 35.5,39.9 35.3,40 35.1,40 
			34.9,40.1 34.8,40.1 34.5,40.1 34.4,40.2 34.2,40.2 33.8,40.3 33.6,40.3 33.3,40.2 33,40.2 32.8,40.2 32.7,40.2 32.5,40.1 
			32.1,40 31.9,40 31.8,39.9 31.6,39.8 31.4,39.8 31.2,39.6 31.1,39.5 30.9,39.4 30.8,39.3 30.7,39.2 30.5,39.1 30.4,38.9 
			30.2,38.8 30.1,38.6 30,38.5 29.8,38 29.7,37.8 29.6,37.7 29.5,37.5 29.5,37.3 29.5,37.1 29.4,36.9 29.4,36.8 29.4,36.5 
			29.3,36.3 29.3,36.2 29.3,36 29.4,35.5 29.4,35.4 29.4,35.2 29.5,35 29.5,34.9 29.6,34.7 29.6,34.5 29.7,34.3 29.8,34.2 29.8,34 
			29.9,33.8 30,33.6 30.1,33.5 30.3,33.4 30.4,33.2 30.5,33.1 30.8,32.9 31,32.7 31.1,32.7 31.2,32.6 31.6,32.4 31.7,32.3 
			31.9,32.2 32.1,32.1 32.3,32.1 32.7,32 33,32 33.2,31.9 33.4,31.9 33.6,31.9 33.8,31.9 34,31.9 34.2,31.9 34.4,31.9 34.6,32 
			34.8,32 35,32.1 35.2,32.1 35.4,32.2 35.8,32.4 36,32.5 36.1,32.6 36.2,32.6 36.3,32.7 36.4,32.8 36.5,32.8 36.6,32.9 36.7,33 
			36.7,33.1 36.7,33.1 36.7,33.2 36.6,33.3 36.5,33.5 36.4,33.6 36.1,33.9 35.9,34.1 35.8,34.2 35.7,34.3 35.6,34.3 35.5,34.4 
			35.4,34.4 35.3,34.3 35.1,34.2 35,34.1 34.8,34 34.7,34 34.5,33.9 34.3,33.8 34.1,33.8 33.6,33.8 33.5,33.8 33.4,33.8 33.1,33.8 
			32.9,33.9 32.6,34 32.4,34.1 32.3,34.2 32.2,34.3 32,34.5 31.9,34.6 31.9,34.8 31.8,34.9 31.7,35.1 31.7,35.3 31.6,35.6 
			31.6,35.8 31.6,36 31.6,36.2 31.6,36.4 31.6,36.6 31.7,36.9 31.7,37 31.9,37.3 31.9,37.5 32.1,37.7 32.2,37.8 32.4,38 32.5,38.1 
			32.7,38.2 32.9,38.3 33.2,38.3 33.4,38.4 33.6,38.4 33.8,38.4 34,38.4 34.1,38.3 34.7,38.2 34.9,38.1 35.1,38 35.2,38 35.2,37.9 
			35.2,37.8 35.2,37.7 35.2,37.5 35.2,37.2 35.2,37 35.1,36.9 35,36.9 34.8,36.9 34.6,36.9 34.3,37 34.2,37 33.9,37 33.7,37 
			33.4,36.9 33.3,36.9 33.2,36.8 33.2,36.7 33.2,36.6 33.2,36.4 33.2,36.1 33.2,35.8 33.2,35.6 33.2,35.4 33.2,35.3 33.3,35.2 
			33.4,35.2 33.7,35.2 33.8,35.2 34.4,35.2 35.1,35.1 35.9,35.2 36.1,35.2 36.6,35.1 36.8,35.1 36.8,35.1 37,35.2 37.1,35.2 
			37.1,35.3 37.1,35.4 		"/>
		<path class="st44" d="M43,36.6l0-0.1l-0.2-0.7l-0.1-0.2l-0.2-0.6l-0.1-0.1l-0.1-0.1l-0.1,0l-0.1,0l-0.1,0.1l-0.3,0.8l-0.1,0.2
			l-0.3,0.7l0,0.2l0,0.1l0.1,0.1l0.2,0h0.7l0.5,0l0.1,0l0.1-0.1L43,36.6z M46.7,39.7l0,0.2L46.6,40l-0.1,0.1l-0.1,0h-0.2l-0.3,0
			l-0.2,0h-0.5l-0.7,0l-0.1,0L44.4,40l-0.1-0.1L44,38.9l-0.1-0.1l-0.1,0l-0.1,0l-0.7,0h-0.2l-0.8,0l-0.7,0h-0.2l-0.2,0h-0.5l-0.1,0
			l-0.1,0.1l-0.1,0.1L40,39.7l-0.1,0.2L39.8,40L39.6,40l-0.2,0l-0.6,0h-0.2L38,40l-0.1,0L37.7,40l-0.1-0.1l0-0.1l0-0.1l0.1-0.2
			l0.2-0.3l0.1-0.2l0.3-0.6l0.1-0.2l0.3-0.6l0.1-0.2l0.3-0.6l0.1-0.2l0.3-0.6l0.1-0.2l0.4-0.9l0.3-0.7l0.1-0.2l0.2-0.5l0.1-0.2
			l0.2-0.5l0.1-0.2l0.2-0.4l0.1-0.1l0.1-0.1l0.2,0l0.5,0h0.9l0.5,0l0.2,0l0.1,0.1l0.1,0.1l0.2,0.4l0.1,0.2l0.3,0.5l0.1,0.2l0.2,0.5
			l0.1,0.2l0.2,0.6l0.1,0.2l0.2,0.5l0.1,0.2l0.2,0.5l0.1,0.2l0.2,0.6l0.1,0.2l0.3,0.7l0.3,0.5l0.1,0.2l0.3,0.7L46.7,39.7z"/>
		<polygon class="st44" points="55.1,33.8 55.1,34 55.1,35.6 55.1,36.3 55.1,36.4 55.2,37.9 55.2,38.1 55.1,38.2 55.1,38.3 
			55.1,38.9 55.1,39.5 55.1,39.7 55.1,39.8 55,39.9 54.9,40 54.8,40 54.6,40 54,40.1 53.9,40.1 53.6,40.1 53.4,40.1 53.3,40.1 
			53.1,40 53,39.9 52.9,39.8 52.7,39.4 52.6,39.3 52.2,38.8 52.1,38.6 51.7,38.1 51.6,38 51.2,37.4 51.1,37.2 50.7,36.7 50.6,36.6 
			50.2,36 50.1,36 50,36 49.9,36.1 49.9,36.7 49.9,36.9 49.9,37.4 49.9,37.6 49.9,38.2 49.9,38.4 49.9,39 49.9,39.2 50,39.6 
			50,39.8 50,39.9 49.9,40 49.8,40 49.7,40 49.6,40.1 49.4,40.1 48.9,40.1 48.7,40.1 48.3,40.1 48.1,40.1 47.9,40.1 47.8,40 
			47.7,40 47.7,39.9 47.7,39.8 47.6,39.7 47.6,39.6 47.7,39.2 47.7,39 47.6,38.4 47.6,38.3 47.7,36.9 47.7,36.7 47.7,36.2 47.7,36 
			47.7,35.2 47.7,34.6 47.7,34.5 47.7,33.9 47.7,33.7 47.7,33.1 47.7,32.9 47.7,32.7 47.7,32.5 47.7,32.4 47.7,32.2 47.7,32.2 
			47.8,32.1 47.9,32.1 48.3,32.1 48.6,32.1 49.4,32.1 49.5,32.1 49.6,32.2 49.7,32.3 50.1,32.7 50.2,32.9 50.6,33.4 50.8,33.5 
			51.2,34.1 51.3,34.2 51.7,34.8 51.8,34.9 52.2,35.4 52.3,35.6 52.7,36.1 52.8,36.2 52.9,36.2 52.9,36.1 52.9,36 52.9,35.6 
			52.9,35.4 52.9,34.9 52.9,34.7 52.8,34.1 52.8,33.9 52.9,33.2 52.9,33 52.8,32.6 52.8,32.4 52.9,32.2 52.9,32.1 53,32.1 
			53.1,32.1 53.2,32.1 53.4,32 53.9,32.1 54.1,32.1 54.5,32.1 54.6,32.1 54.9,32.1 55,32.1 55.1,32.1 55.1,32.2 55.2,32.4 
			55.2,32.5 55.2,32.7 55.2,33 55.1,33.2 		"/>
		<path class="st44" d="M62.3,37.4l0.1-0.2l0.1-0.2l0.1-0.2l0.1-0.3l0-0.2l0-0.3V36l0-0.2l0-0.2l-0.1-0.3l0-0.2l-0.1-0.2l-0.1-0.1
			l-0.2-0.2l-0.1-0.1l-0.2-0.2l-0.1-0.1L61.5,34l-0.2-0.1l-0.2-0.1l-0.2,0l-0.4,0l-0.2,0l-0.2,0l-0.2,0l-0.3,0.1L59.6,34l-0.3,0.1
			l-0.2,0.1L59,34.4l-0.1,0.1l-0.1,0.2l-0.1,0.1l0,0.1l-0.1,0.2l-0.1,0.2l0,0.1l0,0.2l0,0.2l0,0.2l0,0.2v0.2l0,0.2l0,0.2l0,0.1
			l0,0.2l0,0.1l0.1,0.2l0,0.1l0.1,0.2l0.1,0.1l0.1,0.2l0.1,0.1l0.1,0.1l0.2,0.2l0.2,0.1l0.2,0.1l0.2,0.1l0.2,0.1l0.2,0l0.3,0l0.2,0
			l0.3,0l0.2,0l0.2-0.1l0.2-0.1l0.2-0.2l0.1-0.1l0.2-0.2l0.1-0.1L62.3,37.4z M65,36l0,0.2l0,0.3l0,0.2l-0.1,0.3l0,0.3l0,0.2l0,0.2
			l0,0.2l-0.1,0.2L64.5,38l-0.3,0.5l-0.1,0.1L64,38.8l-0.1,0.1l-0.2,0.2l-0.1,0.1l-0.1,0.1l-0.1,0.1l-0.2,0.1L63,39.7l-0.2,0.1
			l-0.2,0.1l-0.2,0.1l-0.2,0L62,40.1l-0.2,0.1l-0.2,0l-0.2,0l-0.2,0l-0.2,0h-0.6l-0.4,0l-0.4,0l-0.2,0l-0.2,0l-0.6-0.2l-0.2-0.1
			l-0.2-0.1l-0.4-0.2l-0.2-0.1l-0.2-0.1l-0.1-0.1l-0.1-0.1l-0.1-0.1l-0.1-0.1l-0.3-0.3l-0.1-0.1l-0.1-0.1l-0.1-0.1L56.5,38l-0.2-0.5
			l-0.1-0.2l0-0.2l0-0.2l0-0.2l0-0.2l0-0.2l0-0.2V36l0-0.2l0-0.2l0-0.2l0-0.2l0-0.2l0.1-0.2l0.1-0.2l0.1-0.2l0.1-0.3l0.1-0.2l0-0.1
			l0.1-0.2l0.2-0.2l0.1-0.2l0.1-0.1l0.1-0.1l0.2-0.2l0.1-0.1l0.1-0.1l0.3-0.2l0.1-0.1l0.2-0.1l0.2-0.1l0.2-0.1l0.2-0.1l0.2-0.1
			l0.2,0l0.4-0.1l0.2,0l0.6-0.1l0.4,0l0.3,0l0.3,0l0.2,0l0.2,0l0.2,0l0.2,0l0.2,0l0.2,0l0.2,0.1l0.2,0.1l0.2,0.1l0.4,0.2l0.1,0.1
			l0.1,0.1l0.2,0.2l0.1,0.1l0.1,0.1l0.1,0.1l0.2,0.2l0.1,0.1l0.1,0.1l0.1,0.1l0.1,0.2l0.1,0.1l0.1,0.2l0.1,0.2l0.1,0.3l0.1,0.3
			l0,0.2l0,0.2L65,36z"/>
	</g>
</g>
</svg>
