<?xml version="1.0" encoding="utf-8"?>
<!-- Generator: Adobe Illustrator 21.0.0, SVG Export Plug-In . SVG Version: 6.00 Build 0)  -->
<svg version="1.1" id="Capa_1" xmlns="http://www.w3.org/2000/svg" xmlns:xlink="http://www.w3.org/1999/xlink" x="0px" y="0px"
	 viewBox="0 0 79 72.1" style="enable-background:new 0 0 79 72.1;" xml:space="preserve">
<style type="text/css">
	.st0{fill:#5FA03C;}
	.st1{fill:#FFFFFF;}
	.st2{fill:#F2F2F2;}
	.st3{fill:#369443;}
	.st4{fill:#8EBB37;}
	.st5{fill:#222221;}
	.st6{fill:#94BB1E;}
	.st7{fill:none;stroke:#222221;stroke-width:2.346;stroke-linecap:round;stroke-linejoin:round;stroke-miterlimit:10;}
	.st8{fill:#D9802E;}
	.st9{fill:#F0C830;}
	.st10{opacity:0.68;clip-path:url(#SVGID_2_);}
	.st11{clip-path:url(#SVGID_4_);}
	.st12{clip-path:url(#SVGID_6_);fill:url(#SVGID_7_);}
	.st13{opacity:0.2;clip-path:url(#SVGID_2_);}
	.st14{clip-path:url(#SVGID_9_);}
	.st15{clip-path:url(#SVGID_11_);}
	.st16{filter:url(#Adobe_OpacityMaskFilter);}
	.st17{clip-path:url(#SVGID_13_);}
	.st18{enable-background:new    ;}
	.st19{clip-path:url(#SVGID_13_);fill:url(#SVGID_15_);}
	.st20{clip-path:url(#SVGID_13_);mask:url(#SVGID_14_);}
	.st21{clip-path:url(#SVGID_17_);}
	.st22{clip-path:url(#SVGID_19_);fill:url(#SVGID_20_);}
	.st23{opacity:0.68;clip-path:url(#SVGID_22_);}
	.st24{opacity:0.57;clip-path:url(#SVGID_22_);}
	.st25{clip-path:url(#SVGID_26_);}
	.st26{clip-path:url(#SVGID_28_);fill:#CED0D1;}
	.st27{clip-path:url(#SVGID_22_);fill:#4070B6;}
	.st28{clip-path:url(#SVGID_22_);fill:#DD902F;}
	.st29{fill:#C91862;}
	.st30{fill:none;stroke:#272425;stroke-width:7.564600e-02;stroke-miterlimit:10;}
	.st31{fill:#9CC34D;}
	.st32{fill:#B88844;}
	.st33{fill:#78B552;}
	.st34{fill:#589B52;}
	.st35{fill:#5CA257;}
	
		.st36{fill:none;stroke:#FFFFFF;stroke-width:2.3815;stroke-linecap:round;stroke-linejoin:round;stroke-miterlimit:10;stroke-dasharray:0,4.6879;}
	.st37{fill:none;stroke:#FFFFFF;stroke-width:2.3815;stroke-linecap:round;stroke-linejoin:round;stroke-miterlimit:10;}
	.st38{fill:#AFCB49;}
	.st39{fill:#CE4E80;}
	.st40{fill:#E35100;}
	.st41{fill:#4DAEA9;}
	.st42{fill:#B45696;}
	.st43{fill:#E1DF00;}
	.st44{fill:#76B452;}
	.st45{fill:#E4A612;}
	.st46{fill:#474747;}
	.st47{fill:#B2C633;}
	.st48{fill:#272425;}
	.st49{fill:#5D9E3B;}
	.st50{fill:#F3D33F;}
	.st51{fill:#526D59;}
	.st52{fill:#E2D1B1;}
	.st53{fill:#75398E;}
	.st54{fill:#EBB146;}
	.st55{fill:#F1F1F1;}
	.st56{fill:none;stroke:#5FA03C;stroke-width:1.2441;stroke-linecap:round;stroke-linejoin:round;stroke-miterlimit:10;}
	.st57{fill:none;stroke:#5FA03C;stroke-width:1.6816;stroke-linecap:round;stroke-linejoin:round;stroke-miterlimit:10;}
</style>
<g>
	<circle class="st2" cx="39.5" cy="36.1" r="34.2"/>
	<rect x="11.4" y="42.9" class="st2" width="56.2" height="8.6"/>
	<g>
		<g>
			<g>
				<path class="st3" d="M15.2,38.1c-1.4,0-2.5-0.5-3.2-1.4C11.3,35.8,11,34.6,11,33v-1.8l4.3-0.8v2.2c0,1.2,0.4,1.2,0.7,1.2
					c0.1,0,0.2,0,0.3,0c0.6-0.1,1.3-0.4,1.3-1.8c0-1.7-1.2-2.6-2.6-3.6c-1.8-1.3-3.9-2.8-3.9-6.4c0-3.7,1.9-6.2,5.4-6.8
					c0.5-0.1,0.9-0.1,1.3-0.1c2.7,0,4.2,1.8,4.2,5.1v1.1l-4.3,0.8v-1.6c0-1.3-0.4-1.3-0.7-1.3c-0.1,0-0.2,0-0.3,0
					c-0.6,0.1-1.2,0.4-1.2,1.8c0,1.7,1.2,2.6,2.6,3.6c1.8,1.3,3.9,2.8,3.9,6.4c0,3.7-1.9,6.2-5.4,6.8C16.1,38.1,15.7,38.1,15.2,38.1
					z"/>
				<path class="st2" d="M17.8,15.6c2.4,0,3.7,1.6,3.7,4.6v0.7l-3.2,0.6v-0.9c0-1.3-0.4-1.8-1.2-1.8c-0.1,0-0.3,0-0.4,0
					c-1.1,0.2-1.7,0.9-1.7,2.4c0,4.4,6.5,4,6.5,10c0,3.4-1.7,5.6-5,6.2c-0.4,0.1-0.9,0.1-1.3,0.1c-2.4,0-3.7-1.6-3.7-4.5v-1.3
					l3.2-0.6v1.5c0,1.3,0.5,1.8,1.3,1.8c0.1,0,0.3,0,0.4,0c1.1-0.2,1.7-0.9,1.7-2.4c0-4.4-6.5-4-6.5-10c0-3.4,1.7-5.6,4.9-6.2
					C17,15.6,17.4,15.6,17.8,15.6 M17.8,14.5L17.8,14.5c-0.5,0-0.9,0-1.4,0.1c-3.7,0.7-5.8,3.4-5.8,7.4c0,3.9,2.3,5.5,4.1,6.9
					c0.5,0.3,0.9,0.6,1.2,0.9L14.5,30l-3.2,0.6l-0.9,0.2v0.9V33c0,3.6,1.8,5.7,4.9,5.7c0.5,0,1,0,1.5-0.1c3.8-0.7,5.9-3.4,5.9-7.4
					c0-3.9-2.3-5.5-4.1-6.9c-1.5-1.1-2.4-1.8-2.4-3.2c0-1.1,0.4-1.2,0.7-1.3c0.1,0,0.2,0,0.2,0c0,0,0,0,0,0c0,0.1,0.1,0.3,0.1,0.7
					v0.9v1.4l1.3-0.2l3.2-0.6l0.9-0.2v-1v-0.7C22.6,16.5,20.8,14.5,17.8,14.5L17.8,14.5z M15.9,33.3c0-0.1-0.1-0.3-0.1-0.6v-1.5
					v-1.3c0.8,0.7,1.2,1.3,1.2,2.2c0,1.1-0.4,1.2-0.8,1.3C16.1,33.3,16,33.3,15.9,33.3C15.9,33.3,15.9,33.3,15.9,33.3L15.9,33.3z"/>
			</g>
			<g>
				<path class="st3" d="M26.9,36c-2.8,0-4.3-1.8-4.3-5.1V14.2l4.5-0.8v17c0,1.2,0.4,1.2,0.7,1.2c0.1,0,0.2,0,0.3,0
					c0.7-0.1,1.3-0.4,1.3-1.8V13l4.3-0.8V29c0,3.7-1.9,6.2-5.4,6.8C27.8,35.9,27.4,36,26.9,36z"/>
				<path class="st2" d="M33.2,12.9V29c0,3.4-1.7,5.6-5,6.2c-0.4,0.1-0.9,0.1-1.3,0.1c-2.5,0-3.7-1.6-3.7-4.5V14.7l3.3-0.6v16.4
					c0,1.3,0.5,1.8,1.3,1.8c0.1,0,0.3,0,0.4,0c1.1-0.2,1.7-0.9,1.7-2.4V13.5L33.2,12.9 M34.3,11.5L33,11.8l-3.2,0.6l-0.9,0.2v0.9
					v16.4c0,1.1-0.4,1.2-0.8,1.3c-0.1,0-0.2,0-0.2,0c0,0,0,0-0.1,0c0-0.1-0.1-0.3-0.1-0.6V14.1v-1.4L26.4,13L23,13.6l-0.9,0.2v0.9
					v16.2c0,3.6,1.8,5.7,4.9,5.7c0.5,0,0.9,0,1.5-0.1c3.8-0.7,5.9-3.4,5.9-7.4V12.9V11.5L34.3,11.5z"/>
			</g>
			<g>
				<path class="st3" d="M34.9,12l5.4-1c0.5-0.1,1-0.1,1.4-0.1c1.6,0,4.2,0.7,4.2,5v2.8c0,3.7-1.9,6.1-5.4,6.7l-1.1,0.2v8l-4.5,0.8
					V12z M39.3,21.4l0.9-0.2c0.8-0.1,1.2-0.5,1.2-1.7v-3.2c0-1.2-0.3-1.2-0.6-1.2c-0.1,0-0.2,0-0.4,0l-1.1,0.2V21.4z"/>
				<path class="st2" d="M41.7,11.4c2.4,0,3.6,1.6,3.6,4.5v2.8c0,3.4-1.6,5.5-5,6.2l-1.6,0.3v8l-3.3,0.6V12.5l4.9-0.9
					C40.8,11.5,41.3,11.4,41.7,11.4 M38.8,22.1l1.6-0.3c1.1-0.2,1.6-0.8,1.6-2.3v-3.2c0-1.3-0.4-1.7-1.2-1.7c-0.1,0-0.3,0-0.5,0
					l-1.6,0.3V22.1 M41.7,10.3c-0.5,0-1,0.1-1.5,0.2l-4.9,0.9l-0.9,0.2v0.9v21.2v1.4l1.3-0.2l3.3-0.6l0.9-0.2v-0.9v-7l0.6-0.1
					c3.8-0.7,5.9-3.3,5.9-7.3v-2.8C46.5,12.3,44.7,10.3,41.7,10.3L41.7,10.3z M39.9,15.8l0.6-0.1c0.1,0,0.2,0,0.2,0
					c0,0.1,0.1,0.3,0.1,0.6v3.2c0,1.1-0.3,1.1-0.7,1.2l-0.2,0V15.8L39.9,15.8z"/>
			</g>
			<g>
				<polygon class="st3" points="46.3,9.9 56.5,8 56.5,12.2 50.8,13.3 50.8,18 55.3,17.2 55.3,21.4 50.8,22.2 50.8,27.3 56.5,26.2 
					56.5,30.4 46.3,32.3 				"/>
				<path class="st2" d="M55.9,8.7v3l-5.8,1.1v5.9l4.6-0.8v3l-4.6,0.8v6.2l5.8-1.1v3l-9.1,1.7V10.4L55.9,8.7 M57.1,7.3l-1.3,0.2
					l-9.1,1.7l-0.9,0.2v0.9v21.2V33l1.3-0.2l9.1-1.7l0.9-0.2v-0.9v-3v-1.4l-1.3,0.2l-4.4,0.8v-3.9L55,22l0.9-0.2v-0.9v-3v-1.4
					l-1.3,0.2l-3.2,0.6v-3.6l4.8-0.9l0.9-0.2v-0.9v-3V7.3L57.1,7.3z"/>
			</g>
			<g>
				<path class="st3" d="M57.4,7.8l5.5-1c0.6-0.1,1.1-0.2,1.6-0.2c2.6,0,4,1.6,4,4.7V13c0,2-0.5,3.5-1.6,4.5
					c1.5,0.9,1.7,2.8,1.7,4.3v3.3c0,0.9,0,1.6,0.3,2.3l0.3,0.7l-4.6,0.8l-0.2-0.5c-0.2-0.6-0.3-1-0.3-2.7v-3.3c0-1.8-0.6-1.8-1-1.8
					c-0.2,0-0.3,0-0.5,0.1l-0.7,0.1v8.6l-4.5,0.8V7.8z M61.9,16.6l0.6-0.1c0.9-0.2,1.5-0.6,1.5-2v-2.1c0-1.3-0.4-1.3-0.7-1.3
					c-0.1,0-0.2,0-0.3,0l-1.1,0.2V16.6z"/>
				<path class="st2" d="M64.6,7.2c2.4,0,3.4,1.4,3.4,4.1V13c0,2.2-0.7,3.7-2.2,4.7c1.7,0.4,2.2,1.9,2.2,4.1v3.3c0,1,0,1.8,0.4,2.5
					L65,28.3c-0.2-0.5-0.3-0.8-0.3-2.6v-3.3c0-1.7-0.5-2.4-1.5-2.4c-0.2,0-0.4,0-0.6,0.1l-1.2,0.2v8.6L58,29.5V8.3l5-0.9
					C63.6,7.3,64.1,7.2,64.6,7.2 M61.3,17.3l1.3-0.2c1.2-0.2,2-0.9,2-2.6v-2.1c0-1.3-0.4-1.9-1.3-1.9c-0.1,0-0.3,0-0.4,0l-1.6,0.3
					V17.3 M64.6,6.1L64.6,6.1c-0.5,0-1.1,0.1-1.7,0.2l-5,0.9l-0.9,0.2v1v21.2v1.4l1.3-0.2l3.3-0.6l0.9-0.2v-0.9v-7.7l0.2,0
					c0.2,0,0.3,0,0.4,0c0.2,0,0.2,0,0.2,0l0,0c0,0,0.2,0.2,0.2,1.2v3.3c0,1.8,0.1,2.3,0.4,2.9l0.3,0.9l1-0.1l3.4-0.6l1.4-0.3
					l-0.6-1.3c-0.2-0.5-0.3-1-0.3-2v-3.3c0-0.9,0-3-1.4-4.3c0.9-1.1,1.4-2.6,1.4-4.5v-1.7C69.1,7,66.6,6.1,64.6,6.1L64.6,6.1z
					 M62.5,11.7l0.7-0.1c0.1,0,0.2,0,0.2,0c0,0,0,0,0,0c0,0.1,0.1,0.3,0.1,0.8v2.1c0,1.2-0.4,1.4-1,1.5V11.7L62.5,11.7z"/>
			</g>
		</g>
		<g>
			<g>
				<path class="st4" d="M11.7,40.3l6.4-1.2c0.6-0.1,1.2-0.2,1.7-0.2c2.3,0,5,1,5,6v3.4c0,4.5-2.3,7.3-6.5,8l-1.4,0.3v9.7l-5.2,1
					V40.3z M16.9,51.8l1.2-0.2c1-0.2,1.5-0.6,1.5-2.2v-3.9c0-1.6-0.5-1.6-0.9-1.6c-0.1,0-0.3,0-0.5,0l-1.4,0.3V51.8z"/>
				<path class="st2" d="M19.9,39.5c3,0,4.4,1.9,4.4,5.4v3.4c0,4.1-2,6.7-6,7.5l-1.9,0.4v9.7l-4.1,0.7V40.8l6-1.1
					C18.9,39.6,19.4,39.5,19.9,39.5 M16.4,52.5l1.9-0.4c1.3-0.2,2-1,2-2.8v-3.9c0-1.6-0.5-2.1-1.4-2.1c-0.2,0-0.4,0-0.6,0.1
					l-1.9,0.4V52.5 M19.9,38.4L19.9,38.4c-0.6,0-1.2,0.1-1.8,0.2l-6,1.1l-0.9,0.2v0.9v25.8V68l1.3-0.2l4.1-0.7l0.9-0.2v-0.9v-8.7
					l1-0.2c4.5-0.8,7-3.9,7-8.6V45C25.5,39.3,22,38.4,19.9,38.4L19.9,38.4z M17.5,44.7l1-0.2c0.1,0,0.3,0,0.4,0c0.1,0,0.1,0,0.2,0
					c0,0,0.1,0.2,0.1,1v3.9c0,1.5-0.5,1.6-1.1,1.7l-0.6,0.1V44.7L17.5,44.7z"/>
			</g>
			<g>
				<path class="st4" d="M28.3,37.3l6.9-1.3l4.3,26.2l-5.2,1l-0.7-4.6l-4,0.7l-0.7,4.8L24,65L28.3,37.3z M30.3,54.5l2.6-0.5
					l-1.3-8.4L30.3,54.5z"/>
				<path class="st2" d="M34.8,36.7l4.1,25l-4.1,0.8l-0.7-4.6l-5,0.9l-0.7,4.8l-3.7,0.7l4.1-26.6L34.8,36.7 M29.6,55.2l3.9-0.7
					l-2-12.7L29.6,55.2 M35.7,35.3l-1.1,0.2l-5.9,1.1l-0.8,0.1l-0.1,0.8l-4.1,26.6l-0.2,1.6l1.6-0.3l3.7-0.7l0.8-0.1l0.1-0.8l0.6-4
					l3-0.6l0.5,3.4l0.2,1.2l1.2-0.2l4.1-0.8l1.1-0.2L40,61.5l-4.1-25L35.7,35.3L35.7,35.3z M31,53.8l0.6-4.3l0.6,4.1L31,53.8
					L31,53.8z"/>
			</g>
			<g>
				<path class="st4" d="M44.9,61.3c-1.7,0-2.9-0.6-3.8-1.6c-0.8-1-1.3-2.5-1.3-4.5V41.8c0-4.5,2.3-7.4,6.5-8.2
					c0.6-0.1,1.1-0.2,1.6-0.2c3.3,0,5.1,2.2,5.1,6.1v3l-5,0.9v-3.5c0-1.6-0.7-1.6-1-1.6c-0.1,0-0.3,0-0.4,0C45.9,38.6,45,39,45,40.8
					v13.9c0,1.6,0.6,1.6,1,1.6l0,0c0.1,0,0.3,0,0.4,0c0.8-0.1,1.6-0.5,1.6-2.3v-4.2l5-0.9V53c0,4.5-2.3,7.4-6.5,8.2
					C46,61.3,45.4,61.3,44.9,61.3z"/>
				<path class="st2" d="M48,34.1c3,0,4.5,2,4.5,5.5v2.5l-3.8,0.7v-2.8c0-1.6-0.6-2.2-1.6-2.2c-0.2,0-0.3,0-0.5,0.1
					c-1.3,0.2-2.1,1.1-2.1,2.9v13.9c0,1.6,0.6,2.2,1.6,2.2c0.2,0,0.4,0,0.5-0.1c1.3-0.2,2.1-1.1,2.1-2.9v-3.7l3.8-0.7V53
					c0,4.1-2.1,6.9-6,7.6c-0.5,0.1-1.1,0.2-1.5,0.2c-3,0-4.5-2-4.5-5.5V41.8c0-4.1,2.1-6.9,6-7.6C47,34.1,47.5,34.1,48,34.1
					 M48,32.9c-0.5,0-1.1,0.1-1.7,0.2c-4.4,0.8-7,4-7,8.7v13.4c0,4.2,2.1,6.7,5.7,6.7c0.5,0,1.1-0.1,1.7-0.2c4.4-0.8,7-4,7-8.7v-3.4
					v-1.4l-1.3,0.2l-3.8,0.7l-0.9,0.2v0.9V54c0,1.4-0.6,1.7-1.2,1.8c-0.1,0-0.2,0-0.3,0c-0.2,0-0.4,0-0.4-1V40.8
					c0-1.5,0.6-1.7,1.2-1.8c0.1,0,0.2,0,0.3,0c0.2,0,0.4,0,0.4,1.1v2.8v1.4l1.3-0.2l3.8-0.7l0.9-0.2v-0.9v-2.5
					C53.6,35.4,51.6,32.9,48,32.9L48,32.9z"/>
			</g>
			<g>
				<polygon class="st4" points="54.4,32.5 59.6,31.5 59.6,40.7 63.9,30.7 69.3,29.7 63.4,43 69.2,56.7 63.9,57.7 60.2,48.9 
					59.6,50.2 59.6,58.5 54.4,59.4 				"/>
				<path class="st2" d="M68.4,30.5L62.7,43l5.6,13.3l-4.2,0.8l-3.9-9.6L59,50.1V58L55,58.8V33l4.1-0.7v11.2l5.3-12.2L68.4,30.5
					 M70.3,29l-2.1,0.4l-4.1,0.7l-0.6,0.1l-0.2,0.6L60.1,38v-5.8v-1.4l-1.3,0.2l-4.1,0.7L53.8,32V33v25.8v1.4l1.3-0.2l4.1-0.7
					l0.9-0.2v-1v-7.7l0-0.1l3,7.2l0.4,0.9l0.9-0.2l4.2-0.8l1.4-0.3l-0.6-1.3L64,43L69.4,31L70.3,29L70.3,29z"/>
			</g>
		</g>
	</g>
</g>
</svg>
