<?xml version="1.0" encoding="utf-8"?>
<!-- Generator: Adobe Illustrator 21.0.0, SVG Export Plug-In . SVG Version: 6.00 Build 0)  -->
<svg version="1.1" id="Capa_1" xmlns="http://www.w3.org/2000/svg" xmlns:xlink="http://www.w3.org/1999/xlink" x="0px" y="0px"
	 viewBox="0 0 79 72.1" style="enable-background:new 0 0 79 72.1;" xml:space="preserve">
<style type="text/css">
	.st0{fill:#5FA03C;}
	.st1{fill:#FFFFFF;}
	.st2{fill:#F2F2F2;}
	.st3{fill:#369443;}
	.st4{fill:#8EBB37;}
	.st5{fill:#222221;}
	.st6{fill:#94BB1E;}
	.st7{fill:none;stroke:#222221;stroke-width:2.346;stroke-linecap:round;stroke-linejoin:round;stroke-miterlimit:10;}
	.st8{fill:#D9802E;}
	.st9{fill:#F0C830;}
	.st10{opacity:0.68;clip-path:url(#SVGID_2_);}
	.st11{clip-path:url(#SVGID_4_);}
	.st12{clip-path:url(#SVGID_6_);fill:url(#SVGID_7_);}
	.st13{opacity:0.2;clip-path:url(#SVGID_2_);}
	.st14{clip-path:url(#SVGID_9_);}
	.st15{clip-path:url(#SVGID_11_);}
	.st16{filter:url(#Adobe_OpacityMaskFilter);}
	.st17{clip-path:url(#SVGID_13_);}
	.st18{enable-background:new    ;}
	.st19{clip-path:url(#SVGID_13_);fill:url(#SVGID_15_);}
	.st20{clip-path:url(#SVGID_13_);mask:url(#SVGID_14_);}
	.st21{clip-path:url(#SVGID_17_);}
	.st22{clip-path:url(#SVGID_19_);fill:url(#SVGID_20_);}
	.st23{opacity:0.68;clip-path:url(#SVGID_22_);}
	.st24{opacity:0.57;clip-path:url(#SVGID_22_);}
	.st25{clip-path:url(#SVGID_26_);}
	.st26{clip-path:url(#SVGID_28_);fill:#CED0D1;}
	.st27{clip-path:url(#SVGID_22_);fill:#4070B6;}
	.st28{clip-path:url(#SVGID_22_);fill:#DD902F;}
	.st29{fill:#C91862;}
	.st30{fill:none;stroke:#272425;stroke-width:7.564600e-02;stroke-miterlimit:10;}
	.st31{fill:#9CC34D;}
	.st32{fill:#B88844;}
	.st33{fill:#78B552;}
	.st34{fill:#589B52;}
	.st35{fill:#5CA257;}
	
		.st36{fill:none;stroke:#FFFFFF;stroke-width:2.3815;stroke-linecap:round;stroke-linejoin:round;stroke-miterlimit:10;stroke-dasharray:0,4.6879;}
	.st37{fill:none;stroke:#FFFFFF;stroke-width:2.3815;stroke-linecap:round;stroke-linejoin:round;stroke-miterlimit:10;}
	.st38{fill:#AFCB49;}
	.st39{fill:#CE4E80;}
	.st40{fill:#E35100;}
	.st41{fill:#4DAEA9;}
	.st42{fill:#B45696;}
	.st43{fill:#E1DF00;}
	.st44{fill:#76B452;}
	.st45{fill:#E4A612;}
	.st46{fill:#474747;}
	.st47{fill:#B2C633;}
	.st48{fill:#272425;}
	.st49{fill:#5D9E3B;}
	.st50{fill:#F3D33F;}
	.st51{fill:#526D59;}
	.st52{fill:#E2D1B1;}
	.st53{fill:#75398E;}
	.st54{fill:#EBB146;}
	.st55{fill:#F1F1F1;}
	.st56{fill:none;stroke:#5FA03C;stroke-width:1.2441;stroke-linecap:round;stroke-linejoin:round;stroke-miterlimit:10;}
	.st57{fill:none;stroke:#5FA03C;stroke-width:1.6816;stroke-linecap:round;stroke-linejoin:round;stroke-miterlimit:10;}
</style>
<g>
	<path class="st46" d="M4.2,61.2c10.9,4.7,22.6,7.3,34.8,7.3c12.2,0,24-2.6,34.9-7.3c0.6-0.4,0.9-0.7,0.9-0.7V3.7H4.2V61.2z"/>
	<g>
		<path class="st1" d="M52.4,35.6c0.7,0,1.3,0.1,1.9,0.4c0.6,0.3,1.1,0.6,1.6,1.1c0.5,0.5,0.8,1,1.1,1.6c0.3,0.6,0.4,1.3,0.4,2
			c0,0.7-0.1,1.4-0.4,2c-0.3,0.6-0.6,1.1-1.1,1.6c-0.5,0.5-1,0.8-1.6,1.1c-0.6,0.3-1.3,0.4-2,0.4c-0.7,0-1.4-0.1-2-0.4
			c-0.6-0.3-1.1-0.6-1.6-1.1c-0.5-0.5-0.8-1-1.1-1.6c-0.3-0.6-0.4-1.3-0.4-2c0-0.7,0.1-1.4,0.4-2c0.3-0.6,0.6-1.1,1.1-1.6
			c0.5-0.5,1-0.8,1.6-1.1C51,35.8,51.7,35.7,52.4,35.6 M52.4,37.7c-0.4,0-0.8,0.1-1.2,0.2c-0.4,0.2-0.7,0.4-1,0.6
			c-0.3,0.3-0.5,0.6-0.6,0.9c-0.2,0.4-0.2,0.8-0.2,1.2c0,0.4,0.1,0.8,0.2,1.1c0.2,0.4,0.4,0.7,0.6,1c0.3,0.3,0.6,0.5,1,0.6
			c0.4,0.2,0.8,0.2,1.2,0.2c0.4,0,0.8-0.1,1.2-0.2c0.4-0.2,0.7-0.4,1-0.6c0.3-0.3,0.5-0.6,0.6-1c0.2-0.4,0.2-0.8,0.2-1.1
			c0-0.8-0.3-1.5-0.9-2.1C54,38.1,53.3,37.8,52.4,37.7L52.4,37.7z"/>
		<path class="st1" d="M24.8,41.4c0,1.3-1,2.3-2.3,2.3c-0.7,0-1.4-0.3-1.8-0.8c-0.1-0.1-0.2-0.3-0.3-0.5c0-0.1,0-0.1-0.1-0.2
			c0,0,0-0.1,0-0.1c0,0,0,0,0-0.1c-0.1-0.2-0.1-0.4-0.1-0.6c0,0,0-0.1,0-0.1c0-0.1,0-0.2,0-0.2v-4.4c0-0.3-0.1-0.5-0.3-0.7
			c-0.2-0.2-0.5-0.3-0.7-0.3c-0.3,0-0.6,0.1-0.8,0.3c-0.2,0.2-0.3,0.4-0.3,0.7v4.6c0,0.8,0.2,1.5,0.4,1.9c0,0,0,0.1,0,0.1
			c0.1,0.1,0.1,0.2,0.2,0.3c0,0.1,0.1,0.1,0.1,0.2c0,0.1,0.1,0.1,0.1,0.2c0.3,0.4,0.7,0.8,1.2,1.1c0,0,0,0,0.1,0
			c0.3,0.2,0.7,0.4,1,0.5c0.3,0.1,0.6,0.2,1,0.2c0.1,0,0.1,0,0.2,0c0,0,0.1,0,0.1,0c0,0,0,0,0.1,0c0.1,0,0.3,0,0.4,0
			c0.1,0,0.3,0,0.4-0.1c0,0,0,0,0,0c0.3-0.1,0.6-0.2,0.9-0.3c0.4-0.2,0.8-0.4,1.2-0.8c0.3-0.3,0.6-0.7,0.9-1l0,0
			c0-0.1,0.1-0.2,0.1-0.2c0-0.1,0.1-0.1,0.1-0.2c0.3-0.6,0.4-1.3,0.4-1.9v-4.6c0-0.3-0.1-0.5-0.3-0.7c-0.2-0.2-0.5-0.3-0.8-0.3
			c-0.3,0-0.5,0.1-0.7,0.3c-0.2,0.2-0.3,0.5-0.3,0.7v4.4"/>
		<path class="st1" d="M39,44.6v-5.5c0-2-1.2-3.4-3.1-3.4c-0.8,0-1.8,0.5-2.2,1.1l-0.4,0.5l-0.4-0.5c-0.5-0.5-1.2-1-2.1-1
			c-2.1,0-3.2,1.5-3.2,3.4v5.6c0,0.7,0.4,1.2,1.1,1.2c0.6,0,1.1-0.5,1.1-1.2c0,0,0,0,0,0v-5.7c0-0.7,0.5-1.1,1.2-1.1
			c0.6,0,1.3,0.5,1.3,1.1v4.7h0v1h0c0,0,0,0,0,0c0,0.7,0.5,1.2,1.1,1.2c0.6,0,1.1-0.5,1.1-1.2c0,0,0,0,0-0.1v-1v-2.4v-2.3
			c0-0.7,0.6-1.1,1.2-1.1c0.7,0,1.2,0.5,1.2,1.1v5.7h0c0,0,0,0,0,0c0,0.7,0.5,1.2,1.1,1.2C38.5,45.8,39,45.3,39,44.6
			C39,44.6,39,44.6,39,44.6"/>
		<path class="st1" d="M41.7,41.7l2.2,0c0.4,0,1,0.4,1,1c0,0.6-0.4,1.1-1,1.1l-2.2,0L41.7,41.7z M43.7,37.6c0.7,0,1.2,0.4,1.2,1
			c0,0.7-0.5,1.1-1.2,1.1l-2,0l0-2.1L43.7,37.6z M47.2,43.1c0-1.2-0.8-2.1-1.8-2.5l0,0c0.9-0.5,1.4-1.3,1.4-2.3
			c0-1.4-1.1-2.5-2.7-2.6h0h-3.4c-0.6,0-1.2,0.5-1.2,1.1c0,0,0,0,0,0v7.9c0,0,0,0,0,0.1c0,0.6,0.5,1.1,1.1,1.1l3.3,0
			c0.1,0,0.1,0,0.2,0c0.1,0,0.2,0,0.2,0c0.2,0,0.4,0,0.6-0.1C46.4,45.3,47.2,44.3,47.2,43.1"/>
		<path class="st1" d="M17.4,42.1v-0.2v-1v-2.7v-1c0-0.2,0-0.5,0-0.7c-0.1-0.3-0.3-0.5-0.5-0.7c-0.2-0.1-0.4-0.2-0.7-0.2h-0.7h-2.5
			h-0.2c-0.3,0-0.5,0.1-0.7,0.3c-0.5,0.5-0.4,1.3,0.2,1.6c0.3,0.2,0.6,0.2,0.9,0.2h1.3h0.9c0,0,0,0.4,0,0.4v2.6v1c0,0.1,0,0.2,0,0.3
			l0,0v0c0,1-0.8,1.8-1.8,1.8c-1,0-1.8-0.8-1.8-1.8c0,0,0,0,0,0c0,0,0,0,0,0v0l0,0c0-0.6-0.5-1-1-1c-0.6,0-1,0.5-1,1
			c0,0.1,0,0.1,0,0.2c0.1,2.1,1.8,3.5,4,3.5C17.5,45.8,17.4,41.7,17.4,42.1"/>
		<path class="st1" d="M57.2,44.7c0-0.6,0.5-1.2,1.2-1.2c0.6,0,1.2,0.5,1.2,1.2s-0.5,1.2-1.2,1.2C57.7,45.8,57.2,45.3,57.2,44.7"/>
		<path class="st1" d="M69.4,44.8v-8.1c0,0,0,0,0,0c0-0.5-0.4-0.9-0.9-0.9s-0.9,0.4-0.9,0.9v8.3h0c0,0.5,0.4,0.9,0.9,0.9
			C69,45.8,69.4,45.4,69.4,44.8L69.4,44.8L69.4,44.8C69.4,44.8,69.4,44.8,69.4,44.8C69.4,44.8,69.4,44.8,69.4,44.8"/>
		<path class="st1" d="M65.6,43.3c-0.2,0-0.4,0.1-0.5,0.2l0,0c0,0,0,0,0,0c0,0,0,0,0,0c-0.4,0.4-0.9,0.7-1.5,0.7
			c-1,0-1.7-0.8-1.7-1.8v0c0-1,0.7-1.8,1.6-1.8c0.7,0,1.1,0.3,1.5,0.7l0,0c0.2,0.2,0.4,0.3,0.6,0.3c0.5,0,0.8-0.4,0.8-0.8
			c0-0.3-0.1-0.5-0.3-0.6l0,0c-0.6-0.7-1.4-1.1-2.6-1.1c-2,0-3.5,1.6-3.5,3.4v0c0,1.9,1.5,3.4,3.5,3.4c1.3,0,2.1-0.5,2.7-1.2l0,0
			c0.1-0.1,0.2-0.3,0.2-0.5C66.3,43.6,66,43.3,65.6,43.3"/>
	</g>
	<g>
		<path class="st1" d="M10.2,24.4v2h3.7v1.1h-3.7v2.1h4.3v1.1H8.9v-7.6h5.4v1.1H10.2z"/>
		<path class="st1" d="M22.4,30.8h-1.5l-2-2.9l-2,2.9h-1.5l2.8-3.9l-2.6-3.7H17l1.8,2.6l1.9-2.6h1.5l-2.5,3.6L22.4,30.8z"/>
		<path class="st1" d="M29.8,24.4l-0.7,0.9c-0.6-0.6-1.3-1-2.1-1c-1.5,0-2.7,1.2-2.7,2.7s1.2,2.7,2.7,2.7c0.8,0,1.5-0.3,2.1-0.9
			l0.8,0.8c-0.8,0.8-1.9,1.2-2.9,1.2c-2.2,0-3.9-1.7-3.9-3.8c0-2.1,1.7-3.8,4-3.8C28,23.2,29.1,23.7,29.8,24.4z"/>
		<path class="st1" d="M35.9,29.7v1.2h-4.5v-7.6h1.3v6.4H35.9z"/>
		<path class="st1" d="M43.7,27.7c0,2-1.2,3.2-3.3,3.2c-2,0-3.3-1.2-3.3-3.2v-4.4h1.3v4.4c0,1.3,0.8,2,2,2c1.2,0,2-0.8,2-2v-4.4h1.3
			V27.7z"/>
		<path class="st1" d="M50.8,24l-0.5,1.1c-0.8-0.5-1.6-0.7-2.2-0.7c-0.7,0-1.2,0.3-1.2,0.8c0,1.7,4.1,0.8,4.1,3.5
			c0,1.4-1.2,2.2-2.9,2.2c-1.2,0-2.3-0.5-3.1-1.2l0.6-1.1c0.8,0.7,1.8,1.1,2.6,1.1c0.9,0,1.4-0.3,1.4-0.9c0-1.7-4.1-0.7-4.1-3.4
			c0-1.3,1.1-2.1,2.8-2.1C49.1,23.2,50.1,23.5,50.8,24z"/>
		<path class="st1" d="M52.5,30.8v-7.6h1.3v7.6H52.5z"/>
		<path class="st1" d="M58,30.8l-3-7.6h1.4l2.3,6.1l2.4-6.1h1.3l-3.1,7.6H58z"/>
		<path class="st1" d="M70.9,27.1c0,2.2-1.8,3.8-4,3.8c-2.3,0-4-1.7-4-3.8c0-2.2,1.8-3.8,4-3.8C69.2,23.2,70.9,24.9,70.9,27.1z
			 M64.2,27.1c0,1.5,1.2,2.7,2.7,2.7s2.7-1.2,2.7-2.7c0-1.5-1.2-2.7-2.7-2.7C65.4,24.4,64.2,25.6,64.2,27.1z"/>
	</g>
</g>
</svg>
