<?xml version="1.0" encoding="utf-8"?>
<!-- Generator: Adobe Illustrator 21.0.0, SVG Export Plug-In . SVG Version: 6.00 Build 0)  -->
<svg version="1.1" id="Capa_1" xmlns="http://www.w3.org/2000/svg" xmlns:xlink="http://www.w3.org/1999/xlink" x="0px" y="0px"
	 viewBox="0 0 79 72.1" style="enable-background:new 0 0 79 72.1;" xml:space="preserve">
<style type="text/css">
	.st0{fill:#5FA03C;}
	.st1{fill:#FFFFFF;}
	.st2{fill:#F2F2F2;}
	.st3{fill:#369443;}
	.st4{fill:#8EBB37;}
	.st5{fill:#222221;}
	.st6{fill:#94BB1E;}
	.st7{fill:none;stroke:#222221;stroke-width:2.346;stroke-linecap:round;stroke-linejoin:round;stroke-miterlimit:10;}
	.st8{fill:#D9802E;}
	.st9{fill:#F0C830;}
	.st10{opacity:0.68;clip-path:url(#SVGID_2_);}
	.st11{clip-path:url(#SVGID_4_);}
	.st12{clip-path:url(#SVGID_6_);fill:url(#SVGID_7_);}
	.st13{opacity:0.2;clip-path:url(#SVGID_2_);}
	.st14{clip-path:url(#SVGID_9_);}
	.st15{clip-path:url(#SVGID_11_);}
	.st16{filter:url(#Adobe_OpacityMaskFilter);}
	.st17{clip-path:url(#SVGID_13_);}
	.st18{enable-background:new    ;}
	.st19{clip-path:url(#SVGID_13_);fill:url(#SVGID_15_);}
	.st20{clip-path:url(#SVGID_13_);mask:url(#SVGID_14_);}
	.st21{clip-path:url(#SVGID_17_);}
	.st22{clip-path:url(#SVGID_19_);fill:url(#SVGID_20_);}
	.st23{opacity:0.68;clip-path:url(#SVGID_22_);}
	.st24{opacity:0.57;clip-path:url(#SVGID_22_);}
	.st25{clip-path:url(#SVGID_26_);}
	.st26{clip-path:url(#SVGID_28_);fill:#CED0D1;}
	.st27{clip-path:url(#SVGID_22_);fill:#4070B6;}
	.st28{clip-path:url(#SVGID_22_);fill:#DD902F;}
	.st29{fill:#C91862;}
	.st30{fill:none;stroke:#272425;stroke-width:7.564600e-02;stroke-miterlimit:10;}
	.st31{fill:#9CC34D;}
	.st32{fill:#B88844;}
	.st33{fill:#78B552;}
	.st34{fill:#589B52;}
	.st35{fill:#5CA257;}
	
		.st36{fill:none;stroke:#FFFFFF;stroke-width:2.3815;stroke-linecap:round;stroke-linejoin:round;stroke-miterlimit:10;stroke-dasharray:0,4.6879;}
	.st37{fill:none;stroke:#FFFFFF;stroke-width:2.3815;stroke-linecap:round;stroke-linejoin:round;stroke-miterlimit:10;}
	.st38{fill:#AFCB49;}
	.st39{fill:#CE4E80;}
	.st40{fill:#E35100;}
	.st41{fill:#4DAEA9;}
	.st42{fill:#B45696;}
	.st43{fill:#E1DF00;}
	.st44{fill:#76B452;}
	.st45{fill:#E4A612;}
	.st46{fill:#474747;}
	.st47{fill:#B2C633;}
	.st48{fill:#272425;}
	.st49{fill:#5D9E3B;}
	.st50{fill:#F3D33F;}
	.st51{fill:#526D59;}
	.st52{fill:#E2D1B1;}
	.st53{fill:#75398E;}
	.st54{fill:#EBB146;}
	.st55{fill:#F1F1F1;}
	.st56{fill:none;stroke:#5FA03C;stroke-width:1.2441;stroke-linecap:round;stroke-linejoin:round;stroke-miterlimit:10;}
	.st57{fill:none;stroke:#5FA03C;stroke-width:1.6816;stroke-linecap:round;stroke-linejoin:round;stroke-miterlimit:10;}
</style>
<g>
	<circle class="st2" cx="39.5" cy="36.1" r="34.3"/>
	<g>
		<g>
			<g>
				<path class="st3" d="M11.5,14.3l11.9-2c0.8-0.1,1.5-0.2,2.2-0.2c1.9,0,3.4,0.5,4.6,1.5c1.2,1,1.8,2.5,1.8,4.3
					c0,2-0.7,3.8-2.1,5.2c2,1,3,2.7,3,5.3c0,4.6-3.4,7.8-9,8.8l-12.3,2L11.5,14.3z M19.6,30.5l3.2-0.5c0.9-0.1,1.9-0.5,1.9-1.4
					c0-0.3,0-0.6-0.8-0.6c-0.2,0-0.5,0-0.7,0.1l-3.5,0.6L19.6,30.5z M19.6,22l2.4-0.4c1.8-0.3,1.8-1,1.8-1.3c0-0.3,0-0.5-0.7-0.5
					c-0.2,0-0.4,0-0.7,0.1l-2.9,0.5L19.6,22z"/>
				<path class="st2" d="M25.6,13.2c1.7,0,2.9,0.4,3.8,1.3c0.9,0.8,1.4,1.9,1.4,3.4V18c0,2.6-1.4,4.4-3.3,5.6
					c2.6,0.5,4.2,1.8,4.2,4.8v0.1c0,3.9-3,6.7-8.1,7.6l-11,1.8l-0.1-22.7l10.9-1.8C24.3,13.3,25,13.2,25.6,13.2 M18.5,23.3l3.7-0.6
					c1.8-0.3,2.8-1.1,2.8-2.4v-0.1c0-1-0.6-1.6-1.8-1.6c-0.3,0-0.5,0-0.8,0.1l-3.8,0.6L18.5,23.3 M18.5,31.9l4.6-0.8
					c1.8-0.3,2.8-1.2,2.8-2.5l0-0.1c0-1-0.6-1.6-2-1.6c-0.3,0-0.6,0-0.9,0.1l-4.5,0.8L18.5,31.9 M25.6,10.9L25.6,10.9
					c-0.7,0-1.5,0.1-2.4,0.2L12.3,13l-1.9,0.3l0,1.9l0.1,22.7l0,2.7l2.7-0.4l11-1.8c6.2-1,10-4.8,10-9.9v-0.1c0-1.9-0.5-4.1-2.5-5.6
					c1-1.4,1.5-3.1,1.5-4.9v-0.1c0-2.7-1.2-4.3-2.1-5.1C29.6,11.6,27.8,10.9,25.6,10.9L25.6,10.9z M24.1,29.2L24.1,29.2L24.1,29.2z"
					/>
			</g>
			<g>
				<polygon class="st3" points="34.2,10.5 42.4,9.1 42.5,34.1 34.3,35.5 				"/>
				<path class="st2" d="M41.3,10.5l0.1,22.7l-5.9,1l-0.1-22.7L41.3,10.5 M43.6,7.8l-2.7,0.4l-5.9,1L33,9.5l0,1.9l0.1,22.7l0,2.7
					l2.7-0.4l5.9-1l1.9-0.3l0-1.9l-0.1-22.7L43.6,7.8L43.6,7.8z"/>
			</g>
			<g>
				<path class="st3" d="M54.7,32.3c-6.3,0-10.6-4.5-10.6-11.1c0-7.3,5.3-13.7,12.4-14.9c0.9-0.2,1.8-0.2,2.6-0.2
					c2.6,0,4.9,0.8,6.9,2.3l0.9,0.7l-4.2,6.1l4.5-0.8l0,12l-0.3,0.3c-1.9,2-5.2,4.6-9.9,5.4C56.3,32.3,55.5,32.3,54.7,32.3z
					 M58,14.1c-0.3,0-0.7,0-1,0.1c-2.5,0.4-4.5,3.1-4.5,6c0,2.7,1.4,4.3,3.6,4.3c0.3,0,0.5,0,0.8-0.1c1-0.2,1.8-0.5,2.5-0.9l0-0.8
					l-4.2,0.7l0-6.9l6.3-1l-0.2-0.1C60.1,14.4,59.1,14.1,58,14.1z"/>
				<path class="st2" d="M59.1,7.2c2.5,0,4.5,0.8,6.2,2.1l-3.5,5c-1.2-0.9-2.4-1.4-3.9-1.4c-0.4,0-0.8,0-1.2,0.1
					c-3.1,0.5-5.4,3.7-5.4,7.1v0.1c0,3.3,1.9,5.4,4.8,5.4c0.3,0,0.7,0,1-0.1c1.4-0.2,2.5-0.7,3.4-1.5l0-2.8L56.3,22l0-4.6l9.8-1.6
					l0,10.2c-2.2,2.3-5.4,4.4-9.2,5c-0.7,0.1-1.4,0.2-2.1,0.2c-5.5,0-9.5-3.9-9.5-10v-0.1c0-6.6,4.8-12.6,11.5-13.7
					C57.5,7.3,58.3,7.2,59.1,7.2 M59.1,5c-0.9,0-1.8,0.1-2.8,0.2c-7.6,1.3-13.4,8.1-13.4,16v0.1c0,7.2,4.9,12.3,11.8,12.3
					c0.8,0,1.7-0.1,2.5-0.2c5-0.8,8.5-3.6,10.5-5.7l0.6-0.7l0-0.9l0-10.2l0-2.7l-2.7,0.4l-0.6,0.1l2.1-3l1.2-1.8l-1.8-1.3
					C64.4,5.8,62,5,59.1,5L59.1,5z M54,22.2c-0.4-0.7-0.4-1.5-0.4-2v-0.1c0-0.7,0.2-1.5,0.4-2.1l0,3.9L54,22.2L54,22.2z"/>
			</g>
		</g>
		<g>
			<g>
				<g>
					<path class="st4" d="M17.7,63.4c-0.8,0-1.5-0.1-2.3-0.2c-1.4-0.3-2.7-0.9-3.9-1.8l-0.8-0.7l4.1-5.9l0.9,0.6
						c0.6,0.4,1.2,0.7,1.9,0.9c0.4,0.1,0.8,0.2,1.2,0.2c0.2,0,0.4,0,0.5,0c0.7-0.1,1-0.3,1-0.4c0.1-0.1,0.1-0.1,0.1-0.2c0,0,0,0,0,0
						c-0.2-0.1-0.4-0.1-0.6-0.2c-0.3-0.1-0.6-0.2-1-0.3l-2.4-0.7c-0.6-0.1-1.1-0.4-1.7-0.7c-0.6-0.3-1.1-0.7-1.5-1.2
						c-0.4-0.5-0.8-1.1-1-1.8c-0.2-0.7-0.4-1.5-0.4-2.3c0-1,0.2-2,0.6-2.9c0.4-0.9,0.9-1.8,1.6-2.5c0.7-0.8,1.5-1.4,2.5-1.9
						c1-0.5,2-0.9,3.2-1.1c0.5-0.1,1-0.1,1.6-0.1c0.7,0,1.4,0.1,2.1,0.2c1.3,0.3,2.5,0.9,3.5,1.8l0.7,0.7l-3.6,5.4L23,47.8
						c-0.5-0.3-1.1-0.5-1.5-0.7C21.2,47,21,47,20.7,47c-0.2,0-0.5,0-0.7,0.1c-0.4,0.1-0.7,0.2-0.9,0.3c0,0-0.1,0.1-0.1,0.1
						c0.5,0.2,1.1,0.3,1.9,0.5l2.3,0.6c1.4,0.4,2.5,1,3.3,2c0.8,1,1.2,2.3,1.2,4c0,1-0.2,2-0.6,2.9c-0.4,1-0.9,1.8-1.6,2.6
						c-0.7,0.8-1.6,1.4-2.6,2c-1,0.6-2.2,0.9-3.5,1.2C18.9,63.4,18.3,63.4,17.7,63.4z"/>
					<path class="st2" d="M21.2,41.3c0.6,0,1.3,0.1,1.9,0.2c1.1,0.2,2.1,0.8,3,1.5l-2.5,3.7c-0.6-0.4-1.2-0.6-1.8-0.8
						c-0.3-0.1-0.7-0.1-1-0.1c-0.3,0-0.6,0-0.9,0.1c-0.6,0.1-1.1,0.3-1.4,0.6c-0.3,0.3-0.5,0.6-0.5,1.1c0,0.5,0.2,0.8,0.7,1
						c0.5,0.2,1.2,0.4,2,0.6l2.3,0.6c1.2,0.3,2.1,0.8,2.7,1.6c0.6,0.8,1,1.9,1,3.2c0,0.8-0.2,1.7-0.5,2.5c-0.3,0.8-0.8,1.6-1.4,2.3
						c-0.6,0.7-1.4,1.3-2.3,1.8c-0.9,0.5-1.9,0.8-3.1,1c-0.5,0.1-1.1,0.1-1.6,0.1c-0.7,0-1.4-0.1-2.1-0.2c-1.3-0.2-2.4-0.8-3.4-1.6
						l2.8-4.1c0.7,0.5,1.4,0.8,2.2,1c0.5,0.2,1,0.2,1.5,0.2c0.2,0,0.5,0,0.7-0.1c0.7-0.1,1.3-0.3,1.6-0.6c0.3-0.3,0.5-0.7,0.5-1.1
						c0-0.2-0.1-0.4-0.2-0.6c-0.1-0.1-0.3-0.3-0.5-0.4c-0.2-0.1-0.5-0.2-0.8-0.3c-0.3-0.1-0.7-0.2-1.1-0.3l-2.3-0.7
						c-0.5-0.1-1-0.3-1.4-0.6c-0.5-0.3-0.9-0.6-1.2-1c-0.3-0.4-0.6-0.9-0.8-1.4s-0.3-1.2-0.3-1.9c0-0.9,0.2-1.7,0.5-2.5
						c0.3-0.8,0.8-1.5,1.4-2.2c0.6-0.7,1.3-1.2,2.2-1.7c0.9-0.5,1.8-0.8,2.8-1C20.3,41.3,20.7,41.3,21.2,41.3 M21.2,39
						c-0.6,0-1.2,0-1.7,0.1c-1.3,0.2-2.4,0.6-3.5,1.2c-1.1,0.6-2,1.3-2.8,2.1c-0.8,0.9-1.4,1.8-1.9,2.9c-0.5,1.1-0.7,2.2-0.7,3.4
						c0,1,0.2,1.9,0.4,2.7c0.3,0.8,0.7,1.5,1.2,2.1c0.4,0.4,0.7,0.8,1.2,1.1l-0.3,0.4l-2.8,4.1l-1.2,1.8l1.7,1.3
						c1.3,1,2.8,1.7,4.4,2c0.8,0.2,1.7,0.3,2.5,0.3c0.7,0,1.3-0.1,2-0.2c1.4-0.2,2.7-0.7,3.8-1.3c1.1-0.6,2.1-1.4,2.9-2.2
						c0.8-0.9,1.4-1.9,1.9-3c0.4-1.1,0.6-2.2,0.6-3.3c0-1.9-0.5-3.5-1.5-4.7c-0.6-0.7-1.2-1.2-2-1.7l0.1-0.2l2.5-3.7l1.1-1.6
						l-1.5-1.3c-1.2-1-2.5-1.7-4-2.1C22.8,39.1,22,39,21.2,39L21.2,39z"/>
				</g>
				<g>
					<polygon class="st4" points="28.4,39.2 35.6,38 35.7,60.2 28.5,61.4 					"/>
					<path class="st2" d="M34.5,39.3l0,19.9l-5,0.8l0-19.9L34.5,39.3 M36.8,36.6l-2.7,0.4l-5,0.8l-1.9,0.3l0,1.9l0,19.9l0,2.7
						l2.7-0.4l5-0.8l1.9-0.3l0-1.9l0-19.9L36.8,36.6L36.8,36.6z"/>
				</g>
				<g>
					<polygon class="st4" points="36.4,55.3 43,43.5 37.1,44.5 37.1,37.7 52.4,35.2 52.4,40 45.8,51.8 52.5,50.7 52.5,57.4 
						36.4,60.1 					"/>
					<path class="st2" d="M51.3,36.6l0,3.2l-7.6,13.6l7.7-1.3l0,4.4l-13.8,2.3l0-3.2L45.2,42l-6.9,1.1l0-4.4L51.3,36.6 M53.5,33.9
						l-2.7,0.4l-13,2.2L36,36.8l0,1.9l0,4.4l0,2.7l2.7-0.4l2.2-0.4l-5.3,9.4L35.2,55l0,0.6l0,3.2l0,2.7l2.7-0.4l13.8-2.3l1.9-0.3
						l0-1.9l0-4.4l0-2.7L51,49.8l-3,0.5l5.3-9.4l0.3-0.5l0-0.6l0-3.2L53.5,33.9L53.5,33.9z"/>
				</g>
				<g>
					<polygon class="st4" points="53.1,35.1 67.5,32.7 67.5,39.4 60.4,40.6 60.4,41.4 66.5,40.4 66.5,47.1 60.4,48.1 60.4,49.4 
						67.8,48.1 67.8,54.9 53.2,57.3 					"/>
					<path class="st2" d="M66.3,34l0,4.4l-7.1,1.2l0,3.1l6.1-1l0,4.4l-6.1,1l0,3.5l7.4-1.2l0,4.4l-12.4,2.1l0-19.9L66.3,34
						 M68.6,31.3L66,31.8l-12.1,2L52,34.1l0,1.9L52,56l0,2.7l2.7-0.4L67,56.1l1.9-0.3l0-1.9l0-4.4l0-2.7L67.6,47l0-0.9l0-4.4l0-1.2
						l1-0.2l0-1.9l0-4.4L68.6,31.3L68.6,31.3z"/>
				</g>
			</g>
		</g>
	</g>
</g>
</svg>
