<?xml version="1.0" encoding="utf-8"?>
<!-- Generator: Adobe Illustrator 21.0.0, SVG Export Plug-In . SVG Version: 6.00 Build 0)  -->
<svg version="1.1" id="Capa_1" xmlns="http://www.w3.org/2000/svg" xmlns:xlink="http://www.w3.org/1999/xlink" x="0px" y="0px"
	 viewBox="0 0 79 72.1" style="enable-background:new 0 0 79 72.1;" xml:space="preserve">
<style type="text/css">
	.st0{fill:#5FA03C;}
	.st1{fill:#FFFFFF;}
	.st2{fill:#F2F2F2;}
	.st3{fill:#369443;}
	.st4{fill:#8EBB37;}
	.st5{fill:#222221;}
	.st6{fill:#94BB1E;}
	.st7{fill:none;stroke:#222221;stroke-width:2.346;stroke-linecap:round;stroke-linejoin:round;stroke-miterlimit:10;}
	.st8{fill:#D9802E;}
	.st9{fill:#F0C830;}
	.st10{opacity:0.68;clip-path:url(#SVGID_2_);}
	.st11{clip-path:url(#SVGID_4_);}
	.st12{clip-path:url(#SVGID_6_);fill:url(#SVGID_7_);}
	.st13{opacity:0.2;clip-path:url(#SVGID_2_);}
	.st14{clip-path:url(#SVGID_9_);}
	.st15{clip-path:url(#SVGID_11_);}
	.st16{filter:url(#Adobe_OpacityMaskFilter);}
	.st17{clip-path:url(#SVGID_13_);}
	.st18{enable-background:new    ;}
	.st19{clip-path:url(#SVGID_13_);fill:url(#SVGID_15_);}
	.st20{clip-path:url(#SVGID_13_);mask:url(#SVGID_14_);}
	.st21{clip-path:url(#SVGID_17_);}
	.st22{clip-path:url(#SVGID_19_);fill:url(#SVGID_20_);}
	.st23{opacity:0.68;clip-path:url(#SVGID_22_);}
	.st24{opacity:0.57;clip-path:url(#SVGID_22_);}
	.st25{clip-path:url(#SVGID_26_);}
	.st26{clip-path:url(#SVGID_28_);fill:#CED0D1;}
	.st27{clip-path:url(#SVGID_22_);fill:#4070B6;}
	.st28{clip-path:url(#SVGID_22_);fill:#DD902F;}
	.st29{fill:#C91862;}
	.st30{fill:none;stroke:#272425;stroke-width:7.564600e-02;stroke-miterlimit:10;}
	.st31{fill:#9CC34D;}
	.st32{fill:#B88844;}
	.st33{fill:#78B552;}
	.st34{fill:#589B52;}
	.st35{fill:#5CA257;}
	
		.st36{fill:none;stroke:#FFFFFF;stroke-width:2.3815;stroke-linecap:round;stroke-linejoin:round;stroke-miterlimit:10;stroke-dasharray:0,4.6879;}
	.st37{fill:none;stroke:#FFFFFF;stroke-width:2.3815;stroke-linecap:round;stroke-linejoin:round;stroke-miterlimit:10;}
	.st38{fill:#AFCB49;}
	.st39{fill:#CE4E80;}
	.st40{fill:#E35100;}
	.st41{fill:#4DAEA9;}
	.st42{fill:#B45696;}
	.st43{fill:#E1DF00;}
	.st44{fill:#76B452;}
	.st45{fill:#E4A612;}
	.st46{fill:#474747;}
	.st47{fill:#B2C633;}
	.st48{fill:#272425;}
	.st49{fill:#5D9E3B;}
	.st50{fill:#F3D33F;}
	.st51{fill:#526D59;}
	.st52{fill:#E2D1B1;}
	.st53{fill:#75398E;}
	.st54{fill:#EBB146;}
	.st55{fill:#F1F1F1;}
	.st56{fill:none;stroke:#5FA03C;stroke-width:1.2441;stroke-linecap:round;stroke-linejoin:round;stroke-miterlimit:10;}
	.st57{fill:none;stroke:#5FA03C;stroke-width:1.6816;stroke-linecap:round;stroke-linejoin:round;stroke-miterlimit:10;}
</style>
<g>
	<g>
		<path class="st1" d="M72.2,36.1c0,18.2-14.8,33-33,33c-18.2,0-33-14.8-33-33c0-18.2,14.8-33,33-33C57.5,3.1,72.2,17.8,72.2,36.1"
			/>
	</g>
	<polygon class="st1" points="65.6,20.9 65.6,20.9 65.6,20.9 	"/>
	<g>
		<path class="st31" d="M45.7,64c-0.2,0.1-0.3,0.2-0.5,0.2C45.5,64.2,45.7,64.2,45.7,64"/>
		<path class="st31" d="M49.4,63.3c0.2-0.1,0.4-0.2,0.6-0.3C49.8,62.9,49.6,63.1,49.4,63.3"/>
		<path class="st31" d="M49.4,63.3c-0.2,0.1-0.3,0.1-0.5,0.2C49.1,63.5,49.2,63.4,49.4,63.3"/>
		<path class="st31" d="M47.9,63.8c-0.1,0-0.2,0.1-0.3,0.1C47.6,63.9,47.7,63.9,47.9,63.8"/>
		<path class="st31" d="M23.4,12.5c-0.1,0.1-0.3,0.2-0.4,0.4C23.2,12.8,23.3,12.6,23.4,12.5"/>
		<path class="st40" d="M48.5,64.9c-0.1,0-0.2,0.1-0.3,0.1c0.1-0.1,0.2-0.2,0.3-0.3L48.5,64.9c0.5-0.3,0.7-0.5,1.2-0.5
			C49.4,64.7,49,64.8,48.5,64.9 M42.3,6.3l0-0.1c0.1,0.1,0.1,0.1,0.4,0.1L42.3,6.3z M40.2,6.3c-1,0,0.1-0.1,0.1-0.1
			C41.1,6.2,40.3,6.2,40.2,6.3 M21.4,59.5c0.2,0.2,0.5,0.4,0.7,0.5C22.1,60.2,21.9,59.8,21.4,59.5 M20.7,13.5
			c-0.3,0.2-0.3,1-0.8,0.7c-0.3-0.3,0.2-0.5,0.5-0.8c0,0-0.2,0.3-0.1,0.3C20.1,13.8,20.8,13.3,20.7,13.5 M20,58.4
			c0.3,0.2,0.6,0.4,0.9,0.6C20.4,58.8,20.2,58.6,20,58.4 M17.2,55.4C17.2,55.4,17.2,55.3,17.2,55.4C17.2,55.3,17.2,55.3,17.2,55.4
			 M12.9,50.6c0,0.1,0.1,0.1,0.2,0.2C13,50.7,12.9,50.7,12.9,50.6 M11.6,48.5c0.1,0.1,0.2,0.2,0.2,0.3
			C11.7,48.7,11.7,48.6,11.6,48.5 M10.2,29.8c-0.1,0.5-0.2,0.9-0.4,1.3C9.9,30.7,10.1,30.2,10.2,29.8 M65,19.6c0,0-0.1-0.1-0.1-0.1
			c-0.4-0.7-1.3-1.2-1.9-1.7c-0.7-0.6-1.5-1.2-2.2-1.8c-1.1-0.9-2.1-1.7-3.1-2.7c-0.9-0.9-1.6-2.1-2.6-2.7c0,0,0,0,0,0
			c0,0,0,0-0.1,0c0,0-0.1,0-0.1-0.1c-0.3-0.2-0.7-0.4-1-0.6c-0.2-0.1-0.3-0.1-0.3-0.1c-0.2-0.1,0.1,0,0.1-0.1c0,0,0,0,0,0L53,9.5
			c0,0,0,0,0-0.1c-0.4-0.2-0.8-0.4-1.3-0.6c0,0,0,0,0,0c-0.5-0.2-1-0.4-1.5-0.6c0,0,0.1,0,0.1,0c0.1,0.1,0.2,0.1,0.2,0.1l0.2,0.1
			c0,0-0.2-0.1-0.3-0.2c-0.1,0-0.2-0.1-0.2-0.1c0,0,0,0,0,0c-0.8-0.3-1.6-0.6-2.3-0.9c-0.1,0-0.4-0.1-0.6-0.1
			c-0.8-0.3-1.9-0.6-2.9-0.8c-0.8-0.2-1.6-0.3-2-0.3c-1.4-0.2-2.8-0.2-4.3-0.2c-0.2,0.1-0.3,0.1-0.3,0.2c0.6-0.1,1.8-0.2,2-0.1
			c-0.1,0-0.3,0-0.5,0c-0.2,0-0.4,0-0.5,0.1c-0.3,0-0.6,0.1-0.6,0.1c-0.6-0.2,1.1-0.1,0.3-0.2c-0.4,0-0.6,0.1-0.8,0.1
			C37.8,6.1,37.2,6.1,37,6c-1.3,0.1-2.1,0.1-3.5,0.4c0.1,0,0.1,0,0,0c0,0,0,0,0,0c0,0,0,0-0.1,0c-0.3,0.1-0.6,0.1-0.8,0.2
			c-0.1,0.1-0.2,0.1-0.3,0.2C32,7,31.9,7.1,32,7.2c-0.4,0.1-0.6,0.2-0.8,0.2c-0.1,0-0.2,0-0.3,0.1c-0.1,0-0.2,0.1-0.4,0.2
			c1.1-0.2-0.2,0.1-0.3,0.2c-0.7,0.3-0.3,0-0.6,0.1c-0.1,0.1-0.3,0.2-0.3,0.3c0.1,0,0.2,0,0.4-0.1c-0.3,0.1-0.4,0.1-0.4,0.1
			c-0.2,0-0.1-0.1,0.1-0.3c0.1-0.1,0.2-0.2,0.2-0.3c-0.3,0.1-0.7,0.3-1,0.4l0,0.1l-0.2,0.1l0-0.1c-0.3,0.1-0.6,0.3-1,0.5
			c0.1,0.2,0.4,0.4,0.7,0.3c0,0.1-0.6,0.2-0.9,0.3c-0.4,0.1-0.7,0.3-1,0.5c-0.1,0.1-0.3,0.2-0.4,0.3c-0.1,0.1-0.3,0.2-0.4,0.3
			l0.4-0.4c-0.1,0-1,0.6-1.2,0.8c-0.1,0,0.1-0.3,0.1-0.3c-0.8,0-1.1,0.7-1.6,1.2c0.4-0.3,0.7-0.6,1.1-0.9c-0.5,1-1.7,1.3-2.5,2.1
			c0.2-0.3,0.2-0.3,0.5-0.5c-0.2,0-0.5,0.3-0.7,0.5c0-1,1.2-0.8,1.2-1.6c-1.5,1.3-3,2.1-4.2,3.4c0.1,0,0.3,0,0.4-0.1
			c-0.6,0.8-1.9,0.7-2.1,1.6l0-0.3c-0.7,1.3-2,2.4-2.5,3.7c-0.3-0.8,1.2-1,0.5-1.8c-1,2.1-2.2,4.2-2.9,6.2v-0.3
			c-0.5,0.7-0.7,1.6-0.8,2.4c0,0,0,0,0.1,0c0,0.1-0.1,0.1-0.1,0.2c0,0.3-0.1,0.6-0.1,0.8c0-0.1,0-0.2,0-0.3
			c-0.3,0.7-0.5,1.5-0.7,2.3c0-0.3,0-0.6-0.3-0.9c0,1.6-0.5,2.9-0.4,4.5c0,0.1-0.1,0.3-0.1,0.5c0.1,0.9-0.9,1.7-0.4,2.5
			c0,0,0.1,0,0.1,0.1c-0.7,4.2,0.1,8.5,2,12.1L11,48c0.5,0.8,0.8,1.5,1.5,2.1c-0.3-0.3-0.3-0.8-0.5-1c0.6,0.4,0.6,1.1,0.8,1.6
			c-0.1-0.2-0.2-0.4-0.3-0.5c0,0.9,0.9,1.2,1.3,1.8c0.1,0.1,0.1,0.1,0.2,0.2l-0.1,0c0,0.1,0.1,0.2,0.1,0.3c-0.1-0.1-0.1-0.2-0.2-0.3
			h-0.1c1.8,1.8,3.3,3.9,5.2,5.4c0.3,0.3,0.7,0.6,1,0.9c0.1,0.1,0.2,0.2,0.4,0.4c-0.3-0.3-0.5-0.3-0.7-0.5c1,1,2,1.8,3.3,2.6
			l-0.2-0.3c2.8,1.8,6,3,9.3,4c-0.2,0-0.5,0-0.7,0c0.3,0.3,0.7,0.2,1,0.2l-0.3,0c0.3,0,0.5,0.3,0.8,0.3c0.2,0,0.4,0.1,0.5,0.1
			c0.1,0,0.2,0,0.2,0c-0.1,0-0.2-0.1-0.4-0.1c0.2,0.1,0.5,0.1,0.8,0.2c0.3,0.1,0.6,0.2,0.9,0.3c-0.1,0-0.2,0-0.3,0
			c-0.4-0.2-0.7-0.2-0.9-0.2c1,0.2,0.3,0.1,0.7,0.3c0.4,0.1,0.6,0.1,0.8,0.1c0.1,0,0.2-0.1,0.1-0.1c0.4,0.1,0.7,0.2,1,0.2
			c0.3,0,0.6,0.1,1,0.1l-0.2,0.1c0,0,0.2,0,0.4,0c0.1,0,0.2,0,0.3,0c0.1,0,0.1,0,0.1,0s-0.2,0-0.3,0c-0.2,0-0.3,0-0.3,0
			c0.4,0.1,0.6,0.1,0.7,0.1c0.1,0,0.2,0,0.2-0.1c0.1-0.1,0.2-0.1,1,0c0.4,0,0.8,0,1.2,0c0.7-0.5,1.2,0.2,2,0
			c-0.2-0.2-0.4-0.2-0.6-0.2c1.2,0,2.1,0.2,3.3,0c-0.5-0.5-0.7,0-1.2,0c0.7-0.5,1.7,0,2.5-0.5c0,0,0,0.1,0,0.1
			c0.1,0,0.2-0.1,0.3-0.1l0,0.3c0.3-0.7,1-0.5,1.5-0.6c-0.2,0.1-0.4,0.2-0.5,0.3c0.5-0.3,0.7-0.3,1.2-0.3c-0.1,0-0.3,0.1-0.4,0.2
			c0.3-0.1,0.7-0.2,1-0.4c0,0-0.1,0-0.1,0c0.7-0.5,1.5-1.1,2.5-1.3l-0.2,0.3c0.9-0.9,2.2-0.8,3-1.6c0.8-0.3,1.5-0.9,2.1-1.7
			c0.1,0.1,0.3,0.1,0.2,0.3c0.7-1,2-1.8,3-2.9l0,0.3c0.2-0.3,0.7-0.8,1-1l-0.2,0c0.7-0.3,1.2-1.1,1.8-1.6c0.5-0.6,1-1.2,1.4-1.9
			c0.9-1.3,1.6-2.8,2.4-4.1c-0.2,0.3-0.2,0.3-0.5,0.5c0.4-0.4,0.5-1,0.7-1.4c0,0,0,0.1,0,0.1c1-1.6,1.5-3.4,1.9-5.2L67.7,44
			c0.2-0.5,0.2-1,0.5-1.5c0.1-0.4,0.2-0.8,0.3-1.2c0.1-0.4,0.2-0.8,0.3-1.2c0-0.2,0.1-0.4,0.1-0.7c0-0.2,0.1-0.5,0.1-0.7l0,0.1
			c0.1-0.6,0.1-1.1,0.1-1.6v0.3c0.3-1.5,0.3-3.1,0.3-4.6c-0.2-3.3-1-6.5-2.5-9.5C66.4,22.1,65.7,20.8,65,19.6"/>
		<path class="st31" d="M13.5,50.6c-0.1-0.1-0.1-0.1-0.3-0.3c0.2,0.2,0.2,0.3,0.3,0.5h0.1C13.6,50.8,13.6,50.7,13.5,50.6"/>
		<path class="st31" d="M11.2,26.2c-0.3,0.2-0.3,0.4-0.2,0.6c0.1-0.2,0.1-0.3,0.2-0.5C11.2,26.3,11.2,26.3,11.2,26.2"/>
		<path class="st3" d="M7.8,30l0,0.1c-0.1,0.5-0.3,1-0.4,1.2c0.1-0.1,0.2-0.3,0.4-0.6C7.8,30.5,7.8,30.4,7.8,30
			C8,29.8,7.9,30.1,8,30.1C8,29.9,8,29.3,7.8,30 M8.3,28C8.3,28,8.3,28,8.3,28C8.3,28,8.3,28,8.3,28L8.3,28z M19.9,11.2
			c-0.2,0.1-0.3,0.2-0.4,0.2C19.5,11.4,19.6,11.4,19.9,11.2 M34.3,4.4c0.1,0,0.1,0,0.1,0C34.4,4.4,34.4,4.4,34.3,4.4 M32.3,4.9
			c0,0-0.1,0-0.1,0C32.2,4.9,32.2,4.9,32.3,4.9 M57.8,9.3C57.8,9.3,57.7,9.3,57.8,9.3C57.4,9.1,57.5,9.2,57.8,9.3 M7.4,38.6
			L7.4,38.6c0,0.5,0.1,0.8,0,0.3C7.4,38.8,7.4,38.7,7.4,38.6 M7.5,31.3C7.4,31.3,7.4,31.3,7.5,31.3C7.4,31.3,7.4,31.3,7.5,31.3
			 M70.4,28.4L70.4,28.4C70.4,28.3,70.4,28.3,70.4,28.4L70.4,28.4z M70.4,28.3l-0.2-0.4C70.3,28.6,70.3,28.3,70.4,28.3 M8,28.8
			c0,0.2,0.1,0.4,0.1,0.4c0-0.5,0.1-0.8,0.2-1.2l-0.4,0.3C7.9,28.3,7.9,28.6,8,28.8 M70,43.3c0-0.1,0-0.1,0-0.1
			C70.1,43.3,70.1,43.3,70,43.3 M70.3,42.2l0.1-0.4C70.3,42,70.3,42.2,70.3,42.2 M8.8,46.6c0-0.2-0.1-0.4-0.2-0.7L8.8,46.6z M7.1,34
			c0,0,0,0.1,0,0.2c0,0.1,0,0.3,0,0.4c0,0.3,0,0.6,0,0.6l0.1-0.6l-0.1,0C7.2,34,7.2,34.1,7.1,34 M7.9,29.2c0-0.3-0.2,0.2-0.1-0.5
			C7.8,29.2,7.7,30,7.9,29.2 M20.8,61.9L20.8,61.9C20.9,62,20.9,62,20.8,61.9 M22.8,63.1c0.2,0.1,0.3,0.2,0.3,0.3
			C23.1,63.3,23.1,63.2,22.8,63.1 M41,67.9c0.1,0,0.2,0,0.2,0C41.1,67.8,41,67.9,41,67.9 M35.9,67.6l0.4-0.1
			C35.6,67.5,35.9,67.6,35.9,67.6 M35.8,67.6L35.8,67.6C35.8,67.6,35.8,67.6,35.8,67.6L35.8,67.6z M69.6,44.7L69.6,44.7
			C69.7,44.7,69.7,44.6,69.6,44.7 M30.2,5.6c-0.1,0.1-1.2,0.5-0.1,0.2C30.1,5.7,31,5.4,30.2,5.6 M8,30.1C7.9,30.2,7.9,30.2,8,30.1
			C8,30.1,8,30.1,8,30.1 M47.5,4.8c0.1,0,0.2,0.1,0.3,0.1l0-0.1C47.3,4.7,47,4.7,47.5,4.8 M30.7,66.3c-0.2-0.1-0.5-0.1-0.7-0.2
			C30.4,66.2,30.7,66.4,30.7,66.3 M40.5,3.9l0.8,0.1l-0.2,0L40.5,3.9z M7.3,40.2C7.3,40.3,7.3,40.3,7.3,40.2c0,0.2,0.1,0.3,0.1,0.4
			c0-0.1,0-0.1,0-0.2C7.3,40.3,7.3,40.3,7.3,40.2 M71,37.1c0-0.4,0-0.7,0-1c0,0,0,0.2-0.1,0.4c0,0.1,0,0.2,0,0.3c0,0.1,0,0.1,0,0.1
			c-0.1-1,0-1.7-0.2-1c0.1,0,0.1,0.3,0.1,0.6c0,0.3,0,0.7-0.1,1.1c0,0.2,0,0.4,0,0.6c0,0.2,0,0.4,0,0.5c0,0.3,0,0.5,0.1,0.6
			c0,0,0,0,0,0c0,0,0,0,0,0c0,0,0,0,0,0s0,0,0,0c0,0,0,0,0,0c0,0,0,0.1,0,0.2c0,0,0,0.1,0,0.1c0,0.1-0.1,0.3-0.1,0.3
			c0-0.2,0-0.2,0-0.3c-0.1,0.5-0.1,0.7-0.1,1c0,0,0,0,0,0.1c0,0,0,0.1,0,0.1c-0.1,0.4-0.1,0.7-0.1,0.9l0.2-0.7v0
			c-0.1,0.4-0.1,0.8-0.2,1.2c-0.1,0.3-0.2,0.4-0.1,0.1c0,0,0,0.3-0.1,0.5c0,0.3-0.1,0.5-0.1,0.5c-0.1,0.2-0.1,0.2-0.1,0
			c0,0.1-0.1,0.4-0.2,0.7c-0.1,0.2-0.1,0.4-0.1,0.5c0,0.2-0.1,0.2-0.1,0.2l0,0c0,0.1,0,0.3-0.1,0.5c0,0.1-0.1,0.3-0.1,0.4
			c0,0,0,0,0,0c0,0,0,0,0,0.1c-0.1,0.3-0.2,0.6-0.3,0.9c0-0.1,0.1-0.6,0.3-1.1c-0.6,0.7-0.2,0.8-1,2.4c0,0,0-0.1,0-0.1
			c0-0.1,0.1-0.2,0.1-0.3c0.1-0.2,0.1-0.4,0.1-0.4c-0.4,0.4-0.6,1.1-1.1,1.9c0.1-0.2,1-1.6,0.7-0.7c-0.1,0.2-0.3,0.6-0.5,1.1
			c-0.1,0-0.3,0.4-0.6,1l-0.1-0.1c-0.3,0.6-0.2,0.6-0.3,1c-0.4,0.7-0.6,0.8-0.8,0.9c-0.7,1,0.6-0.6-0.1,0.6
			c-0.6,0.9-0.9,1.5-1.6,2.6c-0.5,0.5,0-0.2-0.2,0L63.9,56c-0.1,0.1-0.1,0.1-0.1,0c-0.1,0.2-0.1,0.3-0.1,0.3
			c-0.2,0.2-0.4,0.5-0.5,0.7c-0.3,0.5-0.7,0.8-1.1,1.1c-0.1,0.1-0.1,0.2-0.1,0.2c-0.2,0.2-0.4,0.4-0.5,0.6c-0.2,0.2,0-0.2-0.1-0.1
			c-0.3,0.3-0.4,0.6-0.6,0.7c-0.2,0.2-0.4,0.4-0.7,0.6c0.1-0.1,0.1-0.1,0.2-0.2c-0.5,0.3-0.8,0.9-1.4,1.2c-0.2,0.4-0.7,0.6-0.7,0.8
			c0,0,0.1-0.1,0.2-0.1c0,0,0.1-0.1,0.1-0.1c0.1,0,0.1,0,0.1,0c0.1-0.1,0-0.1-0.1,0c0.1-0.1,0.2-0.2,0.3-0.2c0,0,0,0,0,0
			c0.1-0.1,0.2-0.1,0.2-0.1c-0.1,0.1-0.3,0.3-0.4,0.4c0,0,0,0,0,0c-0.1,0.1-0.2,0.2-0.3,0.3c0.1-0.1,0.1-0.1,0-0.1
			c0,0-0.1,0.1-0.3,0.3l-0.2,0c0,0,0,0,0,0l-0.1,0l0,0.1c0,0-0.1,0.1-0.2,0.2c-0.1,0.1-0.3,0.2-0.5,0.3c0,0-0.1,0-0.1,0.1
			c0.4-0.3,1.4-1,1.8-1.6c-0.4,0.2-1.2,1.1-1,0.7c-0.3,0.6-1.3,0.9-2,1.6v-0.1c-0.1,0.1-0.4,0.3-0.7,0.5l0.4-0.4
			c-0.3,0.3-0.7,0.5-1.1,0.7c-0.4,0.2-0.7,0.3-1.1,0.5c1.4-0.8,0.6-0.2,0.9-0.3c-0.1,0.1-0.2,0.1-0.3,0.2c-0.1,0.1-0.2,0.1-0.3,0.2
			c-0.4,0.2-0.6,0.3-0.8,0.3c-0.2,0-0.3,0.1-0.6,0.2c-0.2,0.1-0.6,0.2-1,0.4c0.1-0.1,0.3-0.1,0.5-0.2c0.2-0.1,0.3-0.1,0.1,0.1
			c-0.4,0.2-1,0.3-1.3,0.4c-1.5,0.6,0.3,0-0.3,0.3c-0.6,0-0.7,0.3-1.4,0.6l0-0.1c-0.9,0.2-1,0.3-1,0.4c0,0,0,0,0,0
			c-0.2,0.1-0.4,0.1-0.6,0.2c0,0,0,0,0,0c0.2-0.1,0.3-0.2,0.3-0.2s-0.2,0.1-0.4,0.1c-0.2,0.1-0.4,0.1-0.4,0.1l0.1-0.2
			c-0.4,0.1-0.7,0.2-1,0.3c-0.3,0.1-0.6,0.1-1,0.1c0.2,0,0,0.2-0.6,0.3c0-0.1,0.1-0.1,0.1-0.2c0,0-0.2,0.1-0.4,0.2c0,0-0.1,0-0.1,0
			c-0.4,0,0.2-0.1-0.6,0c0,0,0.1-0.1,0.1-0.1c0,0,0,0,0,0c0.2,0,0.4-0.1,0.7,0c0,0,0.2-0.1,0.3-0.2c-0.6,0-1.4,0.1-1.8,0.2
			c0.2,0,0.3,0,0.4,0c0,0-0.1,0-0.2,0.1c-0.2,0-0.4,0.1-0.6,0.1c0,0-0.1,0-0.1,0c-0.1,0-0.2,0-0.3,0c-0.1,0-0.2,0-0.4,0
			c0,0,0.1,0,0.2,0c-0.3,0-0.6,0.1-1,0.1c0.1-0.1,0.1-0.2,0.6-0.2c0,0,0,0,0,0c-0.1,0-0.3,0-0.5,0c-0.4,0-0.8,0.1-0.8,0.1
			c-0.1,0-0.8-0.1-0.6-0.2c-0.4-0.1-0.9,0-1.5,0c-0.3,0-0.6,0-0.9,0c-0.1,0-0.3,0-0.4,0c-0.1,0-0.3,0-0.4-0.1c-0.1,0-0.2,0-0.4,0
			c-0.2,0-0.4-0.1-0.6-0.1c0,0,0,0-0.1-0.1c-0.4-0.1-0.5-0.1-0.6-0.1c-0.1,0-0.2,0-0.2-0.1c-0.3-0.1-0.5-0.1-0.8-0.2
			c-0.3-0.1-0.6-0.1-0.9-0.2l-0.4-0.2c0.1,0,0.1,0,0.2,0c0,0-0.1,0-0.2-0.1l-0.2-0.1c-0.2-0.1-0.3-0.1-0.3,0c-0.1,0-0.2-0.1-0.3-0.1
			c-0.5-0.2-1-0.3-1-0.3c0,0.2-1.3-0.3-1.5-0.2c-0.1,0-0.2-0.1-0.3-0.1c0,0,0.1,0,0.1,0c-0.1,0-0.3-0.1-0.5-0.1
			c-0.1-0.1-0.2-0.1-0.3-0.2c0.3,0.1,0.6,0.2,0.9,0.3l-0.7-0.4c1,0.2,1.6,0.5,0.9,0.1c-0.1,0.1-0.8-0.1-1.6-0.4
			c-0.7-0.3-1.4-0.6-1.6-0.5c0,0-0.1,0-0.1-0.1c-0.1,0-0.2-0.1-0.3-0.2c0.1,0,0.1,0,0.2,0.1c-0.2-0.1-0.3-0.2-0.4-0.2
			c-0.2-0.2-0.4-0.3-0.4-0.3c0,0,0.1,0.1,0.1,0.2c-0.1,0-0.1,0-0.2,0c-0.2,0-0.5-0.1-1.1-0.4c-0.1-0.1-0.2-0.1-0.2-0.2
			c0.1,0,0.1,0,0-0.1l0.2,0.1c-0.1,0-0.1-0.1-0.2-0.1c0,0,0,0,0,0c0,0,0,0,0,0c-0.1,0-0.1,0-0.1-0.1l0.1,0.1c0,0-0.1,0-0.2-0.1
			c-0.1-0.1,0-0.1,0.1,0c0,0-0.2-0.1-0.4-0.2c0,0,0.1-0.1-0.4-0.3c-0.1,0-0.2,0-0.3-0.1c0,0-0.1,0-0.1-0.1c-0.2-0.1-0.4-0.3-0.3-0.2
			c0,0-0.1,0-0.1,0c-0.2-0.1-0.3-0.2-0.5-0.3c-0.1-0.1-0.2-0.1-0.2-0.1l0,0h0c0,0,0,0,0,0c-0.1-0.1-0.2-0.1-0.3-0.2c0,0,0,0.1,0,0.1
			c-0.2-0.1-0.5-0.2-0.6-0.3c-0.3-0.3,0.2,0.1,0.1,0c0,0-0.2-0.1-0.4-0.2c-0.2-0.1-0.4-0.2-0.4-0.2c-0.2-0.3,0.4,0.1,0.9,0.5
			c-0.3-0.4-0.4-0.5-0.7-0.6c-0.1-0.1-0.3-0.2-0.5-0.3c-0.2-0.2-0.5-0.4-0.8-0.7c0,0,0.2,0.1,0.3,0.3c0.2,0.1,0.3,0.2,0.3,0.2
			c-0.2-0.2-0.4-0.5-0.6-0.7c-0.2-0.2-0.6-0.5-0.9-0.9c0.1,0.2,1.2,1.5,0.5,0.9c-0.2-0.2-0.5-0.4-0.9-0.8c0.1-0.1-0.3-0.4-0.8-0.9
			l0.1-0.1c-0.5-0.5-0.5-0.4-0.9-0.6c-0.1-0.2-0.2-0.3-0.3-0.4c0,0,0.1,0.1,0.2,0.2c0.2,0.2,0.4,0.4,0.2,0.1c0,0-0.3-0.2-0.5-0.4
			c0,0,0,0,0,0c-0.1-0.2-0.1-0.3-0.2-0.5c-0.8-1,0.4,0.8-0.6-0.3c-0.2-0.2-0.3-0.4-0.4-0.6c-0.1-0.2-0.3-0.4-0.4-0.5
			c-0.3-0.4-0.6-0.7-1-1.2c-0.3-0.5,0-0.2,0-0.1c0,0,0,0.1,0,0.2l0.1-0.1l-0.3-0.3c0,0.1,0.1,0.1,0.1,0.1L12,53
			c-0.1-0.1,0-0.1,0-0.1c-0.1-0.2-0.2-0.2-0.2-0.2c-0.1-0.2-0.3-0.5-0.4-0.7c-0.3-0.5-0.5-1-0.8-1.5c-0.1-0.2-0.2-0.5-0.3-0.7
			c0,0,0,0,0,0c0,0,0,0,0-0.1C10.1,49.4,10,49.2,10,49c-0.2-0.3-0.4-0.8-0.4-0.5l0.1,0.2c-0.2-0.4-0.3-0.5-0.7-1.2
			c0,0-0.1-0.2-0.1-0.4c0,0,0,0,0,0s0,0,0,0c0,0,0,0,0-0.1c0-0.1-0.1-0.2-0.1-0.3c0-0.1,0-0.2,0-0.2c0,0.2,0,0.3,0,0.3
			c-0.1-0.2-0.1-0.5-0.2-0.8c0,0,0,0,0-0.2c0,0.1,0,0.1,0,0.1c-0.1-0.3-0.1-0.6-0.2-0.8l0-0.2l-0.1,0c0,0-0.1-0.4-0.2-0.9
			C8,43.8,8,43.6,8,43.4c0-0.2,0-0.3,0-0.3c-0.1-0.3-0.2-0.6-0.3-0.9c-0.1-0.3-0.2-0.6-0.3-0.9c0-0.1,0-0.6,0-0.9c0-0.1,0-0.1,0-0.2
			c0,0.2,0.1,0.3,0.1,0.5c0,0.1,0.1,0.3,0.1,0.5c0,0.1,0,0.2,0,0.3c0-0.2,0.1,0.1,0.2,0.4s0.2,0.7,0.3,0.6c0,0-0.1-0.2-0.1-0.4
			c-0.1-0.2-0.1-0.4-0.1-0.4c0,0,0.1,0.3,0.1,0c-0.1,0-0.3-0.9-0.3-1.6c-0.1-0.4-0.2-0.4-0.3-0.3c0-0.2-0.1-0.4-0.1-0.4
			c0.1,0,0.1-0.1,0.1-0.2c0-0.2,0-0.4,0-0.6c-0.1,0.2-0.2-0.1-0.2-0.5c0,0,0-0.1,0.1-0.1C7,37.2,7,37.3,6.9,37c0-0.2,0-0.4,0-0.5
			c0.1,0,0.2,0.1,0.2,1c0.2-1-0.3-1.3-0.1-2.3c0,0.2,0,0.3,0,0.4c0-0.3,0-0.7,0-1.1c0-0.3,0.1-0.6,0.1-0.4l0,0.2
			c0-0.4,0.1-0.8,0.1-1.3c0.1-0.5,0.1-1,0.2-1.5c0.1-0.5,0.1-0.9,0.2-1.3c0-0.3,0.1-0.6,0-0.6c0,0,0.2,0.2,0.2,0.3c0,0,0-0.7,0-1.4
			l0-1.4c0.1,0.3,0.7-0.5,0.5,0.8c0.1-0.2,0.1-0.3,0.2-0.6c0.1-0.2,0.2-0.5,0.3-0.9c-0.1,0.1-0.2,0.3-0.3,0.3c0,0,0-0.1,0-0.1
			c0-0.1,0-0.1,0-0.2c0.3-0.6,0.2-0.5,0.7-1.3C9.1,25.5,9,25,9.2,24.5c0,0.1,0.3,0.1,0.2,0.3c0,0,0-0.1,0-0.2c0-0.1,0.1-0.3,0.1-0.5
			c0.1-0.4,0.2-0.7,0.2-0.7c-0.1,0.3,0.2,0.2,0.4-0.1c-0.1,0.1,0.6-1.1,0.7-1.4c0,0-0.1,0.1-0.2,0.2c-0.1,0.1-0.2,0.3-0.2,0.3
			c0-0.1,0.1-0.1,0.1-0.2c0,0,0-0.1,0-0.1l0-0.1c0.1-0.2,0.2-0.4,0.3-0.6c0.1-0.2,0.1-0.4,0.2-0.6c0-0.1,0-0.2,0.1-0.3
			c0.1-0.2,0.2-0.4,0.4-0.6l0.1-0.1l0.1-0.4c0,0,0-0.1,0.1-0.1c-0.1,0.2,0,0.6,0.5-0.1c0-0.2,0.1-0.5,0.3-1l0.1-0.2l0-0.1l-0.1,0.2
			c0.2-0.5,0.4-1,0.7-1.6c0.1-0.1,0.2-0.2,0.3-0.3l0.2-0.1l0.4-0.6c0.1-0.1,0.1-0.1,0.2-0.2c-0.3,0.7-1.1,2.3-1.5,3.3
			c0.4-0.4,0.2-0.1,0.7-0.8c0.2-0.2-0.2,0.5-0.3,0.7c0,0,0.3-0.4,0.6-0.8c0.2-0.2,0.3-0.4,0.4-0.5c0.1-0.2,0.2-0.2,0.2-0.2
			c-0.2,0,0.9-1.3,0.7-1.3c0,0-0.1,0.1-0.2,0.3c-0.1,0.2-0.3,0.4-0.5,0.6c-0.2,0.2-0.3,0.5-0.4,0.6c-0.1,0.2-0.2,0.3-0.2,0.3
			c-0.1,0,0-0.4,0.3-0.8c0.3-0.5,0.7-1.1,1.2-1.6c0.3-0.2,0,0.4,0.1,0.4c0.1-0.2,0.9-1.1,1-1.2c0,0-0.1,0.1-0.2,0.2
			c-0.1,0.1-0.2,0.3-0.2,0.3c0.3-0.3,0.5-0.5,0.7-0.8c0.2-0.3,0.5-0.6,0.9-0.8c0.3-0.2,0.9-0.5,0.9-0.6c-0.1,0.1-0.3,0.1-0.4,0.1
			c0.2-0.4,0.7-0.7,1.2-1.1c0,0,0.1,0,0.1-0.1c0,0,0,0,0.1,0c0,0,0.1-0.1,0.1-0.2c0.1-0.1,0.2-0.2,0.3-0.2c0.1,0,0,0.1,0.4-0.2
			c0-0.2,1-0.7,0.5-0.5c0-0.1,0.1-0.1,0.1-0.2c0.3-0.2,0.5-0.3,1-0.6c-0.1,0-0.1,0,0-0.1c0,0,0.1-0.1,0.1-0.1l-0.1,0.1
			c0.2-0.2,0.4-0.3,0.7-0.5c0.2-0.1,0.4-0.3,0.6-0.4c0.4-0.2,0.7-0.5,1.1-0.6c0.7-0.4,1.4-0.7,2.4-1.2c0.2,0,0.7-0.2,0.5-0.1
			c0.2-0.1,0.3-0.2,0.7-0.4c0.9-0.2-0.9,0.4-0.2,0.3c0-0.1,1-0.5,1.6-0.8c-0.2-0.1-1.4,0.5-2,0.8c0,0,0-0.1,0.1-0.2c0,0,0.1,0,0.1,0
			c0.1-0.1,0.1-0.1,0-0.1c0,0,0.1,0,0.1-0.1c0.3-0.1,0.7-0.3,1-0.4c0.1,0,0.2-0.1,0.2-0.1c0.1,0,0.2,0,0.4-0.1
			c0.1,0,0.1-0.1,0.2-0.1c0.1,0,0.2-0.1,0.3-0.1c0.4-0.1,0.6-0.2,0.8-0.1c0.8-0.2-0.3-0.1,0.5-0.3l0.2,0l0.2-0.1
			c0.3-0.1,0.5-0.1,0.6-0.1c0,0,0,0,0.1,0c-0.2,0.1-0.5,0.1-0.7,0.2c0.1,0,0.4-0.1,0.8-0.1c0,0,0,0,0.1,0c-0.1,0-0.4,0.1-0.5,0.1
			c0.6-0.1,1.7-0.4,2.1-0.4c-0.1,0-0.2,0-0.3,0c-0.2,0-0.4,0.1-0.4,0.1c0.1,0,0.2,0,0.2-0.1c0.1,0,0.2,0,0.3,0
			c0.5-0.1,1.1-0.2,1.7-0.2c0.3,0,0.5-0.1,0.8-0.1c0.3,0,0.5,0,0.7,0C37.5,4,37.8,4,37.9,4c1-0.1,2-0.1,3-0.1l-0.2-0.1
			c0.8,0,1.1,0,1.5,0.1l-0.2,0.1L42.4,4l-0.1-0.1c0.2,0,0.3,0,0.6,0.1c0.3,0,0.6,0.1,1,0.1l-0.1,0c0.1,0,0.2,0,0.2,0
			c-0.1,0-0.2,0-0.2,0.1c0,0,0.2,0,0.4,0c0.2,0,0.4,0,0.4,0c0,0-0.3,0-0.1,0.1c0,0,0.3-0.1,0.6,0c0.2,0.1,0.6,0.2,0.2,0.2
			c0.5,0,0.7,0.1,0.9,0.1c0.2,0,0.3,0,0.4,0c0.2,0,0.2,0,0.8,0l0.2,0.2c0.4,0,0.5,0,1.4,0.2c-0.7-0.2,0.5,0.3-0.3,0.2
			c0.4,0.2,0.8,0.3,1.2,0.5c0.4,0.1,0.7,0.2,0.9,0.3c0.3,0.1,0.5,0.2,0.8,0.3c0.2,0.1,0.4,0.2,0.6,0.4c0.5,0.1,0.1-0.1-0.3-0.3
			c-0.4-0.2-0.9-0.4-0.7-0.3c-0.2-0.1,0-0.1,0.3,0c0.3,0.1,0.7,0.2,1,0.4c0.3,0.1,0.5,0.3,0.8,0.5C53.6,7,53.8,7.1,54,7.3
			c0.2,0.1,0.5,0.3,0.9,0.5c-0.1-0.1-0.2-0.1-0.3-0.1c0.2,0.2,0.5,0.3,0.8,0.4c0.1,0.1,0.3,0.1,0.4,0.2c0.1,0.1,0.3,0.2,0.4,0.3
			c0.4,0.1,0.8,0.5,1,0.4l-1.3-0.7c0.4,0.2,0.7,0.3,1.2,0.5c0.4,0.2,0.9,0.5,1.4,0.9c-0.1,0-0.5-0.2-0.7-0.3c0.3,0.3,0.7,0.4,1,0.7
			c-0.1,0-0.2,0-0.3-0.1c-0.2-0.1-0.4-0.2-0.6-0.4c-0.2-0.1-0.5-0.3-0.7-0.5c-0.2-0.1-0.5-0.3-0.7-0.3C56.6,8.9,57,9,57.2,9.2
			c0.3,0.2,0.4,0.3,0.2,0.2c0.3,0.1,0.7,0.3,1,0.5c0.3,0.3,0.7,0.6,1.2,0.8l-0.1,0.1c0.1,0.1,0.4,0.3,0.7,0.5L59.7,11
			c0.4,0.2,0.7,0.5,1,0.8c0.3,0.3,0.6,0.6,0.9,0.8c-1.3-1.1-0.2-0.4-0.7-0.9c1.7,1.3,0.8,1,2.4,2.7c-0.2-0.2-0.8-0.9-0.4-0.6
			c0.3,0.3,0.7,0.8,0.8,1.1c1.1,1.2-0.1-0.3,0.4,0.2c0.2,0.5,0.5,0.6,1,1.1l-0.1,0.1c0.5,0.7,0.6,0.8,0.7,0.9c0.1,0,0.1,0,0.2,0.1
			c0.1,0.1,0.2,0.3,0.4,0.6l-0.3-0.2c-0.1-0.1-0.3-0.2-0.3-0.2s0,0,0.1,0.1c0.1,0.1,0.1,0.1,0.2,0.2c0.1,0.2,0.2,0.3,0.2,0.3
			L66.2,18c0.3,0.4,0.5,0.6,0.6,0.9c0.2,0.3,0.3,0.5,0.5,0.9c0-0.1,0-0.1,0.2,0c0.1,0.1,0.3,0.3,0.5,0.7c0.2,0.5-0.2-0.2,0.3,0.8
			c-0.2-0.2-0.4-0.4-0.5-0.9c-0.1,0-0.2-0.2-0.2-0.2c0.1,0.3,0.3,0.6,0.4,0.9c0.2,0.3,0.3,0.6,0.4,0.8c-0.1-0.1-0.1-0.3-0.2-0.4
			c0,0,0.1,0.1,0.1,0.2c0.1,0.1,0.2,0.3,0.3,0.5c0.1,0.1,0.1,0.2,0.2,0.3c0,0.3,0.1,0.6,0,0.6c0,0,0,0.1,0.1,0.1
			c0,0,0.2,0.4,0.3,0.7c0.1,0.2,0.1,0.5,0.2,0.8c0.1,0.2,0.1,0.4,0.2,0.6c0,0,0,0,0,0c0.1,0.2,0.1,0.4,0.2,0.7
			c0.1,0.2,0.1,0.4,0.2,0.6c0,0,0,0,0,0c0,0,0.1,0.1,0.1,0.1c0,0,0,0,0,0c0.1,0.3,0.2,0.5,0.3,0.8c0,0.2,0.1,0.3,0.1,0.5h0h0
			c0,0.1,0,0.2,0.1,0.4c0,0,0,0.1,0.1,0.2c0,0.1,0,0.1,0,0.2c0,0.1,0,0.2,0,0.2c0.1,0.5,0.1,0.9,0.2,1.3c0.1,0.5,0.1,1.1,0.2,1.7
			l-0.1,0.7c0.1,0.7,0.1,0,0.2,0c0,0,0,0.1,0,0.1c0,0.3,0,0.6,0,0.9l0.1-0.2c0,0.2,0,0.4,0,0.5c0,0.2-0.1-0.1-0.2,0.2
			C71.1,35,71.3,36,71,37.1 M68.3,48.3c0.1-0.2,0.2-0.7,0.3-0.8C68.7,47.8,68.5,48,68.3,48.3 M59,61.3c-0.1,0-0.1,0.1-0.2,0.1
			c0.2-0.2,0.5-0.4,0.5-0.4C59.2,61.1,59.1,61.2,59,61.3 M57.1,63C57.1,63,57.1,63,57.1,63c0,0,0.1-0.1,0.1-0.1
			C57.2,62.9,57.2,63,57.1,63 M31.2,66.7c-0.1-0.1,0-0.1,0.1,0c0.1,0,0.1,0.1,0.2,0.1C31.4,66.8,31.3,66.8,31.2,66.7 M30.4,66.6
			c-0.3-0.1-0.2-0.1-0.2-0.2c0.3,0.1,0.5,0.1,0.5,0.1C30.7,66.6,30.6,66.6,30.4,66.6 M17.8,59.6c0.2,0.1,0.6,0.4,0.7,0.6
			C18.3,60.1,18.1,59.9,17.8,59.6 M11.4,52.2c-0.1,0-0.2-0.2-0.3-0.5c0,0,0,0,0,0c0.2,0.3,0.3,0.5,0.4,0.8
			C11.5,52.4,11.5,52.4,11.4,52.2 M8.6,46.6c0-0.1-0.1-0.2-0.1-0.3l0.1-0.2c0,0,0,0.2,0.1,0.4c0,0.1,0.1,0.3,0.1,0.4
			C8.7,46.8,8.6,46.7,8.6,46.6 M8.1,45.7c0,0,0,0,0-0.1C8.1,45.6,8.1,45.6,8.1,45.7C8.1,45.7,8.1,45.7,8.1,45.7
			C8.1,45.8,8.1,45.7,8.1,45.7 M8,45C8,45,8,45,8,45L8,45C8,45,8,45,8,45 M7.8,44c0,0.1,0.1,0.2,0.1,0.4c0,0.1,0,0.1,0,0.2
			C7.9,44.4,7.9,44.2,7.8,44 M8.1,46.2c0-0.1-0.1-0.3-0.1-0.4c0-0.1,0-0.2-0.1-0.3c0,0,0,0.1,0,0.1c0-0.2-0.1-0.3-0.1-0.5
			c0,0,0.1,0.1,0.1,0.2c0-0.1-0.1-0.2-0.1-0.2c0-0.2,0-0.3,0-0.3c0,0.1,0,0.2,0.1,0.2c0,0.1,0.1,0.3,0.1,0.4c0,0-0.1-0.1-0.1-0.1
			c0,0.1,0.1,0.2,0.1,0.3c0,0.1,0.1,0.2,0.1,0.2c0,0.3,0.1,0.5,0.1,0.7C8.2,46.4,8.1,46.3,8.1,46.2 M7.1,40.7c0,0,0.1,0.2,0.2,0.7
			C7.2,41.1,7.1,40.9,7.1,40.7 M7,40.3C7,40.3,7,40.2,7,40.3c0-0.2,0-0.3,0-0.4c0-0.3,0-0.5-0.1-0.7C6.9,39.2,7,39,7.1,39
			c-0.1,0.3,0,0.6,0.1,1c-0.1,0.1-0.1,0.3-0.1,0.5C7,40.5,7,40.4,7,40.3 M6.8,39.6c0-0.2-0.1-0.4-0.1-0.7c0,0.1,0.1,0.2,0.1,0.2
			C6.8,39.3,6.8,39.4,6.8,39.6 M7.8,27.1L7.8,27.1L7.8,27.1z M8.4,26.7c0-0.1,0.1-0.1,0.1-0.2c0,0.1,0,0.2-0.1,0.3
			C8.4,26.9,8.4,26.8,8.4,26.7 M11.7,19.5c-0.1,0.2-0.2,0.4-0.3,0.6C11.4,20,11.5,19.8,11.7,19.5 M17.7,12C17.7,12,17.7,12,17.7,12
			C17.7,12,17.7,12,17.7,12C17.7,12,17.7,12,17.7,12 M20.9,10.2C20.9,10.3,20.8,10.3,20.9,10.2c-0.1,0.1-0.2,0.2-0.3,0.2
			C20.7,10.3,20.8,10.3,20.9,10.2 M69,23.5c-0.1-0.1-0.1-0.2-0.2-0.4C68.8,23.3,68.9,23.4,69,23.5 M39.2,2.2
			C20.5,2.2,5.3,17.3,5.3,36.1c0,18.7,15.2,33.9,33.9,33.9c18.7,0,33.9-15.2,33.9-33.9C73.1,17.3,57.9,2.2,39.2,2.2 M70.3,41.5
			c0,0,0.1-0.1,0.1-0.1c0-0.1,0.1-0.1,0.1-0.1l-0.2,0.1L70.3,41.5z M70.8,33.8c0,0.3,0,0.7,0,1C70.8,34.1,71,33.7,70.8,33.8
			 M67.3,49.9c0.1-0.1,0.2-0.2,0.3-0.5L67.3,49.9L67.3,49.9z M32.2,4.9l0,0.2l0.4-0.1C32.4,5,32.4,4.9,32.2,4.9 M9,47.1
			c-0.1-0.2-0.2-0.5-0.2-0.6C8.8,46.6,8.9,46.9,9,47.1 M9.2,47.6c-0.1-0.2-0.1-0.4-0.1-0.4c0,0-0.1-0.1-0.1-0.2
			C9.1,47.3,9.2,47.5,9.2,47.6C9.3,47.9,9.3,48,9.4,48c0,0,0,0,0-0.1C9.3,47.8,9.2,47.7,9.2,47.6 M8.1,44.3l0.2,0.3l-0.1-0.5
			L8.1,44.3z M8.6,45.4L8.7,46l-0.2-0.8L8.6,45.4z M13.9,55.4c0.1,0,0.9,0.9,0.2,0.1C14,55.4,13.4,54.7,13.9,55.4 M11.7,20.3
			c0-0.1,0.1-0.2,0.1-0.3C11.8,20.1,11.7,20.2,11.7,20.3 M11.7,20.3c-0.3,0.6-0.5,0.8-0.2,0.7c0.6-0.9,0-0.3,0.6-1.1
			C12.2,19.6,11.6,20.5,11.7,20.3 M23.6,63.5l0.2,0.3l0-0.2L23.6,63.5z M16.7,58.2c0,0.1,0.2,0.2,0.4,0.4L16.7,58.2L16.7,58.2z"/>
		<path class="st33" d="M58.3,19.3c-0.2,0-0.4,0-0.7-0.1c-0.3-0.2-0.5-0.5-0.6-0.9c-0.6-1.6-1.8-8,0-11.1c1-1.8,3-2.9,4.8-2.9
			c0.7,0,1.3,0.1,1.9,0.4c0.8,0.4,1.4,1.1,1.8,2c0.6-0.3,1.3-0.4,2-0.4c2.2,0,4.3,1.4,5,3.5c0.9,2.6-0.5,5.9-3,7.1
			C66,18.6,59.7,19.3,58.3,19.3"/>
		<path class="st1" d="M61.8,3.5L61.8,3.5c-2.2,0-4.4,1.3-5.6,3.3c-1.9,3.3-0.8,9.9,0,11.8c0.1,0.3,0.3,0.9,0.9,1.2
			c0.4,0.3,0.9,0.3,1.2,0.3c1.5,0,7.9-0.7,11.6-2.4c3-1.4,4.6-5.1,3.5-8.2c-0.8-2.4-3.2-4-5.8-4c-0.6,0-1.1,0.1-1.6,0.2
			C65.5,5,64.9,4.4,64.1,4C63.4,3.6,62.6,3.5,61.8,3.5 M61.8,5.1c0.5,0,1.1,0.1,1.6,0.4C64.3,6,64.8,7,64.9,8
			c0.2-0.2,0.5-0.3,0.7-0.4c0.6-0.3,1.3-0.5,1.9-0.5c1.8,0,3.6,1.2,4.2,2.9c0.8,2.3-0.4,5.1-2.6,6.1c-3.4,1.6-9.6,2.3-10.9,2.3
			c-0.2,0-0.2,0-0.3,0c-0.6-0.2-2.1-7.7-0.3-10.8C58.5,6.2,60.1,5.1,61.8,5.1"/>
		<path class="st34" d="M64.3,10.6c-1.9,3-6.1,7.9-6.3,7.8c-0.6-0.2-2.1-7.7-0.3-10.8c1.1-1.9,3.6-3.2,5.7-2.1
			C65.2,6.4,65.3,9,64.3,10.6"/>
		<path class="st33" d="M69.1,16.2c-3.8,1.8-11,2.4-11.1,2.2c-0.4-0.6,3.4-8.8,7.6-10.8c2.3-1.2,5.3,0.1,6.1,2.5
			C72.6,12.4,71.3,15.2,69.1,16.2"/>
	</g>
	<g>
		<path class="st1" d="M15.5,39l0-0.1l-0.2-0.6l0-0.1l-0.2-0.5l0-0.1L15,37.5l-0.1,0l-0.1,0l-0.1,0.1l-0.2,0.6l0,0.1l-0.2,0.6l0,0.1
			l0,0.1l0.1,0l0.1,0H15l0.4,0l0.1,0L15.5,39L15.5,39z M18.3,41.3l0,0.1l-0.1,0.1l-0.1,0l-0.1,0H18l-0.2,0l-0.1,0h-0.4l-0.5,0
			l-0.1,0l-0.1-0.1l0-0.1l-0.3-0.7l-0.1-0.1l-0.1,0l-0.1,0l-0.5,0h-0.1l-0.6,0l-0.5,0h-0.1l-0.1,0h-0.4l-0.1,0l-0.1,0l-0.1,0.1
			l-0.2,0.6l-0.1,0.1l-0.1,0.1L13,41.5l-0.1,0l-0.5,0h-0.1l-0.5,0l-0.1,0l-0.1,0l-0.1-0.1l0-0.1l0-0.1l0.1-0.1l0.1-0.3l0.1-0.1
			l0.2-0.5l0-0.1l0.2-0.5l0.1-0.1l0.2-0.4l0.1-0.1l0.2-0.5l0-0.1l0.3-0.7l0.2-0.5l0.1-0.1l0.2-0.4l0.1-0.1l0.2-0.4l0.1-0.1l0.1-0.3
			l0-0.1l0.1-0.1l0.1,0l0.4,0h0.6l0.4,0l0.1,0l0.1,0.1l0,0.1l0.1,0.3l0,0.1l0.2,0.4l0,0.1l0.2,0.4l0.1,0.1l0.2,0.4l0,0.1l0.2,0.4
			l0.1,0.1l0.2,0.4l0.1,0.1l0.2,0.4l0.1,0.1l0.3,0.5l0.2,0.4l0.1,0.1l0.2,0.5L18.3,41.3z"/>
		<polygon class="st1" points="23.7,41.1 23.7,41.3 23.7,41.3 23.7,41.4 23.6,41.5 23.6,41.5 23.5,41.5 23.4,41.5 23.3,41.5 
			22.4,41.5 21.7,41.5 21,41.5 20.5,41.5 19.9,41.5 19.5,41.5 19.4,41.5 19.3,41.5 19.2,41.5 19.1,41.5 19.1,41.4 19.1,41.3 
			19.1,41.2 19.1,40.9 19.1,40.8 19.1,40.3 19.1,40.2 19.1,39.7 19.1,39.6 19.1,38.6 19.1,38.5 19.1,37.5 19.1,37.3 19.1,36.9 
			19.1,36.2 19.1,35.9 19.1,35.8 19.1,35.7 19.1,35.6 19.1,35.6 19.2,35.5 19.3,35.5 19.3,35.5 19.5,35.5 19.9,35.5 20,35.5 
			20.6,35.5 20.7,35.5 20.7,35.6 20.8,35.6 20.8,36.4 20.8,36.8 20.8,37 20.8,37.4 20.8,37.6 20.8,38.1 20.8,38.2 20.8,38.7 
			20.8,38.8 20.8,39.9 20.8,40 20.8,40 20.8,40.1 20.8,40.1 20.9,40.1 21.2,40.1 21.5,40.1 21.6,40.1 22.8,40.1 22.9,40.1 
			23.2,40.1 23.4,40.1 23.5,40.1 23.6,40.1 23.6,40.1 23.7,40.2 23.7,40.3 23.7,40.7 23.7,40.9 		"/>
		<path class="st1" d="M28.1,33.6L28.1,33.6l-0.4,0.5l-0.1,0.1l-0.3,0.4l-0.1,0.1l-0.1,0l-0.1,0l-0.1,0l-0.4,0H26l-0.1,0l0,0l0,0v0
			l0.2-0.5l0.1-0.1l0.2-0.4l0.1-0.1l0,0h0.1l0.1,0h0.1l0.2,0h0.1l0.4,0h0.1l0.2,0L28.1,33.6L28.1,33.6L28.1,33.6z M29.3,40.7l0,0.1
			l0,0.4l0,0.1l0,0.1l0,0l-1.1,0h-0.1l-0.4,0l-0.1,0l-0.4,0l-0.1,0h-0.6l-0.4,0h-0.1l-0.7,0l-0.3,0l-0.1,0l-0.1,0l0-0.1l0-0.1l0-0.2
			l0-0.1l0-0.1v-0.1l0-0.4v-0.1l0-0.4l0-0.1l0-0.4l0-0.1l0-0.5v-0.7l0-0.4l0-0.1l0-0.4l0-0.1v-0.2l0-0.3v-0.1l0-0.4l0-0.1l0-0.1l0,0
			l0.1,0l0.1,0l0.5,0l0.5,0h0.1l0.5,0h0.1l0.5,0h0.1l1.1,0l0.1,0l0.3,0h0.2l0.1,0l0.1,0l0,0.1l0,0.1V36l0,0.2v0.1l0,0.2l0,0.1l0,0.1
			l0,0.1l0,0.1l0,0l-0.1,0h-0.1l-0.1,0l-0.8,0h-0.1l-0.4,0h-0.1l-0.4,0l-0.4,0h-0.1l-0.1,0l-0.1,0l0,0l0,0l0,0.1l0,0.2v0.1l0,0.1
			l0,0.1l0,0.1l0,0l0.1,0l0.3,0l0.3,0h0.8l0.9,0l0.3,0l0.1,0l0,0l0,0l0,0.1l0,0.1l0,0.1v0.3l0,0.2l0,0.2l0,0.1l0,0.1l-0.1,0l-0.1,0
			h-0.2l-0.4,0l-0.1,0l-0.7,0l-0.5,0h-0.1l-0.3,0l-0.1,0l-0.1,0l0,0l0,0.1l0,0.1l0,0.2l0,0.1v0.2l0,0.1l0,0.1l0,0l0.1,0l0.5,0h0.1
			l0.5,0l0.6,0H28l0.6,0h0.1l0.1,0l0.3,0l0,0l0,0.1l0,0.1L29.3,40.7z"/>
		<path class="st1" d="M33.3,38.3l0.1,0l0.1-0.1l0.1-0.1l0.1-0.1l0-0.1l0-0.1l0-0.1l0-0.1l0-0.1l-0.1-0.1L33.5,37L33.4,37l-0.1-0.1
			l-0.2,0l-0.1,0l-0.4,0h-0.1l-0.4,0l-0.1,0l-0.1,0l-0.1,0l0,0.1l0,0.2l0,0.1l0,0.1l0,0.1l0,0.5l0,0.1l0,0l0.1,0l0.1,0l0.4,0h0.1
			l0.5,0L33.3,38.3z M35.6,41.5l-0.1,0h-0.6l-0.5,0h-0.1l-0.4,0h-0.1l-0.1,0l-0.1-0.1l-0.3-0.4L33.4,41l-0.3-0.4L33,40.5l-0.2-0.4
			L32.7,40l-0.3-0.4l-0.1-0.1l0,0l-0.1,0l-0.3,0l-0.1,0l-0.1,0.1l0,0.1l0,0.5l0,0.1l0,0.5l0,0.1l0,0.2v0.1l0,0.1l0,0.1l0,0l-0.1,0
			h-0.1l-0.4,0l-0.4,0h-0.1l-0.4,0l-0.1,0l-0.1,0l0-0.1l0-0.1l0-0.1l0-0.2l0-0.1l0-0.4v-0.1l0-0.4l0-0.1l0-0.4V39l0-0.4v-0.1l0-0.4
			v-0.1l0-0.4v-0.1l0-0.4v-0.1l0-0.4v-0.1l0-0.3l0-0.1l0-0.1l0-0.1l0-0.1l0.1,0l0.1,0l0.1,0l0.4,0l1,0l0.6,0h0.1l0.5,0h0.3l0.1,0
			l0.1,0l0.2,0l0.1,0l0.1,0l0.1,0l0.1,0.1l0.1,0.1l0.2,0.1l0.1,0.1l0.1,0.1l0.1,0.1l0.1,0.2l0.1,0.1l0.1,0.2l0.1,0.1l0.1,0.1l0,0.1
			l0,0.1l0,0.1l0,0.2v0.1l0,0.1l0,0.1l0,0.1l0,0.1l-0.1,0.1l-0.1,0.1l-0.1,0.1L35,38.7l-0.1,0.1l-0.1,0.1L34.7,39l-0.1,0.1l-0.2,0.1
			l-0.1,0.1l-0.1,0.1l-0.1,0l-0.1,0l0,0.1l0.3,0.4l0.1,0.1l0.3,0.4l0.1,0.1l0.3,0.4l0.1,0.1l0.3,0.3l0.1,0.1L35.6,41.5L35.6,41.5z"
			/>
		<polygon class="st1" points="41.9,38.1 41.9,38.3 41.8,38.8 41.8,39.6 41.8,39.9 41.8,40.4 41.8,40.5 41.8,40.6 41.7,40.7 
			41.6,40.8 41.5,41 41.4,41 41.3,41.1 41.2,41.2 41.2,41.2 41.1,41.3 40.9,41.4 40.8,41.4 40.6,41.4 40.5,41.5 40.3,41.5 
			40.2,41.6 40.1,41.6 39.9,41.6 39.8,41.6 39.6,41.6 39.3,41.7 39.2,41.7 38.9,41.7 38.7,41.7 38.6,41.6 38.5,41.6 38.3,41.6 
			38.1,41.5 37.9,41.5 37.8,41.4 37.6,41.4 37.5,41.3 37.4,41.2 37.3,41.1 37.2,41.1 37.1,41 37,40.9 36.9,40.8 36.7,40.7 
			36.7,40.6 36.6,40.5 36.5,40.4 36.3,40 36.2,39.9 36.2,39.7 36.1,39.6 36.1,39.5 36.1,39.3 36,39.2 36,39 36,38.9 36,38.7 
			36,38.6 36,38.5 36,38.1 36,38 36,37.9 36.1,37.8 36.1,37.6 36.1,37.5 36.2,37.4 36.2,37.2 36.3,37.1 36.3,37 36.4,36.8 
			36.5,36.7 36.6,36.6 36.7,36.5 36.8,36.4 36.9,36.3 37.1,36.1 37.2,36 37.3,36 37.4,35.9 37.7,35.7 37.8,35.7 37.9,35.6 
			38.1,35.6 38.2,35.5 38.5,35.5 38.7,35.4 38.9,35.4 39,35.4 39.2,35.4 39.3,35.4 39.5,35.4 39.6,35.4 39.8,35.4 39.9,35.4 
			40.1,35.5 40.2,35.5 40.4,35.6 40.6,35.6 40.8,35.8 41,35.8 41.1,35.9 41.1,35.9 41.2,36 41.3,36.1 41.3,36.1 41.4,36.2 
			41.5,36.2 41.5,36.3 41.5,36.3 41.5,36.4 41.5,36.5 41.4,36.6 41.3,36.7 41.1,36.9 40.9,37 40.8,37.1 40.7,37.2 40.7,37.2 
			40.6,37.3 40.6,37.3 40.5,37.2 40.3,37.1 40.2,37.1 40.1,37 40,36.9 39.9,36.9 39.7,36.9 39.6,36.8 39.2,36.8 39.1,36.8 39,36.8 
			38.8,36.8 38.6,36.9 38.4,37 38.3,37.1 38.2,37.1 38.1,37.2 38,37.3 37.9,37.4 37.9,37.6 37.8,37.7 37.8,37.8 37.7,37.9 
			37.7,38.2 37.7,38.3 37.7,38.5 37.7,38.6 37.7,38.8 37.7,38.9 37.7,39.1 37.8,39.3 37.9,39.5 37.9,39.6 38,39.7 38.1,39.8 
			38.3,40 38.4,40.1 38.5,40.1 38.7,40.2 38.9,40.3 39,40.3 39.2,40.3 39.3,40.3 39.5,40.3 39.6,40.2 40,40.1 40.2,40.1 40.3,40 
			40.4,40 40.4,39.9 40.4,39.8 40.4,39.7 40.4,39.6 40.4,39.4 40.4,39.2 40.3,39.2 40.3,39.2 40.1,39.2 39.9,39.2 39.7,39.2 
			39.6,39.2 39.4,39.2 39.3,39.2 39,39.1 38.9,39.1 38.9,39.1 38.9,39 38.9,38.9 38.9,38.8 38.9,38.6 38.9,38.3 38.9,38.2 38.9,38 
			38.9,37.9 38.9,37.9 39,37.9 39.2,37.9 39.4,37.9 39.8,37.9 40.3,37.8 41,37.9 41.1,37.9 41.4,37.8 41.6,37.8 41.6,37.8 
			41.8,37.9 41.8,37.9 41.8,37.9 41.9,38.1 		"/>
		<polygon class="st1" points="47.5,40.7 47.5,40.9 47.5,41.3 47.5,41.4 47.4,41.5 47.4,41.5 46.3,41.5 46.2,41.5 45.7,41.5 
			45.6,41.5 45.2,41.5 45,41.5 44.5,41.5 44,41.5 43.9,41.5 43.2,41.6 42.9,41.5 42.8,41.5 42.7,41.5 42.7,41.4 42.7,41.3 
			42.7,41.1 42.7,41 42.7,40.9 42.7,40.8 42.7,40.3 42.7,40.2 42.7,39.7 42.7,39.6 42.7,39.2 42.7,39 42.7,38.6 42.7,37.9 
			42.7,37.4 42.7,37.3 42.7,36.9 42.7,36.7 42.7,36.5 42.7,36.3 42.7,36.2 42.7,35.7 42.7,35.6 42.8,35.6 42.8,35.5 42.9,35.5 
			43,35.5 43.5,35.5 44,35.5 44.2,35.5 44.7,35.6 44.8,35.6 45.3,35.5 45.4,35.5 46.6,35.5 46.7,35.5 47,35.5 47.2,35.5 47.3,35.5 
			47.4,35.6 47.4,35.6 47.4,35.7 47.4,36 47.4,36.2 47.4,36.3 47.4,36.5 47.4,36.6 47.4,36.8 47.4,36.9 47.3,36.9 47.3,37 47.2,37 
			47.1,37 47,37 46.2,37 46.1,37 45.7,37 45.5,37 45.1,37 44.7,36.9 44.6,36.9 44.5,36.9 44.4,37 44.4,37 44.4,37.1 44.4,37.1 
			44.4,37.3 44.4,37.5 44.4,37.6 44.4,37.7 44.4,37.8 44.4,37.8 44.5,37.8 44.8,37.9 45,37.8 45.8,37.8 46.8,37.8 47,37.8 
			47.1,37.8 47.2,37.9 47.2,37.9 47.2,38 47.2,38.1 47.2,38.3 47.2,38.6 47.2,38.8 47.2,39 47.2,39.1 47.2,39.2 47.1,39.2 47,39.2 
			46.9,39.2 46.5,39.2 46.4,39.2 45.7,39.2 45.2,39.2 45,39.2 44.7,39.2 44.6,39.2 44.5,39.2 44.4,39.2 44.4,39.3 44.4,39.4 
			44.4,39.6 44.3,39.7 44.3,39.9 44.4,40 44.4,40.1 44.4,40.1 44.5,40.1 45,40.1 45.1,40.1 45.5,40.1 46.1,40.1 46.3,40.1 
			46.9,40.1 47,40.1 47.1,40.1 47.4,40.1 47.5,40.1 47.5,40.2 47.5,40.3 		"/>
		<polygon class="st1" points="54,36.8 54,37 54,38.2 54,38.7 54,38.8 54,39.9 54,40 54,40.1 54,40.3 54,40.7 54,41.1 54,41.3 
			53.9,41.4 53.9,41.4 53.8,41.5 53.7,41.5 53.6,41.5 53.2,41.5 53,41.6 52.8,41.6 52.7,41.6 52.6,41.5 52.5,41.5 52.4,41.4 
			52.3,41.3 52.2,41.1 52.1,41 51.8,40.6 51.7,40.5 51.4,40.1 51.3,40 51,39.5 50.9,39.4 50.6,39 50.5,38.9 50.2,38.5 50.1,38.5 
			50.1,38.5 50.1,38.6 50,39 50,39.1 50.1,39.5 50.1,39.7 50.1,40.1 50.1,40.3 50,40.7 50,40.9 50.1,41.2 50.1,41.3 50.1,41.4 
			50,41.5 50,41.5 49.9,41.5 49.8,41.5 49.7,41.5 49.3,41.5 49.1,41.5 48.8,41.6 48.7,41.6 48.5,41.5 48.5,41.5 48.4,41.5 
			48.4,41.4 48.3,41.4 48.3,41.3 48.3,41.2 48.3,40.9 48.4,40.8 48.3,40.3 48.3,40.2 48.3,39.2 48.4,39 48.4,38.6 48.4,38.5 
			48.4,37.9 48.4,37.5 48.4,37.3 48.4,36.9 48.4,36.7 48.3,36.3 48.3,36.2 48.3,36 48.3,35.9 48.4,35.7 48.4,35.6 48.4,35.6 
			48.5,35.6 48.5,35.5 48.8,35.5 49,35.5 49.7,35.5 49.8,35.5 49.8,35.6 49.9,35.7 50.2,36 50.3,36.1 50.6,36.5 50.7,36.6 51,37 
			51.1,37.1 51.4,37.5 51.4,37.6 51.8,38 51.8,38.1 52.1,38.6 52.2,38.6 52.3,38.6 52.3,38.6 52.3,38.5 52.3,38.1 52.3,38 
			52.3,37.7 52.3,37.5 52.3,37 52.3,36.9 52.3,36.4 52.3,36.2 52.3,35.9 52.3,35.7 52.3,35.6 52.3,35.6 52.4,35.5 52.5,35.5 
			52.5,35.5 52.7,35.5 53.1,35.5 53.2,35.5 53.5,35.5 53.6,35.5 53.8,35.5 53.9,35.5 53.9,35.6 54,35.6 54,35.7 54,35.8 54,36 
			54,36.2 54,36.3 		"/>
		<path class="st1" d="M59.7,38.6v-0.1l0-0.1l0-0.1l-0.1-0.2l0-0.1l-0.1-0.2l-0.1-0.1l-0.1-0.1l-0.1-0.1l-0.1-0.1L59,37.1L58.8,37
			l-0.1,0l-0.1,0l-0.1,0l-0.3,0l-0.1,0l-0.2,0l-0.1,0l-0.2,0.1L57.3,37l-0.2,0.1L57,37.1l-0.1,0.1l-0.1,0.1l-0.1,0.1l-0.1,0.1l0,0.1
			l-0.1,0.2l0,0.1l0,0.1l0,0.1l0,0.1l0,0.1l0,0.1v0.1l0,0.1l0,0.1l0,0.1l0,0.1l0,0.1l0,0.1l0,0.1l0.1,0.1l0,0.1l0.1,0.1l0.1,0.1
			l0.1,0.1l0.2,0.1l0.1,0.1l0.1,0.1l0.1,0l0.2,0.1l0.1,0l0.2,0l0.1,0l0.2,0l0.1,0l0.2,0l0.1-0.1L59,40l0.1-0.1l0.1-0.1l0.1-0.1
			l0.1-0.1l0.1-0.1l0.1-0.2l0-0.1l0-0.2l0-0.1L59.7,38.6z M61.4,38.5l0,0.1l0,0.2l0,0.1l-0.1,0.2l0,0.2l0,0.1l0,0.1l0,0.1l-0.1,0.2
			L61.1,40l-0.2,0.4l-0.1,0.1l-0.1,0.1l-0.1,0.1l-0.1,0.1l-0.1,0.1L60.3,41l-0.1,0.1L60,41.2l-0.1,0.1l-0.1,0.1l-0.1,0.1l-0.2,0.1
			l-0.1,0l-0.3,0.1l-0.1,0l-0.1,0l-0.1,0l-0.1,0l-0.1,0H58l-0.3,0l-0.3,0l-0.1,0l-0.1,0l-0.4-0.2l-0.1,0l-0.1-0.1l-0.3-0.1l-0.1-0.1
			L56,41.1L55.8,41l-0.1-0.1l-0.1-0.1l-0.1-0.1l-0.2-0.2l-0.1-0.1l-0.1-0.1l-0.1-0.1L55,40l-0.1-0.4l-0.1-0.2l0-0.1l0-0.1l0-0.1
			l0-0.2l0-0.1l0-0.1v-0.1l0-0.1l0-0.2l0-0.1l0-0.1l0-0.1l0-0.1l0-0.1l0-0.1l0.1-0.2l0.1-0.1l0-0.1l0.1-0.1l0.1-0.2l0.1-0.1l0-0.1
			l0.1-0.1l0.1-0.1l0.1-0.1l0.1-0.1l0.3-0.2l0.1-0.1l0.1-0.1l0.1-0.1l0.2-0.1l0.1,0l0.1,0l0.1,0l0.3-0.1l0.1,0l0.4-0.1l0.3,0l0.3,0
			l0.2,0l0.1,0l0.1,0l0.1,0l0.1,0l0.1,0l0.1,0l0.1,0l0.2,0.1l0.1,0l0.3,0.2l0.1,0.1l0.1,0.1l0.1,0.1l0.1,0.1l0.1,0.1l0.1,0.1
			l0.1,0.2l0.1,0.1l0.1,0.1l0.1,0.1l0.1,0.2l0.1,0.1l0.1,0.1l0,0.1l0,0.2l0,0.2l0,0.1l0,0.1L61.4,38.5z"/>
		<polygon class="st1" points="67.1,39.7 67.1,39.8 67.1,39.9 67,40.1 67,40.3 67,40.4 66.9,40.5 66.8,40.7 66.7,40.8 66.6,40.9 
			66.5,41 66.4,41.1 66.3,41.2 66.2,41.3 66,41.3 65.9,41.4 65.7,41.5 65.5,41.5 65.4,41.6 65.2,41.6 65,41.6 64.8,41.6 64.7,41.6 
			64.5,41.7 64.1,41.7 64,41.7 63.8,41.7 63.6,41.7 63.5,41.6 63.4,41.6 63.3,41.6 63.1,41.5 63,41.5 62.8,41.4 62.7,41.3 
			62.6,41.3 62.3,41.1 62.2,41 62.1,40.9 62,40.8 61.9,40.7 61.8,40.6 61.8,40.6 61.9,40.5 61.9,40.5 62,40.4 62.2,40.2 62.3,40.1 
			62.4,39.9 62.5,39.8 62.6,39.7 62.7,39.6 62.8,39.6 62.9,39.7 63.1,39.9 63.3,40 63.4,40 63.6,40.1 63.7,40.1 63.8,40.2 64,40.2 
			64.1,40.2 64.3,40.2 64.8,40.2 64.9,40.2 65,40.2 65.1,40.1 65.2,40 65.3,40 65.4,39.9 65.4,39.8 65.4,39.6 65.4,39.6 65.3,39.5 
			65.3,39.4 65.2,39.3 65.1,39.3 65,39.2 64.8,39.2 64.7,39.2 63.9,39.1 63.7,39.1 63.5,39 63.3,39 63.2,38.9 63.1,38.9 62.8,38.7 
			62.7,38.7 62.6,38.6 62.5,38.5 62.3,38.4 62.2,38.3 62.2,38.2 62.1,38 62.1,37.9 62,37.7 62,37.5 62,37.3 62,37.1 62,36.9 
			62.1,36.8 62.1,36.7 62.1,36.6 62.2,36.4 62.3,36.3 62.3,36.2 62.4,36.1 62.6,36 62.7,35.9 62.8,35.8 62.9,35.8 63,35.7 
			63.3,35.6 63.4,35.5 63.6,35.5 63.7,35.5 64,35.4 64.2,35.4 64.3,35.4 64.4,35.4 64.6,35.4 64.8,35.4 64.9,35.4 65,35.4 
			65.1,35.5 65.4,35.5 65.5,35.5 65.7,35.6 65.8,35.6 66,35.7 66.1,35.7 66.2,35.8 66.4,35.9 66.5,35.9 66.6,36 66.7,36.1 
			66.7,36.2 66.6,36.3 66.5,36.4 66.5,36.5 66.1,36.9 66,37 65.9,37.1 65.9,37.2 65.8,37.1 65.7,37.1 65.6,37 65.5,37 65.4,37 
			65.3,36.9 65.2,36.9 65.1,36.9 64.9,36.8 64.8,36.8 64.6,36.8 64.3,36.8 64.2,36.8 64.1,36.8 63.9,36.9 63.9,36.9 63.8,37 
			63.7,37 63.7,37.1 63.7,37.3 63.7,37.4 63.8,37.5 63.8,37.6 63.9,37.6 64,37.6 64.1,37.7 64.3,37.7 64.6,37.7 64.8,37.7 65,37.8 
			65.3,37.9 65.5,37.9 65.6,38 65.9,38 66,38.1 66.1,38.2 66.3,38.2 66.4,38.3 66.6,38.5 66.7,38.6 66.8,38.7 66.9,38.9 66.9,39 
			67,39.1 67,39.2 67.1,39.4 67.1,39.5 		"/>
		<polygon class="st1" points="22.5,50.1 22.5,50.1 22.3,50.3 22.2,50.4 22,50.5 21.9,50.5 21.8,50.6 21.7,50.7 21.5,50.8 
			21.4,50.8 21.2,50.9 21.1,50.9 20.9,50.9 20.6,51 20.4,51 20.2,51 19.8,51 19.6,51 19.5,51 19.4,50.9 19.2,50.9 19.1,50.9 
			18.7,50.8 18.5,50.7 18.4,50.6 18.3,50.5 18.2,50.5 18.1,50.4 18,50.3 17.7,50.1 17.6,50 17.5,49.9 17.5,49.8 17.4,49.7 
			17.3,49.6 17.3,49.5 17.2,49.3 17,48.9 17,48.8 16.9,48.5 16.9,48.4 16.9,48.2 16.9,48.1 16.9,48 16.9,47.8 16.9,47.5 16.9,47.4 
			16.9,47.3 17,47.1 17,47 17.1,46.8 17.1,46.7 17.2,46.6 17.2,46.4 17.3,46.3 17.3,46.2 17.4,46.1 17.5,45.9 17.6,45.8 17.7,45.7 
			17.8,45.6 17.9,45.5 18,45.4 18.1,45.4 18.3,45.2 18.4,45.1 18.6,45 18.8,44.9 18.9,44.9 19.1,44.8 19.4,44.8 19.5,44.7 
			19.6,44.7 19.9,44.7 20.1,44.7 20.2,44.7 20.4,44.7 20.7,44.7 20.8,44.8 21,44.8 21.3,44.9 21.4,44.9 21.6,45 21.7,45.1 
			21.9,45.3 22.2,45.4 22.3,45.5 22.3,45.6 22.4,45.6 22.4,45.7 22.4,45.7 22.3,45.8 22.3,45.9 22.2,46 22.1,46.1 22,46.1 
			21.9,46.2 21.8,46.4 21.7,46.5 21.6,46.5 21.6,46.6 21.5,46.6 21.4,46.6 21.4,46.6 21.3,46.6 21.1,46.5 21,46.4 20.8,46.3 
			20.7,46.3 20.5,46.2 20.4,46.2 20.2,46.2 20.1,46.2 19.9,46.2 19.8,46.2 19.6,46.3 19.5,46.3 19.3,46.4 19.2,46.5 19.1,46.6 
			19,46.6 18.9,46.7 18.8,46.8 18.8,46.9 18.7,47.1 18.7,47.2 18.6,47.3 18.6,47.5 18.6,47.6 18.6,47.8 18.6,48 18.6,48.2 
			18.6,48.3 18.6,48.5 18.7,48.6 18.7,48.7 18.8,48.9 18.9,49.1 19,49.2 19.2,49.3 19.3,49.4 19.4,49.4 19.6,49.5 19.7,49.5 
			19.9,49.6 20.1,49.6 20.3,49.6 20.4,49.6 20.5,49.5 20.6,49.5 20.8,49.4 20.9,49.4 21,49.3 21.2,49.2 21.3,49.1 21.4,49.1 
			21.5,49 21.5,49 21.6,49 21.7,49.1 21.8,49.1 21.8,49.2 21.9,49.3 22.1,49.5 22.1,49.6 22.4,49.8 22.4,49.9 22.5,50 22.5,50 		"/>
		<path class="st1" d="M27.8,47.9v-0.1l0-0.1l0-0.1l-0.1-0.2l0-0.1l-0.1-0.2l-0.1-0.1l-0.1-0.2l-0.1-0.1l-0.1-0.1l-0.1-0.1l-0.2-0.1
			l-0.1-0.1l-0.1,0l-0.1,0l-0.3,0l-0.1,0l-0.2,0l-0.1,0l-0.2,0.1l-0.1,0.1l-0.2,0.1l-0.1,0.1L25,46.6l-0.1,0.1l-0.1,0.1l-0.1,0.1
			l0,0l-0.1,0.2l0,0.1l0,0.1l0,0.1l0,0.1l0,0.1l0,0.1v0.1l0,0.1l0,0.1l0,0.1l0,0.1l0,0.1l0,0.1l0,0.1l0.1,0.1l0,0.1l0.1,0.1l0.1,0.1
			l0.1,0.1l0.2,0.1l0.1,0.1l0.1,0.1l0.1,0l0.2,0.1l0.1,0l0.2,0l0.1,0l0.2,0l0.1,0l0.2,0l0.1-0.1l0.2-0.1l0.1-0.1l0.1-0.1l0.1-0.1
			l0.1-0.1l0.1-0.1l0.1-0.2l0-0.1l0-0.2l0-0.1L27.8,47.9z M29.5,47.8l0,0.1l0,0.2l0,0.1l-0.1,0.2l0,0.2l0,0.1l0,0.1l0,0.1l-0.1,0.2
			l-0.1,0.1L29,49.7l-0.1,0.1l-0.1,0.1L28.7,50l-0.1,0.1l-0.1,0.1l-0.1,0.1l-0.1,0.1l-0.1,0.1L28,50.6l-0.1,0.1l-0.1,0l-0.2,0.1
			l-0.1,0l-0.3,0.1l-0.1,0l-0.1,0l-0.1,0l-0.1,0l-0.1,0h-0.4l-0.3,0l-0.3,0l-0.1,0l-0.1,0l-0.4-0.1l-0.1,0l-0.1-0.1l-0.3-0.1
			l-0.1-0.1L24,50.4l-0.1-0.1l-0.1-0.1l-0.1-0.1L23.6,50l-0.2-0.2l-0.1-0.1l-0.1-0.1l-0.1-0.1l-0.1-0.2L23,48.9l0-0.2l0-0.1l0-0.1
			l0-0.1l0-0.2l0-0.1l0-0.1v-0.1l0-0.1l0-0.1l0-0.1l0-0.1l0-0.1l0-0.1l0-0.1l0-0.1l0.1-0.2l0.1-0.1l0-0.1l0.1-0.1l0.1-0.2l0.1-0.1
			l0-0.1l0.1-0.1l0.1-0.1l0.1-0.1l0.1-0.1l0.2-0.2l0.1-0.1l0.1-0.1l0.1-0.1l0.2-0.1l0.1,0l0.1,0l0.1,0l0.3-0.1l0.1,0l0.4-0.1l0.3,0
			l0.3,0l0.2,0l0.1,0l0.1,0l0.1,0l0.1,0l0.1,0l0.1,0l0.1,0l0.2,0.1l0.1,0.1l0.3,0.2l0.1,0.1l0.1,0.1l0.1,0.1l0.1,0.1l0.1,0.1
			l0.1,0.1l0.1,0.2L29,46l0.1,0.1l0.1,0.1l0.1,0.2l0.1,0.1l0.1,0.1l0,0.1l0,0.2l0,0.2l0,0.1l0,0.1L29.5,47.8z"/>
		<polygon class="st1" points="36.8,50.1 36.9,50.2 36.9,50.5 36.9,50.6 36.9,50.7 36.9,50.7 36.8,50.8 36.8,50.9 36.7,50.9 
			36.6,50.9 36.4,50.9 36.1,50.9 36,50.8 35.8,50.8 35.6,50.8 35.3,50.8 35.2,50.8 35.2,50.7 35.2,50.7 35.2,50.5 35.2,50.4 
			35.2,50.1 35.2,49.4 35.2,48.8 35.2,48.7 35.2,48.2 35.2,47.5 35.2,47.4 35.1,47.4 35.1,47.4 35,47.5 35,47.6 34.6,48 34.1,48.6 
			33.8,49 33.7,49.1 33.6,49.1 33.6,49.1 33.5,49.1 33.4,49.1 33.3,49 32.9,48.5 32.6,48.1 32.5,48 32,47.5 31.9,47.4 31.9,47.4 
			31.9,47.5 31.8,48 31.8,48.2 31.9,48.7 31.9,48.8 31.9,49.3 31.9,49.5 31.9,50 31.9,50.1 31.9,50.4 31.9,50.5 31.9,50.6 
			31.9,50.7 31.8,50.8 31.8,50.8 31.6,50.8 31.4,50.8 31.1,50.8 31,50.8 30.6,50.9 30.4,50.9 30.3,50.8 30.2,50.8 30.2,50.7 
			30.2,50.7 30.2,50.5 30.2,50.2 30.2,48.9 30.2,48.5 30.2,48.4 30.2,47.9 30.2,47.8 30.2,47.3 30.2,47.2 30.2,46.8 30.2,46.6 
			30.2,46.2 30.2,46.1 30.2,45.6 30.2,45.5 30.2,45.2 30.2,45 30.2,44.9 30.2,44.9 30.3,44.8 30.3,44.8 30.5,44.8 30.6,44.8 
			30.8,44.9 30.9,44.9 31.2,44.8 31.3,44.8 31.4,44.8 31.7,44.8 31.9,44.8 31.9,44.9 32,45 32.3,45.3 32.4,45.4 32.6,45.7 
			32.7,45.8 33,46.2 33.1,46.3 33.3,46.6 33.4,46.7 33.5,46.7 33.6,46.7 33.7,46.7 33.7,46.6 34,46.3 34.1,46.2 34.3,45.8 
			34.4,45.7 34.7,45.4 34.8,45.3 35,45 35.1,44.9 35.1,44.9 35.2,44.8 35.3,44.8 35.8,44.9 36.2,44.9 36.3,44.9 36.5,44.9 
			36.7,44.9 36.8,44.9 36.8,44.9 36.9,44.9 36.9,45 36.9,45.1 36.9,45.5 36.9,45.6 36.9,46.1 36.9,46.2 36.9,46.6 36.9,46.8 
			36.9,47.2 36.9,47.3 36.9,47.8 36.9,47.9 36.9,48.4 36.9,48.5 36.9,48.9 36.9,49.1 36.9,49.5 36.9,49.6 		"/>
		<polygon class="st1" points="43.5,47.9 43.5,48.2 43.5,48.3 43.5,48.5 43.5,48.6 43.4,48.8 43.4,48.9 43.4,49.1 43.3,49.3 
			43.3,49.4 43.2,49.6 43.2,49.7 43.1,49.8 43,50 42.9,50.1 42.8,50.2 42.7,50.3 42.5,50.4 42.4,50.5 42.3,50.6 42.1,50.7 42,50.8 
			41.8,50.8 41.7,50.9 41.5,50.9 41.3,50.9 41.2,51 41,51 40.6,51 40.4,51 40.3,51 39.8,50.9 39.7,50.9 39.6,50.9 39.5,50.8 
			39.4,50.8 39.3,50.7 39.1,50.7 39,50.6 38.8,50.5 38.6,50.3 38.5,50.2 38.4,50.1 38.4,50 38.2,49.8 38.1,49.7 38.1,49.5 38,49.4 
			38,49.3 37.9,49.2 37.9,49 37.9,48.9 37.8,48.7 37.8,48.6 37.8,48.3 37.8,48.2 37.8,47.7 37.8,47.5 37.8,47 37.8,46.9 37.8,46.4 
			37.8,45.6 37.8,45.3 37.8,45.2 37.8,45.1 37.9,44.9 37.9,44.8 38,44.8 38.3,44.8 38.6,44.8 38.7,44.8 39,44.8 39.1,44.8 
			39.3,44.8 39.4,44.9 39.5,44.9 39.5,45 39.5,45.2 39.5,45.3 39.5,45.6 39.5,45.7 39.5,46.2 39.5,46.4 39.5,46.9 39.5,47 
			39.5,47.5 39.5,47.7 39.5,48.2 39.5,48.3 39.5,48.5 39.6,48.6 39.6,48.8 39.7,48.9 39.7,49.1 39.8,49.2 40,49.4 40.1,49.4 
			40.2,49.5 40.4,49.5 40.6,49.6 40.7,49.6 40.9,49.5 41.1,49.5 41.2,49.4 41.3,49.3 41.5,49.2 41.5,49.1 41.6,48.9 41.7,48.8 
			41.7,48.7 41.8,48.6 41.8,48.3 41.8,48.2 41.8,47.7 41.8,47.5 41.8,47 41.8,46.9 41.8,46.4 41.8,46.2 41.8,45.7 41.8,45.6 
			41.8,45.3 41.8,45 41.8,44.9 41.9,44.9 42,44.8 42.1,44.8 42.6,44.9 42.7,44.9 43,44.8 43.2,44.8 43.3,44.9 43.4,44.9 43.5,44.9 
			43.5,45 43.5,45.3 43.5,45.4 43.5,45.6 43.5,45.7 43.5,46.2 43.5,46.4 43.5,46.9 43.5,47 43.5,47.5 		"/>
		<polygon class="st1" points="50,46.1 50,46.3 50,47.5 50.1,48 50.1,48.1 50.1,49.2 50.1,49.4 50.1,49.4 50.1,49.6 50,50 50,50.4 
			50,50.6 50,50.7 49.9,50.7 49.9,50.8 49.8,50.8 49.7,50.8 49.2,50.9 49.1,50.9 48.9,50.9 48.8,50.9 48.7,50.8 48.6,50.8 
			48.5,50.7 48.4,50.6 48.3,50.4 48.2,50.3 47.9,49.9 47.8,49.8 47.5,49.4 47.4,49.3 47.1,48.8 47,48.7 46.7,48.3 46.6,48.2 
			46.3,47.8 46.2,47.8 46.2,47.8 46.1,47.9 46.1,48.3 46.1,48.4 46.1,48.8 46.1,49 46.1,49.4 46.1,49.6 46.1,50 46.1,50.2 
			46.2,50.5 46.2,50.6 46.2,50.7 46.1,50.8 46,50.8 45.9,50.8 45.9,50.8 45.7,50.9 45.4,50.8 45.2,50.8 44.9,50.9 44.8,50.9 
			44.6,50.9 44.5,50.8 44.5,50.8 44.4,50.7 44.4,50.7 44.4,50.6 44.4,50.5 44.4,50.2 44.4,50.1 44.4,49.6 44.4,49.5 44.4,48.5 
			44.4,48.4 44.5,47.9 44.5,47.8 44.5,47.2 44.4,46.8 44.4,46.6 44.5,46.2 44.5,46.1 44.4,45.6 44.4,45.5 44.4,45.3 44.4,45.2 
			44.4,45 44.5,44.9 44.5,44.9 44.5,44.9 44.6,44.8 44.9,44.8 45.1,44.8 45.7,44.8 45.8,44.9 45.9,44.9 45.9,45 46.3,45.3 
			46.4,45.4 46.7,45.8 46.8,45.9 47.1,46.3 47.2,46.4 47.5,46.9 47.5,47 47.8,47.4 47.9,47.5 48.2,47.9 48.3,47.9 48.4,47.9 
			48.4,47.9 48.4,47.8 48.4,47.5 48.3,47.3 48.4,47 48.4,46.8 48.3,46.3 48.3,46.2 48.4,45.7 48.4,45.6 48.3,45.2 48.3,45 
			48.4,44.9 48.4,44.9 48.5,44.8 48.6,44.8 48.6,44.8 48.8,44.8 49.1,44.8 49.3,44.8 49.6,44.8 49.7,44.8 49.9,44.8 50,44.8 
			50,44.9 50.1,44.9 50.1,45 50.1,45.1 50.1,45.3 50.1,45.5 50.1,45.6 		"/>
		<polygon class="st1" points="55.9,50.1 55.9,50.2 55.9,50.6 55.9,50.7 55.8,50.8 55.8,50.8 54.7,50.8 54.6,50.8 54.1,50.8 
			54,50.8 53.5,50.8 53.4,50.9 52.8,50.9 52.4,50.8 52.3,50.8 51.6,50.9 51.3,50.8 51.2,50.8 51.1,50.8 51.1,50.7 51.1,50.6 
			51.1,50.4 51.1,50.3 51.1,50.2 51.1,50.1 51.1,49.6 51.1,49.5 51.1,49.1 51.1,48.9 51.1,48.5 51.1,48.4 51.1,47.9 51.1,47.2 
			51.1,46.8 51.1,46.6 51.1,46.2 51.1,46 51.1,45.9 51.1,45.6 51.1,45.5 51.1,45 51.1,44.9 51.2,44.9 51.2,44.8 51.3,44.8 
			51.4,44.8 51.9,44.8 52.4,44.8 52.5,44.8 53,44.9 53.2,44.9 53.7,44.8 53.8,44.8 54.9,44.8 55.1,44.8 55.4,44.8 55.6,44.8 
			55.7,44.8 55.7,44.9 55.8,44.9 55.8,45 55.8,45.3 55.8,45.5 55.8,45.6 55.8,45.8 55.8,45.9 55.8,46.1 55.7,46.2 55.7,46.2 
			55.7,46.3 55.6,46.3 55.5,46.3 55.4,46.3 54.6,46.3 54.5,46.3 54,46.3 53.9,46.3 53.5,46.3 53.1,46.2 53,46.2 52.9,46.3 
			52.8,46.3 52.8,46.3 52.8,46.4 52.8,46.5 52.7,46.7 52.7,46.8 52.7,46.9 52.8,47 52.8,47.1 52.8,47.1 52.9,47.1 53.2,47.2 
			53.4,47.1 54.2,47.1 55.1,47.1 55.4,47.1 55.5,47.1 55.5,47.2 55.6,47.2 55.6,47.3 55.6,47.5 55.6,47.6 55.6,47.9 55.6,48.1 
			55.6,48.3 55.6,48.4 55.6,48.5 55.5,48.5 55.4,48.5 55.2,48.5 54.9,48.5 54.7,48.5 54.1,48.5 53.5,48.5 53.4,48.5 53.1,48.5 
			52.9,48.5 52.8,48.5 52.8,48.5 52.8,48.6 52.8,48.7 52.7,48.9 52.7,49 52.7,49.2 52.7,49.3 52.8,49.4 52.8,49.4 52.9,49.4 
			53.3,49.4 53.5,49.4 53.9,49.4 54.5,49.4 54.6,49.4 55.2,49.4 55.4,49.4 55.5,49.4 55.8,49.4 55.8,49.5 55.9,49.5 55.9,49.6 		"/>
		<polygon class="st1" points="61.7,49 61.7,49.1 61.7,49.3 61.7,49.4 61.6,49.6 61.6,49.7 61.5,49.9 61.5,50 61.4,50.1 61.3,50.2 
			61.2,50.3 61.1,50.4 60.9,50.5 60.8,50.6 60.7,50.6 60.6,50.7 60.4,50.8 60.1,50.9 60,50.9 59.8,50.9 59.7,50.9 59.5,50.9 
			59.4,51 59.2,51 58.8,51 58.6,51 58.5,51 58.3,51 58.2,50.9 58,50.9 57.9,50.9 57.7,50.8 57.6,50.8 57.5,50.7 57.4,50.6 
			57.2,50.6 57,50.4 56.9,50.3 56.7,50.2 56.6,50.1 56.5,50 56.5,50 56.5,49.9 56.5,49.8 56.5,49.8 56.6,49.7 56.9,49.5 56.9,49.4 
			57.1,49.2 57.1,49.1 57.2,49 57.3,48.9 57.4,48.9 57.5,49 57.8,49.2 57.9,49.3 58,49.3 58.2,49.4 58.3,49.5 58.5,49.5 58.6,49.5 
			58.8,49.5 58.9,49.5 59.4,49.5 59.6,49.5 59.6,49.5 59.8,49.4 59.9,49.4 60,49.3 60,49.2 60,49.1 60,48.9 60,48.9 60,48.8 
			59.9,48.7 59.8,48.6 59.7,48.6 59.6,48.6 59.5,48.5 59.3,48.5 58.5,48.4 58.3,48.4 58.2,48.3 58,48.3 57.9,48.2 57.7,48.2 
			57.4,48 57.3,48 57.2,47.9 57.1,47.8 57,47.7 56.9,47.6 56.8,47.5 56.8,47.3 56.7,47.2 56.7,47 56.7,46.9 56.6,46.6 56.6,46.5 
			56.7,46.3 56.7,46.1 56.7,46 56.8,45.9 56.8,45.7 56.9,45.6 57,45.5 57.1,45.4 57.2,45.3 57.3,45.2 57.4,45.1 57.5,45.1 57.7,45 
			57.9,44.9 58,44.8 58.2,44.8 58.4,44.8 58.6,44.7 58.8,44.7 58.9,44.7 59.1,44.7 59.2,44.7 59.4,44.7 59.6,44.7 59.6,44.7 
			59.8,44.8 60,44.8 60.2,44.8 60.3,44.9 60.5,44.9 60.6,45 60.7,45 60.8,45.1 61,45.2 61.1,45.2 61.2,45.3 61.3,45.4 61.3,45.5 
			61.2,45.6 61.2,45.7 61.1,45.8 60.8,46.2 60.7,46.4 60.6,46.4 60.5,46.5 60.5,46.5 60.4,46.4 60.3,46.3 60.1,46.3 60.1,46.3 
			59.9,46.2 59.9,46.2 59.7,46.2 59.5,46.1 59.4,46.1 59.2,46.1 59,46.1 58.8,46.1 58.7,46.1 58.6,46.2 58.5,46.2 58.4,46.3 
			58.4,46.3 58.3,46.4 58.3,46.6 58.3,46.7 58.4,46.8 58.5,46.9 58.6,46.9 58.6,47 58.8,47 59,47 59.3,47 59.4,47 59.7,47.1 
			59.9,47.2 60.1,47.2 60.3,47.3 60.5,47.4 60.7,47.4 60.8,47.5 60.9,47.6 61,47.6 61.2,47.8 61.3,47.9 61.4,48 61.5,48.2 
			61.6,48.3 61.6,48.4 61.7,48.5 61.7,48.7 61.7,48.8 		"/>
		<g>
			<path class="st1" d="M21.2,24.8L21,25.4l0,0.1l0,0.1l-0.1,0.2l-0.1,0.3l0,0.1l0,0.1l0,0.1l0,0.1l0,0.1l0,0.1l0.1-0.1l0.1-0.1
				l0.6-0.6l0.1-0.1l0.1-0.1l0.1-0.1l0.1-0.1l0.1-0.1l0.1-0.1l0.1-0.1l0.1-0.2l0.1-0.1l0.1-0.1l0.1-0.1l0.1-0.2l0.1-0.1l0-0.1
				l0.1-0.1l0.1-0.1l0-0.1l0-0.1l0-0.2l0.1-0.2l0-0.2l0.1-0.2l0-0.1l0-0.1v-0.3l0-0.1l0-0.1l-0.1-0.1l-0.1,0l-0.1,0l-0.1,0.1
				l-0.1,0.1l-0.1,0.1l-0.1,0.1l-0.1,0.1L22,23.1l-0.1,0.1l-0.1,0.1l-0.1,0.1l-0.1,0.1l-0.1,0.1l-0.1,0.1l0,0.1l-0.1,0.2l-0.1,0.2
				l-0.1,0.1L21.2,24.8z M23.6,24.4l-0.1,0.1l-0.1,0.2l-0.1,0.2l-0.1,0.2l-0.1,0.1l-0.1,0.1L23,25.4l-0.1,0.1l-0.1,0.1l-0.1,0.1
				l-0.1,0.1L22.6,26l-0.1,0.1l-0.1,0.1l-0.1,0.1l-0.2,0.2L22,26.6l-0.2,0.2l-0.1,0.1l-0.1,0.1L21.5,27l-0.2,0.2l-0.1,0.1l-0.3,0.2
				l-0.1,0l-0.1,0.1l-0.2,0.1l-0.1,0.1L20.3,28l0,0.2l0,0.3v0.1l0,0.1l0,0.1l0,0.1v0.3l0,0.2v0.3l0,0.2l0,0.1l0,0.1l0.1,0.1l0.1,0.1
				l0.1,0.1l0.1,0.1l0.1,0l0.1,0h0.2l0.1,0l0.1,0l0.2-0.1l0.2-0.1l0.1-0.1l0.1-0.1L22,30l0.2-0.2l0.1-0.1l0.1-0.1l0.1-0.1l0.1-0.1
				l0.1-0.1l0.1-0.1l0.1-0.1l0.1-0.1l0.1-0.2l0.1-0.1l0.1-0.1l0.1-0.1l0.1-0.1l0.1-0.2l0.1-0.1l0.2,0l0.1,0.1v0.1l0,0.1l-0.1,0.1
				l-0.1,0.1l-0.1,0.1l-0.1,0.1l0,0.1l-0.1,0.1l-0.1,0.1l-0.1,0.1l-0.1,0.1l0,0.1l-0.1,0.1L23,29.8l-0.1,0.2l-0.1,0.1l-0.1,0.1
				l-0.1,0.1l-0.1,0.1l-0.1,0.1l-0.1,0.1l-0.1,0.1l-0.1,0.1L22,30.9l-0.1,0.1L21.7,31l-0.1,0.1l-0.1,0.1l-0.1,0l-0.1,0.1l-0.2,0.1
				l-0.3,0.1l-0.2,0l-0.2,0h-0.1l-0.1,0l-0.1,0l-0.1,0l-0.1,0l-0.1-0.1l-0.1-0.1L19.6,31l-0.1-0.1l-0.1-0.1l-0.1-0.1l-0.1-0.1l0-0.1
				l0-0.1l0-0.1l0-0.1l0-0.1v-0.1l0-0.2l0-0.1v-0.1l0-0.1l0-0.1v-0.1l0-0.2l0-0.3l0-0.2v-0.1l0-0.1l0-0.1l0.1-0.5l0-0.2l0-0.3l0-0.1
				l0-0.2l0-0.1l0.1-0.2l0-0.2l0-0.1l0-0.2l0.1-0.2l0-0.1l0.1-0.2l0.1-0.2l0-0.1l0.1-0.2L20,25l0.1-0.1l0.1-0.4l0-0.1l0.1-0.2
				l0.1-0.2l0.1-0.2l0.1-0.1l0-0.1l0.1-0.1l0.1-0.2l0.1-0.1l0.1-0.1l0.1-0.1l0.1-0.2l0.2-0.3l0.1-0.1l0.2-0.2l0.1-0.1l0.1-0.1
				l0.1-0.1l0.2-0.2l0.2-0.1l0.2-0.1l0.1,0l0.1,0h0.3l0.1,0l0.1,0l0.1,0l0.1,0.1l0.2,0.2l0.1,0.1l0.1,0.1l0.1,0.2l0.1,0.1l0.1,0.2
				l0,0.2v0.3l0,0.4l-0.1,0.3l0,0.1l0,0.1l-0.1,0.3l-0.1,0.1L23.6,24.4z"/>
			<path class="st1" d="M30.5,27.6v-0.3l0-0.2l0-0.2l0-0.1l-0.1-0.2l-0.1-0.1l-0.1-0.1l-0.1-0.1l-0.1,0l-0.2,0l-0.2,0l-0.1,0
				L29,26.3l-0.1,0.1l-0.1,0l-0.3,0.2l-0.1,0.1l-0.1,0.1l-0.1,0.1L28,27l-0.1,0.2l-0.1,0.2l0,0.1l0,0.1l0,0.1L27.7,28l0,0.2l0,0.2
				l0,0.1l0,0.1l0,0.1l0,0.1l0,0.3v0.1l0,0.1v0.4l0,0.1l0,0.1l0,0.1l0.1,0.1l0.1,0.1l0.1,0.1l0.1,0.1l0.1,0l0.1,0h0.3l0.2,0l0.2,0
				l0.1-0.1l0.1,0l0.1-0.1l0.2-0.2l0.1-0.1v-0.2l-0.1-0.2l0-0.1l0-0.2l0.1-0.2l0.1-0.1l0.1-0.1l0.1,0l0.2,0l0.1-0.1l0.1-0.3l0.1-0.2
				l0.1-0.2l0.1-0.2l0-0.1l0-0.2l0-0.2l0-0.1L30.5,27.6z M25.6,23.7L25.6,23.7l0.2,0.2l0.1,0.1l0,0.1l0,0.1l0,0.1l0,0.1l-0.1,0.2
				l-0.1,0.1l-0.1,0.1l-0.1,0l-0.1,0h-0.1l-0.1,0l-0.1-0.1l-0.1-0.1l-0.1-0.1l-0.1-0.1l0-0.1l0-0.1v-0.1l0-0.1l0-0.1l0.1-0.1
				l0.1-0.1l0.1-0.1l0.2,0l0.1,0h0.1l0.1,0L25.6,23.7z M33.5,28.2l0,0.2l0,0.1l-0.1,0.1l-0.1,0.1L33.3,29l-0.1,0.2l-0.1,0.1L33,29.4
				l-0.1,0.1l-0.1,0.1l-0.1,0.1l-0.1,0.1l-0.1,0.1L32.5,30l-0.1,0.1l-0.1,0.1l-0.1,0.1l-0.1,0.1l-0.1,0l-0.1,0l-0.3,0.1l-0.1,0
				l-0.1,0h-0.1l-0.2,0h-0.1l-0.2,0l-0.1,0l-0.1,0l-0.1,0l-0.1,0.1l-0.1,0.1l-0.1,0.1L30,30.8l-0.1,0.1L29.8,31L29.7,31l-0.1,0.1
				l-0.1,0.1l-0.1,0l-0.1,0l-0.1,0.1l-0.1,0l-0.1,0l-0.1,0l-0.5,0.1h-0.1l-0.2,0l-0.1,0l-0.2,0l-0.1,0l-0.1,0l-0.1,0l-0.1,0
				l-0.1-0.1L27,31.1L26.8,31l-0.1-0.1l-0.1-0.2l-0.1-0.1l-0.1-0.3l0-0.1l0-0.1l0-0.1l0-0.1l0-0.1l0-0.1l-0.1,0l-0.1,0.1l-0.1,0.2
				L26,30l-0.1,0.1l-0.1,0.1l-0.2,0.3l-0.1,0.1l-0.1,0.1l-0.1,0.1l-0.1,0.1L25.1,31L25,31.1l-0.1,0.1l-0.1,0.1l-0.1,0.1l-0.1,0.1
				l-0.1,0l-0.1,0l-0.4,0l-0.1,0l-0.1,0l-0.1,0l-0.1,0l-0.1-0.1l-0.1-0.1l-0.1-0.1L23.1,31l-0.1-0.1l0-0.1l0-0.1v-0.1l0-0.1v-0.3
				l0-0.1l0-0.1l0-0.1l0-0.1l0.1-0.1l0-0.1l0-0.1l0.1-0.2l0-0.1l0-0.1l0-0.1l0.1-0.3l0-0.2l0-0.2l0.1-0.1l0.1-0.4l0-0.1l0.1-0.1
				l0.1-0.3l0-0.1l0-0.1l0-0.1l0-0.1l0.1-0.2l0-0.1l0-0.1l0-0.1l0-0.1l0-0.1l0.1-0.1l0.1-0.1l0.1-0.1l0.1,0h0.1l0.3,0.1l0.1,0
				l0.1,0.1l0,0.1v0.1l-0.1,0.2l0,0.2l0,0.1L25,26.9l0,0.2l0,0.1l0,0.1l0,0.2l0,0.2l-0.1,0.3l-0.1,0.2l0,0.2l0,0.2l0,0.1l0,0.2
				l-0.1,0.2l-0.1,0.2l-0.1,0.1l0,0.2l0,0.2l0,0.1l0,0.2l0,0.2l0,0.2l0,0.1l0,0.1l0.1,0.1h0.1l0.1,0l0.2-0.1l0.1-0.1l0.1-0.1
				l0.1-0.1l0.1-0.1l0.1-0.1l0.1-0.1l0.3-0.3l0.1-0.2l0.1-0.1l0.1-0.1l0.1-0.1l0.1-0.1l0.1-0.2l0.1-0.2l0.1-0.1l0.2-0.3l0.1-0.1
				l0-0.1l0-0.1l0-0.1l0-0.1l0-0.1l0-0.1l0.1-0.3l0-0.2l0-0.2l0-0.1l0-0.1l0.1-0.3l0-0.1l0-0.1l0-0.1l0-0.1l0-0.1l0-0.1l0-0.1l0-0.1
				l0-0.1l0-0.1l0-0.1l0-0.1l0.1-0.3l0-0.1l0-0.1l0-0.1l0-0.1l0.1-0.3l0-0.1l0-0.1l0.1-0.1l0-0.1l0-0.1l0-0.1l0-0.1l0-0.1l0-0.1
				l0-0.1l0.1-0.1l0.1-0.1l0-0.1l0-0.1l0.1-0.1l0-0.1l0.1-0.1l0.1-0.1l0.1-0.1l0.1,0h0.1l0.1,0l0.2,0.1l0.1,0l0.1,0.1l0.1,0.1l0,0.1
				l0,0.1l-0.1,0.1l-0.2,0.3l-0.1,0.1l-0.1,0.2l0,0.2l-0.1,0.1l0,0.1l0,0.1l0,0.1l-0.1,0.1l0,0.1l-0.1,0.1l-0.1,0.3l0,0.2l0,0.2
				l-0.1,0.3l0,0.1l0,0.1l0,0.1l0,0.1l-0.1,0.1l0,0.1l-0.1,0.4l0,0.1l0,0.1l0,0l0.1,0l0.2-0.2l0.1-0.1l0.3-0.2l0.1,0l0.1,0l0.4-0.1
				l0.2,0l0.1,0H30l0.4,0l0.1,0l0.1,0.1l0.3,0.2l0.1,0.1l0.1,0.1l0.2,0.2l0.1,0.1l0.1,0.1l0.1,0.2l0,0.1l0,0.1l0,0.1l0,0.1v0.5
				l0,0.1v0.1l0,0.1l0,0.1l0,0.1l0,0.3l0,0.1l-0.1,0.4l-0.1,0.3l-0.1,0.1l-0.1,0.1l-0.1,0.1l-0.1,0.1L31,29.8l0,0.1l0,0.1l0.1,0h0.1
				l0.1,0l0.1,0l0.1,0l0.1-0.1l0.1-0.1l0.1-0.1l0.1-0.1l0.1-0.1l0.1-0.1l0.1-0.1l0.3-0.3l0.1-0.1l0.1-0.2l0.1-0.1l0.1-0.1l0.1-0.1
				l0.1-0.1l0.1-0.1l0.1-0.1l0.2,0L33.5,28.2z"/>
			<polygon class="st1" points="33.9,25 33.8,24.6 33.8,24.5 33.8,24.3 33.8,24.2 33.9,24.1 33.9,24 34,23.9 34.1,23.8 34.2,23.8 
				34.4,23.7 34.5,23.7 34.6,23.8 34.7,23.8 34.8,23.9 34.9,24 34.9,24.1 34.9,24.5 34.9,24.7 34.9,24.8 34.9,24.9 35,25 35.1,25.1 
				35.2,25.2 35.3,25.3 35.4,25.5 35.5,25.6 35.7,25.7 35.8,25.9 35.9,25.9 36,26 36.1,26.1 36.2,26.2 36.3,26.4 36.3,26.6 
				36.4,26.7 36.4,26.9 36.4,27.1 36.4,27.2 36.3,27.3 36.2,27.4 36.1,27.6 36,27.7 35.9,27.8 35.9,27.9 35.8,28 35.7,28.2 
				35.6,28.3 35.6,28.4 35.3,28.9 35.3,29 35.2,29.1 35.2,29.2 35.2,29.4 35.1,29.5 35.1,29.6 35.1,29.8 35.2,30 35.3,30.2 
				35.3,30.3 35.4,30.4 35.5,30.4 35.7,30.5 35.9,30.5 36.1,30.4 36.2,30.4 36.3,30.3 36.4,30.3 36.6,30.1 36.8,30 36.8,30 
				36.9,29.9 37,29.8 37.3,29.5 37.5,29.1 37.6,29 37.6,28.9 37.7,28.8 37.8,28.7 37.8,28.5 37.9,28.5 38,28.3 38,28.2 38.1,28.1 
				38.1,28 38.2,27.9 38.4,27.9 38.5,28.1 38.5,28.2 38.5,28.4 38.4,28.6 38.3,28.7 38.3,28.8 38.1,29.1 38,29.3 37.9,29.4 
				37.9,29.5 37.8,29.6 37.7,29.8 37.5,30.1 37.4,30.2 37.3,30.4 37.1,30.6 37,30.6 36.8,30.8 36.7,30.9 36.6,31 36.4,31.1 
				36.3,31.1 36.1,31.2 36,31.2 35.9,31.3 35.8,31.3 35.4,31.3 35.3,31.3 35,31.2 34.9,31.2 34.7,31.1 34.5,31 34.4,30.9 34.3,30.8 
				34.2,30.7 34.2,30.6 34.1,30.5 34.1,30.4 34,30.2 34,30.1 34,30 34,29.8 34,29.7 34,29.2 34.1,29.1 34.1,29 34.2,28.8 34.2,28.7 
				34.3,28.5 34.4,28.4 34.5,28.2 34.6,28.1 34.7,28 34.7,27.8 34.8,27.7 34.9,27.5 35,27.3 35.2,27.1 35.3,27 35.3,26.8 35.3,26.6 
				35.1,26.4 35.1,26.2 34.8,26 34.7,25.9 34.6,25.8 34.5,25.8 34.5,26 34.4,26.1 34.4,26.2 34.4,26.3 34.3,26.5 34.3,26.6 
				34.2,26.9 34.1,27.1 34.1,27.2 34,27.3 34,27.5 33.9,27.6 33.8,27.7 33.8,27.9 33.7,28.1 33.6,28.2 33.6,28.4 33.5,28.5 
				33.4,28.6 33.3,28.7 33.2,28.7 33.1,28.6 33,28.5 33,28.4 33.1,28.3 33.1,28.2 33.2,28.1 33.2,27.9 33.3,27.7 33.3,27.6 
				33.4,27.4 33.5,27.3 33.5,27.2 33.6,27.1 33.6,27 33.6,26.8 33.8,26.6 33.8,26.5 33.8,26.3 33.9,26.2 33.9,26.1 33.9,26 34,25.8 
				34,25.7 34,25.6 34.1,25.4 34.1,25.3 34,25.2 			"/>
			<path class="st1" d="M40.5,26.1l-0.2,0.1l-0.2,0.1L40,26.3l-0.2,0.2l-0.1,0.1l-0.1,0.1l-0.1,0.1L39.4,27l-0.1,0.1l-0.1,0.1
				l-0.1,0.2l-0.1,0.2L39,27.7l0,0.1l0,0.1l0.1,0.1l0.2,0l0.3,0l0.1,0h0.4l0.1,0l0.1,0l0.1-0.1l0.1,0l0.1-0.1l0.1-0.1l0.1-0.1
				l0.1-0.1l0.1-0.1l0.1-0.1l0.1-0.1l0.1-0.1l0.1-0.1l0.1-0.3l0-0.1l0-0.1l0-0.1l-0.1-0.1l-0.1-0.1l-0.1-0.1l-0.1-0.1L41,26l-0.1,0
				l-0.1,0L40.5,26.1z M42.2,27.8L42.2,27.8L42,28.1l-0.2,0.2l-0.1,0.1l-0.1,0.1l-0.1,0l-0.1,0.1l-0.1,0l-0.1,0.1l-0.1,0l-0.1,0
				l-0.1,0l-0.1,0l-0.2,0l-0.2,0l-0.1,0H40l-0.3,0l-0.3,0l-0.1,0L39,28.6h-0.1l-0.1,0.1l0,0.1v0.1l0,0.1v0.2l0,0.1l0,0.1l0.1,0.3
				l0.1,0.2l0.1,0.1l0.1,0.1l0.2,0.1l0.1,0l0.1,0l0.1,0l0.1,0l0.1,0h0.1l0.1,0l0.4-0.1l0.1,0l0.1,0l0.1,0l0.2-0.1l0.2-0.1l0.2-0.2
				l0.1-0.1l0.1-0.1l0.2-0.2l0.2-0.2l0.1-0.1l0.1-0.1l0.1-0.2l0.1-0.1l0.1-0.1l0.1-0.1l0.1-0.1l0.1-0.1l0.1-0.1l0.1-0.1l0.1-0.1
				l0.1-0.1l0.1-0.1h0.1l0.1,0.1l0.1,0.1l0,0.1l-0.1,0.1l-0.1,0.2l-0.1,0.2l-0.1,0.2L43.2,29l-0.1,0.1L43,29.4l0,0.1l-0.1,0.1
				l-0.1,0.2l-0.1,0.1L42.5,30l-0.1,0.1l-0.1,0.1l0,0.1l-0.1,0.1l-0.1,0.1l-0.2,0.2l-0.1,0.1l-0.1,0.1L41.4,31l-0.4,0.2l-0.1,0
				l-0.1,0l-0.2,0l-0.2,0l-0.3,0l-0.2,0l-0.1,0h-0.1l-0.5-0.1l-0.1,0l-0.1,0l-0.1-0.1l-0.1-0.1L38.5,31l-0.1-0.1l-0.1-0.1l-0.1-0.1
				l-0.1-0.1l-0.1-0.1L38,30.5l-0.1-0.1l-0.1-0.1l-0.1-0.1l0-0.1l0-0.1l0-0.1l0-0.1l0-0.1l0-0.4v-0.3l0-0.1v-0.1l0.1-0.4l0-0.1
				l0-0.1l0-0.1l0-0.1l0-0.1l0.1-0.2l0.1-0.2l0.1-0.1l0.1-0.2l0.1-0.1l0.1-0.1l0.1-0.1l0.1-0.1l0.2-0.2l0.2-0.2L39,26l0.1-0.1
				l0.1-0.1l0.1-0.1l0.1-0.1l0.1-0.1l0.1-0.1l0.2-0.1l0.3-0.1l0.3-0.1l0.2,0H41l0.2,0l0.2,0l0.2,0l0.1,0l0.1,0.1l0.1,0.1l0.1,0.1
				l0.2,0.2l0.1,0.1l0.1,0.1l0.1,0.2l0,0.1l0,0.1l0,0.1v0.2l0,0.2l0,0.1l0,0.2l-0.1,0.2l-0.1,0.1l0,0.1l-0.1,0.1L42.2,27.8z"/>
			<path class="st1" d="M49,26.1l-0.3,0h-0.1l-0.1,0l-0.1,0l-0.1,0l-0.1,0.1l-0.1,0l-0.1,0.1l-0.1,0.1l-0.1,0.1l-0.1,0.1l-0.1,0.1
				l-0.2,0.2L47.2,27l-0.1,0.1l-0.2,0.2l-0.1,0.1l-0.1,0.1l-0.2,0.3l-0.1,0.1l0,0.1l0,0.1l0,0.1l-0.1,0.1l-0.1,0.3l0,0.1l0,0.2
				l0,0.2l0,0.1l0,0.2l0,0.2l0,0.2l0,0.1l0.1,0.1l0.1,0.1l0.1,0.1l0.1,0.1l0.2,0l0.2,0l0.1-0.1l0.1,0l0.1-0.1l0.1-0.1l0.2-0.2
				l0.1-0.1l0.1-0.1l0.1-0.1l0.1-0.1l0.1-0.1l0.1-0.1l0.1-0.2l0.1-0.1l0.1-0.1l0.1-0.1l0-0.1l0.1-0.1l0.1-0.2l0.1-0.2l0.1-0.1l0-0.1
				l0.2-0.6l0.1-0.2l0.1-0.5l0-0.2l0-0.1l0-0.2l0-0.1l-0.1-0.1H49z M46.1,26.6L46.1,26.6l0.3-0.3l0.3-0.3l0.1-0.1l0.1-0.1l0.1-0.1
				l0.1-0.1l0.1-0.1l0.2-0.1l0.1-0.1l0.3-0.1l0.1,0l0.3-0.1l0.1,0l0.1,0l0.3,0h0.3l0.2,0l0.2,0l0.1,0l0.1,0l0.1-0.1l0-0.1l0.1-0.3
				l0-0.1l0-0.1l0.1-0.2l0-0.1l0-0.1l0.1-0.1l0-0.1l0.1-0.3l0-0.1l0.1-0.4l0.1-0.2l0.1-0.3l0-0.1l0.1-0.1l0-0.1l0.1-0.3l0-0.1
				l0.1-0.2l0.1-0.1l0.1-0.1l0.2-0.1h0.1l0.1,0l0.1,0l0.1,0l0.1,0l0.1,0.1l0,0.1l0,0.1l0,0.1l-0.1,0.1l-0.1,0.1l0,0.1l0,0.1
				l-0.1,0.2l-0.1,0.2L51.6,23l-0.2,0.5l-0.1,0.2l-0.1,0.2l0,0.1l0,0.1l-0.1,0.3L51,24.5l0,0.1l-0.2,0.5l0,0.1l0,0.1l0,0.1l0,0.1
				l0,0.1l0,0.1l0,0.1l0,0.1l0,0.1l0,0.1l0,0.1l0,0.1l0,0.1l0,0.1l0,0.1l0,0.1l0,0.2l-0.1,0.2l0,0.1l0,0.2l0,0.1l0,0.2l0,0.2
				l-0.1,0.4l0,0.1l0,0.1l0,0.2l0,0.2l0,0.1l0,0.1l0,0.1v0.1l0,0.1l0,0.2l0,0.2l0,0.1l0.1,0.1l0.1,0l0.1,0l0.1,0l0.1,0l0.1-0.1
				l0.3-0.2l0.1-0.1l0.1-0.2l0.1-0.2l0.2-0.3l0.1-0.1l0.1-0.1l0.1-0.1l0.1-0.3l0.1-0.1l0.1-0.1l0.1-0.1L52,28l0.2-0.1l0.2,0l0.1,0.1
				v0.2l-0.1,0.2l-0.1,0.1l-0.1,0.2l-0.1,0.2L52,29l-0.2,0.3l-0.1,0.1l-0.2,0.3L51.5,30l-0.1,0.1l-0.1,0.1l-0.1,0.1l-0.1,0.1
				l-0.1,0.1L51,30.6l-0.1,0.1l-0.1,0.1l-0.1,0.1l-0.1,0.1L50.5,31L50.4,31L50,31.2l-0.1,0h-0.1l-0.1,0l-0.1,0l-0.1,0l-0.1-0.1
				L49.2,31L49.1,31L49,30.9l-0.1-0.2l-0.1-0.1l0-0.1l0-0.1l0-0.4v-0.3l0,0l-0.1,0.1l-0.1,0.1l-0.1,0.2l-0.1,0.1l-0.1,0.1l-0.2,0.2
				L48,30.6l-0.3,0.3l-0.1,0.1L47.4,31l-0.1,0.1l-0.1,0.1l-0.1,0l-0.3,0.1l-0.1,0l-0.1,0l-0.1,0l-0.1,0l-0.1,0l-0.1,0l-0.1-0.1
				l-0.1-0.1L45.6,31l-0.1-0.1l-0.1-0.1l-0.1-0.1l-0.1-0.1l0-0.1l-0.1-0.2l0-0.1l0-0.1l0-0.2v-0.2l0-0.1v-0.1l0-0.1l0-0.2l0-0.2
				l0-0.1l0-0.1l0-0.1l0-0.1l0-0.1l0.1-0.3l0-0.1l0.1-0.2l0.1-0.2l0.1-0.2l0.1-0.1l0.1-0.1l0.1-0.1l0.1-0.2L46.1,26.6z"/>
			<path class="st1" d="M54.5,26.1l-0.2,0.1l-0.2,0.1L54,26.3l-0.2,0.2l-0.1,0.1l-0.1,0.1l-0.1,0.1L53.4,27l-0.1,0.1l-0.1,0.1
				l-0.1,0.2l-0.1,0.2L53,27.7l0,0.1l0,0.1L53,28l0.2,0l0.3,0l0.1,0H54l0.1,0l0.1,0l0.1-0.1l0.1,0l0.1-0.1l0.1-0.1l0.1-0.1l0.1-0.1
				l0.1-0.1l0.1-0.1l0.1-0.1l0.1-0.1l0.1-0.1l0.1-0.3l0-0.1l0-0.1l0-0.1l-0.1-0.1l-0.1-0.1l-0.1-0.1l-0.1-0.1l-0.1,0l-0.1,0l-0.1,0
				L54.5,26.1z M56.2,27.8L56.2,27.8L56,28.1l-0.2,0.2l-0.1,0.1l-0.1,0.1l-0.1,0l-0.1,0.1l-0.1,0l-0.1,0.1l-0.1,0l-0.1,0l-0.1,0
				l-0.1,0l-0.2,0l-0.2,0l-0.1,0H54l-0.2,0l-0.3,0l-0.1,0L53,28.6h-0.1l-0.1,0.1l0,0.1v0.1l0,0.1v0.2l0,0.1l0,0.1l0.1,0.3L53,30
				l0.1,0.1l0.1,0.1l0.2,0.1l0.1,0l0.1,0l0.1,0l0.1,0l0.1,0h0.1l0.1,0l0.4-0.1l0.1,0l0.1,0l0.1,0l0.2-0.1l0.2-0.1l0.2-0.2l0.1-0.1
				l0.1-0.1l0.2-0.2l0.2-0.2l0.1-0.1l0.1-0.1l0.1-0.2l0.1-0.1l0.1-0.1l0.1-0.1l0.1-0.1l0.1-0.1l0.1-0.1l0.1-0.1l0.1-0.1l0.1-0.1
				l0.1-0.1h0.1l0.1,0.1l0.1,0.1l0,0.1l-0.1,0.1l-0.1,0.2l-0.1,0.2l-0.1,0.2L57.2,29l-0.1,0.1L57,29.4l0,0.1l-0.1,0.1l-0.1,0.2
				l-0.1,0.1L56.5,30l-0.1,0.1l-0.1,0.1l0,0.1l-0.1,0.1l-0.1,0.1l-0.2,0.2l-0.1,0.1l-0.1,0.1L55.4,31l-0.4,0.2l-0.1,0l-0.1,0l-0.2,0
				l-0.2,0l-0.3,0l-0.2,0l-0.2,0h-0.1l-0.5-0.1l-0.1,0l-0.1,0l-0.1-0.1l-0.1-0.1L52.5,31l-0.1-0.1l-0.1-0.1l-0.1-0.1l-0.1-0.1
				L52,30.6L52,30.5l-0.1-0.1l-0.1-0.1l-0.1-0.1l0-0.1l0-0.1l0-0.1l0-0.1l0-0.1l0-0.4v-0.3l0-0.1v-0.1l0.1-0.4l0-0.1l0-0.1l0-0.1
				l0-0.1l0-0.1l0.1-0.2l0.1-0.2l0.1-0.1l0.1-0.2l0.1-0.1l0.1-0.1l0.1-0.1l0.1-0.1l0.2-0.2l0.2-0.2L53,26l0.1-0.1l0.1-0.1l0.1-0.1
				l0.1-0.1l0.1-0.1l0.1-0.1l0.2-0.1l0.3-0.1l0.3-0.1l0.2,0H55l0.2,0l0.2,0l0.2,0l0.1,0l0.1,0.1l0.1,0.1l0.1,0.1l0.2,0.2l0.1,0.1
				l0.1,0.1l0.1,0.2l0,0.1l0,0.1l0,0.1v0.2l0,0.2l0,0.1l0,0.2l-0.1,0.2l-0.1,0.1l0,0.1l-0.1,0.1L56.2,27.8z"/>
		</g>
	</g>
</g>
</svg>
