<?xml version="1.0" encoding="utf-8"?>
<!-- Generator: Adobe Illustrator 21.0.0, SVG Export Plug-In . SVG Version: 6.00 Build 0)  -->
<svg version="1.1" id="Capa_1" xmlns="http://www.w3.org/2000/svg" xmlns:xlink="http://www.w3.org/1999/xlink" x="0px" y="0px"
	 viewBox="0 0 79 72.1" style="enable-background:new 0 0 79 72.1;" xml:space="preserve">
<style type="text/css">
	.st0{fill:#5FA03C;}
	.st1{fill:#FFFFFF;}
	.st2{fill:#F2F2F2;}
	.st3{fill:#369443;}
	.st4{fill:#8EBB37;}
	.st5{fill:#222221;}
	.st6{fill:#94BB1E;}
	.st7{fill:none;stroke:#222221;stroke-width:2.346;stroke-linecap:round;stroke-linejoin:round;stroke-miterlimit:10;}
	.st8{fill:#D9802E;}
	.st9{fill:#F0C830;}
	.st10{opacity:0.68;clip-path:url(#SVGID_2_);}
	.st11{clip-path:url(#SVGID_4_);}
	.st12{clip-path:url(#SVGID_6_);fill:url(#SVGID_7_);}
	.st13{opacity:0.2;clip-path:url(#SVGID_2_);}
	.st14{clip-path:url(#SVGID_9_);}
	.st15{clip-path:url(#SVGID_11_);}
	.st16{filter:url(#Adobe_OpacityMaskFilter);}
	.st17{clip-path:url(#SVGID_13_);}
	.st18{enable-background:new    ;}
	.st19{clip-path:url(#SVGID_13_);fill:url(#SVGID_15_);}
	.st20{clip-path:url(#SVGID_13_);mask:url(#SVGID_14_);}
	.st21{clip-path:url(#SVGID_17_);}
	.st22{clip-path:url(#SVGID_19_);fill:url(#SVGID_20_);}
	.st23{opacity:0.68;clip-path:url(#SVGID_22_);}
	.st24{opacity:0.57;clip-path:url(#SVGID_22_);}
	.st25{clip-path:url(#SVGID_26_);}
	.st26{clip-path:url(#SVGID_28_);fill:#CED0D1;}
	.st27{clip-path:url(#SVGID_22_);fill:#4070B6;}
	.st28{clip-path:url(#SVGID_22_);fill:#DD902F;}
	.st29{fill:#C91862;}
	.st30{fill:none;stroke:#272425;stroke-width:7.564600e-02;stroke-miterlimit:10;}
	.st31{fill:#9CC34D;}
	.st32{fill:#B88844;}
	.st33{fill:#78B552;}
	.st34{fill:#589B52;}
	.st35{fill:#5CA257;}
	
		.st36{fill:none;stroke:#FFFFFF;stroke-width:2.3815;stroke-linecap:round;stroke-linejoin:round;stroke-miterlimit:10;stroke-dasharray:0,4.6879;}
	.st37{fill:none;stroke:#FFFFFF;stroke-width:2.3815;stroke-linecap:round;stroke-linejoin:round;stroke-miterlimit:10;}
	.st38{fill:#AFCB49;}
	.st39{fill:#CE4E80;}
	.st40{fill:#E35100;}
	.st41{fill:#4DAEA9;}
	.st42{fill:#B45696;}
	.st43{fill:#E1DF00;}
	.st44{fill:#76B452;}
	.st45{fill:#E4A612;}
	.st46{fill:#474747;}
	.st47{fill:#B2C633;}
	.st48{fill:#272425;}
	.st49{fill:#5D9E3B;}
	.st50{fill:#F3D33F;}
	.st51{fill:#526D59;}
	.st52{fill:#E2D1B1;}
	.st53{fill:#75398E;}
	.st54{fill:#EBB146;}
	.st55{fill:#F1F1F1;}
	.st56{fill:none;stroke:#5FA03C;stroke-width:1.2441;stroke-linecap:round;stroke-linejoin:round;stroke-miterlimit:10;}
	.st57{fill:none;stroke:#5FA03C;stroke-width:1.6816;stroke-linecap:round;stroke-linejoin:round;stroke-miterlimit:10;}
</style>
<g>
	<path class="st49" d="M4.2,61.2c10.9,4.7,22.6,7.3,34.8,7.3c12.2,0,24-2.6,34.9-7.3c0.6-0.4,0.9-0.7,0.9-0.7V3.7H4.2V61.2z"/>
	<g>
		<path class="st50" d="M14.8,21.5c0.5,0.4,0.8,1,0.7,1.8c0,0.8-0.3,1.5-0.8,1.9c-0.5,0.5-1.2,0.7-2.1,0.7l-1.3,0l0,2l-1.8,0l0-7.1
			l3.1,0C13.6,20.8,14.3,21,14.8,21.5z M11.4,24.5l1.2,0c0.4,0,0.7-0.1,0.9-0.3c0.2-0.2,0.3-0.5,0.3-0.9c0-0.4-0.1-0.6-0.3-0.8
			c-0.2-0.2-0.5-0.3-0.9-0.3l-1.2,0L11.4,24.5z"/>
		<path class="st50" d="M20,26L20,26l-1.4,0l0,2l-1.8,0l0-7.1l3.2,0c0.9,0,1.7,0.2,2.2,0.7s0.8,1,0.8,1.8c0,0.5-0.1,1-0.3,1.4
			c-0.2,0.4-0.5,0.7-1,0.9l1.5,2.4l-2.1,0L20,26z M20,24.5c0.4,0,0.7-0.1,0.9-0.3c0.2-0.2,0.3-0.5,0.3-0.9c0-0.4-0.1-0.6-0.3-0.8
			c-0.2-0.2-0.5-0.3-0.9-0.3l-1.4,0l0,2.3L20,24.5z"/>
		<path class="st50" d="M29.8,21.3c0.6,0.3,1,0.8,1.4,1.3c0.3,0.6,0.5,1.2,0.5,1.8c0,0.7-0.2,1.3-0.5,1.9c-0.3,0.6-0.8,1-1.4,1.3
			c-0.6,0.3-1.2,0.5-2,0.5c-0.7,0-1.4-0.2-2-0.5s-1-0.8-1.4-1.3c-0.3-0.6-0.5-1.2-0.5-1.9c0-0.7,0.2-1.3,0.5-1.9
			c0.3-0.5,0.8-1,1.4-1.3c0.6-0.3,1.2-0.5,2-0.5C28.5,20.8,29.2,21,29.8,21.3z M26.8,22.6c-0.3,0.2-0.6,0.4-0.7,0.8
			c-0.2,0.3-0.3,0.7-0.3,1.1c0,0.4,0.1,0.8,0.3,1.1c0.2,0.3,0.4,0.6,0.7,0.8s0.6,0.3,1,0.3c0.4,0,0.7-0.1,1-0.3
			c0.3-0.2,0.5-0.4,0.7-0.8c0.2-0.3,0.3-0.7,0.3-1.1c0-0.4-0.1-0.8-0.3-1.1c-0.2-0.3-0.4-0.6-0.7-0.8c-0.3-0.2-0.6-0.3-1-0.3
			C27.5,22.3,27.1,22.4,26.8,22.6z"/>
		<path class="st50" d="M37.9,21.4c0.6,0.3,1,0.7,1.3,1.3c0.3,0.5,0.5,1.2,0.5,1.9c0,0.7-0.2,1.3-0.5,1.9c-0.3,0.5-0.8,1-1.4,1.3
			s-1.3,0.4-2,0.4l-3,0l0-7.1l3.1,0C36.7,20.9,37.4,21.1,37.9,21.4z M34.7,26.6l1.3,0c0.4,0,0.7-0.1,1-0.3c0.3-0.2,0.5-0.4,0.7-0.7
			c0.2-0.3,0.2-0.7,0.2-1.1c0-0.4-0.1-0.8-0.2-1.1c-0.2-0.3-0.4-0.6-0.7-0.8c-0.3-0.2-0.6-0.3-1-0.3l-1.2,0L34.7,26.6z"/>
		<path class="st50" d="M47,26.7c-0.3,0.5-0.6,0.8-1.1,1.1c-0.5,0.2-1.1,0.4-1.7,0.4c-0.7,0-1.2-0.1-1.7-0.4
			c-0.5-0.3-0.9-0.6-1.1-1.1c-0.3-0.5-0.4-1-0.4-1.6l0-4.1l1.8,0l0,4.1c0,0.5,0.1,0.9,0.4,1.1c0.3,0.3,0.6,0.4,1.1,0.4
			c0.4,0,0.8-0.1,1-0.4c0.3-0.3,0.4-0.7,0.4-1.1l0-4.1l1.8,0l0,4.1C47.4,25.7,47.2,26.3,47,26.7z"/>
		<path class="st50" d="M53.9,21.3c0.5,0.2,0.9,0.5,1.3,0.9l-1.1,1.2c-0.2-0.3-0.5-0.5-0.8-0.7c-0.3-0.2-0.6-0.3-1-0.3
			c-0.4,0-0.7,0.1-1,0.3c-0.3,0.2-0.5,0.4-0.7,0.7c-0.2,0.3-0.3,0.7-0.3,1.1c0,0.4,0.1,0.8,0.3,1.1c0.2,0.3,0.4,0.6,0.7,0.8
			c0.3,0.2,0.6,0.3,1,0.3c0.3,0,0.6-0.1,0.9-0.2c0.3-0.1,0.6-0.4,0.9-0.6l1.1,1.1c-0.4,0.4-0.8,0.7-1.4,0.9
			c-0.5,0.2-1.1,0.4-1.6,0.3c-0.7,0-1.3-0.2-1.9-0.5s-1-0.8-1.3-1.3c-0.3-0.6-0.5-1.2-0.5-1.9c0-0.7,0.2-1.3,0.5-1.8
			c0.3-0.5,0.8-1,1.4-1.3c0.6-0.3,1.2-0.5,1.9-0.5C52.8,20.9,53.3,21,53.9,21.3z"/>
		<path class="st50" d="M59.6,22.5l0,5.7l-1.8,0l0-5.7l-2.1,0l0-1.5l6.1,0l0,1.5L59.6,22.5z"/>
		<path class="st50" d="M67.7,21.5c0.6,0.3,1,0.8,1.4,1.3s0.5,1.2,0.5,1.8c0,0.7-0.2,1.3-0.5,1.9c-0.3,0.6-0.8,1-1.4,1.3
			c-0.6,0.3-1.2,0.5-2,0.5c-0.7,0-1.4-0.2-2-0.5s-1-0.8-1.4-1.3c-0.3-0.6-0.5-1.2-0.5-1.9c0-0.7,0.2-1.3,0.5-1.9
			c0.3-0.5,0.8-1,1.4-1.3c0.6-0.3,1.2-0.5,2-0.5C66.5,21,67.1,21.2,67.7,21.5z M64.8,22.8c-0.3,0.2-0.6,0.4-0.7,0.8
			c-0.2,0.3-0.3,0.7-0.3,1.1c0,0.4,0.1,0.8,0.3,1.1c0.2,0.3,0.4,0.6,0.7,0.8s0.6,0.3,1,0.3c0.4,0,0.7-0.1,1-0.3
			c0.3-0.2,0.5-0.4,0.7-0.8c0.2-0.3,0.3-0.7,0.3-1.1c0-0.4-0.1-0.8-0.3-1.1c-0.2-0.3-0.4-0.6-0.7-0.8c-0.3-0.2-0.6-0.3-1-0.3
			C65.4,22.5,65.1,22.6,64.8,22.8z"/>
	</g>
	<g>
		<g>
			<path class="st1" d="M8.7,32.7h3.4l2.8,5.6l1.2,2.8h0.1c-0.2-1.3-0.4-3.2-0.4-4.8v-3.6h3.1v12.5h-3.4l-2.8-5.6l-1.2-2.8h-0.1
				c0.2,1.4,0.4,3.2,0.4,4.8v3.6H8.7V32.7z"/>
			<path class="st1" d="M22.5,32.7h3.3v6.8c0,2.2,0.6,3,1.9,3c1.3,0,1.9-0.8,1.9-3v-6.8h3.2v6.4c0,4.3-1.6,6.3-5.1,6.3
				c-3.5,0-5.2-2-5.2-6.3V32.7z"/>
			<path class="st1" d="M36.4,32.7h8.1v2.8h-4.8v2h4.1v2.8h-4.1v2.2h5v2.8h-8.3V32.7z"/>
			<path class="st1" d="M46.5,32.7H50l1.3,5.5c0.3,1.3,0.6,2.6,0.9,4h0.1c0.3-1.3,0.6-2.6,0.9-4l1.3-5.5h3.4l-3.7,12.5h-4L46.5,32.7
				z"/>
			<path class="st1" d="M59.3,38.9c0-4.1,2.3-6.4,5.8-6.4s5.8,2.3,5.8,6.4c0,4.1-2.3,6.5-5.8,6.5S59.3,43,59.3,38.9z M67.5,38.9
				c0-2.3-0.9-3.6-2.4-3.6s-2.4,1.3-2.4,3.6c0,2.3,0.9,3.7,2.4,3.7S67.5,41.2,67.5,38.9z"/>
		</g>
	</g>
</g>
</svg>
