<?xml version="1.0" encoding="utf-8"?>
<!-- Generator: Adobe Illustrator 21.0.0, SVG Export Plug-In . SVG Version: 6.00 Build 0)  -->
<svg version="1.1" id="Capa_1" xmlns="http://www.w3.org/2000/svg" xmlns:xlink="http://www.w3.org/1999/xlink" x="0px" y="0px"
	 viewBox="0 0 79 72.1" style="enable-background:new 0 0 79 72.1;" xml:space="preserve">
<style type="text/css">
	.st0{fill:#5FA03C;}
	.st1{fill:#FFFFFF;}
	.st2{fill:#F2F2F2;}
	.st3{fill:#369443;}
	.st4{fill:#8EBB37;}
	.st5{fill:#222221;}
	.st6{fill:#94BB1E;}
	.st7{fill:none;stroke:#222221;stroke-width:2.346;stroke-linecap:round;stroke-linejoin:round;stroke-miterlimit:10;}
	.st8{fill:#D9802E;}
	.st9{fill:#F0C830;}
	.st10{opacity:0.68;clip-path:url(#SVGID_2_);}
	.st11{clip-path:url(#SVGID_4_);}
	.st12{clip-path:url(#SVGID_6_);fill:url(#SVGID_7_);}
	.st13{opacity:0.2;clip-path:url(#SVGID_2_);}
	.st14{clip-path:url(#SVGID_9_);}
	.st15{clip-path:url(#SVGID_11_);}
	.st16{filter:url(#Adobe_OpacityMaskFilter);}
	.st17{clip-path:url(#SVGID_13_);}
	.st18{enable-background:new    ;}
	.st19{clip-path:url(#SVGID_13_);fill:url(#SVGID_15_);}
	.st20{clip-path:url(#SVGID_13_);mask:url(#SVGID_14_);}
	.st21{clip-path:url(#SVGID_17_);}
	.st22{clip-path:url(#SVGID_19_);fill:url(#SVGID_20_);}
	.st23{opacity:0.68;clip-path:url(#SVGID_22_);}
	.st24{opacity:0.57;clip-path:url(#SVGID_22_);}
	.st25{clip-path:url(#SVGID_26_);}
	.st26{clip-path:url(#SVGID_28_);fill:#CED0D1;}
	.st27{clip-path:url(#SVGID_22_);fill:#4070B6;}
	.st28{clip-path:url(#SVGID_22_);fill:#DD902F;}
	.st29{fill:#C91862;}
	.st30{fill:none;stroke:#272425;stroke-width:7.564600e-02;stroke-miterlimit:10;}
	.st31{fill:#9CC34D;}
	.st32{fill:#B88844;}
	.st33{fill:#78B552;}
	.st34{fill:#589B52;}
	.st35{fill:#5CA257;}
	
		.st36{fill:none;stroke:#FFFFFF;stroke-width:2.3815;stroke-linecap:round;stroke-linejoin:round;stroke-miterlimit:10;stroke-dasharray:0,4.6879;}
	.st37{fill:none;stroke:#FFFFFF;stroke-width:2.3815;stroke-linecap:round;stroke-linejoin:round;stroke-miterlimit:10;}
	.st38{fill:#AFCB49;}
	.st39{fill:#CE4E80;}
	.st40{fill:#E35100;}
	.st41{fill:#4DAEA9;}
	.st42{fill:#B45696;}
	.st43{fill:#E1DF00;}
	.st44{fill:#76B452;}
	.st45{fill:#E4A612;}
	.st46{fill:#474747;}
	.st47{fill:#B2C633;}
	.st48{fill:#272425;}
	.st49{fill:#5D9E3B;}
	.st50{fill:#F3D33F;}
	.st51{fill:#526D59;}
	.st52{fill:#E2D1B1;}
	.st53{fill:#75398E;}
	.st54{fill:#EBB146;}
	.st55{fill:#F1F1F1;}
	.st56{fill:none;stroke:#5FA03C;stroke-width:1.2441;stroke-linecap:round;stroke-linejoin:round;stroke-miterlimit:10;}
	.st57{fill:none;stroke:#5FA03C;stroke-width:1.6816;stroke-linecap:round;stroke-linejoin:round;stroke-miterlimit:10;}
</style>
<g>
	<path class="st49" d="M4.2,61.2c10.9,4.7,22.6,7.3,34.8,7.3c12.2,0,24-2.6,34.9-7.3c0.6-0.4,0.9-0.7,0.9-0.7V3.7H4.2V61.2z"/>
	<g>
		<path class="st1" d="M63.9,45.4v-3c0.9,0,1.8-0.4,2.5-1c0.7-0.7,1.1-1.6,1.1-2.5c0-1.2-0.7-2.4-1.7-3c-0.6-0.4-1.2-0.5-1.9-0.5v-3
			c1.3,0,2.7,0.4,3.8,1.2c1,0.7,1.9,1.8,2.3,3c0.5,1.3,0.6,2.8,0.2,4.1c-0.4,1.5-1.4,2.9-2.8,3.7C66.4,45,65.1,45.4,63.9,45.4z"/>
		<path class="st1" d="M63.9,32.3v3c-0.2,0-0.3,0-0.5,0c-0.8,0.1-1.6,0.5-2.1,1.1c-0.8,0.9-1.2,2.2-0.8,3.4c0.4,1.3,1.6,2.4,3,2.6
			c0.1,0,0.3,0,0.4,0v3c-0.1,0-0.1,0-0.2,0c-1.7,0-3.3-0.8-4.5-2c-0.9-0.9-1.5-2-1.7-3.3c-0.3-1.5-0.1-3.2,0.7-4.5
			c1-1.8,3-3.1,5.1-3.3l0,0C63.5,32.3,63.7,32.3,63.9,32.3L63.9,32.3z"/>
		<path class="st1" d="M53.4,45.1v-3c0.4-0.3,0.5-0.8,0.4-1.3c-0.1-0.2-0.2-0.4-0.4-0.5v-3.4c0.2-0.3,0.2-0.6,0.1-0.9
			c0-0.1-0.1-0.1-0.1-0.2v-3.2c0.1,0,0.2,0,0.3,0.1c0.8,0.2,1.6,0.7,2.1,1.4c0.7,0.9,0.8,2.1,0.4,3.1c-0.2,0.5-0.7,0.9-1.1,1.2
			c0.7,0.5,1.3,1.1,1.5,1.9c0.3,0.9,0.3,2-0.1,2.8c-0.5,1-1.5,1.7-2.6,2C53.8,45.1,53.6,45.1,53.4,45.1z"/>
		<path class="st1" d="M53.4,32.6v3.2c-0.2-0.3-0.6-0.5-1-0.5c-0.2,0-0.4,0-0.6,0v-2.8C52.3,32.5,52.9,32.5,53.4,32.6L53.4,32.6z"/>
		<path class="st1" d="M53.4,36.9v3.4c-0.2-0.2-0.5-0.3-0.8-0.3c-0.2,0-0.5,0-0.7,0v-2.6c0.2,0,0.3,0,0.5,0c0.3,0,0.7-0.1,0.9-0.3
			C53.3,37,53.4,37,53.4,36.9L53.4,36.9z"/>
		<path class="st1" d="M53.4,42.1v3c-0.5,0.1-1.1,0-1.6,0v-2.8c0.3,0,0.6,0,0.8,0C52.9,42.4,53.2,42.3,53.4,42.1L53.4,42.1z"/>
		<path class="st1" d="M51.8,32.5v2.8c-0.6,0-1.1,0-1.7,0c0,0.7,0,1.4,0,2.1c0.6,0,1.1,0,1.7,0v2.6c-0.6,0-1.2,0-1.7,0
			c0,0.8,0,1.6,0,2.4c0.6,0,1.1,0,1.7,0v2.8l0,0c-1.1,0-2.2,0-3.2,0c-0.8,0-1.4-0.7-1.4-1.5c0-3,0-6,0-9c0-0.4,0-0.8,0.1-1.1l0,0
			c0.2-0.6,0.8-1,1.4-1c1,0,2,0,3,0C51.7,32.5,51.7,32.5,51.8,32.5L51.8,32.5z"/>
		<path class="st1" d="M41.2,35.4v-3c0.3,0,0.7,0,1,0.1c2,0.4,3.7,2.3,3.6,4.4c0,2.3,0,4.7,0,7c0,0.8-0.9,1.5-1.7,1.4
			c-0.7-0.1-1.3-0.8-1.3-1.5c0-2.1,0-4.3,0-6.4c0-0.3,0-0.6-0.1-0.9c-0.2-0.6-0.7-1-1.3-1.1C41.4,35.4,41.3,35.4,41.2,35.4
			L41.2,35.4z"/>
		<path class="st1" d="M41.2,32.4v3c-0.7,0.1-1.4,0.7-1.4,1.5c0,2.3,0,4.6,0,6.9c0,0.5-0.3,1-0.7,1.3V33
			C39.7,32.7,40.5,32.4,41.2,32.4L41.2,32.4z"/>
		<path class="st1" d="M39.1,33v12.1c-0.2,0.1-0.4,0.2-0.6,0.2c-0.8,0.1-1.6-0.6-1.6-1.4c0-2.3,0-4.7,0-7c0-0.8-0.7-1.4-1.4-1.5
			c-0.8-0.1-1.5,0.6-1.6,1.4c0,2.3,0,4.7,0,7c0,0.8-0.7,1.6-1.6,1.5c-0.8,0-1.4-0.7-1.4-1.4c0-2.3,0-4.7,0-7c0-1.2,0.5-2.4,1.4-3.2
			l0,0c1-1,2.4-1.4,3.7-1.2c0.9,0.1,1.7,0.5,2.4,1.1C38.6,33.4,38.8,33.2,39.1,33L39.1,33z"/>
		<path class="st1" d="M29,42.9V32.7c0.5,0.3,0.8,0.8,0.8,1.3c0,1.7,0,3.5,0,5.3c0,0.7,0,1.4-0.1,2.1C29.5,41.9,29.3,42.4,29,42.9
			L29,42.9z"/>
		<path class="st1" d="M29,32.7v10.2c-0.4,0.7-1.1,1.4-1.8,1.8c-1.1,0.6-2.4,0.8-3.6,0.6c-1.3-0.3-2.5-1-3.2-2.1
			c-0.6-0.9-0.9-1.9-0.9-3c0-2,0-4.1,0-6.1c0-0.6,0.4-1.3,1.1-1.4l0,0c0.9-0.3,1.9,0.4,1.9,1.4c0,2.2,0,4.3,0,6.5
			c0.1,1.1,1.1,2,2.2,2c1.1,0,2.2-0.9,2.2-2.1c0-2.1,0-4.3,0-6.4c0-0.8,0.7-1.4,1.5-1.4C28.5,32.5,28.8,32.6,29,32.7L29,32.7z"/>
		<path class="st1" d="M11.4,32.8L11.4,32.8c-0.7,0.4-0.8,1.4-0.4,2.1c0.3,0.4,0.8,0.7,1.3,0.7c1,0,2,0,3,0c0,1.6,0,3.2,0,4.9
			c0.1,1.1-0.9,2.2-2,2.1c-1,0-1.8-0.9-1.8-1.9c0-0.7-0.5-1.3-1.2-1.5c-0.6-0.2-1.3,0.2-1.6,0.7c-0.3,0.6-0.2,1.2-0.1,1.8
			c0.4,1.6,1.6,3,3.2,3.5c1.2,0.4,2.6,0.3,3.7-0.3c1.6-0.8,2.6-2.5,2.7-4.3c0-2.2,0-4.4,0-6.6c0-0.8-0.7-1.5-1.5-1.5
			c-1.3,0-2.5,0-3.8,0C12.5,32.5,11.9,32.4,11.4,32.8z"/>
	</g>
	<g>
		<path class="st50" d="M14.7,21.5c0.5,0.4,0.8,1,0.7,1.8c0,0.8-0.3,1.5-0.8,1.9c-0.5,0.5-1.2,0.7-2.1,0.7l-1.3,0l0,2l-1.8,0l0-7.1
			l3.1,0C13.5,20.8,14.2,21,14.7,21.5z M11.2,24.5l1.2,0c0.4,0,0.7-0.1,0.9-0.3s0.3-0.5,0.3-0.9c0-0.4-0.1-0.6-0.3-0.8
			c-0.2-0.2-0.5-0.3-0.9-0.3l-1.2,0L11.2,24.5z"/>
		<path class="st50" d="M19.8,26L19.8,26l-1.4,0l0,2l-1.8,0l0-7.1l3.2,0c0.9,0,1.7,0.2,2.2,0.7c0.5,0.4,0.8,1,0.8,1.8
			c0,0.5-0.1,1-0.3,1.4c-0.2,0.4-0.5,0.7-1,0.9l1.5,2.4l-2.1,0L19.8,26z M19.8,24.5c0.4,0,0.7-0.1,0.9-0.3c0.2-0.2,0.3-0.5,0.3-0.9
			c0-0.4-0.1-0.6-0.3-0.8c-0.2-0.2-0.5-0.3-0.9-0.3l-1.4,0l0,2.3L19.8,24.5z"/>
		<path class="st50" d="M29.6,21.3c0.6,0.3,1,0.8,1.4,1.3c0.3,0.6,0.5,1.2,0.5,1.8c0,0.7-0.2,1.3-0.5,1.9c-0.3,0.6-0.8,1-1.4,1.3
			s-1.2,0.5-2,0.5c-0.7,0-1.4-0.2-2-0.5c-0.6-0.3-1-0.8-1.4-1.3c-0.3-0.6-0.5-1.2-0.5-1.9c0-0.7,0.2-1.3,0.5-1.9s0.8-1,1.4-1.3
			c0.6-0.3,1.2-0.5,2-0.5C28.4,20.8,29,21,29.6,21.3z M26.6,22.6c-0.3,0.2-0.6,0.4-0.7,0.8c-0.2,0.3-0.3,0.7-0.3,1.1
			c0,0.4,0.1,0.8,0.3,1.1s0.4,0.6,0.7,0.8s0.6,0.3,1,0.3c0.4,0,0.7-0.1,1-0.3c0.3-0.2,0.5-0.4,0.7-0.8s0.3-0.7,0.3-1.1
			c0-0.4-0.1-0.8-0.3-1.1c-0.2-0.3-0.4-0.6-0.7-0.8c-0.3-0.2-0.6-0.3-1-0.3C27.3,22.3,27,22.4,26.6,22.6z"/>
		<path class="st50" d="M37.8,21.4c0.6,0.3,1,0.7,1.3,1.3c0.3,0.5,0.5,1.2,0.5,1.9c0,0.7-0.2,1.3-0.5,1.9c-0.3,0.5-0.8,1-1.4,1.3
			c-0.6,0.3-1.3,0.4-2,0.4l-3,0l0-7.1l3.1,0C36.5,20.9,37.2,21.1,37.8,21.4z M34.5,26.6l1.3,0c0.4,0,0.7-0.1,1-0.3
			c0.3-0.2,0.5-0.4,0.7-0.7c0.2-0.3,0.2-0.7,0.2-1.1s-0.1-0.8-0.2-1.1c-0.2-0.3-0.4-0.6-0.7-0.8c-0.3-0.2-0.6-0.3-1-0.3l-1.2,0
			L34.5,26.6z"/>
		<path class="st50" d="M46.8,26.7c-0.3,0.5-0.6,0.8-1.1,1.1c-0.5,0.2-1.1,0.4-1.7,0.4c-0.7,0-1.2-0.1-1.7-0.4
			c-0.5-0.3-0.9-0.6-1.1-1.1c-0.3-0.5-0.4-1-0.4-1.6l0-4.1l1.8,0l0,4.1c0,0.5,0.1,0.9,0.4,1.1c0.3,0.3,0.6,0.4,1.1,0.4
			c0.4,0,0.8-0.1,1-0.4c0.3-0.3,0.4-0.7,0.4-1.1l0-4.1l1.8,0l0,4.1C47.2,25.7,47.1,26.3,46.8,26.7z"/>
		<path class="st50" d="M53.7,21.3c0.5,0.2,0.9,0.5,1.3,0.9l-1.1,1.2c-0.2-0.3-0.5-0.5-0.8-0.7c-0.3-0.2-0.6-0.3-1-0.3
			c-0.4,0-0.7,0.1-1,0.3c-0.3,0.2-0.5,0.4-0.7,0.7c-0.2,0.3-0.3,0.7-0.3,1.1c0,0.4,0.1,0.8,0.3,1.1c0.2,0.3,0.4,0.6,0.7,0.8
			c0.3,0.2,0.6,0.3,1,0.3c0.3,0,0.6-0.1,0.9-0.2c0.3-0.1,0.6-0.4,0.9-0.6l1.1,1.1c-0.4,0.4-0.8,0.7-1.4,0.9
			c-0.5,0.2-1.1,0.4-1.6,0.3c-0.7,0-1.3-0.2-1.9-0.5c-0.6-0.3-1-0.8-1.3-1.3c-0.3-0.6-0.5-1.2-0.5-1.9c0-0.7,0.2-1.3,0.5-1.8
			c0.3-0.5,0.8-1,1.4-1.3s1.2-0.5,1.9-0.5C52.7,20.9,53.2,21,53.7,21.3z"/>
		<path class="st50" d="M59.4,22.5l0,5.7l-1.8,0l0-5.7l-2.1,0l0-1.5l6.1,0l0,1.5L59.4,22.5z"/>
		<path class="st50" d="M67.6,21.5c0.6,0.3,1,0.8,1.4,1.3c0.3,0.6,0.5,1.2,0.5,1.8c0,0.7-0.2,1.3-0.5,1.9c-0.3,0.6-0.8,1-1.4,1.3
			s-1.2,0.5-2,0.5c-0.7,0-1.4-0.2-2-0.5c-0.6-0.3-1-0.8-1.4-1.3c-0.3-0.6-0.5-1.2-0.5-1.9c0-0.7,0.2-1.3,0.5-1.9
			c0.3-0.5,0.8-1,1.4-1.3c0.6-0.3,1.2-0.5,2-0.5C66.3,21,67,21.2,67.6,21.5z M64.6,22.8c-0.3,0.2-0.6,0.4-0.7,0.8s-0.3,0.7-0.3,1.1
			c0,0.4,0.1,0.8,0.3,1.1c0.2,0.3,0.4,0.6,0.7,0.8s0.6,0.3,1,0.3c0.4,0,0.7-0.1,1-0.3c0.3-0.2,0.5-0.4,0.7-0.8
			c0.2-0.3,0.3-0.7,0.3-1.1c0-0.4-0.1-0.8-0.3-1.1s-0.4-0.6-0.7-0.8c-0.3-0.2-0.6-0.3-1-0.3C65.2,22.5,64.9,22.6,64.6,22.8z"/>
	</g>
</g>
</svg>
