<?xml version="1.0" encoding="utf-8"?>
<!-- Generator: Adobe Illustrator 21.0.0, SVG Export Plug-In . SVG Version: 6.00 Build 0)  -->
<svg version="1.1" id="Capa_1" xmlns="http://www.w3.org/2000/svg" xmlns:xlink="http://www.w3.org/1999/xlink" x="0px" y="0px"
	 viewBox="0 0 79 72.1" style="enable-background:new 0 0 79 72.1;" xml:space="preserve">
<style type="text/css">
	.st0{fill:#5FA03C;}
	.st1{fill:#FFFFFF;}
	.st2{fill:#F2F2F2;}
	.st3{fill:#369443;}
	.st4{fill:#8EBB37;}
	.st5{fill:#222221;}
	.st6{fill:#94BB1E;}
	.st7{fill:none;stroke:#222221;stroke-width:2.346;stroke-linecap:round;stroke-linejoin:round;stroke-miterlimit:10;}
	.st8{fill:#D9802E;}
	.st9{fill:#F0C830;}
	.st10{opacity:0.68;clip-path:url(#SVGID_2_);}
	.st11{clip-path:url(#SVGID_4_);}
	.st12{clip-path:url(#SVGID_6_);fill:url(#SVGID_7_);}
	.st13{opacity:0.2;clip-path:url(#SVGID_2_);}
	.st14{clip-path:url(#SVGID_9_);}
	.st15{clip-path:url(#SVGID_11_);}
	.st16{filter:url(#Adobe_OpacityMaskFilter);}
	.st17{clip-path:url(#SVGID_13_);}
	.st18{enable-background:new    ;}
	.st19{clip-path:url(#SVGID_13_);fill:url(#SVGID_15_);}
	.st20{clip-path:url(#SVGID_13_);mask:url(#SVGID_14_);}
	.st21{clip-path:url(#SVGID_17_);}
	.st22{clip-path:url(#SVGID_19_);fill:url(#SVGID_20_);}
	.st23{opacity:0.68;clip-path:url(#SVGID_22_);}
	.st24{opacity:0.57;clip-path:url(#SVGID_22_);}
	.st25{clip-path:url(#SVGID_26_);}
	.st26{clip-path:url(#SVGID_28_);fill:#CED0D1;}
	.st27{clip-path:url(#SVGID_22_);fill:#4070B6;}
	.st28{clip-path:url(#SVGID_22_);fill:#DD902F;}
	.st29{fill:#C91862;}
	.st30{fill:none;stroke:#272425;stroke-width:7.564600e-02;stroke-miterlimit:10;}
	.st31{fill:#9CC34D;}
	.st32{fill:#B88844;}
	.st33{fill:#78B552;}
	.st34{fill:#589B52;}
	.st35{fill:#5CA257;}
	
		.st36{fill:none;stroke:#FFFFFF;stroke-width:2.3815;stroke-linecap:round;stroke-linejoin:round;stroke-miterlimit:10;stroke-dasharray:0,4.6879;}
	.st37{fill:none;stroke:#FFFFFF;stroke-width:2.3815;stroke-linecap:round;stroke-linejoin:round;stroke-miterlimit:10;}
	.st38{fill:#AFCB49;}
	.st39{fill:#CE4E80;}
	.st40{fill:#E35100;}
	.st41{fill:#4DAEA9;}
	.st42{fill:#B45696;}
	.st43{fill:#E1DF00;}
	.st44{fill:#76B452;}
	.st45{fill:#E4A612;}
	.st46{fill:#474747;}
	.st47{fill:#B2C633;}
	.st48{fill:#272425;}
	.st49{fill:#5D9E3B;}
	.st50{fill:#F3D33F;}
	.st51{fill:#526D59;}
	.st52{fill:#E2D1B1;}
	.st53{fill:#75398E;}
	.st54{fill:#EBB146;}
	.st55{fill:#F1F1F1;}
	.st56{fill:none;stroke:#5FA03C;stroke-width:1.2441;stroke-linecap:round;stroke-linejoin:round;stroke-miterlimit:10;}
	.st57{fill:none;stroke:#5FA03C;stroke-width:1.6816;stroke-linecap:round;stroke-linejoin:round;stroke-miterlimit:10;}
</style>
<g>
	<g>
		<path class="st1" d="M72.6,36.1c0,18.4-14.9,33.4-33.4,33.4c-18.4,0-33.4-14.9-33.4-33.4c0-18.4,14.9-33.4,33.4-33.4
			C57.7,2.7,72.6,17.6,72.6,36.1"/>
	</g>
	<polygon class="st1" points="65.9,20.8 65.9,20.7 65.9,20.7 	"/>
	<g>
		<path class="st31" d="M45.8,64.3c-0.2,0.1-0.3,0.2-0.5,0.2C45.6,64.5,45.8,64.5,45.8,64.3"/>
		<path class="st31" d="M40,65c-0.1,0-0.2,0-0.3,0c0,0,0,0,0,0H40z"/>
		<path class="st31" d="M49.5,63.6c0.2-0.1,0.4-0.2,0.6-0.3C49.9,63.3,49.7,63.4,49.5,63.6"/>
		<path class="st31" d="M49.5,63.6c-0.2,0.1-0.3,0.1-0.5,0.2C49.2,63.8,49.4,63.7,49.5,63.6"/>
		<path class="st31" d="M47.9,64.1c-0.1,0-0.2,0.1-0.3,0.1C47.7,64.2,47.8,64.2,47.9,64.1"/>
		<path class="st31" d="M23.2,12.2c-0.1,0.1-0.3,0.2-0.4,0.4C23,12.5,23.1,12.4,23.2,12.2"/>
		<path class="st42" d="M48.6,65.3c-0.1,0-0.2,0.1-0.3,0.1c0.1-0.1,0.2-0.2,0.3-0.4L48.6,65.3c0.5-0.3,0.7-0.5,1.3-0.5
			C49.5,65,49.1,65.1,48.6,65.3 M42.4,6l0-0.2c0.1,0.1,0.1,0.1,0.4,0.1L42.4,6z M40.2,5.9c-1,0,0.1-0.1,0.2-0.1
			C41.1,5.9,40.3,5.9,40.2,5.9 M21.2,59.7c0.2,0.2,0.5,0.4,0.7,0.5C21.9,60.4,21.7,60.1,21.2,59.7 M20.5,13.2
			c-0.3,0.2-0.3,1-0.8,0.7c-0.3-0.3,0.2-0.5,0.5-0.8c0,0-0.2,0.3-0.1,0.3C19.9,13.5,20.6,13.1,20.5,13.2 M19.8,58.6
			c0.3,0.2,0.6,0.4,0.9,0.6C20.2,59.1,20,58.9,19.8,58.6 M17,55.6C17,55.6,17,55.6,17,55.6C17,55.5,17,55.6,17,55.6 M12.6,50.8
			c0,0.1,0.1,0.1,0.2,0.2C12.7,50.9,12.6,50.8,12.6,50.8 M11.3,48.6c0.1,0.1,0.2,0.2,0.2,0.3C11.4,48.8,11.3,48.7,11.3,48.6
			 M9.9,29.7c-0.1,0.5-0.2,0.9-0.4,1.3C9.5,30.6,9.7,30.2,9.9,29.7 M65.2,19.4c0,0-0.1-0.1-0.1-0.1c-0.5-0.7-1.3-1.2-1.9-1.7
			c-0.7-0.6-1.5-1.2-2.2-1.8c-1.1-0.9-2.1-1.8-3.1-2.7c-0.9-0.9-1.6-2.1-2.6-2.8c0,0,0,0,0,0c0,0,0,0-0.1,0c0,0-0.1,0-0.1-0.1
			c-0.3-0.2-0.7-0.4-1-0.6c-0.2-0.1-0.3-0.1-0.3-0.1c-0.2-0.1,0.1,0,0.1-0.1c0,0,0,0,0,0l-0.7-0.3c0,0,0,0,0-0.1
			c-0.4-0.2-0.9-0.4-1.3-0.6c0,0,0,0,0,0c-0.5-0.2-1-0.4-1.5-0.7c0,0,0.1,0,0.1,0C50.6,7.9,50.7,8,50.7,8l0.2,0.1
			c0,0-0.2-0.1-0.3-0.2c-0.1,0-0.2-0.1-0.2-0.1c0,0,0,0,0,0c-0.8-0.3-1.6-0.6-2.4-0.9c-0.1,0-0.4-0.1-0.6-0.1
			c-0.8-0.3-1.9-0.6-3-0.8c-0.8-0.2-1.6-0.3-2-0.3c-1.4-0.2-2.9-0.2-4.3-0.2c-0.2,0.1-0.4,0.2-0.3,0.2c0.6-0.1,1.8-0.2,2-0.1
			c-0.2,0-0.3,0-0.5,0c-0.2,0-0.4,0-0.5,0.1c-0.3,0-0.6,0.1-0.6,0.1c-0.6-0.2,1.1-0.1,0.3-0.2c-0.4,0-0.6,0.1-0.8,0.1
			c0.3-0.1-0.4-0.1-0.5-0.1c-1.4,0.1-2.1,0.1-3.6,0.4c0.1,0,0.1,0,0,0c0,0,0,0,0,0c0,0,0,0-0.1,0c-0.3,0.1-0.6,0.1-0.8,0.2
			c-0.1,0.1-0.2,0.1-0.3,0.2c-0.3,0.2-0.4,0.3-0.3,0.3C31.5,7,31.3,7,31.1,7c-0.1,0-0.2,0-0.3,0.1c-0.1,0-0.2,0.1-0.4,0.2
			c1.1-0.2-0.2,0.1-0.3,0.3c-0.7,0.3-0.3,0-0.6,0.1c-0.1,0.1-0.3,0.2-0.3,0.3c0.1,0,0.2,0,0.4-0.1c-0.3,0.1-0.4,0.1-0.4,0.1
			c-0.2,0-0.1-0.1,0.1-0.3c0.1-0.1,0.2-0.2,0.2-0.3c-0.3,0.1-0.7,0.3-1,0.4l0,0.1l-0.2,0.1l0-0.1c-0.3,0.2-0.7,0.3-1,0.5
			c0.1,0.2,0.4,0.4,0.7,0.3c0,0.1-0.7,0.2-0.9,0.3c-0.4,0.1-0.7,0.3-1,0.5c-0.1,0.1-0.3,0.2-0.4,0.3c-0.1,0.1-0.3,0.2-0.4,0.3
			l0.4-0.4c-0.1,0-1,0.7-1.2,0.8c-0.1,0,0.1-0.3,0.1-0.3c-0.8,0-1.1,0.7-1.6,1.2c0.4-0.3,0.7-0.6,1.1-0.9c-0.5,1.1-1.7,1.3-2.5,2.1
			c0.2-0.3,0.2-0.3,0.5-0.5c-0.3,0-0.5,0.3-0.8,0.5c0-1,1.2-0.8,1.2-1.6c-1.5,1.3-3,2.1-4.2,3.5c0.1,0,0.3,0,0.4-0.1
			c-0.6,0.8-1.9,0.7-2.1,1.6l0-0.3c-0.7,1.3-2,2.4-2.5,3.7c-0.3-0.8,1.2-1.1,0.5-1.8c-1,2.1-2.2,4.2-3,6.3l0-0.3
			c-0.5,0.7-0.7,1.6-0.8,2.4c0,0,0,0,0.1,0c0,0.1-0.1,0.1-0.1,0.2c0,0.3-0.1,0.6-0.2,0.8c0-0.1,0-0.2-0.1-0.3
			c-0.3,0.8-0.5,1.5-0.7,2.3c0-0.3,0-0.6-0.3-0.9c0,1.6-0.5,2.9-0.4,4.6c0,0.1-0.1,0.3-0.1,0.5c0.1,0.9-0.9,1.7-0.4,2.5
			c0,0,0.1,0.1,0.1,0.1c-0.7,4.2,0.1,8.6,2.1,12.2l-0.2,0c0.5,0.8,0.8,1.6,1.5,2.1c-0.3-0.3-0.3-0.8-0.5-1c0.7,0.4,0.6,1.1,0.8,1.6
			c-0.1-0.2-0.2-0.4-0.3-0.5c0,0.9,0.9,1.2,1.3,1.9c0.1,0.1,0.1,0.1,0.2,0.2h-0.1c0,0.1,0.1,0.2,0.1,0.3c-0.1-0.1-0.1-0.2-0.2-0.3
			l-0.1,0c1.8,1.8,3.3,3.9,5.2,5.5c0.3,0.3,0.7,0.6,1,0.9c0.1,0.1,0.2,0.2,0.4,0.4c-0.3-0.3-0.5-0.3-0.8-0.5c1,1,2,1.8,3.3,2.6
			l-0.3-0.3c2.8,1.8,6.1,3.1,9.4,4.1c-0.3,0-0.5,0-0.8,0c0.3,0.3,0.8,0.3,1,0.2l-0.3,0c0.3,0,0.5,0.3,0.8,0.3c0.2,0,0.4,0.1,0.5,0.1
			c0.1,0,0.2,0,0.2,0c-0.1,0-0.3-0.1-0.4-0.1c0.2,0.1,0.5,0.1,0.8,0.2c0.3,0.1,0.7,0.2,0.9,0.3c-0.1,0-0.2,0-0.3,0
			c-0.4-0.2-0.7-0.2-1-0.2c1,0.3,0.3,0.1,0.7,0.3c0.4,0.1,0.6,0.1,0.8,0.1c0.2,0,0.2-0.1,0.1-0.1c0.4,0.1,0.7,0.2,1,0.2
			c0.3,0,0.6,0.1,1,0.1l-0.2,0.1c0,0,0.2,0,0.4,0c0.1,0,0.2,0,0.3,0c0.1,0,0.1,0,0.1,0s-0.2,0-0.3,0c-0.2,0-0.3,0-0.3,0
			c0.4,0.1,0.6,0.1,0.7,0.1c0.1,0,0.2,0,0.2-0.1c0.1-0.1,0.2-0.1,1,0c0.4,0,0.8,0,1.2,0c0.8-0.5,1.3,0.2,2,0
			c-0.2-0.2-0.4-0.2-0.6-0.3c1.2,0,2.1,0.2,3.3,0c-0.5-0.5-0.8,0-1.3,0c0.7-0.5,1.8,0,2.5-0.6c0,0,0,0.1,0,0.1
			c0.1,0,0.2-0.1,0.3-0.1l0,0.3c0.3-0.7,1-0.5,1.5-0.6c-0.2,0.1-0.4,0.2-0.5,0.3c0.5-0.3,0.8-0.3,1.3-0.3c-0.1,0-0.3,0.1-0.4,0.2
			c0.3-0.1,0.7-0.2,1.1-0.4c0,0-0.1,0-0.1,0c0.7-0.5,1.5-1.1,2.5-1.3l-0.2,0.3c0.9-0.9,2.2-0.9,3-1.6c0.8-0.3,1.5-0.9,2.1-1.7
			c0.1,0.1,0.3,0.1,0.2,0.3c0.7-1.1,2-1.9,3-2.9v0.3c0.2-0.3,0.8-0.8,1-1.1l-0.2,0c0.8-0.3,1.2-1.1,1.8-1.6c0.5-0.6,1-1.2,1.4-1.9
			c0.9-1.4,1.6-2.8,2.5-4.1c-0.2,0.3-0.2,0.3-0.5,0.5c0.4-0.4,0.5-1,0.7-1.5c0,0,0,0.1,0,0.1c1-1.6,1.5-3.4,2-5.3l-0.2,0.3
			c0.2-0.5,0.2-1.1,0.5-1.5c0.1-0.4,0.2-0.8,0.3-1.2c0.1-0.4,0.2-0.8,0.3-1.2c0-0.2,0.1-0.4,0.1-0.7c0-0.2,0.1-0.5,0.1-0.7l0,0.1
			c0.1-0.6,0.1-1.1,0.1-1.6l0,0.3c0.3-1.5,0.3-3.1,0.3-4.7c-0.2-3.3-1-6.6-2.5-9.6C66.7,22,66,20.6,65.2,19.4"/>
		<path class="st31" d="M13.2,50.8c-0.1-0.1-0.1-0.1-0.3-0.3c0.2,0.2,0.2,0.3,0.3,0.5h0.1C13.3,50.9,13.3,50.9,13.2,50.8"/>
		<path class="st31" d="M10.9,26.1c-0.3,0.2-0.3,0.4-0.2,0.6c0.1-0.2,0.1-0.3,0.2-0.5C10.8,26.2,10.9,26.2,10.9,26.1"/>
		<path class="st3" d="M7.5,29.9l0,0.1c-0.1,0.5-0.3,1-0.4,1.2c0.1-0.1,0.2-0.3,0.4-0.6c0-0.1,0-0.2,0.1-0.6c0.1-0.3,0,0,0.1,0
			C7.6,29.8,7.7,29.3,7.5,29.9 M7.9,27.9C7.9,27.9,7.9,27.9,7.9,27.9C7.9,27.9,7.9,27.9,7.9,27.9L7.9,27.9z M19.7,10.9
			c-0.2,0.1-0.3,0.2-0.4,0.2C19.3,11.2,19.4,11.1,19.7,10.9 M34.3,4.1c0.1,0,0.1,0,0.1,0C34.4,4.1,34.3,4.1,34.3,4.1 M32.2,4.5
			c0,0-0.1,0-0.1,0C32.1,4.6,32.1,4.5,32.2,4.5 M58,9C58,9,58,9,58,9C57.6,8.8,57.8,8.9,58,9 M7,38.6L7,38.6c0,0.5,0.1,0.8,0,0.3
			C7,38.8,7,38.7,7,38.6 M7.1,31.2C7.1,31.2,7.1,31.2,7.1,31.2C7.1,31.3,7.1,31.2,7.1,31.2 M70.8,28.3L70.8,28.3
			C70.7,28.2,70.7,28.2,70.8,28.3L70.8,28.3z M70.7,28.2l-0.2-0.4C70.7,28.5,70.7,28.2,70.7,28.2 M7.6,28.7c0,0.2,0.1,0.4,0.1,0.4
			c0-0.5,0.1-0.8,0.2-1.2l-0.4,0.3C7.5,28.3,7.6,28.5,7.6,28.7 M70.4,43.4c0-0.1,0-0.1,0-0.1C70.4,43.3,70.4,43.4,70.4,43.4
			 M70.6,42.3l0.1-0.4C70.7,42.1,70.7,42.2,70.6,42.3 M8.4,46.7c0-0.2-0.1-0.4-0.2-0.7L8.4,46.7z M6.8,34c0,0,0,0.1,0,0.2
			c0,0.1,0,0.3,0,0.4c0,0.3,0,0.6,0,0.6l0.1-0.6l-0.1,0C6.9,33.9,6.8,34.1,6.8,34 M7.6,29.1c0-0.3-0.2,0.2-0.1-0.5
			C7.4,29.1,7.3,30,7.6,29.1 M20.6,62.2L20.6,62.2C20.7,62.3,20.7,62.3,20.6,62.2 M22.6,63.4c0.2,0.1,0.3,0.2,0.4,0.3
			C23,63.6,22.9,63.6,22.6,63.4 M41,68.2c0.1,0,0.2,0,0.2,0C41.1,68.2,41,68.2,41,68.2 M35.8,68l0.4-0.1
			C35.6,67.8,35.9,67.9,35.8,68 M35.7,68L35.7,68C35.8,68,35.8,68,35.7,68L35.7,68z M70,44.8L70,44.8C70,44.8,70,44.7,70,44.8
			 M30.1,5.3C30,5.3,28.9,5.8,30,5.4C30,5.4,30.9,5.1,30.1,5.3 M7.6,30C7.6,30.1,7.6,30.1,7.6,30C7.6,30,7.6,30,7.6,30 M47.6,4.4
			c0.1,0,0.2,0.1,0.3,0.1l0-0.1C47.4,4.3,47.1,4.3,47.6,4.4 M30.6,66.6c-0.2-0.1-0.5-0.1-0.7-0.2C30.3,66.6,30.6,66.8,30.6,66.6
			 M40.5,3.5l0.8,0.1l-0.2,0L40.5,3.5z M6.9,40.3c0,0,0,0.1,0,0.1c0,0.1,0,0.2,0.1,0.3c0-0.1,0-0.1,0-0.2
			C6.9,40.4,6.9,40.3,6.9,40.3 M71.4,37.1c0-0.4,0-0.7,0-1c0,0,0,0.2-0.1,0.4c0,0.1,0,0.2-0.1,0.3c0,0.1,0,0.1,0,0.1
			c-0.1-1,0-1.8-0.2-1c0.1,0,0.1,0.3,0.1,0.6c0,0.3,0,0.7-0.1,1.1c0,0.2,0,0.4,0,0.6c0,0.2,0,0.4,0,0.5c0,0.3,0,0.5,0.1,0.6
			c0,0,0,0,0,0c0,0,0,0,0,0l0,0c0,0,0,0,0,0c0,0,0,0,0,0c0,0,0,0.1,0,0.2c0,0,0,0.1,0,0.1c0,0.1-0.1,0.3-0.1,0.3c0-0.2,0-0.2,0-0.3
			c-0.1,0.5-0.1,0.7-0.1,1c0,0,0,0,0,0.1c0,0,0,0.1,0,0.1c-0.1,0.4-0.1,0.7-0.1,0.9L71,41v0c-0.1,0.4-0.1,0.8-0.2,1.2
			c-0.1,0.3-0.2,0.4-0.1,0.1c0,0,0,0.3-0.1,0.5c0,0.3-0.1,0.5-0.1,0.5c-0.1,0.3-0.1,0.2-0.1,0c0,0.2-0.1,0.4-0.2,0.7
			c-0.1,0.2-0.1,0.4-0.1,0.6c0,0.2-0.1,0.2-0.1,0.2l0,0c0,0.1,0,0.3-0.1,0.5c0,0.1-0.1,0.3-0.1,0.4c0,0,0,0,0,0c0,0,0,0,0,0.1
			c-0.1,0.3-0.2,0.6-0.3,0.9c0-0.1,0.1-0.6,0.3-1.1c-0.6,0.7-0.2,0.8-1,2.4c0,0,0-0.1,0-0.1c0-0.1,0.1-0.2,0.1-0.3
			c0.1-0.2,0.1-0.4,0.1-0.4c-0.4,0.5-0.6,1.1-1.1,1.9c0.1-0.2,1-1.7,0.7-0.7c-0.1,0.2-0.3,0.6-0.5,1.1c-0.1,0-0.3,0.4-0.6,1
			l-0.1-0.1c-0.3,0.7-0.2,0.6-0.3,1c-0.4,0.7-0.6,0.8-0.8,0.9c-0.7,1.1,0.6-0.6-0.1,0.6c-0.6,0.9-1,1.5-1.6,2.6
			c-0.5,0.6,0-0.2-0.2,0l-0.3,0.6c-0.1,0.1-0.1,0.1-0.1,0c-0.1,0.2-0.1,0.3-0.1,0.3c-0.2,0.2-0.4,0.5-0.5,0.7
			c-0.3,0.5-0.7,0.9-1.1,1.1c-0.1,0.1-0.1,0.2-0.1,0.2c-0.2,0.2-0.4,0.4-0.5,0.6c-0.2,0.2,0-0.2-0.1-0.1c-0.3,0.4-0.4,0.6-0.6,0.7
			c-0.2,0.2-0.4,0.4-0.7,0.6c0.1-0.1,0.1-0.1,0.2-0.2c-0.5,0.4-0.8,0.9-1.4,1.2c-0.2,0.4-0.7,0.6-0.7,0.8c0,0,0.1-0.1,0.2-0.1
			c0,0,0.1-0.1,0.1-0.1c0.1,0,0.1,0,0.1,0c0.1-0.1,0-0.1-0.1,0c0.1-0.1,0.2-0.2,0.3-0.2c0,0,0,0,0,0c0.1-0.1,0.2-0.1,0.2-0.1
			c-0.1,0.1-0.3,0.3-0.4,0.4c0,0,0,0,0,0c-0.1,0.1-0.2,0.2-0.3,0.3c0.1-0.1,0.1-0.1,0-0.1c0,0-0.1,0.1-0.3,0.3l-0.2,0c0,0,0,0,0,0
			l-0.1,0l0,0.1c0,0-0.1,0.1-0.2,0.2c-0.1,0.1-0.3,0.2-0.5,0.3c0,0-0.1,0-0.1,0.1c0.4-0.3,1.4-1,1.9-1.6c-0.4,0.2-1.2,1.1-1,0.7
			c-0.3,0.6-1.3,0.9-2.1,1.7v-0.1c-0.1,0.1-0.4,0.3-0.7,0.5l0.4-0.4c-0.3,0.3-0.7,0.5-1.1,0.7c-0.4,0.2-0.8,0.3-1.1,0.6
			c1.4-0.8,0.6-0.2,1-0.3c-0.1,0.1-0.2,0.1-0.3,0.2c-0.1,0.1-0.2,0.1-0.3,0.2c-0.4,0.2-0.6,0.3-0.8,0.3c-0.2,0-0.4,0.1-0.6,0.2
			c-0.2,0.1-0.6,0.2-1,0.4c0.1-0.1,0.3-0.1,0.5-0.2c0.2-0.1,0.3-0.1,0.1,0.1c-0.4,0.2-1,0.3-1.3,0.4c-1.5,0.6,0.3,0-0.3,0.3
			c-0.6,0-0.7,0.3-1.4,0.6l0-0.1c-0.9,0.2-1,0.3-1.1,0.4c0,0,0,0,0,0c-0.2,0.1-0.4,0.1-0.7,0.2c0,0,0,0,0,0c0.2-0.1,0.3-0.2,0.3-0.2
			s-0.2,0.1-0.4,0.1c-0.2,0.1-0.4,0.1-0.4,0.1l0.1-0.2c-0.4,0.1-0.7,0.2-1,0.3c-0.3,0.1-0.6,0.1-1,0.1c0.2,0,0,0.2-0.6,0.3
			c0.1-0.1,0.1-0.1,0.1-0.2c0,0-0.2,0.1-0.4,0.2c0,0-0.1,0-0.1,0c-0.4,0,0.2-0.1-0.6,0c0,0,0.1-0.1,0.1-0.1c0,0,0,0,0,0
			c0.2,0,0.4-0.1,0.7,0c0,0,0.2-0.1,0.3-0.2c-0.6,0-1.5,0.1-1.9,0.2c0.2,0,0.3,0,0.4,0c0,0-0.1,0-0.2,0.1c-0.2,0-0.4,0.1-0.6,0.1
			c0,0-0.1,0-0.1,0c-0.1,0-0.2,0-0.3,0c-0.1,0-0.2,0-0.4,0c0,0,0.1,0,0.2,0c-0.3,0-0.6,0.1-1,0.1c0.1-0.1,0.1-0.2,0.6-0.2
			c0,0,0,0,0,0c-0.1,0-0.3,0-0.5,0c-0.4,0-0.8,0.1-0.8,0.1c-0.1,0-0.8-0.1-0.6-0.2c-0.4-0.1-1,0-1.5,0c-0.3,0-0.6,0-0.9,0
			c-0.1,0-0.3,0-0.4,0c-0.1,0-0.3,0-0.4-0.1c-0.1,0-0.2,0-0.4,0c-0.2,0-0.4-0.1-0.7-0.1c0,0,0,0-0.1-0.1c-0.4-0.1-0.5-0.1-0.6-0.1
			c-0.1,0-0.2,0-0.2-0.1c-0.3-0.1-0.5-0.1-0.8-0.2c-0.3-0.1-0.6-0.1-0.9-0.2l-0.4-0.2c0.1,0,0.1,0,0.2,0c0,0-0.1,0-0.2-0.1L31.4,67
			c-0.2-0.1-0.3-0.1-0.3,0c-0.1,0-0.2-0.1-0.3-0.1c-0.5-0.2-1-0.3-1-0.3c0,0.2-1.3-0.3-1.5-0.2c-0.1,0-0.2-0.1-0.3-0.1
			c0.1,0,0.1,0,0.1,0c-0.1,0-0.3-0.1-0.5-0.1c-0.1-0.1-0.2-0.1-0.3-0.2c0.3,0.1,0.6,0.2,0.9,0.3l-0.7-0.4c1,0.2,1.6,0.5,1,0.1
			c-0.1,0.1-0.9-0.1-1.6-0.4c-0.7-0.3-1.4-0.6-1.6-0.5c0,0-0.1,0-0.1-0.1c-0.1,0-0.2-0.1-0.3-0.2c0.1,0,0.1,0,0.2,0.1
			c-0.2-0.1-0.3-0.2-0.4-0.2c-0.2-0.2-0.4-0.3-0.4-0.3c0,0.1,0.1,0.1,0.1,0.2c-0.1,0-0.1,0-0.2,0c-0.2,0-0.5-0.1-1.1-0.5
			c-0.1-0.1-0.2-0.1-0.2-0.2c0.1,0,0.1,0,0-0.1l0.2,0.1c-0.1,0-0.1-0.1-0.2-0.1c0,0,0,0,0,0c0,0,0,0,0,0c-0.1,0-0.1,0-0.1-0.1
			l0.1,0.1c0,0-0.1,0-0.2-0.1c-0.1-0.1,0-0.1,0.1,0c0,0-0.2-0.1-0.4-0.2c0,0,0.1-0.1-0.4-0.3c-0.1,0-0.2,0-0.3-0.1
			c0,0-0.1,0-0.1-0.1c-0.2-0.1-0.4-0.3-0.3-0.2c0,0-0.1,0-0.1,0c-0.2-0.1-0.3-0.2-0.5-0.3c-0.1-0.1-0.2-0.1-0.2-0.1l0,0h0
			c0,0,0,0,0,0c-0.1-0.1-0.2-0.1-0.3-0.2c0,0,0,0.1,0,0.1c-0.2-0.1-0.5-0.2-0.6-0.3c-0.3-0.3,0.2,0.1,0.1,0c0,0-0.2-0.1-0.4-0.2
			c-0.2-0.1-0.4-0.2-0.4-0.2c-0.2-0.3,0.4,0.1,0.9,0.5c-0.3-0.4-0.4-0.5-0.7-0.6c-0.1-0.1-0.3-0.2-0.5-0.3c-0.2-0.2-0.5-0.4-0.8-0.7
			c0,0,0.2,0.1,0.3,0.3c0.2,0.1,0.3,0.3,0.3,0.3c-0.2-0.2-0.4-0.5-0.6-0.7c-0.3-0.3-0.6-0.5-0.9-0.9c0.1,0.2,1.3,1.5,0.5,0.9
			c-0.2-0.2-0.5-0.4-0.9-0.8c0.1-0.1-0.3-0.4-0.8-0.9l0.1-0.1c-0.5-0.5-0.5-0.4-0.9-0.6c-0.1-0.2-0.2-0.3-0.3-0.4
			c0,0,0.1,0.1,0.2,0.2c0.2,0.2,0.4,0.4,0.2,0.1c0,0-0.3-0.2-0.5-0.4c0,0,0,0,0,0c-0.1-0.2-0.1-0.3-0.2-0.5c-0.8-1,0.4,0.8-0.6-0.3
			c-0.2-0.2-0.3-0.4-0.5-0.6c-0.1-0.2-0.3-0.4-0.4-0.5c-0.3-0.4-0.6-0.7-1-1.2c-0.3-0.5,0-0.2,0-0.1c0,0,0,0.1,0,0.2l0.1-0.1
			l-0.3-0.3c0,0.1,0.1,0.1,0.1,0.1l-0.4-0.4c-0.1-0.1,0-0.1,0-0.1c-0.1-0.2-0.2-0.2-0.2-0.2c-0.1-0.2-0.3-0.5-0.4-0.7
			c-0.3-0.5-0.6-1-0.8-1.5c-0.1-0.3-0.2-0.5-0.3-0.7c0,0,0,0,0,0c0,0,0,0,0-0.1c-0.1-0.2-0.2-0.4-0.3-0.6c-0.2-0.3-0.4-0.8-0.4-0.5
			l0.1,0.2c-0.2-0.4-0.3-0.5-0.7-1.2c0,0-0.1-0.2-0.1-0.4c0,0,0,0,0,0s0,0,0,0c0,0,0,0,0-0.1c0-0.1-0.1-0.2-0.1-0.3
			c0-0.1,0-0.2,0-0.2c0,0.2,0,0.3,0,0.3c-0.1-0.2-0.1-0.5-0.2-0.8c0,0,0,0,0-0.2c0,0.1,0,0.1,0,0.1c-0.1-0.3-0.1-0.6-0.2-0.8l0-0.2
			L7.9,45c0,0-0.1-0.4-0.2-0.9c-0.1-0.2-0.1-0.4-0.1-0.6c0-0.2,0-0.3,0-0.3c-0.1-0.3-0.2-0.6-0.3-0.9c-0.1-0.3-0.2-0.6-0.3-0.9
			c0-0.2,0-0.6,0-0.9c0-0.1,0-0.1,0-0.2c0,0.2,0.1,0.3,0.1,0.5c0,0.1,0.1,0.3,0.1,0.5c0,0.1,0,0.2,0,0.3c0-0.2,0.1,0.1,0.2,0.4
			c0.1,0.3,0.2,0.7,0.3,0.6c0,0-0.1-0.2-0.1-0.4c-0.1-0.2-0.1-0.4-0.1-0.4c0,0,0.1,0.3,0.1,0c-0.1,0-0.3-0.9-0.3-1.7
			C7.1,39.8,7,39.8,6.9,40c0-0.2-0.1-0.4-0.1-0.4c0.1,0,0.1-0.1,0.1-0.3c0-0.2,0-0.4,0-0.6c-0.1,0.2-0.2-0.1-0.2-0.5
			c0,0,0-0.1,0.1-0.1c0-0.7-0.1-0.7-0.1-0.9c0-0.2,0-0.4,0-0.5c0.1,0,0.2,0.1,0.2,1.1c0.2-1-0.3-1.3-0.1-2.3c0,0.2,0,0.3,0,0.4
			c0-0.3,0-0.7,0-1.1c0-0.4,0.1-0.6,0.1-0.4l0,0.2c0-0.4,0.1-0.8,0.1-1.3c0.1-0.5,0.1-1,0.2-1.5c0.1-0.5,0.1-0.9,0.2-1.3
			c0-0.3,0.1-0.6,0-0.6c0,0,0.2,0.3,0.2,0.3c0,0,0-0.7,0-1.4l0-1.4c0.1,0.3,0.8-0.5,0.5,0.8c0.1-0.2,0.1-0.4,0.2-0.6
			c0.1-0.2,0.2-0.5,0.3-0.9c-0.1,0.1-0.2,0.3-0.3,0.3c0,0,0-0.1,0-0.1c0-0.1,0-0.1,0-0.2c0.3-0.6,0.2-0.5,0.7-1.4
			c-0.2,0.3-0.3-0.2-0.1-0.7c0,0.1,0.3,0.1,0.2,0.3c0,0,0-0.1,0-0.2c0-0.1,0.1-0.3,0.1-0.5c0.1-0.4,0.2-0.7,0.2-0.7
			c-0.1,0.3,0.2,0.2,0.4-0.1c-0.1,0.1,0.6-1.1,0.7-1.5c0,0-0.1,0.1-0.2,0.3c-0.1,0.1-0.2,0.3-0.2,0.3c0-0.1,0.1-0.1,0.1-0.2
			c0,0,0-0.1,0-0.1l0-0.1c0.1-0.2,0.2-0.4,0.3-0.6c0.1-0.2,0.2-0.4,0.2-0.6c0-0.1,0-0.2,0.1-0.3c0.1-0.2,0.2-0.4,0.4-0.6l0.1-0.1
			l0.1-0.4c0,0,0-0.1,0.1-0.1c-0.1,0.2,0,0.6,0.5-0.1c0-0.2,0.1-0.5,0.3-1l0.1-0.3l0-0.1L12.3,18c0.2-0.5,0.4-1,0.7-1.6
			c0.1-0.1,0.2-0.2,0.3-0.3l0.2-0.1l0.4-0.6c0.1-0.1,0.1-0.1,0.2-0.2c-0.3,0.7-1.1,2.4-1.5,3.3c0.4-0.5,0.2-0.1,0.7-0.8
			c0.2-0.2-0.2,0.5-0.3,0.7c0,0,0.3-0.4,0.6-0.8c0.2-0.2,0.3-0.4,0.4-0.6c0.1-0.2,0.2-0.3,0.2-0.3c-0.2,0,0.9-1.3,0.8-1.4
			c0,0-0.1,0.1-0.2,0.3c-0.1,0.2-0.3,0.4-0.5,0.6c-0.2,0.2-0.3,0.5-0.5,0.6c-0.1,0.2-0.2,0.3-0.2,0.3c-0.1,0,0-0.4,0.3-0.8
			c0.3-0.5,0.7-1.1,1.2-1.6c0.3-0.2,0,0.4,0.1,0.4c0.1-0.2,0.9-1.1,1-1.2c0,0-0.1,0.1-0.2,0.3c-0.1,0.1-0.2,0.3-0.2,0.3
			c0.3-0.3,0.5-0.5,0.7-0.8c0.2-0.3,0.5-0.6,0.9-0.8c0.3-0.2,0.9-0.5,0.9-0.6c-0.1,0.1-0.3,0.1-0.4,0.1c0.3-0.4,0.7-0.7,1.2-1.1
			c0,0,0.1,0,0.1-0.1c0,0,0,0,0.1,0c0,0,0.1-0.1,0.1-0.2c0.1-0.1,0.2-0.2,0.3-0.2c0.1,0,0,0.1,0.4-0.2c0-0.2,1-0.7,0.5-0.5
			c0-0.1,0.1-0.1,0.1-0.2c0.3-0.2,0.5-0.3,1-0.6c-0.1,0-0.1,0,0-0.2c0,0,0.1-0.1,0.1-0.1L21.9,9c0.2-0.2,0.4-0.3,0.7-0.5
			c0.2-0.1,0.4-0.3,0.6-0.4c0.4-0.2,0.7-0.5,1.1-0.6c0.7-0.4,1.4-0.7,2.5-1.2c0.2,0,0.8-0.2,0.5-0.1c0.2-0.1,0.3-0.2,0.8-0.4
			c0.9-0.2-0.9,0.4-0.2,0.3c0-0.1,1-0.6,1.6-0.8c-0.2-0.1-1.4,0.5-2,0.8c0-0.1,0-0.1,0.1-0.2c0,0,0.1,0,0.1,0c0.1-0.1,0.1-0.1,0-0.1
			c0,0,0.1,0,0.1-0.1c0.3-0.1,0.7-0.3,1.1-0.4c0.1,0,0.2-0.1,0.2-0.1c0.1,0,0.2,0,0.4-0.1c0.1,0,0.1-0.1,0.2-0.1C29.9,5,30,5,30.1,5
			c0.4-0.1,0.6-0.2,0.8-0.1c0.8-0.2-0.3-0.1,0.5-0.3l0.2,0l0.2-0.1c0.3-0.1,0.5-0.1,0.6-0.1c0,0,0,0,0.1,0c-0.3,0.1-0.5,0.1-0.7,0.2
			c0.2,0,0.5-0.1,0.8-0.1c0,0,0,0,0.1,0c-0.1,0-0.4,0.1-0.5,0.1c0.6-0.1,1.7-0.4,2.1-0.5c-0.1,0-0.2,0-0.3,0c-0.2,0-0.4,0.1-0.4,0.1
			c0.1,0,0.2,0,0.2,0c0.1,0,0.2,0,0.3-0.1c0.5-0.1,1.1-0.2,1.7-0.2c0.3,0,0.5-0.1,0.8-0.1c0.3,0,0.5,0,0.7,0c0.2,0,0.4-0.1,0.6-0.1
			c1-0.1,2.1-0.1,3-0.1l-0.2-0.1c0.8,0,1.2,0,1.5,0.1L42,3.5l0.5,0.1l-0.1-0.1c0.2,0,0.3,0.1,0.6,0.1c0.3,0,0.6,0.1,1,0.1l-0.1,0
			c0.1,0,0.2,0,0.2,0c-0.1,0-0.2,0-0.2,0.1c0,0,0.2,0,0.4,0c0.2,0,0.4,0,0.4,0c0,0-0.3,0-0.1,0.1c0,0,0.3-0.1,0.6,0
			c0.2,0.1,0.6,0.2,0.2,0.2c0.5,0,0.7,0.1,0.9,0.1c0.2,0,0.3,0,0.4,0c0.2,0,0.2,0,0.9,0l0.3,0.2c0.4,0,0.5,0,1.4,0.2
			c-0.8-0.2,0.5,0.3-0.3,0.2c0.5,0.2,0.9,0.3,1.2,0.5c0.4,0.1,0.7,0.2,1,0.3c0.3,0.1,0.5,0.2,0.8,0.3c0.2,0.1,0.4,0.2,0.6,0.4
			c0.5,0.1,0.1-0.1-0.3-0.3c-0.4-0.2-0.9-0.4-0.7-0.3c-0.2-0.1,0-0.1,0.3,0c0.3,0.1,0.7,0.3,1,0.4c0.3,0.1,0.5,0.3,0.8,0.6
			c0.2,0.1,0.3,0.3,0.6,0.4c0.2,0.1,0.5,0.3,0.9,0.5c-0.1-0.1-0.2-0.1-0.3-0.1c0.2,0.2,0.5,0.3,0.8,0.4c0.1,0.1,0.3,0.1,0.4,0.2
			c0.1,0.1,0.3,0.2,0.4,0.3c0.4,0.1,0.8,0.5,1,0.4l-1.3-0.7c0.4,0.2,0.7,0.3,1.2,0.5c0.4,0.2,0.9,0.5,1.4,0.9
			c-0.1,0-0.5-0.2-0.7-0.3c0.3,0.3,0.7,0.4,1,0.7c-0.1,0-0.2,0-0.3-0.1c-0.2-0.1-0.4-0.2-0.6-0.4c-0.2-0.1-0.5-0.3-0.7-0.5
			c-0.2-0.1-0.5-0.3-0.7-0.3c0.2,0.2,0.5,0.3,0.8,0.5c0.3,0.2,0.4,0.3,0.2,0.2c0.3,0.1,0.7,0.3,1,0.6c0.4,0.3,0.7,0.6,1.2,0.8
			l-0.1,0.1c0.1,0.1,0.5,0.3,0.7,0.5l-0.5-0.2c0.4,0.2,0.7,0.5,1,0.8c0.3,0.3,0.6,0.6,0.9,0.8c-1.3-1.2-0.2-0.4-0.7-0.9
			c1.7,1.3,0.8,1,2.5,2.7c-0.2-0.2-0.8-0.9-0.4-0.6c0.3,0.3,0.7,0.8,0.8,1.1c1.1,1.2-0.1-0.3,0.4,0.2c0.2,0.5,0.5,0.6,1,1.1L65.4,16
			c0.5,0.8,0.6,0.8,0.7,0.9c0.1,0,0.1,0,0.2,0.1c0.1,0.1,0.2,0.3,0.4,0.6l-0.3-0.2c-0.1-0.1-0.3-0.2-0.3-0.2s0,0,0.1,0.1
			c0.1,0.1,0.1,0.1,0.2,0.2c0.1,0.2,0.3,0.3,0.3,0.3l-0.2-0.1c0.3,0.4,0.5,0.6,0.6,0.9c0.2,0.3,0.3,0.5,0.5,0.9c0-0.1,0-0.1,0.2,0
			c0.1,0.1,0.3,0.3,0.5,0.7c0.2,0.5-0.2-0.2,0.3,0.8c-0.2-0.2-0.4-0.4-0.5-0.9c-0.1,0-0.2-0.2-0.2-0.2c0.1,0.3,0.3,0.6,0.4,0.9
			c0.2,0.3,0.3,0.6,0.4,0.8c-0.1-0.1-0.1-0.3-0.2-0.4c0,0,0.1,0.1,0.1,0.2c0.1,0.1,0.2,0.3,0.3,0.5c0.1,0.1,0.1,0.2,0.2,0.3
			c0,0.3,0.1,0.6,0,0.6c0,0,0.1,0.1,0.1,0.1c0,0,0.2,0.4,0.3,0.7c0.1,0.2,0.1,0.5,0.2,0.8c0.1,0.2,0.1,0.4,0.2,0.6c0,0,0,0,0,0
			c0.1,0.2,0.1,0.4,0.2,0.7c0.1,0.2,0.1,0.4,0.2,0.6c0,0,0,0,0,0c0,0,0.1,0.1,0.1,0.1c0,0,0,0,0,0c0.1,0.3,0.2,0.6,0.3,0.8
			c0,0.2,0.1,0.3,0.1,0.5l0,0l0,0c0,0.1,0,0.2,0.1,0.4c0,0,0,0.1,0.1,0.2c0,0.1,0,0.1,0,0.2c0,0.1,0,0.2,0,0.2
			c0.1,0.5,0.1,0.9,0.2,1.4c0.1,0.5,0.1,1.1,0.2,1.8l-0.1,0.8c0.1,0.7,0.1,0,0.2,0c0,0,0,0.1,0,0.1c0,0.3,0,0.6,0,0.9l0.1-0.2
			c0,0.2,0,0.4,0,0.5c0,0.2-0.2-0.1-0.2,0.2C71.5,35,71.6,36,71.4,37.1 M68.7,48.5c0.1-0.2,0.2-0.7,0.3-0.9
			C69,47.9,68.9,48.1,68.7,48.5 M59.3,61.6c-0.1,0-0.1,0.1-0.2,0.1c0.2-0.2,0.5-0.4,0.5-0.4C59.5,61.4,59.4,61.5,59.3,61.6
			 M57.3,63.3C57.3,63.3,57.3,63.3,57.3,63.3c0,0,0.1-0.1,0.1-0.1C57.4,63.2,57.4,63.3,57.3,63.3 M31.1,67.1C31,67,31.1,67,31.2,67
			c0.1,0,0.1,0.1,0.2,0.1C31.3,67.1,31.2,67.1,31.1,67.1 M30.3,67c-0.3-0.1-0.2-0.1-0.2-0.2c0.3,0.1,0.5,0.1,0.5,0.1
			C30.6,66.9,30.5,66.9,30.3,67 M17.6,59.9c0.2,0.1,0.6,0.4,0.7,0.6C18,60.4,17.9,60.2,17.6,59.9 M11.1,52.4c-0.1,0-0.2-0.2-0.3-0.5
			c0,0,0,0,0,0c0.2,0.3,0.3,0.6,0.5,0.8C11.2,52.6,11.1,52.5,11.1,52.4 M8.2,46.7c0-0.1-0.1-0.2-0.1-0.3l0.1-0.2c0,0,0,0.2,0.1,0.4
			c0,0.1,0.1,0.3,0.1,0.4C8.4,47,8.3,46.9,8.2,46.7 M7.7,45.8c0,0,0,0,0-0.1c0,0,0,0,0,0C7.8,45.8,7.8,45.8,7.7,45.8
			C7.8,45.9,7.7,45.9,7.7,45.8 M7.6,45.1C7.7,45.1,7.7,45.1,7.6,45.1L7.6,45.1C7.7,45.1,7.7,45.1,7.6,45.1 M7.4,44.1
			c0,0.1,0.1,0.3,0.1,0.4c0,0.1,0,0.1,0,0.2C7.5,44.5,7.5,44.3,7.4,44.1 M7.7,46.3c0-0.1-0.1-0.3-0.1-0.4c0-0.1,0-0.2-0.1-0.3
			c0,0,0,0,0,0.1c0-0.2-0.1-0.3-0.1-0.5c0,0,0.1,0.1,0.1,0.2c0-0.1-0.1-0.2-0.1-0.2c0-0.2,0-0.3,0-0.3c0,0.1,0,0.2,0.1,0.2
			c0,0.1,0.1,0.3,0.1,0.4c0,0-0.1-0.1-0.1-0.1c0,0.1,0.1,0.2,0.1,0.3c0,0.1,0.1,0.2,0.1,0.2c0,0.3,0.1,0.5,0.1,0.7
			C7.8,46.5,7.8,46.4,7.7,46.3 M6.7,40.7c0,0,0.1,0.2,0.2,0.7C6.8,41.2,6.7,41,6.7,40.7 M6.6,40.3C6.6,40.3,6.6,40.3,6.6,40.3
			c0-0.2,0-0.3,0-0.5c0-0.3,0-0.5-0.1-0.7c0.1,0,0.1-0.2,0.2-0.1c-0.1,0.3,0,0.6,0.1,1c-0.1,0.1-0.1,0.3-0.1,0.5
			C6.6,40.5,6.6,40.4,6.6,40.3 M6.5,39.6c0-0.2-0.1-0.4-0.1-0.7c0,0.1,0.1,0.2,0.1,0.2C6.5,39.3,6.5,39.5,6.5,39.6 M7.4,27L7.4,27
			L7.4,27z M8,26.6c0-0.1,0.1-0.1,0.1-0.2c0,0.1,0,0.2-0.1,0.3C8,26.7,8,26.7,8,26.6 M11.3,19.3c-0.1,0.2-0.2,0.4-0.3,0.6
			C11.1,19.8,11.2,19.6,11.3,19.3 M17.4,11.7C17.4,11.7,17.4,11.7,17.4,11.7C17.4,11.7,17.4,11.7,17.4,11.7
			C17.4,11.7,17.4,11.7,17.4,11.7 M20.7,9.9C20.7,10,20.6,10,20.7,9.9c-0.1,0.1-0.2,0.2-0.3,0.2C20.5,10,20.6,10,20.7,9.9
			 M69.3,23.4c-0.1-0.1-0.1-0.2-0.2-0.4C69.2,23.1,69.3,23.2,69.3,23.4 M39.2,1.8C20.3,1.8,5,17.1,5,36.1C5,55,20.3,70.3,39.2,70.3
			c18.9,0,34.3-15.3,34.3-34.3C73.5,17.1,58.2,1.8,39.2,1.8 M70.6,41.6l0.1-0.1c0-0.1,0.1-0.1,0.1-0.1l-0.2,0.1L70.6,41.6z
			 M71.2,33.8c0,0.3,0,0.7,0,1C71.2,34.1,71.3,33.7,71.2,33.8 M67.6,50.1c0.1-0.1,0.2-0.2,0.3-0.5L67.6,50.1L67.6,50.1z M32.1,4.6
			l0,0.2l0.4-0.1C32.3,4.6,32.3,4.6,32.1,4.6 M8.6,47.2c-0.1-0.3-0.2-0.5-0.2-0.6C8.4,46.7,8.5,47,8.6,47.2 M8.9,47.8
			c-0.1-0.2-0.1-0.4-0.1-0.4c0,0-0.1-0.1-0.1-0.2C8.7,47.4,8.8,47.7,8.9,47.8C8.9,48.1,9,48.2,9,48.2c0,0,0,0,0-0.1
			C8.9,48,8.9,47.9,8.9,47.8 M7.8,44.4l0.2,0.3l-0.1-0.5L7.8,44.4z M8.2,45.6l0.2,0.6l-0.2-0.8L8.2,45.6z M13.6,55.6
			c0.1,0.1,0.9,0.9,0.2,0.1C13.7,55.6,13.1,54.9,13.6,55.6 M11.4,20.1c0-0.1,0.1-0.2,0.1-0.3C11.4,19.9,11.4,20,11.4,20.1
			 M11.4,20.1c-0.3,0.6-0.5,0.9-0.2,0.7c0.6-0.9,0-0.3,0.6-1.1C11.8,19.4,11.3,20.3,11.4,20.1 M23.4,63.8l0.2,0.3l-0.1-0.2
			L23.4,63.8z M16.4,58.4c0,0.1,0.2,0.2,0.4,0.4L16.4,58.4L16.4,58.4z"/>
		<path class="st33" d="M58.5,19.1c-0.2,0-0.4,0-0.7-0.1c-0.3-0.2-0.5-0.5-0.6-0.9c-0.6-1.6-1.8-8.1,0-11.2c1-1.8,3-3,4.9-3
			c0.7,0,1.3,0.2,1.9,0.5c0.8,0.4,1.5,1.1,1.8,2.1C66.4,6.1,67.1,6,67.9,6c2.2,0,4.3,1.4,5.1,3.5c0.9,2.7-0.5,6-3.1,7.2
			C66.3,18.4,59.9,19.1,58.5,19.1"/>
		<path class="st1" d="M62.1,3.1L62.1,3.1c-2.2,0-4.4,1.4-5.6,3.4c-1.9,3.4-0.8,10,0,11.9c0.1,0.3,0.3,0.9,0.9,1.3
			c0.5,0.3,0.9,0.3,1.2,0.3c1.5,0,8-0.7,11.7-2.5c3-1.5,4.6-5.2,3.5-8.3c-0.9-2.4-3.3-4.1-5.8-4.1c-0.6,0-1.1,0.1-1.6,0.2
			c-0.4-0.8-1.1-1.4-1.9-1.8C63.6,3.3,62.9,3.1,62.1,3.1 M62.1,4.7c0.5,0,1.1,0.1,1.6,0.4c1,0.5,1.5,1.5,1.6,2.6
			c0.2-0.2,0.5-0.3,0.7-0.4c0.6-0.3,1.3-0.5,1.9-0.5c1.8,0,3.6,1.2,4.3,3c0.8,2.3-0.5,5.1-2.7,6.2c-3.4,1.6-9.7,2.3-11,2.3
			c-0.2,0-0.2,0-0.3,0c-0.6-0.2-2.2-7.8-0.3-11C58.7,5.9,60.4,4.7,62.1,4.7"/>
		<path class="st34" d="M64.6,10.3c-1.9,3.1-6.2,8-6.4,7.9c-0.6-0.2-2.2-7.8-0.3-11c1.1-1.9,3.7-3.2,5.7-2.2
			C65.5,6.1,65.6,8.7,64.6,10.3"/>
		<path class="st33" d="M69.5,16c-3.8,1.8-11.1,2.5-11.3,2.3c-0.4-0.6,3.4-8.9,7.7-11c2.4-1.2,5.3,0.1,6.2,2.5
			C72.9,12.1,71.7,14.9,69.5,16"/>
	</g>
	<g>
		<polygon class="st1" points="17.9,43.9 17.8,44 17.8,44.1 17.8,44.3 17.8,44.3 17.7,44.4 17.6,44.4 17.5,44.4 17.3,44.4 
			16.1,44.3 15.3,44.3 14.3,44.4 13.7,44.4 12.9,44.4 12.4,44.4 12.2,44.4 12.1,44.4 11.9,44.4 11.9,44.3 11.8,44.3 11.8,44.1 
			11.8,43.9 11.9,43.5 11.9,43.4 11.8,42.8 11.8,42.6 11.8,42 11.8,41.9 11.9,40.5 11.9,40.4 11.8,39 11.8,38.9 11.8,38.3 
			11.8,37.4 11.8,37 11.8,36.9 11.8,36.8 11.8,36.6 11.9,36.6 11.9,36.5 12.1,36.5 12.2,36.5 12.3,36.5 12.9,36.5 13,36.5 
			13.8,36.5 13.9,36.5 14,36.6 14,36.6 14,37.6 14.1,38.2 14.1,38.4 14,39 14,39.2 14.1,39.8 14.1,40 14.1,40.6 14.1,40.8 14,42.3 
			14,42.4 14,42.4 14.1,42.5 14.1,42.5 14.2,42.5 14.6,42.6 14.9,42.5 15.1,42.5 16.7,42.5 16.9,42.5 17.2,42.5 17.4,42.4 
			17.6,42.4 17.7,42.5 17.8,42.5 17.8,42.6 17.8,42.7 17.8,43.4 17.8,43.5 		"/>
		<path class="st1" d="M23.7,41l0-0.1l-0.2-0.7l-0.1-0.2l-0.2-0.6l-0.1-0.1L23,39.1l-0.1,0l-0.1,0l-0.1,0.1l-0.3,0.7l-0.1,0.2
			L22,40.8l0,0.2l0,0.1l0.1,0.1l0.2,0h0.7l0.5,0l0.1,0l0.1-0.1L23.7,41z M27.3,44.1l0,0.2l-0.1,0.1l-0.1,0.1l-0.1,0h-0.2l-0.3,0
			l-0.2,0H26l-0.7,0l-0.1-0.1l-0.1-0.1L25,44.2l-0.3-0.9l-0.1-0.1l-0.1,0l-0.1,0l-0.7,0h-0.2l-0.8,0l-0.7,0h-0.2l-0.2,0h-0.5l-0.1,0
			L21,43.1L21,43.3L20.7,44l-0.1,0.2l-0.1,0.1l-0.2,0.1h-0.2l-0.6,0h-0.2l-0.7,0l-0.1,0l-0.1-0.1l-0.1-0.1l0-0.1l0-0.1l0.1-0.2
			l0.2-0.3l0.1-0.2l0.3-0.6l0.1-0.2l0.3-0.6l0.1-0.2l0.3-0.6l0.1-0.2l0.3-0.6l0.1-0.2l0.4-0.9l0.3-0.7l0.1-0.2l0.2-0.5l0.1-0.2
			l0.2-0.5l0.1-0.2l0.2-0.4l0.1-0.1l0.1-0.1l0.2,0l0.5,0h0.8l0.5,0l0.2,0l0.1,0.1l0.1,0.1l0.2,0.4l0.1,0.2l0.3,0.5l0.1,0.2l0.2,0.5
			l0.1,0.2l0.2,0.6l0.1,0.2l0.2,0.5l0.1,0.2l0.2,0.5l0.1,0.2l0.2,0.5l0.1,0.2l0.3,0.7l0.3,0.5l0.1,0.2l0.3,0.7L27.3,44.1z"/>
		<polygon class="st1" points="34.5,43.4 34.4,43.5 34.2,43.6 34.1,43.7 33.9,43.9 33.7,44 33.5,44.1 33.4,44.2 33.1,44.3 33,44.4 
			32.8,44.4 32.6,44.4 32.3,44.5 31.9,44.5 31.7,44.5 31.5,44.6 30.9,44.6 30.7,44.6 30.5,44.5 30.4,44.5 30.2,44.5 30,44.4 
			29.5,44.3 29.3,44.2 29.1,44.1 28.9,44 28.8,43.9 28.7,43.8 28.5,43.7 28.2,43.5 28.1,43.3 28,43.2 27.9,43 27.8,42.9 27.7,42.7 
			27.6,42.6 27.5,42.3 27.3,41.9 27.2,41.7 27.1,41.3 27.1,41.2 27.1,40.9 27.1,40.8 27.1,40.6 27.1,40.4 27.1,40 27.2,39.9 
			27.2,39.7 27.2,39.5 27.3,39.3 27.3,39.1 27.4,39 27.5,38.8 27.5,38.6 27.6,38.5 27.7,38.3 27.8,38.1 27.9,38 28,37.8 28.1,37.7 
			28.3,37.5 28.4,37.4 28.5,37.3 28.7,37.2 29,37 29.1,36.9 29.3,36.8 29.6,36.6 29.8,36.6 30,36.5 30.4,36.4 30.5,36.4 30.7,36.4 
			31.1,36.3 31.3,36.3 31.5,36.3 31.7,36.3 32.1,36.4 32.3,36.4 32.5,36.5 32.9,36.6 33,36.6 33.3,36.8 33.4,36.9 33.7,37.1 
			34.1,37.3 34.2,37.4 34.2,37.5 34.3,37.5 34.3,37.6 34.3,37.7 34.3,37.8 34.2,37.9 34,38 33.9,38.1 33.8,38.2 33.7,38.4 
			33.5,38.6 33.4,38.7 33.3,38.8 33.2,38.8 33.1,38.9 33.1,38.9 33,38.9 32.9,38.8 32.7,38.7 32.5,38.6 32.3,38.5 32.1,38.4 
			31.9,38.3 31.7,38.3 31.5,38.3 31.3,38.3 31.1,38.3 30.9,38.4 30.6,38.4 30.5,38.5 30.3,38.6 30.1,38.7 30,38.8 29.9,38.8 
			29.8,39 29.7,39.1 29.6,39.3 29.5,39.4 29.4,39.6 29.4,39.8 29.4,39.9 29.3,40.1 29.3,40.4 29.3,40.6 29.3,40.9 29.3,41 
			29.4,41.3 29.4,41.5 29.5,41.6 29.6,41.8 29.8,42 29.9,42.2 30.1,42.3 30.2,42.4 30.5,42.6 30.6,42.6 30.9,42.7 31,42.7 
			31.3,42.7 31.5,42.7 31.7,42.7 31.8,42.7 31.9,42.6 32.2,42.5 32.4,42.4 32.6,42.4 32.7,42.3 32.9,42.2 33,42.1 33.1,42 33.2,42 
			33.3,42 33.4,42.1 33.6,42.2 33.6,42.2 33.7,42.3 33.9,42.6 34,42.7 34.3,43 34.4,43.2 34.4,43.2 34.5,43.3 		"/>
		<polygon class="st1" points="41.6,37.4 41.6,37.5 41.6,37.9 41.6,38 41.6,38.1 41.6,38.3 41.5,38.3 41.5,38.4 41.3,38.4 
			41.2,38.4 40.8,38.4 40.7,38.4 40.2,38.4 40,38.4 39.7,38.4 39.6,38.4 39.5,38.4 39.4,38.4 39.3,38.5 39.3,38.6 39.3,39.3 
			39.3,39.4 39.3,40.1 39.3,40.3 39.3,40.9 39.3,41.1 39.3,41.7 39.3,42.7 39.3,43.4 39.3,43.5 39.3,44 39.3,44.2 39.3,44.3 
			39.2,44.4 39.1,44.4 38.9,44.4 38.6,44.4 38.4,44.4 38,44.4 37.8,44.4 37.3,44.4 37.2,44.4 37.1,44.3 37.1,44.2 37.1,44 
			37.1,43.6 37.1,43.4 37.1,42.6 37.1,41.9 37.1,41.7 37.1,41.1 37.1,40.9 37.1,40.3 37.1,40.1 37.1,39.3 37.1,38.6 37.1,38.5 
			37,38.4 36.9,38.4 36.8,38.4 36.4,38.4 36.2,38.4 35.9,38.4 35.7,38.4 35.5,38.4 35.3,38.4 35.1,38.4 35,38.4 34.9,38.3 
			34.9,38.3 34.8,38.2 34.8,38.1 34.8,38 34.8,37.9 34.8,37.6 34.8,37.4 34.8,37 34.8,36.8 34.8,36.7 34.9,36.6 34.9,36.5 35,36.5 
			35.3,36.5 35.7,36.6 35.9,36.6 36.5,36.5 36.7,36.5 37.3,36.6 37.5,36.6 38.3,36.5 38.9,36.5 39.1,36.5 39.9,36.5 40.7,36.5 
			41.1,36.5 41.3,36.5 41.3,36.5 41.5,36.5 41.6,36.6 41.6,36.7 41.6,36.8 41.6,36.9 41.6,37 		"/>
		<path class="st1" d="M48.4,40.5v-0.2l0-0.2l0-0.2l-0.1-0.3l0-0.2l-0.1-0.2l-0.1-0.1l-0.2-0.2l-0.1-0.1l-0.2-0.2l-0.1-0.1l-0.3-0.2
			l-0.2-0.1l-0.2-0.1l-0.2,0l-0.3,0l-0.2,0l-0.2,0l-0.2,0l-0.3,0.1l-0.2,0.1l-0.3,0.1L45,38.6l-0.2,0.2l-0.1,0.1l-0.1,0.2l-0.1,0.1
			l0,0.1l-0.1,0.2l-0.1,0.2l0,0.1l0,0.2l0,0.2l0,0.2l0,0.2v0.2l0,0.2l0,0.2l0,0.1l0,0.2l0,0.1l0.1,0.2l0,0.1l0.1,0.2l0.1,0.1
			l0.1,0.2l0.1,0.1l0.1,0.1l0.2,0.2l0.2,0.1l0.2,0.1l0.2,0.1l0.2,0.1l0.2,0l0.3,0l0.2,0l0.3,0l0.2,0l0.2-0.1l0.2-0.1l0.2-0.2
			l0.1-0.1l0.2-0.2l0.1-0.1l0.1-0.2l0.1-0.2l0.1-0.2l0.1-0.2l0.1-0.2l0-0.2L48.4,40.5z M50.7,40.4l0,0.2l0,0.2l0,0.2l-0.1,0.3l0,0.2
			l0,0.2l0,0.2l0,0.2l-0.1,0.2l-0.1,0.2L50,42.9L49.9,43l-0.1,0.1l-0.1,0.1l-0.2,0.2l-0.1,0.1l-0.1,0.1l-0.1,0.1l-0.2,0.1L48.7,44
			l-0.2,0.1l-0.2,0.1l-0.2,0.1l-0.2,0l-0.3,0.1l-0.2,0.1l-0.2,0l-0.2,0l-0.2,0l-0.2,0h-0.6l-0.4,0l-0.4,0l-0.2,0l-0.2,0l-0.6-0.2
			l-0.2-0.1l-0.2-0.1L43.9,44l-0.2-0.1l-0.2-0.1l-0.1-0.1l-0.1-0.1l-0.1-0.1L43,43.3L42.7,43l-0.1-0.1l-0.1-0.1l-0.1-0.1l-0.1-0.2
			l-0.2-0.5l-0.1-0.2l0-0.2l0-0.2l0-0.2l0-0.2l0-0.2l0-0.2v-0.2l0-0.2l0-0.2l0-0.2l0-0.2l0-0.2l0.1-0.2l0.1-0.2l0.1-0.2l0.1-0.2
			l0.1-0.2l0-0.1l0.1-0.2l0.2-0.2l0.1-0.2l0.1-0.1l0.1-0.1l0.2-0.2l0.1-0.1l0.1-0.1l0.3-0.2l0.1-0.1l0.2-0.1l0.2-0.1l0.2-0.1
			l0.2-0.1l0.2-0.1l0.2,0l0.4-0.1l0.2,0l0.5-0.1l0.3,0l0.3,0l0.3,0l0.2,0l0.2,0l0.2,0l0.2,0l0.2,0l0.2,0l0.2,0.1l0.2,0.1l0.2,0.1
			l0.4,0.2l0.1,0.1l0.1,0.1l0.2,0.2l0.1,0.1l0.1,0.1l0.1,0.1l0.2,0.2l0.1,0.1l0.1,0.1l0.1,0.1l0.1,0.2l0.1,0.1l0.1,0.2l0.1,0.2
			l0.1,0.2l0.1,0.3l0,0.2l0,0.2L50.7,40.4z"/>
		<polygon class="st1" points="57.8,41.9 57.8,42.1 57.8,42.3 57.7,42.5 57.7,42.7 57.6,42.9 57.5,43.1 57.5,43.2 57.3,43.4 
			57.2,43.6 57.1,43.7 57,43.8 56.7,43.9 56.6,44 56.4,44.1 56.3,44.2 56,44.3 55.7,44.4 55.5,44.4 55.3,44.5 55.1,44.5 54.9,44.5 
			54.7,44.5 54.4,44.5 53.9,44.6 53.7,44.6 53.5,44.6 53.3,44.5 53.1,44.5 52.9,44.5 52.8,44.4 52.5,44.4 52.4,44.3 52.2,44.2 
			52.1,44.1 51.9,44 51.6,43.8 51.4,43.7 51.3,43.5 51.1,43.4 51,43.3 50.9,43.2 50.9,43.1 51,43 51,43 51.1,42.9 51.4,42.6 
			51.5,42.5 51.7,42.2 51.8,42.1 51.9,41.9 52,41.9 52.1,41.9 52.3,42 52.6,42.2 52.8,42.3 52.9,42.4 53.2,42.5 53.3,42.6 
			53.5,42.6 53.7,42.7 53.9,42.7 54.1,42.7 54.8,42.6 55,42.6 55.1,42.6 55.2,42.5 55.4,42.4 55.5,42.3 55.5,42.3 55.6,42.1 
			55.6,41.9 55.6,41.8 55.5,41.7 55.4,41.6 55.3,41.5 55.2,41.5 55,41.4 54.8,41.3 54.7,41.3 53.6,41.2 53.3,41.2 53.1,41.1 
			52.9,41 52.7,41 52.6,40.9 52.2,40.7 52,40.6 51.9,40.5 51.7,40.4 51.6,40.3 51.5,40.1 51.4,40 51.3,39.8 51.2,39.6 51.2,39.4 
			51.2,39.2 51.1,38.8 51.1,38.6 51.2,38.4 51.2,38.2 51.2,38.1 51.3,37.9 51.4,37.7 51.5,37.5 51.6,37.4 51.7,37.3 51.8,37.1 
			52,37 52.1,36.9 52.3,36.8 52.5,36.7 52.8,36.6 53,36.5 53.2,36.5 53.4,36.4 53.7,36.4 54,36.4 54.1,36.3 54.3,36.3 54.5,36.3 
			54.8,36.4 55,36.4 55,36.4 55.2,36.4 55.6,36.5 55.8,36.5 56,36.6 56.1,36.6 56.3,36.7 56.5,36.8 56.6,36.8 56.8,37 57,37 
			57.1,37.1 57.2,37.2 57.2,37.3 57.2,37.5 57,37.7 57,37.8 56.6,38.4 56.4,38.5 56.3,38.6 56.2,38.7 56.1,38.6 56,38.6 55.9,38.5 
			55.7,38.4 55.6,38.4 55.5,38.3 55.4,38.3 55.2,38.3 54.9,38.2 54.8,38.2 54.5,38.2 54.2,38.2 54,38.2 53.8,38.2 53.7,38.3 
			53.6,38.3 53.5,38.4 53.4,38.5 53.3,38.6 53.3,38.8 53.3,38.9 53.4,39.1 53.5,39.2 53.7,39.3 53.8,39.3 53.9,39.3 54.2,39.4 
			54.6,39.4 54.7,39.4 55.1,39.5 55.5,39.6 55.7,39.7 55.9,39.7 56.2,39.8 56.4,39.9 56.6,40 56.7,40.1 56.8,40.2 57.2,40.4 
			57.3,40.6 57.4,40.7 57.5,40.9 57.6,41 57.7,41.2 57.7,41.3 57.8,41.6 57.8,41.7 		"/>
		<path class="st1" d="M63,41l0-0.1l-0.2-0.7l-0.1-0.2l-0.2-0.6l-0.1-0.1l-0.1-0.1l-0.1,0l-0.1,0l-0.1,0.1l-0.3,0.7l-0.1,0.2
			l-0.3,0.7l0,0.2l0,0.1l0.1,0.1l0.2,0h0.7l0.5,0l0.1,0l0.1-0.1L63,41z M66.6,44.1l0,0.2l-0.1,0.1l-0.1,0.1l-0.1,0h-0.2l-0.2,0
			l-0.2,0h-0.5l-0.7,0l-0.1-0.1l-0.1-0.1l-0.1-0.1L64,43.3l-0.1-0.1l-0.1,0l-0.1,0l-0.7,0h-0.2l-0.8,0l-0.6,0h-0.2l-0.2,0h-0.5
			l-0.1,0l-0.1,0.1l-0.1,0.1L60,44L60,44.2l-0.1,0.1l-0.2,0.1h-0.2l-0.6,0h-0.2l-0.7,0l-0.1,0l-0.1-0.1l-0.1-0.1l0-0.1l0-0.1
			l0.1-0.2l0.1-0.3l0.1-0.2l0.3-0.6l0.1-0.2l0.3-0.6l0.1-0.2l0.2-0.6L59,41l0.3-0.6l0.1-0.2l0.4-0.9l0.3-0.7l0.1-0.2l0.2-0.5
			l0.1-0.2l0.2-0.5l0.1-0.2l0.2-0.4l0.1-0.1l0.1-0.1l0.2,0l0.5,0h0.8l0.5,0l0.2,0l0.1,0.1l0.1,0.1l0.2,0.4l0.1,0.2l0.3,0.5L64,38
			l0.2,0.5l0.1,0.2l0.2,0.6l0.1,0.2l0.2,0.5l0.1,0.2l0.2,0.5l0.1,0.2l0.2,0.5l0.1,0.2l0.3,0.7l0.3,0.5l0.1,0.2l0.3,0.7L66.6,44.1z"
			/>
		<g>
			<path class="st1" d="M21.1,25.5l-0.2,0.6l0,0.1l0,0.1l-0.1,0.2l-0.1,0.3l0,0.1l0,0.1l0,0.1l0,0.1l0,0.1l0,0.1l0.1-0.1l0.1-0.1
				l0.6-0.6l0.1-0.1l0.1-0.1l0.1-0.1l0.1-0.1l0.1-0.1l0.1-0.1l0.1-0.1l0.1-0.2l0.1-0.1l0.1-0.1l0.1-0.1l0.1-0.2l0.1-0.1l0-0.1
				l0.1-0.1l0.1-0.1l0-0.1l0-0.1l0-0.2l0.1-0.2l0-0.2l0.1-0.2l0-0.1l0-0.1v-0.3l0-0.1l0-0.1l-0.1-0.1l-0.1,0l-0.1,0l-0.1,0.1
				l-0.1,0.1l-0.1,0.1l-0.1,0.1L22,23.6l-0.1,0.2l-0.1,0.1L21.7,24l-0.1,0.1l-0.1,0.1l-0.1,0.1l-0.1,0.1l0,0.1l-0.1,0.2L21.3,25
				l-0.1,0.1L21.1,25.5z M23.4,25.1l-0.1,0.1l-0.1,0.2l-0.1,0.2l-0.1,0.2L23,25.8L23,25.9L22.9,26l-0.1,0.1l-0.1,0.1l-0.1,0.1
				l-0.1,0.1l-0.1,0.1l-0.1,0.1l-0.1,0.1L22.2,27L22,27.1l-0.1,0.1l-0.2,0.2l-0.1,0.1l-0.1,0.1l-0.2,0.1l-0.2,0.2L21.1,28l-0.3,0.2
				l-0.1,0l-0.1,0.1l-0.2,0.1l-0.1,0.1l-0.1,0.1l0,0.2l0,0.3v0.1l0,0.1l0,0.1l0,0.1v0.3l0,0.2v0.3l0,0.2l0,0.1l0,0.1l0.1,0.1
				l0.1,0.1l0.1,0.1l0.1,0.1l0.1,0l0.1,0H21l0.1,0l0.1,0l0.2-0.1l0.2-0.1l0.1-0.1l0.1-0.1l0.1-0.1l0.2-0.2l0.1-0.1l0.1-0.1l0.1-0.1
				l0.1-0.1l0.1-0.1l0.1-0.1l0.1-0.1l0.1-0.1l0.1-0.2l0.1-0.1l0.1-0.1l0.1-0.1l0.1-0.1l0.1-0.2l0.1-0.1l0.2,0l0.1,0.1v0.1l0,0.1
				l-0.1,0.1l-0.1,0.1l-0.1,0.1l-0.1,0.1l0,0.1l-0.1,0.1l-0.1,0.1L23.1,30l-0.1,0.1l0,0.1L23,30.3l-0.1,0.1l-0.1,0.2l-0.1,0.1
				l-0.1,0.1l-0.1,0.1L22.4,31l-0.1,0.1l-0.1,0.1l-0.1,0.1L22,31.4l-0.1,0.1l-0.1,0.1l-0.1,0.1l-0.1,0.1l-0.1,0.1l-0.1,0l-0.1,0.1
				L21,31.9L20.7,32l-0.2,0l-0.2,0h-0.1l-0.1,0l-0.1,0l-0.1,0l-0.1,0l-0.1-0.1l-0.1-0.1l-0.1-0.1l-0.1-0.1l-0.1-0.1l-0.1-0.1
				l-0.1-0.1l0-0.1l0-0.1l0-0.1l0-0.1l0-0.1v-0.1l0-0.2l0-0.1v-0.1l0-0.1l0-0.1v-0.1l0-0.2l0-0.3l0-0.2v-0.1l0-0.1l0-0.1l0.1-0.5
				l0-0.2l0-0.3l0-0.1l0-0.2l0-0.1l0.1-0.2l0-0.2l0-0.1l0-0.2l0.1-0.2l0-0.1l0.1-0.2l0.1-0.2l0-0.1l0.1-0.2l0.1-0.2l0.1-0.1l0.1-0.4
				l0-0.1l0.1-0.2l0.1-0.2l0.1-0.2l0.1-0.1l0-0.1l0.1-0.1l0.1-0.2l0.1-0.1l0.1-0.1l0.1-0.1l0.1-0.2l0.2-0.3l0.1-0.1l0.2-0.2l0.1-0.1
				l0.1-0.1l0.1-0.1l0.2-0.2l0.2-0.1l0.2-0.1l0.1,0l0.1,0h0.3l0.1,0l0.1,0l0.1,0l0.1,0.1l0.2,0.2l0.1,0.1l0.1,0.1l0.1,0.2l0.1,0.1
				l0.1,0.2l0,0.2v0.3l0,0.4l-0.1,0.3l0,0.1l0,0.1l-0.1,0.3l-0.1,0.1L23.4,25.1z"/>
			<path class="st1" d="M30.2,28.1v-0.3l0-0.2l0-0.2l0-0.1l-0.1-0.2L30,26.9l-0.1-0.1l-0.1-0.1l-0.1,0l-0.2,0l-0.2,0l-0.1,0
				l-0.5,0.2l-0.1,0.1l-0.1,0l-0.3,0.2l-0.1,0.1L28,27.3l-0.1,0.1l-0.1,0.1l-0.1,0.2l-0.1,0.2l0,0.1l0,0.1l0,0.1l-0.1,0.3l0,0.2
				l0,0.2l0,0.1l0,0.1l0,0.1l0,0.1l0,0.3v0.1l0,0.1v0.4l0,0.1l0,0.1l0,0.1l0.1,0.1l0.1,0.1l0.1,0.1l0.1,0.1l0.1,0l0.1,0h0.3l0.2,0
				l0.2,0l0.1-0.1l0.1,0l0.1-0.1l0.2-0.2l0.1-0.1v-0.2l-0.1-0.2l0-0.1l0-0.2l0.1-0.2l0.1-0.1l0.1-0.1l0.1,0l0.2,0l0.1-0.1l0.1-0.3
				l0.1-0.2L30,29l0.1-0.2l0-0.1l0-0.2l0-0.2l0-0.1L30.2,28.1z M25.3,24.2L25.3,24.2l0.2,0.2l0.1,0.1l0,0.1l0,0.1l0,0.1l0,0.1
				l-0.1,0.2l-0.1,0.1l-0.1,0.1l-0.1,0l-0.1,0h-0.1l-0.1,0l-0.1-0.1l-0.1-0.1l-0.1-0.1l-0.1-0.1l0-0.1l0-0.1v-0.1l0-0.1l0-0.1
				l0.1-0.1l0.1-0.1l0.1-0.1l0.2,0l0.1,0H25l0.1,0L25.3,24.2z M33.2,28.8l0,0.2l0,0.1l-0.1,0.1l-0.1,0.1L33,29.5l-0.1,0.2l-0.1,0.1
				l-0.1,0.1L32.6,30l-0.1,0.1l-0.1,0.1l-0.1,0.1l-0.1,0.1l-0.1,0.1l-0.1,0.1L32,30.7l-0.1,0.1l-0.1,0.1l-0.1,0l-0.1,0L31.2,31
				l-0.1,0L31,31h-0.1l-0.2,0h-0.1l-0.2,0l-0.1,0l-0.1,0l-0.1,0L30,31.1l-0.1,0.1l-0.1,0.1l-0.1,0.1l-0.1,0.1l-0.1,0.1l-0.1,0.1
				l-0.1,0.1l-0.1,0.1l-0.1,0l-0.1,0l-0.1,0.1l-0.1,0l-0.1,0l-0.1,0L27.9,32h-0.1l-0.2,0l-0.1,0l-0.2,0l-0.1,0l-0.1,0l-0.1,0l-0.1,0
				l-0.1-0.1l-0.1-0.1l-0.2-0.2l-0.1-0.1l-0.1-0.2L26.2,31l-0.1-0.3l0-0.1l0-0.1l0-0.1l0-0.1l0-0.1l0-0.1l-0.1,0l-0.1,0.1l-0.1,0.2
				l-0.1,0.1l-0.1,0.1l-0.1,0.1L25.3,31l-0.1,0.1l-0.1,0.1L25,31.4l-0.1,0.1l-0.1,0.1l-0.1,0.1l-0.1,0.1l-0.1,0.1l-0.1,0.1l-0.1,0.1
				l-0.1,0l-0.1,0l-0.4,0l-0.1,0l-0.1,0l-0.1,0l-0.1,0l-0.1-0.1L23,31.7l-0.1-0.1l-0.1-0.1l-0.1-0.1l0-0.1l0-0.1V31l0-0.1v-0.3
				l0-0.1l0-0.1l0-0.1l0-0.1l0.1-0.1l0-0.1l0-0.1l0.1-0.2l0-0.1l0-0.1l0-0.1l0.1-0.3l0-0.2l0-0.2l0.1-0.1l0.1-0.4l0-0.1l0.1-0.1
				l0.1-0.3l0-0.1l0-0.1l0-0.1l0-0.1l0.1-0.3l0-0.1l0-0.1l0-0.1l0-0.1l0-0.1l0.1-0.1l0.1-0.1l0.1-0.1l0.1,0h0.1l0.3,0.1l0.1,0
				l0.1,0.1l0,0.1v0.1L25,26.6l0,0.2l0,0.1l-0.2,0.5l0,0.2l0,0.1l0,0.1l0,0.2l0,0.2l-0.1,0.3l-0.1,0.2l0,0.2l0,0.2l0,0.1l0,0.2
				l-0.1,0.2l-0.1,0.2L24,29.8l0,0.2l0,0.2l0,0.1l0,0.2l0,0.2l0,0.2l0,0.1l0,0.1l0.1,0.1h0.1l0.1,0l0.2-0.1l0.1-0.1l0.1-0.1l0.1-0.1
				l0.1-0.1l0.1-0.1l0.1-0.1l0.3-0.3l0.1-0.2l0.1-0.1l0.1-0.1l0.1-0.1l0.1-0.1l0.1-0.2l0.1-0.2l0.1-0.1l0.2-0.3l0.1-0.1l0-0.1l0-0.1
				l0-0.1l0-0.1l0-0.1l0-0.1l0.1-0.3l0-0.2l0-0.2l0-0.1l0-0.1l0.1-0.2l0-0.1l0-0.1l0-0.1l0-0.1l0-0.1l0-0.1l0-0.1l0-0.1l0-0.1l0-0.1
				l0-0.1l0-0.1l0.1-0.3l0-0.1l0-0.1l0-0.1l0-0.1l0.1-0.3l0-0.1l0-0.1l0.1-0.1l0-0.1l0-0.1l0-0.1l0-0.1l0-0.1l0-0.1l0-0.1l0.1-0.1
				l0.1-0.1l0-0.1l0-0.1l0.1-0.1l0-0.1l0.1-0.1l0.1-0.1l0.1-0.1l0.1,0h0.1l0.1,0l0.2,0.1l0.1,0l0.1,0.1l0.1,0.1l0,0.1l0,0.1
				l-0.1,0.1L29,23.1L29,23.2l-0.1,0.2l0,0.2l-0.1,0.1l0,0.1l0,0.1l0,0.1l-0.1,0.1l0,0.1l-0.1,0.1l-0.1,0.3l0,0.2l0,0.2l-0.1,0.3
				l0,0.1l0,0.1l0,0.1l0,0.1l-0.1,0.1l0,0.1l-0.1,0.4l0,0.1l0,0.1l0,0l0.1,0l0.2-0.2l0.1-0.1l0.3-0.2l0.1,0l0.1,0l0.4-0.1l0.2,0
				l0.1,0h0.1l0.4,0l0.1,0l0.1,0.1l0.3,0.2l0.1,0.1l0.1,0.1l0.2,0.2l0.1,0.1l0.1,0.1l0.1,0.2l0,0.1l0,0.1l0,0.1l0,0.1V28l0,0.1v0.1
				l0,0.1l0,0.1l0,0.1l0,0.3l0,0.1l-0.1,0.4L31,29.7l-0.1,0.1l-0.1,0.1L30.8,30l-0.1,0.1l-0.1,0.1l0,0.1l0,0.1l0.1,0h0.1l0.1,0
				l0.1,0l0.1,0l0.1-0.1l0.1-0.1l0.1-0.1l0.1-0.1l0.1-0.1L32,30l0.1-0.1l0.3-0.3l0.1-0.1l0.1-0.2l0.1-0.1l0.1-0.1l0.1-0.1l0.1-0.1
				l0.1-0.1l0.1-0.1l0.2,0L33.2,28.8z"/>
			<polygon class="st1" points="33.6,25.7 33.5,25.3 33.5,25.2 33.5,25 33.5,24.9 33.5,24.8 33.6,24.7 33.7,24.6 33.8,24.5 
				33.9,24.4 34,24.4 34.2,24.4 34.3,24.4 34.4,24.5 34.5,24.6 34.5,24.7 34.6,24.8 34.6,25.2 34.6,25.4 34.6,25.5 34.6,25.6 
				34.7,25.7 34.8,25.8 34.9,25.9 35,26 35.1,26.2 35.2,26.2 35.4,26.4 35.5,26.5 35.5,26.6 35.6,26.7 35.7,26.8 35.8,26.9 36,27.1 
				36,27.3 36.1,27.4 36.1,27.6 36.1,27.7 36,27.9 36,28 35.9,28.1 35.8,28.3 35.7,28.4 35.6,28.5 35.5,28.6 35.4,28.7 35.4,28.8 
				35.3,28.9 35.2,29.1 35,29.5 34.9,29.7 34.9,29.8 34.9,29.9 34.8,30 34.8,30.2 34.8,30.3 34.8,30.4 34.9,30.7 34.9,30.8 35,31 
				35.1,31 35.2,31.1 35.3,31.1 35.6,31.1 35.7,31.1 35.9,31.1 36,31 36.1,30.9 36.3,30.8 36.4,30.7 36.5,30.6 36.6,30.6 36.7,30.4 
				36.9,30.1 37.1,29.8 37.2,29.7 37.3,29.6 37.4,29.5 37.4,29.4 37.5,29.2 37.5,29.1 37.6,29 37.7,28.9 37.7,28.8 37.8,28.7 
				37.9,28.6 38.1,28.6 38.2,28.8 38.2,28.9 38.2,29 38.1,29.3 38,29.4 37.9,29.5 37.8,29.7 37.7,30 37.6,30.1 37.5,30.2 37.5,30.3 
				37.3,30.5 37.2,30.7 37.1,30.9 37,31 36.8,31.2 36.7,31.3 36.5,31.5 36.4,31.6 36.3,31.7 36.1,31.8 35.9,31.8 35.8,31.9 
				35.7,31.9 35.6,31.9 35.4,32 35.1,32 34.9,32 34.6,31.9 34.5,31.9 34.4,31.8 34.2,31.7 34.1,31.6 34,31.5 33.9,31.4 33.8,31.3 
				33.8,31.1 33.7,31 33.7,30.9 33.7,30.8 33.6,30.6 33.6,30.5 33.6,30.4 33.7,29.9 33.7,29.8 33.8,29.6 33.8,29.5 33.9,29.4 
				34,29.2 34.1,29.1 34.2,28.9 34.2,28.8 34.3,28.7 34.4,28.5 34.5,28.3 34.6,28.2 34.7,28 34.9,27.8 34.9,27.7 35,27.4 35,27.3 
				34.8,27 34.7,26.9 34.5,26.7 34.4,26.6 34.3,26.5 34.2,26.5 34.1,26.7 34.1,26.8 34.1,26.9 34,27 34,27.1 34,27.3 33.8,27.6 
				33.8,27.7 33.8,27.9 33.7,28 33.6,28.1 33.6,28.3 33.5,28.4 33.4,28.6 33.4,28.8 33.3,28.9 33.2,29 33.1,29.2 33.1,29.3 33,29.4 
				32.9,29.4 32.8,29.3 32.7,29.2 32.7,29.1 32.7,29 32.8,28.9 32.8,28.7 32.9,28.6 33,28.4 33,28.3 33.1,28.1 33.1,28 33.2,27.9 
				33.2,27.8 33.3,27.6 33.3,27.5 33.4,27.3 33.5,27.1 33.5,27 33.5,26.9 33.6,26.8 33.6,26.6 33.6,26.5 33.7,26.4 33.7,26.3 
				33.7,26.1 33.7,26 33.7,25.9 			"/>
			<path class="st1" d="M40.2,26.8L40,26.9l-0.2,0.1L39.7,27l-0.2,0.2l-0.1,0.1l-0.1,0.1l-0.1,0.1l-0.1,0.2L39,27.9L38.9,28
				l-0.1,0.2l-0.1,0.2l-0.1,0.1l0,0.1l0,0.1l0.1,0.1l0.2,0l0.3,0l0.1,0h0.4l0.1,0l0.1,0l0.1-0.1l0.1,0l0.1-0.1l0.1-0.1l0.1-0.1
				l0.1-0.1l0.1-0.1l0.1-0.1l0.1-0.1l0.1-0.1l0.1-0.1l0.1-0.2l0-0.1l0-0.1l0-0.1L41.1,27L41,26.9l-0.1-0.1l-0.1-0.1l-0.1,0l-0.1,0
				l-0.1,0L40.2,26.8z M41.9,28.5L41.9,28.5l-0.2,0.3l-0.2,0.2L41.4,29l-0.1,0.1l-0.1,0L41,29.2l-0.1,0l-0.1,0.1l-0.1,0l-0.1,0
				l-0.1,0l-0.1,0l-0.2,0l-0.2,0l-0.1,0h-0.1l-0.3,0l-0.3,0l-0.1,0l-0.4-0.1h-0.1l-0.1,0.1l0,0.1v0.1l0,0.1V30l0,0.1l0,0.1l0.1,0.3
				l0.1,0.2l0.1,0.1l0.1,0.1l0.2,0.1l0.1,0l0.1,0l0.1,0l0.1,0l0.1,0h0.1l0.1,0l0.4-0.1l0.1,0l0.1,0l0.1,0l0.2-0.1l0.2-0.1l0.2-0.2
				l0.1-0.1l0.1-0.1l0.2-0.2l0.2-0.2L42,30l0.1-0.1l0.1-0.2l0.1-0.1l0.1-0.1l0.1-0.1l0.1-0.1l0.1-0.1l0.1-0.1l0.1-0.1l0.1-0.1
				l0.1-0.1l0.1-0.1h0.1l0.1,0.1l0.1,0.1l0,0.1l-0.1,0.1l-0.1,0.2L43,29.4L43,29.5l-0.1,0.2l-0.1,0.1L42.6,30l0,0.1l-0.1,0.1
				l-0.1,0.2l-0.1,0.1l-0.1,0.1l-0.1,0.1L42,30.9l0,0.1L41.9,31l-0.1,0.1l-0.2,0.2l-0.1,0.1l-0.1,0.1l-0.2,0.1l-0.4,0.2l-0.1,0
				l-0.1,0l-0.2,0l-0.2,0l-0.3,0l-0.2,0l-0.2,0h-0.1L38.9,32l-0.1,0l-0.1,0l-0.1-0.1l-0.1-0.1l-0.2-0.1l-0.1-0.1L38,31.5l-0.1-0.1
				l-0.1-0.1l-0.1-0.1l-0.1-0.1L37.6,31l-0.1-0.1l-0.1-0.1l0-0.1l0-0.1l0-0.1l0-0.1l0-0.1l0-0.4v-0.3l0-0.1v-0.1l0.1-0.4l0-0.1
				l0-0.1l0-0.1l0-0.1l0-0.1l0.1-0.2l0.1-0.2l0.1-0.1l0.1-0.2l0.1-0.1l0.1-0.1l0.1-0.1l0.1-0.1l0.2-0.2l0.2-0.2l0.1-0.1l0.1-0.1
				l0.1-0.1l0.1-0.1l0.1-0.1l0.1-0.1l0.1-0.1l0.2-0.1l0.3-0.1l0.2-0.1l0.2,0h0.3l0.2,0l0.2,0l0.2,0l0.1,0l0.1,0.1l0.1,0.1l0.1,0.1
				l0.2,0.2l0.1,0.1l0.1,0.1l0.1,0.2l0,0.1l0,0.1l0,0.1v0.2l0,0.2l0,0.1l0,0.2L42.1,28l-0.1,0.1l0,0.1L42,28.4L41.9,28.5z"/>
			<path class="st1" d="M48.7,26.8l-0.3,0h-0.1l-0.1,0l-0.1,0l-0.1,0L47.8,27l-0.1,0l-0.1,0.1l-0.1,0.1l-0.1,0.1l-0.1,0.1l-0.1,0.1
				l-0.2,0.2l-0.1,0.1l-0.1,0.1L46.6,28l-0.1,0.1l-0.1,0.1l-0.2,0.3l-0.1,0.1l0,0.1l0,0.1l0,0.1L46,29.1l-0.1,0.3l0,0.1l0,0.2l0,0.2
				l0,0.1l0,0.2l0,0.2l0,0.2l0,0.1l0.1,0.1l0.1,0.1l0.1,0.1l0.1,0.1l0.2,0l0.2,0l0.1-0.1l0.1,0l0.1-0.1l0.1-0.1l0.2-0.2l0.1-0.1
				l0.1-0.1l0.1-0.1l0.1-0.1l0.1-0.1l0.1-0.1l0.1-0.2l0.1-0.1l0.1-0.1l0.1-0.1l0-0.1l0.1-0.1l0.1-0.2l0.1-0.2l0.1-0.1l0-0.1l0.2-0.6
				l0.1-0.2l0.1-0.5l0-0.2l0-0.1l0-0.2l0-0.1l-0.1-0.1H48.7z M45.8,27.3L45.8,27.3l0.3-0.3l0.3-0.3l0.1-0.1l0.1-0.1l0.1-0.1l0.1-0.1
				l0.1-0.1l0.2-0.1l0.1-0.1l0.3-0.1l0.1,0l0.3-0.1l0.1,0l0.1,0l0.3,0h0.3l0.2,0l0.2,0l0.1,0l0.1,0l0.1-0.1l0-0.1l0.1-0.3l0-0.1
				l0-0.1l0.1-0.2l0-0.1l0-0.1l0.1-0.1l0-0.1l0.1-0.3l0-0.1l0.1-0.4l0.1-0.2l0.1-0.3l0-0.1l0.1-0.1l0-0.1l0.1-0.3l0-0.1l0.1-0.2
				l0.1-0.1l0.1-0.1l0.2-0.1H51l0.1,0l0.1,0l0.1,0l0.1,0l0.1,0.1l0,0.1l0,0.1l0,0.1l-0.1,0.1L51.5,23l0,0.1l0,0.1l-0.1,0.2l-0.1,0.2
				l-0.1,0.2l-0.2,0.4L51,24.3l-0.1,0.2l0,0.1l0,0.1L50.8,25l-0.1,0.2l0,0.1l-0.2,0.5l0,0.1l0,0.1l0,0.1l0,0.1l0,0.1l0,0.1l0,0.1
				l0,0.1l0,0.1l0,0.1l0,0.1l0,0.1l0,0.1l0,0.1l0,0.1l0,0.1l0,0.2l-0.1,0.2l0,0.1l0,0.2l0,0.1l0,0.2l0,0.2l-0.1,0.4l0,0.1l0,0.1
				l0,0.2l0,0.2l0,0.1l0,0.1l0,0.1v0.1l0,0.1l0,0.2l0,0.2l0,0.1l0.1,0.1l0.1,0l0.1,0l0.1,0l0.1,0l0.1-0.1l0.3-0.2l0.1-0.1l0.1-0.2
				l0.1-0.2l0.2-0.3l0.1-0.1l0.1-0.1l0.1-0.1l0.1-0.3l0.1-0.1l0.1-0.1l0.1-0.1l0.1-0.2l0.2-0.1l0.2,0l0.1,0.1V29L52,29.1l-0.1,0.1
				l-0.1,0.2l-0.1,0.2l-0.1,0.1L51.5,30l-0.1,0.1l-0.2,0.3l-0.1,0.2L51,30.8L51,30.9L50.9,31l-0.1,0.1l-0.1,0.1l-0.1,0.1l-0.1,0.1
				l-0.1,0.1l-0.1,0.1l-0.1,0.1l-0.1,0.1L50,31.7l-0.4,0.1l-0.1,0h-0.1l-0.1,0l-0.1,0l-0.1,0l-0.1-0.1l-0.1-0.1l-0.1-0.1l-0.1-0.1
				l-0.1-0.2l-0.1-0.1l0-0.1l0-0.1l0-0.4v-0.3l0,0l-0.1,0.1l-0.1,0.1L48,30.8L48,30.9L47.9,31l-0.2,0.2l-0.1,0.1l-0.3,0.2l-0.1,0.1
				l-0.1,0.1l-0.1,0.1l-0.1,0.1l-0.1,0L46.4,32l-0.1,0l-0.1,0L46,32l-0.1,0l-0.1,0l-0.1,0l-0.1-0.1l-0.1-0.1l-0.1-0.1l-0.1-0.1
				L45,31.5L45,31.4l-0.1-0.1l0-0.1l-0.1-0.2l0-0.1l0-0.1l0-0.2v-0.2l0-0.1v-0.1l0-0.1l0-0.2l0-0.2l0-0.1l0-0.1l0-0.1l0-0.1l0-0.1
				l0.1-0.3l0-0.1l0.1-0.2l0.1-0.2l0.1-0.2l0.1-0.1l0.1-0.1l0.1-0.1l0.1-0.2L45.8,27.3z"/>
			<path class="st1" d="M54.1,26.8l-0.2,0.1l-0.2,0.1L53.7,27l-0.2,0.2l-0.1,0.1l-0.1,0.1l-0.1,0.1L53,27.7l-0.1,0.1L52.9,28
				l-0.1,0.2l-0.1,0.2l-0.1,0.1l0,0.1l0,0.1l0.1,0.1l0.2,0l0.3,0l0.1,0h0.4l0.1,0l0.1,0l0.1-0.1l0.1,0l0.1-0.1l0.1-0.1l0.1-0.1
				l0.1-0.1l0.1-0.1l0.1-0.1l0.1-0.1l0.1-0.1l0.1-0.1l0.1-0.2l0-0.1l0-0.1l0-0.1L55,27L55,26.9l-0.1-0.1l-0.1-0.1l-0.1,0l-0.1,0
				l-0.1,0L54.1,26.8z M55.9,28.5L55.9,28.5l-0.2,0.3l-0.2,0.2L55.3,29l-0.1,0.1l-0.1,0L55,29.2l-0.1,0l-0.1,0.1l-0.1,0l-0.1,0
				l-0.1,0l-0.1,0l-0.2,0l-0.2,0l-0.1,0h-0.1l-0.3,0l-0.3,0l-0.1,0l-0.4-0.1h-0.1l-0.1,0.1l0,0.1v0.1l0,0.1V30l0,0.1l0,0.1l0.1,0.3
				l0.1,0.2l0.1,0.1l0.1,0.1l0.2,0.1l0.1,0l0.1,0l0.1,0l0.1,0l0.1,0h0.1l0.1,0l0.4-0.1l0.1,0l0.1,0l0.1,0l0.2-0.1l0.2-0.1l0.2-0.2
				l0.1-0.1l0.1-0.1l0.2-0.2l0.2-0.2L56,30l0.1-0.1l0.1-0.2l0.1-0.1l0.1-0.1l0.1-0.1l0.1-0.1l0.1-0.1l0.1-0.1l0.1-0.1l0.1-0.1
				l0.1-0.1l0.1-0.1H57l0.1,0.1l0.1,0.1l0,0.1l-0.1,0.1l-0.1,0.2L57,29.4l-0.1,0.2l-0.1,0.2l-0.1,0.1L56.6,30l0,0.1l-0.1,0.1
				l-0.1,0.2l-0.1,0.1l-0.1,0.1l-0.1,0.1L56,30.9l0,0.1L55.8,31l-0.1,0.1l-0.2,0.2l-0.1,0.1l-0.1,0.1l-0.2,0.1l-0.4,0.2l-0.1,0
				l-0.1,0l-0.2,0l-0.2,0l-0.3,0l-0.2,0l-0.2,0h-0.1L52.9,32l-0.1,0l-0.1,0l-0.1-0.1l-0.1-0.1l-0.2-0.1L52,31.6l-0.1-0.1l-0.1-0.1
				l-0.1-0.1l-0.1-0.1l-0.1-0.1L51.5,31l-0.1-0.1l-0.1-0.1l0-0.1l0-0.1l0-0.1l0-0.1l0-0.1l0-0.4v-0.3l0-0.1v-0.1l0.1-0.4l0-0.1
				l0-0.1l0-0.1l0-0.1l0-0.1l0.1-0.2l0.1-0.2l0.1-0.1l0.1-0.2l0.1-0.1l0.1-0.1l0.1-0.1l0.1-0.1l0.2-0.2l0.2-0.2l0.1-0.1l0.1-0.1
				l0.1-0.1l0.1-0.1l0.1-0.1l0.1-0.1l0.1-0.1l0.2-0.1l0.3-0.1l0.3-0.1l0.2,0h0.3l0.2,0l0.2,0l0.2,0l0.1,0l0.1,0.1l0.1,0.1l0.1,0.1
				l0.2,0.2l0.1,0.1l0.1,0.1l0.1,0.2l0,0.1l0,0.1l0,0.1v0.2l0,0.2l0,0.1l0,0.2L56.1,28L56,28.2l0,0.1l-0.1,0.1L55.9,28.5z"/>
		</g>
	</g>
</g>
</svg>
