<?xml version="1.0" encoding="utf-8"?>
<!-- Generator: Adobe Illustrator 21.0.0, SVG Export Plug-In . SVG Version: 6.00 Build 0)  -->
<svg version="1.1" id="Capa_1" xmlns="http://www.w3.org/2000/svg" xmlns:xlink="http://www.w3.org/1999/xlink" x="0px" y="0px"
	 viewBox="0 0 79 72.1" style="enable-background:new 0 0 79 72.1;" xml:space="preserve">
<style type="text/css">
	.st0{fill:#5FA03C;}
	.st1{fill:#FFFFFF;}
	.st2{fill:#F2F2F2;}
	.st3{fill:#369443;}
	.st4{fill:#8EBB37;}
	.st5{fill:#222221;}
	.st6{fill:#94BB1E;}
	.st7{fill:none;stroke:#222221;stroke-width:2.346;stroke-linecap:round;stroke-linejoin:round;stroke-miterlimit:10;}
	.st8{fill:#D9802E;}
	.st9{fill:#F0C830;}
	.st10{opacity:0.68;clip-path:url(#SVGID_2_);}
	.st11{clip-path:url(#SVGID_4_);}
	.st12{clip-path:url(#SVGID_6_);fill:url(#SVGID_7_);}
	.st13{opacity:0.2;clip-path:url(#SVGID_2_);}
	.st14{clip-path:url(#SVGID_9_);}
	.st15{clip-path:url(#SVGID_11_);}
	.st16{filter:url(#Adobe_OpacityMaskFilter);}
	.st17{clip-path:url(#SVGID_13_);}
	.st18{enable-background:new    ;}
	.st19{clip-path:url(#SVGID_13_);fill:url(#SVGID_15_);}
	.st20{clip-path:url(#SVGID_13_);mask:url(#SVGID_14_);}
	.st21{clip-path:url(#SVGID_17_);}
	.st22{clip-path:url(#SVGID_19_);fill:url(#SVGID_20_);}
	.st23{opacity:0.68;clip-path:url(#SVGID_22_);}
	.st24{opacity:0.57;clip-path:url(#SVGID_22_);}
	.st25{clip-path:url(#SVGID_26_);}
	.st26{clip-path:url(#SVGID_28_);fill:#CED0D1;}
	.st27{clip-path:url(#SVGID_22_);fill:#4070B6;}
	.st28{clip-path:url(#SVGID_22_);fill:#DD902F;}
	.st29{fill:#C91862;}
	.st30{fill:none;stroke:#272425;stroke-width:7.564600e-02;stroke-miterlimit:10;}
	.st31{fill:#9CC34D;}
	.st32{fill:#B88844;}
	.st33{fill:#78B552;}
	.st34{fill:#589B52;}
	.st35{fill:#5CA257;}
	
		.st36{fill:none;stroke:#FFFFFF;stroke-width:2.3815;stroke-linecap:round;stroke-linejoin:round;stroke-miterlimit:10;stroke-dasharray:0,4.6879;}
	.st37{fill:none;stroke:#FFFFFF;stroke-width:2.3815;stroke-linecap:round;stroke-linejoin:round;stroke-miterlimit:10;}
	.st38{fill:#AFCB49;}
	.st39{fill:#CE4E80;}
	.st40{fill:#E35100;}
	.st41{fill:#4DAEA9;}
	.st42{fill:#B45696;}
	.st43{fill:#E1DF00;}
	.st44{fill:#76B452;}
	.st45{fill:#E4A612;}
	.st46{fill:#474747;}
	.st47{fill:#B2C633;}
	.st48{fill:#272425;}
	.st49{fill:#5D9E3B;}
	.st50{fill:#F3D33F;}
	.st51{fill:#526D59;}
	.st52{fill:#E2D1B1;}
	.st53{fill:#75398E;}
	.st54{fill:#EBB146;}
	.st55{fill:#F1F1F1;}
	.st56{fill:none;stroke:#5FA03C;stroke-width:1.2441;stroke-linecap:round;stroke-linejoin:round;stroke-miterlimit:10;}
	.st57{fill:none;stroke:#5FA03C;stroke-width:1.6816;stroke-linecap:round;stroke-linejoin:round;stroke-miterlimit:10;}
</style>
<g>
	<g>
		<path class="st1" d="M72.4,36.1c0,18.3-14.9,33.2-33.2,33.2C20.9,69.2,6,54.4,6,36.1C6,17.7,20.9,2.9,39.2,2.9
			C57.6,2.9,72.4,17.7,72.4,36.1"/>
	</g>
	<polygon class="st1" points="65.8,20.8 65.8,20.8 65.8,20.8 	"/>
	<g>
		<path class="st31" d="M45.8,64.2c-0.2,0.1-0.3,0.2-0.5,0.2C45.5,64.3,45.7,64.3,45.8,64.2"/>
		<path class="st31" d="M40,64.8c-0.1,0-0.2,0-0.3,0l0,0H40z"/>
		<path class="st31" d="M49.5,63.4c0.2-0.1,0.4-0.2,0.6-0.3C49.8,63.1,49.6,63.3,49.5,63.4"/>
		<path class="st31" d="M49.5,63.4c-0.2,0.1-0.3,0.1-0.5,0.2C49.1,63.7,49.3,63.6,49.5,63.4"/>
		<path class="st31" d="M47.9,64c-0.1,0-0.2,0.1-0.3,0.1C47.7,64.1,47.8,64,47.9,64"/>
		<path class="st31" d="M23.3,12.4c-0.1,0.1-0.3,0.2-0.4,0.4C23.1,12.6,23.2,12.5,23.3,12.4"/>
		<path class="st32" d="M48.6,65.1c-0.1,0-0.2,0.1-0.3,0.1c0.1-0.1,0.2-0.2,0.3-0.3L48.6,65.1c0.5-0.3,0.7-0.5,1.2-0.5
			C49.5,64.8,49,64.9,48.6,65.1 M42.3,6.2l0-0.2c0.1,0.1,0.1,0.1,0.4,0.1L42.3,6.2z M40.2,6.1c-1,0,0.1-0.1,0.2-0.1
			C41.1,6,40.3,6,40.2,6.1 M21.3,59.6c0.2,0.2,0.5,0.4,0.7,0.5C22,60.3,21.8,59.9,21.3,59.6 M20.6,13.4c-0.3,0.2-0.3,1-0.8,0.7
			c-0.3-0.3,0.2-0.5,0.5-0.8c0,0-0.2,0.3-0.1,0.3C20,13.7,20.7,13.2,20.6,13.4 M19.9,58.5c0.3,0.2,0.6,0.4,0.9,0.6
			C20.3,58.9,20.1,58.7,19.9,58.5 M17.1,55.5C17.1,55.5,17.1,55.4,17.1,55.5C17.1,55.4,17.1,55.5,17.1,55.5 M12.7,50.7
			c0,0.1,0.1,0.1,0.2,0.2C12.8,50.8,12.8,50.7,12.7,50.7 M11.5,48.6c0.1,0.1,0.2,0.2,0.2,0.3C11.6,48.7,11.5,48.6,11.5,48.6
			 M10.1,29.8c-0.1,0.5-0.2,0.9-0.4,1.3C9.7,30.6,9.9,30.2,10.1,29.8 M65.1,19.5c0,0-0.1-0.1-0.1-0.1c-0.4-0.7-1.3-1.2-1.9-1.7
			c-0.7-0.6-1.5-1.2-2.2-1.8c-1.1-0.9-2.1-1.8-3.1-2.7c-0.9-0.9-1.6-2.1-2.6-2.8c0,0,0,0,0,0c0,0,0,0-0.1,0c0,0-0.1,0-0.1-0.1
			c-0.3-0.2-0.7-0.4-1-0.6c-0.2-0.1-0.3-0.1-0.3-0.1c-0.2-0.1,0.1,0,0.1-0.1c0,0,0,0,0,0L53,9.3c0,0,0,0,0-0.1
			c-0.4-0.2-0.8-0.4-1.3-0.6c0,0,0,0,0,0c-0.5-0.2-1-0.4-1.5-0.6c0,0,0.1,0,0.1,0l0.2,0.1l0.2,0.1c0,0-0.2-0.1-0.3-0.2
			c-0.1,0-0.2-0.1-0.2-0.1c0,0,0,0,0,0c-0.8-0.3-1.6-0.6-2.4-0.9c-0.1,0-0.4-0.1-0.6-0.1c-0.8-0.3-1.9-0.6-2.9-0.8
			c-0.8-0.2-1.6-0.3-2-0.3c-1.4-0.2-2.8-0.2-4.3-0.2c-0.2,0.1-0.3,0.2-0.3,0.2c0.6-0.1,1.8-0.2,2-0.1c-0.1,0-0.3,0-0.5,0
			c-0.2,0-0.4,0-0.5,0.1C38.3,6,38,6,38,6.1c-0.6-0.2,1.1-0.1,0.3-0.2c-0.4,0-0.6,0.1-0.8,0.1c0.3-0.1-0.4-0.1-0.5-0.1
			C35.7,6,34.9,6,33.5,6.3c0.1,0,0.1,0,0,0c0,0,0,0,0,0c0,0,0,0-0.1,0c-0.3,0.1-0.6,0.1-0.8,0.2c-0.1,0.1-0.2,0.1-0.3,0.2
			C32,6.8,31.8,7,32,7c-0.4,0.1-0.6,0.2-0.8,0.2c-0.1,0-0.2,0-0.3,0.1c-0.1,0-0.2,0.1-0.4,0.2c1.1-0.2-0.2,0-0.3,0.2
			c-0.7,0.3-0.3,0-0.6,0.1c-0.1,0.1-0.3,0.2-0.3,0.3c0.1,0,0.2,0,0.4-0.1c-0.3,0.1-0.4,0.1-0.4,0.1c-0.2,0-0.1-0.1,0.1-0.3
			c0.1-0.1,0.2-0.2,0.2-0.3c-0.3,0.1-0.7,0.3-1,0.4l0,0.1l-0.2,0.1l0-0.1c-0.3,0.1-0.7,0.3-1,0.5c0.1,0.2,0.4,0.4,0.7,0.3
			c0,0.1-0.7,0.2-0.9,0.3c-0.4,0.1-0.7,0.3-1,0.5c-0.1,0.1-0.3,0.2-0.4,0.3c-0.1,0.1-0.3,0.2-0.4,0.3l0.4-0.4c-0.1,0-1,0.6-1.2,0.8
			c-0.1,0,0.1-0.3,0.1-0.3c-0.8,0-1.1,0.7-1.6,1.2c0.4-0.3,0.7-0.6,1.1-0.9c-0.5,1-1.7,1.3-2.5,2.1c0.2-0.3,0.2-0.3,0.5-0.5
			c-0.3,0-0.5,0.3-0.7,0.5c0-1,1.2-0.8,1.2-1.6c-1.5,1.3-3,2.1-4.2,3.4c0.1,0,0.3,0,0.4-0.1c-0.6,0.8-1.9,0.7-2.1,1.6l0-0.3
			c-0.7,1.3-2,2.4-2.5,3.7c-0.3-0.8,1.2-1.1,0.5-1.8c-1,2.1-2.2,4.2-2.9,6.3l0-0.3c-0.5,0.7-0.7,1.6-0.8,2.4c0,0,0,0,0.1,0
			c0,0.1-0.1,0.1-0.1,0.2c0,0.3-0.1,0.6-0.2,0.8c0-0.1,0-0.2-0.1-0.3c-0.3,0.7-0.5,1.5-0.7,2.3c0-0.3,0-0.6-0.3-0.9
			c0,1.6-0.5,2.9-0.4,4.5c0,0.1-0.1,0.3-0.1,0.5C9.5,34.2,8.5,35,9,35.8c0,0,0.1,0,0.1,0c-0.7,4.2,0.1,8.5,2,12.2l-0.2,0
			c0.5,0.8,0.8,1.6,1.5,2.1c-0.3-0.3-0.3-0.8-0.5-1c0.7,0.4,0.6,1.1,0.8,1.6c-0.1-0.2-0.2-0.4-0.3-0.5c0,0.9,0.9,1.2,1.3,1.9
			c0.1,0.1,0.1,0.1,0.2,0.2l-0.1,0c0,0.1,0.1,0.2,0.1,0.3c-0.1-0.1-0.1-0.2-0.2-0.3h-0.1c1.8,1.8,3.3,3.9,5.2,5.4
			c0.3,0.3,0.7,0.6,1,0.9c0.1,0.1,0.2,0.2,0.4,0.4c-0.3-0.3-0.5-0.3-0.8-0.5c1,1,2,1.8,3.3,2.6l-0.3-0.3c2.8,1.8,6,3.1,9.3,4.1
			c-0.3,0-0.5,0-0.8,0c0.3,0.3,0.8,0.2,1,0.2h-0.3c0.3,0,0.5,0.3,0.8,0.3c0.2,0,0.4,0.1,0.5,0.1c0.1,0,0.2,0,0.2,0
			c-0.1,0-0.3-0.1-0.4-0.1c0.2,0.1,0.5,0.1,0.8,0.2c0.3,0.1,0.6,0.2,0.9,0.3c-0.1,0-0.2,0-0.3,0c-0.4-0.2-0.7-0.2-1-0.2
			c1,0.2,0.2,0.1,0.7,0.3c0.4,0.1,0.6,0.1,0.8,0.1c0.2,0,0.2-0.1,0.1-0.1c0.4,0.1,0.7,0.2,1,0.2c0.3,0,0.6,0.1,1,0.1l-0.2,0.1
			c0,0,0.2,0,0.4,0c0.1,0,0.2,0,0.3,0c0.1,0,0.1,0,0.1,0s-0.2,0-0.3,0c-0.2,0-0.3,0-0.3,0c0.4,0.1,0.6,0.1,0.7,0.1
			c0.1,0,0.2,0,0.2-0.1c0.1-0.1,0.2-0.1,1,0c0.4,0,0.8,0,1.2,0c0.7-0.5,1.3,0.2,2,0c-0.2-0.2-0.4-0.2-0.6-0.3c1.2,0,2.1,0.2,3.3,0
			c-0.5-0.5-0.7,0-1.3,0c0.7-0.5,1.8,0,2.5-0.5c0,0,0,0.1,0,0.1c0.1,0,0.2-0.1,0.3-0.1l0,0.3c0.3-0.7,1-0.5,1.5-0.6
			c-0.2,0.1-0.4,0.2-0.5,0.3c0.5-0.3,0.7-0.3,1.2-0.3c-0.1,0-0.3,0.1-0.4,0.2c0.3-0.1,0.7-0.2,1-0.4c0,0-0.1,0-0.1,0
			c0.7-0.5,1.5-1.1,2.5-1.3L51.3,64c0.9-0.9,2.2-0.8,3-1.6c0.8-0.3,1.5-0.9,2.1-1.7c0.1,0.1,0.3,0.1,0.2,0.3c0.7-1.1,2-1.8,3-2.9
			v0.3c0.2-0.3,0.7-0.8,1-1.1l-0.2,0c0.7-0.3,1.2-1.1,1.8-1.6c0.5-0.6,1-1.2,1.4-1.9c0.9-1.3,1.6-2.8,2.5-4.1
			c-0.2,0.3-0.2,0.3-0.5,0.5c0.4-0.4,0.5-1,0.7-1.4c0,0,0,0.1,0,0.1c1-1.6,1.5-3.4,1.9-5.2L67.9,44c0.2-0.5,0.2-1,0.5-1.5
			c0.1-0.4,0.2-0.8,0.3-1.2c0.1-0.4,0.2-0.8,0.3-1.2c0-0.2,0.1-0.4,0.1-0.7c0-0.2,0.1-0.5,0.1-0.7l0,0.1c0.1-0.6,0.1-1.1,0.1-1.6
			l0,0.3c0.3-1.5,0.3-3.1,0.3-4.7c-0.2-3.3-1-6.6-2.5-9.5C66.5,22,65.9,20.7,65.1,19.5"/>
		<path class="st31" d="M13.4,50.7c-0.1-0.1-0.1-0.1-0.3-0.3c0.2,0.2,0.2,0.3,0.3,0.5h0.1C13.5,50.9,13.4,50.8,13.4,50.7"/>
		<path class="st31" d="M11,26.2c-0.3,0.2-0.3,0.4-0.2,0.6c0.1-0.2,0.1-0.3,0.2-0.5C11,26.3,11,26.2,11,26.2"/>
		<path class="st3" d="M7.7,29.9l0,0.1c-0.1,0.5-0.3,1-0.4,1.2c0.1-0.1,0.2-0.3,0.4-0.6C7.6,30.5,7.6,30.4,7.7,29.9
			c0.1-0.2,0.1,0.1,0.1,0.1C7.8,29.8,7.8,29.3,7.7,29.9 M8.1,28C8.1,28,8.1,28,8.1,28C8.1,28,8.1,28,8.1,28L8.1,28z M19.8,11.1
			c-0.2,0.1-0.3,0.2-0.4,0.2C19.4,11.3,19.5,11.3,19.8,11.1 M34.3,4.3c0.1,0,0.1,0,0.1,0C34.4,4.2,34.4,4.2,34.3,4.3 M32.2,4.7
			c0,0-0.1,0-0.1,0C32.1,4.7,32.2,4.7,32.2,4.7 M57.9,9.2C57.9,9.1,57.8,9.1,57.9,9.2C57.5,9,57.7,9,57.9,9.2 M7.2,38.6L7.2,38.6
			c0,0.5,0.1,0.8,0,0.3C7.2,38.8,7.2,38.7,7.2,38.6 M7.3,31.2C7.3,31.2,7.3,31.3,7.3,31.2C7.2,31.3,7.3,31.3,7.3,31.2 M70.6,28.3
			L70.6,28.3C70.6,28.3,70.6,28.3,70.6,28.3L70.6,28.3z M70.5,28.3l-0.2-0.4C70.5,28.5,70.5,28.2,70.5,28.3 M7.8,28.7
			c0,0.2,0.1,0.4,0.1,0.4c0-0.5,0.1-0.8,0.2-1.2l-0.4,0.3C7.7,28.3,7.7,28.5,7.8,28.7 M70.2,43.4c0-0.1,0-0.1,0-0.1
			C70.2,43.3,70.2,43.3,70.2,43.4 M70.5,42.3l0.1-0.4C70.5,42.1,70.5,42.2,70.5,42.3 M8.6,46.6c0-0.2-0.1-0.4-0.2-0.7L8.6,46.6z
			 M7,34c0,0,0,0.1,0,0.2c0,0.1,0,0.3,0,0.4c0,0.3,0,0.6,0,0.6l0.1-0.6l-0.1,0C7.1,34,7,34.1,7,34 M7.8,29.2c0-0.3-0.2,0.2-0.1-0.5
			C7.6,29.1,7.5,30,7.8,29.2 M20.7,62.1L20.7,62.1C20.8,62.1,20.8,62.1,20.7,62.1 M22.7,63.2c0.2,0.1,0.3,0.2,0.3,0.3
			C23,63.5,23,63.4,22.7,63.2 M41,68c0.1,0,0.2,0,0.2,0C41.1,68,41,68,41,68 M35.8,67.8l0.4-0.1C35.6,67.6,35.9,67.7,35.8,67.8
			 M35.8,67.8L35.8,67.8C35.8,67.8,35.8,67.8,35.8,67.8L35.8,67.8z M69.8,44.8L69.8,44.8C69.8,44.7,69.8,44.7,69.8,44.8 M30.1,5.5
			C30.1,5.5,29,6,30,5.6C30.1,5.6,30.9,5.3,30.1,5.5 M7.8,30C7.8,30.1,7.8,30.2,7.8,30C7.8,30,7.8,30,7.8,30 M47.5,4.6
			c0.1,0,0.2,0.1,0.3,0.1l0-0.1C47.4,4.5,47.1,4.5,47.5,4.6 M30.6,66.4c-0.2-0.1-0.5-0.1-0.7-0.2C30.4,66.4,30.6,66.6,30.6,66.4
			 M40.5,3.7l0.8,0l-0.2,0L40.5,3.7z M7.1,40.3C7.1,40.3,7.1,40.3,7.1,40.3c0,0.2,0.1,0.3,0.1,0.4c0-0.1,0-0.1,0-0.2
			C7.1,40.4,7.1,40.3,7.1,40.3 M71.2,37.1c0-0.4,0-0.7,0-1c0,0,0,0.2-0.1,0.4c0,0.1,0,0.2,0,0.3c0,0.1,0,0.1,0,0.1
			c-0.1-1,0-1.7-0.2-1c0.1,0,0.1,0.3,0.1,0.6c0,0.3,0,0.7-0.1,1.1c0,0.2,0,0.4,0,0.6c0,0.2,0,0.4,0,0.5c0,0.3,0,0.5,0.1,0.6
			c0,0,0,0,0,0c0,0,0,0,0,0c0,0,0,0,0,0c0,0,0,0,0,0c0,0,0,0,0,0c0,0,0,0.1,0,0.2c0,0,0,0.1,0,0.1c0,0.1-0.1,0.3-0.1,0.3
			c0-0.2,0-0.2,0-0.3c-0.1,0.5-0.1,0.7-0.1,1c0,0,0,0,0,0.1c0,0,0,0.1,0,0.1c-0.1,0.4-0.1,0.7-0.1,0.9l0.2-0.7v0
			c-0.1,0.4-0.1,0.8-0.2,1.2c-0.1,0.3-0.2,0.4-0.1,0.1c0,0,0,0.3-0.1,0.5c0,0.3-0.1,0.5-0.1,0.5c-0.1,0.3-0.1,0.2-0.1,0
			c0,0.2-0.1,0.4-0.2,0.7c-0.1,0.2-0.1,0.4-0.1,0.6c0,0.1-0.1,0.2-0.1,0.2l0,0c0,0.1,0,0.3-0.1,0.5c0,0.1-0.1,0.3-0.1,0.4
			c0,0,0,0,0,0c0,0,0,0,0,0.1c-0.1,0.3-0.2,0.6-0.3,0.9c0-0.1,0.1-0.6,0.3-1.1c-0.6,0.7-0.2,0.8-1,2.4c0,0,0,0,0-0.1
			c0-0.1,0.1-0.2,0.1-0.3c0.1-0.2,0.1-0.4,0.1-0.4c-0.4,0.4-0.6,1.1-1.1,1.9c0.1-0.2,1-1.7,0.7-0.7c-0.1,0.2-0.3,0.6-0.5,1.1
			c-0.1,0-0.3,0.4-0.6,1l-0.1-0.1c-0.3,0.7-0.2,0.6-0.3,1c-0.4,0.7-0.6,0.8-0.8,0.9c-0.7,1.1,0.6-0.6-0.1,0.6
			c-0.6,0.9-1,1.5-1.6,2.6c-0.5,0.5,0-0.2-0.2,0L64,56.1c-0.1,0.1-0.1,0.1-0.1,0c-0.1,0.2-0.1,0.3-0.1,0.3c-0.2,0.2-0.4,0.5-0.5,0.7
			c-0.3,0.5-0.7,0.8-1.1,1.1c-0.1,0.1-0.1,0.2-0.1,0.2c-0.2,0.2-0.4,0.4-0.5,0.6c-0.2,0.2,0-0.2-0.1-0.1c-0.3,0.3-0.4,0.6-0.6,0.7
			c-0.2,0.2-0.4,0.4-0.7,0.6c0.1-0.1,0.1-0.1,0.2-0.2c-0.5,0.4-0.8,0.9-1.4,1.2c-0.2,0.4-0.7,0.6-0.7,0.8c0,0,0.1-0.1,0.2-0.1
			c0,0,0.1-0.1,0.1-0.1c0.1,0,0.1,0,0.1,0c0.1-0.1,0-0.1-0.1,0c0.1-0.1,0.2-0.2,0.3-0.2c0,0,0,0,0,0c0.1-0.1,0.2-0.1,0.2-0.1
			c-0.1,0.1-0.3,0.3-0.4,0.4c0,0,0,0,0,0c-0.1,0.1-0.2,0.2-0.3,0.3c0.1-0.1,0.1-0.1,0-0.1c0,0-0.1,0.1-0.3,0.3l-0.2,0c0,0,0,0,0,0
			l-0.1,0l0,0.1c0,0-0.1,0.1-0.2,0.2c-0.1,0.1-0.3,0.2-0.5,0.3c0,0-0.1,0-0.1,0.1c0.4-0.3,1.4-1,1.9-1.6c-0.4,0.2-1.2,1.1-1,0.7
			c-0.3,0.6-1.3,0.9-2,1.7v-0.1c-0.1,0.1-0.4,0.3-0.7,0.5l0.4-0.4c-0.3,0.3-0.7,0.5-1.1,0.7c-0.4,0.2-0.7,0.3-1.1,0.5
			c1.4-0.8,0.6-0.2,0.9-0.3c-0.1,0.1-0.2,0.1-0.3,0.2c-0.1,0.1-0.2,0.1-0.3,0.2c-0.4,0.2-0.6,0.3-0.8,0.3c-0.2,0-0.3,0.1-0.6,0.2
			c-0.2,0.1-0.6,0.2-1,0.4c0.1-0.1,0.3-0.1,0.5-0.2c0.2-0.1,0.3-0.1,0.1,0.1c-0.4,0.2-1,0.3-1.3,0.4c-1.5,0.6,0.3,0-0.3,0.3
			c-0.6,0-0.7,0.3-1.4,0.6l0-0.1c-0.9,0.2-1,0.3-1.1,0.4c0,0,0,0,0,0c-0.2,0.1-0.4,0.1-0.6,0.2c0,0,0,0,0,0c0.2-0.1,0.3-0.2,0.3-0.2
			s-0.2,0.1-0.4,0.1l-0.4,0.1l0.1-0.2c-0.4,0.1-0.7,0.2-1,0.3c-0.3,0.1-0.6,0.1-1,0.1c0.2,0,0,0.2-0.6,0.3c0-0.1,0.1-0.1,0.1-0.2
			c0,0-0.2,0.1-0.4,0.2c0,0-0.1,0-0.1,0c-0.4,0,0.2-0.1-0.6,0c0,0,0.1-0.1,0.1-0.1c0,0,0,0,0,0c0.2,0,0.4-0.1,0.7,0
			c0,0,0.2-0.1,0.3-0.2c-0.6,0-1.5,0.1-1.9,0.2c0.2,0,0.3,0,0.4,0c0,0-0.1,0-0.2,0.1c-0.2,0-0.4,0.1-0.6,0.1c0,0-0.1,0-0.1,0
			c-0.1,0-0.2,0-0.3,0c-0.1,0-0.3,0-0.4,0c0,0,0.1,0,0.2,0c-0.3,0-0.6,0.1-1,0.1c0.1-0.1,0.1-0.2,0.6-0.2c0,0,0,0,0,0
			c-0.1,0-0.3,0-0.5,0c-0.4,0-0.8,0.1-0.8,0.1c-0.1,0-0.8-0.1-0.6-0.2c-0.4-0.1-1,0-1.5,0c-0.3,0-0.6,0-0.9,0c-0.1,0-0.3,0-0.4,0
			c-0.1,0-0.3,0-0.4-0.1c-0.1,0-0.2,0-0.4,0c-0.2,0-0.4-0.1-0.6-0.1c0,0,0,0-0.1-0.1c-0.4-0.1-0.5-0.1-0.6-0.1c-0.1,0-0.2,0-0.2-0.1
			c-0.3-0.1-0.5-0.1-0.8-0.2c-0.3-0.1-0.6-0.1-0.9-0.2l-0.4-0.2c0.1,0,0.1,0,0.2,0c0,0-0.1,0-0.2-0.1l-0.2-0.1
			c-0.2-0.1-0.3-0.1-0.3,0c-0.1,0-0.2-0.1-0.3-0.1l-1-0.3c0,0.2-1.3-0.3-1.5-0.2c-0.1,0-0.2-0.1-0.3-0.1c0,0,0.1,0,0.1,0
			c-0.1,0-0.3-0.1-0.5-0.1c-0.1-0.1-0.2-0.1-0.3-0.2c0.3,0.1,0.6,0.2,0.9,0.3l-0.7-0.4c1,0.2,1.6,0.5,1,0.1
			c-0.1,0.1-0.9-0.1-1.6-0.4c-0.7-0.3-1.4-0.6-1.6-0.5c0,0-0.1,0-0.1-0.1c-0.1,0-0.2-0.1-0.3-0.2c0.1,0,0.1,0,0.2,0.1
			c-0.2-0.1-0.3-0.2-0.4-0.3c-0.2-0.2-0.4-0.3-0.4-0.3c0,0.1,0.1,0.1,0.1,0.2c-0.1,0-0.1,0-0.2,0c-0.2,0-0.5-0.1-1.1-0.4
			c-0.1-0.1-0.2-0.1-0.2-0.2c0.1,0,0.1,0,0-0.1l0.2,0.1c-0.1,0-0.1-0.1-0.2-0.1c0,0,0,0,0,0c0,0,0,0,0,0c-0.1,0-0.1,0-0.1-0.1
			l0.1,0.1c0,0-0.1,0-0.2-0.1c-0.1-0.1,0-0.1,0.1,0c0,0-0.2-0.1-0.4-0.2c0,0,0.1-0.1-0.4-0.3c-0.1,0-0.2,0-0.3-0.1
			c0,0-0.1,0-0.1-0.1c-0.2-0.1-0.4-0.3-0.3-0.2c0,0,0,0-0.1,0c-0.2-0.1-0.3-0.2-0.5-0.3c-0.1-0.1-0.2-0.1-0.2-0.1h0l0,0c0,0,0,0,0,0
			c-0.1-0.1-0.2-0.1-0.3-0.2c0,0,0,0.1,0,0.1c-0.2-0.1-0.5-0.2-0.6-0.3c-0.3-0.3,0.2,0.1,0.1,0c0,0-0.2-0.1-0.4-0.2
			c-0.2-0.1-0.4-0.2-0.4-0.2c-0.2-0.3,0.4,0.1,0.9,0.5c-0.3-0.4-0.4-0.5-0.7-0.6c-0.1-0.1-0.3-0.2-0.5-0.3c-0.2-0.2-0.5-0.4-0.8-0.7
			c0,0,0.2,0.1,0.3,0.3c0.2,0.1,0.3,0.2,0.3,0.2c-0.2-0.2-0.4-0.5-0.6-0.7c-0.2-0.3-0.6-0.5-0.9-0.9c0.1,0.2,1.2,1.5,0.5,0.9
			c-0.2-0.2-0.5-0.4-0.9-0.8c0.1-0.1-0.3-0.4-0.8-0.9l0.1-0.1c-0.5-0.5-0.5-0.4-0.9-0.6c-0.1-0.2-0.2-0.3-0.3-0.4
			c0,0,0.1,0.1,0.2,0.2c0.2,0.2,0.4,0.4,0.2,0.1c0,0-0.3-0.2-0.5-0.4c0,0,0,0,0,0c-0.1-0.2-0.1-0.3-0.2-0.5c-0.8-1,0.4,0.8-0.6-0.3
			c-0.2-0.2-0.3-0.4-0.5-0.6c-0.1-0.2-0.3-0.4-0.4-0.5c-0.3-0.4-0.6-0.7-1-1.2c-0.3-0.5,0-0.2,0-0.1c0,0,0,0.1,0,0.2l0.1-0.1
			l-0.3-0.3c0,0.1,0.1,0.1,0.1,0.1l-0.4-0.4c-0.1-0.1,0-0.1,0-0.1c-0.1-0.2-0.2-0.2-0.2-0.2c-0.1-0.2-0.3-0.5-0.4-0.7
			c-0.3-0.5-0.5-1-0.8-1.5c-0.1-0.3-0.2-0.5-0.3-0.7c0,0,0,0,0,0c0,0,0,0,0-0.1c-0.1-0.2-0.2-0.4-0.3-0.6c-0.2-0.3-0.4-0.8-0.4-0.5
			l0.1,0.2c-0.2-0.4-0.3-0.5-0.7-1.2c0,0-0.1-0.2-0.1-0.4c0,0,0,0,0,0s0,0,0,0c0,0,0,0,0-0.1c0-0.1-0.1-0.3-0.1-0.3
			c0-0.1,0-0.2,0-0.2c0,0.2,0,0.3,0,0.3c-0.1-0.2-0.1-0.5-0.2-0.8c0,0,0,0,0-0.2c0,0.1,0,0.1,0,0.1c-0.1-0.3-0.1-0.6-0.2-0.8l0-0.2
			L8.1,45c0,0-0.1-0.4-0.2-0.9c-0.1-0.2-0.1-0.4-0.1-0.6c0-0.2,0-0.3,0-0.3c-0.1-0.3-0.2-0.6-0.3-0.9c-0.1-0.3-0.2-0.6-0.3-0.9
			c0-0.2,0-0.6,0-0.9c0-0.1,0-0.1,0-0.2c0,0.2,0.1,0.3,0.1,0.5c0,0.1,0.1,0.3,0.1,0.5c0,0.1,0,0.2,0,0.3c0-0.2,0.1,0.1,0.2,0.4
			c0.1,0.3,0.2,0.7,0.3,0.6c0,0-0.1-0.2-0.1-0.4c-0.1-0.2-0.1-0.4-0.1-0.4c0,0,0.1,0.3,0.1,0c-0.1,0-0.3-0.9-0.3-1.6
			c-0.1-0.4-0.2-0.4-0.3-0.3C7,39.7,7,39.5,7,39.5C7,39.5,7,39.4,7,39.3c0-0.2,0-0.4,0-0.6c-0.1,0.2-0.2-0.1-0.2-0.5
			c0,0,0-0.1,0.1-0.1c0-0.7-0.1-0.7-0.1-0.9c0-0.2,0-0.4,0-0.5c0.1,0,0.2,0.1,0.2,1.1c0.2-1-0.3-1.3-0.1-2.3c0,0.2,0,0.3,0,0.4
			c0-0.3,0-0.7,0-1.1c0-0.3,0.1-0.6,0.1-0.4l0,0.2C6.9,34,7,33.6,7,33.1c0.1-0.5,0.1-1,0.2-1.5c0.1-0.5,0.1-0.9,0.2-1.3
			c0-0.3,0.1-0.6,0-0.6c0,0,0.2,0.2,0.2,0.3c0,0,0-0.7,0-1.4l0-1.4c0.1,0.3,0.8-0.5,0.5,0.8c0.1-0.2,0.1-0.4,0.2-0.6
			c0.1-0.2,0.2-0.5,0.3-0.9c-0.1,0.1-0.2,0.3-0.3,0.3c0,0,0-0.1,0-0.1c0-0.1,0-0.1,0-0.2c0.3-0.6,0.2-0.5,0.7-1.4
			c-0.2,0.3-0.3-0.2-0.1-0.7c0,0.1,0.3,0.1,0.2,0.3c0,0,0-0.1,0-0.2c0-0.1,0.1-0.3,0.1-0.5c0.1-0.4,0.2-0.7,0.2-0.7
			c-0.1,0.3,0.2,0.2,0.4-0.1c-0.1,0.1,0.6-1.1,0.7-1.4c0,0-0.1,0.1-0.2,0.3c-0.1,0.1-0.2,0.3-0.2,0.3c0-0.1,0.1-0.1,0.1-0.2
			c0,0,0-0.1,0-0.1l0-0.1c0.1-0.2,0.2-0.4,0.3-0.6c0.1-0.2,0.2-0.4,0.2-0.6c0-0.1,0-0.2,0.1-0.3c0.1-0.2,0.2-0.4,0.4-0.6l0.1-0.1
			l0.1-0.4c0,0,0-0.1,0.1-0.1c-0.1,0.2,0,0.6,0.5-0.1c0-0.2,0.1-0.5,0.3-1l0.1-0.2l0-0.1l-0.1,0.2c0.2-0.5,0.4-1,0.7-1.6
			c0.1-0.1,0.2-0.2,0.3-0.3l0.2-0.1l0.4-0.6c0.1-0.1,0.1-0.1,0.2-0.2c-0.3,0.7-1.1,2.4-1.5,3.3c0.4-0.4,0.2-0.1,0.7-0.8
			c0.3-0.2-0.2,0.5-0.3,0.7c0,0,0.3-0.4,0.6-0.8c0.2-0.2,0.3-0.4,0.4-0.6c0.1-0.2,0.2-0.2,0.2-0.2c-0.2,0,0.9-1.3,0.8-1.4
			c0,0-0.1,0.1-0.2,0.3c-0.1,0.2-0.3,0.4-0.5,0.6c-0.2,0.2-0.3,0.5-0.4,0.6c-0.1,0.2-0.2,0.3-0.2,0.3c-0.1,0,0-0.4,0.3-0.8
			c0.3-0.5,0.7-1.1,1.2-1.6c0.3-0.2,0,0.4,0.1,0.4c0.1-0.2,0.9-1.1,1-1.2c0,0-0.1,0.1-0.2,0.3c-0.1,0.1-0.2,0.3-0.2,0.3
			c0.3-0.3,0.5-0.5,0.7-0.8c0.2-0.3,0.5-0.6,0.9-0.8c0.3-0.2,0.9-0.5,0.9-0.6c-0.1,0.1-0.3,0.1-0.4,0.1c0.2-0.4,0.7-0.7,1.2-1.1
			c0,0,0.1,0,0.1-0.1c0,0,0,0,0.1,0c0,0,0.1-0.1,0.1-0.2c0.1-0.1,0.2-0.2,0.3-0.2c0.1,0,0,0.1,0.4-0.2c0-0.2,1-0.7,0.5-0.5
			c0-0.1,0.1-0.1,0.1-0.2c0.3-0.2,0.5-0.3,1-0.6c-0.1,0-0.1,0,0-0.2c0,0,0.1-0.1,0.1-0.1L22,9.2c0.2-0.2,0.4-0.3,0.7-0.5
			c0.2-0.1,0.4-0.3,0.6-0.4c0.4-0.2,0.7-0.5,1.1-0.6C25,7.4,25.8,7,26.8,6.6c0.2,0,0.8-0.2,0.5-0.1c0.2-0.1,0.3-0.2,0.8-0.4
			c0.9-0.2-0.9,0.4-0.2,0.3c0-0.1,1-0.6,1.6-0.8c-0.2-0.1-1.4,0.5-2,0.8c0-0.1,0-0.1,0.1-0.2c0,0,0.1,0,0.1,0C27.8,6,27.8,6,27.8,6
			c0,0,0.1,0,0.1-0.1c0.3-0.1,0.7-0.3,1-0.4c0.1,0,0.2-0.1,0.2-0.1c0.1,0,0.2-0.1,0.4-0.1c0.1,0,0.1-0.1,0.2-0.1
			c0.1,0,0.2-0.1,0.3-0.1C30.5,5.1,30.8,5,30.9,5c0.8-0.2-0.3-0.1,0.5-0.3l0.2,0l0.2-0.1c0.3-0.1,0.5-0.1,0.6-0.1c0,0,0,0,0.1,0
			c-0.3,0.1-0.5,0.1-0.7,0.2c0.2,0,0.5-0.1,0.8-0.1c0,0,0.1,0,0.1,0c-0.1,0-0.4,0.1-0.5,0.1c0.6-0.1,1.7-0.4,2.1-0.4
			c-0.1,0-0.2,0-0.3,0c-0.2,0-0.4,0.1-0.4,0.1c0.1,0,0.2,0,0.2-0.1c0.1,0,0.2,0,0.3,0C34.7,4.2,35.3,4,35.8,4c0.3,0,0.5-0.1,0.8-0.1
			c0.3,0,0.5,0,0.7,0c0.2,0,0.4-0.1,0.6-0.1c1-0.1,2.1-0.1,3-0.1l-0.2-0.1c0.8,0,1.1,0,1.5,0.1L42,3.7l0.5,0.1l-0.1-0.1
			c0.2,0,0.3,0,0.6,0.1c0.3,0,0.6,0.1,1,0.1l-0.1,0c0.1,0,0.2,0,0.2,0c-0.1,0-0.2,0-0.2,0.1c0,0,0.2,0,0.4,0c0.2,0,0.4,0,0.4,0
			c0,0-0.3,0-0.1,0.1c0,0,0.3-0.1,0.6,0c0.2,0.1,0.6,0.2,0.2,0.2c0.5,0.1,0.7,0.1,0.9,0.1c0.2,0,0.3,0,0.4,0c0.2,0,0.2,0,0.8,0
			l0.2,0.2c0.4,0,0.5,0,1.4,0.2c-0.8-0.2,0.5,0.3-0.3,0.2c0.5,0.2,0.8,0.3,1.2,0.5c0.4,0.1,0.7,0.2,1,0.3c0.3,0.1,0.5,0.2,0.8,0.3
			c0.2,0.1,0.4,0.2,0.6,0.4c0.5,0.1,0.1-0.1-0.3-0.3c-0.4-0.2-0.9-0.4-0.7-0.3c-0.2-0.1,0-0.1,0.3,0c0.3,0.1,0.7,0.2,1,0.4
			c0.3,0.1,0.5,0.3,0.8,0.6c0.2,0.1,0.3,0.3,0.6,0.4c0.2,0.1,0.5,0.3,0.9,0.5c-0.1-0.1-0.2-0.1-0.3-0.1c0.2,0.2,0.5,0.3,0.8,0.4
			c0.1,0.1,0.3,0.1,0.4,0.2c0.1,0.1,0.3,0.2,0.4,0.3c0.4,0.1,0.8,0.5,1,0.4L56,8c0.4,0.2,0.7,0.3,1.2,0.5c0.4,0.2,0.9,0.5,1.4,0.9
			c-0.1,0-0.5-0.2-0.7-0.3c0.3,0.3,0.7,0.4,1,0.7c-0.1,0-0.2,0-0.3-0.1c-0.2-0.1-0.4-0.2-0.6-0.4c-0.2-0.1-0.5-0.3-0.7-0.5
			c-0.2-0.1-0.5-0.3-0.7-0.3c0.2,0.1,0.5,0.3,0.8,0.5c0.3,0.2,0.4,0.3,0.2,0.2c0.3,0.1,0.7,0.3,1,0.5c0.3,0.3,0.7,0.6,1.2,0.8
			l-0.1,0.1c0.1,0.1,0.5,0.3,0.7,0.5l-0.5-0.2c0.4,0.2,0.7,0.5,1,0.8c0.3,0.3,0.6,0.6,0.9,0.8c-1.3-1.1-0.2-0.4-0.7-0.9
			c1.7,1.3,0.8,1,2.5,2.7c-0.2-0.2-0.8-0.9-0.4-0.6c0.3,0.3,0.7,0.8,0.8,1.1c1.1,1.2-0.1-0.3,0.4,0.2c0.2,0.5,0.5,0.6,1,1.1
			l-0.1,0.1c0.5,0.8,0.6,0.8,0.7,0.9c0,0,0.1,0,0.2,0.1c0.1,0.1,0.2,0.3,0.4,0.6l-0.3-0.2c-0.1-0.1-0.3-0.2-0.3-0.2s0,0,0.1,0.1
			c0.1,0.1,0.1,0.1,0.2,0.2c0.1,0.2,0.2,0.3,0.2,0.3l-0.2-0.1c0.3,0.4,0.5,0.6,0.6,0.9c0.2,0.3,0.3,0.5,0.5,0.9c0-0.1,0-0.1,0.2,0
			c0.1,0.1,0.3,0.3,0.5,0.7c0.2,0.5-0.2-0.2,0.3,0.8c-0.2-0.2-0.4-0.4-0.5-0.9c-0.1,0-0.2-0.2-0.2-0.2c0.1,0.3,0.3,0.6,0.4,0.9
			c0.2,0.3,0.3,0.6,0.4,0.8c-0.1-0.1-0.1-0.3-0.2-0.4c0,0,0.1,0.1,0.1,0.2c0.1,0.1,0.2,0.3,0.3,0.5c0.1,0.1,0.1,0.2,0.2,0.3
			c0,0.3,0.1,0.6,0,0.6c0,0,0.1,0.1,0.1,0.1c0,0,0.2,0.4,0.3,0.7c0.1,0.2,0.1,0.5,0.2,0.8c0.1,0.2,0.1,0.4,0.2,0.6c0,0,0,0,0,0
			c0.1,0.2,0.1,0.4,0.2,0.7c0.1,0.2,0.1,0.4,0.2,0.6c0,0,0,0,0,0c0,0,0,0.1,0.1,0.1c0,0,0,0,0,0c0.1,0.3,0.2,0.5,0.3,0.8
			c0,0.2,0.1,0.3,0.1,0.5h0h0c0,0.1,0,0.2,0.1,0.4c0,0,0,0.1,0.1,0.2c0,0.1,0,0.1,0,0.2c0,0.1,0,0.2,0,0.2c0.1,0.5,0.1,0.9,0.2,1.4
			c0.1,0.5,0.1,1.1,0.2,1.8L71,32.8c0.1,0.7,0.1,0,0.2,0c0,0,0,0.1,0,0.1c0,0.3,0,0.6,0,0.9l0.1-0.2c0,0.2,0,0.4,0,0.5
			c0,0.2-0.2-0.1-0.2,0.2C71.3,35,71.4,36,71.2,37.1 M68.5,48.4c0.1-0.2,0.2-0.7,0.3-0.9C68.9,47.9,68.7,48,68.5,48.4 M59.1,61.5
			c0,0-0.1,0.1-0.2,0.1c0.2-0.2,0.5-0.4,0.5-0.4C59.4,61.3,59.2,61.4,59.1,61.5 M57.2,63.1C57.2,63.1,57.2,63.1,57.2,63.1
			c0,0,0.1-0.1,0.1-0.1C57.3,63.1,57.3,63.1,57.2,63.1 M31.1,66.9c-0.1-0.1,0-0.1,0.1-0.1c0.1,0,0.1,0.1,0.2,0.1
			C31.4,67,31.3,66.9,31.1,66.9 M30.3,66.8c-0.3-0.1-0.2-0.1-0.2-0.2c0.3,0.1,0.5,0.1,0.5,0.1C30.6,66.7,30.5,66.8,30.3,66.8
			 M17.7,59.8c0.2,0.1,0.6,0.4,0.7,0.6C18.1,60.3,18,60.1,17.7,59.8 M11.2,52.3c-0.1,0-0.2-0.2-0.3-0.5c0,0,0,0,0,0
			c0.2,0.3,0.3,0.5,0.4,0.8C11.4,52.5,11.3,52.4,11.2,52.3 M8.4,46.7c0-0.1-0.1-0.2-0.1-0.3l0.1-0.2c0,0,0,0.2,0.1,0.4
			c0,0.1,0.1,0.3,0.1,0.4C8.5,46.9,8.5,46.8,8.4,46.7 M7.9,45.8c0,0,0,0,0-0.1c0,0,0,0,0,0C7.9,45.7,7.9,45.8,7.9,45.8
			C7.9,45.8,7.9,45.8,7.9,45.8 M7.8,45.1C7.8,45.1,7.8,45.1,7.8,45.1L7.8,45.1C7.8,45.1,7.8,45.1,7.8,45.1 M7.6,44.1
			c0,0.1,0.1,0.3,0.1,0.4c0,0.1,0,0.1,0,0.2C7.7,44.5,7.7,44.3,7.6,44.1 M7.9,46.3c0-0.1-0.1-0.3-0.1-0.4c0-0.1,0-0.2-0.1-0.3
			c0,0,0,0.1,0,0.1c0-0.2-0.1-0.3-0.1-0.5c0,0,0.1,0.1,0.1,0.2c0-0.1-0.1-0.2-0.1-0.2c0-0.2,0-0.3,0-0.3c0,0.1,0,0.2,0.1,0.2
			c0,0.1,0.1,0.3,0.1,0.4c0,0-0.1-0.1-0.1-0.1c0,0.1,0.1,0.2,0.1,0.3c0,0.1,0.1,0.2,0.1,0.2C7.9,46,8,46.3,8,46.4
			C8,46.4,8,46.4,7.9,46.3 M6.9,40.7c0,0,0.1,0.2,0.2,0.7C7,41.2,6.9,40.9,6.9,40.7 M6.8,40.3C6.8,40.3,6.8,40.3,6.8,40.3
			c0-0.2,0-0.3,0-0.5c0-0.3,0-0.5-0.1-0.7c0.1,0,0.1-0.2,0.2-0.1c-0.1,0.3,0,0.6,0.1,1c-0.1,0.1-0.1,0.3-0.1,0.5
			C6.8,40.5,6.8,40.4,6.8,40.3 M6.7,39.6c0-0.2-0.1-0.4-0.1-0.7c0,0.1,0.1,0.2,0.1,0.2C6.7,39.3,6.7,39.5,6.7,39.6 M7.6,27.1
			L7.6,27.1L7.6,27.1z M8.2,26.6c0-0.1,0.1-0.1,0.1-0.2c0,0.1,0,0.2-0.1,0.3C8.2,26.8,8.2,26.8,8.2,26.6 M11.5,19.4
			c-0.1,0.2-0.2,0.4-0.3,0.6C11.3,19.9,11.4,19.7,11.5,19.4 M17.5,11.9C17.6,11.8,17.6,11.8,17.5,11.9
			C17.6,11.8,17.6,11.9,17.5,11.9C17.5,11.9,17.5,11.9,17.5,11.9 M20.8,10.1C20.8,10.1,20.7,10.2,20.8,10.1
			c-0.1,0.1-0.2,0.2-0.3,0.2C20.6,10.2,20.7,10.1,20.8,10.1 M69.1,23.5c-0.1-0.1-0.1-0.2-0.2-0.4C69,23.2,69.1,23.3,69.1,23.5
			 M39.2,2C20.4,2,5.2,17.2,5.2,36.1c0,18.8,15.3,34.1,34.1,34.1c18.8,0,34.1-15.3,34.1-34.1C73.3,17.2,58,2,39.2,2 M70.5,41.6
			c0,0,0-0.1,0.1-0.1c0-0.1,0.1-0.1,0.1-0.1l-0.2,0.1L70.5,41.6z M71,33.8c0,0.3,0,0.7,0,1C71,34.1,71.1,33.7,71,33.8 M67.5,50
			c0.1-0.1,0.2-0.2,0.3-0.5L67.5,50L67.5,50z M32.2,4.8l0,0.2l0.4-0.1C32.3,4.8,32.3,4.8,32.2,4.8 M8.8,47.1
			c-0.1-0.2-0.2-0.5-0.2-0.6C8.6,46.6,8.7,46.9,8.8,47.1 M9,47.7c-0.1-0.2-0.1-0.4-0.1-0.4c0,0-0.1-0.1-0.1-0.2
			C8.9,47.4,9,47.6,9,47.7c0.1,0.3,0.1,0.4,0.1,0.4c0,0,0,0,0-0.1C9.1,47.9,9.1,47.8,9,47.7 M8,44.4l0.2,0.3L8,44.2L8,44.4z
			 M8.4,45.5l0.2,0.6l-0.2-0.8L8.4,45.5z M13.7,55.5c0.1,0.1,0.9,0.9,0.2,0.1C13.8,55.5,13.3,54.8,13.7,55.5 M11.5,20.2
			c0-0.1,0.1-0.2,0.1-0.3C11.6,20,11.6,20.1,11.5,20.2 M11.5,20.2c-0.3,0.6-0.5,0.8-0.2,0.7c0.6-0.9,0-0.3,0.6-1.1
			C12,19.5,11.5,20.4,11.5,20.2 M23.5,63.6l0.2,0.3l-0.1-0.2L23.5,63.6z M16.5,58.3c0,0.1,0.2,0.2,0.4,0.4L16.5,58.3L16.5,58.3z"/>
		<path class="st33" d="M58.4,19.2c-0.2,0-0.4,0-0.7-0.1c-0.3-0.2-0.5-0.5-0.6-0.9c-0.6-1.6-1.8-8,0-11.1c1-1.8,3-2.9,4.9-2.9
			c0.7,0,1.3,0.2,1.9,0.4c0.8,0.4,1.4,1.1,1.8,2c0.6-0.3,1.3-0.4,2.1-0.4c2.2,0,4.3,1.4,5,3.5c0.9,2.7-0.5,5.9-3.1,7.2
			C66.1,18.5,59.8,19.2,58.4,19.2"/>
		<path class="st1" d="M61.9,3.3L61.9,3.3c-2.2,0-4.4,1.4-5.6,3.4c-1.9,3.3-0.8,9.9,0,11.9c0.1,0.3,0.3,0.9,0.9,1.3
			c0.4,0.3,0.9,0.3,1.2,0.3c1.5,0,7.9-0.7,11.6-2.4c3-1.4,4.6-5.1,3.5-8.2c-0.8-2.4-3.2-4.1-5.8-4.1c-0.6,0-1.1,0.1-1.6,0.2
			c-0.4-0.8-1.1-1.4-1.8-1.7C63.5,3.5,62.7,3.3,61.9,3.3 M61.9,4.9c0.5,0,1.1,0.1,1.6,0.4c1,0.5,1.5,1.5,1.6,2.5
			c0.2-0.1,0.5-0.3,0.7-0.4C66.4,7.1,67,7,67.7,7c1.8,0,3.6,1.2,4.2,3c0.8,2.3-0.4,5.1-2.6,6.2c-3.4,1.6-9.6,2.3-10.9,2.3
			c-0.2,0-0.2,0-0.3,0c-0.6-0.2-2.2-7.7-0.3-10.9C58.6,6,60.3,4.9,61.9,4.9"/>
		<path class="st34" d="M64.5,10.5c-1.9,3.1-6.2,7.9-6.3,7.9c-0.6-0.2-2.2-7.7-0.3-10.9c1.1-1.9,3.6-3.2,5.7-2.2
			C65.4,6.2,65.4,8.9,64.5,10.5"/>
		<path class="st33" d="M69.3,16.1c-3.8,1.8-11.1,2.4-11.2,2.3c-0.4-0.6,3.4-8.9,7.7-10.9c2.3-1.2,5.3,0.1,6.2,2.5
			C72.8,12.2,71.5,15.1,69.3,16.1"/>
	</g>
	<g>
		<polygon class="st1" points="22,39.6 22,39.8 22,40.6 22,41.7 21.9,42.2 21.9,43 21.9,43.1 21.9,43.2 21.8,43.4 21.6,43.5 
			21.4,43.7 21.3,43.9 21.2,43.9 21.1,44 21,44.1 20.8,44.2 20.6,44.3 20.4,44.4 20.2,44.4 20,44.5 19.8,44.6 19.6,44.6 19.4,44.7 
			19.1,44.7 18.9,44.7 18.8,44.7 18.3,44.8 18.1,44.8 17.7,44.8 17.4,44.8 17.3,44.7 17.1,44.7 16.9,44.7 16.5,44.5 16.3,44.5 
			16.1,44.4 15.8,44.3 15.7,44.3 15.5,44.1 15.3,44 15.1,43.9 15,43.8 14.9,43.7 14.7,43.6 14.5,43.4 14.4,43.2 14.3,43 14.2,42.9 
			13.9,42.3 13.8,42.1 13.7,41.9 13.6,41.8 13.6,41.6 13.5,41.4 13.5,41.2 13.5,41 13.4,40.7 13.4,40.5 13.4,40.3 13.4,40.1 
			13.4,39.6 13.5,39.5 13.5,39.3 13.5,39.1 13.6,38.9 13.7,38.7 13.7,38.5 13.8,38.3 13.9,38.1 13.9,37.9 14,37.7 14.2,37.5 
			14.3,37.4 14.4,37.2 14.6,37.1 14.7,36.9 15,36.7 15.2,36.5 15.3,36.4 15.5,36.3 15.9,36.1 16.1,36 16.3,35.9 16.5,35.9 
			16.7,35.8 17.1,35.7 17.5,35.7 17.6,35.6 17.8,35.6 18.1,35.6 18.3,35.6 18.6,35.6 18.7,35.6 19,35.7 19.2,35.7 19.5,35.7 
			19.6,35.8 19.9,35.9 20.1,35.9 20.5,36.2 20.7,36.3 20.9,36.4 20.9,36.4 21.1,36.5 21.2,36.6 21.2,36.7 21.4,36.8 21.5,36.8 
			21.5,36.9 21.5,37 21.5,37.1 21.4,37.2 21.3,37.3 21.2,37.5 20.8,37.8 20.6,38 20.5,38.1 20.4,38.2 20.3,38.3 20.2,38.3 
			20.1,38.3 20,38.3 19.8,38.2 19.6,38.1 19.5,38 19.3,37.9 19.1,37.8 18.9,37.8 18.7,37.7 18.1,37.7 18,37.7 17.8,37.7 17.5,37.7 
			17.3,37.8 17,37.9 16.8,38.1 16.6,38.2 16.5,38.3 16.4,38.5 16.3,38.6 16.2,38.8 16.1,39 16,39.2 16,39.3 15.9,39.7 15.9,39.9 
			15.9,40.1 15.9,40.3 15.9,40.6 15.9,40.8 16,41.1 16.1,41.3 16.2,41.6 16.3,41.7 16.4,41.9 16.5,42.1 16.7,42.3 16.9,42.4 
			17.1,42.6 17.3,42.6 17.7,42.7 17.9,42.7 18.1,42.7 18.3,42.7 18.5,42.7 18.7,42.7 19.3,42.5 19.5,42.5 19.7,42.4 19.8,42.3 
			19.9,42.2 19.9,42.1 19.9,42 19.9,41.8 19.8,41.4 19.8,41.2 19.8,41.2 19.7,41.1 19.4,41.1 19.2,41.1 18.9,41.2 18.7,41.2 
			18.4,41.2 18.2,41.2 17.8,41.1 17.7,41.1 17.7,41 17.7,40.9 17.7,40.8 17.7,40.6 17.7,40.3 17.6,39.9 17.6,39.7 17.6,39.5 
			17.7,39.3 17.7,39.3 17.9,39.3 18.2,39.2 18.4,39.2 18.9,39.2 19.7,39.2 20.7,39.2 20.9,39.2 21.4,39.2 21.6,39.2 21.7,39.2 
			21.8,39.2 21.9,39.3 22,39.3 22,39.5 		"/>
		<polygon class="st1" points="30,44 29.9,44.2 29.9,44.3 29.9,44.4 29.8,44.5 29.8,44.6 29.6,44.6 29.5,44.6 29.4,44.6 28,44.5 
			27.1,44.5 26,44.6 25.3,44.6 24.4,44.6 23.9,44.6 23.7,44.6 23.5,44.6 23.4,44.6 23.3,44.5 23.2,44.4 23.2,44.3 23.2,44.1 
			23.3,43.6 23.3,43.5 23.2,42.8 23.2,42.6 23.3,42 23.3,41.8 23.3,40.3 23.3,40.1 23.2,38.6 23.2,38.4 23.2,37.8 23.2,36.8 
			23.2,36.4 23.2,36.2 23.2,36.1 23.2,36 23.3,35.9 23.4,35.8 23.5,35.8 23.6,35.8 23.8,35.8 24.4,35.8 24.6,35.8 25.4,35.8 
			25.6,35.8 25.6,35.9 25.7,36 25.7,37 25.7,37.7 25.7,37.9 25.7,38.6 25.7,38.8 25.7,39.5 25.7,39.7 25.8,40.4 25.8,40.6 
			25.7,42.2 25.7,42.3 25.7,42.4 25.7,42.4 25.8,42.5 25.9,42.5 26.3,42.5 26.7,42.5 26.9,42.5 28.6,42.5 28.8,42.5 29.3,42.4 
			29.4,42.4 29.6,42.4 29.8,42.5 29.9,42.5 29.9,42.6 29.9,42.7 29.9,43.4 29.9,43.6 		"/>
		<polygon class="st1" points="38.4,40.3 38.4,40.7 38.4,40.9 38.4,41.2 38.4,41.3 38.3,41.6 38.3,41.8 38.3,42.1 38.2,42.3 
			38.1,42.5 38,42.7 37.9,43 37.9,43.1 37.7,43.4 37.6,43.5 37.4,43.7 37.3,43.8 37,44 36.9,44.1 36.6,44.3 36.5,44.3 36.2,44.5 
			36,44.5 35.8,44.6 35.6,44.7 35.3,44.7 35.1,44.8 34.8,44.8 34.2,44.8 33.9,44.8 33.7,44.7 33.1,44.7 32.9,44.6 32.8,44.6 
			32.6,44.6 32.5,44.5 32.3,44.4 32,44.3 31.8,44.2 31.7,44.1 31.3,43.8 31.2,43.7 31,43.5 30.9,43.3 30.7,43 30.6,42.9 30.5,42.7 
			30.5,42.5 30.4,42.3 30.3,42.1 30.3,41.9 30.2,41.7 30.2,41.5 30.2,41.3 30.1,40.9 30.1,40.7 30.2,39.9 30.2,39.7 30.1,39 
			30.1,38.8 30.2,38.1 30.2,36.9 30.2,36.5 30.2,36.3 30.2,36.1 30.2,35.9 30.3,35.8 30.5,35.8 30.8,35.8 31.3,35.8 31.5,35.8 
			31.9,35.8 32.1,35.8 32.4,35.8 32.5,35.9 32.6,36 32.7,36.1 32.7,36.3 32.7,36.5 32.6,36.9 32.6,37.1 32.7,37.9 32.7,38.1 
			32.7,38.8 32.7,39 32.6,39.7 32.6,39.9 32.6,40.7 32.6,40.9 32.7,41.2 32.7,41.4 32.8,41.6 32.8,41.8 33,42.1 33.1,42.2 
			33.3,42.4 33.4,42.5 33.7,42.6 33.9,42.7 34.2,42.7 34.4,42.7 34.7,42.6 34.9,42.6 35.1,42.5 35.3,42.4 35.5,42.2 35.6,42.1 
			35.7,41.8 35.8,41.6 35.9,41.4 35.9,41.2 35.9,40.9 36,40.7 35.9,39.9 35.9,39.8 35.9,39 35.9,38.8 36,38.1 36,37.9 35.9,37.1 
			35.9,36.9 35.9,36.4 35.9,36.1 35.9,36 36.1,35.9 36.2,35.8 36.5,35.8 37.1,35.9 37.3,35.9 37.8,35.8 38,35.8 38.1,35.8 
			38.3,35.9 38.4,36 38.4,36.1 38.4,36.5 38.4,36.7 38.4,36.9 38.4,37.1 38.4,37.9 38.4,38.1 38.4,38.8 38.4,39 38.4,39.8 		"/>
		<polygon class="st1" points="46.9,36.8 46.9,37 46.9,37.3 46.9,37.5 46.9,37.6 46.8,37.8 46.8,37.8 46.7,37.9 46.6,37.9 
			46.4,37.9 46,37.9 45.8,37.9 45.3,37.9 45.1,37.9 44.8,37.9 44.6,37.9 44.5,37.9 44.4,37.9 44.3,38 44.3,38.2 44.3,38.9 
			44.3,39.1 44.3,39.8 44.3,40 44.3,40.7 44.3,40.9 44.3,41.6 44.3,42.7 44.3,43.5 44.3,43.6 44.3,44.2 44.3,44.4 44.3,44.5 
			44.2,44.6 44.1,44.6 43.9,44.6 43.6,44.6 43.3,44.6 42.8,44.6 42.6,44.6 42.1,44.6 41.9,44.5 41.8,44.5 41.8,44.4 41.8,44.2 
			41.9,43.7 41.9,43.5 41.9,42.6 41.9,41.8 41.9,41.6 41.9,40.9 41.9,40.7 41.8,40 41.8,39.8 41.8,38.9 41.8,38.2 41.8,38 
			41.8,37.9 41.7,37.9 41.5,37.9 41.1,37.9 40.9,37.9 40.5,37.9 40.3,37.9 40.1,37.9 39.8,37.9 39.7,37.9 39.6,37.9 39.4,37.9 
			39.4,37.8 39.3,37.7 39.3,37.6 39.3,37.5 39.3,37.3 39.3,37 39.3,36.8 39.3,36.3 39.3,36.1 39.3,36 39.4,35.9 39.4,35.9 
			39.6,35.8 39.8,35.8 40.3,35.9 40.5,35.9 41.2,35.8 41.4,35.8 42.1,35.9 42.3,35.9 43.2,35.8 43.9,35.8 44.1,35.8 45,35.8 
			45.9,35.8 46.3,35.8 46.5,35.8 46.6,35.8 46.7,35.8 46.8,35.9 46.9,36 46.9,36.1 46.9,36.2 46.9,36.4 		"/>
		<polygon class="st1" points="54.9,43.4 54.9,43.6 54.8,44.3 54.8,44.4 54.8,44.5 54.7,44.5 53.1,44.6 52.9,44.6 52.3,44.5 
			52.1,44.5 51.5,44.6 51.3,44.6 50.4,44.6 49.8,44.6 49.6,44.6 48.6,44.6 48.2,44.6 48,44.6 47.9,44.5 47.9,44.4 47.9,44.3 
			47.9,44 47.8,43.8 47.9,43.6 47.9,43.5 47.9,42.8 47.9,42.6 47.9,42 47.9,41.8 47.9,41.1 47.9,40.9 47.9,40.3 47.9,39.3 
			47.9,38.6 47.9,38.4 47.9,37.8 47.9,37.6 47.9,37.3 47.9,36.9 47.9,36.8 47.9,36.1 47.9,36 48,35.9 48,35.8 48.1,35.8 48.3,35.8 
			49.1,35.8 49.8,35.8 50,35.8 50.7,35.9 50.9,35.9 51.7,35.8 51.8,35.8 53.5,35.8 53.7,35.8 54.1,35.8 54.4,35.8 54.6,35.8 
			54.7,35.9 54.7,36 54.7,36.1 54.7,36.4 54.7,36.8 54.7,37 54.7,37.3 54.7,37.4 54.7,37.6 54.7,37.8 54.6,37.9 54.6,37.9 
			54.4,37.9 54.3,37.9 54.1,37.9 53,37.9 52.8,37.9 52.2,37.9 52,37.9 51.4,37.9 50.8,37.9 50.6,37.9 50.5,37.9 50.4,37.9 50.3,38 
			50.3,38 50.3,38.2 50.3,38.5 50.3,38.7 50.3,38.9 50.3,39 50.3,39.1 50.4,39.2 50.5,39.2 50.9,39.2 51.3,39.2 52.4,39.2 
			53.8,39.1 54.2,39.1 54.3,39.2 54.4,39.2 54.4,39.3 54.4,39.4 54.5,39.6 54.5,39.8 54.5,40.2 54.5,40.5 54.5,40.9 54.4,41 
			54.4,41.1 54.3,41.2 54.2,41.2 53.9,41.2 53.4,41.1 53.2,41.1 52.2,41.2 51.5,41.2 51.3,41.2 50.8,41.1 50.6,41.1 50.4,41.2 
			50.4,41.2 50.3,41.3 50.3,41.4 50.3,41.8 50.3,41.9 50.3,42.2 50.3,42.3 50.3,42.4 50.4,42.5 50.5,42.5 51.2,42.5 51.4,42.5 
			52,42.5 52.9,42.5 53.1,42.5 53.9,42.5 54.1,42.5 54.3,42.5 54.7,42.5 54.8,42.6 54.9,42.6 54.9,42.8 		"/>
		<polygon class="st1" points="64.3,37.7 64.3,37.9 64.3,39.7 64.3,40.4 64.3,40.6 64.3,42.2 64.3,42.4 64.3,42.5 64.3,42.7 
			64.3,43.3 64.3,44 64.3,44.2 64.2,44.3 64.1,44.4 64,44.5 63.9,44.6 63.7,44.6 63.1,44.6 62.9,44.6 62.6,44.6 62.4,44.6 
			62.3,44.6 62.1,44.5 62,44.4 61.9,44.3 61.7,43.9 61.6,43.8 61.1,43.2 61,43 60.5,42.4 60.4,42.3 60,41.6 59.9,41.5 59.4,40.9 
			59.3,40.8 58.8,40.2 58.7,40.1 58.6,40.1 58.6,40.3 58.6,40.9 58.6,41.1 58.6,41.7 58.6,41.9 58.6,42.5 58.6,42.7 58.6,43.4 
			58.6,43.6 58.7,44.1 58.7,44.3 58.6,44.4 58.5,44.5 58.5,44.6 58.3,44.6 58.2,44.6 58,44.6 57.5,44.6 57.3,44.6 56.8,44.6 
			56.6,44.6 56.4,44.6 56.3,44.6 56.2,44.5 56.1,44.4 56.1,44.3 56.1,44.2 56.1,44 56.1,43.6 56.1,43.5 56.1,42.8 56.1,42.6 
			56.1,41.1 56.1,40.9 56.1,40.3 56.2,40.1 56.2,39.3 56.1,38.6 56.1,38.4 56.2,37.8 56.1,37.6 56.1,36.9 56.1,36.8 56.1,36.5 
			56.1,36.3 56.1,36.1 56.1,36 56.2,35.9 56.3,35.9 56.4,35.8 56.8,35.8 57.1,35.8 58,35.8 58.2,35.8 58.2,35.9 58.3,36 58.8,36.5 
			58.9,36.7 59.4,37.3 59.5,37.4 60,38 60.1,38.2 60.5,38.8 60.6,38.9 61.1,39.5 61.2,39.6 61.6,40.2 61.7,40.3 61.8,40.3 
			61.9,40.3 61.9,40.1 61.8,39.6 61.8,39.4 61.8,38.9 61.8,38.7 61.8,38 61.8,37.8 61.8,37.1 61.8,36.9 61.8,36.4 61.8,36.1 
			61.8,36 61.9,35.9 62,35.8 62.1,35.8 62.2,35.8 62.4,35.8 63,35.8 63.2,35.8 63.6,35.8 63.8,35.8 64,35.8 64.2,35.8 64.3,35.9 
			64.3,36 64.4,36.1 64.4,36.2 64.4,36.4 64.4,36.8 64.3,37 		"/>
		<g>
			<path class="st1" d="M22.3,25.5l-0.2,0.6l0,0.1l0,0.1l-0.1,0.2l-0.1,0.3l0,0.1l0,0.1l0,0.1l0,0.1l0,0.1l0,0.1l0.1-0.1l0.1-0.1
				l0.6-0.6l0.1-0.1l0.1-0.1l0.1-0.1l0.1-0.1l0.1-0.1l0.1-0.1l0.1-0.1l0.1-0.2l0.1-0.1l0.1-0.1l0.1-0.1l0.1-0.2l0.1-0.1l0-0.1
				l0.1-0.1l0.1-0.1l0-0.1l0-0.1l0-0.1l0.1-0.2l0-0.2l0.1-0.2l0-0.1l0-0.1v-0.3l0-0.1l0-0.1l-0.1-0.1l-0.1,0l-0.1,0l-0.1,0.1
				l-0.1,0.1l-0.1,0.1l-0.1,0.1l-0.1,0.1L23,23.8L22.9,24l-0.1,0.1l-0.1,0.1l-0.1,0.1l-0.1,0.1l-0.1,0.1l0,0.1l-0.1,0.2L22.5,25
				l-0.1,0.1L22.3,25.5z M24.6,25.1l-0.1,0.1l-0.1,0.2l-0.1,0.2l-0.1,0.2l-0.1,0.1L24.1,26L24,26.1L24,26.2l-0.1,0.1l-0.1,0.1
				l-0.1,0.1l-0.1,0.1l-0.1,0.1l-0.1,0.1L23.3,27l-0.2,0.2l-0.1,0.1l-0.2,0.2l-0.1,0.1l-0.1,0.1l-0.1,0.1l-0.2,0.2L22.2,28l-0.3,0.2
				l-0.1,0l-0.1,0.1l-0.2,0.1l-0.1,0.1l-0.1,0.1l0,0.2l0,0.2v0.1l0,0.1l0,0.1l0,0.1v0.3l0,0.2v0.3l0,0.2l0,0.1l0,0.1l0.1,0.1
				l0.1,0.1l0.1,0.1l0.1,0.1l0.1,0l0.1,0h0.2l0.1,0l0.1,0l0.2-0.1l0.2-0.1l0.1-0.1l0.1-0.1l0.1-0.1l0.2-0.2l0.1-0.1l0.1-0.1l0.1-0.1
				l0.1-0.1l0.1-0.1l0.1-0.1l0.1-0.1l0.1-0.1l0.1-0.2l0.1-0.1l0.1-0.1l0.1-0.1l0.1-0.1l0.1-0.2l0.1-0.1l0.2,0l0.1,0.1V29l0,0.1
				l-0.1,0.1l-0.1,0.1l-0.1,0.1l-0.1,0.1l0,0.1l-0.1,0.1l-0.1,0.1L24.3,30l-0.1,0.1l0,0.1l-0.1,0.1L24,30.4l-0.1,0.2l-0.1,0.1
				l-0.1,0.1l-0.1,0.1L23.5,31l-0.1,0.1l-0.1,0.1l-0.1,0.1l-0.1,0.1L23,31.5l-0.1,0.1l-0.1,0.1l-0.1,0.1l-0.1,0.1l-0.1,0l-0.1,0.1
				l-0.2,0.1L21.9,32l-0.2,0l-0.2,0h-0.1l-0.1,0l-0.1,0l-0.1,0l-0.1,0l-0.1-0.1l-0.1-0.1l-0.1-0.1l-0.1-0.1l-0.1-0.1l-0.1-0.1
				l-0.1-0.1l0-0.1l0-0.1l0-0.1l0-0.1l0-0.1v-0.1l0-0.2l0-0.1v-0.1l0-0.1l0-0.1v-0.1l0-0.2l0-0.3l0-0.2V29l0-0.1l0-0.1l0.1-0.5
				l0-0.2l0-0.3l0-0.1l0-0.2l0-0.1l0.1-0.2l0-0.2l0-0.1l0-0.2l0.1-0.2l0-0.1l0.1-0.2l0.1-0.2l0-0.1l0.1-0.2l0.1-0.2l0.1-0.1l0.1-0.4
				l0-0.1l0.1-0.2l0.1-0.2l0.1-0.2l0.1-0.1l0-0.1l0.1-0.1l0.1-0.2l0.1-0.1l0.1-0.1l0.1-0.1l0.1-0.2l0.2-0.3l0.1-0.1l0.2-0.2l0.1-0.1
				l0.1-0.1l0.1-0.1l0.2-0.2l0.2-0.1l0.2-0.1l0.1,0l0.1,0h0.3l0.1,0l0.1,0l0.1,0l0.1,0.1l0.2,0.2l0.1,0.1l0.1,0.1l0.1,0.2l0.1,0.1
				l0.1,0.2l0,0.2v0.3l0,0.4l-0.1,0.2l0,0.1l0,0.1l-0.1,0.3L24.6,25L24.6,25.1z"/>
			<path class="st1" d="M31.3,28.1v-0.3l0-0.2l0-0.2l0-0.1l-0.1-0.2L31.1,27L31,26.9l-0.1-0.1l-0.1,0l-0.2,0l-0.2,0l-0.1,0l-0.5,0.2
				L29.7,27l-0.1,0l-0.3,0.2l-0.1,0.1l-0.1,0.1L29,27.4l-0.1,0.1l-0.1,0.2l-0.1,0.2l0,0.1l0,0.1l0,0.1l-0.1,0.2l0,0.2l0,0.2l0,0.1
				l0,0.1l0,0.1l0,0.1l0,0.3v0.1l0,0.1v0.4l0,0.1l0,0.1l0,0.1l0.1,0.1l0.1,0.1l0.1,0.1l0.1,0.1l0.1,0l0.1,0h0.3l0.2,0l0.2,0l0.1-0.1
				l0.1,0L30,31l0.2-0.2l0.1-0.1v-0.2l-0.1-0.2l0-0.1l0-0.2l0.1-0.2l0.1-0.1l0.1-0.1l0.1,0l0.2,0l0.1-0.1l0.1-0.3l0.1-0.2l0.1-0.2
				l0.1-0.2l0-0.1l0-0.2l0-0.2l0-0.1L31.3,28.1z M26.4,24.3l0.1,0.1l0.1,0.1l0.1,0.1l0,0.1l0,0.1l0,0.1l0,0.1l-0.1,0.2l-0.1,0.1
				l-0.1,0.1l-0.1,0l-0.1,0h-0.1l-0.1,0l-0.1-0.1l-0.1-0.1l-0.1-0.1l-0.1-0.1l0-0.1l0-0.1v-0.1l0-0.1l0-0.1l0.1-0.1l0.1-0.1l0.1-0.1
				l0.2,0l0.1,0h0.1l0.1,0L26.4,24.3z M34.3,28.8l0,0.2l0,0.1l-0.1,0.1l-0.1,0.1L34,29.5l-0.1,0.2l-0.1,0.1L33.8,30l-0.1,0.1
				l-0.1,0.1l-0.1,0.1l-0.1,0.1l-0.1,0.1l-0.1,0.1l-0.1,0.1L33,30.7l-0.1,0.1l-0.1,0.1l-0.1,0l-0.1,0L32.3,31l-0.1,0l-0.1,0H32
				l-0.2,0h-0.1l-0.2,0l-0.1,0l-0.1,0l-0.1,0l-0.1,0.1L31,31.2l-0.1,0.1l-0.1,0.1l-0.1,0.1l-0.1,0.1l-0.1,0.1l-0.1,0.1l-0.1,0.1
				l-0.1,0l-0.1,0l-0.1,0.1l-0.1,0l-0.1,0l-0.1,0L29.1,32h-0.1l-0.2,0l-0.1,0l-0.2,0l-0.1,0l-0.1,0l-0.1,0l-0.1,0l-0.1-0.1l-0.1-0.1
				l-0.2-0.2l-0.1-0.1l-0.1-0.2l-0.1-0.1l-0.1-0.2l0-0.1l0-0.1l0-0.1l0-0.1l0-0.1l0-0.1l-0.1,0L27,30.3l-0.1,0.2l-0.1,0.1l-0.1,0.1
				l-0.1,0.1L26.4,31l-0.1,0.1l-0.1,0.1l-0.1,0.1L26,31.5l-0.1,0.1l-0.1,0.1l-0.1,0.1l-0.1,0.1l-0.1,0.1l-0.1,0.1l-0.1,0l-0.1,0
				l-0.3,0l-0.1,0l-0.1,0l-0.1,0l-0.1,0l-0.1-0.1l-0.1-0.1L24,31.6L24,31.5l-0.1-0.1l0-0.1l0-0.1v-0.1l0-0.1v-0.3l0-0.1l0-0.1l0-0.1
				l0-0.1l0.1-0.1l0-0.1l0-0.1l0.1-0.2l0-0.1l0-0.1l0-0.1l0.1-0.2l0-0.2l0-0.2l0.1-0.1l0.1-0.4l0-0.1l0.1-0.1l0.1-0.3l0-0.1l0-0.1
				l0-0.1l0-0.1l0.1-0.3l0-0.1l0-0.1l0-0.1l0-0.1l0-0.1l0.1-0.1l0.1-0.1l0.1-0.1l0.1,0h0.1l0.3,0.1l0.1,0l0.1,0.1l0,0.1v0.1
				l-0.1,0.2l0,0.2l0,0.1l-0.2,0.5l0,0.2l0,0.1l0,0.1l0,0.2l0,0.2l-0.1,0.3l-0.1,0.2l0,0.2l0,0.2l0,0.1l0,0.2l-0.1,0.2l-0.1,0.2
				l-0.1,0.1l0,0.2l0,0.2l0,0.1l0,0.2l0,0.2l0,0.2l0,0.1l0,0.1l0.1,0.1h0.1l0.1,0l0.1-0.1l0.1-0.1l0.1-0.1l0.1-0.1l0.1-0.1l0.1-0.1
				l0.1-0.1l0.3-0.3l0.1-0.2l0.1-0.1l0.1-0.1l0.1-0.1l0.1-0.1l0.1-0.2l0.1-0.2l0.1-0.1l0.2-0.3l0.1-0.1l0-0.1l0-0.1l0-0.1l0-0.1
				l0-0.1l0-0.1l0.1-0.2l0-0.2l0-0.2l0-0.1l0-0.1l0.1-0.3l0-0.1l0-0.1l0-0.1l0-0.1l0-0.1l0-0.1l0-0.1l0-0.1l0-0.1l0-0.1l0-0.1l0-0.1
				l0.1-0.3l0-0.1l0-0.1l0-0.1l0-0.1l0.1-0.2l0-0.1l0-0.1l0.1-0.1l0-0.1l0-0.1l0-0.1l0-0.1l0-0.1l0-0.1l0-0.1l0.1-0.1l0.1-0.1l0-0.1
				l0-0.1l0.1-0.1l0-0.1l0.1-0.1l0.1-0.1l0.1-0.1l0.1,0h0.1l0.1,0l0.2,0.1l0.1,0l0.1,0.1l0.1,0.1l0,0.1l0,0.1l-0.1,0.1l-0.2,0.3
				l-0.1,0.1L30,23.5l0,0.2l-0.1,0.1l0,0.1l0,0.1l0,0.1l-0.1,0.1l0,0.1l-0.1,0.1l-0.1,0.2l0,0.2l0,0.2l-0.1,0.2l0,0.1l0,0.1l0,0.1
				l0,0.1l-0.1,0.1l0,0.1L29,26.4l0,0.1l0,0.1l0,0l0.1,0l0.2-0.2l0.1-0.1l0.3-0.2l0.1,0l0.1,0l0.4-0.1l0.2,0l0.1,0h0.1l0.4,0l0.1,0
				l0.1,0.1l0.3,0.2l0.1,0.1l0.1,0.1l0.2,0.2l0.1,0.1l0.1,0.1l0.1,0.2l0,0.1l0,0.1l0,0.1l0,0.1V28l0,0.1v0.1l0,0.1l0,0.1l0,0.1
				l0,0.3l0,0.1l-0.1,0.4l-0.1,0.3L32,29.8L32,30l-0.1,0.1l-0.1,0.1l-0.1,0.1l0,0.1l0,0.1l0.1,0H32l0.1,0l0.1,0l0.1,0l0.1-0.1
				l0.1-0.1l0.1-0.1l0.1-0.1l0.1-0.1L33,30l0.1-0.1l0.3-0.3l0.1-0.1l0.1-0.2l0.1-0.1l0.1-0.1l0.1-0.1l0.1-0.1l0.1-0.1l0.1-0.1l0.2,0
				L34.3,28.8z"/>
			<polygon class="st1" points="34.7,25.7 34.6,25.3 34.5,25.2 34.5,25.1 34.6,25 34.6,24.8 34.7,24.7 34.8,24.6 34.9,24.6 35,24.5 
				35.1,24.5 35.2,24.5 35.4,24.5 35.5,24.6 35.6,24.7 35.6,24.8 35.7,24.9 35.7,25.3 35.6,25.4 35.6,25.5 35.7,25.6 35.7,25.7 
				35.8,25.8 35.9,25.9 36,26 36.2,26.2 36.3,26.3 36.5,26.5 36.6,26.6 36.6,26.7 36.7,26.8 36.8,26.8 36.9,27 37,27.2 37.1,27.3 
				37.1,27.5 37.2,27.7 37.1,27.8 37.1,27.9 37,28 37,28.1 36.8,28.3 36.7,28.4 36.7,28.5 36.6,28.6 36.5,28.8 36.4,28.9 36.4,29 
				36.3,29.1 36,29.6 36,29.7 36,29.8 35.9,29.9 35.9,30.1 35.9,30.2 35.9,30.3 35.9,30.5 35.9,30.7 36,30.9 36.1,31 36.2,31.1 
				36.3,31.1 36.4,31.2 36.7,31.2 36.8,31.1 36.9,31.1 37.1,31 37.2,31 37.4,30.8 37.5,30.7 37.6,30.7 37.7,30.6 37.7,30.5 38,30.2 
				38.2,29.8 38.3,29.7 38.3,29.6 38.4,29.5 38.5,29.4 38.5,29.3 38.6,29.2 38.7,29 38.7,28.9 38.8,28.8 38.8,28.7 38.9,28.6 
				39.1,28.7 39.3,28.8 39.3,29 39.2,29.1 39.1,29.3 39,29.4 39,29.5 38.9,29.8 38.7,30 38.7,30.1 38.6,30.2 38.5,30.3 38.4,30.5 
				38.2,30.8 38.1,30.9 38,31.1 37.8,31.2 37.7,31.3 37.6,31.5 37.5,31.6 37.3,31.7 37.1,31.8 37,31.8 36.9,31.9 36.8,31.9 36.6,32 
				36.5,32 36.2,32 36,32 35.7,31.9 35.6,31.9 35.5,31.8 35.3,31.7 35.2,31.6 35.1,31.5 35,31.4 34.9,31.3 34.9,31.2 34.8,31.1 
				34.8,30.9 34.7,30.8 34.7,30.7 34.7,30.5 34.7,30.4 34.8,29.9 34.8,29.8 34.8,29.7 34.9,29.5 35,29.4 35.1,29.2 35.1,29.1 
				35.2,29 35.3,28.8 35.4,28.7 35.5,28.5 35.6,28.4 35.7,28.3 35.8,28.1 35.9,27.8 36,27.7 36,27.5 36,27.3 35.9,27.1 35.8,27 
				35.6,26.7 35.5,26.6 35.4,26.5 35.3,26.6 35.2,26.7 35.2,26.8 35.1,27 35.1,27.1 35.1,27.2 35,27.3 34.9,27.7 34.9,27.8 
				34.8,27.9 34.8,28 34.7,28.2 34.7,28.3 34.6,28.5 34.5,28.6 34.5,28.8 34.4,28.9 34.3,29.1 34.2,29.2 34.2,29.3 34.1,29.4 
				33.9,29.4 33.8,29.3 33.8,29.2 33.8,29.1 33.8,29 33.9,28.9 33.9,28.8 33.9,28.6 34.1,28.4 34.1,28.3 34.2,28.2 34.2,28.1 
				34.3,27.9 34.3,27.8 34.4,27.7 34.4,27.6 34.5,27.3 34.5,27.2 34.6,27.1 34.6,26.9 34.7,26.8 34.7,26.7 34.7,26.6 34.7,26.4 
				34.8,26.3 34.8,26.2 34.8,26.1 34.8,25.9 			"/>
			<path class="st1" d="M41.2,26.8L41,26.9L40.9,27l-0.1,0.1l-0.2,0.2l-0.1,0.1l-0.1,0.1l-0.1,0.1l-0.1,0.2L40,27.9L39.9,28
				l-0.1,0.2l-0.1,0.2l-0.1,0.1l0,0.1l0,0.1l0.1,0.1l0.2,0l0.3,0l0.1,0h0.4l0.1,0l0.1,0l0.1-0.1l0.1,0l0.1-0.1l0.1-0.1l0.1-0.1
				l0.1-0.1l0.1-0.1l0.1-0.1l0.1-0.1l0.1-0.1l0.1-0.1l0.1-0.2l0-0.1l0-0.1l0-0.1L42.1,27L42,26.9l-0.1-0.1l-0.1-0.1l-0.1,0l-0.1,0
				l-0.1,0L41.2,26.8z M42.9,28.5L42.9,28.5l-0.2,0.3L42.5,29L42.4,29l-0.1,0.1l-0.1,0L42,29.2l-0.1,0l-0.1,0.1l-0.1,0l-0.1,0
				l-0.1,0l-0.1,0l-0.2,0l-0.2,0l-0.1,0h-0.1l-0.3,0l-0.3,0l-0.1,0l-0.4-0.1h-0.1l-0.1,0.1l0,0.1v0.1l0,0.1V30l0,0.1l0,0.1l0.1,0.3
				l0.1,0.2l0.1,0.1l0.1,0.1l0.2,0.1l0.1,0l0.1,0l0.1,0l0.1,0l0.1,0h0.1l0.1,0l0.4-0.1l0.1,0l0.1,0l0.1,0l0.2-0.1l0.2-0.1l0.2-0.2
				l0.1-0.1l0.1-0.1l0.2-0.2l0.2-0.2l0.1-0.1l0.1-0.1l0.1-0.2l0.1-0.1l0.1-0.1l0.1-0.1l0.1-0.1l0.1-0.1l0.1-0.1l0.1-0.1l0.1-0.1
				l0.1-0.1l0.1-0.1h0.1l0.1,0.1l0.1,0.1l0,0.1l-0.1,0.1l-0.1,0.2L44,29.4L44,29.6l-0.1,0.2l-0.1,0.1l-0.1,0.2l0,0.1l-0.1,0.1
				l-0.1,0.2l-0.1,0.1l-0.1,0.1l-0.1,0.1L43,30.9l0,0L42.9,31l-0.1,0.1l-0.2,0.2l-0.1,0.1l-0.1,0.1l-0.2,0.1l-0.3,0.2l-0.1,0l-0.1,0
				l-0.2,0l-0.2,0l-0.3,0l-0.2,0l-0.2,0h-0.1L39.9,32l-0.1,0l-0.1,0l-0.1-0.1l-0.1-0.1l-0.2-0.1l-0.1-0.1L39,31.5l-0.1-0.1l-0.1-0.1
				l-0.1-0.1l-0.1-0.1L38.6,31l-0.1-0.1l-0.1-0.1l0-0.1l0-0.1l0-0.1l0-0.1l0-0.1l0-0.4v-0.3l0-0.1v-0.1l0.1-0.4l0-0.1l0-0.1l0-0.1
				l0-0.1l0-0.1l0.1-0.2l0.1-0.2l0.1-0.1l0.1-0.2l0.1-0.1l0.1-0.1l0.1-0.1l0.1-0.1l0.2-0.2l0.2-0.2l0.1-0.1l0.1-0.1l0.1-0.1l0.1-0.1
				l0.1-0.1l0.1-0.1l0.1-0.1l0.2-0.1L41,26l0.3-0.1l0.2,0h0.3l0.2,0l0.2,0l0.2,0l0.1,0l0.1,0.1l0.1,0.1l0.1,0.1l0.2,0.2l0.1,0.1
				l0.1,0.1l0.1,0.2l0,0.1l0,0.1l0,0.1v0.2l0,0.2l0,0.1l0,0.2l-0.1,0.2l-0.1,0.1l0,0.1L43,28.4L42.9,28.5z"/>
			<path class="st1" d="M49.7,26.9l-0.3,0h-0.1l-0.1,0l-0.1,0l-0.1,0L48.8,27l-0.1,0l-0.1,0.1l-0.1,0.1l-0.1,0.1l-0.1,0.1l-0.1,0.1
				l-0.2,0.2l-0.1,0.1l-0.1,0.1L47.6,28l-0.1,0.1l-0.1,0.1l-0.2,0.3l-0.1,0.1l0,0.1l0,0.1l0,0.1L47,29.1l-0.1,0.3l0,0.1l0,0.2l0,0.2
				l0,0.1l0,0.2l0,0.2l0,0.2l0,0.1l0.1,0.1l0.1,0.1l0.1,0.1l0.1,0.1l0.2,0l0.2,0l0.1-0.1l0.1,0L48,31l0.1-0.1l0.2-0.2l0.1-0.1
				l0.1-0.1l0.1-0.1l0.1-0.1l0.1-0.1l0.1-0.1l0.1-0.2l0.1-0.1l0.1-0.1l0.1-0.1l0-0.1l0.1-0.1l0.1-0.2l0.1-0.2l0.1-0.1l0-0.1l0.2-0.6
				l0.1-0.2l0.1-0.5l0-0.2l0-0.1l0-0.2l0-0.1l-0.1-0.1H49.7z M46.8,27.4L46.8,27.4l0.3-0.3l0.3-0.3l0.1-0.1l0.1-0.1l0.1-0.1l0.1-0.1
				l0.1-0.1l0.2-0.1l0.1-0.1l0.3-0.1l0.1,0l0.3-0.1l0.1,0l0.1,0l0.3,0h0.3l0.2,0l0.2,0l0.1,0l0.1,0l0.1-0.1l0-0.1l0.1-0.3l0-0.1
				l0-0.1l0.1-0.2l0-0.1l0-0.1l0.1-0.1l0-0.1l0.1-0.3l0-0.1l0.1-0.4l0.1-0.2l0.1-0.3l0-0.1l0.1-0.1l0-0.1l0.1-0.3l0-0.1l0.1-0.2
				l0.1-0.1l0.1-0.1l0.2-0.1H52l0.1,0l0.1,0l0.1,0l0.1,0l0.1,0.1l0,0.1l0,0.1l0,0.1l-0.1,0.1L52.5,23l0,0.1l0,0.1l-0.1,0.2l-0.1,0.2
				l-0.1,0.2L52,24.2L52,24.4l-0.1,0.2l0,0.1l0,0.1l-0.1,0.3l-0.1,0.2l0,0.1l-0.2,0.5l0,0.1l0,0.1l0,0.1l0,0.1l0,0.1l0,0.1l0,0.1
				l0,0.1l0,0.1l0,0.1l0,0.1l0,0.1l0,0.1l0,0.1l0,0.1l0,0.1l0,0.2l-0.1,0.2l0,0.1l0,0.2l0,0.1l0,0.2l0,0.2l-0.1,0.4l0,0.1l0,0.1
				l0,0.2l0,0.2l0,0.1l0,0.1l0,0.1v0.1l0,0.1l0,0.2l0,0.2l0,0.1l0.1,0.1l0.1,0l0.1,0l0.1,0l0.1,0l0.1-0.1l0.3-0.2l0.1-0.1l0.1-0.2
				l0.1-0.2l0.2-0.3l0.1-0.1l0.1-0.1l0.1-0.1l0.1-0.3l0.1-0.1l0.1-0.1l0.1-0.1l0.1-0.2l0.2-0.1l0.2,0l0.1,0.1V29l-0.1,0.2l-0.1,0.1
				l-0.1,0.2l-0.1,0.2l-0.1,0.1l-0.2,0.3l-0.1,0.1l-0.2,0.3l-0.1,0.2L52,30.8l-0.1,0.1L51.9,31l-0.1,0.1l-0.1,0.1l-0.1,0.1l-0.1,0.1
				l-0.1,0.1l-0.1,0.1l-0.1,0.1l-0.1,0.1L51,31.7l-0.4,0.1l-0.1,0h-0.1l-0.1,0l-0.1,0l-0.1,0l-0.1-0.1l-0.1-0.1l-0.1-0.1l-0.1-0.1
				l-0.1-0.2l-0.1-0.1l0-0.1l0-0.1l0-0.4v-0.3l0,0l-0.1,0.1l-0.1,0.1L49,30.8l-0.1,0.1L48.9,31l-0.2,0.2l-0.1,0.1l-0.3,0.3l-0.1,0.1
				l-0.1,0.1l-0.1,0.1l-0.1,0.1l-0.1,0L47.4,32l-0.1,0l-0.1,0L47,32l-0.1,0l-0.1,0l-0.1,0l-0.1-0.1l-0.1-0.1l-0.1-0.1l-0.1-0.1
				L46,31.5L46,31.4l-0.1-0.1l0-0.1l-0.1-0.2l0-0.1l0-0.1l0-0.2v-0.2l0-0.1v-0.1l0-0.1l0-0.2l0-0.2l0-0.1l0-0.1l0-0.1l0-0.1l0-0.1
				l0.1-0.3l0-0.1l0.1-0.2l0.1-0.2l0.1-0.2l0.1-0.1l0.1-0.1l0.1-0.1L46.8,27.4L46.8,27.4z"/>
			<path class="st1" d="M55.1,26.8l-0.2,0.1L54.7,27l-0.1,0.1l-0.2,0.2l-0.1,0.1l-0.1,0.1l-0.1,0.1L54,27.7l-0.1,0.1L53.8,28
				l-0.1,0.2l-0.1,0.2l-0.1,0.1l0,0.1l0,0.1l0.1,0.1l0.2,0l0.3,0l0.1,0h0.4l0.1,0l0.1,0l0.1-0.1l0.1,0l0.1-0.1l0.1-0.1l0.1-0.1
				l0.1-0.1l0.1-0.1l0.1-0.1l0.1-0.1l0.1-0.1l0.1-0.1l0.1-0.2l0-0.1l0-0.1l0-0.1L56,27l-0.1-0.1l-0.1-0.1l-0.1-0.1l-0.1,0l-0.1,0
				l-0.1,0L55.1,26.8z M56.8,28.5L56.8,28.5l-0.2,0.3L56.4,29L56.3,29l-0.1,0.1l-0.1,0l-0.1,0.1l-0.1,0l-0.1,0.1l-0.1,0l-0.1,0
				l-0.1,0l-0.1,0l-0.2,0l-0.2,0l-0.1,0h-0.1l-0.3,0l-0.3,0l-0.1,0l-0.4-0.1h-0.1l-0.1,0.1l0,0.1v0.1l0,0.1V30l0,0.1l0,0.1l0.1,0.3
				l0.1,0.2l0.1,0.1l0.1,0.1l0.2,0.1l0.1,0l0.1,0l0.1,0l0.1,0l0.1,0h0.1l0.1,0l0.4-0.1l0.1,0l0.1,0l0.1,0l0.2-0.1l0.2-0.1l0.2-0.2
				l0.1-0.1l0.1-0.1l0.2-0.2l0.2-0.2l0.1-0.1l0.1-0.1l0.1-0.2l0.1-0.1l0.1-0.1l0.1-0.1l0.1-0.1l0.1-0.1l0.1-0.1l0.1-0.1l0.1-0.1
				l0.1-0.1l0.1-0.1h0.1l0.1,0.1l0.1,0.1l0,0.1l-0.1,0.1L58,29.2l-0.1,0.2l-0.1,0.2l-0.1,0.2l-0.1,0.1l-0.1,0.2l0,0.1l-0.1,0.1
				l-0.1,0.2l-0.1,0.1l-0.1,0.1L57,30.8l-0.1,0.1l0,0L56.8,31l-0.1,0.1l-0.2,0.2l-0.1,0.1l-0.1,0.1L56,31.7l-0.4,0.2l-0.1,0l-0.1,0
				l-0.2,0l-0.2,0l-0.3,0l-0.2,0l-0.2,0h-0.1L53.8,32l-0.1,0l-0.1,0l-0.1-0.1l-0.1-0.1l-0.2-0.1L53,31.6l-0.1-0.1l-0.1-0.1l-0.1-0.1
				l-0.1-0.1l-0.1-0.1L52.5,31l-0.1-0.1l-0.1-0.1l0-0.1l0-0.1l0-0.1l0-0.1l0-0.1l0-0.4v-0.3l0-0.1v-0.1l0.1-0.4l0-0.1l0-0.1l0-0.1
				l0-0.1l0-0.1l0.1-0.2l0.1-0.2l0.1-0.1l0.1-0.2l0.1-0.1l0.1-0.1l0.1-0.1l0.1-0.1l0.2-0.2l0.2-0.2l0.1-0.1l0.1-0.1l0.1-0.1l0.1-0.1
				l0.1-0.1l0.1-0.1l0.1-0.1l0.2-0.1l0.3-0.1l0.3-0.1l0.2,0h0.3l0.2,0l0.2,0l0.2,0l0.1,0l0.1,0.1l0.1,0.1l0.1,0.1l0.2,0.2l0.1,0.1
				l0.1,0.1l0.1,0.2l0,0.1l0,0.1l0,0.1v0.2l0,0.2l0,0.1l0,0.2L57,28.1L57,28.2l0,0.1l-0.1,0.1L56.8,28.5z"/>
		</g>
	</g>
</g>
</svg>
