<?xml version="1.0" encoding="utf-8"?>
<!-- Generator: Adobe Illustrator 21.0.0, SVG Export Plug-In . SVG Version: 6.00 Build 0)  -->
<svg version="1.1" id="Capa_1" xmlns="http://www.w3.org/2000/svg" xmlns:xlink="http://www.w3.org/1999/xlink" x="0px" y="0px"
	 viewBox="0 0 79 72.1" style="enable-background:new 0 0 79 72.1;" xml:space="preserve">
<style type="text/css">
	.st0{fill:#5FA03C;}
	.st1{fill:#FFFFFF;}
	.st2{fill:#F2F2F2;}
	.st3{fill:#369443;}
	.st4{fill:#8EBB37;}
	.st5{fill:#222221;}
	.st6{fill:#94BB1E;}
	.st7{fill:none;stroke:#222221;stroke-width:2.346;stroke-linecap:round;stroke-linejoin:round;stroke-miterlimit:10;}
	.st8{fill:#D9802E;}
	.st9{fill:#F0C830;}
	.st10{opacity:0.68;clip-path:url(#SVGID_2_);}
	.st11{clip-path:url(#SVGID_4_);}
	.st12{clip-path:url(#SVGID_6_);fill:url(#SVGID_7_);}
	.st13{opacity:0.2;clip-path:url(#SVGID_2_);}
	.st14{clip-path:url(#SVGID_9_);}
	.st15{clip-path:url(#SVGID_11_);}
	.st16{filter:url(#Adobe_OpacityMaskFilter);}
	.st17{clip-path:url(#SVGID_13_);}
	.st18{enable-background:new    ;}
	.st19{clip-path:url(#SVGID_13_);fill:url(#SVGID_15_);}
	.st20{clip-path:url(#SVGID_13_);mask:url(#SVGID_14_);}
	.st21{clip-path:url(#SVGID_17_);}
	.st22{clip-path:url(#SVGID_19_);fill:url(#SVGID_20_);}
	.st23{opacity:0.68;clip-path:url(#SVGID_22_);}
	.st24{opacity:0.57;clip-path:url(#SVGID_22_);}
	.st25{clip-path:url(#SVGID_26_);}
	.st26{clip-path:url(#SVGID_28_);fill:#CED0D1;}
	.st27{clip-path:url(#SVGID_22_);fill:#4070B6;}
	.st28{clip-path:url(#SVGID_22_);fill:#DD902F;}
	.st29{fill:#C91862;}
	.st30{fill:none;stroke:#272425;stroke-width:7.564600e-02;stroke-miterlimit:10;}
	.st31{fill:#9CC34D;}
	.st32{fill:#B88844;}
	.st33{fill:#78B552;}
	.st34{fill:#589B52;}
	.st35{fill:#5CA257;}
	
		.st36{fill:none;stroke:#FFFFFF;stroke-width:2.3815;stroke-linecap:round;stroke-linejoin:round;stroke-miterlimit:10;stroke-dasharray:0,4.6879;}
	.st37{fill:none;stroke:#FFFFFF;stroke-width:2.3815;stroke-linecap:round;stroke-linejoin:round;stroke-miterlimit:10;}
	.st38{fill:#AFCB49;}
	.st39{fill:#CE4E80;}
	.st40{fill:#E35100;}
	.st41{fill:#4DAEA9;}
	.st42{fill:#B45696;}
	.st43{fill:#E1DF00;}
	.st44{fill:#76B452;}
	.st45{fill:#E4A612;}
	.st46{fill:#474747;}
	.st47{fill:#B2C633;}
	.st48{fill:#272425;}
	.st49{fill:#5D9E3B;}
	.st50{fill:#F3D33F;}
	.st51{fill:#526D59;}
	.st52{fill:#E2D1B1;}
	.st53{fill:#75398E;}
	.st54{fill:#EBB146;}
	.st55{fill:#F1F1F1;}
	.st56{fill:none;stroke:#5FA03C;stroke-width:1.2441;stroke-linecap:round;stroke-linejoin:round;stroke-miterlimit:10;}
	.st57{fill:none;stroke:#5FA03C;stroke-width:1.6816;stroke-linecap:round;stroke-linejoin:round;stroke-miterlimit:10;}
</style>
<g>
	<g>
		<path class="st1" d="M72.5,36.1c0,18.4-14.9,33.4-33.4,33.4c-18.4,0-33.4-14.9-33.4-33.4c0-18.4,14.9-33.4,33.4-33.4
			C57.5,2.7,72.5,17.6,72.5,36.1"/>
	</g>
	<polygon class="st1" points="65.8,20.8 65.8,20.7 65.8,20.7 	"/>
	<g>
		<path class="st31" d="M45.7,64.3c-0.2,0.1-0.3,0.2-0.5,0.2C45.4,64.5,45.6,64.5,45.7,64.3"/>
		<path class="st31" d="M49.4,63.6c0.2-0.1,0.4-0.2,0.6-0.3C49.7,63.3,49.5,63.4,49.4,63.6"/>
		<path class="st31" d="M49.4,63.6c-0.2,0.1-0.3,0.1-0.5,0.2C49,63.8,49.2,63.7,49.4,63.6"/>
		<path class="st31" d="M47.8,64.1c-0.1,0-0.2,0.1-0.3,0.1C47.6,64.2,47.7,64.2,47.8,64.1"/>
		<path class="st31" d="M23.1,12.2c-0.1,0.1-0.3,0.2-0.4,0.4C22.8,12.5,22.9,12.4,23.1,12.2"/>
		<path class="st45" d="M48.5,65.3c-0.1,0-0.2,0.1-0.3,0.1c0.1-0.1,0.2-0.2,0.3-0.4L48.5,65.3c0.5-0.3,0.8-0.5,1.3-0.5
			C49.4,65,48.9,65.1,48.5,65.3 M42.2,6l0-0.2c0.1,0.1,0.1,0.1,0.4,0.1L42.2,6z M40,5.9c-1,0,0.1-0.1,0.2-0.1
			C41,5.9,40.1,5.9,40,5.9 M21,59.7c0.2,0.2,0.5,0.4,0.7,0.5C21.8,60.5,21.5,60.1,21,59.7 M20.3,13.2c-0.3,0.2-0.3,1-0.8,0.7
			c-0.3-0.3,0.2-0.5,0.5-0.8c0,0-0.2,0.3-0.1,0.3C19.7,13.5,20.4,13.1,20.3,13.2 M19.6,58.6c0.3,0.2,0.6,0.4,0.9,0.6
			C20.1,59.1,19.8,58.9,19.6,58.6 M16.8,55.6C16.8,55.6,16.8,55.6,16.8,55.6C16.8,55.5,16.8,55.6,16.8,55.6 M12.4,50.8
			c0,0.1,0.1,0.1,0.2,0.2C12.5,50.9,12.5,50.8,12.4,50.8 M11.1,48.6c0.1,0.1,0.2,0.2,0.2,0.3C11.2,48.8,11.2,48.7,11.1,48.6
			 M9.7,29.7c-0.1,0.5-0.2,0.9-0.4,1.3C9.4,30.6,9.6,30.2,9.7,29.7 M65.1,19.4c0,0-0.1-0.1-0.1-0.1c-0.4-0.7-1.3-1.2-1.9-1.7
			c-0.7-0.6-1.5-1.2-2.2-1.8c-1.1-0.9-2.1-1.8-3.1-2.7c-0.9-0.9-1.6-2.1-2.6-2.8c0,0,0,0,0,0c0,0,0,0-0.1,0c0,0-0.1,0-0.1-0.1
			c-0.3-0.2-0.7-0.4-1-0.6c-0.2-0.1-0.3-0.1-0.3-0.1c-0.2-0.1,0.1,0,0.1-0.1c0,0,0,0,0,0L53,9.2c0,0,0,0,0-0.1
			c-0.4-0.2-0.9-0.4-1.3-0.6c0,0,0,0,0,0c-0.5-0.2-1-0.4-1.5-0.7c0,0,0.1,0,0.1,0C50.4,7.9,50.5,8,50.5,8l0.2,0.1
			c0,0-0.2-0.1-0.3-0.2c-0.1,0-0.2-0.1-0.2-0.1c0,0,0,0,0,0c-0.8-0.3-1.6-0.6-2.4-0.9c-0.1,0-0.4-0.1-0.6-0.1
			c-0.8-0.3-1.9-0.6-3-0.8c-0.8-0.2-1.6-0.3-2-0.3c-1.4-0.2-2.9-0.2-4.3-0.2c-0.2,0.1-0.3,0.2-0.3,0.2c0.6-0.1,1.8-0.2,2-0.1
			c-0.2,0-0.3,0-0.5,0c-0.2,0-0.4,0-0.5,0.1c-0.3,0-0.6,0.1-0.6,0.1c-0.6-0.2,1.1-0.1,0.3-0.2c-0.4,0-0.6,0.1-0.8,0.1
			c0.3-0.1-0.4-0.1-0.5-0.1c-1.4,0.1-2.1,0.1-3.6,0.4c0.1,0,0.1,0,0,0c0,0,0,0,0,0c0,0,0,0-0.1,0c-0.3,0.1-0.6,0.1-0.8,0.2
			c-0.1,0.1-0.2,0.1-0.3,0.2c-0.3,0.2-0.4,0.3-0.3,0.3C31.4,7,31.2,7,31,7c-0.1,0-0.2,0-0.3,0.1c-0.1,0-0.2,0.1-0.4,0.2
			C31.4,7,30,7.3,30,7.5c-0.7,0.3-0.3,0-0.6,0.1c-0.1,0.1-0.3,0.2-0.3,0.3c0.1,0,0.2,0,0.4-0.1c-0.3,0.1-0.4,0.1-0.4,0.1
			c-0.2,0-0.1-0.1,0.1-0.3c0.1-0.1,0.2-0.2,0.2-0.3c-0.3,0.1-0.7,0.3-1,0.4l0,0.1l-0.2,0.1l0-0.1c-0.3,0.2-0.7,0.3-1,0.5
			c0.1,0.2,0.4,0.4,0.7,0.3c0,0.1-0.7,0.2-0.9,0.3c-0.4,0.1-0.7,0.3-1,0.5c-0.1,0.1-0.3,0.2-0.4,0.3c-0.1,0.1-0.3,0.2-0.4,0.3
			l0.4-0.4c-0.1,0-1,0.7-1.2,0.8c-0.1,0,0.1-0.3,0.1-0.3c-0.8,0-1.1,0.7-1.6,1.2c0.4-0.3,0.7-0.6,1.1-0.9c-0.5,1.1-1.8,1.3-2.5,2.1
			c0.2-0.3,0.2-0.3,0.5-0.5c-0.3,0-0.5,0.3-0.8,0.5c0-1,1.2-0.8,1.2-1.6c-1.5,1.3-3,2.1-4.2,3.5c0.1,0,0.3,0,0.4-0.1
			c-0.6,0.8-1.9,0.7-2.1,1.7l0-0.3c-0.7,1.3-2,2.4-2.5,3.7c-0.3-0.8,1.2-1.1,0.5-1.8c-1,2.1-2.2,4.2-3,6.3l0-0.3
			c-0.5,0.7-0.7,1.6-0.8,2.4c0,0,0,0,0.1,0c0,0.1-0.1,0.1-0.1,0.2c0,0.3-0.1,0.6-0.2,0.8c0-0.1,0-0.2-0.1-0.3
			c-0.3,0.8-0.5,1.5-0.7,2.3c0-0.3,0-0.6-0.3-0.9c0,1.6-0.5,2.9-0.4,4.6c0,0.1-0.1,0.3-0.1,0.5c0.1,0.9-0.9,1.7-0.4,2.5
			c0,0,0.1,0,0.1,0.1c-0.7,4.2,0.1,8.6,2.1,12.2l-0.3,0c0.5,0.8,0.8,1.6,1.5,2.1c-0.3-0.3-0.3-0.8-0.5-1c0.7,0.4,0.6,1.1,0.9,1.6
			c-0.1-0.2-0.2-0.4-0.3-0.5c0,0.9,0.9,1.2,1.3,1.9c0.1,0.1,0.1,0.1,0.2,0.2h-0.1c0,0.1,0.1,0.2,0.1,0.3c-0.1-0.1-0.1-0.2-0.2-0.3
			l-0.1,0c1.8,1.8,3.3,3.9,5.2,5.5c0.3,0.3,0.7,0.6,1,0.9c0.1,0.1,0.2,0.2,0.4,0.4c-0.3-0.3-0.5-0.3-0.8-0.5c1,1,2,1.8,3.3,2.6
			l-0.3-0.3c2.8,1.8,6.1,3.1,9.4,4.1c-0.3,0-0.5,0-0.8,0c0.3,0.3,0.8,0.3,1,0.3l-0.3,0c0.3,0,0.5,0.3,0.8,0.3c0.2,0,0.4,0.1,0.5,0.1
			c0.1,0,0.2,0,0.2,0c-0.1,0-0.3-0.1-0.4-0.1c0.2,0.1,0.5,0.1,0.8,0.2c0.3,0.1,0.7,0.2,0.9,0.3c-0.1,0-0.2,0-0.3,0
			c-0.4-0.2-0.7-0.2-1-0.2c1,0.3,0.3,0.1,0.7,0.3c0.4,0.1,0.6,0.1,0.8,0.1c0.2,0,0.2-0.1,0.1-0.1c0.4,0.1,0.7,0.2,1,0.2
			c0.3,0,0.6,0.1,1,0.1l-0.2,0.1c0,0,0.2,0,0.4,0c0.1,0,0.2,0,0.3,0c0.1,0,0.1,0,0.1,0s-0.2,0-0.3,0c-0.2,0-0.3,0-0.3,0
			c0.4,0.1,0.6,0.1,0.7,0.1c0.1,0,0.2,0,0.2-0.1c0.1-0.1,0.2-0.1,1.1,0c0.4,0,0.8,0,1.2,0c0.7-0.5,1.3,0.2,2,0
			c-0.2-0.2-0.4-0.2-0.6-0.2c1.2,0,2.1,0.2,3.3,0c-0.5-0.5-0.8,0-1.3,0c0.8-0.5,1.8,0,2.5-0.6c0,0,0,0.1,0,0.1
			c0.1,0,0.2-0.1,0.3-0.1l0,0.3c0.3-0.7,1-0.5,1.5-0.6c-0.2,0.1-0.4,0.2-0.5,0.3c0.5-0.3,0.8-0.3,1.3-0.3c-0.1,0-0.3,0.1-0.4,0.2
			c0.3-0.1,0.7-0.2,1.1-0.4c0,0-0.1,0-0.1,0c0.8-0.5,1.5-1.1,2.5-1.3l-0.2,0.3c0.9-0.9,2.2-0.9,3-1.6c0.8-0.3,1.5-0.9,2.1-1.7
			c0.1,0.1,0.3,0.1,0.2,0.3c0.7-1.1,2-1.9,3-2.9l0,0.3c0.2-0.3,0.7-0.8,1-1.1l-0.2,0c0.8-0.3,1.2-1.1,1.8-1.6c0.5-0.6,1-1.2,1.4-1.9
			c0.9-1.4,1.6-2.8,2.5-4.1c-0.2,0.3-0.2,0.3-0.5,0.5c0.4-0.4,0.5-1,0.7-1.5c0,0,0,0.1,0,0.1c1-1.6,1.5-3.4,2-5.3l-0.2,0.3
			c0.2-0.5,0.2-1.1,0.5-1.5c0.1-0.4,0.2-0.8,0.3-1.2c0.1-0.4,0.2-0.8,0.3-1.2c0-0.2,0.1-0.4,0.1-0.7c0-0.2,0.1-0.5,0.1-0.7l0,0.1
			c0.1-0.6,0.1-1.1,0.1-1.6l0,0.3c0.3-1.6,0.3-3.1,0.3-4.7c-0.2-3.3-1-6.6-2.5-9.6C66.5,22,65.9,20.6,65.1,19.4"/>
		<path class="st31" d="M13.1,50.8c-0.1-0.1-0.1-0.1-0.3-0.3c0.2,0.2,0.2,0.3,0.3,0.5h0.1C13.2,50.9,13.1,50.9,13.1,50.8"/>
		<path class="st31" d="M10.7,26.1c-0.3,0.2-0.3,0.4-0.2,0.6c0.1-0.2,0.1-0.3,0.2-0.5C10.7,26.2,10.7,26.2,10.7,26.1"/>
		<path class="st3" d="M7.3,29.9l0,0.1c-0.1,0.5-0.3,1-0.4,1.2c0.1-0.1,0.2-0.3,0.4-0.6C7.3,30.4,7.3,30.4,7.3,29.9
			C7.4,29.7,7.4,30,7.4,30C7.4,29.8,7.5,29.3,7.3,29.9 M7.8,27.9C7.8,27.9,7.8,27.9,7.8,27.9C7.8,27.9,7.8,27.9,7.8,27.9L7.8,27.9z
			 M19.5,10.9c-0.2,0.1-0.3,0.2-0.4,0.2C19.1,11.2,19.2,11.1,19.5,10.9 M34.1,4.1c0.1,0,0.1,0,0.1,0C34.2,4.1,34.2,4.1,34.1,4.1
			 M32,4.5c0,0-0.1,0-0.1,0C31.9,4.6,32,4.5,32,4.5 M57.8,9C57.8,9,57.8,9,57.8,9C57.5,8.8,57.6,8.9,57.8,9 M6.8,38.6L6.8,38.6
			c0,0.5,0.1,0.8,0,0.3C6.9,38.8,6.9,38.7,6.8,38.6 M6.9,31.2C6.9,31.2,6.9,31.2,6.9,31.2C6.9,31.3,6.9,31.2,6.9,31.2 M70.6,28.3
			L70.6,28.3C70.6,28.2,70.6,28.2,70.6,28.3L70.6,28.3z M70.6,28.2l-0.2-0.4C70.5,28.5,70.5,28.2,70.6,28.2 M7.4,28.7
			c0,0.2,0.1,0.4,0.1,0.4c0-0.5,0.1-0.8,0.2-1.2l-0.4,0.3C7.4,28.3,7.4,28.5,7.4,28.7 M70.2,43.4c0-0.1,0-0.1,0-0.1
			C70.3,43.3,70.3,43.4,70.2,43.4 M70.5,42.3l0.1-0.4C70.5,42.1,70.5,42.2,70.5,42.3 M8.3,46.7c0-0.2-0.1-0.4-0.2-0.7L8.3,46.7z
			 M6.6,34c0,0,0,0.1,0,0.2c0,0.1,0,0.3,0,0.4c0,0.3,0,0.6,0,0.6l0.1-0.6l-0.1,0C6.7,33.9,6.6,34.1,6.6,34 M7.4,29.1
			c0-0.3-0.2,0.2-0.1-0.5C7.3,29.1,7.1,30,7.4,29.1 M20.5,62.2L20.5,62.2C20.5,62.3,20.6,62.3,20.5,62.2 M22.4,63.4
			c0.2,0.1,0.3,0.2,0.4,0.3C22.8,63.6,22.7,63.6,22.4,63.4 M40.8,68.2c0.1,0,0.2,0,0.2,0C40.9,68.2,40.9,68.2,40.8,68.2 M35.7,68
			l0.4-0.1C35.4,67.8,35.7,67.9,35.7,68 M35.6,68L35.6,68C35.6,68,35.6,68,35.6,68L35.6,68z M69.8,44.8L69.8,44.8
			C69.9,44.8,69.9,44.7,69.8,44.8 M29.9,5.3c-0.1,0.1-1.2,0.5-0.1,0.2C29.9,5.4,30.7,5.1,29.9,5.3 M7.4,30C7.4,30.1,7.4,30.1,7.4,30
			C7.4,30,7.4,30,7.4,30 M47.4,4.4c0.1,0,0.2,0.1,0.3,0.1l0-0.1C47.3,4.3,46.9,4.3,47.4,4.4 M30.4,66.6c-0.2-0.1-0.5-0.1-0.7-0.2
			C30.2,66.6,30.4,66.8,30.4,66.6 M40.4,3.5l0.8,0.1l-0.2,0L40.4,3.5z M6.8,40.3c0,0,0,0.1,0,0.1c0,0.1,0,0.2,0.1,0.3
			c0-0.1,0-0.1,0-0.2C6.8,40.4,6.8,40.3,6.8,40.3 M71.2,37.1c0-0.4,0-0.7,0-1c0,0,0,0.2-0.1,0.4c0,0.1,0,0.2,0,0.3
			c0,0.1,0,0.1,0,0.1c-0.1-1,0-1.8-0.2-1c0.1,0,0.1,0.3,0.1,0.6c0,0.3,0,0.7-0.1,1.1c0,0.2,0,0.4,0,0.6c0,0.2,0,0.4,0,0.5
			c0,0.3,0,0.5,0.1,0.6c0,0,0,0,0,0c0,0,0,0,0,0c0,0,0,0,0,0c0,0,0,0,0,0c0,0,0,0,0,0c0,0,0,0.1,0,0.2c0,0,0,0.1,0,0.1
			c0,0.1-0.1,0.3-0.1,0.3c0-0.2,0-0.2,0-0.3c-0.1,0.5-0.1,0.7-0.1,1c0,0,0,0,0,0.1c0,0,0,0.1,0,0.1c-0.1,0.4-0.1,0.7-0.1,0.9
			l0.2-0.7v0c-0.1,0.4-0.1,0.8-0.2,1.2c-0.1,0.3-0.2,0.4-0.1,0.1c0,0,0,0.3-0.1,0.5c0,0.3-0.1,0.5-0.1,0.5c-0.1,0.3-0.1,0.2-0.1,0
			c0,0.2-0.1,0.4-0.2,0.7c-0.1,0.2-0.1,0.4-0.1,0.6c0,0.1-0.1,0.2-0.1,0.2l0,0c0,0.1,0,0.3-0.1,0.5c0,0.1-0.1,0.3-0.1,0.4
			c0,0,0,0,0,0c0,0,0,0,0,0.1c-0.1,0.3-0.2,0.6-0.3,0.9c0-0.1,0.1-0.6,0.3-1.1c-0.6,0.7-0.2,0.8-1,2.4c0,0,0-0.1,0-0.1
			c0-0.1,0.1-0.2,0.1-0.3c0.1-0.2,0.1-0.4,0.1-0.4c-0.4,0.5-0.6,1.1-1.1,1.9c0.1-0.2,1-1.7,0.7-0.7c-0.1,0.2-0.3,0.6-0.5,1.1
			c-0.1,0-0.3,0.4-0.6,1l-0.1-0.1c-0.3,0.7-0.2,0.6-0.3,1c-0.4,0.7-0.6,0.8-0.8,0.9c-0.7,1.1,0.6-0.6-0.1,0.6
			c-0.6,0.9-1,1.5-1.6,2.6c-0.5,0.6,0-0.2-0.2,0L64,56.3c-0.1,0.1-0.1,0.1-0.1,0c-0.1,0.2-0.1,0.3-0.1,0.3c-0.2,0.2-0.4,0.5-0.5,0.7
			c-0.3,0.5-0.7,0.8-1.1,1.1c-0.1,0.1-0.1,0.2-0.1,0.2c-0.2,0.2-0.4,0.4-0.5,0.6c-0.2,0.2,0-0.2-0.1-0.1c-0.3,0.3-0.4,0.6-0.6,0.7
			c-0.2,0.2-0.4,0.4-0.7,0.6c0.1-0.1,0.1-0.1,0.2-0.2c-0.5,0.4-0.8,0.9-1.4,1.2c-0.2,0.4-0.7,0.6-0.7,0.8c0,0,0.1-0.1,0.2-0.1
			c0,0,0.1-0.1,0.1-0.1c0,0,0.1,0,0.1,0c0.1-0.1,0-0.1-0.1,0c0.1-0.1,0.2-0.2,0.3-0.2c0,0,0,0,0,0c0.1-0.1,0.2-0.1,0.2-0.1
			c-0.1,0.1-0.3,0.3-0.4,0.4c0,0,0,0,0,0c-0.1,0.1-0.2,0.2-0.3,0.3c0.1-0.1,0.1-0.1,0-0.1c0,0-0.1,0.1-0.3,0.3l-0.2,0c0,0,0,0,0,0
			l-0.1,0l0,0.1c0,0-0.1,0.1-0.2,0.2c-0.1,0.1-0.3,0.2-0.5,0.3c0,0-0.1,0-0.1,0.1c0.4-0.3,1.4-1,1.9-1.6c-0.4,0.2-1.2,1.1-1,0.7
			c-0.3,0.6-1.3,0.9-2.1,1.7v-0.1c-0.1,0.1-0.4,0.3-0.7,0.5l0.4-0.4c-0.3,0.3-0.7,0.5-1.1,0.7c-0.4,0.2-0.8,0.3-1.1,0.6
			c1.4-0.8,0.6-0.2,1-0.3c-0.1,0.1-0.2,0.1-0.3,0.2c-0.1,0.1-0.2,0.1-0.3,0.2c-0.4,0.2-0.6,0.3-0.8,0.3c-0.2,0-0.4,0.1-0.6,0.2
			c-0.2,0.1-0.6,0.2-1,0.4c0.1-0.1,0.3-0.1,0.5-0.2c0.2-0.1,0.3-0.1,0.1,0.1c-0.4,0.2-1,0.3-1.3,0.4c-1.5,0.6,0.3,0-0.3,0.3
			c-0.6,0-0.7,0.3-1.4,0.6l0-0.1c-0.9,0.2-1,0.3-1.1,0.4c0,0,0,0,0,0c-0.2,0.1-0.4,0.1-0.6,0.2c0,0,0,0,0,0c0.2-0.1,0.3-0.2,0.3-0.2
			s-0.2,0.1-0.4,0.1c-0.2,0.1-0.4,0.1-0.4,0.1l0.1-0.2c-0.4,0.1-0.7,0.2-1,0.3C45.3,68,45,68,44.6,68c0.2,0,0,0.2-0.6,0.3
			c0.1-0.1,0.1-0.1,0.2-0.2c0,0-0.2,0.1-0.4,0.2c0,0-0.1,0-0.1,0c-0.4,0,0.2-0.1-0.6,0c0,0,0.1-0.1,0.1-0.1c0,0,0,0,0,0
			c0.2,0,0.4-0.1,0.7,0c0,0,0.2-0.1,0.3-0.2c-0.6,0-1.5,0.1-1.9,0.2c0.2,0,0.3,0,0.4,0c0,0-0.1,0-0.3,0.1c-0.2,0-0.4,0.1-0.6,0.1
			c0,0-0.1,0-0.1,0c-0.1,0-0.2,0-0.3,0c-0.1,0-0.2,0-0.4,0c0,0,0.1,0,0.2,0c-0.3,0-0.6,0.1-1,0.1c0.1-0.1,0.1-0.2,0.6-0.2
			c0,0,0,0,0,0c-0.1,0-0.3,0-0.5,0c-0.4,0-0.8,0.1-0.8,0.1c-0.1,0-0.8-0.1-0.6-0.2c-0.4-0.1-1,0-1.5,0c-0.3,0-0.6,0-0.9,0
			c-0.1,0-0.3,0-0.4,0c-0.1,0-0.3,0-0.4-0.1c-0.1,0-0.2,0-0.4,0c-0.2,0-0.4-0.1-0.7-0.1c0,0,0,0-0.1-0.1c-0.4-0.1-0.5-0.1-0.6-0.1
			c-0.1,0-0.2,0-0.2-0.1c-0.3-0.1-0.5-0.1-0.8-0.2c-0.3-0.1-0.6-0.1-0.9-0.2l-0.4-0.2c0.1,0,0.1,0,0.2,0c0,0-0.1,0-0.2-0.1L31.3,67
			c-0.2-0.1-0.3-0.1-0.3,0c-0.1,0-0.2-0.1-0.3-0.1c-0.5-0.2-1-0.3-1-0.3c0,0.2-1.3-0.3-1.5-0.2c-0.1,0-0.2-0.1-0.3-0.1
			c0,0,0.1,0,0.1,0c-0.1,0-0.3-0.1-0.5-0.1c-0.1-0.1-0.2-0.1-0.3-0.2c0.3,0.1,0.6,0.2,0.9,0.3l-0.7-0.4c1,0.2,1.6,0.5,1,0.1
			c-0.1,0.1-0.9-0.2-1.6-0.4c-0.7-0.3-1.4-0.6-1.6-0.5c0,0-0.1,0-0.1-0.1c-0.1,0-0.2-0.1-0.3-0.2c0.1,0,0.1,0,0.2,0.1
			c-0.2-0.1-0.3-0.2-0.4-0.2c-0.2-0.2-0.4-0.3-0.4-0.3c0,0,0.1,0.1,0.1,0.2c-0.1,0-0.1,0-0.2,0c-0.2,0-0.5-0.1-1.1-0.5
			c-0.1-0.1-0.2-0.1-0.2-0.2c0.1,0,0.1,0,0-0.1l0.2,0.1c-0.1,0-0.1-0.1-0.2-0.1c0,0,0,0,0,0c0,0,0,0,0,0c-0.1,0-0.1,0-0.1-0.1
			l0.1,0.1c0,0-0.1,0-0.2-0.1c-0.1-0.1,0-0.1,0.1,0c0,0-0.2-0.1-0.4-0.2c0,0,0.1-0.1-0.4-0.3c-0.1,0-0.2,0-0.3-0.1
			c0,0-0.1,0-0.1-0.1c-0.2-0.1-0.4-0.3-0.3-0.2c0,0-0.1,0-0.1-0.1c-0.2-0.1-0.3-0.2-0.5-0.3c-0.1-0.1-0.2-0.1-0.2-0.1h0l0,0
			c0,0,0,0,0,0c-0.1-0.1-0.2-0.1-0.3-0.2c0,0,0,0.1,0,0.1c-0.2-0.1-0.5-0.2-0.6-0.3c-0.3-0.3,0.2,0.1,0.1,0c0,0-0.2-0.1-0.4-0.2
			c-0.2-0.1-0.4-0.2-0.4-0.2c-0.2-0.3,0.4,0.1,0.9,0.5c-0.3-0.4-0.4-0.5-0.7-0.6c-0.1-0.1-0.3-0.2-0.5-0.3c-0.2-0.2-0.5-0.4-0.8-0.7
			c0,0,0.2,0.1,0.3,0.3c0.2,0.1,0.3,0.2,0.3,0.2c-0.2-0.2-0.4-0.5-0.6-0.7c-0.2-0.3-0.6-0.5-0.9-0.9c0.1,0.2,1.3,1.5,0.5,0.9
			c-0.2-0.2-0.5-0.4-0.9-0.8c0.1-0.1-0.3-0.4-0.8-0.9l0.1-0.1c-0.5-0.5-0.5-0.4-0.9-0.6c-0.1-0.2-0.3-0.3-0.3-0.4
			c0,0,0.1,0.1,0.2,0.2c0.2,0.2,0.4,0.4,0.2,0.1c0,0-0.3-0.2-0.5-0.4c0,0,0,0,0,0c-0.1-0.2-0.1-0.3-0.2-0.5c-0.8-1,0.4,0.8-0.6-0.3
			c-0.2-0.2-0.3-0.4-0.5-0.6c-0.1-0.2-0.3-0.4-0.4-0.5c-0.3-0.4-0.6-0.7-1-1.2c-0.3-0.5,0-0.2,0-0.1c0,0,0,0.1,0,0.2l0.1-0.1
			l-0.3-0.3c0,0.1,0.1,0.1,0.1,0.2l-0.4-0.4c-0.1-0.1,0-0.1,0-0.1c-0.1-0.2-0.2-0.2-0.2-0.2c-0.1-0.2-0.3-0.5-0.4-0.7
			c-0.3-0.5-0.6-1-0.8-1.5c-0.1-0.2-0.2-0.5-0.3-0.7c0,0,0,0,0,0c0,0,0,0,0-0.1c-0.1-0.2-0.2-0.4-0.3-0.6c-0.2-0.3-0.4-0.8-0.4-0.5
			l0.1,0.2c-0.2-0.4-0.3-0.5-0.7-1.2c0,0-0.1-0.2-0.1-0.4c0,0,0,0,0,0s0,0,0,0c0,0,0,0,0-0.1c0-0.1-0.1-0.3-0.1-0.3
			c0-0.1,0-0.2,0-0.2c0,0.2,0,0.3,0,0.3c-0.1-0.2-0.1-0.5-0.2-0.8c0,0,0,0,0-0.2c0,0.1,0,0.1,0,0.1c-0.1-0.3-0.1-0.6-0.2-0.8l0-0.2
			L7.7,45c0,0-0.1-0.4-0.2-0.9c-0.1-0.2-0.1-0.4-0.1-0.6c0-0.2,0-0.3,0-0.3C7.3,43,7.2,42.7,7,42.4c-0.1-0.3-0.2-0.6-0.3-0.9
			c0-0.2,0-0.6,0-0.9c0-0.1,0-0.1,0-0.2c0,0.2,0.1,0.3,0.1,0.5c0,0.1,0.1,0.3,0.1,0.5c0,0.1,0,0.2,0,0.3c0-0.2,0.1,0.1,0.2,0.4
			c0.1,0.3,0.2,0.7,0.3,0.6l-0.1-0.4c-0.1-0.2-0.1-0.4-0.1-0.4c0,0,0.1,0.3,0.1,0C7.2,41.8,7,41,7,40.2c-0.1-0.4-0.2-0.4-0.3-0.3
			c0-0.2-0.1-0.4-0.1-0.4c0.1,0,0.1-0.1,0.1-0.3c0-0.2,0-0.4,0-0.6c-0.1,0.2-0.2-0.1-0.2-0.5c0,0,0-0.1,0.1-0.1
			c0-0.7-0.1-0.7-0.1-0.9c0-0.2,0-0.4,0-0.5c0.1,0,0.2,0.1,0.2,1.1c0.2-1-0.3-1.3-0.1-2.3c0,0.2,0,0.3,0,0.4c0-0.3,0-0.7,0-1.1
			c0-0.4,0.1-0.6,0.1-0.4l0,0.2c0-0.4,0.1-0.8,0.1-1.3c0.1-0.5,0.1-1,0.2-1.5C6.9,31,7,30.6,7,30.2c0-0.3,0.1-0.6,0-0.6
			c0,0,0.2,0.3,0.2,0.3c0,0,0-0.7,0-1.4l0-1.4c0.1,0.3,0.8-0.5,0.5,0.8c0.1-0.2,0.1-0.4,0.2-0.6c0.1-0.2,0.2-0.5,0.3-0.9
			c-0.1,0.1-0.2,0.3-0.3,0.3c0,0,0-0.1,0-0.1c0-0.1,0-0.1,0-0.2c0.3-0.6,0.2-0.5,0.7-1.4c-0.2,0.3-0.3-0.2-0.1-0.7
			c0,0.1,0.3,0.1,0.2,0.3c0,0,0-0.1,0-0.2c0-0.1,0.1-0.3,0.1-0.5c0.1-0.4,0.2-0.7,0.2-0.7c-0.1,0.3,0.2,0.2,0.4-0.1
			c-0.1,0.1,0.6-1.1,0.7-1.5c0,0-0.1,0.1-0.2,0.3C10.1,22,10,22.1,10,22.1c0-0.1,0.1-0.1,0.1-0.2c0,0,0-0.1,0-0.1l0-0.1
			c0.1-0.2,0.2-0.4,0.3-0.6c0.1-0.2,0.2-0.4,0.2-0.6c0-0.1,0-0.2,0.1-0.3c0.1-0.2,0.2-0.4,0.4-0.6l0.1-0.1l0.1-0.4
			c0,0,0-0.1,0.1-0.1c-0.1,0.2,0,0.6,0.5-0.1c0-0.2,0.1-0.5,0.3-1l0.1-0.3l0-0.1L12.1,18c0.2-0.5,0.4-1,0.7-1.6
			c0.1-0.1,0.2-0.2,0.3-0.3l0.2-0.1l0.4-0.6c0.1-0.1,0.1-0.1,0.2-0.2c-0.3,0.7-1.1,2.4-1.5,3.3c0.4-0.5,0.2-0.1,0.7-0.8
			c0.3-0.2-0.2,0.5-0.3,0.7c0,0,0.3-0.4,0.6-0.8c0.2-0.2,0.3-0.4,0.4-0.6c0.1-0.2,0.2-0.3,0.2-0.3c-0.2,0,0.9-1.3,0.8-1.4
			c0,0-0.1,0.1-0.2,0.3c-0.1,0.2-0.3,0.4-0.5,0.6c-0.2,0.2-0.3,0.5-0.4,0.6c-0.1,0.2-0.2,0.3-0.2,0.3c-0.1,0,0-0.4,0.3-0.8
			c0.3-0.5,0.7-1.1,1.2-1.6c0.3-0.2,0,0.4,0.1,0.4c0.1-0.2,0.9-1.1,1-1.2c0,0-0.1,0.1-0.2,0.3c-0.1,0.1-0.2,0.3-0.2,0.3
			c0.3-0.3,0.5-0.5,0.7-0.8c0.2-0.3,0.5-0.6,0.9-0.8c0.3-0.2,0.9-0.5,0.9-0.6c-0.1,0.1-0.3,0.1-0.4,0.1c0.3-0.4,0.7-0.7,1.2-1.1
			c0,0,0.1,0,0.1-0.1c0,0,0,0,0.1,0c0,0,0.1-0.1,0.1-0.2c0.1-0.1,0.2-0.2,0.3-0.2c0.1,0,0,0.1,0.4-0.2c0-0.2,1-0.7,0.5-0.5
			c0-0.1,0.1-0.1,0.1-0.2c0.3-0.2,0.5-0.3,1-0.6c-0.1,0-0.1,0,0-0.2c0,0,0.1-0.1,0.1-0.1L21.7,9c0.2-0.2,0.4-0.3,0.7-0.5
			c0.2-0.1,0.4-0.3,0.6-0.4c0.4-0.2,0.7-0.5,1.1-0.6c0.7-0.4,1.4-0.7,2.5-1.2c0.2,0,0.8-0.2,0.5-0.1c0.2-0.1,0.3-0.2,0.8-0.4
			c0.9-0.2-0.9,0.4-0.2,0.3c0-0.1,1-0.6,1.6-0.8c-0.2-0.1-1.4,0.5-2,0.8c0-0.1,0-0.1,0.1-0.2c0,0,0.1,0,0.1,0c0.1-0.1,0.1-0.1,0-0.1
			c0,0,0.1,0,0.1-0.1c0.3-0.1,0.7-0.3,1.1-0.4c0.1,0,0.2-0.1,0.2-0.1c0.1,0,0.2,0,0.4-0.1c0.1,0,0.1-0.1,0.2-0.1
			C29.7,5,29.8,5,29.9,5c0.4-0.1,0.7-0.1,0.8-0.1c0.8-0.2-0.3-0.1,0.5-0.3l0.2,0l0.2-0.1c0.3-0.1,0.5-0.1,0.6-0.1c0,0,0,0,0.1,0
			c-0.3,0.1-0.5,0.1-0.7,0.2c0.2,0,0.5-0.1,0.8-0.1c0,0,0,0,0.1,0c-0.1,0-0.4,0.1-0.5,0.1c0.6-0.1,1.7-0.4,2.1-0.5
			c-0.1,0-0.2,0-0.3,0c-0.2,0-0.4,0.1-0.4,0.1c0.1,0,0.2,0,0.2-0.1c0.1,0,0.2,0,0.3,0c0.5-0.1,1.1-0.2,1.7-0.2
			c0.3,0,0.5-0.1,0.8-0.1c0.3,0,0.5,0,0.7,0c0.2,0,0.4-0.1,0.6-0.1c1-0.1,2.1-0.1,3-0.1l-0.2-0.1c0.8,0,1.2,0,1.5,0.1l-0.2,0.1
			l0.5,0.1l-0.1-0.1c0.2,0,0.3,0.1,0.6,0.1c0.3,0,0.6,0.1,1,0.1l-0.1,0c0.1,0,0.2,0,0.2,0c-0.1,0-0.2,0-0.2,0.1c0,0,0.2,0,0.4,0
			c0.2,0,0.4,0,0.4,0c0,0-0.3,0-0.1,0.1c0,0,0.3-0.1,0.6,0c0.2,0.1,0.6,0.2,0.2,0.2c0.5,0,0.7,0.1,0.9,0.1c0.2,0,0.3,0,0.4,0
			c0.2,0,0.2,0,0.9,0l0.3,0.2c0.4,0,0.5,0,1.4,0.2c-0.8-0.2,0.5,0.3-0.3,0.2C49.2,5,49.6,5.2,50,5.3c0.4,0.1,0.7,0.2,1,0.3
			c0.3,0.1,0.5,0.2,0.8,0.3C52,6,52.2,6.1,52.3,6.2c0.5,0.1,0.1-0.1-0.3-0.3c-0.4-0.2-0.9-0.4-0.7-0.3c-0.2-0.1,0-0.1,0.3,0
			c0.3,0.1,0.7,0.3,1,0.4c0.3,0.1,0.5,0.3,0.8,0.6c0.2,0.1,0.3,0.3,0.6,0.4c0.2,0.1,0.5,0.3,0.9,0.5c-0.1-0.1-0.2-0.1-0.3-0.1
			c0.2,0.2,0.5,0.3,0.8,0.4c0.1,0.1,0.3,0.1,0.4,0.2c0.1,0.1,0.3,0.2,0.4,0.3c0.4,0.1,0.8,0.5,1,0.4L56,7.9c0.4,0.2,0.7,0.3,1.2,0.5
			c0.4,0.2,0.9,0.5,1.4,0.9c-0.1,0-0.5-0.2-0.7-0.3c0.3,0.3,0.7,0.4,1,0.7c-0.1,0-0.2,0-0.3-0.1c-0.2-0.1-0.4-0.2-0.6-0.4
			c-0.2-0.1-0.5-0.3-0.7-0.5c-0.2-0.1-0.5-0.3-0.7-0.3c0.2,0.2,0.5,0.3,0.8,0.5c0.3,0.2,0.4,0.3,0.2,0.2c0.3,0.1,0.7,0.3,1,0.5
			c0.4,0.3,0.7,0.6,1.2,0.8l-0.1,0.1c0.2,0.1,0.5,0.3,0.7,0.5l-0.5-0.2c0.4,0.2,0.7,0.5,1,0.8c0.3,0.3,0.6,0.6,0.9,0.8
			c-1.3-1.1-0.2-0.4-0.7-0.9c1.7,1.3,0.8,1,2.5,2.7c-0.2-0.2-0.8-0.9-0.4-0.6c0.3,0.3,0.7,0.8,0.8,1.1c1.1,1.2-0.1-0.3,0.4,0.2
			c0.2,0.5,0.5,0.6,1,1.1L65.2,16c0.5,0.8,0.6,0.8,0.7,0.9c0.1,0,0.1,0,0.2,0.1c0.1,0.1,0.2,0.3,0.4,0.6c0,0-0.1-0.1-0.3-0.2
			c-0.1-0.1-0.3-0.2-0.3-0.2s0,0,0.1,0.1c0.1,0.1,0.1,0.1,0.2,0.2c0.1,0.2,0.3,0.4,0.3,0.4l-0.2-0.1c0.3,0.4,0.5,0.6,0.6,0.9
			c0.2,0.3,0.3,0.5,0.5,0.9c0-0.1,0-0.1,0.2,0c0.1,0.1,0.3,0.3,0.5,0.7c0.2,0.5-0.2-0.2,0.3,0.8c-0.2-0.2-0.4-0.4-0.5-0.9
			c-0.1,0-0.2-0.2-0.2-0.2c0.1,0.3,0.3,0.6,0.4,0.9c0.2,0.3,0.3,0.6,0.4,0.8c-0.1-0.1-0.1-0.3-0.2-0.4c0,0,0.1,0.1,0.1,0.2
			c0.1,0.1,0.2,0.3,0.3,0.5c0.1,0.1,0.1,0.2,0.2,0.3c0,0.3,0.1,0.6,0,0.6c0,0,0,0.1,0.1,0.1c0,0,0.2,0.4,0.3,0.7
			c0.1,0.2,0.1,0.5,0.2,0.8c0.1,0.2,0.1,0.4,0.2,0.6c0,0,0,0,0,0c0.1,0.2,0.1,0.4,0.2,0.7c0.1,0.2,0.1,0.4,0.2,0.6c0,0,0,0,0,0
			c0,0,0.1,0.1,0.1,0.1c0,0,0,0,0,0c0.1,0.3,0.2,0.6,0.3,0.8c0,0.2,0.1,0.3,0.1,0.5l0,0l0,0c0,0.1,0,0.2,0.1,0.4c0,0,0,0.1,0.1,0.2
			c0,0.1,0,0.1,0,0.2c0,0.1,0,0.2,0,0.2c0.1,0.5,0.1,0.9,0.2,1.4c0.1,0.5,0.1,1.1,0.2,1.8l-0.1,0.8c0.1,0.7,0.1,0,0.2,0
			c0,0,0,0.1,0,0.1c0,0.3,0,0.6,0,0.9l0.1-0.2c0,0.2,0,0.4,0,0.5c0,0.2-0.1-0.1-0.2,0.2C71.3,35,71.5,36,71.2,37.1 M68.5,48.5
			c0.1-0.2,0.2-0.7,0.3-0.9C68.9,47.9,68.7,48.1,68.5,48.5 M59.1,61.6c-0.1,0-0.1,0.1-0.2,0.1c0.2-0.2,0.5-0.4,0.5-0.4
			C59.3,61.4,59.2,61.5,59.1,61.6 M57.2,63.3C57.2,63.3,57.2,63.3,57.2,63.3c0,0,0.1-0.1,0.1-0.1C57.3,63.2,57.2,63.3,57.2,63.3
			 M30.9,67.1c-0.1-0.1,0-0.1,0.1-0.1c0.1,0,0.1,0.1,0.2,0.1C31.2,67.1,31.1,67.1,30.9,67.1 M30.1,67c-0.3-0.1-0.2-0.1-0.2-0.2
			c0.3,0.1,0.5,0.1,0.5,0.1C30.4,66.9,30.3,67,30.1,67 M17.4,59.9c0.2,0.1,0.6,0.4,0.7,0.6C17.8,60.4,17.7,60.2,17.4,59.9
			 M10.9,52.4c-0.1,0-0.2-0.2-0.3-0.5c0,0,0,0,0,0c0.2,0.3,0.3,0.6,0.5,0.8C11,52.6,11,52.5,10.9,52.4 M8,46.7
			c0-0.1-0.1-0.2-0.1-0.3L8,46.2c0,0,0,0.2,0.1,0.4c0,0.1,0.1,0.3,0.1,0.4C8.2,47,8.1,46.9,8,46.7 M7.6,45.8c0,0,0,0,0-0.1l0,0
			C7.6,45.8,7.6,45.8,7.6,45.8C7.6,45.9,7.6,45.9,7.6,45.8 M7.5,45.1C7.5,45.1,7.5,45.1,7.5,45.1L7.5,45.1
			C7.5,45.1,7.5,45.1,7.5,45.1 M7.3,44.1c0,0.1,0.1,0.3,0.1,0.4c0,0.1,0,0.1,0,0.2C7.4,44.5,7.3,44.3,7.3,44.1 M7.6,46.3
			c0-0.1-0.1-0.3-0.1-0.4c0-0.1,0-0.2-0.1-0.3c0,0,0,0.1,0,0.1c0-0.2-0.1-0.3-0.1-0.5c0,0,0.1,0.1,0.1,0.2c0-0.1-0.1-0.2-0.1-0.2
			c0-0.2,0-0.3,0-0.3c0,0.1,0,0.2,0.1,0.2c0,0.1,0.1,0.3,0.1,0.4c0,0-0.1-0.1-0.1-0.1c0,0.1,0.1,0.2,0.1,0.3c0,0.1,0.1,0.2,0.1,0.2
			c0,0.3,0.1,0.5,0.1,0.7C7.7,46.5,7.6,46.4,7.6,46.3 M6.5,40.7c0,0,0.1,0.2,0.2,0.7C6.6,41.2,6.6,41,6.5,40.7 M6.4,40.3
			C6.4,40.3,6.4,40.3,6.4,40.3c0-0.2,0-0.3,0-0.5c0-0.3,0-0.5-0.1-0.7c0.1,0,0.1-0.2,0.2-0.1c-0.1,0.3,0,0.6,0.1,1
			c-0.1,0.1-0.1,0.3-0.1,0.5C6.5,40.5,6.5,40.4,6.4,40.3 M6.3,39.6c0-0.2-0.1-0.4-0.1-0.7c0,0.1,0.1,0.2,0.1,0.2
			C6.3,39.3,6.3,39.5,6.3,39.6 M7.3,27L7.3,27L7.3,27L7.3,27z M7.9,26.6c0-0.1,0.1-0.1,0.1-0.2c0,0.1,0,0.2-0.1,0.3
			C7.9,26.7,7.9,26.7,7.9,26.6 M11.2,19.3c-0.1,0.2-0.2,0.4-0.3,0.6C10.9,19.8,11,19.6,11.2,19.3 M17.3,11.7
			C17.3,11.7,17.3,11.7,17.3,11.7C17.3,11.7,17.3,11.7,17.3,11.7C17.3,11.7,17.3,11.7,17.3,11.7 M20.5,9.9C20.5,10,20.5,10,20.5,9.9
			c-0.1,0.1-0.2,0.2-0.3,0.2C20.3,10,20.4,10,20.5,9.9 M69.2,23.4C69.1,23.3,69,23.2,69,23C69,23.1,69.1,23.2,69.2,23.4 M39.1,1.8
			C20.1,1.8,4.8,17.1,4.8,36.1s15.3,34.3,34.3,34.3C58,70.3,73.3,55,73.3,36.1S58,1.8,39.1,1.8 M70.5,41.6c0,0,0-0.1,0.1-0.1
			c0-0.1,0.1-0.1,0.1-0.1l-0.2,0.1L70.5,41.6z M71,33.8c0,0.3,0,0.7,0,1C71,34.1,71.2,33.7,71,33.8 M67.5,50.1
			c0.1-0.1,0.2-0.2,0.3-0.5L67.5,50.1L67.5,50.1z M32,4.6l0,0.2l0.4-0.1C32.1,4.6,32.1,4.6,32,4.6 M8.5,47.2
			c-0.1-0.3-0.2-0.5-0.2-0.6C8.3,46.7,8.4,47,8.5,47.2 M8.7,47.8c-0.1-0.2-0.1-0.4-0.1-0.4c0,0-0.1-0.1-0.1-0.2
			C8.6,47.4,8.6,47.7,8.7,47.8c0.1,0.3,0.1,0.4,0.1,0.4c0,0,0,0,0-0.1C8.8,48,8.7,47.9,8.7,47.8 M7.6,44.4l0.2,0.3l-0.1-0.5
			L7.6,44.4z M8.1,45.6l0.2,0.6L8,45.3L8.1,45.6z M13.4,55.6c0.1,0.1,0.9,0.9,0.2,0.1C13.5,55.6,13,54.9,13.4,55.6 M11.2,20.1
			c0-0.1,0.1-0.2,0.1-0.3C11.3,19.9,11.2,20,11.2,20.1 M11.2,20.1c-0.3,0.6-0.5,0.9-0.2,0.7c0.6-0.9,0-0.3,0.6-1.1
			C11.7,19.4,11.1,20.3,11.2,20.1 M23.3,63.8l0.2,0.3l-0.1-0.2L23.3,63.8z M16.2,58.4c0,0.1,0.2,0.2,0.4,0.4L16.2,58.4L16.2,58.4z"
			/>
		<path class="st33" d="M58.6,18.4c-0.2,0-0.4,0-0.7-0.1c-0.3-0.2-0.5-0.5-0.6-0.9c-0.6-1.6-1.8-8.1,0-11.2c1-1.8,3-3,4.9-3
			c0.7,0,1.3,0.2,1.9,0.5c0.8,0.4,1.5,1.1,1.8,2.1c0.6-0.3,1.3-0.4,2.1-0.4c2.2,0,4.3,1.5,5.1,3.5c0.9,2.7-0.5,6-3.1,7.2
			C66.4,17.6,60.1,18.4,58.6,18.4"/>
		<path class="st1" d="M62.2,2.4L62.2,2.4c-2.2,0-4.4,1.4-5.6,3.4c-1.9,3.4-0.8,10,0,11.9c0.1,0.3,0.3,0.9,0.9,1.3
			c0.5,0.3,0.9,0.3,1.2,0.3c1.5,0,8-0.7,11.7-2.5c3.1-1.4,4.6-5.2,3.5-8.3C73,6.1,70.6,4.4,68,4.4c-0.6,0-1.1,0.1-1.6,0.2
			c-0.4-0.8-1.1-1.4-1.9-1.8C63.8,2.5,63,2.4,62.2,2.4 M62.2,4c0.5,0,1.1,0.1,1.6,0.4c1,0.5,1.5,1.5,1.6,2.6
			c0.2-0.1,0.5-0.3,0.7-0.4c0.6-0.3,1.3-0.5,1.9-0.5c1.8,0,3.6,1.2,4.3,3c0.8,2.3-0.5,5.1-2.7,6.2c-3.4,1.6-9.7,2.3-11,2.3
			c-0.2,0-0.2,0-0.3,0c-0.6-0.2-2.2-7.8-0.3-11C58.9,5.1,60.5,4,62.2,4"/>
		<path class="st34" d="M64.8,9.6c-1.9,3.1-6.2,8-6.4,7.9c-0.6-0.2-2.2-7.8-0.3-11c1.1-1.9,3.7-3.2,5.7-2.2
			C65.7,5.3,65.7,8,64.8,9.6"/>
		<path class="st33" d="M69.6,15.3c-3.8,1.8-11.1,2.5-11.3,2.3c-0.4-0.6,3.4-9,7.7-11c2.4-1.2,5.3,0.1,6.2,2.5
			C73.1,11.4,71.8,14.2,69.6,15.3"/>
	</g>
	<g>
		<path class="st1" d="M16.8,37.7l0.1-0.1l0.1-0.2l0-0.1l0-0.2l0-0.1l0-0.2v-0.2l0-0.2l0-0.1l0-0.3l0-0.1l-0.1-0.2l-0.1-0.1
			l-0.1-0.2l-0.1-0.1l-0.1-0.1L16.4,35l-0.2-0.1l-0.1-0.1l-0.1,0l-0.1,0l-0.3,0l-0.1,0l-0.2,0l-0.1,0l-0.2,0.1l-0.1,0.1L14.6,35
			l-0.1,0.1l-0.1,0.1l-0.1,0.1l-0.1,0.1l-0.1,0.1l0,0.1L14,35.8l0,0.1l0,0.1l0,0.1l0,0.1l0,0.1l0,0.1v0.1l0,0.1l0,0.1l0,0.1l0,0.1
			l0,0.1l0,0.1l0,0.1l0.1,0.1l0,0.1l0.1,0.1l0.1,0.1l0.1,0.1l0.2,0.2l0.1,0.1l0.1,0.1l0.1,0.1l0.2,0.1l0.1,0l0.2,0l0.1,0l0.2,0
			l0.1,0l0.2,0l0.1-0.1l0.2-0.1l0.1-0.1l0.1-0.1l0.1-0.1L16.8,37.7z M18.9,36.5l0,0.1l0,0.2l0,0.1l-0.1,0.3l0,0.2l0,0.1l0,0.1l0,0.1
			l-0.1,0.2l-0.1,0.1l-0.2,0.4l-0.1,0.1l-0.1,0.1L18.1,39l-0.1,0.2l-0.1,0.1l-0.1,0.1l-0.1,0.1l-0.2,0.1l-0.1,0.1l-0.1,0.1l-0.1,0.1
			L17,39.8l-0.1,0L16.6,40l-0.1,0l-0.1,0l-0.1,0l-0.1,0l-0.1,0h-0.5l-0.3,0l-0.3,0l-0.1,0l-0.1,0l-0.5-0.2l-0.1,0l-0.1-0.1l-0.3-0.1
			l-0.1-0.1l-0.1-0.1l-0.1-0.1l-0.1-0.1L13,39.1L12.9,39l-0.2-0.2l-0.1-0.1l-0.1-0.1l-0.1-0.1l-0.1-0.2l-0.1-0.4l0-0.2l0-0.1l0-0.1
			l0-0.1l0-0.2l0-0.1l0-0.2v-0.2l0-0.2l0-0.2l0-0.2l0-0.2l0-0.2l0-0.2l0-0.1l0.1-0.1l0.1-0.2l0.1-0.1l0-0.1l0.1-0.1l0.1-0.2l0.1-0.1
			l0-0.1l0.1-0.1L13,34l0.1-0.1l0.1-0.1l0.3-0.2l0.1-0.1l0.1-0.1l0.1-0.1l0.2-0.1l0.1,0l0.1,0l0.1,0l0.3-0.1l0.1,0l0.4-0.1l0.3,0
			l0.2,0l0.2,0l0.1,0l0.1,0l0.1,0l0.1,0l0.1,0l0.1,0l0.1,0l0.2,0.1l0.1,0.1l0.3,0.2l0.1,0.1l0.1,0.1l0.1,0.1l0.1,0.1l0.1,0.1
			l0.1,0.1l0.1,0.2l0.1,0.1l0.1,0.1l0.1,0.1l0.1,0.2l0.1,0.1l0.1,0.1l0,0.1l0,0.2l0,0.3l0,0.2l0,0.2L18.9,36.5z"/>
		<path class="st1" d="M22.8,36.3l0.1,0l0.1-0.1l0.1-0.1l0.1-0.1l0-0.1l0-0.1l0-0.2l0-0.2l0-0.1L23.1,35L23,34.9l-0.1-0.1l-0.1-0.1
			l-0.2,0l-0.1,0l-0.4,0h-0.1l-0.4,0l-0.1,0l-0.1,0l-0.1,0.1l0,0.1l0,0.2l0,0.1l0,0.2l0,0.2l0,0.5l0,0.1l0,0.1l0.1,0l0.1,0l0.4,0
			h0.1l0.6,0L22.8,36.3z M25.2,39.9l-0.1,0h-0.6l-0.5,0h-0.1l-0.4,0h-0.1l-0.1,0l-0.1-0.1L23,39.4l-0.1-0.1l-0.3-0.4l-0.1-0.1
			l-0.2-0.4l-0.1-0.1L22,37.9l-0.1-0.1l-0.1,0l-0.1,0l-0.3,0l-0.1,0l-0.1,0.1l0,0.1l0,0.5l0,0.1l0,0.5l0,0.2l0,0.2v0.1l0,0.1l0,0.1
			l0,0l-0.1,0H21l-0.4,0l-0.4,0h-0.1l-0.4,0l-0.1,0l0,0l0-0.1l0-0.1l0-0.1l0-0.2l0-0.1l0-0.5v-0.1l0-0.5l0-0.1l0-0.5v-0.1l0-0.5
			v-0.1l0-0.5v-0.1l0-0.5v-0.1l0-0.5v-0.2l0-0.5v-0.1l0-0.3l0-0.1l0-0.1l0-0.1l0-0.1l0.1,0l0.1,0l0.1,0l0.4,0l1,0l0.6,0H22l0.6,0
			h0.3l0.1,0l0.1,0l0.2,0.1l0.1,0l0.1,0.1l0.1,0.1l0.1,0.1l0.1,0.1l0.2,0.1l0.1,0.1l0.1,0.1l0.1,0.1l0.1,0.2l0.1,0.1l0.1,0.2
			l0.1,0.1l0.1,0.1l0,0.1l0,0.1l0,0.2l0,0.2v0.1l0,0.1l0,0.2l0,0.2l0,0.1l0,0.1l-0.1,0.1l-0.1,0.1l-0.1,0.1l-0.1,0.1L24.4,37
			l-0.1,0.2l-0.1,0.1L24,37.3l-0.1,0.1l-0.1,0.1l-0.1,0l-0.1,0l0,0.1L24,38l0.1,0.1l0.3,0.5l0.1,0.1l0.3,0.5l0.1,0.1l0.3,0.3
			l0.1,0.1L25.2,39.9L25.2,39.9z"/>
		<polygon class="st1" points="31.3,36.1 31.3,36.3 31.3,36.9 31.3,37.8 31.3,38.2 31.3,38.7 31.3,38.8 31.2,38.9 31.1,39 
			31.1,39.1 30.9,39.3 30.8,39.4 30.8,39.4 30.7,39.5 30.6,39.6 30.5,39.6 30.3,39.7 30.2,39.8 30.1,39.8 29.9,39.9 29.8,39.9 
			29.6,40 29.5,40 29.3,40 29.2,40 29.1,40.1 28.7,40.1 28.6,40.1 28.3,40.1 28.1,40.1 28,40.1 27.9,40 27.8,40 27.5,39.9 
			27.3,39.9 27.2,39.8 27,39.8 26.9,39.7 26.8,39.6 26.7,39.5 26.5,39.4 26.4,39.3 26.3,39.3 26.3,39.2 26.1,39 26,38.9 25.9,38.8 
			25.9,38.6 25.7,38.2 25.6,38.1 25.5,37.9 25.5,37.8 25.5,37.6 25.4,37.5 25.4,37.3 25.4,37.2 25.4,37 25.3,36.8 25.3,36.7 
			25.3,36.5 25.4,36.1 25.4,36.1 25.4,35.9 25.4,35.7 25.5,35.6 25.5,35.4 25.6,35.3 25.6,35.1 25.7,35 25.7,34.8 25.8,34.7 
			25.9,34.5 26,34.4 26.1,34.3 26.1,34.2 26.2,34.1 26.5,33.9 26.6,33.8 26.7,33.7 26.8,33.6 27.1,33.5 27.2,33.4 27.3,33.3 
			27.5,33.3 27.6,33.2 27.9,33.2 28.2,33.1 28.3,33.1 28.4,33.1 28.6,33.1 28.7,33.1 28.9,33.1 29,33.1 29.2,33.1 29.4,33.2 
			29.5,33.2 29.7,33.2 29.9,33.3 30,33.3 30.3,33.5 30.4,33.6 30.5,33.7 30.6,33.7 30.7,33.8 30.7,33.8 30.8,33.9 30.9,34 30.9,34 
			31,34.1 31,34.1 31,34.2 30.9,34.3 30.8,34.4 30.7,34.5 30.5,34.8 30.4,34.9 30.3,35 30.2,35.1 30.1,35.1 30,35.2 30,35.2 
			29.9,35.1 29.8,35 29.7,35 29.6,34.9 29.4,34.8 29.3,34.8 29.1,34.7 29,34.7 28.6,34.7 28.5,34.7 28.4,34.7 28.2,34.7 28.1,34.7 
			27.8,34.9 27.7,34.9 27.6,35 27.5,35.1 27.4,35.3 27.3,35.4 27.3,35.5 27.2,35.7 27.2,35.8 27.1,35.9 27.1,36.2 27.1,36.4 
			27.1,36.5 27.1,36.7 27.1,36.9 27.1,37.1 27.1,37.3 27.2,37.4 27.3,37.6 27.3,37.8 27.4,37.9 27.5,38 27.7,38.2 27.8,38.3 
			27.9,38.4 28.1,38.4 28.3,38.5 28.5,38.5 28.6,38.5 28.7,38.5 28.9,38.5 29,38.5 29.4,38.4 29.6,38.3 29.7,38.3 29.8,38.2 
			29.8,38.1 29.8,38 29.8,37.9 29.8,37.8 29.8,37.5 29.8,37.4 29.8,37.3 29.7,37.3 29.5,37.3 29.3,37.3 29.2,37.3 29,37.3 
			28.8,37.3 28.7,37.3 28.4,37.3 28.4,37.3 28.3,37.2 28.3,37.1 28.3,37 28.3,36.9 28.3,36.7 28.3,36.4 28.3,36.2 28.3,36 
			28.3,35.9 28.3,35.9 28.4,35.9 28.6,35.8 28.8,35.8 29.2,35.8 29.7,35.8 30.4,35.9 30.5,35.9 30.9,35.8 31,35.8 31.1,35.8 
			31.2,35.8 31.3,35.9 31.3,35.9 31.3,36.1 		"/>
		<path class="st1" d="M35.8,37.1l0-0.1l-0.2-0.6l0-0.1l-0.2-0.5l0-0.1l-0.1-0.1l-0.1,0l-0.1,0l-0.1,0.1l-0.2,0.6l0,0.1l-0.2,0.6
			l0,0.1l0,0.1l0.1,0l0.1,0h0.5l0.4,0l0.1,0L35.8,37.1L35.8,37.1z M36.5,31.1L36.5,31.1l-0.4,0.6l-0.1,0.1l-0.3,0.5l-0.1,0.1l-0.1,0
			l-0.1,0l-0.1,0l-0.4,0h-0.6l-0.1,0l0,0l0,0v0l0.3-0.6l0.1-0.1l0.2-0.5l0.1-0.1l0,0H35l0.1,0h0.1l0.2,0h0.1l0.4,0H36l0.2,0l0.2,0
			L36.5,31.1L36.5,31.1z M38.6,39.7l0,0.1l-0.1,0.1l-0.1,0l-0.1,0h-0.1l-0.2,0l-0.1,0h-0.4L37,40l-0.1,0l-0.1-0.1l0-0.1L36.5,39
			l-0.1-0.1l-0.1,0l-0.1,0l-0.5,0h-0.1l-0.6,0l-0.5,0h-0.1l-0.1,0h-0.4l-0.1,0l-0.1,0l0,0.1l-0.2,0.6l0,0.1l-0.1,0.1l-0.1,0h-0.1
			l-0.5,0h-0.1l-0.5,0l-0.1,0l-0.1-0.1l-0.1-0.1l0-0.1l0-0.1l0-0.1l0.1-0.3l0-0.1l0.2-0.5l0-0.1l0.2-0.5l0-0.1l0.2-0.5l0.1-0.1
			l0.2-0.5l0.1-0.1l0.3-0.8l0.2-0.6l0.1-0.1l0.2-0.4l0.1-0.1l0.2-0.4l0.1-0.1l0.2-0.4l0-0.1l0.1-0.1l0.1,0l0.4,0h0.7l0.4,0l0.1,0
			l0.1,0.1l0,0.1l0.1,0.4l0,0.1l0.2,0.4l0.1,0.1l0.2,0.5l0,0.1l0.2,0.5l0.1,0.1l0.2,0.4l0,0.1l0.2,0.5l0.1,0.1l0.2,0.5l0.1,0.1
			l0.3,0.6l0.2,0.4l0.1,0.1l0.2,0.6L38.6,39.7z"/>
		<polygon class="st1" points="45,34.7 45,34.9 45,36.2 45,36.8 45,36.9 45.1,38.1 45.1,38.3 45,38.4 45,38.5 45,39 45,39.5 
			45,39.6 45,39.7 44.9,39.8 44.8,39.9 44.8,39.9 44.6,39.9 44.2,40 44.1,40 43.9,40 43.7,40 43.6,39.9 43.5,39.9 43.4,39.8 
			43.3,39.7 43.2,39.4 43.1,39.3 42.8,38.9 42.7,38.7 42.4,38.3 42.3,38.2 42,37.7 42,37.6 41.6,37.1 41.5,37 41.2,36.6 41.2,36.5 
			41.1,36.5 41.1,36.6 41.1,37.1 41.1,37.3 41.1,37.7 41.1,37.9 41.1,38.4 41.1,38.5 41,39 41.1,39.2 41.1,39.6 41.1,39.7 
			41.1,39.8 41,39.9 41,39.9 40.9,39.9 40.8,39.9 40.7,40 40.3,39.9 40.1,39.9 39.8,40 39.7,40 39.5,40 39.4,39.9 39.4,39.9 
			39.3,39.8 39.3,39.7 39.3,39.7 39.3,39.5 39.3,39.2 39.3,39.1 39.3,38.6 39.3,38.4 39.3,37.3 39.3,37.2 39.4,36.7 39.4,36.5 
			39.4,35.9 39.3,35.4 39.3,35.2 39.4,34.8 39.4,34.6 39.3,34.1 39.3,34 39.3,33.7 39.3,33.6 39.4,33.5 39.4,33.4 39.4,33.3 
			39.4,33.3 39.5,33.3 39.8,33.2 40,33.3 40.7,33.3 40.8,33.3 40.8,33.3 40.9,33.4 41.2,33.8 41.3,33.9 41.6,34.4 41.7,34.5 
			42,34.9 42.1,35 42.4,35.5 42.5,35.6 42.8,36.1 42.9,36.2 43.2,36.6 43.2,36.7 43.3,36.7 43.4,36.7 43.4,36.6 43.3,36.2 43.3,36 
			43.3,35.6 43.3,35.5 43.3,34.9 43.3,34.8 43.3,34.2 43.3,34 43.3,33.7 43.3,33.5 43.3,33.4 43.4,33.3 43.4,33.2 43.5,33.2 
			43.6,33.2 43.7,33.2 44.1,33.2 44.2,33.2 44.5,33.2 44.7,33.2 44.8,33.2 44.9,33.3 45,33.3 45,33.4 45.1,33.5 45.1,33.6 
			45.1,33.7 45.1,34 45,34.2 		"/>
		<polygon class="st1" points="47.8,38.5 47.8,38.6 47.8,39.1 47.8,39.3 47.8,39.8 47.8,39.9 47.7,39.9 47.7,40 47.5,40 47.1,40 
			46.6,40 46.2,39.9 46.1,39.9 46.1,39.9 46.1,39.8 46.1,39.5 46.1,39.4 46.1,39.3 46.1,39.1 46.1,38.6 46.1,38.5 46.1,38 
			46.1,37.8 46.1,37.3 46.1,37.2 46.1,36.7 46.1,35.9 46.1,35.4 46.1,35.2 46.1,34.7 46.1,33.9 46,33.4 46.1,33.3 46.1,33.3 
			46.2,33.3 46.3,33.3 46.4,33.3 46.6,33.3 46.7,33.3 47.1,33.2 47.6,33.2 47.7,33.3 47.8,33.3 47.8,33.4 47.8,33.7 47.8,33.8 
			47.8,34.7 47.8,35.2 47.8,35.4 47.8,35.9 47.8,36 47.8,36.5 47.8,36.7 47.8,37.2 47.8,38 		"/>
		<polygon class="st1" points="54.2,39.1 54.2,39.2 54,39.3 53.9,39.4 53.8,39.5 53.7,39.6 53.5,39.7 53.4,39.8 53.2,39.9 
			53.1,39.9 52.9,40 52.8,40 52.6,40 52.3,40.1 52.1,40.1 51.9,40.1 51.5,40.1 51.3,40.1 51.2,40.1 51,40 50.9,40 50.8,40 
			50.4,39.8 50.2,39.8 50.1,39.7 49.9,39.6 49.8,39.5 49.7,39.4 49.6,39.4 49.4,39.2 49.3,39 49.2,38.9 49.1,38.8 49,38.7 49,38.5 
			48.9,38.4 48.8,38.2 48.7,37.8 48.6,37.6 48.5,37.4 48.5,37.2 48.5,37 48.5,36.9 48.5,36.7 48.5,36.6 48.6,36.2 48.6,36.1 
			48.6,36 48.6,35.8 48.7,35.6 48.7,35.5 48.7,35.3 48.8,35.2 48.9,35 48.9,34.9 49,34.8 49.1,34.6 49.1,34.5 49.2,34.4 49.3,34.2 
			49.4,34.1 49.5,34 49.6,33.9 49.7,33.8 50,33.6 50.1,33.5 50.2,33.5 50.5,33.3 50.6,33.3 50.8,33.2 51,33.2 51.2,33.1 51.3,33.1 
			51.6,33.1 51.8,33.1 51.9,33.1 52.1,33.1 52.4,33.1 52.5,33.2 52.7,33.2 53,33.3 53.1,33.4 53.3,33.5 53.4,33.6 53.6,33.7 
			53.9,33.9 54,34 54,34 54.1,34.1 54.1,34.2 54.1,34.3 54.1,34.3 54,34.4 53.9,34.5 53.8,34.6 53.7,34.7 53.6,34.8 53.5,35 
			53.4,35.1 53.3,35.2 53.3,35.2 53.2,35.3 53.1,35.3 53.1,35.2 53,35.2 52.8,35.1 52.7,35 52.5,34.9 52.4,34.9 52.2,34.8 
			52.1,34.8 51.9,34.8 51.8,34.8 51.6,34.8 51.4,34.8 51.3,34.9 51.1,34.9 51,35 50.9,35.1 50.7,35.2 50.7,35.2 50.6,35.3 
			50.5,35.5 50.4,35.6 50.4,35.7 50.3,35.9 50.3,36 50.3,36.2 50.2,36.3 50.2,36.6 50.2,36.7 50.2,37 50.2,37.1 50.3,37.3 
			50.3,37.4 50.4,37.6 50.5,37.7 50.6,37.9 50.7,38.1 50.8,38.2 50.9,38.3 51.1,38.4 51.2,38.4 51.4,38.5 51.6,38.5 51.8,38.5 
			52,38.5 52.1,38.5 52.1,38.5 52.3,38.4 52.5,38.4 52.6,38.3 52.7,38.2 52.8,38.2 53,38 53.1,38 53.2,37.9 53.2,37.9 53.3,37.9 
			53.4,38 53.5,38 53.5,38.1 53.6,38.2 53.8,38.4 53.8,38.5 54.1,38.8 54.1,38.9 54.2,38.9 54.2,39 		"/>
		<path class="st1" d="M59.1,36.7v-0.2l0-0.2l0-0.1l0-0.3l0-0.1l-0.1-0.2l-0.1-0.1l-0.1-0.2l-0.1-0.1l-0.1-0.1L58.4,35l-0.2-0.1
			l-0.1-0.1l-0.1,0l-0.1,0l-0.3,0l-0.1,0l-0.2,0l-0.1,0l-0.2,0.1l-0.1,0.1L56.6,35l-0.1,0.1l-0.1,0.1l-0.1,0.1l-0.1,0.1l-0.1,0.1
			l0,0.1L56,35.8l0,0.1l0,0.1l0,0.1l0,0.1l0,0.1l0,0.1v0.1l0,0.1l0,0.1l0,0.1l0,0.1l0,0.1l0,0.1l0,0.1l0.1,0.1l0,0.1l0.1,0.1
			l0.1,0.1l0.1,0.1l0.2,0.2l0.1,0.1l0.1,0.1l0.1,0.1l0.2,0.1l0.1,0l0.2,0l0.1,0l0.2,0l0.1,0l0.2,0l0.1-0.1l0.2-0.1l0.1-0.1l0.1-0.1
			l0.1-0.1l0.1-0.1l0.1-0.1l0.1-0.2l0-0.1l0-0.2l0-0.1L59.1,36.7z M60.9,36.5l0,0.1l0,0.2l0,0.1l0,0.3l0,0.2l0,0.1l0,0.1l0,0.1
			l-0.1,0.2l-0.1,0.1l-0.2,0.4l-0.1,0.1l-0.1,0.1L60.1,39l-0.1,0.2l-0.1,0.1l-0.1,0.1l-0.1,0.1l-0.2,0.1l-0.1,0.1l-0.1,0.1l-0.1,0.1
			L59,39.8l-0.1,0L58.6,40l-0.1,0l-0.1,0l-0.1,0l-0.1,0l-0.1,0h-0.5l-0.3,0l-0.3,0l-0.1,0l-0.1,0l-0.5-0.2l-0.1,0l-0.1-0.1l-0.3-0.1
			l-0.1-0.1l-0.1-0.1l-0.1-0.1l-0.1-0.1L55,39.1L54.9,39l-0.2-0.3l-0.1-0.1l-0.1-0.1l-0.1-0.1l-0.1-0.2l-0.1-0.4l0-0.2l0-0.1l0-0.1
			l0-0.1l0-0.2l0-0.1l0-0.2v-0.2l0-0.2l0-0.2l0-0.2l0-0.2l0-0.2l0-0.2l0-0.1l0-0.1l0.1-0.2l0.1-0.1l0-0.1l0.1-0.1l0.1-0.2l0.1-0.1
			l0-0.1l0.1-0.1L55,34l0.1-0.1l0.1-0.1l0.3-0.2l0.1-0.1l0.1-0.1l0.1-0.1l0.2-0.1l0.1,0l0.1-0.1l0.1,0l0.3-0.1l0.1,0l0.4-0.1l0.3,0
			l0.3,0l0.2,0l0.1,0l0.1,0l0.1,0l0.1,0l0.1,0l0.1,0l0.1,0l0.2,0.1l0.1,0.1l0.3,0.2l0.1,0.1l0.1,0.1l0.1,0.1l0.1,0.1l0.1,0.1
			l0.1,0.1l0.1,0.2l0.1,0.1l0.1,0.1l0.1,0.1l0.1,0.2l0.1,0.1l0.1,0.1l0,0.1l0,0.2l0,0.3l0,0.2l0,0.2L60.9,36.5z"/>
		<polygon class="st1" points="66.4,37.9 66.4,38 66.3,38.2 66.3,38.3 66.3,38.5 66.2,38.6 66.2,38.8 66.1,39 66,39.1 65.9,39.2 
			65.8,39.3 65.7,39.4 65.5,39.6 65.4,39.6 65.3,39.7 65.2,39.8 65,39.9 64.7,40 64.6,40 64.4,40 64.3,40 64.1,40.1 64,40.1 
			63.8,40.1 63.4,40.1 63.2,40.1 63.1,40.1 62.9,40.1 62.8,40.1 62.6,40 62.5,40 62.3,39.9 62.2,39.9 62.1,39.8 61.9,39.7 
			61.8,39.6 61.6,39.4 61.5,39.4 61.3,39.2 61.2,39.1 61.1,39 61,38.9 61,38.9 61.1,38.8 61.1,38.8 61.2,38.6 61.4,38.4 61.5,38.3 
			61.7,38.1 61.7,38 61.8,37.9 61.9,37.8 62,37.8 62.1,37.9 62.4,38.1 62.5,38.2 62.6,38.2 62.8,38.3 62.9,38.4 63.1,38.4 
			63.2,38.5 63.4,38.5 63.5,38.5 64,38.4 64.2,38.4 64.2,38.4 64.4,38.4 64.5,38.3 64.6,38.2 64.6,38.1 64.7,38 64.7,37.8 
			64.6,37.8 64.6,37.6 64.5,37.6 64.4,37.5 64.4,37.4 64.2,37.4 64.1,37.4 63.9,37.3 63.1,37.2 62.9,37.2 62.8,37.2 62.6,37.1 
			62.4,37 62.3,37 62,36.8 61.9,36.7 61.8,36.6 61.7,36.6 61.5,36.4 61.5,36.3 61.4,36.2 61.3,36 61.3,35.8 61.3,35.7 61.2,35.5 
			61.2,35.2 61.2,35.1 61.2,34.8 61.3,34.7 61.3,34.6 61.3,34.4 61.4,34.2 61.5,34.1 61.6,34 61.6,33.9 61.8,33.8 61.9,33.7 
			62,33.6 62.1,33.5 62.3,33.4 62.5,33.3 62.6,33.3 62.8,33.2 63,33.2 63.2,33.1 63.4,33.1 63.5,33.1 63.7,33.1 63.8,33.1 
			64.1,33.1 64.2,33.1 64.2,33.1 64.4,33.2 64.7,33.2 64.8,33.3 64.9,33.3 65.1,33.4 65.2,33.4 65.3,33.5 65.5,33.5 65.6,33.6 
			65.7,33.7 65.9,33.8 65.9,33.9 65.9,34 65.9,34.1 65.8,34.2 65.7,34.4 65.4,34.8 65.3,34.9 65.2,35 65.1,35.1 65.1,35.1 65,35 
			64.9,34.9 64.7,34.9 64.7,34.8 64.6,34.8 64.5,34.8 64.4,34.7 64.2,34.7 64,34.7 63.8,34.7 63.6,34.7 63.4,34.7 63.3,34.7 
			63.2,34.7 63.1,34.8 63,34.9 63,34.9 62.9,35 62.9,35.2 62.9,35.3 63,35.4 63.1,35.5 63.2,35.6 63.2,35.6 63.4,35.6 63.6,35.7 
			63.9,35.7 64,35.7 64.3,35.8 64.6,35.9 64.8,35.9 64.9,36 65.1,36.1 65.3,36.1 65.4,36.2 65.5,36.3 65.6,36.3 65.9,36.6 66,36.7 
			66,36.8 66.2,37 66.2,37.1 66.3,37.2 66.3,37.4 66.3,37.6 66.4,37.7 		"/>
	</g>
</g>
</svg>
