<?xml version="1.0" encoding="utf-8"?>
<!-- Generator: Adobe Illustrator 21.0.0, SVG Export Plug-In . SVG Version: 6.00 Build 0)  -->
<svg version="1.1" id="Capa_1" xmlns="http://www.w3.org/2000/svg" xmlns:xlink="http://www.w3.org/1999/xlink" x="0px" y="0px"
	 viewBox="0 0 79 72.1" style="enable-background:new 0 0 79 72.1;" xml:space="preserve">
<style type="text/css">
	.st0{fill:#5FA03C;}
	.st1{fill:#FFFFFF;}
	.st2{fill:#F2F2F2;}
	.st3{fill:#369443;}
	.st4{fill:#8EBB37;}
	.st5{fill:#222221;}
	.st6{fill:#94BB1E;}
	.st7{fill:none;stroke:#222221;stroke-width:2.346;stroke-linecap:round;stroke-linejoin:round;stroke-miterlimit:10;}
	.st8{fill:#D9802E;}
	.st9{fill:#F0C830;}
	.st10{opacity:0.68;clip-path:url(#SVGID_2_);}
	.st11{clip-path:url(#SVGID_4_);}
	.st12{clip-path:url(#SVGID_6_);fill:url(#SVGID_7_);}
	.st13{opacity:0.2;clip-path:url(#SVGID_2_);}
	.st14{clip-path:url(#SVGID_9_);}
	.st15{clip-path:url(#SVGID_11_);}
	.st16{filter:url(#Adobe_OpacityMaskFilter);}
	.st17{clip-path:url(#SVGID_13_);}
	.st18{enable-background:new    ;}
	.st19{clip-path:url(#SVGID_13_);fill:url(#SVGID_15_);}
	.st20{clip-path:url(#SVGID_13_);mask:url(#SVGID_14_);}
	.st21{clip-path:url(#SVGID_17_);}
	.st22{clip-path:url(#SVGID_19_);fill:url(#SVGID_20_);}
	.st23{opacity:0.68;clip-path:url(#SVGID_22_);}
	.st24{opacity:0.57;clip-path:url(#SVGID_22_);}
	.st25{clip-path:url(#SVGID_26_);}
	.st26{clip-path:url(#SVGID_28_);fill:#CED0D1;}
	.st27{clip-path:url(#SVGID_22_);fill:#4070B6;}
	.st28{clip-path:url(#SVGID_22_);fill:#DD902F;}
	.st29{fill:#C91862;}
	.st30{fill:none;stroke:#272425;stroke-width:7.564600e-02;stroke-miterlimit:10;}
	.st31{fill:#9CC34D;}
	.st32{fill:#B88844;}
	.st33{fill:#78B552;}
	.st34{fill:#589B52;}
	.st35{fill:#5CA257;}
	
		.st36{fill:none;stroke:#FFFFFF;stroke-width:2.3815;stroke-linecap:round;stroke-linejoin:round;stroke-miterlimit:10;stroke-dasharray:0,4.6879;}
	.st37{fill:none;stroke:#FFFFFF;stroke-width:2.3815;stroke-linecap:round;stroke-linejoin:round;stroke-miterlimit:10;}
	.st38{fill:#AFCB49;}
	.st39{fill:#CE4E80;}
	.st40{fill:#E35100;}
	.st41{fill:#4DAEA9;}
	.st42{fill:#B45696;}
	.st43{fill:#E1DF00;}
	.st44{fill:#76B452;}
	.st45{fill:#E4A612;}
	.st46{fill:#474747;}
	.st47{fill:#B2C633;}
	.st48{fill:#272425;}
	.st49{fill:#5D9E3B;}
	.st50{fill:#F3D33F;}
	.st51{fill:#526D59;}
	.st52{fill:#E2D1B1;}
	.st53{fill:#75398E;}
	.st54{fill:#EBB146;}
	.st55{fill:#F1F1F1;}
	.st56{fill:none;stroke:#5FA03C;stroke-width:1.2441;stroke-linecap:round;stroke-linejoin:round;stroke-miterlimit:10;}
	.st57{fill:none;stroke:#5FA03C;stroke-width:1.6816;stroke-linecap:round;stroke-linejoin:round;stroke-miterlimit:10;}
</style>
<g>
	<polygon class="st1" points="65.8,20.8 65.8,20.8 65.8,20.8 	"/>
	<g>
		<path class="st1" d="M72.5,36.1c0,18.4-14.9,33.3-33.3,33.3C20.9,69.3,6,54.4,6,36.1C6,17.7,20.9,2.8,39.2,2.8
			C57.6,2.8,72.5,17.7,72.5,36.1"/>
	</g>
	<g>
		<path class="st31" d="M45.8,64.2c-0.2,0.1-0.3,0.2-0.5,0.2C45.5,64.4,45.7,64.4,45.8,64.2"/>
		<path class="st31" d="M40,64.9c-0.1,0-0.2,0-0.3,0v0H40z"/>
		<path class="st31" d="M49.5,63.5c0.2-0.1,0.4-0.2,0.6-0.3C49.9,63.1,49.7,63.3,49.5,63.5"/>
		<path class="st31" d="M49.5,63.5c-0.2,0.1-0.3,0.1-0.5,0.2C49.2,63.7,49.3,63.6,49.5,63.5"/>
		<path class="st31" d="M47.9,64c-0.1,0-0.2,0.1-0.3,0.1C47.7,64.1,47.8,64.1,47.9,64"/>
		<path class="st31" d="M23.3,12.3c-0.1,0.1-0.3,0.2-0.4,0.4C23,12.6,23.2,12.5,23.3,12.3"/>
		<path class="st41" d="M48.6,65.2c-0.1,0-0.2,0.1-0.3,0.1c0.1-0.1,0.2-0.2,0.3-0.4L48.6,65.2c0.5-0.3,0.7-0.5,1.2-0.5
			C49.5,64.9,49,65,48.6,65.2 M42.4,6.1l0-0.1C42.5,6,42.5,6,42.7,6.1L42.4,6.1z M40.2,6c-1,0,0.1-0.1,0.2-0.1C41.1,6,40.3,6,40.2,6
			 M21.3,59.6c0.2,0.2,0.5,0.4,0.7,0.5C22,60.4,21.8,60,21.3,59.6 M20.5,13.3c-0.3,0.2-0.3,1-0.8,0.7c-0.3-0.3,0.2-0.5,0.5-0.8
			c0,0-0.2,0.3-0.1,0.3C20,13.6,20.7,13.1,20.5,13.3 M19.8,58.6c0.3,0.2,0.6,0.4,0.9,0.6C20.3,59,20,58.8,19.8,58.6 M17,55.5
			C17,55.5,17,55.5,17,55.5C17,55.5,17,55.5,17,55.5 M12.7,50.7c0,0.1,0.1,0.1,0.2,0.2C12.8,50.8,12.7,50.8,12.7,50.7 M11.4,48.6
			c0.1,0.1,0.2,0.2,0.2,0.3C11.5,48.8,11.4,48.7,11.4,48.6 M10,29.8c-0.1,0.5-0.2,0.9-0.4,1.3C9.6,30.6,9.8,30.2,10,29.8 M65.1,19.5
			c0,0-0.1-0.1-0.1-0.1c-0.4-0.7-1.3-1.2-1.9-1.7c-0.7-0.6-1.5-1.2-2.2-1.8c-1.1-0.9-2.1-1.8-3.1-2.7c-0.9-0.9-1.6-2.1-2.6-2.8
			c0,0,0,0,0,0c0,0,0,0-0.1,0c0,0-0.1,0-0.1-0.1c-0.3-0.2-0.7-0.4-1-0.6c-0.2-0.1-0.3-0.1-0.3-0.1c-0.2-0.1,0.1,0,0.1-0.1
			c0,0,0,0,0,0l-0.7-0.3c0,0,0,0,0-0.1c-0.4-0.2-0.8-0.4-1.3-0.6c0,0,0,0,0,0c-0.5-0.2-1-0.4-1.5-0.6c0,0,0.1,0,0.1,0
			c0.1,0.1,0.2,0.1,0.2,0.1l0.2,0.1c0,0-0.2-0.1-0.3-0.2c-0.1,0-0.2-0.1-0.2-0.1c0,0,0,0,0,0c-0.8-0.3-1.6-0.6-2.4-0.9
			c-0.1,0-0.4-0.1-0.6-0.1c-0.8-0.3-1.9-0.6-2.9-0.8c-0.8-0.2-1.6-0.3-2-0.3c-1.4-0.2-2.8-0.2-4.3-0.2c-0.2,0.1-0.3,0.2-0.3,0.2
			c0.6-0.1,1.8-0.2,2-0.1c-0.1,0-0.3,0-0.5,0c-0.2,0-0.4,0-0.5,0.1C38.3,5.9,38,6,38,6c-0.6-0.2,1.1-0.1,0.3-0.2
			c-0.4,0-0.6,0.1-0.8,0.1c0.3-0.1-0.4-0.1-0.5-0.1c-1.4,0.1-2.1,0.1-3.6,0.4c0.1,0,0.1,0,0,0c0,0,0,0,0,0c0,0,0,0-0.1,0
			c-0.3,0.1-0.6,0.1-0.8,0.2c-0.1,0.1-0.2,0.1-0.3,0.2c-0.3,0.2-0.4,0.3-0.3,0.3c-0.4,0.1-0.6,0.2-0.8,0.2c-0.1,0-0.2,0-0.3,0.1
			c-0.1,0-0.2,0.1-0.4,0.2c1.1-0.2-0.2,0.1-0.3,0.3c-0.7,0.3-0.3,0-0.6,0.1C29.5,7.8,29.3,8,29.3,8c0.1,0,0.2,0,0.4-0.1
			C29.4,8,29.3,8,29.3,8c-0.2,0-0.1-0.1,0.1-0.3c0.1-0.1,0.2-0.2,0.2-0.3c-0.3,0.1-0.7,0.3-1,0.4l0,0.1L28.3,8l0-0.1
			c-0.3,0.1-0.7,0.3-1,0.5c0.1,0.2,0.4,0.4,0.7,0.3c0,0.1-0.7,0.2-0.9,0.3c-0.4,0.1-0.7,0.3-1,0.5c-0.1,0.1-0.3,0.2-0.4,0.3
			c-0.1,0.1-0.3,0.2-0.4,0.3l0.4-0.4c-0.1,0-1,0.7-1.2,0.8c-0.1,0,0.1-0.3,0.1-0.3c-0.8,0-1.1,0.7-1.6,1.2c0.4-0.3,0.7-0.6,1.1-0.9
			c-0.5,1.1-1.7,1.3-2.5,2.1c0.2-0.3,0.2-0.3,0.5-0.5c-0.2,0-0.5,0.3-0.7,0.5c0-1,1.2-0.8,1.2-1.6c-1.5,1.3-3,2.1-4.2,3.4
			c0.1,0,0.3,0,0.4-0.1c-0.6,0.8-1.9,0.7-2.1,1.6l0-0.3c-0.7,1.3-2,2.4-2.5,3.7c-0.3-0.8,1.2-1.1,0.5-1.8c-1,2.1-2.2,4.2-2.9,6.3
			l0-0.3c-0.5,0.7-0.7,1.6-0.8,2.4c0,0,0,0,0.1,0c0,0.1-0.1,0.1-0.1,0.2c0,0.3-0.1,0.6-0.1,0.8c0-0.1,0-0.2,0-0.3
			c-0.3,0.7-0.5,1.5-0.7,2.3c0-0.3,0-0.6-0.3-0.9c0,1.6-0.5,2.9-0.4,4.5c0,0.1-0.1,0.3-0.1,0.5c0.1,0.9-0.9,1.7-0.4,2.5
			c0,0,0.1,0,0.1,0.1c-0.7,4.2,0.1,8.6,2,12.2l-0.2,0c0.5,0.8,0.8,1.6,1.5,2.1c-0.3-0.3-0.3-0.8-0.5-1c0.6,0.4,0.6,1.1,0.8,1.6
			c-0.1-0.2-0.2-0.4-0.3-0.5c0,0.9,0.9,1.2,1.3,1.9c0.1,0.1,0.1,0.1,0.2,0.2l-0.1,0c0,0.1,0.1,0.2,0.1,0.3c-0.1-0.1-0.1-0.2-0.2-0.3
			h-0.1c1.8,1.8,3.3,3.9,5.2,5.5c0.3,0.3,0.7,0.6,1,0.9c0.1,0.1,0.2,0.2,0.4,0.4c-0.3-0.3-0.5-0.3-0.8-0.5c1,1,2,1.8,3.3,2.6
			l-0.3-0.3c2.8,1.8,6,3.1,9.3,4.1c-0.2,0-0.5,0-0.8,0c0.3,0.3,0.8,0.3,1,0.2l-0.3,0c0.3,0,0.5,0.3,0.8,0.3c0.2,0,0.4,0.1,0.5,0.1
			c0.1,0,0.2,0,0.2,0c-0.1,0-0.3-0.1-0.4-0.1c0.2,0.1,0.5,0.1,0.8,0.2c0.3,0.1,0.6,0.2,0.9,0.3c-0.1,0-0.2,0-0.3,0
			c-0.4-0.2-0.7-0.2-1-0.2c1,0.3,0.3,0.1,0.7,0.3c0.4,0.1,0.6,0.1,0.8,0.1c0.2,0,0.2-0.1,0.1-0.1c0.4,0.1,0.7,0.2,1,0.2
			c0.3,0,0.6,0.1,1,0.1l-0.2,0.1c0,0,0.2,0,0.4,0c0.1,0,0.2,0,0.3,0c0.1,0,0.1,0,0.1,0s-0.2,0-0.3,0c-0.2,0-0.3,0-0.3,0
			c0.4,0.1,0.6,0.1,0.7,0.1c0.1,0,0.2,0,0.2-0.1c0.1-0.1,0.2-0.1,1.1,0c0.4,0,0.8,0,1.2,0c0.7-0.5,1.3,0.2,2,0
			c-0.2-0.2-0.4-0.2-0.6-0.2c1.2,0,2.1,0.2,3.3,0c-0.5-0.5-0.8,0-1.3,0c0.7-0.5,1.8,0,2.5-0.6c0,0,0,0.1,0,0.1
			c0.1,0,0.2-0.1,0.3-0.1l0,0.3c0.3-0.7,1-0.5,1.5-0.6c-0.2,0.1-0.4,0.2-0.5,0.3c0.5-0.3,0.8-0.3,1.3-0.3c-0.1,0-0.3,0.1-0.4,0.2
			c0.3-0.1,0.7-0.2,1.1-0.4c0,0-0.1,0-0.1,0c0.7-0.5,1.5-1.1,2.5-1.3l-0.3,0.3c0.9-0.9,2.2-0.9,3-1.6c0.8-0.3,1.5-0.9,2.1-1.7
			c0.1,0.1,0.3,0.1,0.2,0.3c0.7-1.1,2-1.8,3-2.9l0,0.3c0.2-0.3,0.7-0.8,1-1.1l-0.3,0c0.7-0.3,1.2-1.1,1.8-1.6c0.5-0.6,1-1.2,1.4-1.9
			c0.9-1.3,1.6-2.8,2.5-4.1c-0.2,0.3-0.2,0.3-0.5,0.5c0.4-0.4,0.5-1,0.7-1.4c0,0,0,0.1,0,0.1c1-1.6,1.5-3.4,2-5.2L68,44
			c0.2-0.5,0.2-1,0.5-1.5c0.1-0.4,0.2-0.8,0.3-1.2c0.1-0.4,0.2-0.8,0.3-1.2c0-0.2,0.1-0.4,0.1-0.7c0-0.2,0.1-0.5,0.1-0.7l0,0.1
			c0.1-0.6,0.1-1.1,0.1-1.6l0,0.3c0.3-1.5,0.3-3.1,0.3-4.7c-0.2-3.3-1-6.6-2.5-9.6C66.6,22,65.9,20.7,65.1,19.5"/>
		<path class="st31" d="M13.3,50.8c-0.1-0.1-0.1-0.1-0.3-0.3c0.2,0.2,0.2,0.3,0.3,0.5h0.1C13.4,50.9,13.4,50.8,13.3,50.8"/>
		<path class="st31" d="M11,26.1c-0.3,0.2-0.3,0.4-0.2,0.6c0.1-0.2,0.1-0.3,0.2-0.5C10.9,26.3,11,26.2,11,26.1"/>
		<path class="st3" d="M7.6,29.9l0,0.1c-0.1,0.5-0.3,1-0.4,1.2c0.1-0.1,0.2-0.3,0.4-0.6C7.6,30.5,7.5,30.4,7.6,29.9
			C7.7,29.7,7.7,30,7.7,30C7.7,29.8,7.8,29.3,7.6,29.9 M8,28C8,28,8.1,28,8,28C8,28,8,28,8,28L8,28z M19.8,11
			c-0.2,0.1-0.3,0.2-0.4,0.2C19.4,11.3,19.5,11.2,19.8,11 M34.3,4.2c0.1,0,0.1,0,0.1,0C34.4,4.2,34.3,4.2,34.3,4.2 M32.2,4.6
			c0,0-0.1,0-0.1,0C32.1,4.7,32.1,4.7,32.2,4.6 M57.9,9.1C57.9,9.1,57.9,9.1,57.9,9.1C57.6,8.9,57.7,9,57.9,9.1 M7.1,38.6L7.1,38.6
			c0,0.5,0.1,0.8,0,0.3C7.1,38.8,7.1,38.7,7.1,38.6 M7.2,31.2C7.2,31.2,7.2,31.2,7.2,31.2C7.2,31.3,7.2,31.3,7.2,31.2 M70.6,28.3
			L70.6,28.3C70.6,28.3,70.6,28.3,70.6,28.3L70.6,28.3z M70.6,28.3l-0.2-0.4C70.6,28.5,70.6,28.2,70.6,28.3 M7.7,28.7
			c0,0.2,0.1,0.4,0.1,0.4c0-0.5,0.1-0.8,0.2-1.2l-0.4,0.3C7.6,28.3,7.7,28.5,7.7,28.7 M70.3,43.4c0-0.1,0-0.1,0-0.1
			C70.3,43.3,70.3,43.4,70.3,43.4 M70.5,42.3l0.1-0.4C70.6,42.1,70.5,42.2,70.5,42.3 M8.5,46.7c0-0.2-0.1-0.4-0.2-0.7L8.5,46.7z
			 M6.9,34c0,0,0,0.1,0,0.2c0,0.1,0,0.3,0,0.4c0,0.3,0,0.6,0,0.6L7,34.6l-0.1,0C7,34,6.9,34.1,6.9,34 M7.7,29.2
			c0-0.3-0.2,0.2-0.1-0.5C7.6,29.1,7.4,30,7.7,29.2 M20.7,62.1L20.7,62.1C20.7,62.2,20.8,62.2,20.7,62.1 M22.6,63.3
			c0.2,0.1,0.3,0.2,0.4,0.3C23,63.5,22.9,63.5,22.6,63.3 M41,68.1c0.1,0,0.2,0,0.2,0C41.1,68.1,41,68.1,41,68.1 M35.8,67.9l0.4-0.1
			C35.6,67.7,35.9,67.8,35.8,67.9 M35.7,67.9L35.7,67.9C35.8,67.9,35.8,67.9,35.7,67.9L35.7,67.9z M69.9,44.8L69.9,44.8
			C69.9,44.7,69.9,44.7,69.9,44.8 M30.1,5.4C30,5.5,28.9,5.9,30,5.6C30.1,5.5,30.9,5.2,30.1,5.4 M7.7,30C7.7,30.1,7.7,30.2,7.7,30
			C7.7,30,7.7,30,7.7,30 M47.5,4.6c0.1,0,0.2,0.1,0.3,0.1l0-0.1C47.4,4.4,47.1,4.4,47.5,4.6 M30.6,66.5c-0.2-0.1-0.5-0.1-0.7-0.2
			C30.4,66.5,30.6,66.7,30.6,66.5 M40.5,3.6l0.8,0.1l-0.2,0L40.5,3.6z M7,40.3c0,0,0,0.1,0,0.1c0,0.1,0,0.2,0.1,0.3
			c0-0.1,0-0.1,0-0.2C7.1,40.4,7.1,40.3,7,40.3 M71.3,37.1c0-0.4,0-0.7,0-1c0,0,0,0.2-0.1,0.4c0,0.1,0,0.2,0,0.3c0,0.1,0,0.1,0,0.1
			c-0.1-1,0-1.8-0.2-1c0.1,0,0.1,0.3,0.1,0.6c0,0.3,0,0.7-0.1,1.1c0,0.2,0,0.4,0,0.6c0,0.2,0,0.4,0,0.5c0,0.3,0,0.5,0.1,0.6
			c0,0,0,0,0,0c0,0,0,0,0,0l0,0c0,0,0,0,0,0c0,0,0,0,0,0c0,0,0,0.1,0,0.2c0,0,0,0.1,0,0.1c0,0.1-0.1,0.3-0.1,0.3c0-0.2,0-0.2,0-0.3
			c-0.1,0.5-0.1,0.7-0.1,1c0,0,0,0,0,0.1c0,0,0,0.1,0,0.1c-0.1,0.4-0.1,0.7-0.1,0.9l0.2-0.7v0c-0.1,0.4-0.1,0.8-0.2,1.2
			c-0.1,0.3-0.2,0.4-0.1,0.1c0,0,0,0.3-0.1,0.5c0,0.3-0.1,0.5-0.1,0.5c-0.1,0.3-0.1,0.2-0.1,0c0,0.2-0.1,0.4-0.2,0.7
			c-0.1,0.2-0.1,0.4-0.1,0.6c0,0.1-0.1,0.2-0.1,0.2l0,0c0,0.1,0,0.3-0.1,0.5c0,0.1-0.1,0.3-0.1,0.4c0,0,0,0,0,0c0,0,0,0,0,0.1
			c-0.1,0.3-0.2,0.6-0.3,0.9c0-0.1,0.1-0.6,0.3-1.1c-0.6,0.7-0.2,0.8-1,2.4c0,0,0-0.1,0-0.1c0-0.1,0.1-0.2,0.1-0.3
			c0.1-0.2,0.1-0.4,0.1-0.4c-0.4,0.5-0.6,1.1-1.1,1.9c0.1-0.2,1-1.7,0.7-0.7c-0.1,0.2-0.3,0.6-0.5,1.1c-0.1,0-0.3,0.4-0.6,1
			l-0.1-0.1c-0.3,0.7-0.2,0.6-0.3,1c-0.4,0.7-0.6,0.8-0.8,0.9c-0.7,1.1,0.6-0.6-0.1,0.6c-0.6,0.9-1,1.5-1.6,2.6
			c-0.5,0.6,0-0.2-0.2,0l-0.3,0.6c-0.1,0.1-0.1,0.1-0.1,0c-0.1,0.2-0.1,0.3-0.1,0.3c-0.2,0.2-0.4,0.5-0.5,0.7
			c-0.3,0.5-0.7,0.8-1.1,1.1c-0.1,0.1-0.1,0.2-0.1,0.2c-0.2,0.2-0.4,0.4-0.5,0.6c-0.2,0.2,0-0.2-0.1-0.1c-0.3,0.3-0.4,0.6-0.6,0.7
			c-0.2,0.2-0.4,0.4-0.7,0.6c0.1-0.1,0.1-0.1,0.2-0.2c-0.5,0.4-0.8,0.9-1.4,1.2c-0.2,0.4-0.7,0.6-0.7,0.8c0,0,0.1-0.1,0.2-0.1
			c0,0,0.1-0.1,0.1-0.1c0.1,0,0.1,0,0.1,0c0.1-0.1,0-0.1-0.1,0c0.1-0.1,0.2-0.2,0.3-0.2c0,0,0,0,0,0c0.1-0.1,0.2-0.1,0.2-0.1
			c-0.1,0.1-0.3,0.3-0.4,0.4c0,0,0,0,0,0c-0.1,0.1-0.2,0.2-0.3,0.3c0.1-0.1,0.1-0.1,0-0.1c0,0-0.1,0.1-0.3,0.3l-0.2,0c0,0,0,0,0,0
			l-0.1,0l0,0.1c0,0-0.1,0.1-0.2,0.2c-0.1,0.1-0.3,0.2-0.5,0.3c0,0-0.1,0-0.1,0.1c0.4-0.3,1.4-1,1.9-1.6c-0.4,0.2-1.2,1.1-1,0.7
			c-0.3,0.6-1.3,0.9-2,1.7l0-0.1c-0.1,0.1-0.4,0.3-0.7,0.5l0.4-0.4c-0.3,0.3-0.7,0.5-1.1,0.7c-0.4,0.2-0.7,0.3-1.1,0.5
			c1.4-0.8,0.6-0.2,1-0.3c-0.1,0.1-0.2,0.1-0.3,0.2c-0.1,0.1-0.2,0.1-0.3,0.2c-0.4,0.2-0.6,0.3-0.8,0.3c-0.2,0-0.4,0.1-0.6,0.2
			c-0.2,0.1-0.6,0.2-1,0.4c0.1-0.1,0.3-0.1,0.5-0.2c0.2-0.1,0.3-0.1,0.1,0.1c-0.4,0.2-1,0.3-1.3,0.4c-1.5,0.6,0.3,0-0.3,0.3
			c-0.6,0-0.7,0.3-1.4,0.6l0-0.1c-0.9,0.2-1,0.3-1.1,0.4l0,0c-0.2,0.1-0.4,0.1-0.6,0.2c0,0,0,0,0,0c0.2-0.1,0.3-0.2,0.3-0.2
			s-0.2,0.1-0.4,0.1c-0.2,0.1-0.4,0.1-0.4,0.1l0.1-0.2c-0.4,0.1-0.7,0.2-1,0.3c-0.3,0.1-0.6,0.1-1,0.1c0.2,0,0,0.2-0.6,0.3
			c0.1-0.1,0.1-0.1,0.1-0.2c0,0-0.2,0.1-0.4,0.2c0,0-0.1,0-0.1,0c-0.4,0,0.2-0.1-0.6,0c0,0,0.1-0.1,0.1-0.1c0,0,0,0,0,0
			c0.2,0,0.4-0.1,0.7,0c0,0,0.2-0.1,0.3-0.2c-0.6,0-1.4,0.1-1.9,0.2c0.2,0,0.3,0,0.4,0c0,0-0.1,0-0.3,0.1c-0.2,0-0.4,0.1-0.6,0.1
			c0,0-0.1,0-0.1,0c-0.1,0-0.2,0-0.3,0c-0.1,0-0.2,0-0.4,0c0,0,0.1,0,0.2,0c-0.3,0-0.6,0.1-1,0.1c0.1-0.1,0.1-0.2,0.6-0.2
			c0,0,0,0,0,0c-0.1,0-0.3,0-0.5,0c-0.4,0-0.8,0.1-0.8,0.1c-0.1,0-0.8-0.1-0.6-0.2c-0.4-0.1-1,0-1.5,0c-0.3,0-0.6,0-0.9,0
			c-0.1,0-0.3,0-0.4,0c-0.1,0-0.3,0-0.4-0.1c-0.1,0-0.2,0-0.4,0c-0.2,0-0.4-0.1-0.7-0.1c0,0,0,0-0.1-0.1c-0.4-0.1-0.5-0.1-0.6-0.1
			c-0.1,0-0.2,0-0.2-0.1c-0.3-0.1-0.5-0.1-0.8-0.2c-0.3-0.1-0.6-0.1-0.9-0.2L31.7,67c0.1,0,0.1,0,0.2,0c0,0-0.1,0-0.2-0.1l-0.2-0.1
			c-0.2-0.1-0.3-0.1-0.3,0c-0.1,0-0.2-0.1-0.3-0.1l-1-0.3c0,0.2-1.3-0.3-1.5-0.2c-0.1,0-0.2-0.1-0.3-0.1c0,0,0.1,0,0.1,0
			c-0.1,0-0.3-0.1-0.5-0.1c-0.1-0.1-0.2-0.1-0.3-0.2c0.3,0.1,0.6,0.2,0.9,0.3l-0.7-0.4c1,0.2,1.6,0.5,1,0.1
			c-0.1,0.1-0.9-0.1-1.6-0.4c-0.7-0.3-1.4-0.6-1.6-0.5c0,0-0.1,0-0.1-0.1c-0.1,0-0.2-0.1-0.3-0.2c0.1,0,0.1,0,0.2,0.1
			c-0.2-0.1-0.3-0.2-0.4-0.2c-0.2-0.2-0.4-0.3-0.4-0.3c0,0,0.1,0.1,0.1,0.2c-0.1,0-0.1,0-0.2,0c-0.2,0-0.5-0.1-1.1-0.4
			c-0.1-0.1-0.2-0.1-0.2-0.2c0.1,0,0.1,0,0-0.1l0.2,0.1c-0.1,0-0.1-0.1-0.2-0.1c0,0,0,0,0,0c0,0,0,0,0,0c-0.1,0-0.1,0-0.1-0.1
			l0.1,0.1c0,0-0.1,0-0.2-0.1c-0.1-0.1,0-0.1,0.1,0c0,0-0.2-0.1-0.4-0.2c0,0,0.1-0.1-0.4-0.3c-0.1,0-0.2,0-0.3-0.1
			c0,0-0.1,0-0.1-0.1c-0.2-0.1-0.4-0.3-0.3-0.2c0,0-0.1,0-0.1-0.1c-0.2-0.1-0.3-0.2-0.5-0.3c-0.1-0.1-0.2-0.1-0.2-0.1l0,0l0,0
			c0,0,0,0,0,0c-0.1-0.1-0.2-0.1-0.3-0.2c0,0,0,0.1,0,0.1c-0.2-0.1-0.5-0.2-0.6-0.3c-0.3-0.3,0.2,0.1,0.1,0c0,0-0.2-0.1-0.4-0.2
			c-0.2-0.1-0.4-0.2-0.4-0.2c-0.2-0.3,0.4,0.1,0.9,0.5c-0.3-0.4-0.4-0.5-0.7-0.6c-0.1-0.1-0.3-0.2-0.5-0.3c-0.2-0.2-0.5-0.4-0.8-0.7
			c0,0,0.2,0.1,0.3,0.3c0.2,0.1,0.3,0.2,0.3,0.2c-0.2-0.2-0.4-0.5-0.6-0.7c-0.2-0.3-0.6-0.5-0.9-0.9c0.1,0.2,1.3,1.5,0.5,0.9
			c-0.2-0.2-0.5-0.4-0.9-0.8c0.1-0.1-0.3-0.4-0.8-0.9l0.1-0.1c-0.5-0.5-0.5-0.4-0.9-0.6c-0.1-0.2-0.2-0.3-0.3-0.4
			c0,0,0.1,0.1,0.2,0.2c0.2,0.2,0.4,0.4,0.2,0.1c-0.1,0-0.3-0.2-0.5-0.4c0,0,0,0,0,0c-0.1-0.2-0.1-0.3-0.2-0.5
			c-0.8-1,0.4,0.8-0.6-0.3c-0.2-0.2-0.3-0.4-0.5-0.6c-0.1-0.2-0.3-0.4-0.4-0.5c-0.3-0.4-0.6-0.7-1-1.2c-0.3-0.5,0-0.2,0-0.1
			c0,0,0,0.1,0,0.2l0.1-0.1l-0.3-0.3c0,0.1,0.1,0.1,0.1,0.1l-0.4-0.4c-0.1-0.1,0-0.1,0-0.1c-0.1-0.2-0.2-0.2-0.2-0.2
			c-0.1-0.2-0.3-0.5-0.4-0.7c-0.3-0.5-0.5-1-0.8-1.5c-0.1-0.3-0.2-0.5-0.3-0.7c0,0,0,0,0,0c0,0,0,0,0-0.1c-0.1-0.2-0.2-0.4-0.3-0.6
			c-0.2-0.3-0.4-0.8-0.4-0.5l0.1,0.2c-0.2-0.4-0.3-0.5-0.7-1.2c0,0-0.1-0.2-0.1-0.4c0,0,0,0,0,0s0,0,0,0c0,0,0,0,0-0.1
			c0-0.1-0.1-0.2-0.1-0.3c0-0.1,0-0.2,0-0.2c0,0.2,0,0.3,0,0.3c-0.1-0.2-0.1-0.5-0.2-0.8c0,0,0,0,0-0.2c0,0.1,0,0.1,0,0.1
			c-0.1-0.3-0.1-0.6-0.2-0.8l0-0.2L8,45c0,0-0.1-0.4-0.2-0.9c-0.1-0.2-0.1-0.4-0.1-0.6c0-0.2,0-0.3,0-0.3c-0.1-0.3-0.2-0.6-0.3-0.9
			c-0.1-0.3-0.2-0.6-0.3-0.9c0-0.2,0-0.6,0-0.9c0-0.1,0-0.1,0-0.2c0,0.2,0.1,0.3,0.1,0.5c0,0.1,0.1,0.3,0.1,0.5c0,0.1,0,0.2,0,0.3
			c0-0.2,0.1,0.1,0.2,0.4c0.1,0.3,0.2,0.7,0.3,0.6c0,0-0.1-0.2-0.1-0.4c-0.1-0.2-0.1-0.4-0.1-0.4c0,0,0.1,0.3,0.1,0
			c-0.1,0-0.3-0.9-0.3-1.7c-0.1-0.4-0.2-0.4-0.3-0.3c0-0.2-0.1-0.4-0.1-0.4C7,39.5,7,39.4,7,39.3c0-0.2,0-0.4,0-0.6
			c-0.1,0.2-0.2-0.1-0.2-0.5c0,0,0-0.1,0.1-0.1c0-0.7-0.1-0.7-0.1-0.9c0-0.2,0-0.4,0-0.5c0.1,0,0.2,0.1,0.2,1.1
			c0.2-1-0.3-1.3-0.1-2.3c0,0.2,0,0.3,0,0.4c0-0.3,0-0.7,0-1.1c0-0.3,0.1-0.6,0.1-0.4l0,0.2c0-0.4,0.1-0.8,0.1-1.3
			c0.1-0.5,0.1-1,0.2-1.5c0.1-0.5,0.1-0.9,0.2-1.3c0-0.3,0.1-0.6,0-0.6c0,0,0.2,0.2,0.2,0.3c0,0,0-0.7,0-1.4l0-1.4
			c0.1,0.3,0.8-0.5,0.5,0.8c0.1-0.2,0.1-0.4,0.2-0.6c0.1-0.2,0.2-0.5,0.3-0.9c-0.1,0.1-0.2,0.3-0.3,0.3c0,0,0-0.1,0-0.1
			c0-0.1,0-0.1,0-0.2C8.6,25.9,8.5,26,9,25.1c-0.2,0.3-0.3-0.2-0.1-0.7c0,0.1,0.3,0.1,0.2,0.3c0,0,0-0.1,0-0.2
			c0-0.1,0.1-0.3,0.1-0.5c0.1-0.4,0.2-0.7,0.2-0.7c-0.1,0.4,0.2,0.2,0.4-0.1c-0.1,0.1,0.6-1.1,0.7-1.4c0,0-0.1,0.1-0.2,0.3
			c-0.1,0.1-0.2,0.3-0.2,0.3c0-0.1,0.1-0.1,0.1-0.2c0,0,0-0.1,0-0.1l0-0.1c0.1-0.2,0.2-0.4,0.3-0.6c0.1-0.2,0.2-0.4,0.2-0.6
			c0-0.1,0-0.2,0.1-0.3c0.1-0.2,0.2-0.4,0.4-0.6l0.1-0.1l0.1-0.4c0,0,0-0.1,0.1-0.1c-0.1,0.2,0,0.6,0.5-0.1c0-0.2,0.1-0.5,0.3-1
			l0.1-0.3l0-0.1L12.4,18c0.2-0.5,0.4-1,0.7-1.6c0.1-0.1,0.2-0.2,0.3-0.3l0.2-0.1l0.4-0.6c0.1-0.1,0.1-0.1,0.2-0.2
			c-0.3,0.7-1.1,2.4-1.5,3.3c0.4-0.4,0.2-0.1,0.7-0.8c0.2-0.2-0.2,0.5-0.3,0.7c0,0,0.3-0.4,0.6-0.8c0.2-0.2,0.3-0.4,0.4-0.6
			c0.1-0.2,0.2-0.2,0.2-0.2c-0.2,0,0.9-1.3,0.8-1.4c0,0-0.1,0.1-0.2,0.3c-0.1,0.2-0.3,0.4-0.5,0.6c-0.2,0.2-0.3,0.5-0.4,0.6
			c-0.1,0.2-0.2,0.3-0.2,0.3c-0.1,0,0-0.4,0.3-0.8c0.3-0.5,0.7-1.1,1.2-1.6c0.3-0.2,0,0.4,0.1,0.4c0.1-0.2,0.9-1.1,1-1.2
			c0,0-0.1,0.1-0.2,0.3c-0.1,0.1-0.2,0.3-0.2,0.3c0.3-0.3,0.5-0.5,0.7-0.8c0.2-0.3,0.5-0.6,0.9-0.8c0.3-0.2,0.9-0.5,0.9-0.6
			c-0.1,0.1-0.3,0.1-0.4,0.1c0.3-0.4,0.7-0.7,1.2-1.1c0,0,0.1,0,0.1-0.1c0,0,0,0,0.1,0c0,0,0.1-0.1,0.1-0.2c0.1-0.1,0.2-0.2,0.3-0.2
			c0.1,0,0,0.1,0.4-0.2c0-0.2,1-0.7,0.5-0.5c0-0.1,0.1-0.1,0.1-0.2c0.3-0.2,0.5-0.3,1-0.6c-0.1,0-0.1,0,0-0.1c0,0,0.1-0.1,0.1-0.1
			l-0.1,0.1c0.2-0.2,0.4-0.3,0.7-0.5c0.2-0.1,0.4-0.3,0.6-0.4c0.4-0.2,0.7-0.5,1.1-0.6c0.7-0.4,1.4-0.7,2.4-1.2
			c0.2,0,0.8-0.2,0.5-0.1C27.5,6.3,27.6,6.2,28,6c0.9-0.2-0.9,0.4-0.2,0.3c0-0.1,1-0.6,1.6-0.8c-0.2-0.1-1.4,0.5-2,0.8
			c0-0.1,0-0.1,0.1-0.2c0,0,0.1,0,0.1,0c0.1-0.1,0.1-0.1,0-0.1c0,0,0.1,0,0.1-0.1c0.3-0.1,0.7-0.3,1.1-0.4c0.1,0,0.2-0.1,0.2-0.1
			c0.1,0,0.2,0,0.4-0.1c0.1,0,0.1-0.1,0.2-0.1c0.1,0,0.2-0.1,0.3-0.1C30.5,5,30.8,4.9,30.9,5c0.8-0.2-0.3-0.1,0.5-0.3l0.2,0l0.2-0.1
			c0.3-0.1,0.5-0.1,0.6-0.1c0,0,0,0,0.1,0c-0.3,0.1-0.5,0.1-0.7,0.2c0.2,0,0.5-0.1,0.8-0.1c0,0,0,0,0.1,0c-0.1,0-0.4,0.1-0.5,0.1
			c0.6-0.1,1.7-0.4,2.1-0.5c-0.1,0-0.2,0-0.3,0c-0.2,0-0.4,0.1-0.4,0.1c0.1,0,0.2,0,0.2-0.1c0.1,0,0.2,0,0.3,0
			c0.5-0.1,1.1-0.2,1.7-0.2c0.3,0,0.5-0.1,0.8-0.1c0.3,0,0.5,0,0.7,0c0.2,0,0.4-0.1,0.6-0.1c1-0.1,2.1-0.1,3-0.1l-0.2-0.1
			c0.8,0,1.2,0,1.5,0.1L42,3.7l0.5,0.1l-0.1-0.1c0.2,0,0.3,0.1,0.6,0.1c0.3,0,0.6,0.1,1,0.1l-0.1,0c0.1,0,0.2,0,0.2,0
			c-0.1,0-0.2,0-0.2,0.1c0,0,0.2,0,0.4,0c0.2,0,0.4,0,0.4,0c0,0-0.3,0-0.1,0.1c0,0,0.3-0.1,0.6,0c0.2,0.1,0.6,0.2,0.2,0.2
			c0.5,0,0.7,0.1,0.9,0.1c0.2,0,0.3,0,0.4,0c0.2,0,0.2,0,0.9,0l0.2,0.2c0.4,0,0.5,0,1.4,0.2c-0.8-0.2,0.5,0.3-0.3,0.2
			c0.5,0.2,0.8,0.3,1.2,0.5c0.4,0.1,0.7,0.2,1,0.3c0.3,0.1,0.5,0.2,0.8,0.3c0.2,0.1,0.4,0.2,0.6,0.4c0.5,0.1,0.1-0.1-0.3-0.3
			c-0.4-0.2-0.9-0.4-0.7-0.3c-0.2-0.1,0-0.1,0.3,0c0.3,0.1,0.7,0.2,1,0.4c0.3,0.1,0.5,0.3,0.8,0.5c0.2,0.1,0.3,0.3,0.6,0.4
			c0.2,0.1,0.5,0.3,0.9,0.5c-0.1-0.1-0.2-0.1-0.3-0.1c0.2,0.2,0.5,0.3,0.8,0.4c0.1,0.1,0.3,0.1,0.4,0.2c0.1,0.1,0.3,0.2,0.4,0.3
			c0.4,0.1,0.8,0.5,1,0.4L56.1,8c0.4,0.2,0.7,0.3,1.2,0.5c0.4,0.2,0.9,0.5,1.4,0.9c-0.1,0-0.5-0.2-0.7-0.3c0.3,0.3,0.7,0.4,1,0.7
			c-0.1,0-0.2,0-0.3-0.1c-0.2-0.1-0.4-0.2-0.6-0.4c-0.2-0.1-0.5-0.3-0.7-0.5c-0.2-0.1-0.5-0.3-0.7-0.3c0.2,0.1,0.5,0.3,0.8,0.5
			c0.3,0.2,0.4,0.3,0.2,0.2c0.3,0.1,0.7,0.3,1,0.5c0.4,0.3,0.7,0.6,1.2,0.8l-0.1,0.1c0.2,0.1,0.5,0.3,0.7,0.5l-0.5-0.2
			c0.4,0.2,0.7,0.5,1,0.8c0.3,0.3,0.6,0.6,0.9,0.8c-1.3-1.1-0.2-0.4-0.7-0.9c1.7,1.3,0.8,1,2.5,2.7c-0.2-0.2-0.8-0.9-0.4-0.6
			c0.3,0.3,0.7,0.8,0.8,1.1c1.1,1.2-0.1-0.3,0.4,0.2c0.2,0.5,0.5,0.6,1,1.1l-0.1,0.1c0.5,0.8,0.6,0.8,0.7,0.9c0.1,0,0.1,0,0.2,0.1
			c0.1,0.1,0.2,0.3,0.4,0.6l-0.3-0.2c-0.1-0.1-0.3-0.2-0.3-0.2s0,0,0.1,0.1c0.1,0.1,0.1,0.1,0.2,0.2c0.1,0.2,0.2,0.3,0.2,0.3
			l-0.2-0.1c0.3,0.4,0.5,0.6,0.6,0.9c0.2,0.3,0.3,0.5,0.5,0.9c0-0.1,0-0.1,0.2,0c0.1,0.1,0.3,0.3,0.5,0.7c0.2,0.5-0.2-0.2,0.3,0.8
			c-0.2-0.2-0.4-0.4-0.5-0.9c-0.1,0-0.2-0.2-0.2-0.2c0.1,0.3,0.3,0.6,0.4,0.9c0.2,0.3,0.3,0.6,0.4,0.8c-0.1-0.1-0.1-0.3-0.2-0.4
			c0,0,0.1,0.1,0.1,0.2c0.1,0.1,0.2,0.3,0.3,0.5c0.1,0.1,0.1,0.2,0.2,0.3c0,0.3,0.1,0.6,0,0.6C69,23,69,23,69,23
			c0,0,0.2,0.4,0.3,0.7c0.1,0.2,0.1,0.5,0.2,0.8c0.1,0.2,0.1,0.4,0.2,0.6c0,0,0,0,0,0c0.1,0.2,0.1,0.4,0.2,0.7
			c0.1,0.2,0.1,0.4,0.2,0.6c0,0,0,0,0,0c0,0,0.1,0.1,0.1,0.1c0,0,0,0,0,0c0.1,0.3,0.2,0.6,0.3,0.8c0,0.2,0.1,0.3,0.1,0.5l0,0l0,0
			c0,0.1,0,0.2,0.1,0.4c0,0,0.1,0.1,0.1,0.2c0,0.1,0,0.1,0,0.2c0,0.1,0,0.2,0,0.2c0.1,0.5,0.1,0.9,0.2,1.4c0.1,0.5,0.1,1.1,0.2,1.8
			l-0.1,0.8c0.1,0.7,0.1,0,0.2,0c0,0,0,0.1,0,0.1c0,0.3,0,0.6,0,0.9l0.1-0.2c0,0.2,0,0.4,0,0.5c0,0.2-0.1-0.1-0.2,0.2
			C71.3,35,71.5,36,71.3,37.1 M68.6,48.4c0.1-0.2,0.2-0.7,0.3-0.9C68.9,47.9,68.8,48,68.6,48.4 M59.2,61.5c0,0-0.1,0.1-0.2,0.1
			c0.2-0.2,0.5-0.4,0.5-0.4C59.4,61.3,59.3,61.4,59.2,61.5 M57.3,63.2C57.3,63.2,57.3,63.2,57.3,63.2c0,0,0.1-0.1,0.1-0.1
			C57.3,63.1,57.3,63.2,57.3,63.2 M31.1,67c-0.1-0.1,0-0.1,0.1-0.1c0.1,0,0.1,0.1,0.2,0.1C31.3,67,31.2,67,31.1,67 M30.3,66.8
			c-0.3-0.1-0.2-0.1-0.2-0.2c0.3,0.1,0.5,0.1,0.5,0.1C30.6,66.8,30.5,66.8,30.3,66.8 M17.7,59.8c0.2,0.1,0.6,0.4,0.7,0.6
			C18.1,60.3,18,60.1,17.7,59.8 M11.2,52.4c-0.1,0-0.2-0.2-0.3-0.5c0,0,0,0,0,0c0.2,0.3,0.3,0.6,0.5,0.8
			C11.3,52.6,11.2,52.5,11.2,52.4 M8.3,46.7c0-0.1-0.1-0.2-0.1-0.3l0.1-0.2c0,0,0,0.2,0.1,0.4c0,0.1,0.1,0.3,0.1,0.4
			C8.5,46.9,8.4,46.8,8.3,46.7 M7.8,45.8c0,0,0,0,0-0.1c0,0,0,0,0,0C7.9,45.7,7.9,45.8,7.8,45.8C7.9,45.8,7.9,45.8,7.8,45.8
			 M7.8,45.1C7.8,45.1,7.8,45.1,7.8,45.1L7.8,45.1C7.8,45.1,7.8,45.1,7.8,45.1 M7.6,44.1c0,0.1,0.1,0.3,0.1,0.4c0,0.1,0,0.1,0,0.2
			C7.7,44.5,7.6,44.3,7.6,44.1 M7.9,46.3c0-0.1-0.1-0.3-0.1-0.4c0-0.1,0-0.2-0.1-0.3c0,0,0,0.1,0,0.1c0-0.2-0.1-0.3-0.1-0.5
			c0,0,0.1,0.1,0.1,0.2c0-0.1-0.1-0.2-0.1-0.2c0-0.2,0-0.3,0-0.3c0,0.1,0,0.2,0.1,0.2c0,0.1,0.1,0.3,0.1,0.4c0,0-0.1-0.1-0.1-0.1
			c0,0.1,0.1,0.2,0.1,0.3c0,0.1,0.1,0.2,0.1,0.2c0,0.3,0.1,0.5,0.1,0.7C7.9,46.4,7.9,46.4,7.9,46.3 M6.8,40.7c0,0,0.1,0.2,0.2,0.7
			C6.9,41.2,6.9,40.9,6.8,40.7 M6.7,40.3C6.7,40.3,6.7,40.3,6.7,40.3c0-0.2,0-0.3,0-0.5c0-0.3,0-0.5-0.1-0.7c0.1,0,0.1-0.2,0.2-0.1
			c-0.1,0.3,0,0.6,0.1,1c-0.1,0.1-0.1,0.3-0.1,0.5C6.8,40.5,6.7,40.4,6.7,40.3 M6.6,39.6c0-0.2-0.1-0.4-0.1-0.7
			c0,0.1,0.1,0.2,0.1,0.2C6.6,39.3,6.6,39.5,6.6,39.6 M7.6,27.1L7.6,27.1L7.6,27.1z M8.2,26.6c0-0.1,0.1-0.1,0.1-0.2
			c0,0.1,0,0.2-0.1,0.3C8.2,26.8,8.1,26.7,8.2,26.6 M11.4,19.4c-0.1,0.2-0.2,0.4-0.3,0.6C11.2,19.8,11.3,19.6,11.4,19.4 M17.5,11.8
			C17.5,11.8,17.5,11.8,17.5,11.8C17.5,11.8,17.5,11.8,17.5,11.8C17.5,11.8,17.5,11.8,17.5,11.8 M20.8,10
			C20.7,10.1,20.7,10.1,20.8,10c-0.1,0.1-0.2,0.2-0.3,0.2C20.6,10.1,20.7,10.1,20.8,10 M69.2,23.4c-0.1-0.1-0.1-0.2-0.2-0.4
			C69.1,23.2,69.1,23.3,69.2,23.4 M39.2,1.9C20.4,1.9,5.1,17.2,5.1,36.1c0,18.9,15.3,34.1,34.1,34.1c18.9,0,34.1-15.3,34.1-34.1
			C73.4,17.2,58.1,1.9,39.2,1.9 M70.5,41.6c0,0,0-0.1,0.1-0.1c0-0.1,0.1-0.1,0.1-0.1l-0.2,0.1L70.5,41.6z M71,33.8c0,0.3,0,0.7,0,1
			C71,34.1,71.2,33.7,71,33.8 M67.5,50c0.1-0.1,0.2-0.2,0.3-0.5L67.5,50L67.5,50z M32.2,4.7l0,0.2l0.4-0.1
			C32.3,4.7,32.3,4.7,32.2,4.7 M8.8,47.1c-0.1-0.3-0.2-0.5-0.2-0.6C8.6,46.7,8.7,46.9,8.8,47.1 M9,47.7c-0.1-0.2-0.1-0.4-0.1-0.4
			c0,0-0.1-0.1-0.1-0.2C8.8,47.4,8.9,47.6,9,47.7C9,48,9.1,48.1,9.1,48.1c0,0,0,0,0-0.1C9,47.9,9,47.8,9,47.7 M7.9,44.4l0.2,0.3
			L8,44.2L7.9,44.4z M8.3,45.5l0.2,0.6l-0.2-0.8L8.3,45.5z M13.7,55.5c0.1,0.1,0.9,0.9,0.2,0.1C13.8,55.5,13.2,54.8,13.7,55.5
			 M11.5,20.1c0-0.1,0.1-0.2,0.1-0.3C11.5,20,11.5,20.1,11.5,20.1 M11.5,20.1c-0.3,0.6-0.5,0.9-0.2,0.7c0.6-0.9,0-0.3,0.6-1.1
			C11.9,19.5,11.4,20.4,11.5,20.1 M23.5,63.7l0.2,0.3l-0.1-0.2L23.5,63.7z M16.5,58.3c0,0.1,0.2,0.2,0.4,0.4L16.5,58.3L16.5,58.3z"
			/>
		<path class="st33" d="M58.4,19.2c-0.2,0-0.4,0-0.7-0.1c-0.3-0.2-0.5-0.5-0.6-0.9c-0.6-1.6-1.8-8,0-11.2c1-1.8,3-3,4.9-3
			c0.7,0,1.3,0.2,1.9,0.5c0.8,0.4,1.5,1.1,1.8,2.1c0.6-0.3,1.3-0.4,2.1-0.4c2.2,0,4.3,1.4,5,3.5c0.9,2.7-0.5,6-3.1,7.2
			C66.2,18.4,59.8,19.2,58.4,19.2"/>
		<path class="st1" d="M62,3.2L62,3.2c-2.2,0-4.4,1.4-5.6,3.4c-1.9,3.3-0.8,9.9,0,11.9c0.1,0.3,0.3,0.9,0.9,1.3
			c0.4,0.3,0.9,0.3,1.2,0.3c1.5,0,8-0.7,11.7-2.4c3-1.4,4.6-5.1,3.5-8.2c-0.8-2.4-3.2-4.1-5.8-4.1c-0.6,0-1.1,0.1-1.6,0.2
			c-0.4-0.8-1.1-1.4-1.8-1.7C63.6,3.4,62.8,3.2,62,3.2 M62,4.9c0.5,0,1.1,0.1,1.6,0.4c1,0.5,1.5,1.5,1.6,2.6
			c0.2-0.2,0.5-0.3,0.7-0.4c0.6-0.3,1.3-0.5,1.9-0.5c1.8,0,3.6,1.2,4.3,3c0.8,2.3-0.4,5.1-2.6,6.2c-3.4,1.6-9.6,2.3-11,2.3
			c-0.2,0-0.2,0-0.3,0c-0.6-0.2-2.2-7.7-0.3-10.9C58.6,6,60.3,4.9,62,4.9"/>
		<path class="st34" d="M64.5,10.4c-1.9,3.1-6.2,7.9-6.4,7.9c-0.6-0.2-2.2-7.7-0.3-10.9c1.1-1.9,3.6-3.2,5.7-2.2
			C65.4,6.2,65.5,8.8,64.5,10.4"/>
		<path class="st33" d="M69.4,16.1c-3.8,1.8-11.1,2.4-11.2,2.3c-0.4-0.6,3.4-8.9,7.7-10.9c2.3-1.2,5.3,0.1,6.2,2.5
			C72.8,12.2,71.6,15,69.4,16.1"/>
	</g>
	<g>
		<g>
			<path class="st1" d="M22.7,22.1l-0.2,0.6l0,0.1l0,0.1l-0.1,0.2l-0.1,0.3l0,0.1l0,0.1l0,0.1l0,0.1l0,0.1l0,0.1l0.1-0.1l0.1-0.1
				l0.6-0.6l0.1-0.1l0.1-0.1l0.1-0.1l0.1-0.1l0.1-0.1l0.1-0.1l0.1-0.1l0.1-0.2l0.1-0.1l0.1-0.1l0.1-0.1l0.1-0.2l0.1-0.1l0-0.1
				l0.1-0.1l0.1-0.1l0-0.1l0-0.1l0-0.2l0.1-0.2l0-0.2l0.1-0.2l0-0.1l0-0.1v-0.3l0-0.1l0-0.1l-0.1-0.1l-0.1,0l-0.1,0l-0.1,0.1
				l-0.1,0.1L23.7,20l-0.1,0.1l-0.1,0.1l-0.1,0.2l-0.1,0.1l-0.1,0.1l-0.1,0.1l-0.1,0.1l-0.1,0.1L23,21.2l0,0.1l-0.1,0.2l-0.1,0.2
				l-0.1,0.1L22.7,22.1z M25,21.7l-0.1,0.1l-0.1,0.2l-0.1,0.2l-0.1,0.2l-0.1,0.1l-0.1,0.1l-0.1,0.1l-0.1,0.1l-0.1,0.1L24.2,23
				l-0.1,0.1L24,23.3l-0.1,0.1l-0.1,0.1l-0.1,0.1l-0.2,0.2l-0.1,0.1l-0.2,0.2l-0.1,0.1l-0.1,0.1l-0.2,0.1l-0.2,0.2l-0.1,0.1
				l-0.3,0.2l-0.1,0l-0.1,0.1L22,25l-0.1,0.1l-0.1,0.1l0,0.2l0,0.3v0.1l0,0.1l0,0.1l0,0.1v0.3l0,0.2v0.3l0,0.2l0,0.1l0,0.1l0.1,0.1
				l0.1,0.1l0.1,0.1l0.1,0.1l0.1,0l0.1,0h0.2l0.1,0l0.1,0l0.2-0.1l0.2-0.1l0.1-0.1l0.1-0.1l0.1-0.1l0.2-0.2l0.1-0.1l0.1-0.1l0.1-0.1
				l0.1-0.1l0.1-0.1l0.1-0.1l0.1-0.1l0.1-0.1l0.1-0.2l0.1-0.1l0.1-0.1l0.1-0.1l0.1-0.1l0.1-0.2l0.1-0.1l0.2,0l0.1,0.1v0.1l0,0.1
				l-0.1,0.1L25,25.9L25,26.1l-0.1,0.1l0,0.1l-0.1,0.1l-0.1,0.1l-0.1,0.1l-0.1,0.1l0,0.1l-0.1,0.1l-0.1,0.1l-0.1,0.2l-0.1,0.1
				l-0.1,0.1L24,27.6l-0.1,0.1l-0.1,0.1l-0.1,0.1L23.6,28l-0.1,0.1l-0.1,0.1l-0.1,0.1l-0.1,0.1l-0.1,0.1l-0.1,0.1l-0.1,0l-0.1,0.1
				l-0.2,0.1l-0.3,0.1l-0.2,0l-0.2,0h-0.1l-0.1,0l-0.1,0l-0.1,0l-0.1,0l-0.1-0.1l-0.1-0.1L21,28.3l-0.1-0.1l-0.1-0.1L20.8,28
				l-0.1-0.1l0-0.1l0-0.1l0-0.1l0-0.1l0-0.1v-0.1l0-0.2l0-0.1v-0.1l0-0.1l0-0.1v-0.1l0-0.2l0-0.3l0-0.2v-0.1l0-0.1l0-0.1l0.1-0.5
				l0-0.2l0-0.3l0-0.1l0-0.2l0-0.1l0.1-0.2l0-0.2l0-0.1l0-0.2l0.1-0.2l0-0.1l0.1-0.2l0.1-0.2l0-0.1l0.1-0.2l0.1-0.2l0.1-0.1l0.1-0.4
				l0-0.1l0.1-0.2l0.1-0.2l0.1-0.2L22,21l0-0.1l0.1-0.1l0.1-0.2l0.1-0.1l0.1-0.1l0.1-0.1l0.1-0.2l0.2-0.2l0.1-0.1l0.2-0.2l0.1-0.1
				l0.1-0.1l0.1-0.1l0.2-0.2l0.2-0.1l0.2-0.1l0.1,0l0.1,0h0.3l0.1,0l0.1,0l0.1,0l0.1,0.1l0.2,0.2l0.1,0.1l0.1,0.1l0.1,0.2l0.1,0.1
				l0.1,0.2l0,0.2v0.3l0,0.4l-0.1,0.3l0,0.1l0,0.1l-0.1,0.3L25,21.6L25,21.7z"/>
			<path class="st1" d="M31.7,24.7v-0.3l0-0.2l0-0.2l0-0.1l-0.1-0.2l-0.1-0.1l-0.1-0.1l-0.1-0.1l-0.1,0l-0.2,0l-0.2,0l-0.1,0
				l-0.5,0.2l-0.1,0.1l-0.1,0l-0.3,0.2l-0.1,0.1L29.5,24L29.4,24l-0.1,0.1l-0.1,0.2l-0.1,0.2l0,0.1l0,0.1l0,0.1l-0.1,0.3l0,0.2
				l0,0.2l0,0.1l0,0.1l0,0.1l0,0.1l0,0.2v0.1l0,0.1v0.4l0,0.1l0,0.1l0,0.1l0.1,0.1l0.1,0.1l0.1,0.1l0.1,0.1l0.1,0l0.1,0h0.3l0.2,0
				l0.2,0l0.1-0.1l0.1,0l0.1-0.1l0.2-0.2l0.1-0.1v-0.2l-0.1-0.2l0-0.1l0-0.2l0.1-0.2l0.1-0.1l0.1-0.1l0.1,0l0.2,0l0.1-0.1l0.1-0.2
				l0.1-0.2l0.1-0.2l0.1-0.2l0-0.1l0-0.2l0-0.2l0-0.1L31.7,24.7z M26.8,20.9l0.1,0.1l0.1,0.1l0.1,0.1l0,0.1l0,0.1l0,0.1l0,0.1
				l-0.1,0.2L26.8,22l-0.1,0.1l-0.1,0l-0.1,0h-0.1l-0.1,0l-0.1-0.1L26,22l-0.1-0.1l-0.1-0.1l0-0.1l0-0.1v-0.1l0-0.1l0-0.1l0.1-0.1
				l0.1-0.1l0.1-0.1l0.2,0l0.1,0h0.1l0.1,0L26.8,20.9z M34.7,25.4l0,0.2l0,0.1l-0.1,0.1l-0.1,0.1l-0.1,0.2l-0.1,0.2l-0.1,0.1
				l-0.1,0.1l-0.1,0.1L34,26.8L34,26.9L33.9,27l-0.1,0.1l-0.1,0.1l-0.1,0.1l-0.1,0.1l-0.1,0.1l-0.1,0.1l-0.1,0l-0.1,0l-0.3,0.1
				l-0.1,0l-0.1,0h-0.1l-0.2,0h-0.1l-0.2,0l-0.1,0l-0.1,0l-0.1,0l-0.1,0.1l-0.1,0.1l-0.1,0.1L31.3,28l-0.1,0.1L31,28.1l-0.1,0.1
				l-0.1,0.1l-0.1,0.1l-0.1,0l-0.1,0l-0.1,0.1l-0.1,0l-0.1,0l-0.1,0l-0.5,0.1h-0.1l-0.2,0l-0.1,0l-0.2,0l-0.1,0l-0.1,0l-0.1,0
				l-0.1,0l-0.1-0.1l-0.1-0.1L28,28.1L28,28l-0.1-0.2l-0.1-0.1l-0.1-0.3l0-0.1l0-0.1l0-0.1l0-0.1l0-0.1l0-0.1l-0.1,0l-0.1,0.1
				L27.3,27l-0.1,0.1l-0.1,0.1l-0.1,0.1l-0.2,0.3l-0.1,0.1l-0.1,0.1L26.5,28l-0.1,0.1l-0.1,0.1l-0.1,0.1l-0.1,0.1l-0.1,0.1l-0.1,0.1
				l-0.1,0.1l-0.1,0l-0.1,0l-0.3,0l-0.1,0l-0.1,0l-0.1,0l-0.1,0l-0.1-0.1l-0.1-0.1l-0.1-0.1l-0.1-0.1l-0.1-0.1l0-0.1l0-0.1v-0.1
				l0-0.1v-0.3l0-0.1l0-0.1l0-0.1l0-0.1l0.1-0.1l0-0.1l0-0.1l0.1-0.2l0-0.1l0-0.1l0-0.1l0.1-0.3l0-0.2l0-0.2l0.1-0.1l0.1-0.4l0-0.1
				l0.1-0.1l0.1-0.3l0-0.1l0-0.1l0-0.1l0-0.1l0.1-0.3l0-0.1l0-0.1l0-0.1l0-0.1l0-0.1l0.1-0.1l0.1-0.1l0.1-0.1l0.1,0h0.1l0.3,0.1
				l0.1,0l0.1,0.1l0,0.1v0.1l-0.1,0.2l0,0.2l0,0.1l-0.1,0.5l0,0.2l0,0.1l0,0.1l0,0.2l0,0.2L26,25.1l-0.1,0.2l0,0.2l0,0.2l0,0.1
				l0,0.2l-0.1,0.2l-0.1,0.2l-0.1,0.1l0,0.2l0,0.2l0,0.1l0,0.2l0,0.2l0,0.2l0,0.1l0,0.1l0.1,0.1h0.1l0.1,0l0.2-0.1l0.1-0.1l0.1-0.1
				l0.1-0.1l0.1-0.1l0.1-0.1l0.1-0.1l0.3-0.3l0.1-0.2l0.1-0.1l0.1-0.1l0.1-0.1l0.1-0.1l0.1-0.2l0.1-0.2l0.1-0.1l0.2-0.3l0.1-0.1
				l0-0.1l0-0.1l0-0.1l0-0.1l0-0.1l0-0.1l0.1-0.3l0-0.2l0-0.2l0-0.1l0-0.1l0.1-0.2l0-0.1l0-0.1l0-0.1l0-0.1l0-0.1l0-0.1l0-0.1l0-0.1
				l0-0.1l0-0.1l0-0.1l0-0.1l0.1-0.3l0-0.1l0-0.1l0-0.1l0-0.1l0.1-0.3l0-0.1l0-0.1l0.1-0.1l0-0.1l0-0.1l0-0.1l0-0.1l0-0.1l0-0.1
				l0-0.1l0.1-0.1l0.1-0.1l0-0.1l0-0.1l0.1-0.1l0-0.1l0.1-0.1l0.1-0.1l0.1-0.1l0.1,0h0.1l0.1,0l0.2,0.1l0.1,0l0.1,0.1l0.1,0.1l0,0.1
				l0,0.1l-0.1,0.1l-0.2,0.3l-0.1,0.1l-0.1,0.2l0,0.2l-0.1,0.1l0,0.1l0,0.1l0,0.1l-0.1,0.1l0,0.1l-0.1,0.1L30,21.3l0,0.2l0,0.2
				l-0.1,0.3l0,0.1l0,0.1l0,0.1l0,0.1l-0.1,0.1l0,0.1L29.4,23l0,0.1l0,0.1l0,0l0.1,0l0.2-0.2l0.1-0.1l0.3-0.2l0.1,0l0.1,0l0.4-0.1
				l0.2,0l0.1,0h0.1l0.4,0l0.1,0l0.1,0.1l0.3,0.2l0.1,0.1l0.1,0.1l0.2,0.2l0.1,0.1l0.1,0.1l0.1,0.2l0,0.1l0,0.1l0,0.1l0,0.1v0.5
				l0,0.1v0.1l0,0.1l0,0.1l0,0.1l0,0.3l0,0.1l-0.1,0.4l-0.1,0.3l-0.1,0.1l-0.1,0.1l-0.1,0.1l-0.1,0.1l-0.1,0.1l0,0.1l0,0.1l0.1,0
				h0.1l0.1,0l0.1,0l0.1,0l0.1-0.1l0.1-0.1l0.1-0.1l0.1-0.1l0.1-0.1l0.1-0.1l0.1-0.1l0.2-0.3l0.1-0.1l0.1-0.2l0.1-0.1l0.1-0.1
				l0.1-0.1l0.1-0.1l0.1-0.1l0.1-0.1l0.2,0L34.7,25.4z"/>
			<polygon class="st1" points="35.1,22.3 35,21.9 35,21.8 35,21.7 35,21.6 35.1,21.4 35.1,21.3 35.2,21.2 35.3,21.2 35.4,21.1 
				35.5,21.1 35.7,21.1 35.8,21.1 35.9,21.2 36,21.3 36.1,21.4 36.1,21.5 36.1,21.9 36.1,22 36.1,22.1 36.1,22.2 36.2,22.3 
				36.3,22.4 36.4,22.5 36.5,22.6 36.6,22.8 36.7,22.9 36.9,23.1 37,23.2 37.1,23.3 37.1,23.4 37.2,23.5 37.3,23.6 37.5,23.8 
				37.5,23.9 37.6,24.1 37.6,24.3 37.6,24.4 37.5,24.5 37.5,24.6 37.4,24.7 37.3,25 37.2,25 37.1,25.2 37,25.3 37,25.4 36.9,25.5 
				36.8,25.6 36.7,25.7 36.5,26.2 36.4,26.3 36.4,26.4 36.4,26.6 36.3,26.7 36.3,26.8 36.3,26.9 36.3,27.1 36.4,27.4 36.4,27.5 
				36.5,27.6 36.6,27.7 36.7,27.8 36.9,27.8 37.1,27.8 37.2,27.8 37.4,27.7 37.5,27.7 37.6,27.6 37.8,27.4 37.9,27.4 38,27.3 
				38.1,27.2 38.2,27.1 38.4,26.8 38.7,26.5 38.7,26.4 38.8,26.2 38.9,26.1 38.9,26 39,25.9 39,25.8 39.1,25.6 39.2,25.5 39.2,25.4 
				39.3,25.3 39.4,25.2 39.6,25.3 39.7,25.4 39.7,25.6 39.7,25.7 39.5,25.9 39.5,26 39.4,26.2 39.3,26.4 39.2,26.6 39.1,26.7 
				39,26.8 39,26.9 38.8,27.2 38.7,27.4 38.6,27.5 38.5,27.7 38.3,27.9 38.2,28 38,28.1 37.9,28.2 37.8,28.3 37.6,28.4 37.4,28.5 
				37.3,28.5 37.2,28.6 37.1,28.6 36.9,28.6 36.6,28.6 36.4,28.6 36.2,28.5 36,28.5 35.9,28.4 35.7,28.3 35.6,28.2 35.5,28.1 
				35.4,28 35.4,27.9 35.3,27.8 35.2,27.7 35.2,27.5 35.2,27.4 35.2,27.3 35.1,27.2 35.1,27 35.2,26.5 35.2,26.4 35.3,26.3 
				35.3,26.2 35.4,26 35.5,25.9 35.6,25.7 35.7,25.6 35.8,25.4 35.8,25.3 35.9,25.1 36,25 36.1,24.9 36.2,24.7 36.4,24.5 36.4,24.3 
				36.5,24.1 36.5,23.9 36.3,23.7 36.2,23.6 36,23.3 35.9,23.2 35.8,23.2 35.7,23.2 35.6,23.3 35.6,23.4 35.6,23.6 35.5,23.7 
				35.5,23.8 35.5,23.9 35.4,24.3 35.3,24.4 35.3,24.5 35.2,24.6 35.2,24.8 35.1,25 35,25.1 35,25.2 34.9,25.4 34.8,25.5 34.7,25.7 
				34.7,25.9 34.6,26 34.5,26 34.4,26 34.3,26 34.2,25.9 34.2,25.8 34.2,25.6 34.3,25.5 34.3,25.4 34.4,25.3 34.5,25 34.5,24.9 
				34.6,24.8 34.6,24.7 34.7,24.5 34.7,24.4 34.8,24.3 34.8,24.2 34.9,23.9 35,23.8 35,23.7 35,23.6 35.1,23.4 35.1,23.3 35.2,23.2 
				35.2,23.1 35.2,22.9 35.3,22.8 35.3,22.7 35.2,22.6 			"/>
			<path class="st1" d="M41.7,23.4l-0.2,0.1l-0.2,0.1l-0.1,0.1L41,23.8L40.9,24l-0.1,0.1l-0.1,0.1l-0.1,0.2l-0.1,0.1l-0.1,0.1
				l-0.1,0.2L40.3,25l-0.1,0.1l0,0.1l0,0.1l0.1,0.1l0.2,0l0.3,0l0.1,0h0.4l0.1,0l0.1,0l0.1-0.1l0.1,0l0.1-0.1l0.1-0.1l0.1-0.1
				l0.1-0.1l0.1-0.1l0.1-0.1l0.1-0.1l0.1-0.1l0.1-0.1l0.1-0.3l0-0.1l0-0.1l0-0.1l-0.1-0.1l-0.1-0.1l-0.1-0.1l-0.1-0.1l-0.1,0l-0.1,0
				l-0.1,0L41.7,23.4z M43.4,25.1l-0.1,0.1l-0.2,0.2l-0.2,0.2l-0.1,0.1l-0.1,0.1l-0.1,0l-0.1,0.1l-0.1,0l-0.1,0.1l-0.1,0L42,26
				l-0.1,0l-0.1,0l-0.2,0l-0.2,0l-0.1,0h-0.1l-0.3,0l-0.3,0l-0.1,0L40.2,26h-0.1L40,26l0,0.1v0.1l0,0.1v0.2l0,0.1l0,0.1l0.1,0.3
				l0.1,0.2l0.1,0.1l0.1,0.1l0.2,0.1l0.1,0l0.1,0l0.1,0l0.1,0l0.1,0h0.1l0.1,0l0.4-0.1l0.1,0l0.1,0l0.1,0l0.2-0.1l0.2-0.1l0.2-0.2
				l0.1-0.1l0.1-0.1l0.2-0.2l0.2-0.2l0.1-0.1l0.1-0.1l0.1-0.2l0.1-0.1l0.1-0.1l0.1-0.1l0.1-0.1l0.1-0.1l0.1-0.1l0.1-0.1l0.1-0.1
				l0.1-0.1l0.1-0.1h0.1l0.1,0.1l0.1,0.1l0,0.1l-0.1,0.1l-0.1,0.2L44.5,26l-0.1,0.2l-0.1,0.2l-0.1,0.1l-0.1,0.2l0,0.1L44,26.9
				l-0.1,0.2l-0.1,0.1l-0.1,0.1l-0.1,0.1l-0.1,0.1l0,0.1l-0.1,0.1l-0.1,0.1l-0.2,0.2L42.9,28l-0.1,0.1l-0.2,0.1l-0.4,0.2l-0.1,0
				l-0.1,0l-0.2,0l-0.2,0l-0.3,0l-0.2,0l-0.2,0h-0.1l-0.5-0.1l-0.1,0l-0.1,0L40,28.5l-0.1-0.1l-0.2-0.1l-0.1-0.1l-0.1-0.1l-0.1-0.1
				L39.3,28l-0.1-0.1l-0.1-0.1l-0.1-0.1L39,27.6L39,27.4l0-0.1l0-0.1l0-0.1l0-0.1l0-0.1l0-0.4v-0.3l0-0.1v-0.1l0.1-0.4l0-0.1l0-0.1
				l0-0.1l0-0.1l0-0.1l0.1-0.2l0.1-0.2l0.1-0.1l0.1-0.2l0.1-0.1l0.1-0.1l0.1-0.1l0.1-0.1l0.2-0.2l0.2-0.2l0.1-0.1l0.1-0.1l0.1-0.1
				l0.1-0.1l0.1-0.1l0.1-0.1l0.1-0.1l0.2-0.1l0.3-0.1l0.3-0.1l0.2,0h0.3l0.2,0l0.2,0l0.2,0l0.1,0l0.1,0.1l0.1,0.1l0.1,0.1l0.2,0.2
				l0.1,0.1l0.1,0.1l0.1,0.2l0,0.1l0,0.1l0,0.1V24l0,0.2l0,0.1l0,0.2l-0.1,0.2l0,0.1l0,0.1L43.4,25L43.4,25.1z"/>
			<path class="st1" d="M50.1,23.5l-0.3,0h-0.1l-0.1,0l-0.1,0l-0.1,0l-0.1,0.1l-0.1,0L49,23.7l-0.1,0.1l-0.1,0.1L48.7,24l-0.1,0.1
				l-0.2,0.2l-0.1,0.1l-0.1,0.1l-0.2,0.2L48,24.7l-0.1,0.1l-0.2,0.3l-0.1,0.1l0,0.1l0,0.1l0,0.1l-0.1,0.1l-0.1,0.3l0,0.1l0,0.2
				l0,0.2l0,0.1l0,0.2l0,0.2l0,0.2l0,0.1l0.1,0.1l0.1,0.1l0.1,0.1l0.1,0.1l0.2,0l0.2,0l0.1-0.1l0.1,0l0.1-0.1l0.1-0.1l0.2-0.2
				l0.1-0.1l0.1-0.1L49,27l0.1-0.1l0.1-0.1l0.1-0.1l0.1-0.2l0.1-0.1l0.1-0.1l0.1-0.1l0-0.1l0.1-0.1l0.1-0.2l0.1-0.2l0.1-0.1l0-0.1
				l0.2-0.6l0.1-0.2l0.1-0.4l0-0.2l0-0.1l0-0.2l0-0.1l-0.1-0.1H50.1z M47.3,24L47.3,24l0.3-0.3l0.3-0.3l0.1-0.1l0.1-0.1l0.1-0.1
				l0.1-0.1l0.1-0.1l0.2-0.1l0.1-0.1l0.3-0.1l0.1,0l0.3-0.1l0.1,0l0.1,0l0.3,0h0.3l0.2,0l0.2,0l0.1,0l0.1,0l0.1-0.1l0-0.1l0.1-0.3
				l0-0.1l0-0.1l0.1-0.2l0-0.1l0-0.1l0.1-0.1l0-0.1l0.1-0.3l0-0.1l0.1-0.4l0.1-0.2l0.1-0.2l0-0.1l0.1-0.1l0-0.1l0.1-0.3l0-0.1
				l0.1-0.2l0.1-0.1l0.1-0.1l0.2-0.1h0.1l0.1,0l0.1,0l0.1,0l0.1,0l0.1,0.1l0,0.1l0,0.1l0,0.1L53,19.5l-0.1,0.1l0,0.1l0,0.1L52.8,20
				l-0.1,0.2l-0.1,0.2l-0.2,0.4L52.5,21l-0.1,0.2l0,0.1l0,0.1l-0.1,0.3l-0.1,0.2l0,0.1l-0.2,0.5l0,0.1l0,0.1l0,0.1l0,0.1l0,0.1
				l0,0.1l0,0.1l0,0.1l0,0.1l0,0.1l0,0.1l0,0.1l0,0.1l0,0.1l0,0.1l0,0.1l0,0.2l-0.1,0.2l0,0.1l0,0.2l0,0.1l0,0.2l0,0.2L51,25.8
				l0,0.1l0,0.1l0,0.2l0,0.2l0,0.1l0,0.1l0,0.1v0.1l0,0.1l0,0.2l0,0.2l0,0.1l0.1,0.1l0.1,0l0.1,0l0.1,0l0.1,0l0.1-0.1l0.3-0.2
				l0.1-0.1l0.1-0.2l0.1-0.2l0.2-0.3l0.1-0.1l0.1-0.1l0.1-0.1l0.1-0.3l0.1-0.1l0.1-0.1l0.1-0.1l0.1-0.2l0.2-0.1l0.2,0l0.1,0.1v0.2
				l-0.1,0.2l-0.1,0.1l-0.1,0.2l-0.1,0.2l-0.1,0.1L53,26.7l-0.1,0.1l-0.2,0.3l-0.1,0.2l-0.1,0.1l-0.1,0.1l-0.1,0.1l-0.1,0.1
				l-0.1,0.1L52,27.9L52,28l-0.1,0.1l-0.1,0.1l-0.1,0.1l-0.1,0.1l-0.1,0.1l-0.4,0.1l-0.1,0h-0.1l-0.1,0l-0.1,0l-0.1,0l-0.1-0.1
				l-0.1-0.1l-0.1-0.1l-0.1-0.1L49.9,28l-0.1-0.1l0-0.1l0-0.1l0-0.4V27l0,0l-0.1,0.1l-0.1,0.1l-0.1,0.2l-0.1,0.1l-0.1,0.1l-0.2,0.2
				l-0.1,0.1l-0.3,0.3l-0.1,0.1l-0.1,0.1l-0.1,0.1l-0.1,0.1l-0.1,0l-0.3,0.1l-0.1,0l-0.1,0l-0.1,0l-0.1,0l-0.1,0l-0.1,0L47,28.5
				l-0.1-0.1l-0.1-0.1l-0.1-0.1l-0.1-0.1L46.4,28l-0.1-0.1l0-0.1l-0.1-0.2l0-0.1l0-0.1l0-0.2v-0.2l0-0.1v-0.1l0-0.1l0-0.2l0-0.2
				l0-0.1l0-0.1l0-0.1l0-0.1l0-0.1l0.1-0.3l0-0.1l0.1-0.2l0.1-0.2l0.1-0.2l0.1-0.1l0.1-0.1l0.1-0.1l0.1-0.2L47.3,24z"/>
			<path class="st1" d="M55.6,23.4l-0.2,0.1l-0.2,0.1l-0.1,0.1l-0.2,0.2L54.8,24l-0.1,0.1l-0.1,0.1l-0.1,0.2l-0.1,0.1l-0.1,0.1
				l-0.1,0.2L54.2,25l-0.1,0.1l0,0.1l0,0.1l0.1,0.1l0.2,0l0.3,0l0.1,0h0.4l0.1,0l0.1,0l0.1-0.1l0.1,0l0.1-0.1l0.1-0.1l0.1-0.1L56,25
				l0.1-0.1l0.1-0.1l0.1-0.1l0.1-0.1l0.1-0.1l0.1-0.3l0-0.1l0-0.1l0-0.1l-0.1-0.1l-0.1-0.1l-0.1-0.1l-0.1-0.1l-0.1,0l-0.1,0l-0.1,0
				L55.6,23.4z M57.3,25.1l-0.1,0.1L57,25.4l-0.2,0.2l-0.1,0.1l-0.1,0.1l-0.1,0l-0.1,0.1l-0.1,0l-0.1,0.1L56,26l-0.1,0l-0.1,0
				l-0.1,0l-0.2,0l-0.2,0l-0.1,0h-0.1l-0.3,0l-0.2,0l-0.1,0L54.1,26H54L53.9,26l0,0.1v0.1l0,0.1v0.2l0,0.1l0,0.1l0.1,0.3l0.1,0.2
				l0.1,0.1l0.1,0.1l0.2,0.1l0.1,0l0.1,0l0.1,0l0.1,0l0.1,0h0.1l0.1,0l0.4-0.1l0.1,0l0.1,0l0.1,0l0.2-0.1l0.2-0.1l0.2-0.2l0.1-0.1
				l0.1-0.1l0.2-0.2l0.2-0.2l0.1-0.1l0.1-0.1l0.1-0.2l0.1-0.1l0.1-0.1l0.1-0.1l0.1-0.1l0.1-0.1l0.1-0.1l0.1-0.1l0.1-0.1l0.1-0.1
				l0.1-0.1h0.1l0.1,0.1l0.1,0.1l0,0.1l-0.1,0.1l-0.1,0.2L58.4,26l-0.1,0.2l-0.1,0.2l-0.1,0.1L58,26.7l0,0.1l-0.1,0.1l-0.1,0.2
				l-0.1,0.1l-0.1,0.1l-0.1,0.1l-0.1,0.1l0,0.1l-0.1,0.1l-0.1,0.1L57,27.9L56.8,28l-0.1,0.1l-0.2,0.1l-0.3,0.2l-0.1,0l-0.1,0l-0.2,0
				l-0.2,0l-0.3,0l-0.2,0l-0.2,0h-0.1l-0.5-0.1l-0.1,0l-0.1,0l-0.1-0.1l-0.1-0.1l-0.2-0.1l-0.1-0.1l-0.1-0.1l-0.1-0.1L53.2,28
				l-0.1-0.1L53,27.8L53,27.7l-0.1-0.1l-0.1-0.1l0-0.1l0-0.1l0-0.1l0-0.1l0-0.1l0-0.4v-0.3l0-0.1v-0.1l0.1-0.4l0-0.1l0-0.1l0-0.1
				l0-0.1l0-0.1l0.1-0.2l0.1-0.2l0.1-0.1l0.1-0.2l0.1-0.1l0.1-0.1l0.1-0.1l0.1-0.1l0.2-0.2l0.2-0.2l0.1-0.1l0.1-0.1l0.1-0.1l0.1-0.1
				l0.1-0.1l0.1-0.1l0.1-0.1l0.2-0.1l0.3-0.1l0.3-0.1l0.2,0h0.3l0.2,0l0.2,0l0.2,0l0.1,0l0.1,0.1l0.1,0.1l0.1,0.1l0.2,0.2l0.1,0.1
				l0.1,0.1l0.1,0.2l0,0.1l0,0.1l0,0.1V24l0,0.2l0,0.1l0,0.2l-0.1,0.2l-0.1,0.1l0,0.1L57.3,25L57.3,25.1z"/>
		</g>
		<path class="st1" d="M22.7,37.7l0-0.1L22.4,37l0-0.1l-0.2-0.5l-0.1-0.1l-0.1-0.1l-0.1,0l-0.1,0l-0.1,0.1l-0.3,0.6L21.4,37
			l-0.2,0.6l0,0.1l0,0.1l0.1,0l0.1,0H22l0.4,0l0.1,0L22.7,37.7L22.7,37.7z M25.7,40.3l0,0.1l-0.1,0.1l-0.1,0l-0.1,0h-0.1l-0.2,0
			l-0.1,0h-0.4l-0.6,0l-0.1,0l-0.1-0.1l0-0.1l-0.3-0.8l-0.1-0.1l-0.1,0l-0.1,0l-0.6,0h-0.1l-0.7,0l-0.6,0h-0.1l-0.1,0h-0.4l-0.1,0
			l-0.1,0l-0.1,0.1l-0.2,0.6l-0.1,0.1L20,40.5l-0.1,0.1l-0.1,0l-0.5,0H19l-0.6,0l-0.1,0l-0.1-0.1l-0.1-0.1l0-0.1l0-0.1l0.1-0.1
			l0.1-0.3l0.1-0.1l0.2-0.5l0.1-0.1l0.2-0.5l0.1-0.1l0.2-0.5l0.1-0.1l0.2-0.5l0.1-0.1l0.3-0.8l0.3-0.6l0.1-0.1l0.2-0.4l0.1-0.1
			l0.2-0.4l0.1-0.1l0.2-0.4l0-0.1L21,34l0.1,0l0.4,0h0.7l0.4,0l0.2,0L23,34l0,0.1l0.1,0.4l0.1,0.1l0.2,0.4l0.1,0.1l0.2,0.5l0.1,0.1
			l0.2,0.5l0.1,0.1l0.2,0.4l0.1,0.1l0.2,0.4l0.1,0.1l0.2,0.5l0.1,0.1l0.3,0.6l0.2,0.4l0.1,0.1l0.2,0.6L25.7,40.3z"/>
		<polygon class="st1" points="31.8,39.8 31.8,40.4 31.8,40.6 31.7,40.6 31.6,40.6 31.5,40.6 31.2,40.6 31,40.6 30.5,40.6 
			29.8,40.6 29.7,40.6 29.1,40.6 29,40.6 28.5,40.6 28.3,40.6 27.8,40.6 27.6,40.6 27.1,40.6 26.9,40.6 26.7,40.6 26.5,40.6 
			26.4,40.6 26.3,40.6 26.3,40.4 26.3,40.1 26.3,40 26.3,39.9 26.6,39.5 26.7,39.4 27,38.9 27.1,38.8 27.3,38.4 27.4,38.3 
			27.7,37.8 27.8,37.7 28.1,37.3 28.1,37.1 28.5,36.6 28.8,36.2 29.2,35.6 29.2,35.5 29.1,35.5 28.6,35.4 28.4,35.4 27.9,35.5 
			27.7,35.5 27.2,35.5 26.9,35.5 26.6,35.5 26.5,35.4 26.4,35.3 26.4,35.2 26.4,35.1 26.4,34.8 26.4,34.6 26.4,34.1 26.5,34 
			26.6,34 27.7,33.9 27.9,33.9 28.4,33.9 28.5,33.9 29,33.9 29.2,33.9 29.7,34 30.3,33.9 30.5,33.9 31.1,34 31.6,33.9 31.7,34 
			31.8,34.1 31.8,34.1 31.8,34.3 31.8,34.4 31.8,34.5 31.7,34.6 31.4,35 31.1,35.5 31,35.6 30.7,36.1 30.6,36.2 30.4,36.6 
			30.3,36.7 30,37.2 29.9,37.3 29.6,37.8 29.3,38.3 29.2,38.4 29,38.8 28.9,38.9 28.9,39 29,39 29.2,39 29.4,39 30.3,38.9 
			30.4,38.9 31,39 31.1,39 31.5,38.9 31.6,38.9 31.7,38.9 31.8,39 31.8,39.1 		"/>
		<path class="st1" d="M37.1,31.8L37.1,31.8l-0.4,0.6l-0.1,0.1l-0.4,0.5L36.1,33L36,33l-0.1,0l-0.1,0l-0.5,0h-0.7l-0.1,0l0,0l0,0v0
			l0.3-0.6l0.1-0.1l0.2-0.5l0.1-0.1l0,0h0.1l0.1,0h0.1l0.2,0h0.1l0.4,0h0.1l0.2,0l0.3,0L37.1,31.8L37.1,31.8z M38.7,37.3l0,0.3
			l0,0.1l0,0.2l0,0.1l0,0.2l0,0.1l0,0.2l0,0.1L38.4,39l0,0.1l-0.1,0.2l-0.1,0.1l-0.1,0.2L38,39.8l-0.1,0.1L37.8,40l-0.2,0.1
			l-0.1,0.1l-0.2,0.1l-0.1,0.1L37,40.5l-0.1,0l-0.2,0.1l-0.1,0l-0.2,0l-0.1,0l-0.3,0h-0.4l-0.2,0l-0.1,0l-0.5-0.1l-0.1,0l-0.1,0
			l-0.1,0l-0.1,0L34,40.5l-0.2-0.1l-0.1-0.1l-0.1-0.1L33.3,40l-0.1-0.1l-0.1-0.2L33,39.6l-0.1-0.2l-0.1-0.1l-0.1-0.1L32.6,39
			l-0.1-0.1l0-0.1l0-0.1l0-0.2l0-0.2l0-0.2l0-0.3l0-0.1l0-0.6v-0.1l0-0.6v-0.1l0-0.6v-0.9l0-0.3v-0.2l0-0.2l0-0.1l0.1-0.1l0.1,0
			l0.3,0l0.3,0h0.1l0.3,0l0.1,0l0.2,0l0.1,0l0.1,0.1l0,0.1l0,0.1v0.1l0,0.4v0.1l0,0.6v0.1l0,0.6v0.1l0,0.6v0.1l0,0.6l0,0.1l0,0.2
			l0,0.1l0.1,0.2l0.1,0.1l0.1,0.2l0.1,0.1l0.1,0.2l0.1,0.1l0.2,0.1l0.1,0l0.2,0h0.1l0.2,0l0.1,0l0.2-0.1l0.1-0.1l0.1-0.1l0.1-0.1
			l0.1-0.2l0.1-0.1l0-0.2l0-0.1l0-0.3l0-0.1l0-0.6v-0.1l0-0.6v-0.2l0-0.6v-0.1l0-0.6l0-0.1l0-0.4v-0.2l0-0.1l0.1-0.1l0.1,0h0.2
			l0.5,0h0.1l0.4,0h0.1l0.1,0l0.1,0l0.1,0.1l0,0.1l0,0.3v0.1l0,0.2v0.1l0,0.6v0.1l0,0.6v0.2l0,0.6L38.7,37.3z"/>
		<polygon class="st1" points="45.7,39.7 45.6,39.8 45.4,40 45.3,40 45.1,40.2 45,40.2 44.8,40.3 44.7,40.4 44.5,40.5 44.4,40.6 
			44.2,40.6 44.1,40.6 43.8,40.7 43.5,40.7 43.3,40.7 43.1,40.7 42.6,40.7 42.5,40.7 42.3,40.7 42.2,40.7 42,40.6 41.9,40.6 
			41.5,40.5 41.3,40.4 41.1,40.4 41,40.3 40.8,40.2 40.7,40.1 40.6,40 40.4,39.8 40.3,39.7 40.2,39.6 40,39.4 40,39.3 39.9,39.2 
			39.8,39.1 39.7,38.9 39.6,38.5 39.5,38.3 39.4,38 39.4,37.9 39.4,37.7 39.4,37.5 39.4,37.4 39.4,37.2 39.5,36.9 39.5,36.8 
			39.5,36.6 39.5,36.4 39.6,36.3 39.6,36.1 39.7,36 39.7,35.8 39.8,35.7 39.8,35.6 39.9,35.4 40,35.3 40.1,35.2 40.2,35 40.3,34.9 
			40.4,34.8 40.5,34.7 40.6,34.6 40.7,34.5 41,34.3 41.1,34.2 41.3,34.2 41.5,34 41.7,34 41.9,33.9 42.2,33.8 42.3,33.8 42.5,33.8 
			42.8,33.8 43,33.8 43.1,33.8 43.3,33.8 43.6,33.8 43.8,33.9 44,33.9 44.3,34 44.4,34 44.6,34.2 44.8,34.2 45,34.4 45.3,34.6 
			45.4,34.7 45.4,34.7 45.5,34.8 45.5,34.9 45.5,34.9 45.5,35 45.4,35.1 45.3,35.2 45.2,35.3 45.1,35.4 45,35.5 44.8,35.7 
			44.7,35.8 44.7,35.8 44.6,35.9 44.5,35.9 44.5,35.9 44.4,35.9 44.3,35.9 44.1,35.7 44,35.7 43.8,35.6 43.7,35.5 43.5,35.5 
			43.3,35.4 43.1,35.4 43,35.4 42.8,35.4 42.6,35.5 42.4,35.5 42.3,35.6 42.1,35.7 42,35.7 41.8,35.8 41.8,35.9 41.7,36 41.6,36.1 
			41.5,36.3 41.4,36.4 41.4,36.5 41.3,36.7 41.3,36.8 41.3,37 41.3,37.2 41.3,37.4 41.3,37.6 41.3,37.8 41.3,38 41.4,38.1 
			41.5,38.3 41.5,38.4 41.7,38.6 41.8,38.7 41.9,38.9 42.1,38.9 42.2,39 42.4,39.1 42.6,39.1 42.7,39.2 43,39.2 43.2,39.2 
			43.3,39.2 43.4,39.1 43.5,39.1 43.7,39 43.9,38.9 44,38.9 44.1,38.8 44.3,38.7 44.4,38.6 44.5,38.5 44.6,38.5 44.7,38.5 
			44.8,38.6 44.9,38.7 44.9,38.8 45,38.9 45.1,39 45.2,39.2 45.5,39.4 45.6,39.6 45.6,39.6 45.7,39.7 		"/>
		<path class="st1" d="M50.5,37.7l0-0.1L50.3,37l0-0.1l-0.2-0.5l0-0.1l-0.1-0.1l-0.1,0l-0.1,0l-0.1,0.1l-0.2,0.6L49.3,37l-0.2,0.6
			l0,0.1l0,0.1l0.1,0l0.1,0h0.6l0.4,0l0.1,0L50.5,37.7L50.5,37.7z M53.6,40.3l0,0.1l-0.1,0.1l-0.1,0l-0.1,0h-0.1l-0.2,0l-0.1,0h-0.4
			l-0.6,0l-0.1,0l-0.1-0.1l0-0.1l-0.3-0.8l-0.1-0.1l-0.1,0l-0.1,0l-0.6,0h-0.1l-0.7,0l-0.6,0H49l-0.1,0h-0.4l-0.1,0l-0.1,0l-0.1,0.1
			L48,40.3L48,40.4l-0.1,0.1l-0.1,0.1l-0.1,0l-0.5,0h-0.1l-0.6,0l-0.1,0l-0.1-0.1L46,40.4l0-0.1l0-0.1l0.1-0.1l0.1-0.3l0.1-0.1
			l0.2-0.5l0.1-0.1l0.2-0.5l0.1-0.1l0.2-0.5l0.1-0.1l0.3-0.5l0.1-0.1l0.3-0.8l0.3-0.6l0.1-0.1l0.2-0.4l0.1-0.1l0.2-0.4l0.1-0.1
			l0.2-0.4l0-0.1l0.1-0.1l0.1,0l0.4,0h0.7l0.4,0l0.2,0l0.1,0.1l0,0.1l0.1,0.4l0.1,0.1l0.2,0.4l0.1,0.1l0.2,0.5l0.1,0.1l0.2,0.5
			l0.1,0.1l0.2,0.4l0.1,0.1l0.2,0.4l0.1,0.1l0.2,0.5l0.1,0.1l0.3,0.6l0.2,0.4l0.1,0.1l0.3,0.6L53.6,40.3z"/>
		<path class="st1" d="M57.8,37l0.2,0l0.1,0l0.1-0.1l0.1-0.1l0.1-0.1l0-0.1l0-0.2l0-0.2l0-0.2l0-0.1l-0.1-0.1l-0.1-0.1l-0.1-0.1
			L58,35.5l-0.2,0l-0.1,0l-0.5,0H57l-0.5,0l-0.1,0l-0.1,0l-0.1,0.1l0,0.1l0,0.2l0,0.1l0,0.2l0,0.2l0,0.5l0,0.1l0,0.1l0.1,0l0.1,0
			l0.5,0h0.1L57.8,37z M60.6,40.5l-0.1,0h-0.6l-0.5,0h-0.1l-0.4,0h-0.1l-0.1,0l-0.1-0.1l-0.3-0.4l-0.1-0.1l-0.3-0.4l-0.1-0.1
			L57.4,39l-0.1-0.1l-0.3-0.4L57,38.4l-0.1,0l-0.1,0l-0.3,0l-0.1,0l-0.1,0.1l0,0.1l0,0.5l0,0.1l0,0.5l0,0.1l0,0.2v0.1l0,0.1l0,0.1
			l0,0l-0.1,0H56l-0.4,0l-0.4,0H55l-0.4,0l-0.1,0l-0.1,0l0-0.1l0-0.1l0-0.1l0-0.2l0-0.1l0-0.5v-0.2l0-0.5l0-0.1l0-0.5v-0.1l0-0.5
			v-0.1l0-0.5v-0.1l0-0.5v-0.1l0-0.5v-0.1l0-0.5v-0.1l0-0.3l0-0.1l0-0.1l0-0.1l0.1-0.1l0.1,0l0.1,0l0.1,0l0.4,0l1.1,0l0.6,0h0.1
			l0.6,0h0.3l0.2,0l0.1,0l0.2,0.1l0.1,0l0.1,0.1l0.1,0.1l0.1,0.1l0.1,0.1l0.2,0.1l0.1,0.1l0.1,0.1l0.1,0.1l0.1,0.2L60,35l0.1,0.2
			l0.1,0.1l0.1,0.1l0,0.1l0,0.1l0,0.1l0,0.2v0.1l0,0.1l0,0.2l0,0.2l0,0.1L60.1,37l-0.1,0.1L60,37.3l-0.1,0.1l-0.1,0.1l-0.1,0.1
			l-0.1,0.1l-0.1,0.1L59.3,38L59.2,38l-0.1,0.1l-0.1,0l-0.1,0l0,0.1l0.3,0.5l0.1,0.1l0.3,0.5l0.1,0.1l0.3,0.5l0.1,0.1l0.3,0.3
			l0.1,0.1L60.6,40.5L60.6,40.5z"/>
		<g>
			<polygon class="st1" points="25.9,49.9 25.9,49.9 25.8,50.1 25.7,50.2 25.7,50.3 25.6,50.4 25.5,50.5 25.4,50.7 25.3,50.8 
				25.3,50.9 25.2,51.1 25.1,51.2 25.1,51.3 25,51.4 24.9,51.5 24.7,51.7 24.7,51.8 24.6,51.8 24.2,52.2 24.1,52.2 24,52.3 
				23.8,52.4 23.6,52.5 23.5,52.5 23.4,52.5 23.2,52.5 23.1,52.5 22.9,52.5 22.8,52.4 22.7,52.4 22.6,52.3 22.5,52.1 22.4,52 
				22.4,51.9 22.3,51.7 22.3,51.5 22.3,51.4 22.3,51.2 22.3,51 22.3,51 22.2,51.1 22.1,51.3 21.9,51.5 21.9,51.6 21.8,51.7 
				21.7,51.8 21.6,51.9 21.5,52 21.5,52.1 21.4,52.1 21.3,52.2 21.1,52.3 21,52.4 20.8,52.5 20.6,52.5 20.4,52.6 20.1,52.6 20,52.6 
				19.8,52.6 19.7,52.5 19.5,52.5 19.4,52.5 19.3,52.4 19.1,52.2 19.1,52.1 19,52 18.9,51.9 18.8,51.6 18.8,51.5 18.8,51.3 
				18.7,51.1 18.7,50.9 18.7,50.7 18.7,50.6 18.8,50.4 18.8,50.3 18.8,50.1 18.9,50 18.9,49.8 19,49.7 19,49.5 19,49.4 19.4,48.7 
				19.5,48.6 19.5,48.5 19.6,48.4 19.7,48.2 19.8,48.1 20,47.9 20.1,47.9 20.1,47.8 20.3,47.6 20.5,47.5 20.6,47.4 20.8,47.2 
				20.9,47.1 21,47.1 21.1,47 21.3,46.9 21.5,46.9 21.6,46.8 21.8,46.7 21.9,46.7 22.1,46.6 22.4,46.6 22.6,46.6 22.7,46.6 23,46.6 
				23.3,46.6 23.6,46.7 23.7,46.7 23.9,46.8 24.5,47 24.6,47.1 24.6,47.2 24.7,47.3 24.8,47.4 24.9,47.5 24.8,47.7 24.6,47.9 
				24.5,48 24.4,48 24.3,47.9 24.2,47.9 24,47.8 23.9,47.7 23.8,47.7 23.7,47.6 23.6,47.6 23.5,47.5 23.2,47.5 23.1,47.4 23,47.4 
				22.7,47.4 22.6,47.4 22.5,47.4 22.3,47.5 21.9,47.6 21.8,47.7 21.6,47.8 21.6,47.8 21.4,47.9 21.3,48 21.2,48.1 21.1,48.1 
				21.1,48.2 21,48.3 20.9,48.4 20.8,48.5 20.7,48.7 20.6,48.8 20.5,48.9 20.4,49.2 20.3,49.4 20.2,49.6 20.1,49.7 20.1,49.8 
				20,50.2 20,50.4 19.9,50.7 19.9,51.1 19.9,51.3 20,51.4 20,51.5 20.1,51.6 20.2,51.7 20.3,51.7 20.5,51.8 20.7,51.8 20.8,51.7 
				21,51.6 21.2,51.4 21.3,51.4 21.4,51.3 21.5,51.2 21.5,51.1 21.6,51 21.7,50.9 21.8,50.7 21.9,50.6 22.1,50.2 22.2,50.1 
				22.3,49.9 22.4,49.8 22.5,49.5 22.6,49.3 22.6,49.2 22.7,49.1 22.7,49 22.7,48.9 22.8,48.7 22.9,48.5 22.9,48.3 23,48.2 23.1,48 
				23.2,48 23.3,47.9 23.5,48 23.6,48 23.8,48.1 23.9,48.2 24,48.2 24,48.4 23.9,48.5 23.9,48.6 23.9,48.7 23.8,49 23.8,49.1 
				23.7,49.2 23.7,49.5 23.6,49.6 23.6,49.7 23.6,49.9 23.5,50 23.5,50.2 23.5,50.4 23.4,50.5 23.4,50.7 23.4,50.9 23.3,51.1 
				23.3,51.3 23.3,51.5 23.4,51.6 23.5,51.7 23.7,51.7 23.9,51.6 24,51.6 24.2,51.4 24.3,51.3 24.5,51.2 24.6,51 24.8,50.8 
				24.9,50.7 24.9,50.6 25,50.5 25.2,50.1 25.2,50 25.3,49.9 25.6,49.4 25.7,49.3 25.9,49.3 26,49.5 26,49.6 26,49.7 			"/>
			<path class="st1" d="M30.4,44.6v0.2l0,0.1l0,0.1l-0.1,0.1l-0.1,0.1l-0.1,0.1L30,45.4l-0.1,0.1l-0.1,0.1l-0.1,0l-0.2,0h-0.3
				L29,45.6l-0.2-0.1l-0.2-0.1l-0.2-0.1l-0.2-0.1l-0.2-0.1h-0.2l-0.2,0.1l-0.2,0.2l-0.2,0.1l-0.2,0l-0.1-0.2l0-0.2l0-0.1l0.1-0.1
				l0.1-0.1l0.1-0.1l0.2-0.2l0.1-0.1l0.1,0l0.1,0l0.2,0l0.2,0l0.1,0l0.1,0.1l0.1,0l0.2,0.1l0.2,0.1l0.1,0.1l0.1,0.1l0.1,0l0.2,0h0.2
				l0.1,0l0.1-0.1l0.1-0.1l0.1-0.1l0.1-0.1l0.2,0L30.4,44.6z M28.4,47.6l-0.1,0.1l-0.1,0.1l-0.1,0.1L28,47.8l-0.1,0.1l-0.2,0.2
				l-0.1,0.1l-0.1,0.1l-0.1,0.1l-0.2,0.2l-0.1,0.1l-0.2,0.2L26.8,49l-0.1,0.1l-0.2,0.3l-0.2,0.5l0,0.2l-0.1,0.2l-0.1,0.2l-0.1,0.4
				l-0.1,0.2L26,51.3l0,0.2l0,0.1l0,0.2l0,0.2l0,0.1l0,0.1l0,0.1l0,0.1l-0.1,0.1l-0.1,0l-0.1,0l-0.2,0l-0.2,0l-0.2,0l-0.1-0.1
				l-0.1-0.1l0-0.2l0-0.1l0-0.2l0-0.2l0-0.1l0-0.1l0-0.1l0-0.1l0-0.1l0-0.1l0-0.1l0-0.1l0-0.1l0-0.1l0.1-0.2l0-0.1l0-0.1l0-0.1
				l0-0.1l0-0.1l0-0.2l0.1-0.2l0.1-0.3l0-0.1l0-0.1l0-0.1l0-0.1l0-0.1l0-0.1l0-0.1l0-0.2l0-0.2l0-0.1l0.1-0.3l0-0.1l0-0.1l0.1-0.2
				l0.1-0.1l0.2-0.1l0.2,0l0.2,0l0.2,0.1l0.1,0.1l0,0.2l0,0.1l0,0.1l0,0.1l0,0.1l0,0.1l0,0.1l0,0.1l0,0.1l0,0.1l0,0l0.1-0.1L27,48
				l0.1-0.1l0.2-0.2l0.1-0.1l0.2-0.2l0.1-0.1l0.2-0.2l0.3-0.2l0.1-0.1l0.1-0.1l0.1-0.1l0.1,0l0.1,0l0.2,0l0.2,0h0.3l0.2,0l0.2,0
				l0.1,0.1l0.1,0.1l0.1,0.1l0.1,0.1l0.1,0.1l0.1,0.1l0,0.1l0,0.2l0,0.2v0.3l0,0.1v0.1l0,0.1l0,0.1l0,0.1l0,0.1l0,0.1l0,0.2
				l-0.1,0.2L30,49.4l0,0.1l0,0.2l-0.1,0.2l-0.1,0.2l-0.1,0.2l0,0.1l0,0.1l0,0.1l0,0.1l0,0.1l-0.1,0.4l0,0.1v0.2l0.1,0.1l0.1,0.1
				l0.1,0l0.1,0l0.1-0.1l0.1-0.1l0.1-0.1l0.1-0.1l0.2-0.2l0.1-0.1l0.1-0.1l0.1-0.1l0.1-0.1l0.1-0.1l0.1-0.1l0.1-0.2l0.1-0.1l0-0.1
				l0.1-0.1l0.1-0.1l0.1-0.2l0.1-0.1l0-0.1l0-0.1l0.1-0.1l0.1-0.1l0.2,0l0.1,0.1v0.1l0,0.1l-0.1,0.1L32,50L32,50.1l-0.1,0.1
				l-0.1,0.1l-0.1,0.1l0,0.1l-0.1,0.2l0,0.1L31.5,51l-0.1,0.2l-0.1,0.1l-0.1,0.1l-0.1,0.1L31,51.6l-0.1,0.1l-0.2,0.2L30.7,52
				l-0.2,0.2l-0.1,0.1l-0.1,0.1l-0.1,0.1L30,52.5l-0.1,0l-0.1,0l-0.1,0l-0.1,0l-0.1,0h-0.1l-0.1,0l-0.1,0l-0.1,0l-0.1,0l-0.1-0.1
				l-0.1-0.1l-0.1-0.1l-0.1-0.1l0-0.1l0-0.1l0-0.1v-0.3l0-0.2l0-0.1l0-0.2l0.1-0.5l0-0.2l0.1-0.2l0.1-0.2l0.1-0.2l0-0.1l0.1-0.2
				l0.1-0.2l0-0.2l0.1-0.2l0.1-0.2l0-0.1l0.1-0.3l0-0.1l0-0.1L29,47.7l-0.1-0.1l-0.1,0l-0.1,0l-0.1,0L28.4,47.6z"/>
			<polygon class="st1" points="38.1,49.9 38.1,49.9 38,50.1 38,50.2 37.9,50.3 37.8,50.4 37.8,50.5 37.6,50.7 37.6,50.8 37.5,50.9 
				37.5,51.1 37.4,51.2 37.3,51.3 37.2,51.4 37.1,51.5 37,51.7 36.9,51.8 36.8,51.8 36.4,52.2 36.3,52.2 36.2,52.3 36,52.4 
				35.9,52.5 35.7,52.5 35.6,52.5 35.5,52.5 35.3,52.5 35.1,52.5 35,52.4 34.9,52.4 34.8,52.3 34.7,52.1 34.6,52 34.6,51.9 
				34.6,51.7 34.5,51.5 34.5,51.4 34.6,51.2 34.6,51 34.5,51 34.5,51.1 34.3,51.3 34.2,51.5 34.1,51.6 34,51.7 33.9,51.8 33.9,51.9 
				33.8,52 33.7,52.1 33.6,52.1 33.5,52.2 33.4,52.3 33.2,52.4 33,52.5 32.8,52.5 32.6,52.6 32.4,52.6 32.2,52.6 32.1,52.6 
				31.9,52.5 31.8,52.5 31.7,52.5 31.6,52.4 31.4,52.2 31.3,52.1 31.2,52 31.2,51.9 31.1,51.6 31,51.5 31,51.3 31,51.1 31,50.9 
				31,50.7 31,50.6 31,50.4 31,50.3 31.1,50.1 31.1,50 31.2,49.8 31.2,49.7 31.2,49.5 31.3,49.4 31.6,48.7 31.7,48.6 31.8,48.5 
				31.8,48.4 32,48.2 32.1,48.1 32.2,47.9 32.3,47.9 32.4,47.8 32.6,47.6 32.7,47.5 32.9,47.4 33.1,47.2 33.2,47.1 33.3,47.1 
				33.4,47 33.6,46.9 33.7,46.9 33.8,46.8 34,46.7 34.2,46.7 34.3,46.6 34.7,46.6 34.8,46.6 35,46.6 35.2,46.6 35.6,46.6 35.9,46.7 
				36,46.7 36.1,46.8 36.7,47 36.8,47.1 36.9,47.2 37,47.3 37.1,47.4 37.1,47.5 37,47.7 36.9,47.9 36.7,48 36.6,48 36.5,47.9 
				36.4,47.9 36.3,47.8 36.2,47.7 36.1,47.7 36,47.6 35.8,47.6 35.7,47.5 35.5,47.5 35.3,47.4 35.2,47.4 34.9,47.4 34.8,47.4 
				34.7,47.4 34.5,47.5 34.2,47.6 34,47.7 33.9,47.8 33.8,47.8 33.7,47.9 33.6,48 33.5,48.1 33.4,48.1 33.3,48.2 33.2,48.3 
				33.1,48.4 33.1,48.5 32.9,48.7 32.8,48.8 32.8,48.9 32.6,49.2 32.5,49.4 32.4,49.6 32.4,49.7 32.3,49.8 32.2,50.2 32.2,50.4 
				32.2,50.7 32.2,51.1 32.2,51.3 32.2,51.4 32.3,51.5 32.3,51.6 32.4,51.7 32.6,51.7 32.7,51.8 32.9,51.8 33,51.7 33.2,51.6 
				33.4,51.4 33.5,51.4 33.6,51.3 33.7,51.2 33.8,51.1 33.9,51 33.9,50.9 34.1,50.7 34.2,50.6 34.4,50.2 34.4,50.1 34.5,49.9 
				34.6,49.8 34.8,49.5 34.8,49.3 34.8,49.2 34.9,49.1 34.9,49 35,48.9 35,48.7 35.1,48.5 35.2,48.3 35.2,48.2 35.3,48 35.4,48 
				35.6,47.9 35.7,48 35.8,48 36,48.1 36.2,48.2 36.2,48.2 36.2,48.4 36.2,48.5 36.2,48.6 36.1,48.7 36.1,49 36,49.1 36,49.2 
				35.9,49.5 35.9,49.6 35.9,49.7 35.8,49.9 35.8,50 35.7,50.2 35.7,50.4 35.7,50.5 35.6,50.7 35.6,50.9 35.6,51.1 35.5,51.3 
				35.6,51.5 35.6,51.6 35.8,51.7 36,51.7 36.1,51.6 36.3,51.6 36.5,51.4 36.6,51.3 36.7,51.2 36.9,51 37,50.8 37.1,50.7 37.2,50.6 
				37.2,50.5 37.4,50.1 37.5,50 37.6,49.9 37.8,49.4 38,49.3 38.1,49.3 38.2,49.5 38.2,49.6 38.2,49.7 			"/>
			<path class="st1" d="M41.1,47.5l-0.3,0h-0.1l-0.1,0l-0.1,0l-0.1,0l-0.1,0.1l-0.1,0L40,47.8l-0.1,0.1l-0.1,0.1L39.7,48l-0.1,0.1
				l-0.2,0.2l-0.1,0.1l-0.1,0.1l-0.2,0.2L39,48.7l-0.1,0.1l-0.2,0.3l-0.1,0.1l0,0.1l0,0.1l0,0.1l-0.1,0.1l-0.1,0.3l0,0.1l0,0.2
				l0,0.2l0,0.1l0,0.2l0,0.2l0,0.2l0,0.1l0.1,0.1l0.1,0.1l0.1,0.1l0.1,0.1l0.2,0l0.2,0l0.1-0.1l0.1,0l0.1-0.1l0.1-0.1l0.2-0.2
				l0.1-0.1l0.1-0.1L40,51l0.1-0.1l0.1-0.1l0.1-0.1l0.1-0.2l0.1-0.1l0.1-0.1l0.1-0.1l0-0.1l0.1-0.1l0.1-0.2l0.1-0.2l0.1-0.1l0-0.1
				l0.2-0.6l0.1-0.2l0.1-0.4l0-0.2l0-0.1l0-0.2l0-0.1l-0.1-0.1H41.1z M38.3,48l0.1-0.1l0.2-0.2l0.3-0.2l0.1-0.1l0.1-0.1l0.1-0.1
				l0.1-0.1l0.1-0.1l0.2-0.1l0.1-0.1l0.2-0.1l0.1,0l0.2-0.1l0.1,0l0.1,0l0.3,0h0.3l0.2,0l0.1,0l0.1,0l0.1,0l0.1-0.1l0-0.1l0.1-0.3
				l0-0.1l0-0.1l0.1-0.2l0-0.1l0-0.1l0.1-0.1l0-0.1l0.1-0.2l0-0.1l0.1-0.4l0.1-0.2l0.1-0.2l0-0.1l0.1-0.1l0-0.1l0.1-0.3l0-0.1
				l0.1-0.2l0.1-0.1l0.1-0.1l0.2-0.1h0.1l0.1,0l0.1,0l0.1,0l0.1,0l0.1,0.1l0,0.1l0,0.1l0,0.1L44,43.6l-0.1,0.1l0,0.1l0,0.1l-0.1,0.2
				l-0.1,0.2l-0.1,0.2l-0.2,0.4L43.4,45l-0.1,0.2l0,0.1l0,0.1l-0.1,0.3l-0.1,0.2l0,0.1l-0.2,0.5l0,0.1l0,0.1l0,0.1l0,0.1l0,0.1
				l0,0.1l0,0.1l0,0.1l0,0.1l0,0.1l0,0.1l0,0.1l0,0.1l0,0.1l0,0.1l0,0.1l0,0.2l-0.1,0.2l0,0.1l0,0.2l0,0.1l0,0.2l0,0.2L42,49.9
				l0,0.1l0,0.1l0,0.2l0,0.2l0,0.1l0,0.1l0,0.1V51l0,0.1l0,0.2l0,0.2l0,0.1l0.1,0.1l0.1,0l0.1,0l0.1,0l0.1,0l0.1-0.1l0.3-0.2
				l0.1-0.1l0.1-0.2l0.1-0.2l0.2-0.3l0.1-0.1l0.1-0.1l0.1-0.1l0.1-0.3l0.1-0.1l0.1-0.1l0.1-0.1l0.1-0.2l0.2-0.1l0.2,0l0.1,0.1v0.2
				l-0.1,0.2l-0.1,0.1l-0.1,0.2l-0.1,0.2l-0.1,0.1l-0.2,0.3l-0.1,0.1l-0.2,0.3l-0.1,0.2l-0.1,0.1l-0.1,0.1l-0.1,0.1l-0.1,0.1
				l-0.1,0.1L43,51.9L43,52l-0.1,0.1l-0.1,0.1l-0.1,0.1l-0.1,0.1l-0.1,0.1l-0.4,0.1l-0.1,0h-0.1l-0.1,0l-0.1,0l-0.1,0l-0.1-0.1
				l-0.1-0.1l-0.1-0.1l-0.1-0.1L40.9,52l-0.1-0.1l0-0.1l0-0.1l0-0.4V51l0,0l-0.1,0.1l-0.1,0.1l-0.1,0.2l-0.1,0.1l-0.1,0.1l-0.2,0.2
				l-0.1,0.1l-0.3,0.2l-0.1,0.1l-0.1,0.1l-0.1,0.1l-0.1,0.1l-0.1,0l-0.3,0.1l-0.1,0l-0.1,0l-0.1,0l-0.1,0l-0.1,0l-0.1,0L38,52.5
				l-0.1-0.1l-0.1-0.1l-0.1-0.1l-0.1-0.1L37.4,52l-0.1-0.1l0-0.1l-0.1-0.2l0-0.1l0-0.1l0-0.2V51l0-0.1v-0.1l0-0.1l0-0.2l0-0.2l0-0.1
				l0-0.1l0-0.1l0-0.1l0-0.1l0.1-0.3l0-0.1l0.1-0.2l0.1-0.2l0.1-0.2l0.1-0.1l0.1-0.1l0.1-0.1L38.3,48L38.3,48z"/>
			<path class="st1" d="M44.7,45.2l0.1-0.1l0.1-0.1l0.1-0.1l0.1,0l0.1,0h0.1l0.1,0l0.1,0.1l0.1,0.1l0.1,0.1l0.1,0.1l0,0.1l0,0.1v0.1
				l0,0.1l-0.1,0.1L45.7,46l-0.1,0.1l-0.1,0.1l-0.1,0.1l-0.1,0l-0.1,0l-0.1,0l-0.2-0.1L44.7,46l-0.1-0.1l0-0.1l0-0.1l0-0.1l0-0.1
				L44.7,45.2z M46.9,49.5v0.1l0,0.1L46.7,50l-0.1,0.2l-0.1,0.1l-0.1,0.1l-0.1,0.1l0,0.1l-0.1,0.1l-0.1,0.1L46.2,51l-0.1,0.1
				L46,51.2l-0.1,0.2l-0.2,0.3l-0.2,0.2L45.3,52l-0.1,0.1l-0.1,0.1l-0.3,0.2l-0.1,0.1l-0.1,0.1l-0.1,0l-0.1,0l-0.2,0.1h-0.2l-0.2,0
				l-0.1,0l-0.1,0l-0.1-0.1l-0.1-0.1l-0.1-0.1l-0.1-0.1l-0.1-0.1l0-0.1l0-0.1l0-0.1v-0.1l0-0.2l0-0.1l0-0.1l0.1-0.3l0-0.1l0-0.1
				l0-0.1l0-0.1l0.1-0.4l0-0.1l0-0.1l0-0.1l0-0.1l0-0.1l0.1-0.2l0-0.2l0-0.2l0.1-0.3l0-0.1l0-0.1l0-0.1L44,48l0-0.1l0.1-0.4l0-0.1
				l0-0.2l0.1-0.2l0-0.1l0.1-0.1l0.1-0.1l0.1-0.1l0.1,0l0.1,0l0.3,0l0.2,0.1l0.1,0.1v0.1l0,0.1l0,0.2l0,0.2l-0.1,0.2l0,0.1l0,0.1
				l0,0.1l0,0.2l-0.1,0.4l0,0.1L44.8,49l-0.1,0.3l0,0.1l0,0.1l0,0.1l-0.1,0.2l0,0.1l-0.1,0.3l-0.1,0.2l0,0.1l0,0.2l0,0.2l0,0.2
				l0,0.2l0.1,0.2l0.2,0l0.1,0l0.1-0.1l0.1-0.1l0.1-0.1l0.5-0.5l0.1-0.1l0.1-0.1l0.1-0.1l0.1-0.2l0.1-0.1l0.1-0.1l0.1-0.1l0.1-0.1
				l0.1-0.1l0.1-0.2l0.2-0.3l0.1-0.1l0.1-0.1l0.2,0L46.9,49.5z"/>
			<path class="st1" d="M49.8,47.5l-0.3,0h-0.1l-0.1,0l-0.1,0l-0.1,0l-0.1,0.1l-0.1,0l-0.1,0.1l-0.1,0.1l-0.1,0.1L48.3,48l-0.1,0.1
				L48,48.3L48,48.3l-0.1,0.1l-0.2,0.2l-0.1,0.1l-0.1,0.1l-0.2,0.3l-0.1,0.1l0,0.1l0,0.1l0,0.1l-0.1,0.1l-0.1,0.3l0,0.1l0,0.2l0,0.2
				l0,0.1l0,0.2l0,0.2l0,0.2l0,0.1l0.1,0.1l0.1,0.1l0.1,0.1l0.1,0.1l0.2,0l0.2,0l0.1-0.1l0.1,0l0.1-0.1l0.1-0.1l0.2-0.2l0.1-0.1
				l0.1-0.1l0.1-0.1l0.1-0.1l0.1-0.1l0.1-0.1l0.1-0.2l0.1-0.1l0.1-0.1l0.1-0.1l0-0.1l0.1-0.1l0.1-0.2l0.1-0.2l0.1-0.1l0-0.1l0.2-0.6
				l0.1-0.2l0.1-0.4l0-0.2l0-0.1l0-0.2l0-0.1l-0.1-0.1H49.8z M46.9,48l0.1-0.1l0.2-0.2l0.3-0.2l0.1-0.1l0.1-0.1l0.1-0.1l0.1-0.1
				l0.1-0.1l0.2-0.1l0.1-0.1l0.2-0.1l0.1,0l0.3-0.1l0.1,0l0.1,0l0.3,0h0.3l0.2,0l0.1,0l0.1,0l0.1,0l0.1-0.1l0-0.1l0.1-0.3l0-0.1
				l0-0.1l0.1-0.2l0-0.1l0-0.1l0.1-0.1l0-0.1l0.1-0.2l0-0.1l0.1-0.4l0.1-0.2l0.1-0.2l0-0.1l0.1-0.1l0-0.1l0.1-0.3l0-0.1l0.1-0.2
				l0.1-0.1l0.1-0.1l0.1-0.1h0.1l0.1,0l0.1,0l0.1,0l0.1,0l0.1,0.1l0,0.1l0,0.1l0,0.1l-0.1,0.1l-0.1,0.1l0,0.1l0,0.1l-0.1,0.2
				l-0.1,0.2l-0.1,0.2l-0.2,0.4L52.1,45L52,45.2l0,0.1l0,0.1l-0.1,0.3l-0.1,0.2l0,0.1l-0.2,0.5l0,0.1l0,0.1l0,0.1l0,0.1l0,0.1l0,0.1
				l0,0.1l0,0.1l0,0.1l0,0.1l0,0.1l0,0.1l0,0.1l0,0.1l0,0.1l0,0.1l0,0.2l-0.1,0.2l0,0.1l0,0.2l0,0.1l0,0.2l0,0.2l-0.1,0.4l0,0.1
				l0,0.1l0,0.2l0,0.2l0,0.1l0,0.1l0,0.1V51l0,0.1l0,0.2l0,0.2l0,0.1l0.1,0.1l0.1,0l0.1,0l0.1,0l0.1,0l0.1-0.1l0.2-0.2l0.1-0.1
				l0.1-0.2l0.1-0.2l0.2-0.3l0.1-0.1l0.1-0.1l0.1-0.1l0.1-0.3l0.1-0.1l0.1-0.1l0.1-0.1l0.1-0.2l0.2-0.1l0.2,0l0.1,0.1v0.2L53,49.8
				L53,49.9l-0.1,0.2l-0.1,0.2l-0.1,0.1l-0.2,0.3l-0.1,0.1l-0.2,0.3l-0.1,0.2l-0.1,0.1L52,51.5l-0.1,0.1l-0.1,0.1l-0.1,0.1l-0.1,0.1
				L51.6,52l-0.1,0.1l-0.1,0.1l-0.1,0.1l-0.1,0.1l-0.1,0.1l-0.4,0.1l-0.1,0h-0.1l-0.1,0l-0.1,0l-0.1,0L50,52.4l-0.1-0.1l-0.1-0.1
				l-0.1-0.1L49.6,52l-0.1-0.1l0-0.1l0-0.1l0-0.4V51l0,0l-0.1,0.1l-0.1,0.1l-0.1,0.2l-0.1,0.1L49,51.6l-0.2,0.2l-0.1,0.1l-0.3,0.2
				l-0.1,0.1l-0.1,0.1l-0.1,0.1l-0.1,0.1l-0.1,0l-0.3,0.1l-0.1,0l-0.1,0l-0.1,0l-0.1,0l-0.1,0l-0.1,0l-0.1-0.1l-0.1-0.1l-0.1-0.1
				l-0.1-0.1l-0.1-0.1L46.1,52L46,51.9l0-0.1l-0.1-0.2l0-0.1l0-0.1l0-0.2V51l0-0.1v-0.1l0-0.1l0-0.2l0-0.2l0-0.1l0-0.1l0-0.1l0-0.1
				l0-0.1l0.1-0.3l0-0.1l0.1-0.2l0.1-0.2l0.1-0.2l0.1-0.1l0.1-0.1l0.1-0.1L46.9,48L46.9,48z"/>
			<polygon class="st1" points="59.2,49.9 59.2,49.9 59.1,50.1 59,50.2 59,50.3 58.9,50.4 58.9,50.5 58.7,50.7 58.7,50.8 58.6,50.9 
				58.5,51.1 58.5,51.2 58.4,51.3 58.3,51.4 58.2,51.5 58.1,51.7 58,51.8 57.9,51.8 57.5,52.2 57.4,52.2 57.3,52.3 57.1,52.4 
				57,52.5 56.8,52.5 56.7,52.5 56.6,52.5 56.4,52.5 56.2,52.5 56.1,52.4 56,52.4 55.9,52.3 55.8,52.1 55.7,52 55.7,51.9 55.6,51.7 
				55.6,51.5 55.6,51.4 55.6,51.2 55.7,51 55.6,51 55.5,51.1 55.4,51.3 55.3,51.5 55.2,51.6 55.1,51.7 55,51.8 55,51.9 54.9,52 
				54.8,52.1 54.7,52.1 54.6,52.2 54.5,52.3 54.3,52.4 54.1,52.5 53.9,52.5 53.7,52.6 53.5,52.6 53.3,52.6 53.2,52.6 53,52.5 
				52.9,52.5 52.8,52.5 52.7,52.4 52.5,52.2 52.4,52.1 52.3,52 52.2,51.9 52.2,51.6 52.1,51.5 52.1,51.3 52.1,51.1 52.1,50.9 
				52.1,50.7 52.1,50.6 52.1,50.4 52.1,50.3 52.2,50.1 52.2,50 52.2,49.8 52.3,49.7 52.3,49.5 52.4,49.4 52.7,48.7 52.8,48.6 
				52.9,48.5 52.9,48.4 53.1,48.2 53.1,48.1 53.3,47.9 53.4,47.9 53.5,47.8 53.7,47.6 53.8,47.5 53.9,47.4 54.1,47.2 54.3,47.1 
				54.4,47.1 54.5,47 54.6,46.9 54.8,46.9 54.9,46.8 55.1,46.7 55.3,46.7 55.4,46.6 55.8,46.6 55.9,46.6 56,46.6 56.3,46.6 
				56.6,46.6 56.9,46.7 57.1,46.7 57.2,46.8 57.8,47 57.9,47.1 58,47.2 58.1,47.3 58.2,47.4 58.2,47.5 58.1,47.7 58,47.9 57.8,48 
				57.7,48 57.6,47.9 57.5,47.9 57.4,47.8 57.3,47.7 57.2,47.7 57,47.6 56.9,47.6 56.8,47.5 56.6,47.5 56.4,47.4 56.3,47.4 56,47.4 
				55.9,47.4 55.8,47.4 55.6,47.5 55.3,47.6 55.1,47.7 55,47.8 54.9,47.8 54.8,47.9 54.7,48 54.6,48.1 54.5,48.1 54.4,48.2 
				54.3,48.3 54.2,48.4 54.2,48.5 54,48.7 53.9,48.8 53.9,48.9 53.7,49.2 53.6,49.4 53.5,49.6 53.5,49.7 53.4,49.8 53.3,50.2 
				53.3,50.4 53.3,50.7 53.3,51.1 53.3,51.3 53.3,51.4 53.4,51.5 53.4,51.6 53.5,51.7 53.6,51.7 53.8,51.8 54,51.8 54.1,51.7 
				54.3,51.6 54.5,51.4 54.6,51.4 54.7,51.3 54.8,51.2 54.9,51.1 55,51 55,50.9 55.2,50.7 55.2,50.6 55.4,50.2 55.5,50.1 55.6,49.9 
				55.7,49.8 55.9,49.5 55.9,49.3 55.9,49.2 56,49.1 56,49 56.1,48.9 56.1,48.7 56.2,48.5 56.3,48.3 56.3,48.2 56.4,48 56.5,48 
				56.7,47.9 56.8,48 56.9,48 57.1,48.1 57.2,48.2 57.3,48.2 57.3,48.4 57.3,48.5 57.2,48.6 57.2,48.7 57.1,49 57.1,49.1 57.1,49.2 
				57,49.5 57,49.6 56.9,49.7 56.9,49.9 56.9,50 56.8,50.2 56.8,50.4 56.8,50.5 56.7,50.7 56.7,50.9 56.6,51.1 56.6,51.3 56.6,51.5 
				56.7,51.6 56.8,51.7 57.1,51.7 57.2,51.6 57.4,51.6 57.5,51.4 57.6,51.3 57.8,51.2 58,51 58.1,50.8 58.2,50.7 58.3,50.6 
				58.3,50.5 58.5,50.1 58.6,50 58.6,49.9 58.9,49.4 59,49.3 59.2,49.3 59.3,49.5 59.3,49.6 59.3,49.7 			"/>
		</g>
	</g>
</g>
</svg>
