<?xml version="1.0" encoding="utf-8"?>
<!-- Generator: Adobe Illustrator 21.0.0, SVG Export Plug-In . SVG Version: 6.00 Build 0)  -->
<svg version="1.1" id="Capa_1" xmlns="http://www.w3.org/2000/svg" xmlns:xlink="http://www.w3.org/1999/xlink" x="0px" y="0px"
	 viewBox="0 0 79 72.1" style="enable-background:new 0 0 79 72.1;" xml:space="preserve">
<style type="text/css">
	.st0{fill:#5FA03C;}
	.st1{fill:#FFFFFF;}
	.st2{fill:#F2F2F2;}
	.st3{fill:#369443;}
	.st4{fill:#8EBB37;}
	.st5{fill:#222221;}
	.st6{fill:#94BB1E;}
	.st7{fill:none;stroke:#222221;stroke-width:2.346;stroke-linecap:round;stroke-linejoin:round;stroke-miterlimit:10;}
	.st8{fill:#D9802E;}
	.st9{fill:#F0C830;}
	.st10{opacity:0.68;clip-path:url(#SVGID_2_);}
	.st11{clip-path:url(#SVGID_4_);}
	.st12{clip-path:url(#SVGID_6_);fill:url(#SVGID_7_);}
	.st13{opacity:0.2;clip-path:url(#SVGID_2_);}
	.st14{clip-path:url(#SVGID_9_);}
	.st15{clip-path:url(#SVGID_11_);}
	.st16{filter:url(#Adobe_OpacityMaskFilter);}
	.st17{clip-path:url(#SVGID_13_);}
	.st18{enable-background:new    ;}
	.st19{clip-path:url(#SVGID_13_);fill:url(#SVGID_15_);}
	.st20{clip-path:url(#SVGID_13_);mask:url(#SVGID_14_);}
	.st21{clip-path:url(#SVGID_17_);}
	.st22{clip-path:url(#SVGID_19_);fill:url(#SVGID_20_);}
	.st23{opacity:0.68;clip-path:url(#SVGID_22_);}
	.st24{opacity:0.57;clip-path:url(#SVGID_22_);}
	.st25{clip-path:url(#SVGID_26_);}
	.st26{clip-path:url(#SVGID_28_);fill:#CED0D1;}
	.st27{clip-path:url(#SVGID_22_);fill:#4070B6;}
	.st28{clip-path:url(#SVGID_22_);fill:#DD902F;}
	.st29{fill:#C91862;}
	.st30{fill:none;stroke:#272425;stroke-width:7.564600e-02;stroke-miterlimit:10;}
	.st31{fill:#9CC34D;}
	.st32{fill:#B88844;}
	.st33{fill:#78B552;}
	.st34{fill:#589B52;}
	.st35{fill:#5CA257;}
	
		.st36{fill:none;stroke:#FFFFFF;stroke-width:2.3815;stroke-linecap:round;stroke-linejoin:round;stroke-miterlimit:10;stroke-dasharray:0,4.6879;}
	.st37{fill:none;stroke:#FFFFFF;stroke-width:2.3815;stroke-linecap:round;stroke-linejoin:round;stroke-miterlimit:10;}
	.st38{fill:#AFCB49;}
	.st39{fill:#CE4E80;}
	.st40{fill:#E35100;}
	.st41{fill:#4DAEA9;}
	.st42{fill:#B45696;}
	.st43{fill:#E1DF00;}
	.st44{fill:#76B452;}
	.st45{fill:#E4A612;}
	.st46{fill:#474747;}
	.st47{fill:#B2C633;}
	.st48{fill:#272425;}
	.st49{fill:#5D9E3B;}
	.st50{fill:#F3D33F;}
	.st51{fill:#526D59;}
	.st52{fill:#E2D1B1;}
	.st53{fill:#75398E;}
	.st54{fill:#EBB146;}
	.st55{fill:#F1F1F1;}
	.st56{fill:none;stroke:#5FA03C;stroke-width:1.2441;stroke-linecap:round;stroke-linejoin:round;stroke-miterlimit:10;}
	.st57{fill:none;stroke:#5FA03C;stroke-width:1.6816;stroke-linecap:round;stroke-linejoin:round;stroke-miterlimit:10;}
</style>
<g>
	<circle class="st0" cx="39.5" cy="36.1" r="35.1"/>
	<g>
		<path class="st1" d="M27.4,32.3c-0.8-0.5-2-0.7-3-0.4c-1.8,0.6-2.9,2.3-1.8,6.3c0.5-1.4,1.8-2.5,2.8-2.8c2.9-0.9,5.5,0.1,6.6,3.6
			c1.1,3.5-0.8,6.4-3.8,7.3c-3.2,1-7.1-0.5-8.9-6.4c-1.9-6.3,0.4-10.1,4-11.2c2.2-0.7,4.1-0.3,5.5,0.5L27.4,32.3z M28.4,40.1
			c-0.5-1.8-1.7-2.1-2.9-1.8c-0.8,0.3-1.6,1-2,2.4c1.2,2.5,2.5,3,3.7,2.7C28.3,43.1,29,42,28.4,40.1z"/>
		<path class="st1" d="M36.8,35.9l-5.7-5.1l4.2-1.3l1.8,1.8c0.6,0.6,1.2,1.3,1.8,1.9l0.1,0c0-0.8,0.1-1.7,0.2-2.5l0.2-2.4l4-1.2
			l-1.7,7.9l6,5.1l-4.2,1.3l-1.9-1.8c-0.6-0.6-1.3-1.3-1.9-1.9l-0.1,0c-0.1,0.8-0.2,1.7-0.3,2.6l-0.4,2.5l-4,1.2L36.8,35.9z"/>
		<path class="st1" d="M49,34.6c1.3,0.6,2.7,1,4.1,0.5c1.7-0.5,2.5-1.8,2-3.5c-0.5-1.7-1.9-2.3-3.4-1.8c-1,0.3-1.4,0.7-2.2,1.6
			L47.4,31l-2.1-8.6l9.5-2.9l1,3.3l-6.1,1.9l0.7,3.2c0.5-0.5,1.1-0.8,1.8-1c2.9-0.9,5.8,0,6.9,3.6c1.1,3.7-1.1,6.7-4.3,7.8
			c-2.7,0.8-4.9,0.4-6.6-0.5L49,34.6z"/>
	</g>
</g>
</svg>
