<?xml version="1.0" encoding="utf-8"?>
<!-- Generator: Adobe Illustrator 21.0.0, SVG Export Plug-In . SVG Version: 6.00 Build 0)  -->
<svg version="1.1" id="Capa_1" xmlns="http://www.w3.org/2000/svg" xmlns:xlink="http://www.w3.org/1999/xlink" x="0px" y="0px"
	 viewBox="0 0 79 72.1" style="enable-background:new 0 0 79 72.1;" xml:space="preserve">
<style type="text/css">
	.st0{fill:#5FA03C;}
	.st1{fill:#FFFFFF;}
	.st2{fill:#F2F2F2;}
	.st3{fill:#369443;}
	.st4{fill:#8EBB37;}
	.st5{fill:#222221;}
	.st6{fill:#94BB1E;}
	.st7{fill:none;stroke:#222221;stroke-width:2.346;stroke-linecap:round;stroke-linejoin:round;stroke-miterlimit:10;}
	.st8{fill:#D9802E;}
	.st9{fill:#F0C830;}
	.st10{opacity:0.68;clip-path:url(#SVGID_2_);}
	.st11{clip-path:url(#SVGID_4_);}
	.st12{clip-path:url(#SVGID_6_);fill:url(#SVGID_7_);}
	.st13{opacity:0.2;clip-path:url(#SVGID_2_);}
	.st14{clip-path:url(#SVGID_9_);}
	.st15{clip-path:url(#SVGID_11_);}
	.st16{filter:url(#Adobe_OpacityMaskFilter);}
	.st17{clip-path:url(#SVGID_13_);}
	.st18{enable-background:new    ;}
	.st19{clip-path:url(#SVGID_13_);fill:url(#SVGID_15_);}
	.st20{clip-path:url(#SVGID_13_);mask:url(#SVGID_14_);}
	.st21{clip-path:url(#SVGID_17_);}
	.st22{clip-path:url(#SVGID_19_);fill:url(#SVGID_20_);}
	.st23{opacity:0.68;clip-path:url(#SVGID_22_);}
	.st24{opacity:0.57;clip-path:url(#SVGID_22_);}
	.st25{clip-path:url(#SVGID_26_);}
	.st26{clip-path:url(#SVGID_28_);fill:#CED0D1;}
	.st27{clip-path:url(#SVGID_22_);fill:#4070B6;}
	.st28{clip-path:url(#SVGID_22_);fill:#DD902F;}
	.st29{fill:#C91862;}
	.st30{fill:none;stroke:#272425;stroke-width:7.564600e-02;stroke-miterlimit:10;}
	.st31{fill:#9CC34D;}
	.st32{fill:#B88844;}
	.st33{fill:#78B552;}
	.st34{fill:#589B52;}
	.st35{fill:#5CA257;}
	
		.st36{fill:none;stroke:#FFFFFF;stroke-width:2.3815;stroke-linecap:round;stroke-linejoin:round;stroke-miterlimit:10;stroke-dasharray:0,4.6879;}
	.st37{fill:none;stroke:#FFFFFF;stroke-width:2.3815;stroke-linecap:round;stroke-linejoin:round;stroke-miterlimit:10;}
	.st38{fill:#AFCB49;}
	.st39{fill:#CE4E80;}
	.st40{fill:#E35100;}
	.st41{fill:#4DAEA9;}
	.st42{fill:#B45696;}
	.st43{fill:#E1DF00;}
	.st44{fill:#76B452;}
	.st45{fill:#E4A612;}
	.st46{fill:#474747;}
	.st47{fill:#B2C633;}
	.st48{fill:#272425;}
	.st49{fill:#5D9E3B;}
	.st50{fill:#F3D33F;}
	.st51{fill:#526D59;}
	.st52{fill:#E2D1B1;}
	.st53{fill:#75398E;}
	.st54{fill:#EBB146;}
	.st55{fill:#F1F1F1;}
	.st56{fill:none;stroke:#5FA03C;stroke-width:1.2441;stroke-linecap:round;stroke-linejoin:round;stroke-miterlimit:10;}
	.st57{fill:none;stroke:#5FA03C;stroke-width:1.6816;stroke-linecap:round;stroke-linejoin:round;stroke-miterlimit:10;}
</style>
<g>
	<circle class="st0" cx="39.5" cy="36.1" r="35.1"/>
	<g>
		<path class="st1" d="M17.8,39.1c1.2,0.6,2.5,0.9,3.8,0.5c1.6-0.5,2.3-1.6,1.8-3.2c-0.5-1.5-1.7-2.1-3.1-1.6
			c-0.9,0.3-1.3,0.6-2,1.5l-1.9-0.5l-1.9-7.9l8.7-2.7l0.9,3l-5.6,1.7l0.6,2.9c0.5-0.4,1-0.7,1.6-0.9c2.6-0.8,5.3,0,6.3,3.2
			c1,3.4-1,6.2-4,7.1c-2.5,0.8-4.5,0.4-6.1-0.5L17.8,39.1z"/>
		<path class="st1" d="M28.1,31.9c-1.6-5.2-0.2-8.6,3-9.6c3.3-1,6.3,1,7.9,6.2c1.6,5.2,0.3,8.7-3,9.7C32.8,39.3,29.7,37.1,28.1,31.9
			z M35.7,29.6c-1.3-4.2-2.5-4.8-3.7-4.5c-1.2,0.4-1.8,1.6-0.5,5.8c1.3,4.2,2.6,5,3.7,4.6C36.4,35.1,37,33.8,35.7,29.6z"/>
		<path class="st1" d="M39.6,24.7c-1-3.2,0-5.4,2.2-6.1c2.2-0.7,4.3,0.6,5.3,3.8c1,3.2,0,5.5-2.2,6.2S40.6,27.9,39.6,24.7z M45.2,23
			c-0.7-2.4-1.8-3.1-2.8-2.8c-1,0.3-1.5,1.5-0.7,3.9c0.7,2.4,1.8,3.2,2.8,2.9C45.5,26.6,45.9,25.4,45.2,23z M47.4,34.8l3.6-19
			l1.7-0.5l-3.6,19L47.4,34.8z M52.9,27.6c-1-3.2,0-5.4,2.2-6.1c2.2-0.7,4.3,0.6,5.3,3.8c1,3.2,0,5.5-2.2,6.2
			C56,32.1,53.9,30.8,52.9,27.6z M58.4,25.9c-0.7-2.4-1.8-3.1-2.8-2.8c-1,0.3-1.5,1.5-0.7,3.9c0.7,2.4,1.8,3.2,2.8,2.9
			C58.7,29.5,59.1,28.2,58.4,25.9z"/>
	</g>
	<g>
		<path class="st1" d="M31.7,49.4c0.8-0.3,1.5-0.1,2.3,0.2l-0.4-1.2l-0.9-2.8l1.2-0.4l3.3,10.6l-1,0.3l-0.4-0.8l0,0
			c-0.4,0.7-1,1.4-1.9,1.7c-1.8,0.6-3.4-0.4-4.2-2.9C29,51.8,30.1,49.9,31.7,49.4z M33.8,55.9c0.7-0.2,1.2-0.7,1.5-1.6l-1.2-3.8
			c-0.8-0.4-1.4-0.4-2-0.2c-1.2,0.4-1.7,1.8-1.2,3.4C31.5,55.5,32.6,56.3,33.8,55.9z"/>
		<path class="st1" d="M40.3,46.7c1-0.3,1.7-0.1,2.4,0.2l-0.4,1c-0.5-0.2-1.1-0.4-1.7-0.2c-1.3,0.4-1.9,1.8-1.4,3.5
			c0.5,1.7,1.8,2.5,3.1,2.1c0.7-0.2,1.2-0.7,1.5-1.3l0.8,0.6c-0.5,0.8-1.2,1.4-2.1,1.7c-1.9,0.6-3.8-0.3-4.6-2.7
			C37.2,49.2,38.4,47.3,40.3,46.7z"/>
		<path class="st1" d="M44.7,46.6L43.7,47l-0.3-0.9l1.1-0.4L44,43.6l1-0.3l0.6,2l2-0.6l0.3,1l-2,0.6l1.2,4c0.3,0.9,0.7,1.3,1.5,1.1
			c0.3-0.1,0.5-0.3,0.8-0.4l0.5,0.9c-0.4,0.3-0.8,0.5-1.3,0.7c-1.5,0.5-2.4-0.3-2.8-1.8L44.7,46.6z"/>
		<path class="st1" d="M51.9,43.2c1.8-0.5,3.8,0.4,4.5,2.8c0.7,2.4-0.4,4.3-2.2,4.8s-3.8-0.4-4.5-2.8C48.9,45.6,50.1,43.7,51.9,43.2
			z M53.9,49.7c1.3-0.4,1.7-1.8,1.2-3.4c-0.5-1.7-1.7-2.5-3-2.2c-1.2,0.4-1.7,1.8-1.2,3.4C51.5,49.3,52.7,50.1,53.9,49.7z"/>
		<path class="st1" d="M59.4,47.1c0.5-0.1,1,0.1,1.2,0.7c0.2,0.5-0.1,1-0.6,1.2c-0.5,0.2-1-0.1-1.2-0.6
			C58.6,47.8,58.9,47.3,59.4,47.1z"/>
	</g>
</g>
</svg>
