<svg xmlns="http://www.w3.org/2000/svg" viewBox="0 0 503.03 418.52"><defs><style>.cls-1{fill:none;stroke:#000;stroke-linecap:round;stroke-linejoin:round;stroke-width:16px;}</style></defs><title>nin-juguetes</title><g id="Capa_2" data-name="Capa 2"><g id="Layer_1" data-name="Layer 1"><path class="cls-1" d="M415.38,347.51l-23.93-167.8h30.32C434.7,179.71,443,170.5,443,158c0-11.67-8.18-20.87-20.87-20.87l-208.67.08C210.87-14.36,8-12.53,49.91,41.2L64.12,60.57,28.48,95.81a35,35,0,0,0,0,49.37h0a35,35,0,0,0,49.37,0l32.78-32.78s23.26,11.27,16,57.31l-47.32,170"/><path class="cls-1" d="M8,202c1.11,7.3,2.62,14.53,4.37,21.59,27,108,126.12,186.92,239.15,186.92s212-78.74,239.07-186.6c1.83-7.22,3.25-14.53,4.44-21.91"/><circle cx="76.5" cy="83.82" r="7.46"/><path class="cls-1" d="M217.54,137.24H314.3a3.93,3.93,0,0,1,4,4v51.27a3.93,3.93,0,0,1-4,4H217.54a3.93,3.93,0,0,1-4-4V141.21A4,4,0,0,1,217.54,137.24Z"/><path class="cls-1" d="M105.95,362.33a146.06,146.06,0,0,1,283.35,5.52"/></g></g></svg>