<svg xmlns="http://www.w3.org/2000/svg" viewBox="0 0 301.48 506.17"><defs><style>.cls-1,.cls-2{fill:none;stroke:#000;stroke-width:16px;}.cls-1{stroke-miterlimit:10;}.cls-2{stroke-linecap:round;stroke-linejoin:round;}</style></defs><title>ele-pequenos-electros</title><g id="Capa_2" data-name="Capa 2"><g id="Layer_1" data-name="Layer 1"><path class="cls-1" d="M36.29,462.51S57.42,325.25,59.18,315.57s7.48-22.44,17.6-24.2H225.5c7.92,0,20.68,8.8,22.44,19.8s22,150,22,150v30c0,4.4-.8,7-4.81,7H44.41c-6.85,0-8.11-.69-8.11-8.44Z"/><line class="cls-1" x1="36.29" y1="462.51" x2="268.07" y2="462.51"/><polygon class="cls-2" points="76.78 291.37 52.69 52.45 8 8 257.84 8 231.44 291.37 76.78 291.37"/><path class="cls-1" d="M247.14,130.73s-20.72-27-57-25.7-62.7,27-93.72,25.7-34.84-7.89-34.84-7.89"/><circle class="cls-1" cx="153.23" cy="395.1" r="22.77"/><line class="cls-2" x1="134.75" y1="344.61" x2="169.4" y2="344.61"/><path class="cls-1" d="M252.18,68.74h20.53c12.54,0,20.77,0,20.77,16.12V201.26c0,22.57-2.87,29.37-19.16,29.37H237.1"/></g></g></svg>