<svg xmlns="http://www.w3.org/2000/svg" viewBox="0 0 471.78 350.23"><defs><style>.cls-1,.cls-2,.cls-3{fill:none;stroke:#000;}.cls-1{stroke-miterlimit:10;}.cls-1,.cls-2{stroke-width:16px;}.cls-2,.cls-3{stroke-linecap:round;stroke-linejoin:round;}.cls-3{stroke-width:10px;}</style></defs><title>hog-cocina</title><g id="Capa_2" data-name="Capa 2"><g id="Layer_1" data-name="Layer 1"><path class="cls-1" d="M361.92,46.55H108.78a54.16,54.16,0,0,0-54,54V262.23a80.24,80.24,0,0,0,80,80H335.92a80.24,80.24,0,0,0,80-80V100.55A54.16,54.16,0,0,0,361.92,46.55Z"/><line class="cls-1" x1="54.78" y1="120.55" x2="415.92" y2="120.55"/><path class="cls-1" d="M200.41,42.95a34.95,34.95,0,0,1,69.89,0"/><line class="cls-2" x1="54.78" y1="166.55" x2="8" y2="140.55"/><line class="cls-2" x1="463.78" y1="140.55" x2="417" y2="166.55"/><path class="cls-3" d="M142.37,310A55.3,55.3,0,0,1,87.13,254.8"/></g></g></svg>