<svg xmlns="http://www.w3.org/2000/svg" viewBox="0 0 452.51 378.27"><defs><style>.cls-1,.cls-2{fill:none;stroke:#000;stroke-width:16px;}.cls-1{stroke-miterlimit:10;}.cls-2{stroke-linecap:round;stroke-linejoin:round;}</style></defs><title>hog-muebles</title><g id="Capa_2" data-name="Capa 2"><g id="Layer_1" data-name="Layer 1"><path d="M159.2,94a11.33,11.33,0,0,0,11.31-11.31,11.61,11.61,0,0,0-3.32-8.07,11.85,11.85,0,0,0-16.06.08,11.4,11.4,0,0,0,.07,16A11.36,11.36,0,0,0,159.2,94Z"/><path d="M226.25,94a11.33,11.33,0,0,0,11.31-11.31,11.61,11.61,0,0,0-3.32-8.07,11.83,11.83,0,0,0-16,0,11.64,11.64,0,0,0-3.31,8.07,11.46,11.46,0,0,0,3.31,8A11.3,11.3,0,0,0,226.25,94Z"/><path d="M293.3,94a11.57,11.57,0,0,0,8-3.32,11.45,11.45,0,0,0,3.31-8,11.64,11.64,0,0,0-3.31-8.07,11.85,11.85,0,0,0-16.06.08,11.24,11.24,0,0,0-3.25,8,11.12,11.12,0,0,0,3.32,8A11.33,11.33,0,0,0,293.3,94Z"/><path d="M159.2,161a11.35,11.35,0,0,0,8-19.38,11.91,11.91,0,0,0-16.06,0,11.69,11.69,0,0,0-3.24,8.06,11.57,11.57,0,0,0,3.31,8A11.39,11.39,0,0,0,159.2,161Z"/><path d="M226.25,161a11.35,11.35,0,0,0,8-19.38,11.91,11.91,0,0,0-16.06,0,11.72,11.72,0,0,0-3.24,8.06,11.84,11.84,0,0,0,3.24,8A11.67,11.67,0,0,0,226.25,161Z"/><path d="M293.3,161a11.45,11.45,0,0,0,11.31-11.31,11.49,11.49,0,0,0-3.31-8.06,11.83,11.83,0,0,0-16.06,0,11.55,11.55,0,0,0,0,16.06A11.5,11.5,0,0,0,293.3,161Z"/><path d="M192.69,127.47a11.31,11.31,0,0,0,8-19.31,11.67,11.67,0,0,0-16,0,11.31,11.31,0,0,0,8,19.31Z"/><path d="M259.73,127.47a11.45,11.45,0,0,0,8-3.31,11.27,11.27,0,0,0,3.31-8,11.44,11.44,0,0,0-3.31-8,11.67,11.67,0,0,0-16,0,11.31,11.31,0,0,0,8,19.31Z"/><path class="cls-1" d="M48.59,113.35V93a85.25,85.25,0,0,1,85-85H320.1a85.25,85.25,0,0,1,85,85v20.35"/><path class="cls-1" d="M404.25,113.35h0A40.37,40.37,0,0,0,364,153.61V288.26H88.51V153.61a40.37,40.37,0,0,0-40.25-40.25h0A40.37,40.37,0,0,0,8,153.61V365.27a5,5,0,0,0,5,5H439.51a5,5,0,0,0,5-5V153.61A40.37,40.37,0,0,0,404.25,113.35Z"/><path class="cls-2" d="M89.23,234.81a17,17,0,0,1,17-17H347a17,17,0,0,1,17,17"/></g></g></svg>