<svg xmlns="http://www.w3.org/2000/svg" viewBox="0 0 499.26 318.44"><defs><style>.cls-1,.cls-2,.cls-3{fill:none;stroke:#000;}.cls-1{stroke-miterlimit:10;}.cls-1,.cls-2{stroke-width:16px;}.cls-2,.cls-3{stroke-linejoin:round;}.cls-3{stroke-linecap:round;stroke-width:10px;}</style></defs><title>tec-computo</title><g id="Capa_2" data-name="Capa 2"><g id="Layer_1" data-name="Layer 1"><path class="cls-1" d="M483.14,261.34H433.28a8.18,8.18,0,0,0,8.12-8.12V16.12A8.18,8.18,0,0,0,433.28,8H66a8.18,8.18,0,0,0-8.12,8.12v237.1A8.18,8.18,0,0,0,66,261.34H16.12A8.18,8.18,0,0,0,8,269.46v16.71a24.38,24.38,0,0,0,24.27,24.27H467a24.38,24.38,0,0,0,24.27-24.27V269.46A8.06,8.06,0,0,0,483.14,261.34Z"/><path class="cls-2" d="M57.38,261.34H167.86v2.36a9.47,9.47,0,0,0,9.44,9.44H319.22a9.47,9.47,0,0,0,9.44-9.44v-2.36H439.14"/><line class="cls-3" x1="107.71" y1="87.22" x2="147.37" y2="53.23"/><line class="cls-3" x1="107.71" y1="121.21" x2="180.13" y2="59.46"/></g></g></svg>