<svg xmlns="http://www.w3.org/2000/svg" viewBox="0 0 417.46 502.75"><defs><style>.cls-1,.cls-2{fill:none;stroke:#000;stroke-linejoin:round;}.cls-1{stroke-width:16px;}.cls-2{stroke-linecap:round;stroke-width:10px;}</style></defs><title>ele-cocina</title><g id="Capa_2" data-name="Capa 2"><g id="Layer_1" data-name="Layer 1"><path class="cls-1" d="M8,445.19v-423H409.46v423h0a38.52,38.52,0,0,1-38.41,38.5H46.5A38.61,38.61,0,0,1,8,445.19Z"/><rect x="46.5" y="483.59" width="45.45" height="19.15"/><rect x="325.51" y="483.59" width="45.45" height="19.15"/><path d="M355.06,180.14V417.28H62.5V180.14H355.06m16-16H46.5V433.28H371.06V164.14Z"/><path class="cls-1" d="M8,113H8Z"/><circle cx="64.86" cy="67.58" r="18.36"/><circle cx="160.78" cy="67.58" r="18.36"/><circle cx="256.69" cy="67.58" r="18.36"/><circle cx="352.6" cy="67.58" r="18.36"/><rect x="36.88" width="134.57" height="19.25"/><rect x="246.02" width="134.57" height="19.25"/><line class="cls-2" x1="91.96" y1="242.24" x2="133.64" y2="206.52"/><line class="cls-2" x1="91.96" y1="277.97" x2="168.07" y2="213.17"/></g></g></svg>