<svg xmlns="http://www.w3.org/2000/svg" viewBox="0 0 424.8 431.98"><defs><style>.cls-1,.cls-2,.cls-3{fill:none;stroke:#000;}.cls-1,.cls-2{stroke-linecap:round;stroke-linejoin:round;}.cls-1,.cls-3{stroke-width:16px;}.cls-2{stroke-width:10px;}.cls-3{stroke-miterlimit:10;}</style></defs><title>hog-terrazas-parrillas</title><g id="Capa_2" data-name="Capa 2"><g id="Layer_1" data-name="Layer 1"><line class="cls-1" x1="81.83" y1="117.81" x2="8" y2="117.81"/><path class="cls-1" d="M249.58,261.31A167.22,167.22,0,0,0,416.8,94.09H82.36A167.22,167.22,0,0,0,249.58,261.31Z"/><path class="cls-2" d="M254.58,230.68A141.57,141.57,0,0,1,136.42,167"/><line class="cls-1" x1="99.45" y1="413.14" x2="171.6" y2="242.35"/><line class="cls-1" x1="355.78" y1="309.15" x2="327.71" y2="242.71"/><line class="cls-1" x1="300.76" y1="381.67" x2="115.48" y2="381.67"/><circle class="cls-3" cx="374.49" cy="381.67" r="42.31"/><circle cx="374.49" cy="381.67" r="10.22"/><path class="cls-1" d="M201.91,8s-11.6,14,0,30.13,0,27.63,0,27.63"/><path class="cls-1" d="M249.58,8s-11.6,14,0,30.13,0,27.63,0,27.63"/><path class="cls-1" d="M297.25,8s-11.6,14,0,30.13,0,27.63,0,27.63"/></g></g></svg>