<svg xmlns="http://www.w3.org/2000/svg" viewBox="0 0 438.71 460.38"><defs><style>.cls-1{fill:none;stroke:#000;stroke-linecap:round;stroke-linejoin:round;stroke-width:16px;}</style></defs><title>dep-maquinas-ejercicios</title><g id="Capa_2" data-name="Capa 2"><g id="Layer_1" data-name="Layer 1"><path class="cls-1" d="M365.46,404.82,113,442.12c-65.51,0-108.31-58.71-104.75-107l.38-7.45c0-46.06,50.86-106.48,121.9-94l227.63,34c45,7.08,69.89,26.17,72.59,66.2l0,5.24C430.68,385.14,393.67,401.44,365.46,404.82Z"/><circle class="cls-1" cx="113.03" cy="338.5" r="35.44"/><line class="cls-1" x1="61.34" y1="428.47" x2="39.27" y2="452.38"/><line class="cls-1" x1="354.33" y1="406.46" x2="396.3" y2="452.38"/><line class="cls-1" x1="162.59" y1="235.48" x2="127.19" y2="154.94"/><line class="cls-1" x1="77.59" y1="150.63" x2="169.68" y2="150.63"/><path class="cls-1" d="M367.34,269.32s-37.54-176-39.39-185.81"/><path class="cls-1" d="M284.77,88.25S382,72.82,396.3,8"/></g></g></svg>