<svg xmlns="http://www.w3.org/2000/svg" viewBox="0 0 296.65 499.98"><defs><style>.cls-1,.cls-2{fill:none;stroke:#000;stroke-linejoin:round;stroke-width:16px;}.cls-2{stroke-linecap:round;}</style></defs><title>dep-maleteria</title><g id="Capa_2" data-name="Capa 2"><g id="Layer_1" data-name="Layer 1"><line class="cls-1" x1="94.23" y1="126.62" x2="202.64" y2="126.62"/><path class="cls-1" d="M235.2,126.62H201.78V33.7A17.77,17.77,0,0,0,184,15.89H112.69A17.77,17.77,0,0,0,94.87,33.7v92.81H61.45A53.6,53.6,0,0,0,8,180V414.86a53.6,53.6,0,0,0,53.45,53.45H235.2a53.53,53.53,0,0,0,53.45-53.45V180A53.37,53.37,0,0,0,235.2,126.62Z"/><path d="M75.77,470.35h1.29a8.15,8.15,0,0,1,8.16,8.16v13.31A8.15,8.15,0,0,1,77.05,500H75.77a8.15,8.15,0,0,1-8.16-8.16V478.51A8.15,8.15,0,0,1,75.77,470.35Z"/><path d="M218.31,470.35h1.29a8.15,8.15,0,0,1,8.16,8.16v13.31A8.15,8.15,0,0,1,219.6,500h-1.29a8.15,8.15,0,0,1-8.16-8.16V478.51A8.15,8.15,0,0,1,218.31,470.35Z"/><line class="cls-2" x1="94.87" y1="248.59" x2="203.28" y2="248.59"/><line class="cls-2" x1="94.87" y1="302.26" x2="203.28" y2="302.26"/><line class="cls-2" x1="94.87" y1="355.93" x2="203.28" y2="355.93"/><path d="M179.13,31.77h-61.5a5.31,5.31,0,0,1-5.37-5.37v-21A5.31,5.31,0,0,1,117.63,0h61.5a5.31,5.31,0,0,1,5.37,5.37v21A5.31,5.31,0,0,1,179.13,31.77Z"/></g></g></svg>