<svg xmlns="http://www.w3.org/2000/svg" viewBox="0 0 263.45 471.72"><defs><style>.cls-1{fill:none;stroke:#000;stroke-linejoin:round;stroke-width:16px;}</style></defs><title>tec-telefonia</title><g id="Capa_2" data-name="Capa 2"><g id="Layer_1" data-name="Layer 1"><path class="cls-1" d="M217.37,8H46.08A38.07,38.07,0,0,0,8,46.08V425.64a38.13,38.13,0,0,0,38.08,38.08H217.37a38.13,38.13,0,0,0,38.08-38.08V46A38.11,38.11,0,0,0,217.37,8Z"/><path d="M124.4,40.52h37.4a5.08,5.08,0,0,1,0,10.16H124.4a5.08,5.08,0,0,1,0-10.16Z"/><circle cx="102.62" cy="44.62" r="6.05"/><circle cx="131.73" cy="419.29" r="23.83"/><path d="M220.24,85.58l-2.8,283H44.11v-283H220.24m10.1-10H34.11v303H227.34l3-303Z"/></g></g></svg>