<svg xmlns="http://www.w3.org/2000/svg" viewBox="0 0 369.77 502.58"><defs><style>.cls-1{fill:none;stroke:#000;stroke-linejoin:round;stroke-width:16px;}</style></defs><title>tec-audio</title><g id="Capa_2" data-name="Capa 2"><g id="Layer_1" data-name="Layer 1"><path class="cls-1" d="M329.77,8H40A31.92,31.92,0,0,0,8,39.9V462.59a32.07,32.07,0,0,0,32,32H329.77a32.07,32.07,0,0,0,32-32V40A32.07,32.07,0,0,0,329.77,8Z"/><circle cx="55.85" cy="55.46" r="10.86"/><circle cx="313.82" cy="55.46" r="10.86"/><circle cx="55.75" cy="447.13" r="10.86"/><circle cx="313.72" cy="447.13" r="10.86"/><path d="M184.88,236.91a90.45,90.45,0,1,1-90.45,90.45,90.56,90.56,0,0,1,90.45-90.45m0-16A106.45,106.45,0,1,0,291.34,327.36,106.45,106.45,0,0,0,184.88,220.91Z"/><circle cx="184.88" cy="327.36" r="19.47"/><path d="M184.88,91.71a40.46,40.46,0,1,1-40.46,40.46,40.5,40.5,0,0,1,40.46-40.46m0-16a56.46,56.46,0,1,0,56.46,56.46,56.41,56.41,0,0,0-56.46-56.46Z"/><circle cx="184.88" cy="132.17" r="9.78"/></g></g></svg>