<svg xmlns="http://www.w3.org/2000/svg" viewBox="0 0 392.43 420.2"><defs><style>.cls-1,.cls-2{fill:none;stroke:#000;stroke-linejoin:round;stroke-width:16px;}.cls-2{stroke-linecap:round;}</style></defs><title>dep-rodados</title><g id="Capa_2" data-name="Capa 2"><g id="Layer_1" data-name="Layer 1"><circle class="cls-1" cx="43.62" cy="376.58" r="35.62"/><circle class="cls-1" cx="145.38" cy="376.58" r="35.62"/><circle class="cls-1" cx="247.14" cy="376.58" r="35.62"/><circle class="cls-1" cx="348.8" cy="376.58" r="35.62"/><line class="cls-2" x1="209.4" y1="146.2" x2="174.44" y2="206.18"/><line class="cls-2" x1="252.12" y1="146.2" x2="217.16" y2="206.18"/><line class="cls-1" x1="8" y1="275.78" x2="371.12" y2="275.78"/><path class="cls-2" d="M246.06,140.27H164.8V12.56A4.52,4.52,0,0,0,160.24,8H14.85a4.52,4.52,0,0,0-4.56,4.56v287a4.52,4.52,0,0,0,4.56,4.56H366.56a4.52,4.52,0,0,0,4.56-4.56V265.33C371.12,196.59,314.89,140.27,246.06,140.27Z"/></g></g></svg>