<svg xmlns="http://www.w3.org/2000/svg" viewBox="0 0 500.81 372.94"><defs><style>.cls-1{fill:none;stroke:#000;stroke-miterlimit:10;stroke-width:16px;}</style></defs><title>hog-dormitorio</title><g id="Capa_2" data-name="Capa 2"><g id="Layer_1" data-name="Layer 1"><path class="cls-1" d="M31.92,203V38.36A30.45,30.45,0,0,1,62.28,8H439.46a30.45,30.45,0,0,1,30.36,30.36V203"/><path class="cls-1" d="M482.69,364.94a10.15,10.15,0,0,0,10.12-10.12V213.15A10.15,10.15,0,0,0,482.69,203H18.12A10.15,10.15,0,0,0,8,213.15V354.82a10.15,10.15,0,0,0,10.12,10.12H40.81c5.06,0,9.66-2.3,12.42-8.28s12.88-29.44,14.72-34,5.06-6,9.66-6H420.29c4.6,0,8.74.92,11,4.6s17,32.66,18.4,35,3.68,8.74,7.82,8.74Z"/><line class="cls-1" x1="8" y1="278.47" x2="492.81" y2="278.47"/><rect class="cls-1" x="74.24" y="120.23" width="162.51" height="82.8" rx="11" ry="11"/><rect class="cls-1" x="263.15" y="120.23" width="162.51" height="82.8" rx="11" ry="11"/></g></g></svg>